<?xml version="1.0" encoding="UTF-8" standalone="no"?>
<!DOCTYPE svg PUBLIC "-//W3C//DTD SVG 1.1//EN"
 "http://www.w3.org/Graphics/SVG/1.1/DTD/svg11.dtd">
<!-- Generated by graphviz version 2.43.0 (0)
 -->
<!-- Title: %3 Pages: 1 -->
<svg width="1697pt" height="2230pt"
 viewBox="0.00 0.00 1696.68 2230.15" xmlns="http://www.w3.org/2000/svg" xmlns:xlink="http://www.w3.org/1999/xlink">
<g id="graph0" class="graph" transform="scale(1 1) rotate(0) translate(4 2226.15)">
<title>%3</title>
<polygon fill="white" stroke="transparent" points="-4,4 -4,-2226.15 1692.68,-2226.15 1692.68,4 -4,4"/>
<!-- bartlett/php&#45;compatinfo&#45;db -->
<g id="node1" class="node">
<title>bartlett/php&#45;compatinfo&#45;db</title>
<ellipse fill="lightgrey" stroke="black" stroke-width="2" cx="135.84" cy="-1146.03" rx="135.68" ry="18"/>
<text text-anchor="middle" x="135.84" y="-1142.33" font-family="Times,serif" font-size="14.00">bartlett/php&#45;compatinfo&#45;db</text>
</g>
<!-- php -->
<g id="node2" class="node">
<title>php</title>
<path fill="#eeeeee" stroke="black" d="M1540.68,-943.03C1540.68,-943.03 1510.68,-943.03 1510.68,-943.03 1504.68,-943.03 1498.68,-937.03 1498.68,-931.03 1498.68,-931.03 1498.68,-919.03 1498.68,-919.03 1498.68,-913.03 1504.68,-907.03 1510.68,-907.03 1510.68,-907.03 1540.68,-907.03 1540.68,-907.03 1546.68,-907.03 1552.68,-913.03 1552.68,-919.03 1552.68,-919.03 1552.68,-931.03 1552.68,-931.03 1552.68,-937.03 1546.68,-943.03 1540.68,-943.03"/>
<text text-anchor="middle" x="1525.68" y="-921.33" font-family="Times,serif" font-size="14.00" fill="#314b5f">php</text>
</g>
<!-- bartlett/php&#45;compatinfo&#45;db&#45;&gt;php -->
<g id="edge1" class="edge">
<title>bartlett/php&#45;compatinfo&#45;db&#45;&gt;php</title>
<path fill="none" stroke="#1a2833" d="M205.56,-1130.5C231.82,-1124.75 262.09,-1118.34 289.68,-1113.03 323.76,-1106.48 332.34,-1105.07 366.68,-1100.03 494.74,-1081.26 526.49,-1072.05 655.68,-1064.03 927.64,-1047.16 996.23,-1070.38 1268.68,-1075.03 1302.45,-1075.61 1312.92,-1086.53 1344.68,-1075.03 1412.84,-1050.36 1473.33,-987.34 1503.8,-951.33"/>
<polygon fill="#1a2833" stroke="#1a2833" points="1506.84,-953.15 1510.54,-943.22 1501.45,-948.68 1506.84,-953.15"/>
<text text-anchor="middle" x="801.18" y="-1067.03" font-family="Times,serif" font-size="10.00" fill="#767676">^8.1</text>
</g>
<!-- ext&#45;json -->
<g id="node3" class="node">
<title>ext&#45;json</title>
<path fill="#eeeeee" stroke="black" d="M526.68,-1878.03C526.68,-1878.03 477.68,-1878.03 477.68,-1878.03 471.68,-1878.03 465.68,-1872.03 465.68,-1866.03 465.68,-1866.03 465.68,-1854.03 465.68,-1854.03 465.68,-1848.03 471.68,-1842.03 477.68,-1842.03 477.68,-1842.03 526.68,-1842.03 526.68,-1842.03 532.68,-1842.03 538.68,-1848.03 538.68,-1854.03 538.68,-1854.03 538.68,-1866.03 538.68,-1866.03 538.68,-1872.03 532.68,-1878.03 526.68,-1878.03"/>
<text text-anchor="middle" x="502.18" y="-1856.33" font-family="Times,serif" font-size="14.00" fill="#314b5f">ext&#45;json</text>
</g>
<!-- bartlett/php&#45;compatinfo&#45;db&#45;&gt;ext&#45;json -->
<g id="edge2" class="edge">
<title>bartlett/php&#45;compatinfo&#45;db&#45;&gt;ext&#45;json</title>
<path fill="none" stroke="#1a2833" d="M138.79,-1164.27C149.32,-1259.82 202.26,-1702.13 289.68,-1803.03 330.62,-1850.3 406.23,-1860.36 455.07,-1861.51"/>
<polygon fill="#1a2833" stroke="#1a2833" points="455.33,-1865.02 465.37,-1861.63 455.41,-1858.02 455.33,-1865.02"/>
<text text-anchor="middle" x="319.18" y="-1844.03" font-family="Times,serif" font-size="10.00" fill="#767676">*</text>
</g>
<!-- ext&#45;pcre -->
<g id="node4" class="node">
<title>ext&#45;pcre</title>
<path fill="#eeeeee" stroke="black" d="M527.68,-1824.03C527.68,-1824.03 476.68,-1824.03 476.68,-1824.03 470.68,-1824.03 464.68,-1818.03 464.68,-1812.03 464.68,-1812.03 464.68,-1800.03 464.68,-1800.03 464.68,-1794.03 470.68,-1788.03 476.68,-1788.03 476.68,-1788.03 527.68,-1788.03 527.68,-1788.03 533.68,-1788.03 539.68,-1794.03 539.68,-1800.03 539.68,-1800.03 539.68,-1812.03 539.68,-1812.03 539.68,-1818.03 533.68,-1824.03 527.68,-1824.03"/>
<text text-anchor="middle" x="502.18" y="-1802.33" font-family="Times,serif" font-size="14.00" fill="#314b5f">ext&#45;pcre</text>
</g>
<!-- bartlett/php&#45;compatinfo&#45;db&#45;&gt;ext&#45;pcre -->
<g id="edge3" class="edge">
<title>bartlett/php&#45;compatinfo&#45;db&#45;&gt;ext&#45;pcre</title>
<path fill="none" stroke="#1a2833" d="M139.1,-1164.05C150.83,-1254.67 207.24,-1659.8 289.68,-1751.03 331.14,-1796.93 405.58,-1806.68 454.17,-1807.7"/>
<polygon fill="#1a2833" stroke="#1a2833" points="454.39,-1811.2 464.42,-1807.8 454.45,-1804.2 454.39,-1811.2"/>
<text text-anchor="middle" x="319.18" y="-1791.03" font-family="Times,serif" font-size="10.00" fill="#767676">*</text>
</g>
<!-- ext&#45;pdo -->
<g id="node5" class="node">
<title>ext&#45;pdo</title>
<path fill="#eeeeee" stroke="black" d="M525.18,-1770.03C525.18,-1770.03 479.18,-1770.03 479.18,-1770.03 473.18,-1770.03 467.18,-1764.03 467.18,-1758.03 467.18,-1758.03 467.18,-1746.03 467.18,-1746.03 467.18,-1740.03 473.18,-1734.03 479.18,-1734.03 479.18,-1734.03 525.18,-1734.03 525.18,-1734.03 531.18,-1734.03 537.18,-1740.03 537.18,-1746.03 537.18,-1746.03 537.18,-1758.03 537.18,-1758.03 537.18,-1764.03 531.18,-1770.03 525.18,-1770.03"/>
<text text-anchor="middle" x="502.18" y="-1748.33" font-family="Times,serif" font-size="14.00" fill="#314b5f">ext&#45;pdo</text>
</g>
<!-- bartlett/php&#45;compatinfo&#45;db&#45;&gt;ext&#45;pdo -->
<g id="edge4" class="edge">
<title>bartlett/php&#45;compatinfo&#45;db&#45;&gt;ext&#45;pdo</title>
<path fill="none" stroke="#1a2833" d="M139.52,-1164.29C152.56,-1250.8 211.93,-1618.73 289.68,-1700.03 332.89,-1745.23 408.53,-1753.73 456.67,-1754.09"/>
<polygon fill="#1a2833" stroke="#1a2833" points="456.81,-1757.59 466.8,-1754.05 456.78,-1750.59 456.81,-1757.59"/>
<text text-anchor="middle" x="319.18" y="-1739.03" font-family="Times,serif" font-size="10.00" fill="#767676">*</text>
</g>
<!-- ext&#45;phar -->
<g id="node6" class="node">
<title>ext&#45;phar</title>
<path fill="#eeeeee" stroke="black" d="M528.68,-1716.03C528.68,-1716.03 475.68,-1716.03 475.68,-1716.03 469.68,-1716.03 463.68,-1710.03 463.68,-1704.03 463.68,-1704.03 463.68,-1692.03 463.68,-1692.03 463.68,-1686.03 469.68,-1680.03 475.68,-1680.03 475.68,-1680.03 528.68,-1680.03 528.68,-1680.03 534.68,-1680.03 540.68,-1686.03 540.68,-1692.03 540.68,-1692.03 540.68,-1704.03 540.68,-1704.03 540.68,-1710.03 534.68,-1716.03 528.68,-1716.03"/>
<text text-anchor="middle" x="502.18" y="-1694.33" font-family="Times,serif" font-size="14.00" fill="#314b5f">ext&#45;phar</text>
</g>
<!-- bartlett/php&#45;compatinfo&#45;db&#45;&gt;ext&#45;phar -->
<g id="edge5" class="edge">
<title>bartlett/php&#45;compatinfo&#45;db&#45;&gt;ext&#45;phar</title>
<path fill="none" stroke="#1a2833" d="M136.26,-1164.16C134.97,-1237.59 140.46,-1515.6 289.68,-1654.03 333.86,-1695.03 405.92,-1701.89 453.44,-1701.32"/>
<polygon fill="#1a2833" stroke="#1a2833" points="453.57,-1704.82 463.49,-1701.09 453.41,-1697.82 453.57,-1704.82"/>
<text text-anchor="middle" x="319.18" y="-1688.03" font-family="Times,serif" font-size="10.00" fill="#767676">*</text>
</g>
<!-- ext&#45;spl -->
<g id="node7" class="node">
<title>ext&#45;spl</title>
<path fill="#eeeeee" stroke="black" d="M522.68,-1662.03C522.68,-1662.03 481.68,-1662.03 481.68,-1662.03 475.68,-1662.03 469.68,-1656.03 469.68,-1650.03 469.68,-1650.03 469.68,-1638.03 469.68,-1638.03 469.68,-1632.03 475.68,-1626.03 481.68,-1626.03 481.68,-1626.03 522.68,-1626.03 522.68,-1626.03 528.68,-1626.03 534.68,-1632.03 534.68,-1638.03 534.68,-1638.03 534.68,-1650.03 534.68,-1650.03 534.68,-1656.03 528.68,-1662.03 522.68,-1662.03"/>
<text text-anchor="middle" x="502.18" y="-1640.33" font-family="Times,serif" font-size="14.00" fill="#314b5f">ext&#45;spl</text>
</g>
<!-- bartlett/php&#45;compatinfo&#45;db&#45;&gt;ext&#45;spl -->
<g id="edge6" class="edge">
<title>bartlett/php&#45;compatinfo&#45;db&#45;&gt;ext&#45;spl</title>
<path fill="none" stroke="#1a2833" d="M136.6,-1164.33C136.77,-1234.75 147.5,-1490.3 289.68,-1611.03 336.95,-1651.18 412.46,-1653.01 459.31,-1649.42"/>
<polygon fill="#1a2833" stroke="#1a2833" points="459.77,-1652.89 469.43,-1648.52 459.16,-1645.92 459.77,-1652.89"/>
<text text-anchor="middle" x="319.18" y="-1642.03" font-family="Times,serif" font-size="10.00" fill="#767676">*</text>
</g>
<!-- composer&#45;runtime&#45;api -->
<g id="node8" class="node">
<title>composer&#45;runtime&#45;api</title>
<path fill="#eeeeee" stroke="black" d="M1182.18,-1170.03C1182.18,-1170.03 1033.18,-1170.03 1033.18,-1170.03 1027.18,-1170.03 1021.18,-1164.03 1021.18,-1158.03 1021.18,-1158.03 1021.18,-1146.03 1021.18,-1146.03 1021.18,-1140.03 1027.18,-1134.03 1033.18,-1134.03 1033.18,-1134.03 1182.18,-1134.03 1182.18,-1134.03 1188.18,-1134.03 1194.18,-1140.03 1194.18,-1146.03 1194.18,-1146.03 1194.18,-1158.03 1194.18,-1158.03 1194.18,-1164.03 1188.18,-1170.03 1182.18,-1170.03"/>
<text text-anchor="middle" x="1107.68" y="-1148.33" font-family="Times,serif" font-size="14.00" fill="#314b5f">composer&#45;runtime&#45;api</text>
</g>
<!-- bartlett/php&#45;compatinfo&#45;db&#45;&gt;composer&#45;runtime&#45;api -->
<g id="edge7" class="edge">
<title>bartlett/php&#45;compatinfo&#45;db&#45;&gt;composer&#45;runtime&#45;api</title>
<path fill="none" stroke="#1a2833" d="M271.69,-1146.87C470.46,-1148.1 837.25,-1150.37 1010.83,-1151.44"/>
<polygon fill="#1a2833" stroke="#1a2833" points="1010.95,-1154.94 1020.97,-1151.5 1010.99,-1147.94 1010.95,-1154.94"/>
<text text-anchor="middle" x="502.18" y="-1152.03" font-family="Times,serif" font-size="10.00" fill="#767676">^2.0</text>
</g>
<!-- composer/semver -->
<g id="node9" class="node">
<title>composer/semver</title>
<path fill="#eeeeee" stroke="black" d="M883.18,-1036.03C883.18,-1036.03 719.18,-1036.03 719.18,-1036.03 713.18,-1036.03 707.18,-1030.03 707.18,-1024.03 707.18,-1024.03 707.18,-1012.03 707.18,-1012.03 707.18,-1006.03 713.18,-1000.03 719.18,-1000.03 719.18,-1000.03 883.18,-1000.03 883.18,-1000.03 889.18,-1000.03 895.18,-1006.03 895.18,-1012.03 895.18,-1012.03 895.18,-1024.03 895.18,-1024.03 895.18,-1030.03 889.18,-1036.03 883.18,-1036.03"/>
<text text-anchor="middle" x="801.18" y="-1014.33" font-family="Times,serif" font-size="14.00" fill="#314b5f">composer/semver: 3.4.0</text>
</g>
<!-- bartlett/php&#45;compatinfo&#45;db&#45;&gt;composer/semver -->
<g id="edge9" class="edge">
<title>bartlett/php&#45;compatinfo&#45;db&#45;&gt;composer/semver</title>
<path fill="none" stroke="#1a2833" d="M154.01,-1127.82C180.29,-1101.39 233.38,-1053.43 289.68,-1034.03 424.49,-987.57 591.38,-993.17 696.84,-1003.76"/>
<polygon fill="#1a2833" stroke="#1a2833" points="696.55,-1007.24 706.85,-1004.79 697.27,-1000.28 696.55,-1007.24"/>
<text text-anchor="middle" x="319.18" y="-1037.03" font-family="Times,serif" font-size="10.00" fill="#767676">^3.0</text>
</g>
<!-- doctrine/orm -->
<g id="node10" class="node">
<title>doctrine/orm</title>
<path fill="#eeeeee" stroke="black" d="M571.68,-1561.03C571.68,-1561.03 432.68,-1561.03 432.68,-1561.03 426.68,-1561.03 420.68,-1555.03 420.68,-1549.03 420.68,-1549.03 420.68,-1537.03 420.68,-1537.03 420.68,-1531.03 426.68,-1525.03 432.68,-1525.03 432.68,-1525.03 571.68,-1525.03 571.68,-1525.03 577.68,-1525.03 583.68,-1531.03 583.68,-1537.03 583.68,-1537.03 583.68,-1549.03 583.68,-1549.03 583.68,-1555.03 577.68,-1561.03 571.68,-1561.03"/>
<text text-anchor="middle" x="502.18" y="-1539.33" font-family="Times,serif" font-size="14.00" fill="#314b5f">doctrine/orm: 2.19.1</text>
</g>
<!-- bartlett/php&#45;compatinfo&#45;db&#45;&gt;doctrine/orm -->
<g id="edge27" class="edge">
<title>bartlett/php&#45;compatinfo&#45;db&#45;&gt;doctrine/orm</title>
<path fill="none" stroke="#1a2833" d="M153.44,-1164.12C212,-1227.94 409.08,-1442.68 477.52,-1517.26"/>
<polygon fill="#1a2833" stroke="#1a2833" points="475.14,-1519.84 484.48,-1524.84 480.29,-1515.1 475.14,-1519.84"/>
<text text-anchor="middle" x="319.18" y="-1371.03" font-family="Times,serif" font-size="10.00" fill="#767676">^2.12</text>
</g>
<!-- doctrine/dbal -->
<g id="node14" class="node">
<title>doctrine/dbal</title>
<path fill="#eeeeee" stroke="black" d="M1173.68,-1332.03C1173.68,-1332.03 1041.68,-1332.03 1041.68,-1332.03 1035.68,-1332.03 1029.68,-1326.03 1029.68,-1320.03 1029.68,-1320.03 1029.68,-1308.03 1029.68,-1308.03 1029.68,-1302.03 1035.68,-1296.03 1041.68,-1296.03 1041.68,-1296.03 1173.68,-1296.03 1173.68,-1296.03 1179.68,-1296.03 1185.68,-1302.03 1185.68,-1308.03 1185.68,-1308.03 1185.68,-1320.03 1185.68,-1320.03 1185.68,-1326.03 1179.68,-1332.03 1173.68,-1332.03"/>
<text text-anchor="middle" x="1107.68" y="-1310.33" font-family="Times,serif" font-size="14.00" fill="#314b5f">doctrine/dbal: 3.8.3</text>
</g>
<!-- bartlett/php&#45;compatinfo&#45;db&#45;&gt;doctrine/dbal -->
<g id="edge28" class="edge">
<title>bartlett/php&#45;compatinfo&#45;db&#45;&gt;doctrine/dbal</title>
<path fill="none" stroke="#1a2833" d="M166.45,-1163.61C209.08,-1187.95 290.94,-1231.15 366.68,-1251.03 487.82,-1282.84 851.29,-1302.65 1019.5,-1310.36"/>
<polygon fill="#1a2833" stroke="#1a2833" points="1019.42,-1313.86 1029.57,-1310.82 1019.73,-1306.87 1019.42,-1313.86"/>
<text text-anchor="middle" x="502.18" y="-1288.03" font-family="Times,serif" font-size="10.00" fill="#767676">^3.2</text>
</g>
<!-- symfony/console -->
<g id="node23" class="node">
<title>symfony/console</title>
<path fill="#eeeeee" stroke="black" d="M1189.68,-1278.03C1189.68,-1278.03 1025.68,-1278.03 1025.68,-1278.03 1019.68,-1278.03 1013.68,-1272.03 1013.68,-1266.03 1013.68,-1266.03 1013.68,-1254.03 1013.68,-1254.03 1013.68,-1248.03 1019.68,-1242.03 1025.68,-1242.03 1025.68,-1242.03 1189.68,-1242.03 1189.68,-1242.03 1195.68,-1242.03 1201.68,-1248.03 1201.68,-1254.03 1201.68,-1254.03 1201.68,-1266.03 1201.68,-1266.03 1201.68,-1272.03 1195.68,-1278.03 1189.68,-1278.03"/>
<text text-anchor="middle" x="1107.68" y="-1256.33" font-family="Times,serif" font-size="14.00" fill="#314b5f">symfony/console: v6.4.4</text>
</g>
<!-- bartlett/php&#45;compatinfo&#45;db&#45;&gt;symfony/console -->
<g id="edge41" class="edge">
<title>bartlett/php&#45;compatinfo&#45;db&#45;&gt;symfony/console</title>
<path fill="none" stroke="#1a2833" d="M198.95,-1162C245.01,-1173.44 309.47,-1188.6 366.68,-1199.03 494.18,-1222.29 526.61,-1226.2 655.68,-1238.03 774.75,-1248.95 912.04,-1254.67 1003.56,-1257.51"/>
<polygon fill="#1a2833" stroke="#1a2833" points="1003.56,-1261.01 1013.66,-1257.82 1003.77,-1254.01 1003.56,-1261.01"/>
<text text-anchor="middle" x="502.18" y="-1239.03" font-family="Times,serif" font-size="10.00" fill="#767676">^6.4 || ^7.0</text>
</g>
<!-- symfony/cache -->
<g id="node26" class="node">
<title>symfony/cache</title>
<path fill="#eeeeee" stroke="black" d="M1183.18,-782.03C1183.18,-782.03 1032.18,-782.03 1032.18,-782.03 1026.18,-782.03 1020.18,-776.03 1020.18,-770.03 1020.18,-770.03 1020.18,-758.03 1020.18,-758.03 1020.18,-752.03 1026.18,-746.03 1032.18,-746.03 1032.18,-746.03 1183.18,-746.03 1183.18,-746.03 1189.18,-746.03 1195.18,-752.03 1195.18,-758.03 1195.18,-758.03 1195.18,-770.03 1195.18,-770.03 1195.18,-776.03 1189.18,-782.03 1183.18,-782.03"/>
<text text-anchor="middle" x="1107.68" y="-760.33" font-family="Times,serif" font-size="14.00" fill="#314b5f">symfony/cache: v6.4.4</text>
</g>
<!-- bartlett/php&#45;compatinfo&#45;db&#45;&gt;symfony/cache -->
<g id="edge35" class="edge">
<title>bartlett/php&#45;compatinfo&#45;db&#45;&gt;symfony/cache</title>
<path fill="none" stroke="#1a2833" d="M142.54,-1127.79C162.07,-1069.06 232.58,-885.43 366.68,-829.03 480.25,-781.27 836.51,-768.59 1009.93,-765.24"/>
<polygon fill="#1a2833" stroke="#1a2833" points="1010.14,-768.74 1020.07,-765.05 1010.01,-761.74 1010.14,-768.74"/>
<text text-anchor="middle" x="502.18" y="-832.03" font-family="Times,serif" font-size="10.00" fill="#767676">^6.4 || ^7.0</text>
</g>
<!-- psr/log -->
<g id="node27" class="node">
<title>psr/log</title>
<path fill="#eeeeee" stroke="black" d="M1569.18,-1741.03C1569.18,-1741.03 1482.18,-1741.03 1482.18,-1741.03 1476.18,-1741.03 1470.18,-1735.03 1470.18,-1729.03 1470.18,-1729.03 1470.18,-1717.03 1470.18,-1717.03 1470.18,-1711.03 1476.18,-1705.03 1482.18,-1705.03 1482.18,-1705.03 1569.18,-1705.03 1569.18,-1705.03 1575.18,-1705.03 1581.18,-1711.03 1581.18,-1717.03 1581.18,-1717.03 1581.18,-1729.03 1581.18,-1729.03 1581.18,-1735.03 1575.18,-1741.03 1569.18,-1741.03"/>
<text text-anchor="middle" x="1525.68" y="-1719.33" font-family="Times,serif" font-size="14.00" fill="#314b5f">psr/log: 3.0.0</text>
</g>
<!-- bartlett/php&#45;compatinfo&#45;db&#45;&gt;psr/log -->
<g id="edge69" class="edge">
<title>bartlett/php&#45;compatinfo&#45;db&#45;&gt;psr/log</title>
<path fill="none" stroke="#1a2833" stroke-dasharray="5,2" d="M138.81,-1164.12C149.86,-1262.99 206.63,-1737.94 289.68,-1856.03 399.91,-2012.8 476.55,-2015.89 655.68,-2084.03 942.4,-2193.1 1099.81,-2309.81 1344.68,-2125.03 1360.89,-2112.8 1354.51,-2101.63 1362.68,-2083.03 1417.37,-1958.5 1484.62,-1810.71 1512.09,-1750.55"/>
<polygon fill="#1a2833" stroke="#1a2833" points="1515.33,-1751.89 1516.3,-1741.34 1508.96,-1748.98 1515.33,-1751.89"/>
<text text-anchor="middle" x="801.18" y="-2200.03" font-family="Times,serif" font-size="10.00" fill="#767676">^3.0</text>
</g>
<!-- symfony/config -->
<g id="node31" class="node">
<title>symfony/config</title>
<path fill="#eeeeee" stroke="black" d="M1184.18,-148.03C1184.18,-148.03 1031.18,-148.03 1031.18,-148.03 1025.18,-148.03 1019.18,-142.03 1019.18,-136.03 1019.18,-136.03 1019.18,-124.03 1019.18,-124.03 1019.18,-118.03 1025.18,-112.03 1031.18,-112.03 1031.18,-112.03 1184.18,-112.03 1184.18,-112.03 1190.18,-112.03 1196.18,-118.03 1196.18,-124.03 1196.18,-124.03 1196.18,-136.03 1196.18,-136.03 1196.18,-142.03 1190.18,-148.03 1184.18,-148.03"/>
<text text-anchor="middle" x="1107.68" y="-126.33" font-family="Times,serif" font-size="14.00" fill="#314b5f">symfony/config: v6.4.4</text>
</g>
<!-- bartlett/php&#45;compatinfo&#45;db&#45;&gt;symfony/config -->
<g id="edge40" class="edge">
<title>bartlett/php&#45;compatinfo&#45;db&#45;&gt;symfony/config</title>
<path fill="none" stroke="#1a2833" d="M138.23,-1127.82C147.97,-1005.39 210.29,-303.28 366.68,-175.03 561.01,-15.67 889.41,-73.23 1034.3,-109.52"/>
<polygon fill="#1a2833" stroke="#1a2833" points="1033.44,-112.91 1043.99,-111.98 1035.16,-106.13 1033.44,-112.91"/>
<text text-anchor="middle" x="502.18" y="-178.03" font-family="Times,serif" font-size="10.00" fill="#767676">^6.4 || ^7.0</text>
</g>
<!-- symfony/dependency&#45;injection -->
<g id="node35" class="node">
<title>symfony/dependency&#45;injection</title>
<path fill="#eeeeee" stroke="black" d="M1238.68,-202.03C1238.68,-202.03 976.68,-202.03 976.68,-202.03 970.68,-202.03 964.68,-196.03 964.68,-190.03 964.68,-190.03 964.68,-178.03 964.68,-178.03 964.68,-172.03 970.68,-166.03 976.68,-166.03 976.68,-166.03 1238.68,-166.03 1238.68,-166.03 1244.68,-166.03 1250.68,-172.03 1250.68,-178.03 1250.68,-178.03 1250.68,-190.03 1250.68,-190.03 1250.68,-196.03 1244.68,-202.03 1238.68,-202.03"/>
<text text-anchor="middle" x="1107.68" y="-180.33" font-family="Times,serif" font-size="14.00" fill="#314b5f">symfony/dependency&#45;injection: v6.4.4</text>
</g>
<!-- bartlett/php&#45;compatinfo&#45;db&#45;&gt;symfony/dependency&#45;injection -->
<g id="edge47" class="edge">
<title>bartlett/php&#45;compatinfo&#45;db&#45;&gt;symfony/dependency&#45;injection</title>
<path fill="none" stroke="#1a2833" d="M138.96,-1127.79C149.59,-1042.92 203.1,-680.79 366.68,-443.03 464.94,-300.2 493.93,-243.44 655.68,-181.03 708.41,-160.69 845.09,-164.24 954.27,-171.21"/>
<polygon fill="#1a2833" stroke="#1a2833" points="954.21,-174.72 964.42,-171.88 954.67,-167.73 954.21,-174.72"/>
<text text-anchor="middle" x="502.18" y="-446.03" font-family="Times,serif" font-size="10.00" fill="#767676">^6.4 || ^7.0</text>
</g>
<!-- symfony/event&#45;dispatcher -->
<g id="node37" class="node">
<title>symfony/event&#45;dispatcher</title>
<path fill="#eeeeee" stroke="black" d="M1222.68,-681.03C1222.68,-681.03 992.68,-681.03 992.68,-681.03 986.68,-681.03 980.68,-675.03 980.68,-669.03 980.68,-669.03 980.68,-657.03 980.68,-657.03 980.68,-651.03 986.68,-645.03 992.68,-645.03 992.68,-645.03 1222.68,-645.03 1222.68,-645.03 1228.68,-645.03 1234.68,-651.03 1234.68,-657.03 1234.68,-657.03 1234.68,-669.03 1234.68,-669.03 1234.68,-675.03 1228.68,-681.03 1222.68,-681.03"/>
<text text-anchor="middle" x="1107.68" y="-659.33" font-family="Times,serif" font-size="14.00" fill="#314b5f">symfony/event&#45;dispatcher: v6.4.3</text>
</g>
<!-- bartlett/php&#45;compatinfo&#45;db&#45;&gt;symfony/event&#45;dispatcher -->
<g id="edge50" class="edge">
<title>bartlett/php&#45;compatinfo&#45;db&#45;&gt;symfony/event&#45;dispatcher</title>
<path fill="none" stroke="#1a2833" d="M140.29,-1127.73C154.04,-1061.05 211.82,-831.71 366.68,-768.03 426.37,-743.49 894.13,-772.52 946.68,-735.03 963.88,-722.76 948.36,-704.46 964.68,-691.03 967,-689.13 969.41,-687.33 971.9,-685.65"/>
<polygon fill="#1a2833" stroke="#1a2833" points="973.91,-688.53 980.65,-680.35 970.29,-682.54 973.91,-688.53"/>
<text text-anchor="middle" x="502.18" y="-771.03" font-family="Times,serif" font-size="10.00" fill="#767676">^6.4 || ^7.0</text>
</g>
<!-- symfony/http&#45;client -->
<g id="node39" class="node">
<title>symfony/http&#45;client</title>
<path fill="#eeeeee" stroke="black" d="M1200.18,-1224.03C1200.18,-1224.03 1015.18,-1224.03 1015.18,-1224.03 1009.18,-1224.03 1003.18,-1218.03 1003.18,-1212.03 1003.18,-1212.03 1003.18,-1200.03 1003.18,-1200.03 1003.18,-1194.03 1009.18,-1188.03 1015.18,-1188.03 1015.18,-1188.03 1200.18,-1188.03 1200.18,-1188.03 1206.18,-1188.03 1212.18,-1194.03 1212.18,-1200.03 1212.18,-1200.03 1212.18,-1212.03 1212.18,-1212.03 1212.18,-1218.03 1206.18,-1224.03 1200.18,-1224.03"/>
<text text-anchor="middle" x="1107.68" y="-1202.33" font-family="Times,serif" font-size="14.00" fill="#314b5f">symfony/http&#45;client: v6.4.5</text>
</g>
<!-- bartlett/php&#45;compatinfo&#45;db&#45;&gt;symfony/http&#45;client -->
<g id="edge56" class="edge">
<title>bartlett/php&#45;compatinfo&#45;db&#45;&gt;symfony/http&#45;client</title>
<path fill="none" stroke="#1a2833" d="M240.36,-1157.59C256.85,-1159.22 273.72,-1160.77 289.68,-1162.03 540.3,-1181.89 834.89,-1195.32 992.86,-1201.72"/>
<polygon fill="#1a2833" stroke="#1a2833" points="992.93,-1205.23 1003.07,-1202.13 993.22,-1198.23 992.93,-1205.23"/>
<text text-anchor="middle" x="502.18" y="-1187.03" font-family="Times,serif" font-size="10.00" fill="#767676">^6.4 || ^7.0</text>
</g>
<!-- symfony/messenger -->
<g id="node41" class="node">
<title>symfony/messenger</title>
<path fill="#eeeeee" stroke="black" d="M1201.68,-2128.03C1201.68,-2128.03 1013.68,-2128.03 1013.68,-2128.03 1007.68,-2128.03 1001.68,-2122.03 1001.68,-2116.03 1001.68,-2116.03 1001.68,-2104.03 1001.68,-2104.03 1001.68,-2098.03 1007.68,-2092.03 1013.68,-2092.03 1013.68,-2092.03 1201.68,-2092.03 1201.68,-2092.03 1207.68,-2092.03 1213.68,-2098.03 1213.68,-2104.03 1213.68,-2104.03 1213.68,-2116.03 1213.68,-2116.03 1213.68,-2122.03 1207.68,-2128.03 1201.68,-2128.03"/>
<text text-anchor="middle" x="1107.68" y="-2106.33" font-family="Times,serif" font-size="14.00" fill="#314b5f">symfony/messenger: v6.4.4</text>
</g>
<!-- bartlett/php&#45;compatinfo&#45;db&#45;&gt;symfony/messenger -->
<g id="edge61" class="edge">
<title>bartlett/php&#45;compatinfo&#45;db&#45;&gt;symfony/messenger</title>
<path fill="none" stroke="#1a2833" d="M140.59,-1164.44C155.38,-1231.83 216.34,-1466.51 366.68,-1570.03 466.75,-1638.95 555.64,-1516.41 637.68,-1606.03 668.61,-1639.83 626.03,-1983.09 655.68,-2018.03 736.43,-2113.22 886.56,-2126.5 991.33,-2122.39"/>
<polygon fill="#1a2833" stroke="#1a2833" points="991.49,-2125.88 1001.32,-2121.93 991.18,-2118.89 991.49,-2125.88"/>
<text text-anchor="middle" x="502.18" y="-1609.03" font-family="Times,serif" font-size="10.00" fill="#767676">^6.4 || ^7.0</text>
</g>
<!-- symfony/process -->
<g id="node43" class="node">
<title>symfony/process</title>
<path fill="#eeeeee" stroke="black" d="M883.68,-1120.03C883.68,-1120.03 718.68,-1120.03 718.68,-1120.03 712.68,-1120.03 706.68,-1114.03 706.68,-1108.03 706.68,-1108.03 706.68,-1096.03 706.68,-1096.03 706.68,-1090.03 712.68,-1084.03 718.68,-1084.03 718.68,-1084.03 883.68,-1084.03 883.68,-1084.03 889.68,-1084.03 895.68,-1090.03 895.68,-1096.03 895.68,-1096.03 895.68,-1108.03 895.68,-1108.03 895.68,-1114.03 889.68,-1120.03 883.68,-1120.03"/>
<text text-anchor="middle" x="801.18" y="-1098.33" font-family="Times,serif" font-size="14.00" fill="#314b5f">symfony/process: v6.4.4</text>
</g>
<!-- bartlett/php&#45;compatinfo&#45;db&#45;&gt;symfony/process -->
<g id="edge63" class="edge">
<title>bartlett/php&#45;compatinfo&#45;db&#45;&gt;symfony/process</title>
<path fill="none" stroke="#1a2833" d="M214.73,-1131.36C238.69,-1127.37 265.2,-1123.48 289.68,-1121.03 429.95,-1107.01 592.85,-1103.07 696.19,-1102.11"/>
<polygon fill="#1a2833" stroke="#1a2833" points="696.35,-1105.61 706.31,-1102.02 696.28,-1098.61 696.35,-1105.61"/>
<text text-anchor="middle" x="319.18" y="-1124.03" font-family="Times,serif" font-size="10.00" fill="#767676">^6.4 || ^7.0</text>
</g>
<!-- symfony/requirements&#45;checker -->
<g id="node44" class="node">
<title>symfony/requirements&#45;checker</title>
<path fill="#eeeeee" stroke="black" d="M934.68,-993.03C934.68,-993.03 667.68,-993.03 667.68,-993.03 661.68,-993.03 655.68,-987.03 655.68,-981.03 655.68,-981.03 655.68,-969.03 655.68,-969.03 655.68,-963.03 661.68,-957.03 667.68,-957.03 667.68,-957.03 934.68,-957.03 934.68,-957.03 940.68,-957.03 946.68,-963.03 946.68,-969.03 946.68,-969.03 946.68,-981.03 946.68,-981.03 946.68,-987.03 940.68,-993.03 934.68,-993.03"/>
<text text-anchor="middle" x="801.18" y="-971.33" font-family="Times,serif" font-size="14.00" fill="#314b5f">symfony/requirements&#45;checker: v2.0.1</text>
</g>
<!-- bartlett/php&#45;compatinfo&#45;db&#45;&gt;symfony/requirements&#45;checker -->
<g id="edge65" class="edge">
<title>bartlett/php&#45;compatinfo&#45;db&#45;&gt;symfony/requirements&#45;checker</title>
<path fill="none" stroke="#1a2833" d="M149.96,-1127.71C173.76,-1096.1 227.37,-1031.93 289.68,-1003.03 350.73,-974.72 518.58,-970.12 645.28,-971.08"/>
<polygon fill="#1a2833" stroke="#1a2833" points="645.45,-974.58 655.48,-971.17 645.51,-967.58 645.45,-974.58"/>
<text text-anchor="middle" x="319.18" y="-1006.03" font-family="Times,serif" font-size="10.00" fill="#767676">^2.0</text>
</g>
<!-- symfony/stopwatch -->
<g id="node45" class="node">
<title>symfony/stopwatch</title>
<path fill="#eeeeee" stroke="black" d="M1199.68,-836.03C1199.68,-836.03 1015.68,-836.03 1015.68,-836.03 1009.68,-836.03 1003.68,-830.03 1003.68,-824.03 1003.68,-824.03 1003.68,-812.03 1003.68,-812.03 1003.68,-806.03 1009.68,-800.03 1015.68,-800.03 1015.68,-800.03 1199.68,-800.03 1199.68,-800.03 1205.68,-800.03 1211.68,-806.03 1211.68,-812.03 1211.68,-812.03 1211.68,-824.03 1211.68,-824.03 1211.68,-830.03 1205.68,-836.03 1199.68,-836.03"/>
<text text-anchor="middle" x="1107.68" y="-814.33" font-family="Times,serif" font-size="14.00" fill="#314b5f">symfony/stopwatch: v6.4.3</text>
</g>
<!-- bartlett/php&#45;compatinfo&#45;db&#45;&gt;symfony/stopwatch -->
<g id="edge68" class="edge">
<title>bartlett/php&#45;compatinfo&#45;db&#45;&gt;symfony/stopwatch</title>
<path fill="none" stroke="#1a2833" d="M144.83,-1127.92C163.98,-1086.43 216.43,-983.57 289.68,-925.03 318.49,-902 331.04,-903.58 366.68,-894.03 583.06,-836.04 845.96,-821.75 992.99,-818.56"/>
<polygon fill="#1a2833" stroke="#1a2833" points="993.45,-822.05 1003.37,-818.35 993.3,-815.05 993.45,-822.05"/>
<text text-anchor="middle" x="502.18" y="-897.03" font-family="Times,serif" font-size="10.00" fill="#767676">^6.4 || ^7.0</text>
</g>
<!-- symfony/framework&#45;bundle -->
<g id="node46" class="node">
<title>symfony/framework&#45;bundle</title>
<path fill="#eeeeee" stroke="black" d="M622.68,-499.03C622.68,-499.03 381.68,-499.03 381.68,-499.03 375.68,-499.03 369.68,-493.03 369.68,-487.03 369.68,-487.03 369.68,-475.03 369.68,-475.03 369.68,-469.03 375.68,-463.03 381.68,-463.03 381.68,-463.03 622.68,-463.03 622.68,-463.03 628.68,-463.03 634.68,-469.03 634.68,-475.03 634.68,-475.03 634.68,-487.03 634.68,-487.03 634.68,-493.03 628.68,-499.03 622.68,-499.03"/>
<text text-anchor="middle" x="502.18" y="-477.33" font-family="Times,serif" font-size="14.00" fill="#314b5f">symfony/framework&#45;bundle: v6.4.4</text>
</g>
<!-- bartlett/php&#45;compatinfo&#45;db&#45;&gt;symfony/framework&#45;bundle -->
<g id="edge85" class="edge">
<title>bartlett/php&#45;compatinfo&#45;db&#45;&gt;symfony/framework&#45;bundle</title>
<path fill="none" stroke="#1a2833" stroke-dasharray="5,2" d="M140.9,-1127.72C154.89,-1067.01 204.92,-868.09 289.68,-724.03 342.12,-634.91 429.14,-547.76 473.43,-506.23"/>
<polygon fill="#1a2833" stroke="#1a2833" points="475.99,-508.63 480.93,-499.25 471.22,-503.5 475.99,-508.63"/>
<text text-anchor="middle" x="319.18" y="-727.03" font-family="Times,serif" font-size="10.00" fill="#767676">^6.4 || ^7.0</text>
</g>
<!-- bamarni/composer&#45;bin&#45;plugin -->
<g id="node54" class="node">
<title>bamarni/composer&#45;bin&#45;plugin</title>
<path fill="#eeeeee" stroke="black" d="M625.68,-950.03C625.68,-950.03 378.68,-950.03 378.68,-950.03 372.68,-950.03 366.68,-944.03 366.68,-938.03 366.68,-938.03 366.68,-926.03 366.68,-926.03 366.68,-920.03 372.68,-914.03 378.68,-914.03 378.68,-914.03 625.68,-914.03 625.68,-914.03 631.68,-914.03 637.68,-920.03 637.68,-926.03 637.68,-926.03 637.68,-938.03 637.68,-938.03 637.68,-944.03 631.68,-950.03 625.68,-950.03"/>
<text text-anchor="middle" x="502.18" y="-928.33" font-family="Times,serif" font-size="14.00" fill="#314b5f">bamarni/composer&#45;bin&#45;plugin: 1.8.2</text>
</g>
<!-- bartlett/php&#45;compatinfo&#45;db&#45;&gt;bamarni/composer&#45;bin&#45;plugin -->
<g id="edge88" class="edge">
<title>bartlett/php&#45;compatinfo&#45;db&#45;&gt;bamarni/composer&#45;bin&#45;plugin</title>
<path fill="none" stroke="#1a2833" stroke-dasharray="5,2" d="M144.43,-1127.86C162.57,-1087.04 212.75,-988.4 289.68,-947.03 310.1,-936.05 333.28,-929.57 356.63,-926.03"/>
<polygon fill="#1a2833" stroke="#1a2833" points="357.19,-929.49 366.63,-924.69 356.26,-922.55 357.19,-929.49"/>
<text text-anchor="middle" x="319.18" y="-950.03" font-family="Times,serif" font-size="10.00" fill="#767676">^1.8</text>
</g>
<!-- composer/semver&#45;&gt;php -->
<g id="edge8" class="edge">
<title>composer/semver&#45;&gt;php</title>
<path fill="none" stroke="#1a2833" d="M895.43,-1022.85C1027.54,-1028.78 1262.26,-1035.84 1344.68,-1016.03 1398.98,-1002.98 1455.48,-970.87 1490.37,-948.52"/>
<polygon fill="#1a2833" stroke="#1a2833" points="1492.28,-951.45 1498.76,-943.06 1488.46,-945.58 1492.28,-951.45"/>
<text text-anchor="middle" x="1107.68" y="-1033.03" font-family="Times,serif" font-size="10.00" fill="#767676">^5.3.2 || ^7.0 || ^8.0</text>
</g>
<!-- doctrine/orm&#45;&gt;php -->
<g id="edge22" class="edge">
<title>doctrine/orm&#45;&gt;php</title>
<path fill="none" stroke="#1a2833" d="M519.85,-1524.59C545.89,-1497.14 599.09,-1446.16 655.68,-1422.03 778.43,-1369.7 1143.39,-1420.39 1250.68,-1341.03 1266.02,-1329.68 1258.34,-1318.08 1268.68,-1302.03 1296.67,-1258.59 1321.16,-1260.05 1344.68,-1214.03 1360.47,-1183.12 1347.85,-1169.42 1362.68,-1138.03 1398.25,-1062.74 1463.43,-988.46 1499.32,-950.69"/>
<polygon fill="#1a2833" stroke="#1a2833" points="1502.11,-952.83 1506.51,-943.19 1497.06,-947.98 1502.11,-952.83"/>
<text text-anchor="middle" x="1107.68" y="-1394.03" font-family="Times,serif" font-size="10.00" fill="#767676">^7.1 || ^8.0</text>
</g>
<!-- doctrine/orm&#45;&gt;composer&#45;runtime&#45;api -->
<g id="edge10" class="edge">
<title>doctrine/orm&#45;&gt;composer&#45;runtime&#45;api</title>
<path fill="none" stroke="#1a2833" d="M515.55,-1524.88C541.08,-1486.81 600.34,-1395.23 637.68,-1312.03 648.21,-1288.57 636.87,-1274.58 655.68,-1257.03 706.5,-1209.6 894.52,-1178.33 1011.14,-1163.04"/>
<polygon fill="#1a2833" stroke="#1a2833" points="1011.68,-1166.5 1021.15,-1161.74 1010.79,-1159.55 1011.68,-1166.5"/>
<text text-anchor="middle" x="801.18" y="-1260.03" font-family="Times,serif" font-size="10.00" fill="#767676">^2</text>
</g>
<!-- doctrine/cache -->
<g id="node11" class="node">
<title>doctrine/cache</title>
<path fill="#eeeeee" stroke="black" d="M1178.68,-1534.03C1178.68,-1534.03 1036.68,-1534.03 1036.68,-1534.03 1030.68,-1534.03 1024.68,-1528.03 1024.68,-1522.03 1024.68,-1522.03 1024.68,-1510.03 1024.68,-1510.03 1024.68,-1504.03 1030.68,-1498.03 1036.68,-1498.03 1036.68,-1498.03 1178.68,-1498.03 1178.68,-1498.03 1184.68,-1498.03 1190.68,-1504.03 1190.68,-1510.03 1190.68,-1510.03 1190.68,-1522.03 1190.68,-1522.03 1190.68,-1528.03 1184.68,-1534.03 1178.68,-1534.03"/>
<text text-anchor="middle" x="1107.68" y="-1512.33" font-family="Times,serif" font-size="14.00" fill="#314b5f">doctrine/cache: 2.2.0</text>
</g>
<!-- doctrine/orm&#45;&gt;doctrine/cache -->
<g id="edge11" class="edge">
<title>doctrine/orm&#45;&gt;doctrine/cache</title>
<path fill="none" stroke="#1a2833" d="M583.94,-1539.42C695.67,-1534.42 896.88,-1525.42 1014.4,-1520.16"/>
<polygon fill="#1a2833" stroke="#1a2833" points="1014.62,-1523.66 1024.46,-1519.71 1014.31,-1516.66 1014.62,-1523.66"/>
<text text-anchor="middle" x="801.18" y="-1538.03" font-family="Times,serif" font-size="10.00" fill="#767676">^1.12.1 || ^2.1.1</text>
</g>
<!-- doctrine/collections -->
<g id="node12" class="node">
<title>doctrine/collections</title>
<path fill="#eeeeee" stroke="black" d="M1196.18,-1480.03C1196.18,-1480.03 1019.18,-1480.03 1019.18,-1480.03 1013.18,-1480.03 1007.18,-1474.03 1007.18,-1468.03 1007.18,-1468.03 1007.18,-1456.03 1007.18,-1456.03 1007.18,-1450.03 1013.18,-1444.03 1019.18,-1444.03 1019.18,-1444.03 1196.18,-1444.03 1196.18,-1444.03 1202.18,-1444.03 1208.18,-1450.03 1208.18,-1456.03 1208.18,-1456.03 1208.18,-1468.03 1208.18,-1468.03 1208.18,-1474.03 1202.18,-1480.03 1196.18,-1480.03"/>
<text text-anchor="middle" x="1107.68" y="-1458.33" font-family="Times,serif" font-size="14.00" fill="#314b5f">doctrine/collections: 2.2.1</text>
</g>
<!-- doctrine/orm&#45;&gt;doctrine/collections -->
<g id="edge12" class="edge">
<title>doctrine/orm&#45;&gt;doctrine/collections</title>
<path fill="none" stroke="#1a2833" d="M573.42,-1524.99C599.16,-1518.89 628.61,-1512.5 655.68,-1508.03 771.32,-1488.94 905.03,-1476.5 996.66,-1469.42"/>
<polygon fill="#1a2833" stroke="#1a2833" points="997.08,-1472.9 1006.78,-1468.65 996.55,-1465.92 997.08,-1472.9"/>
<text text-anchor="middle" x="801.18" y="-1511.03" font-family="Times,serif" font-size="10.00" fill="#767676">^1.5 || ^2.1</text>
</g>
<!-- doctrine/common -->
<g id="node13" class="node">
<title>doctrine/common</title>
<path fill="#eeeeee" stroke="black" d="M1188.18,-2074.03C1188.18,-2074.03 1027.18,-2074.03 1027.18,-2074.03 1021.18,-2074.03 1015.18,-2068.03 1015.18,-2062.03 1015.18,-2062.03 1015.18,-2050.03 1015.18,-2050.03 1015.18,-2044.03 1021.18,-2038.03 1027.18,-2038.03 1027.18,-2038.03 1188.18,-2038.03 1188.18,-2038.03 1194.18,-2038.03 1200.18,-2044.03 1200.18,-2050.03 1200.18,-2050.03 1200.18,-2062.03 1200.18,-2062.03 1200.18,-2068.03 1194.18,-2074.03 1188.18,-2074.03"/>
<text text-anchor="middle" x="1107.68" y="-2052.33" font-family="Times,serif" font-size="14.00" fill="#314b5f">doctrine/common: 3.4.3</text>
</g>
<!-- doctrine/orm&#45;&gt;doctrine/common -->
<g id="edge13" class="edge">
<title>doctrine/orm&#45;&gt;doctrine/common</title>
<path fill="none" stroke="#1a2833" d="M583.89,-1545.33C604.35,-1549.98 624.3,-1558.84 637.68,-1575.03 666.65,-1610.1 624.08,-1951.31 655.68,-1984.03 700.74,-2030.7 889.2,-1976.97 946.68,-2007.03 957.87,-2012.89 953.82,-2022.58 964.68,-2029.03 977.03,-2036.38 990.97,-2041.79 1005.16,-2045.77"/>
<polygon fill="#1a2833" stroke="#1a2833" points="1004.45,-2049.2 1015,-2048.29 1006.19,-2042.42 1004.45,-2049.2"/>
<text text-anchor="middle" x="801.18" y="-2010.03" font-family="Times,serif" font-size="10.00" fill="#767676">^3.0.3</text>
</g>
<!-- doctrine/orm&#45;&gt;doctrine/dbal -->
<g id="edge14" class="edge">
<title>doctrine/orm&#45;&gt;doctrine/dbal</title>
<path fill="none" stroke="#1a2833" d="M512.36,-1524.82C532.43,-1487.2 584.23,-1401.39 655.68,-1365.03 713.49,-1335.62 882.32,-1350.19 946.68,-1342.03 970.42,-1339.02 996.01,-1334.93 1019.61,-1330.81"/>
<polygon fill="#1a2833" stroke="#1a2833" points="1020.35,-1334.23 1029.59,-1329.04 1019.13,-1327.34 1020.35,-1334.23"/>
<text text-anchor="middle" x="801.18" y="-1368.03" font-family="Times,serif" font-size="10.00" fill="#767676">^2.13.1 || ^3.2</text>
</g>
<!-- doctrine/deprecations -->
<g id="node15" class="node">
<title>doctrine/deprecations</title>
<path fill="#eeeeee" stroke="black" d="M1204.68,-2020.03C1204.68,-2020.03 1010.68,-2020.03 1010.68,-2020.03 1004.68,-2020.03 998.68,-2014.03 998.68,-2008.03 998.68,-2008.03 998.68,-1996.03 998.68,-1996.03 998.68,-1990.03 1004.68,-1984.03 1010.68,-1984.03 1010.68,-1984.03 1204.68,-1984.03 1204.68,-1984.03 1210.68,-1984.03 1216.68,-1990.03 1216.68,-1996.03 1216.68,-1996.03 1216.68,-2008.03 1216.68,-2008.03 1216.68,-2014.03 1210.68,-2020.03 1204.68,-2020.03"/>
<text text-anchor="middle" x="1107.68" y="-1998.33" font-family="Times,serif" font-size="14.00" fill="#314b5f">doctrine/deprecations: 1.1.3</text>
</g>
<!-- doctrine/orm&#45;&gt;doctrine/deprecations -->
<g id="edge15" class="edge">
<title>doctrine/orm&#45;&gt;doctrine/deprecations</title>
<path fill="none" stroke="#1a2833" d="M583.85,-1545.37C604.31,-1550.02 624.27,-1558.87 637.68,-1575.03 664.31,-1607.14 626.64,-1920.08 655.68,-1950.03 678.25,-1973.32 914.51,-1968.86 946.68,-1973.03 966.07,-1975.55 986.69,-1978.83 1006.45,-1982.28"/>
<polygon fill="#1a2833" stroke="#1a2833" points="1005.93,-1985.74 1016.38,-1984.03 1007.15,-1978.84 1005.93,-1985.74"/>
<text text-anchor="middle" x="801.18" y="-1976.03" font-family="Times,serif" font-size="10.00" fill="#767676">^0.5.3 || ^1</text>
</g>
<!-- doctrine/event&#45;manager -->
<g id="node16" class="node">
<title>doctrine/event&#45;manager</title>
<path fill="#eeeeee" stroke="black" d="M1212.18,-1966.03C1212.18,-1966.03 1003.18,-1966.03 1003.18,-1966.03 997.18,-1966.03 991.18,-1960.03 991.18,-1954.03 991.18,-1954.03 991.18,-1942.03 991.18,-1942.03 991.18,-1936.03 997.18,-1930.03 1003.18,-1930.03 1003.18,-1930.03 1212.18,-1930.03 1212.18,-1930.03 1218.18,-1930.03 1224.18,-1936.03 1224.18,-1942.03 1224.18,-1942.03 1224.18,-1954.03 1224.18,-1954.03 1224.18,-1960.03 1218.18,-1966.03 1212.18,-1966.03"/>
<text text-anchor="middle" x="1107.68" y="-1944.33" font-family="Times,serif" font-size="14.00" fill="#314b5f">doctrine/event&#45;manager: 2.0.0</text>
</g>
<!-- doctrine/orm&#45;&gt;doctrine/event&#45;manager -->
<g id="edge16" class="edge">
<title>doctrine/orm&#45;&gt;doctrine/event&#45;manager</title>
<path fill="none" stroke="#1a2833" d="M583.79,-1545.42C604.25,-1550.07 624.22,-1558.91 637.68,-1575.03 685.31,-1632.1 603.98,-1855.63 655.68,-1909.03 661.35,-1914.89 849.41,-1929.56 980.86,-1939.14"/>
<polygon fill="#1a2833" stroke="#1a2833" points="980.79,-1942.65 991.02,-1939.88 981.3,-1935.67 980.79,-1942.65"/>
<text text-anchor="middle" x="801.18" y="-1938.03" font-family="Times,serif" font-size="10.00" fill="#767676">^1.2 || ^2</text>
</g>
<!-- doctrine/inflector -->
<g id="node17" class="node">
<title>doctrine/inflector</title>
<path fill="#eeeeee" stroke="black" d="M1192.68,-1912.03C1192.68,-1912.03 1022.68,-1912.03 1022.68,-1912.03 1016.68,-1912.03 1010.68,-1906.03 1010.68,-1900.03 1010.68,-1900.03 1010.68,-1888.03 1010.68,-1888.03 1010.68,-1882.03 1016.68,-1876.03 1022.68,-1876.03 1022.68,-1876.03 1192.68,-1876.03 1192.68,-1876.03 1198.68,-1876.03 1204.68,-1882.03 1204.68,-1888.03 1204.68,-1888.03 1204.68,-1900.03 1204.68,-1900.03 1204.68,-1906.03 1198.68,-1912.03 1192.68,-1912.03"/>
<text text-anchor="middle" x="1107.68" y="-1890.33" font-family="Times,serif" font-size="14.00" fill="#314b5f">doctrine/inflector: 2.0.10</text>
</g>
<!-- doctrine/orm&#45;&gt;doctrine/inflector -->
<g id="edge17" class="edge">
<title>doctrine/orm&#45;&gt;doctrine/inflector</title>
<path fill="none" stroke="#1a2833" d="M583.7,-1545.49C604.16,-1550.14 624.15,-1558.96 637.68,-1575.03 679.39,-1624.61 609.87,-1820.21 655.68,-1866.03 679.52,-1889.89 874.84,-1894.33 1000.5,-1894.67"/>
<polygon fill="#1a2833" stroke="#1a2833" points="1000.55,-1898.17 1010.55,-1894.69 1000.56,-1891.17 1000.55,-1898.17"/>
<text text-anchor="middle" x="801.18" y="-1897.03" font-family="Times,serif" font-size="10.00" fill="#767676">^1.4 || ^2.0</text>
</g>
<!-- doctrine/instantiator -->
<g id="node18" class="node">
<title>doctrine/instantiator</title>
<path fill="#eeeeee" stroke="black" d="M1200.18,-1858.03C1200.18,-1858.03 1015.18,-1858.03 1015.18,-1858.03 1009.18,-1858.03 1003.18,-1852.03 1003.18,-1846.03 1003.18,-1846.03 1003.18,-1834.03 1003.18,-1834.03 1003.18,-1828.03 1009.18,-1822.03 1015.18,-1822.03 1015.18,-1822.03 1200.18,-1822.03 1200.18,-1822.03 1206.18,-1822.03 1212.18,-1828.03 1212.18,-1834.03 1212.18,-1834.03 1212.18,-1846.03 1212.18,-1846.03 1212.18,-1852.03 1206.18,-1858.03 1200.18,-1858.03"/>
<text text-anchor="middle" x="1107.68" y="-1836.33" font-family="Times,serif" font-size="14.00" fill="#314b5f">doctrine/instantiator: 2.0.0</text>
</g>
<!-- doctrine/orm&#45;&gt;doctrine/instantiator -->
<g id="edge18" class="edge">
<title>doctrine/orm&#45;&gt;doctrine/instantiator</title>
<path fill="none" stroke="#1a2833" d="M583.9,-1545.7C604.24,-1550.37 624.11,-1559.15 637.68,-1575.03 671.69,-1614.86 618.46,-1773.19 655.68,-1810.03 701.56,-1855.46 874.85,-1854.88 992.76,-1848.67"/>
<polygon fill="#1a2833" stroke="#1a2833" points="993.13,-1852.16 1002.93,-1848.11 992.75,-1845.17 993.13,-1852.16"/>
<text text-anchor="middle" x="801.18" y="-1854.03" font-family="Times,serif" font-size="10.00" fill="#767676">^1.3 || ^2</text>
</g>
<!-- doctrine/lexer -->
<g id="node19" class="node">
<title>doctrine/lexer</title>
<path fill="#eeeeee" stroke="black" d="M1176.18,-1804.03C1176.18,-1804.03 1039.18,-1804.03 1039.18,-1804.03 1033.18,-1804.03 1027.18,-1798.03 1027.18,-1792.03 1027.18,-1792.03 1027.18,-1780.03 1027.18,-1780.03 1027.18,-1774.03 1033.18,-1768.03 1039.18,-1768.03 1039.18,-1768.03 1176.18,-1768.03 1176.18,-1768.03 1182.18,-1768.03 1188.18,-1774.03 1188.18,-1780.03 1188.18,-1780.03 1188.18,-1792.03 1188.18,-1792.03 1188.18,-1798.03 1182.18,-1804.03 1176.18,-1804.03"/>
<text text-anchor="middle" x="1107.68" y="-1782.33" font-family="Times,serif" font-size="14.00" fill="#314b5f">doctrine/lexer: 3.0.1</text>
</g>
<!-- doctrine/orm&#45;&gt;doctrine/lexer -->
<g id="edge19" class="edge">
<title>doctrine/orm&#45;&gt;doctrine/lexer</title>
<path fill="none" stroke="#1a2833" d="M584,-1546C604.21,-1550.7 624,-1559.41 637.68,-1575.03 663.72,-1604.78 627.36,-1724.44 655.68,-1752.03 705.2,-1800.28 900.04,-1798.24 1016.81,-1792.26"/>
<polygon fill="#1a2833" stroke="#1a2833" points="1017.01,-1795.76 1026.81,-1791.73 1016.64,-1788.77 1017.01,-1795.76"/>
<text text-anchor="middle" x="801.18" y="-1798.03" font-family="Times,serif" font-size="10.00" fill="#767676">^2 || ^3</text>
</g>
<!-- doctrine/persistence -->
<g id="node20" class="node">
<title>doctrine/persistence</title>
<path fill="#eeeeee" stroke="black" d="M1199.68,-1750.03C1199.68,-1750.03 1015.68,-1750.03 1015.68,-1750.03 1009.68,-1750.03 1003.68,-1744.03 1003.68,-1738.03 1003.68,-1738.03 1003.68,-1726.03 1003.68,-1726.03 1003.68,-1720.03 1009.68,-1714.03 1015.68,-1714.03 1015.68,-1714.03 1199.68,-1714.03 1199.68,-1714.03 1205.68,-1714.03 1211.68,-1720.03 1211.68,-1726.03 1211.68,-1726.03 1211.68,-1738.03 1211.68,-1738.03 1211.68,-1744.03 1205.68,-1750.03 1199.68,-1750.03"/>
<text text-anchor="middle" x="1107.68" y="-1728.33" font-family="Times,serif" font-size="14.00" fill="#314b5f">doctrine/persistence: 3.3.2</text>
</g>
<!-- doctrine/orm&#45;&gt;doctrine/persistence -->
<g id="edge20" class="edge">
<title>doctrine/orm&#45;&gt;doctrine/persistence</title>
<path fill="none" stroke="#1a2833" d="M583.81,-1546.56C603.9,-1551.28 623.67,-1559.87 637.68,-1575.03 673.07,-1613.36 617.64,-1655.33 655.68,-1691.03 702.88,-1735.34 876.02,-1739.61 993.51,-1737.02"/>
<polygon fill="#1a2833" stroke="#1a2833" points="993.73,-1740.51 1003.64,-1736.77 993.56,-1733.51 993.73,-1740.51"/>
<text text-anchor="middle" x="801.18" y="-1740.03" font-family="Times,serif" font-size="10.00" fill="#767676">^2.4 || ^3</text>
</g>
<!-- ext&#45;ctype -->
<g id="node21" class="node">
<title>ext&#45;ctype</title>
<path fill="#eeeeee" stroke="black" d="M1137.18,-1696.03C1137.18,-1696.03 1078.18,-1696.03 1078.18,-1696.03 1072.18,-1696.03 1066.18,-1690.03 1066.18,-1684.03 1066.18,-1684.03 1066.18,-1672.03 1066.18,-1672.03 1066.18,-1666.03 1072.18,-1660.03 1078.18,-1660.03 1078.18,-1660.03 1137.18,-1660.03 1137.18,-1660.03 1143.18,-1660.03 1149.18,-1666.03 1149.18,-1672.03 1149.18,-1672.03 1149.18,-1684.03 1149.18,-1684.03 1149.18,-1690.03 1143.18,-1696.03 1137.18,-1696.03"/>
<text text-anchor="middle" x="1107.68" y="-1674.33" font-family="Times,serif" font-size="14.00" fill="#314b5f">ext&#45;ctype</text>
</g>
<!-- doctrine/orm&#45;&gt;ext&#45;ctype -->
<g id="edge21" class="edge">
<title>doctrine/orm&#45;&gt;ext&#45;ctype</title>
<path fill="none" stroke="#1a2833" d="M583.79,-1548.78C603.29,-1553.57 622.78,-1561.63 637.68,-1575.03 655.55,-1591.11 636.88,-1611.05 655.68,-1626.03 716.43,-1674.48 951.16,-1679.15 1055.82,-1678.73"/>
<polygon fill="#1a2833" stroke="#1a2833" points="1055.85,-1682.23 1065.83,-1678.68 1055.81,-1675.23 1055.85,-1682.23"/>
<text text-anchor="middle" x="801.18" y="-1679.03" font-family="Times,serif" font-size="10.00" fill="#767676">*</text>
</g>
<!-- psr/cache -->
<g id="node22" class="node">
<title>psr/cache</title>
<path fill="#eeeeee" stroke="black" d="M1578.68,-1183.03C1578.68,-1183.03 1472.68,-1183.03 1472.68,-1183.03 1466.68,-1183.03 1460.68,-1177.03 1460.68,-1171.03 1460.68,-1171.03 1460.68,-1159.03 1460.68,-1159.03 1460.68,-1153.03 1466.68,-1147.03 1472.68,-1147.03 1472.68,-1147.03 1578.68,-1147.03 1578.68,-1147.03 1584.68,-1147.03 1590.68,-1153.03 1590.68,-1159.03 1590.68,-1159.03 1590.68,-1171.03 1590.68,-1171.03 1590.68,-1177.03 1584.68,-1183.03 1578.68,-1183.03"/>
<text text-anchor="middle" x="1525.68" y="-1161.33" font-family="Times,serif" font-size="14.00" fill="#314b5f">psr/cache: 3.0.0</text>
</g>
<!-- doctrine/orm&#45;&gt;psr/cache -->
<g id="edge23" class="edge">
<title>doctrine/orm&#45;&gt;psr/cache</title>
<path fill="none" stroke="#1a2833" d="M533.29,-1524.97C563.26,-1507.84 611.09,-1482.74 655.68,-1469.03 788.33,-1428.26 826.62,-1438.24 964.68,-1424.03 1006.75,-1419.7 1313.22,-1429.31 1344.68,-1401.03 1380.54,-1368.79 1338.19,-1335.58 1362.68,-1294.03 1390.47,-1246.86 1442.53,-1210.16 1480.14,-1188.17"/>
<polygon fill="#1a2833" stroke="#1a2833" points="1481.95,-1191.17 1488.89,-1183.16 1478.47,-1185.09 1481.95,-1191.17"/>
<text text-anchor="middle" x="1107.68" y="-1427.03" font-family="Times,serif" font-size="10.00" fill="#767676">^1 || ^2 || ^3</text>
</g>
<!-- doctrine/orm&#45;&gt;symfony/console -->
<g id="edge24" class="edge">
<title>doctrine/orm&#45;&gt;symfony/console</title>
<path fill="none" stroke="#1a2833" d="M510.19,-1524.93C527.62,-1482.65 577.2,-1377.34 655.68,-1329.03 712.32,-1294.17 888.72,-1275.36 1003.38,-1266.54"/>
<polygon fill="#1a2833" stroke="#1a2833" points="1003.89,-1270.01 1013.59,-1265.76 1003.36,-1263.03 1003.89,-1270.01"/>
<text text-anchor="middle" x="801.18" y="-1332.03" font-family="Times,serif" font-size="10.00" fill="#767676">^4.2 || ^5.0 || ^6.0 || ^7.0</text>
</g>
<!-- symfony/polyfill&#45;php72 -->
<g id="node24" class="node">
<title>symfony/polyfill&#45;php72</title>
<path fill="#eeeeee" stroke="black" d="M1216.18,-1642.03C1216.18,-1642.03 999.18,-1642.03 999.18,-1642.03 993.18,-1642.03 987.18,-1636.03 987.18,-1630.03 987.18,-1630.03 987.18,-1618.03 987.18,-1618.03 987.18,-1612.03 993.18,-1606.03 999.18,-1606.03 999.18,-1606.03 1216.18,-1606.03 1216.18,-1606.03 1222.18,-1606.03 1228.18,-1612.03 1228.18,-1618.03 1228.18,-1618.03 1228.18,-1630.03 1228.18,-1630.03 1228.18,-1636.03 1222.18,-1642.03 1216.18,-1642.03"/>
<text text-anchor="middle" x="1107.68" y="-1620.33" font-family="Times,serif" font-size="14.00" fill="#314b5f">symfony/polyfill&#45;php72: v1.29.0</text>
</g>
<!-- doctrine/orm&#45;&gt;symfony/polyfill&#45;php72 -->
<g id="edge25" class="edge">
<title>doctrine/orm&#45;&gt;symfony/polyfill&#45;php72</title>
<path fill="none" stroke="#1a2833" d="M576.14,-1561.1C601.23,-1566.83 629.57,-1572.78 655.68,-1577.03 763.33,-1594.58 886.56,-1606.9 976.98,-1614.52"/>
<polygon fill="#1a2833" stroke="#1a2833" points="976.75,-1618.01 987.01,-1615.35 977.33,-1611.03 976.75,-1618.01"/>
<text text-anchor="middle" x="801.18" y="-1614.03" font-family="Times,serif" font-size="10.00" fill="#767676">^1.23</text>
</g>
<!-- symfony/polyfill&#45;php80 -->
<g id="node25" class="node">
<title>symfony/polyfill&#45;php80</title>
<path fill="#eeeeee" stroke="black" d="M1216.18,-1588.03C1216.18,-1588.03 999.18,-1588.03 999.18,-1588.03 993.18,-1588.03 987.18,-1582.03 987.18,-1576.03 987.18,-1576.03 987.18,-1564.03 987.18,-1564.03 987.18,-1558.03 993.18,-1552.03 999.18,-1552.03 999.18,-1552.03 1216.18,-1552.03 1216.18,-1552.03 1222.18,-1552.03 1228.18,-1558.03 1228.18,-1564.03 1228.18,-1564.03 1228.18,-1576.03 1228.18,-1576.03 1228.18,-1582.03 1222.18,-1588.03 1216.18,-1588.03"/>
<text text-anchor="middle" x="1107.68" y="-1566.33" font-family="Times,serif" font-size="14.00" fill="#314b5f">symfony/polyfill&#45;php80: v1.29.0</text>
</g>
<!-- doctrine/orm&#45;&gt;symfony/polyfill&#45;php80 -->
<g id="edge26" class="edge">
<title>doctrine/orm&#45;&gt;symfony/polyfill&#45;php80</title>
<path fill="none" stroke="#1a2833" d="M583.94,-1546.65C684.51,-1551.15 857.58,-1558.89 976.86,-1564.23"/>
<polygon fill="#1a2833" stroke="#1a2833" points="977,-1567.74 987.15,-1564.69 977.32,-1560.74 977,-1567.74"/>
<text text-anchor="middle" x="801.18" y="-1565.03" font-family="Times,serif" font-size="10.00" fill="#767676">^1.16</text>
</g>
<!-- symfony/cache&#45;&gt;php -->
<g id="edge29" class="edge">
<title>symfony/cache&#45;&gt;php</title>
<path fill="none" stroke="#1a2833" d="M1195.27,-779.31C1213.63,-782.88 1232.84,-786.87 1250.68,-791.03 1258.76,-792.92 1260.67,-793.82 1268.68,-796.03 1302.45,-805.39 1317.85,-794.48 1344.68,-817.03 1358.98,-829.06 1349.24,-842.05 1362.68,-855.03 1397.97,-889.13 1452.53,-907.97 1488.42,-917.29"/>
<polygon fill="#1a2833" stroke="#1a2833" points="1487.92,-920.77 1498.46,-919.77 1489.6,-913.97 1487.92,-920.77"/>
<text text-anchor="middle" x="1306.68" y="-820.03" font-family="Times,serif" font-size="10.00" fill="#767676">&gt;=8.1</text>
</g>
<!-- symfony/cache&#45;&gt;psr/cache -->
<g id="edge30" class="edge">
<title>symfony/cache&#45;&gt;psr/cache</title>
<path fill="none" stroke="#1a2833" d="M1195.42,-762.89C1216.24,-766.94 1236.52,-775.24 1250.68,-791.03 1284.6,-828.88 1241.44,-976.13 1268.68,-1019.03 1309.85,-1083.89 1390.78,-1122.89 1450.68,-1144.05"/>
<polygon fill="#1a2833" stroke="#1a2833" points="1449.88,-1147.48 1460.47,-1147.42 1452.16,-1140.86 1449.88,-1147.48"/>
<text text-anchor="middle" x="1306.68" y="-1094.03" font-family="Times,serif" font-size="10.00" fill="#767676">^2.0|^3.0</text>
</g>
<!-- symfony/cache&#45;&gt;psr/log -->
<g id="edge31" class="edge">
<title>symfony/cache&#45;&gt;psr/log</title>
<path fill="none" stroke="#1a2833" d="M1195.28,-762.62C1216.23,-766.63 1236.61,-775 1250.68,-791.03 1296.91,-843.75 1233.09,-1045.62 1268.68,-1106.03 1288.95,-1140.46 1323.79,-1119.97 1344.68,-1154.03 1367.31,-1190.94 1351.96,-1306.09 1362.68,-1348.03 1397.59,-1484.68 1476.01,-1635.31 1509.29,-1695.75"/>
<polygon fill="#1a2833" stroke="#1a2833" points="1506.31,-1697.61 1514.22,-1704.66 1512.44,-1694.22 1506.31,-1697.61"/>
<text text-anchor="middle" x="1306.68" y="-1157.03" font-family="Times,serif" font-size="10.00" fill="#767676">^1.1|^2|^3</text>
</g>
<!-- symfony/cache&#45;contracts -->
<g id="node28" class="node">
<title>symfony/cache&#45;contracts</title>
<path fill="#eeeeee" stroke="black" d="M1636.68,-768.03C1636.68,-768.03 1414.68,-768.03 1414.68,-768.03 1408.68,-768.03 1402.68,-762.03 1402.68,-756.03 1402.68,-756.03 1402.68,-744.03 1402.68,-744.03 1402.68,-738.03 1408.68,-732.03 1414.68,-732.03 1414.68,-732.03 1636.68,-732.03 1636.68,-732.03 1642.68,-732.03 1648.68,-738.03 1648.68,-744.03 1648.68,-744.03 1648.68,-756.03 1648.68,-756.03 1648.68,-762.03 1642.68,-768.03 1636.68,-768.03"/>
<text text-anchor="middle" x="1525.68" y="-746.33" font-family="Times,serif" font-size="14.00" fill="#314b5f">symfony/cache&#45;contracts: v3.4.0</text>
</g>
<!-- symfony/cache&#45;&gt;symfony/cache&#45;contracts -->
<g id="edge32" class="edge">
<title>symfony/cache&#45;&gt;symfony/cache&#45;contracts</title>
<path fill="none" stroke="#1a2833" d="M1195.38,-755.76C1219.12,-753.83 1244.87,-752.05 1268.68,-751.03 1308.9,-749.32 1352.7,-748.7 1392.52,-748.6"/>
<polygon fill="#1a2833" stroke="#1a2833" points="1392.56,-752.1 1402.55,-748.59 1392.55,-745.1 1392.56,-752.1"/>
<text text-anchor="middle" x="1306.68" y="-754.03" font-family="Times,serif" font-size="10.00" fill="#767676">^2.5|^3</text>
</g>
<!-- symfony/service&#45;contracts -->
<g id="node29" class="node">
<title>symfony/service&#45;contracts</title>
<path fill="#eeeeee" stroke="black" d="M1642.18,-846.03C1642.18,-846.03 1409.18,-846.03 1409.18,-846.03 1403.18,-846.03 1397.18,-840.03 1397.18,-834.03 1397.18,-834.03 1397.18,-822.03 1397.18,-822.03 1397.18,-816.03 1403.18,-810.03 1409.18,-810.03 1409.18,-810.03 1642.18,-810.03 1642.18,-810.03 1648.18,-810.03 1654.18,-816.03 1654.18,-822.03 1654.18,-822.03 1654.18,-834.03 1654.18,-834.03 1654.18,-840.03 1648.18,-846.03 1642.18,-846.03"/>
<text text-anchor="middle" x="1525.68" y="-824.33" font-family="Times,serif" font-size="14.00" fill="#314b5f">symfony/service&#45;contracts: v3.4.1</text>
</g>
<!-- symfony/cache&#45;&gt;symfony/service&#45;contracts -->
<g id="edge33" class="edge">
<title>symfony/cache&#45;&gt;symfony/service&#45;contracts</title>
<path fill="none" stroke="#1a2833" d="M1195.36,-768.71C1240.14,-771.9 1295.55,-777.02 1344.68,-785.03 1379.45,-790.7 1417.46,-799.41 1449.55,-807.5"/>
<polygon fill="#1a2833" stroke="#1a2833" points="1448.76,-810.91 1459.31,-809.99 1450.49,-804.13 1448.76,-810.91"/>
<text text-anchor="middle" x="1306.68" y="-788.03" font-family="Times,serif" font-size="10.00" fill="#767676">^2.5|^3</text>
</g>
<!-- symfony/var&#45;exporter -->
<g id="node30" class="node">
<title>symfony/var&#45;exporter</title>
<path fill="#eeeeee" stroke="black" d="M1625.68,-347.03C1625.68,-347.03 1425.68,-347.03 1425.68,-347.03 1419.68,-347.03 1413.68,-341.03 1413.68,-335.03 1413.68,-335.03 1413.68,-323.03 1413.68,-323.03 1413.68,-317.03 1419.68,-311.03 1425.68,-311.03 1425.68,-311.03 1625.68,-311.03 1625.68,-311.03 1631.68,-311.03 1637.68,-317.03 1637.68,-323.03 1637.68,-323.03 1637.68,-335.03 1637.68,-335.03 1637.68,-341.03 1631.68,-347.03 1625.68,-347.03"/>
<text text-anchor="middle" x="1525.68" y="-325.33" font-family="Times,serif" font-size="14.00" fill="#314b5f">symfony/var&#45;exporter: v6.4.4</text>
</g>
<!-- symfony/cache&#45;&gt;symfony/var&#45;exporter -->
<g id="edge34" class="edge">
<title>symfony/cache&#45;&gt;symfony/var&#45;exporter</title>
<path fill="none" stroke="#1a2833" d="M1195.4,-761.7C1216.22,-756.93 1236.51,-748.01 1250.68,-732.03 1302.85,-673.21 1218.66,-616.71 1268.68,-556.03 1291.12,-528.8 1321.34,-559.51 1344.68,-533.03 1376.28,-497.19 1335.79,-466.54 1362.68,-427.03 1386.78,-391.61 1428.34,-366.85 1463.33,-351.08"/>
<polygon fill="#1a2833" stroke="#1a2833" points="1464.77,-354.27 1472.53,-347.07 1461.97,-347.86 1464.77,-354.27"/>
<text text-anchor="middle" x="1306.68" y="-559.03" font-family="Times,serif" font-size="10.00" fill="#767676">^6.3.6|^7.0</text>
</g>
<!-- symfony/config&#45;&gt;php -->
<g id="edge36" class="edge">
<title>symfony/config&#45;&gt;php</title>
<path fill="none" stroke="#1a2833" d="M1196.2,-128.6C1216.89,-132.68 1236.91,-141.07 1250.68,-157.03 1282.92,-194.42 1237.98,-562.36 1268.68,-601.03 1290.46,-628.48 1322.39,-594.99 1344.68,-622.03 1377.7,-662.11 1332.5,-812.77 1362.68,-855.03 1391.88,-895.95 1450.2,-913.17 1488.31,-920.26"/>
<polygon fill="#1a2833" stroke="#1a2833" points="1488.04,-923.77 1498.48,-922.01 1489.22,-916.87 1488.04,-923.77"/>
<text text-anchor="middle" x="1306.68" y="-625.03" font-family="Times,serif" font-size="10.00" fill="#767676">&gt;=8.1</text>
</g>
<!-- symfony/deprecation&#45;contracts -->
<g id="node32" class="node">
<title>symfony/deprecation&#45;contracts</title>
<path fill="#eeeeee" stroke="black" d="M1658.68,-472.03C1658.68,-472.03 1392.68,-472.03 1392.68,-472.03 1386.68,-472.03 1380.68,-466.03 1380.68,-460.03 1380.68,-460.03 1380.68,-448.03 1380.68,-448.03 1380.68,-442.03 1386.68,-436.03 1392.68,-436.03 1392.68,-436.03 1658.68,-436.03 1658.68,-436.03 1664.68,-436.03 1670.68,-442.03 1670.68,-448.03 1670.68,-448.03 1670.68,-460.03 1670.68,-460.03 1670.68,-466.03 1664.68,-472.03 1658.68,-472.03"/>
<text text-anchor="middle" x="1525.68" y="-450.33" font-family="Times,serif" font-size="14.00" fill="#314b5f">symfony/deprecation&#45;contracts: v3.4.0</text>
</g>
<!-- symfony/config&#45;&gt;symfony/deprecation&#45;contracts -->
<g id="edge37" class="edge">
<title>symfony/config&#45;&gt;symfony/deprecation&#45;contracts</title>
<path fill="none" stroke="#1a2833" d="M1196.29,-130.18C1216.47,-134.34 1236.23,-142.38 1250.68,-157.03 1283.29,-190.14 1244.38,-220.42 1268.68,-260.03 1290.75,-296.03 1318.13,-284.2 1344.68,-317.03 1356.68,-331.88 1349.95,-341.8 1362.68,-356.03 1392.42,-389.29 1436.16,-414.84 1470.7,-431.49"/>
<polygon fill="#1a2833" stroke="#1a2833" points="1469.64,-434.86 1480.18,-435.95 1472.62,-428.53 1469.64,-434.86"/>
<text text-anchor="middle" x="1306.68" y="-320.03" font-family="Times,serif" font-size="10.00" fill="#767676">^2.5|^3</text>
</g>
<!-- symfony/filesystem -->
<g id="node33" class="node">
<title>symfony/filesystem</title>
<path fill="#eeeeee" stroke="black" d="M1617.18,-108.03C1617.18,-108.03 1434.18,-108.03 1434.18,-108.03 1428.18,-108.03 1422.18,-102.03 1422.18,-96.03 1422.18,-96.03 1422.18,-84.03 1422.18,-84.03 1422.18,-78.03 1428.18,-72.03 1434.18,-72.03 1434.18,-72.03 1617.18,-72.03 1617.18,-72.03 1623.18,-72.03 1629.18,-78.03 1629.18,-84.03 1629.18,-84.03 1629.18,-96.03 1629.18,-96.03 1629.18,-102.03 1623.18,-108.03 1617.18,-108.03"/>
<text text-anchor="middle" x="1525.68" y="-86.33" font-family="Times,serif" font-size="14.00" fill="#314b5f">symfony/filesystem: v6.4.3</text>
</g>
<!-- symfony/config&#45;&gt;symfony/filesystem -->
<g id="edge38" class="edge">
<title>symfony/config&#45;&gt;symfony/filesystem</title>
<path fill="none" stroke="#1a2833" d="M1196.39,-121.6C1259.08,-115.57 1343.99,-107.41 1411.75,-100.89"/>
<polygon fill="#1a2833" stroke="#1a2833" points="1412.42,-104.34 1422.04,-99.9 1411.75,-97.38 1412.42,-104.34"/>
<text text-anchor="middle" x="1306.68" y="-117.03" font-family="Times,serif" font-size="10.00" fill="#767676">^5.4|^6.0|^7.0</text>
</g>
<!-- symfony/polyfill&#45;ctype -->
<g id="node34" class="node">
<title>symfony/polyfill&#45;ctype</title>
<path fill="#eeeeee" stroke="black" d="M1631.18,-168.03C1631.18,-168.03 1420.18,-168.03 1420.18,-168.03 1414.18,-168.03 1408.18,-162.03 1408.18,-156.03 1408.18,-156.03 1408.18,-144.03 1408.18,-144.03 1408.18,-138.03 1414.18,-132.03 1420.18,-132.03 1420.18,-132.03 1631.18,-132.03 1631.18,-132.03 1637.18,-132.03 1643.18,-138.03 1643.18,-144.03 1643.18,-144.03 1643.18,-156.03 1643.18,-156.03 1643.18,-162.03 1637.18,-168.03 1631.18,-168.03"/>
<text text-anchor="middle" x="1525.68" y="-146.33" font-family="Times,serif" font-size="14.00" fill="#314b5f">symfony/polyfill&#45;ctype: v1.29.0</text>
</g>
<!-- symfony/config&#45;&gt;symfony/polyfill&#45;ctype -->
<g id="edge39" class="edge">
<title>symfony/config&#45;&gt;symfony/polyfill&#45;ctype</title>
<path fill="none" stroke="#1a2833" d="M1196.39,-134.25C1254.77,-137.06 1332.41,-140.79 1397.53,-143.92"/>
<polygon fill="#1a2833" stroke="#1a2833" points="1397.71,-147.43 1407.86,-144.42 1398.04,-140.44 1397.71,-147.43"/>
<text text-anchor="middle" x="1306.68" y="-145.03" font-family="Times,serif" font-size="10.00" fill="#767676">~1.8</text>
</g>
<!-- symfony/dependency&#45;injection&#45;&gt;php -->
<g id="edge42" class="edge">
<title>symfony/dependency&#45;injection&#45;&gt;php</title>
<path fill="none" stroke="#1a2833" d="M1241.59,-202.25C1244.84,-204.89 1247.89,-207.81 1250.68,-211.03 1281.51,-246.71 1240.45,-597.26 1268.68,-635.03 1290.05,-663.63 1322.6,-632.98 1344.68,-661.03 1371.46,-695.06 1337.25,-819.99 1362.68,-855.03 1392.2,-895.72 1450.42,-913.01 1488.43,-920.18"/>
<polygon fill="#1a2833" stroke="#1a2833" points="1488.12,-923.68 1498.58,-921.94 1489.32,-916.78 1488.12,-923.68"/>
<text text-anchor="middle" x="1306.68" y="-664.03" font-family="Times,serif" font-size="10.00" fill="#767676">&gt;=8.1</text>
</g>
<!-- symfony/dependency&#45;injection&#45;&gt;symfony/service&#45;contracts -->
<g id="edge45" class="edge">
<title>symfony/dependency&#45;injection&#45;&gt;symfony/service&#45;contracts</title>
<path fill="none" stroke="#1a2833" d="M1241.1,-202.2C1244.52,-204.84 1247.73,-207.78 1250.68,-211.03 1280.64,-244.1 1250.29,-370.38 1268.68,-411.03 1288.89,-455.72 1325.07,-446.08 1344.68,-491.03 1370.14,-549.4 1323.41,-726.9 1362.68,-777.03 1372.15,-789.13 1384.47,-798.41 1398.09,-805.53"/>
<polygon fill="#1a2833" stroke="#1a2833" points="1396.68,-808.73 1407.21,-809.9 1399.71,-802.42 1396.68,-808.73"/>
<text text-anchor="middle" x="1306.68" y="-494.03" font-family="Times,serif" font-size="10.00" fill="#767676">^2.5|^3.0</text>
</g>
<!-- symfony/dependency&#45;injection&#45;&gt;symfony/var&#45;exporter -->
<g id="edge46" class="edge">
<title>symfony/dependency&#45;injection&#45;&gt;symfony/var&#45;exporter</title>
<path fill="none" stroke="#1a2833" d="M1217.05,-202.08C1228.49,-204.75 1239.88,-207.73 1250.68,-211.03 1334.53,-236.72 1427.34,-280.06 1480.56,-306.45"/>
<polygon fill="#1a2833" stroke="#1a2833" points="1479.2,-309.68 1489.71,-311.02 1482.32,-303.42 1479.2,-309.68"/>
<text text-anchor="middle" x="1306.68" y="-248.03" font-family="Times,serif" font-size="10.00" fill="#767676">^6.2.10|^7.0</text>
</g>
<!-- symfony/dependency&#45;injection&#45;&gt;symfony/deprecation&#45;contracts -->
<g id="edge44" class="edge">
<title>symfony/dependency&#45;injection&#45;&gt;symfony/deprecation&#45;contracts</title>
<path fill="none" stroke="#1a2833" d="M1240.55,-202.21C1244.16,-204.84 1247.55,-207.78 1250.68,-211.03 1288.34,-250.24 1236.34,-288.32 1268.68,-332.03 1307.63,-384.7 1375.25,-415.57 1431.21,-433.09"/>
<polygon fill="#1a2833" stroke="#1a2833" points="1430.21,-436.44 1440.79,-435.99 1432.24,-429.74 1430.21,-436.44"/>
<text text-anchor="middle" x="1306.68" y="-399.03" font-family="Times,serif" font-size="10.00" fill="#767676">^2.5|^3</text>
</g>
<!-- psr/container -->
<g id="node36" class="node">
<title>psr/container</title>
<path fill="#eeeeee" stroke="black" d="M1592.18,-222.03C1592.18,-222.03 1459.18,-222.03 1459.18,-222.03 1453.18,-222.03 1447.18,-216.03 1447.18,-210.03 1447.18,-210.03 1447.18,-198.03 1447.18,-198.03 1447.18,-192.03 1453.18,-186.03 1459.18,-186.03 1459.18,-186.03 1592.18,-186.03 1592.18,-186.03 1598.18,-186.03 1604.18,-192.03 1604.18,-198.03 1604.18,-198.03 1604.18,-210.03 1604.18,-210.03 1604.18,-216.03 1598.18,-222.03 1592.18,-222.03"/>
<text text-anchor="middle" x="1525.68" y="-200.33" font-family="Times,serif" font-size="14.00" fill="#314b5f">psr/container: 2.0.2</text>
</g>
<!-- symfony/dependency&#45;injection&#45;&gt;psr/container -->
<g id="edge43" class="edge">
<title>symfony/dependency&#45;injection&#45;&gt;psr/container</title>
<path fill="none" stroke="#1a2833" d="M1250.68,-190.86C1312.37,-193.83 1382.71,-197.21 1436.67,-199.8"/>
<polygon fill="#1a2833" stroke="#1a2833" points="1436.73,-203.31 1446.89,-200.29 1437.07,-196.32 1436.73,-203.31"/>
<text text-anchor="middle" x="1306.68" y="-199.03" font-family="Times,serif" font-size="10.00" fill="#767676">^1.1|^2.0</text>
</g>
<!-- symfony/event&#45;dispatcher&#45;&gt;php -->
<g id="edge48" class="edge">
<title>symfony/event&#45;dispatcher&#45;&gt;php</title>
<path fill="none" stroke="#1a2833" d="M1234.68,-671.83C1286.38,-676.68 1336.21,-683.46 1344.68,-692.03 1370.29,-717.96 1341.02,-825.73 1362.68,-855.03 1392.47,-895.35 1450.35,-912.72 1488.25,-920.02"/>
<polygon fill="#1a2833" stroke="#1a2833" points="1487.91,-923.51 1498.37,-921.82 1489.14,-916.62 1487.91,-923.51"/>
<text text-anchor="middle" x="1306.68" y="-695.03" font-family="Times,serif" font-size="10.00" fill="#767676">&gt;=8.1</text>
</g>
<!-- symfony/event&#45;dispatcher&#45;contracts -->
<g id="node38" class="node">
<title>symfony/event&#45;dispatcher&#45;contracts</title>
<path fill="#eeeeee" stroke="black" d="M1676.68,-539.03C1676.68,-539.03 1374.68,-539.03 1374.68,-539.03 1368.68,-539.03 1362.68,-533.03 1362.68,-527.03 1362.68,-527.03 1362.68,-515.03 1362.68,-515.03 1362.68,-509.03 1368.68,-503.03 1374.68,-503.03 1374.68,-503.03 1676.68,-503.03 1676.68,-503.03 1682.68,-503.03 1688.68,-509.03 1688.68,-515.03 1688.68,-515.03 1688.68,-527.03 1688.68,-527.03 1688.68,-533.03 1682.68,-539.03 1676.68,-539.03"/>
<text text-anchor="middle" x="1525.68" y="-517.33" font-family="Times,serif" font-size="14.00" fill="#314b5f">symfony/event&#45;dispatcher&#45;contracts: v3.4.0</text>
</g>
<!-- symfony/event&#45;dispatcher&#45;&gt;symfony/event&#45;dispatcher&#45;contracts -->
<g id="edge49" class="edge">
<title>symfony/event&#45;dispatcher&#45;&gt;symfony/event&#45;dispatcher&#45;contracts</title>
<path fill="none" stroke="#1a2833" d="M1233.44,-644.94C1239.74,-641.05 1245.56,-636.46 1250.68,-631.03 1284.37,-595.32 1231.3,-553.87 1268.68,-522.03 1282.89,-509.93 1315.33,-505.66 1352.51,-505.39"/>
<polygon fill="#1a2833" stroke="#1a2833" points="1352.58,-508.89 1362.58,-505.41 1352.59,-501.89 1352.58,-508.89"/>
<text text-anchor="middle" x="1306.68" y="-525.03" font-family="Times,serif" font-size="10.00" fill="#767676">^2.5|^3</text>
</g>
<!-- symfony/http&#45;client&#45;&gt;php -->
<g id="edge51" class="edge">
<title>symfony/http&#45;client&#45;&gt;php</title>
<path fill="none" stroke="#1a2833" d="M1212.3,-1208.98C1256.38,-1205.63 1306.34,-1195.27 1344.68,-1169.03 1357.82,-1160.04 1353.84,-1151.29 1362.68,-1138.03 1409.36,-1068.03 1471.08,-990.46 1503.19,-951.08"/>
<polygon fill="#1a2833" stroke="#1a2833" points="1505.95,-953.22 1509.57,-943.27 1500.53,-948.79 1505.95,-953.22"/>
<text text-anchor="middle" x="1306.68" y="-1202.03" font-family="Times,serif" font-size="10.00" fill="#767676">&gt;=8.1</text>
</g>
<!-- symfony/http&#45;client&#45;&gt;psr/log -->
<g id="edge52" class="edge">
<title>symfony/http&#45;client&#45;&gt;psr/log</title>
<path fill="none" stroke="#1a2833" d="M1212.37,-1209.94C1226.8,-1214.69 1240.24,-1222.01 1250.68,-1233.03 1271.34,-1254.85 1257.57,-1339.11 1268.68,-1367.03 1324.29,-1506.89 1446.68,-1643.05 1499.55,-1697.81"/>
<polygon fill="#1a2833" stroke="#1a2833" points="1497.05,-1700.27 1506.53,-1704.99 1502.07,-1695.38 1497.05,-1700.27"/>
<text text-anchor="middle" x="1306.68" y="-1507.03" font-family="Times,serif" font-size="10.00" fill="#767676">^1|^2|^3</text>
</g>
<!-- symfony/http&#45;client&#45;&gt;symfony/service&#45;contracts -->
<g id="edge55" class="edge">
<title>symfony/http&#45;client&#45;&gt;symfony/service&#45;contracts</title>
<path fill="none" stroke="#1a2833" d="M1212.47,-1202.68C1226.98,-1197.87 1240.42,-1190.39 1250.68,-1179.03 1281.77,-1144.6 1246.5,-1011.78 1268.68,-971.03 1303.73,-906.62 1380.39,-869.42 1440.73,-849.21"/>
<polygon fill="#1a2833" stroke="#1a2833" points="1441.84,-852.53 1450.26,-846.1 1439.67,-845.87 1441.84,-852.53"/>
<text text-anchor="middle" x="1306.68" y="-974.03" font-family="Times,serif" font-size="10.00" fill="#767676">^2.5|^3</text>
</g>
<!-- symfony/http&#45;client&#45;&gt;symfony/deprecation&#45;contracts -->
<g id="edge53" class="edge">
<title>symfony/http&#45;client&#45;&gt;symfony/deprecation&#45;contracts</title>
<path fill="none" stroke="#1a2833" d="M1212.32,-1203.4C1227.03,-1198.55 1240.57,-1190.87 1250.68,-1179.03 1293.19,-1129.24 1228.86,-642.01 1268.68,-590.03 1290.14,-562.02 1320.38,-592.63 1344.68,-567.03 1367.68,-542.8 1339.05,-517.67 1362.68,-494.03 1369.44,-487.27 1377.16,-481.58 1385.46,-476.81"/>
<polygon fill="#1a2833" stroke="#1a2833" points="1387.09,-479.91 1394.32,-472.16 1383.84,-473.71 1387.09,-479.91"/>
<text text-anchor="middle" x="1306.68" y="-593.03" font-family="Times,serif" font-size="10.00" fill="#767676">^2.5|^3</text>
</g>
<!-- symfony/http&#45;client&#45;contracts -->
<g id="node40" class="node">
<title>symfony/http&#45;client&#45;contracts</title>
<path fill="#eeeeee" stroke="black" d="M1653.68,-1339.03C1653.68,-1339.03 1397.68,-1339.03 1397.68,-1339.03 1391.68,-1339.03 1385.68,-1333.03 1385.68,-1327.03 1385.68,-1327.03 1385.68,-1315.03 1385.68,-1315.03 1385.68,-1309.03 1391.68,-1303.03 1397.68,-1303.03 1397.68,-1303.03 1653.68,-1303.03 1653.68,-1303.03 1659.68,-1303.03 1665.68,-1309.03 1665.68,-1315.03 1665.68,-1315.03 1665.68,-1327.03 1665.68,-1327.03 1665.68,-1333.03 1659.68,-1339.03 1653.68,-1339.03"/>
<text text-anchor="middle" x="1525.68" y="-1317.33" font-family="Times,serif" font-size="14.00" fill="#314b5f">symfony/http&#45;client&#45;contracts: v3.4.0</text>
</g>
<!-- symfony/http&#45;client&#45;&gt;symfony/http&#45;client&#45;contracts -->
<g id="edge54" class="edge">
<title>symfony/http&#45;client&#45;&gt;symfony/http&#45;client&#45;contracts</title>
<path fill="none" stroke="#1a2833" d="M1211.77,-1224.09C1224.92,-1226.85 1238.15,-1229.84 1250.68,-1233.03 1325.58,-1252.11 1410.02,-1280.27 1465.12,-1299.56"/>
<polygon fill="#1a2833" stroke="#1a2833" points="1464.12,-1302.92 1474.71,-1302.94 1466.44,-1296.32 1464.12,-1302.92"/>
<text text-anchor="middle" x="1306.68" y="-1261.03" font-family="Times,serif" font-size="10.00" fill="#767676">^3</text>
</g>
<!-- symfony/messenger&#45;&gt;php -->
<g id="edge57" class="edge">
<title>symfony/messenger&#45;&gt;php</title>
<path fill="none" stroke="#1a2833" d="M1213.8,-2106.97C1227.96,-2102.09 1240.93,-2094.51 1250.68,-2083.03 1276.89,-2052.15 1253.31,-1391.52 1268.68,-1354.03 1287.4,-1308.36 1323.51,-1317.63 1344.68,-1273.03 1370.63,-1218.35 1339.58,-1193.99 1362.68,-1138.03 1394.36,-1061.25 1460.8,-987.83 1498,-950.52"/>
<polygon fill="#1a2833" stroke="#1a2833" points="1500.83,-952.65 1505.47,-943.12 1495.9,-947.67 1500.83,-952.65"/>
<text text-anchor="middle" x="1306.68" y="-1357.03" font-family="Times,serif" font-size="10.00" fill="#767676">&gt;=8.1</text>
</g>
<!-- symfony/messenger&#45;&gt;psr/log -->
<g id="edge58" class="edge">
<title>symfony/messenger&#45;&gt;psr/log</title>
<path fill="none" stroke="#1a2833" d="M1213.97,-2099.12C1226.89,-2095.19 1239.47,-2089.97 1250.68,-2083.03 1387.23,-1998.55 1480.43,-1819.4 1512.43,-1750.67"/>
<polygon fill="#1a2833" stroke="#1a2833" points="1515.71,-1751.91 1516.7,-1741.36 1509.35,-1748.99 1515.71,-1751.91"/>
<text text-anchor="middle" x="1306.68" y="-2072.03" font-family="Times,serif" font-size="10.00" fill="#767676">^1|^2|^3</text>
</g>
<!-- symfony/messenger&#45;&gt;symfony/deprecation&#45;contracts -->
<g id="edge60" class="edge">
<title>symfony/messenger&#45;&gt;symfony/deprecation&#45;contracts</title>
<path fill="none" stroke="#1a2833" d="M1213.88,-2107.04C1228.03,-2102.15 1240.98,-2094.55 1250.68,-2083.03 1289.29,-2037.17 1232.26,-1051.66 1268.68,-1004.03 1290.04,-976.1 1323.03,-1009.75 1344.68,-982.03 1378.07,-939.27 1328.44,-536.13 1362.68,-494.03 1367.82,-487.71 1373.78,-482.3 1380.33,-477.67"/>
<polygon fill="#1a2833" stroke="#1a2833" points="1382.36,-480.53 1388.92,-472.21 1378.6,-474.62 1382.36,-480.53"/>
<text text-anchor="middle" x="1306.68" y="-1007.03" font-family="Times,serif" font-size="10.00" fill="#767676">^2.5|^3</text>
</g>
<!-- symfony/clock -->
<g id="node42" class="node">
<title>symfony/clock</title>
<path fill="#eeeeee" stroke="black" d="M1598.68,-2128.03C1598.68,-2128.03 1452.68,-2128.03 1452.68,-2128.03 1446.68,-2128.03 1440.68,-2122.03 1440.68,-2116.03 1440.68,-2116.03 1440.68,-2104.03 1440.68,-2104.03 1440.68,-2098.03 1446.68,-2092.03 1452.68,-2092.03 1452.68,-2092.03 1598.68,-2092.03 1598.68,-2092.03 1604.68,-2092.03 1610.68,-2098.03 1610.68,-2104.03 1610.68,-2104.03 1610.68,-2116.03 1610.68,-2116.03 1610.68,-2122.03 1604.68,-2128.03 1598.68,-2128.03"/>
<text text-anchor="middle" x="1525.68" y="-2106.33" font-family="Times,serif" font-size="14.00" fill="#314b5f">symfony/clock: v6.4.5</text>
</g>
<!-- symfony/messenger&#45;&gt;symfony/clock -->
<g id="edge59" class="edge">
<title>symfony/messenger&#45;&gt;symfony/clock</title>
<path fill="none" stroke="#1a2833" d="M1213.92,-2110.03C1280.52,-2110.03 1365.9,-2110.03 1430.3,-2110.03"/>
<polygon fill="#1a2833" stroke="#1a2833" points="1430.45,-2113.53 1440.45,-2110.03 1430.45,-2106.53 1430.45,-2113.53"/>
<text text-anchor="middle" x="1306.68" y="-2113.03" font-family="Times,serif" font-size="10.00" fill="#767676">^6.3|^7.0</text>
</g>
<!-- symfony/process&#45;&gt;php -->
<g id="edge62" class="edge">
<title>symfony/process&#45;&gt;php</title>
<path fill="none" stroke="#1a2833" d="M895.79,-1105.48C1040.07,-1110.23 1304.43,-1116.46 1344.68,-1100.03 1418.93,-1069.73 1479.43,-992.58 1507.59,-951.58"/>
<polygon fill="#1a2833" stroke="#1a2833" points="1510.57,-953.42 1513.26,-943.18 1504.77,-949.51 1510.57,-953.42"/>
<text text-anchor="middle" x="1107.68" y="-1114.03" font-family="Times,serif" font-size="10.00" fill="#767676">&gt;=8.1</text>
</g>
<!-- symfony/requirements&#45;checker&#45;&gt;php -->
<g id="edge64" class="edge">
<title>symfony/requirements&#45;checker&#45;&gt;php</title>
<path fill="none" stroke="#1a2833" d="M947.08,-965.01C1117.82,-953.19 1390.62,-934.31 1488.37,-927.55"/>
<polygon fill="#1a2833" stroke="#1a2833" points="1488.87,-931.02 1498.61,-926.84 1488.39,-924.04 1488.87,-931.02"/>
<text text-anchor="middle" x="1107.68" y="-967.03" font-family="Times,serif" font-size="10.00" fill="#767676">&gt;=5.3.9</text>
</g>
<!-- symfony/stopwatch&#45;&gt;php -->
<g id="edge66" class="edge">
<title>symfony/stopwatch&#45;&gt;php</title>
<path fill="none" stroke="#1a2833" d="M1210.16,-836.1C1223.82,-838.89 1237.62,-841.89 1250.68,-845.03 1336.95,-865.78 1436.59,-896.64 1488.68,-913.32"/>
<polygon fill="#1a2833" stroke="#1a2833" points="1487.86,-916.73 1498.45,-916.46 1490,-910.07 1487.86,-916.73"/>
<text text-anchor="middle" x="1306.68" y="-872.03" font-family="Times,serif" font-size="10.00" fill="#767676">&gt;=8.1</text>
</g>
<!-- symfony/stopwatch&#45;&gt;symfony/service&#45;contracts -->
<g id="edge67" class="edge">
<title>symfony/stopwatch&#45;&gt;symfony/service&#45;contracts</title>
<path fill="none" stroke="#1a2833" d="M1211.9,-826.92C1230.77,-828.22 1250.3,-829.35 1268.68,-830.03 1307,-831.47 1348.57,-831.71 1386.85,-831.4"/>
<polygon fill="#1a2833" stroke="#1a2833" points="1387.07,-834.9 1397.03,-831.3 1387,-827.9 1387.07,-834.9"/>
<text text-anchor="middle" x="1306.68" y="-835.03" font-family="Times,serif" font-size="10.00" fill="#767676">^2.5|^3</text>
</g>
<!-- symfony/framework&#45;bundle&#45;&gt;php -->
<g id="edge72" class="edge">
<title>symfony/framework&#45;bundle&#45;&gt;php</title>
<path fill="none" stroke="#1a2833" d="M511.02,-499.08C529.51,-539.14 580.06,-635.17 655.68,-676.03 791.07,-749.2 1238.38,-634.74 1344.68,-746.03 1378.59,-781.54 1332.44,-816.34 1362.68,-855.03 1393.46,-894.42 1450.81,-912.04 1488.36,-919.63"/>
<polygon fill="#1a2833" stroke="#1a2833" points="1487.91,-923.11 1498.38,-921.52 1489.2,-916.23 1487.91,-923.11"/>
<text text-anchor="middle" x="1107.68" y="-707.03" font-family="Times,serif" font-size="10.00" fill="#767676">&gt;=8.1</text>
</g>
<!-- symfony/framework&#45;bundle&#45;&gt;composer&#45;runtime&#45;api -->
<g id="edge70" class="edge">
<title>symfony/framework&#45;bundle&#45;&gt;composer&#45;runtime&#45;api</title>
<path fill="none" stroke="#1a2833" d="M516.27,-499.05C544.01,-538.25 608.53,-635.17 637.68,-727.03 648.3,-760.51 631.68,-858.4 655.68,-884.03 745.51,-980.01 857.61,-840.34 946.68,-937.03 974.36,-967.09 937.62,-1089.41 964.68,-1120.03 976.82,-1133.78 993.48,-1142.3 1011.14,-1147.46"/>
<polygon fill="#1a2833" stroke="#1a2833" points="1010.46,-1150.9 1021.02,-1149.99 1012.2,-1144.12 1010.46,-1150.9"/>
<text text-anchor="middle" x="801.18" y="-940.03" font-family="Times,serif" font-size="10.00" fill="#767676">&gt;=2.1</text>
</g>
<!-- symfony/framework&#45;bundle&#45;&gt;symfony/cache -->
<g id="edge73" class="edge">
<title>symfony/framework&#45;bundle&#45;&gt;symfony/cache</title>
<path fill="none" stroke="#1a2833" d="M509.75,-499.06C526.52,-542.22 575.33,-651.58 655.68,-701.03 713.27,-736.48 895.32,-752.69 1009.74,-759.54"/>
<polygon fill="#1a2833" stroke="#1a2833" points="1009.73,-763.04 1019.92,-760.13 1010.14,-756.06 1009.73,-763.04"/>
<text text-anchor="middle" x="801.18" y="-758.03" font-family="Times,serif" font-size="10.00" fill="#767676">^5.4|^6.0|^7.0</text>
</g>
<!-- symfony/framework&#45;bundle&#45;&gt;symfony/config -->
<g id="edge74" class="edge">
<title>symfony/framework&#45;bundle&#45;&gt;symfony/config</title>
<path fill="none" stroke="#1a2833" d="M507.09,-462.78C519.11,-411.58 560.56,-266 655.68,-199.03 759.67,-125.82 910.64,-117.3 1008.74,-121.13"/>
<polygon fill="#1a2833" stroke="#1a2833" points="1008.8,-124.63 1018.95,-121.58 1009.11,-117.64 1008.8,-124.63"/>
<text text-anchor="middle" x="801.18" y="-202.03" font-family="Times,serif" font-size="10.00" fill="#767676">^6.1|^7.0</text>
</g>
<!-- symfony/framework&#45;bundle&#45;&gt;symfony/deprecation&#45;contracts -->
<g id="edge76" class="edge">
<title>symfony/framework&#45;bundle&#45;&gt;symfony/deprecation&#45;contracts</title>
<path fill="none" stroke="#1a2833" d="M527.56,-499.07C556.47,-519.37 606.9,-551.4 655.68,-566.03 787.58,-605.6 827.06,-583.92 964.68,-589.03 1028.19,-591.39 1202.54,-630.54 1250.68,-589.03 1291.85,-553.53 1228.48,-504.65 1268.68,-468.03 1315.08,-425.76 1388.05,-425.81 1444.23,-434.39"/>
<polygon fill="#1a2833" stroke="#1a2833" points="1443.73,-437.85 1454.16,-436.02 1444.86,-430.95 1443.73,-437.85"/>
<text text-anchor="middle" x="1107.68" y="-611.03" font-family="Times,serif" font-size="10.00" fill="#767676">^2.5|^3</text>
</g>
<!-- symfony/framework&#45;bundle&#45;&gt;symfony/filesystem -->
<g id="edge79" class="edge">
<title>symfony/framework&#45;bundle&#45;&gt;symfony/filesystem</title>
<path fill="none" stroke="#1a2833" d="M512.52,-462.89C535.95,-416.88 598.15,-291.52 637.68,-182.03 647.85,-153.84 632.57,-136.13 655.68,-117.03 893.47,79.5 1305.48,-20.57 1461.95,-68.92"/>
<polygon fill="#1a2833" stroke="#1a2833" points="1461.29,-72.38 1471.88,-72.02 1463.38,-65.7 1461.29,-72.38"/>
<text text-anchor="middle" x="1107.68" y="-22.03" font-family="Times,serif" font-size="10.00" fill="#767676">^5.4|^6.0|^7.0</text>
</g>
<!-- symfony/framework&#45;bundle&#45;&gt;symfony/dependency&#45;injection -->
<g id="edge75" class="edge">
<title>symfony/framework&#45;bundle&#45;&gt;symfony/dependency&#45;injection</title>
<path fill="none" stroke="#1a2833" d="M508.07,-462.88C521.95,-415.35 566.46,-287.21 655.68,-233.03 711.09,-199.38 882.33,-219.97 946.68,-212.03 964.94,-209.78 984.3,-206.86 1002.99,-203.75"/>
<polygon fill="#1a2833" stroke="#1a2833" points="1003.72,-207.18 1013,-202.06 1002.56,-200.28 1003.72,-207.18"/>
<text text-anchor="middle" x="801.18" y="-236.03" font-family="Times,serif" font-size="10.00" fill="#767676">^6.4|^7.0</text>
</g>
<!-- symfony/framework&#45;bundle&#45;&gt;symfony/event&#45;dispatcher -->
<g id="edge78" class="edge">
<title>symfony/framework&#45;bundle&#45;&gt;symfony/event&#45;dispatcher</title>
<path fill="none" stroke="#1a2833" d="M515.03,-499.1C537.78,-531.98 591.05,-600.91 655.68,-630.03 710.04,-654.54 858.7,-661.58 970.6,-663.26"/>
<polygon fill="#1a2833" stroke="#1a2833" points="970.58,-666.76 980.63,-663.39 970.68,-659.76 970.58,-666.76"/>
<text text-anchor="middle" x="801.18" y="-666.03" font-family="Times,serif" font-size="10.00" fill="#767676">^5.4|^6.0|^7.0</text>
</g>
<!-- ext&#45;xml -->
<g id="node47" class="node">
<title>ext&#45;xml</title>
<path fill="#eeeeee" stroke="black" d="M1130.68,-364.03C1130.68,-364.03 1084.68,-364.03 1084.68,-364.03 1078.68,-364.03 1072.68,-358.03 1072.68,-352.03 1072.68,-352.03 1072.68,-340.03 1072.68,-340.03 1072.68,-334.03 1078.68,-328.03 1084.68,-328.03 1084.68,-328.03 1130.68,-328.03 1130.68,-328.03 1136.68,-328.03 1142.68,-334.03 1142.68,-340.03 1142.68,-340.03 1142.68,-352.03 1142.68,-352.03 1142.68,-358.03 1136.68,-364.03 1130.68,-364.03"/>
<text text-anchor="middle" x="1107.68" y="-342.33" font-family="Times,serif" font-size="14.00" fill="#314b5f">ext&#45;xml</text>
</g>
<!-- symfony/framework&#45;bundle&#45;&gt;ext&#45;xml -->
<g id="edge71" class="edge">
<title>symfony/framework&#45;bundle&#45;&gt;ext&#45;xml</title>
<path fill="none" stroke="#1a2833" d="M529.05,-462.89C558.31,-443.37 608.12,-413.09 655.68,-398.03 799.47,-352.51 980.29,-345.99 1062.44,-345.6"/>
<polygon fill="#1a2833" stroke="#1a2833" points="1062.67,-349.1 1072.66,-345.58 1062.66,-342.1 1062.67,-349.1"/>
<text text-anchor="middle" x="801.18" y="-401.03" font-family="Times,serif" font-size="10.00" fill="#767676">*</text>
</g>
<!-- symfony/error&#45;handler -->
<g id="node48" class="node">
<title>symfony/error&#45;handler</title>
<path fill="#eeeeee" stroke="black" d="M1210.68,-310.03C1210.68,-310.03 1004.68,-310.03 1004.68,-310.03 998.68,-310.03 992.68,-304.03 992.68,-298.03 992.68,-298.03 992.68,-286.03 992.68,-286.03 992.68,-280.03 998.68,-274.03 1004.68,-274.03 1004.68,-274.03 1210.68,-274.03 1210.68,-274.03 1216.68,-274.03 1222.68,-280.03 1222.68,-286.03 1222.68,-286.03 1222.68,-298.03 1222.68,-298.03 1222.68,-304.03 1216.68,-310.03 1210.68,-310.03"/>
<text text-anchor="middle" x="1107.68" y="-288.33" font-family="Times,serif" font-size="14.00" fill="#314b5f">symfony/error&#45;handler: v6.4.4</text>
</g>
<!-- symfony/framework&#45;bundle&#45;&gt;symfony/error&#45;handler -->
<g id="edge77" class="edge">
<title>symfony/framework&#45;bundle&#45;&gt;symfony/error&#45;handler</title>
<path fill="none" stroke="#1a2833" d="M515.55,-462.96C538.74,-430.75 592.19,-364.1 655.68,-335.03 758.66,-287.89 888.49,-280.17 982.38,-282.45"/>
<polygon fill="#1a2833" stroke="#1a2833" points="982.4,-285.95 992.49,-282.74 982.6,-278.96 982.4,-285.95"/>
<text text-anchor="middle" x="801.18" y="-338.03" font-family="Times,serif" font-size="10.00" fill="#767676">^6.1|^7.0</text>
</g>
<!-- symfony/finder -->
<g id="node49" class="node">
<title>symfony/finder</title>
<path fill="#eeeeee" stroke="black" d="M1183.68,-256.03C1183.68,-256.03 1031.68,-256.03 1031.68,-256.03 1025.68,-256.03 1019.68,-250.03 1019.68,-244.03 1019.68,-244.03 1019.68,-232.03 1019.68,-232.03 1019.68,-226.03 1025.68,-220.03 1031.68,-220.03 1031.68,-220.03 1183.68,-220.03 1183.68,-220.03 1189.68,-220.03 1195.68,-226.03 1195.68,-232.03 1195.68,-232.03 1195.68,-244.03 1195.68,-244.03 1195.68,-250.03 1189.68,-256.03 1183.68,-256.03"/>
<text text-anchor="middle" x="1107.68" y="-234.33" font-family="Times,serif" font-size="14.00" fill="#314b5f">symfony/finder: v6.4.0</text>
</g>
<!-- symfony/framework&#45;bundle&#45;&gt;symfony/finder -->
<g id="edge80" class="edge">
<title>symfony/framework&#45;bundle&#45;&gt;symfony/finder</title>
<path fill="none" stroke="#1a2833" d="M509.83,-462.88C526.62,-420.03 575.21,-312.83 655.68,-268.03 663.32,-263.78 879.22,-250.89 1009.48,-243.47"/>
<polygon fill="#1a2833" stroke="#1a2833" points="1009.7,-246.96 1019.49,-242.9 1009.3,-239.97 1009.7,-246.96"/>
<text text-anchor="middle" x="801.18" y="-271.03" font-family="Times,serif" font-size="10.00" fill="#767676">^5.4|^6.0|^7.0</text>
</g>
<!-- symfony/http&#45;foundation -->
<g id="node50" class="node">
<title>symfony/http&#45;foundation</title>
<path fill="#eeeeee" stroke="black" d="M1218.18,-580.03C1218.18,-580.03 997.18,-580.03 997.18,-580.03 991.18,-580.03 985.18,-574.03 985.18,-568.03 985.18,-568.03 985.18,-556.03 985.18,-556.03 985.18,-550.03 991.18,-544.03 997.18,-544.03 997.18,-544.03 1218.18,-544.03 1218.18,-544.03 1224.18,-544.03 1230.18,-550.03 1230.18,-556.03 1230.18,-556.03 1230.18,-568.03 1230.18,-568.03 1230.18,-574.03 1224.18,-580.03 1218.18,-580.03"/>
<text text-anchor="middle" x="1107.68" y="-558.33" font-family="Times,serif" font-size="14.00" fill="#314b5f">symfony/http&#45;foundation: v6.4.4</text>
</g>
<!-- symfony/framework&#45;bundle&#45;&gt;symfony/http&#45;foundation -->
<g id="edge81" class="edge">
<title>symfony/framework&#45;bundle&#45;&gt;symfony/http&#45;foundation</title>
<path fill="none" stroke="#1a2833" d="M573.42,-499.07C599.16,-505.17 628.61,-511.56 655.68,-516.03 762.52,-533.67 884.8,-545.64 975.05,-552.94"/>
<polygon fill="#1a2833" stroke="#1a2833" points="974.82,-556.43 985.06,-553.74 975.37,-549.45 974.82,-556.43"/>
<text text-anchor="middle" x="801.18" y="-554.03" font-family="Times,serif" font-size="10.00" fill="#767676">^6.4|^7.0</text>
</g>
<!-- symfony/http&#45;kernel -->
<g id="node51" class="node">
<title>symfony/http&#45;kernel</title>
<path fill="#eeeeee" stroke="black" d="M1202.68,-526.03C1202.68,-526.03 1012.68,-526.03 1012.68,-526.03 1006.68,-526.03 1000.68,-520.03 1000.68,-514.03 1000.68,-514.03 1000.68,-502.03 1000.68,-502.03 1000.68,-496.03 1006.68,-490.03 1012.68,-490.03 1012.68,-490.03 1202.68,-490.03 1202.68,-490.03 1208.68,-490.03 1214.68,-496.03 1214.68,-502.03 1214.68,-502.03 1214.68,-514.03 1214.68,-514.03 1214.68,-520.03 1208.68,-526.03 1202.68,-526.03"/>
<text text-anchor="middle" x="1107.68" y="-504.33" font-family="Times,serif" font-size="14.00" fill="#314b5f">symfony/http&#45;kernel: v6.4.5</text>
</g>
<!-- symfony/framework&#45;bundle&#45;&gt;symfony/http&#45;kernel -->
<g id="edge82" class="edge">
<title>symfony/framework&#45;bundle&#45;&gt;symfony/http&#45;kernel</title>
<path fill="none" stroke="#1a2833" d="M634.87,-486.93C740.93,-491.67 888.62,-498.28 990.36,-502.83"/>
<polygon fill="#1a2833" stroke="#1a2833" points="990.23,-506.33 1000.37,-503.28 990.54,-499.33 990.23,-506.33"/>
<text text-anchor="middle" x="801.18" y="-504.03" font-family="Times,serif" font-size="10.00" fill="#767676">^6.4</text>
</g>
<!-- symfony/polyfill&#45;mbstring -->
<g id="node52" class="node">
<title>symfony/polyfill&#45;mbstring</title>
<path fill="#eeeeee" stroke="black" d="M1226.18,-472.03C1226.18,-472.03 989.18,-472.03 989.18,-472.03 983.18,-472.03 977.18,-466.03 977.18,-460.03 977.18,-460.03 977.18,-448.03 977.18,-448.03 977.18,-442.03 983.18,-436.03 989.18,-436.03 989.18,-436.03 1226.18,-436.03 1226.18,-436.03 1232.18,-436.03 1238.18,-442.03 1238.18,-448.03 1238.18,-448.03 1238.18,-460.03 1238.18,-460.03 1238.18,-466.03 1232.18,-472.03 1226.18,-472.03"/>
<text text-anchor="middle" x="1107.68" y="-450.33" font-family="Times,serif" font-size="14.00" fill="#314b5f">symfony/polyfill&#45;mbstring: v1.29.0</text>
</g>
<!-- symfony/framework&#45;bundle&#45;&gt;symfony/polyfill&#45;mbstring -->
<g id="edge83" class="edge">
<title>symfony/framework&#45;bundle&#45;&gt;symfony/polyfill&#45;mbstring</title>
<path fill="none" stroke="#1a2833" d="M635.02,-474.97C642,-474.65 648.92,-474.34 655.68,-474.03 759.9,-469.33 877.68,-464.11 966.74,-460.18"/>
<polygon fill="#1a2833" stroke="#1a2833" points="967.07,-463.67 976.91,-459.74 966.76,-456.68 967.07,-463.67"/>
<text text-anchor="middle" x="801.18" y="-477.03" font-family="Times,serif" font-size="10.00" fill="#767676">~1.0</text>
</g>
<!-- symfony/routing -->
<g id="node53" class="node">
<title>symfony/routing</title>
<path fill="#eeeeee" stroke="black" d="M1189.18,-418.03C1189.18,-418.03 1026.18,-418.03 1026.18,-418.03 1020.18,-418.03 1014.18,-412.03 1014.18,-406.03 1014.18,-406.03 1014.18,-394.03 1014.18,-394.03 1014.18,-388.03 1020.18,-382.03 1026.18,-382.03 1026.18,-382.03 1189.18,-382.03 1189.18,-382.03 1195.18,-382.03 1201.18,-388.03 1201.18,-394.03 1201.18,-394.03 1201.18,-406.03 1201.18,-406.03 1201.18,-412.03 1195.18,-418.03 1189.18,-418.03"/>
<text text-anchor="middle" x="1107.68" y="-396.33" font-family="Times,serif" font-size="14.00" fill="#314b5f">symfony/routing: v6.4.5</text>
</g>
<!-- symfony/framework&#45;bundle&#45;&gt;symfony/routing -->
<g id="edge84" class="edge">
<title>symfony/framework&#45;bundle&#45;&gt;symfony/routing</title>
<path fill="none" stroke="#1a2833" d="M576.14,-462.97C601.23,-457.24 629.57,-451.29 655.68,-447.03 774.38,-427.68 912.02,-414.69 1003.72,-407.36"/>
<polygon fill="#1a2833" stroke="#1a2833" points="1004.15,-410.84 1013.84,-406.56 1003.59,-403.86 1004.15,-410.84"/>
<text text-anchor="middle" x="801.18" y="-450.03" font-family="Times,serif" font-size="10.00" fill="#767676">^6.4|^7.0</text>
</g>
<!-- bamarni/composer&#45;bin&#45;plugin&#45;&gt;php -->
<g id="edge87" class="edge">
<title>bamarni/composer&#45;bin&#45;plugin&#45;&gt;php</title>
<path fill="none" stroke="#1a2833" d="M637.77,-931.11C874.34,-929.49 1352.52,-926.21 1488.1,-925.28"/>
<polygon fill="#1a2833" stroke="#1a2833" points="1488.37,-928.78 1498.35,-925.21 1488.32,-921.78 1488.37,-928.78"/>
<text text-anchor="middle" x="1107.68" y="-932.03" font-family="Times,serif" font-size="10.00" fill="#767676">^7.2.5 || ^8.0</text>
</g>
<!-- composer&#45;plugin&#45;api -->
<g id="node55" class="node">
<title>composer&#45;plugin&#45;api</title>
<path fill="#eeeeee" stroke="black" d="M1176.18,-890.03C1176.18,-890.03 1039.18,-890.03 1039.18,-890.03 1033.18,-890.03 1027.18,-884.03 1027.18,-878.03 1027.18,-878.03 1027.18,-866.03 1027.18,-866.03 1027.18,-860.03 1033.18,-854.03 1039.18,-854.03 1039.18,-854.03 1176.18,-854.03 1176.18,-854.03 1182.18,-854.03 1188.18,-860.03 1188.18,-866.03 1188.18,-866.03 1188.18,-878.03 1188.18,-878.03 1188.18,-884.03 1182.18,-890.03 1176.18,-890.03"/>
<text text-anchor="middle" x="1107.68" y="-868.33" font-family="Times,serif" font-size="14.00" fill="#314b5f">composer&#45;plugin&#45;api</text>
</g>
<!-- bamarni/composer&#45;bin&#45;plugin&#45;&gt;composer&#45;plugin&#45;api -->
<g id="edge86" class="edge">
<title>bamarni/composer&#45;bin&#45;plugin&#45;&gt;composer&#45;plugin&#45;api</title>
<path fill="none" stroke="#1a2833" d="M538.74,-913.96C568.96,-899.67 613.97,-880.87 655.68,-873.03 779.17,-849.84 925.07,-855.33 1016.75,-862.66"/>
<polygon fill="#1a2833" stroke="#1a2833" points="1016.57,-866.16 1026.83,-863.49 1017.15,-859.18 1016.57,-866.16"/>
<text text-anchor="middle" x="801.18" y="-876.03" font-family="Times,serif" font-size="10.00" fill="#767676">^2.0</text>
</g>
</g>
</svg>
