<?xml version="1.0" encoding="UTF-8" standalone="no"?>
<!DOCTYPE svg PUBLIC "-//W3C//DTD SVG 1.1//EN"
 "http://www.w3.org/Graphics/SVG/1.1/DTD/svg11.dtd">
<!-- Generated by graphviz version 2.43.0 (0)
 -->
<!-- Title: %3 Pages: 1 -->
<svg width="2556pt" height="1616pt"
 viewBox="0.00 0.00 2556.00 1616.00" xmlns="http://www.w3.org/2000/svg" xmlns:xlink="http://www.w3.org/1999/xlink">
<g id="graph0" class="graph" transform="scale(1 1) rotate(0) translate(4 1612)">
<title>%3</title>
<g id="clust1" class="cluster">
<title>cluster_0</title>
<polygon fill="#ffd39b" stroke="black" points="408.5,-1321 408.5,-1600 1372.5,-1600 1372.5,-1321 408.5,-1321"/>
<text text-anchor="middle" x="890.5" y="-1584.8" font-family="Times,serif" font-size="14.00">Bartlett\CompatInfoDb\Application\Command\Build</text>
</g>
<g id="clust2" class="cluster">
<title>cluster_1</title>
<polygon fill="#cdaa7d" stroke="black" points="1793,-680 1793,-937 2540,-937 2540,-680 1793,-680"/>
<text text-anchor="middle" x="2166.5" y="-921.8" font-family="Times,serif" font-size="14.00">Bartlett\CompatInfoDb\Application\Command</text>
</g>
<g id="clust3" class="cluster">
<title>cluster_2</title>
<polygon fill="#ffd39b" stroke="black" points="511.5,-1046 511.5,-1313 1269.5,-1313 1269.5,-1046 511.5,-1046"/>
<text text-anchor="middle" x="890.5" y="-1297.8" font-family="Times,serif" font-size="14.00">Bartlett\CompatInfoDb\Application\Command\Create</text>
</g>
<g id="clust4" class="cluster">
<title>cluster_3</title>
<polygon fill="#ffd39b" stroke="black" points="8,-658 8,-1038 1773,-1038 1773,-658 8,-658"/>
<text text-anchor="middle" x="890.5" y="-1022.8" font-family="Times,serif" font-size="14.00">Bartlett\CompatInfoDb\Application\Command\Init</text>
</g>
<g id="clust5" class="cluster">
<title>cluster_4</title>
<polygon fill="#ffd39b" stroke="black" points="312,-314 312,-650 1469,-650 1469,-314 312,-314"/>
<text text-anchor="middle" x="890.5" y="-634.8" font-family="Times,serif" font-size="14.00">Bartlett\CompatInfoDb\Application\Command\Polyfill</text>
</g>
<g id="clust6" class="cluster">
<title>cluster_5</title>
<polygon fill="#ffd39b" stroke="black" points="504,-8 504,-306 1277,-306 1277,-8 504,-8"/>
<text text-anchor="middle" x="890.5" y="-290.8" font-family="Times,serif" font-size="14.00">Bartlett\CompatInfoDb\Application\Command\Release</text>
</g>
<!-- Bartlett\\CompatInfoDb\\Application\\Command\\Build\\BuildCommand -->
<g id="node1" class="node">
<title>Bartlett\\CompatInfoDb\\Application\\Command\\Build\\BuildCommand</title>
<polygon fill="#fefece" stroke="transparent" points="1364.5,-1569.5 416.5,-1569.5 416.5,-1420.5 1364.5,-1420.5 1364.5,-1569.5"/>
<polygon fill="#eeeeee" stroke="transparent" points="424.5,-1531 424.5,-1565 1356.5,-1565 1356.5,-1531 424.5,-1531"/>
<polygon fill="none" stroke="black" points="424.5,-1531 424.5,-1565 1356.5,-1565 1356.5,-1531 424.5,-1531"/>
<text text-anchor="start" x="829" y="-1537.8" font-family="Times,serif" font-weight="bold" font-size="14.00">BuildCommand</text>
<polygon fill="none" stroke="black" points="424.5,-1525 424.5,-1531 1356.5,-1531 1356.5,-1525 424.5,-1525"/>
<polygon fill="none" stroke="black" points="424.5,-1424 424.5,-1525 1356.5,-1525 1356.5,-1424 424.5,-1424"/>
<text text-anchor="start" x="429.5" y="-1508.8" font-family="Times,serif" font-size="14.00">+ __construct(extension : string, extMin : string, phpMin : string, output : Symfony\Component\Console\Output\OutputInterface)</text>
<text text-anchor="start" x="429.5" y="-1489.8" font-family="Times,serif" font-size="14.00">+ getExtension() : string</text>
<text text-anchor="start" x="429.5" y="-1470.8" font-family="Times,serif" font-size="14.00">+ getExtMin() : string</text>
<text text-anchor="start" x="429.5" y="-1451.8" font-family="Times,serif" font-size="14.00">+ getPhpMin() : string</text>
<text text-anchor="start" x="429.5" y="-1432.8" font-family="Times,serif" font-size="14.00">+ getOutput() : Symfony\Component\Console\Output\OutputInterface</text>
</g>
<!-- Bartlett\\CompatInfoDb\\Application\\Command\\CommandInterface -->
<g id="node3" class="node">
<title>Bartlett\\CompatInfoDb\\Application\\Command\\CommandInterface</title>
<polygon fill="#fefece" stroke="transparent" points="2254,-906 2079,-906 2079,-852 2254,-852 2254,-906"/>
<polygon fill="#eeeeee" stroke="transparent" points="2087.5,-868 2087.5,-902 2246.5,-902 2246.5,-868 2087.5,-868"/>
<polygon fill="none" stroke="black" points="2087.5,-868 2087.5,-902 2246.5,-902 2246.5,-868 2087.5,-868"/>
<text text-anchor="start" x="2122" y="-888.8" font-family="Times,serif" font-weight="bold" font-size="14.00">«interface»</text>
<text text-anchor="start" x="2090.5" y="-874.8" font-family="Times,serif" font-weight="bold" font-size="14.00">CommandInterface</text>
<polygon fill="none" stroke="black" points="2087.5,-862 2087.5,-868 2246.5,-868 2246.5,-862 2087.5,-862"/>
<polygon fill="none" stroke="black" points="2087.5,-856 2087.5,-862 2246.5,-862 2246.5,-856 2087.5,-856"/>
</g>
<!-- Bartlett\\CompatInfoDb\\Application\\Command\\Build\\BuildCommand&#45;&gt;Bartlett\\CompatInfoDb\\Application\\Command\\CommandInterface -->
<g id="edge1" class="edge">
<title>Bartlett\\CompatInfoDb\\Application\\Command\\Build\\BuildCommand&#45;&gt;Bartlett\\CompatInfoDb\\Application\\Command\\CommandInterface</title>
<path fill="none" stroke="black" stroke-dasharray="5,2" d="M1364.6,-1521.99C1503.48,-1511.54 1650.76,-1481.18 1773,-1412 1981.1,-1294.24 2110.21,-1015.8 2151.26,-915.67"/>
<polygon fill="none" stroke="black" points="2154.56,-916.85 2155.07,-906.27 2148.07,-914.23 2154.56,-916.85"/>
</g>
<!-- Bartlett\\CompatInfoDb\\Application\\Command\\Build\\BuildHandler -->
<g id="node2" class="node">
<title>Bartlett\\CompatInfoDb\\Application\\Command\\Build\\BuildHandler</title>
<polygon fill="#fefece" stroke="transparent" points="1251,-1402.5 530,-1402.5 530,-1329.5 1251,-1329.5 1251,-1402.5"/>
<polygon fill="#eeeeee" stroke="transparent" points="538.5,-1364 538.5,-1398 1243.5,-1398 1243.5,-1364 538.5,-1364"/>
<polygon fill="none" stroke="black" points="538.5,-1364 538.5,-1398 1243.5,-1398 1243.5,-1364 538.5,-1364"/>
<text text-anchor="start" x="837" y="-1370.8" font-family="Times,serif" font-weight="bold" font-size="14.00">BuildHandler</text>
<polygon fill="none" stroke="black" points="538.5,-1358 538.5,-1364 1243.5,-1364 1243.5,-1358 538.5,-1358"/>
<polygon fill="none" stroke="black" points="538.5,-1333 538.5,-1358 1243.5,-1358 1243.5,-1333 538.5,-1333"/>
<text text-anchor="start" x="543.5" y="-1341.8" font-family="Times,serif" font-size="14.00">+ __invoke(command : Bartlett\CompatInfoDb\Application\Command\Build\BuildCommand) : void</text>
</g>
<!-- Bartlett\\CompatInfoDb\\Application\\Command\\CommandHandlerInterface -->
<g id="node4" class="node">
<title>Bartlett\\CompatInfoDb\\Application\\Command\\CommandHandlerInterface</title>
<polygon fill="#fefece" stroke="transparent" points="2286,-834 2047,-834 2047,-780 2286,-780 2286,-834"/>
<polygon fill="#eeeeee" stroke="transparent" points="2055.5,-796 2055.5,-830 2278.5,-830 2278.5,-796 2055.5,-796"/>
<polygon fill="none" stroke="black" points="2055.5,-796 2055.5,-830 2278.5,-830 2278.5,-796 2055.5,-796"/>
<text text-anchor="start" x="2122" y="-816.8" font-family="Times,serif" font-weight="bold" font-size="14.00">«interface»</text>
<text text-anchor="start" x="2058.5" y="-802.8" font-family="Times,serif" font-weight="bold" font-size="14.00">CommandHandlerInterface</text>
<polygon fill="none" stroke="black" points="2055.5,-790 2055.5,-796 2278.5,-796 2278.5,-790 2055.5,-790"/>
<polygon fill="none" stroke="black" points="2055.5,-784 2055.5,-790 2278.5,-790 2278.5,-784 2055.5,-784"/>
</g>
<!-- Bartlett\\CompatInfoDb\\Application\\Command\\Build\\BuildHandler&#45;&gt;Bartlett\\CompatInfoDb\\Application\\Command\\CommandHandlerInterface -->
<g id="edge2" class="edge">
<title>Bartlett\\CompatInfoDb\\Application\\Command\\Build\\BuildHandler&#45;&gt;Bartlett\\CompatInfoDb\\Application\\Command\\CommandHandlerInterface</title>
<path fill="none" stroke="black" stroke-dasharray="5,2" d="M1251.25,-1393C1462.07,-1400.13 1700.77,-1390.2 1773,-1317 1810.02,-1279.48 1756.75,-881.27 1793,-843 1853.74,-778.88 1955,-772.7 2036.63,-781.02"/>
<polygon fill="none" stroke="black" points="2036.67,-784.54 2046.99,-782.16 2037.43,-777.58 2036.67,-784.54"/>
</g>
<!-- Bartlett\\CompatInfoDb\\Application\\Command\\CommandBusInterface -->
<g id="node5" class="node">
<title>Bartlett\\CompatInfoDb\\Application\\Command\\CommandBusInterface</title>
<polygon fill="#fefece" stroke="transparent" points="2532,-761.5 1801,-761.5 1801,-688.5 2532,-688.5 2532,-761.5"/>
<polygon fill="#eeeeee" stroke="transparent" points="1809.5,-723 1809.5,-757 2524.5,-757 2524.5,-723 1809.5,-723"/>
<polygon fill="none" stroke="black" points="1809.5,-723 1809.5,-757 2524.5,-757 2524.5,-723 1809.5,-723"/>
<text text-anchor="start" x="2122" y="-743.8" font-family="Times,serif" font-weight="bold" font-size="14.00">«interface»</text>
<text text-anchor="start" x="2075" y="-729.8" font-family="Times,serif" font-weight="bold" font-size="14.00">CommandBusInterface</text>
<polygon fill="none" stroke="black" points="1809.5,-717 1809.5,-723 2524.5,-723 2524.5,-717 1809.5,-717"/>
<polygon fill="none" stroke="black" points="1809.5,-692 1809.5,-717 2524.5,-717 2524.5,-692 1809.5,-692"/>
<text text-anchor="start" x="1814.5" y="-700.8" font-family="Times,serif" font-size="14.00">+ «abstract» handle(command : Bartlett\CompatInfoDb\Application\Command\CommandInterface)</text>
</g>
<!-- Bartlett\\CompatInfoDb\\Application\\Command\\Create\\CreateCommand -->
<g id="node6" class="node">
<title>Bartlett\\CompatInfoDb\\Application\\Command\\Create\\CreateCommand</title>
<polygon fill="#fefece" stroke="transparent" points="1129,-1282 652,-1282 652,-1190 1129,-1190 1129,-1282"/>
<polygon fill="#eeeeee" stroke="transparent" points="660.5,-1244 660.5,-1278 1121.5,-1278 1121.5,-1244 660.5,-1244"/>
<polygon fill="none" stroke="black" points="660.5,-1244 660.5,-1278 1121.5,-1278 1121.5,-1244 660.5,-1244"/>
<text text-anchor="start" x="824.5" y="-1250.8" font-family="Times,serif" font-weight="bold" font-size="14.00">CreateCommand</text>
<polygon fill="none" stroke="black" points="660.5,-1238 660.5,-1244 1121.5,-1244 1121.5,-1238 660.5,-1238"/>
<polygon fill="none" stroke="black" points="660.5,-1194 660.5,-1238 1121.5,-1238 1121.5,-1194 660.5,-1194"/>
<text text-anchor="start" x="665.5" y="-1221.8" font-family="Times,serif" font-size="14.00">+ __construct(em : Doctrine\ORM\EntityManagerInterface)</text>
<text text-anchor="start" x="665.5" y="-1202.8" font-family="Times,serif" font-size="14.00">+ getEntityManager() : Doctrine\ORM\EntityManagerInterface</text>
</g>
<!-- Bartlett\\CompatInfoDb\\Application\\Command\\Create\\CreateCommand&#45;&gt;Bartlett\\CompatInfoDb\\Application\\Command\\CommandInterface -->
<g id="edge3" class="edge">
<title>Bartlett\\CompatInfoDb\\Application\\Command\\Create\\CreateCommand&#45;&gt;Bartlett\\CompatInfoDb\\Application\\Command\\CommandInterface</title>
<path fill="none" stroke="black" stroke-dasharray="5,2" d="M1129.44,-1258.1C1311.45,-1266.35 1565.56,-1258.86 1773,-1181 1928.48,-1122.64 2072.77,-980.43 2134.26,-914.12"/>
<polygon fill="none" stroke="black" points="2137.14,-916.15 2141.34,-906.42 2131.99,-911.41 2137.14,-916.15"/>
</g>
<!-- Bartlett\\CompatInfoDb\\Application\\Command\\Create\\CreateHandler -->
<g id="node7" class="node">
<title>Bartlett\\CompatInfoDb\\Application\\Command\\Create\\CreateHandler</title>
<polygon fill="#fefece" stroke="transparent" points="1261.5,-1171.5 519.5,-1171.5 519.5,-1054.5 1261.5,-1054.5 1261.5,-1171.5"/>
<polygon fill="#eeeeee" stroke="transparent" points="527.5,-1133 527.5,-1167 1253.5,-1167 1253.5,-1133 527.5,-1133"/>
<polygon fill="none" stroke="black" points="527.5,-1133 527.5,-1167 1253.5,-1167 1253.5,-1133 527.5,-1133"/>
<text text-anchor="start" x="831.5" y="-1139.8" font-family="Times,serif" font-weight="bold" font-size="14.00">CreateHandler</text>
<polygon fill="none" stroke="black" points="527.5,-1089 527.5,-1133 1253.5,-1133 1253.5,-1089 527.5,-1089"/>
<text text-anchor="start" x="532.5" y="-1116.8" font-family="Times,serif" font-size="14.00">+ «static» RETURN_CODE_DATABASE_ALREADY_EXISTS : int = 110 {readOnly}</text>
<text text-anchor="start" x="532.5" y="-1097.8" font-family="Times,serif" font-size="14.00">+ «static» RETURN_CODE_SCHEMA_TOOL_FAILURE : int = 500 {readOnly}</text>
<polygon fill="none" stroke="black" points="527.5,-1083 527.5,-1089 1253.5,-1089 1253.5,-1083 527.5,-1083"/>
<polygon fill="none" stroke="black" points="527.5,-1058 527.5,-1083 1253.5,-1083 1253.5,-1058 527.5,-1058"/>
<text text-anchor="start" x="532.5" y="-1066.8" font-family="Times,serif" font-size="14.00">+ __invoke(command : Bartlett\CompatInfoDb\Application\Command\Create\CreateCommand) : void</text>
</g>
<!-- Bartlett\\CompatInfoDb\\Application\\Command\\Create\\CreateHandler&#45;&gt;Bartlett\\CompatInfoDb\\Application\\Command\\CommandHandlerInterface -->
<g id="edge4" class="edge">
<title>Bartlett\\CompatInfoDb\\Application\\Command\\Create\\CreateHandler&#45;&gt;Bartlett\\CompatInfoDb\\Application\\Command\\CommandHandlerInterface</title>
<path fill="none" stroke="black" stroke-dasharray="5,2" d="M1261.55,-1129.1C1469.2,-1129.55 1700.74,-1112.84 1773,-1042 1804.74,-1010.89 1761.51,-874.37 1793,-843 1855.24,-781 1955.65,-774.45 2036.55,-782.07"/>
<polygon fill="none" stroke="black" points="2036.51,-785.59 2046.82,-783.13 2037.23,-778.62 2036.51,-785.59"/>
</g>
<!-- Bartlett\\CompatInfoDb\\Application\\Command\\Init\\InitCommand -->
<g id="node8" class="node">
<title>Bartlett\\CompatInfoDb\\Application\\Command\\Init\\InitCommand</title>
<polygon fill="#fefece" stroke="transparent" points="1345,-1007.5 436,-1007.5 436,-858.5 1345,-858.5 1345,-1007.5"/>
<polygon fill="#eeeeee" stroke="transparent" points="444.5,-969 444.5,-1003 1337.5,-1003 1337.5,-969 444.5,-969"/>
<polygon fill="none" stroke="black" points="444.5,-969 444.5,-1003 1337.5,-1003 1337.5,-969 444.5,-969"/>
<text text-anchor="start" x="836.5" y="-975.8" font-family="Times,serif" font-weight="bold" font-size="14.00">InitCommand</text>
<polygon fill="none" stroke="black" points="444.5,-963 444.5,-969 1337.5,-969 1337.5,-963 444.5,-963"/>
<polygon fill="none" stroke="black" points="444.5,-862 444.5,-963 1337.5,-963 1337.5,-862 444.5,-862"/>
<text text-anchor="start" x="449.5" y="-946.8" font-family="Times,serif" font-size="14.00">+ __construct(version : string, io : Bartlett\CompatInfoDb\Presentation\Console\StyleInterface, force : bool, progress : bool)</text>
<text text-anchor="start" x="449.5" y="-927.8" font-family="Times,serif" font-size="14.00">+ getAppVersion() : string</text>
<text text-anchor="start" x="449.5" y="-908.8" font-family="Times,serif" font-size="14.00">+ getStyle() : Bartlett\CompatInfoDb\Presentation\Console\StyleInterface</text>
<text text-anchor="start" x="449.5" y="-889.8" font-family="Times,serif" font-size="14.00">+ isForce() : bool</text>
<text text-anchor="start" x="449.5" y="-870.8" font-family="Times,serif" font-size="14.00">+ isProgress() : bool</text>
</g>
<!-- Bartlett\\CompatInfoDb\\Application\\Command\\Init\\InitCommand&#45;&gt;Bartlett\\CompatInfoDb\\Application\\Command\\CommandInterface -->
<g id="edge5" class="edge">
<title>Bartlett\\CompatInfoDb\\Application\\Command\\Init\\InitCommand&#45;&gt;Bartlett\\CompatInfoDb\\Application\\Command\\CommandInterface</title>
<path fill="none" stroke="black" stroke-dasharray="5,2" d="M1345.15,-913.77C1607.57,-902.65 1915.36,-889.6 2068.59,-883.11"/>
<polygon fill="none" stroke="black" points="2069.06,-886.59 2078.91,-882.67 2068.77,-879.6 2069.06,-886.59"/>
</g>
<!-- Bartlett\\CompatInfoDb\\Application\\Command\\Init\\InitHandler -->
<g id="node9" class="node">
<title>Bartlett\\CompatInfoDb\\Application\\Command\\Init\\InitHandler</title>
<polygon fill="#fefece" stroke="transparent" points="1765,-840 16,-840 16,-666 1765,-666 1765,-840"/>
<polygon fill="#eeeeee" stroke="transparent" points="24.5,-802 24.5,-836 1757.5,-836 1757.5,-802 24.5,-802"/>
<polygon fill="none" stroke="black" points="24.5,-802 24.5,-836 1757.5,-836 1757.5,-802 24.5,-802"/>
<text text-anchor="start" x="844" y="-808.8" font-family="Times,serif" font-weight="bold" font-size="14.00">InitHandler</text>
<polygon fill="none" stroke="black" points="24.5,-720 24.5,-802 1757.5,-802 1757.5,-720 24.5,-720"/>
<text text-anchor="start" x="29.5" y="-785.8" font-family="Times,serif" font-size="14.00">+ «static» RETURN_CODE_DISTRIBUTION_PLATFORM_EXISTS : int = 110 {readOnly}</text>
<text text-anchor="start" x="29.5" y="-766.8" font-family="Times,serif" font-size="14.00">+ «static» RETURN_CODE_DATABASE_READONLY : int = 120 {readOnly}</text>
<text text-anchor="start" x="29.5" y="-747.8" font-family="Times,serif" font-size="14.00">+ «static» PHP_RELEASES_7 : array = […] {readOnly}</text>
<text text-anchor="start" x="29.5" y="-728.8" font-family="Times,serif" font-size="14.00">+ «static» PHP_RELEASES_8 : array = […] {readOnly}</text>
<polygon fill="none" stroke="black" points="24.5,-714 24.5,-720 1757.5,-720 1757.5,-714 24.5,-714"/>
<polygon fill="none" stroke="black" points="24.5,-670 24.5,-714 1757.5,-714 1757.5,-670 24.5,-670"/>
<text text-anchor="start" x="29.5" y="-697.8" font-family="Times,serif" font-size="14.00">+ __construct(jsonFileHandler : Bartlett\CompatInfoDb\Application\Service\JsonFileHandler, distributionRepository : Bartlett\CompatInfoDb\Domain\Repository\DistributionRepository, entityManager : Doctrine\ORM\EntityManagerInterface)</text>
<text text-anchor="start" x="29.5" y="-678.8" font-family="Times,serif" font-size="14.00">+ __invoke(query : Bartlett\CompatInfoDb\Application\Command\Init\InitCommand) : void</text>
</g>
<!-- Bartlett\\CompatInfoDb\\Application\\Command\\Init\\InitHandler&#45;&gt;Bartlett\\CompatInfoDb\\Application\\Command\\CommandHandlerInterface -->
<g id="edge6" class="edge">
<title>Bartlett\\CompatInfoDb\\Application\\Command\\Init\\InitHandler&#45;&gt;Bartlett\\CompatInfoDb\\Application\\Command\\CommandHandlerInterface</title>
<path fill="none" stroke="black" stroke-dasharray="5,2" d="M1765.02,-790.03C1870.12,-794.48 1965.22,-798.51 2036.34,-801.53"/>
<polygon fill="none" stroke="black" points="2036.52,-805.04 2046.65,-801.96 2036.81,-798.04 2036.52,-805.04"/>
</g>
<!-- Bartlett\\CompatInfoDb\\Application\\Command\\Polyfill\\PolyfillCommand -->
<g id="node10" class="node">
<title>Bartlett\\CompatInfoDb\\Application\\Command\\Polyfill\\PolyfillCommand</title>
<polygon fill="#fefece" stroke="transparent" points="1461,-619.5 320,-619.5 320,-432.5 1461,-432.5 1461,-619.5"/>
<polygon fill="#eeeeee" stroke="transparent" points="328.5,-581 328.5,-615 1453.5,-615 1453.5,-581 328.5,-581"/>
<polygon fill="none" stroke="black" points="328.5,-581 328.5,-615 1453.5,-615 1453.5,-581 328.5,-581"/>
<text text-anchor="start" x="824" y="-587.8" font-family="Times,serif" font-weight="bold" font-size="14.00">PolyfillCommand</text>
<polygon fill="none" stroke="black" points="328.5,-575 328.5,-581 1453.5,-581 1453.5,-575 328.5,-575"/>
<polygon fill="none" stroke="black" points="328.5,-436 328.5,-575 1453.5,-575 1453.5,-436 328.5,-436"/>
<text text-anchor="start" x="333.5" y="-558.8" font-family="Times,serif" font-size="14.00">+ __construct(package : string, tag : string, php : array, io : Bartlett\CompatInfoDb\Presentation\Console\StyleInterface, cacheDir : string, whitelist : string)</text>
<text text-anchor="start" x="333.5" y="-539.8" font-family="Times,serif" font-size="14.00">+ getPackage() : string</text>
<text text-anchor="start" x="333.5" y="-520.8" font-family="Times,serif" font-size="14.00">+ getTag() : string</text>
<text text-anchor="start" x="333.5" y="-501.8" font-family="Times,serif" font-size="14.00">+ getPhp() : array</text>
<text text-anchor="start" x="333.5" y="-482.8" font-family="Times,serif" font-size="14.00">+ getStyle() : Bartlett\CompatInfoDb\Presentation\Console\StyleInterface</text>
<text text-anchor="start" x="333.5" y="-463.8" font-family="Times,serif" font-size="14.00">+ getCacheDir() : string</text>
<text text-anchor="start" x="333.5" y="-444.8" font-family="Times,serif" font-size="14.00">+ getWhitelist() : ?string</text>
</g>
<!-- Bartlett\\CompatInfoDb\\Application\\Command\\Polyfill\\PolyfillCommand&#45;&gt;Bartlett\\CompatInfoDb\\Application\\Command\\CommandInterface -->
<g id="edge7" class="edge">
<title>Bartlett\\CompatInfoDb\\Application\\Command\\Polyfill\\PolyfillCommand&#45;&gt;Bartlett\\CompatInfoDb\\Application\\Command\\CommandInterface</title>
<path fill="none" stroke="black" stroke-dasharray="5,2" d="M1461.22,-500.47C1578.17,-522.56 1690.58,-568.32 1773,-654 1802.28,-684.44 1763,-813.27 1793,-843 1863.96,-913.31 1984.04,-912.15 2068.65,-900.01"/>
<polygon fill="none" stroke="black" points="2069.42,-903.43 2078.79,-898.48 2068.38,-896.51 2069.42,-903.43"/>
</g>
<!-- Bartlett\\CompatInfoDb\\Application\\Command\\Polyfill\\PolyfillHandler -->
<g id="node11" class="node">
<title>Bartlett\\CompatInfoDb\\Application\\Command\\Polyfill\\PolyfillHandler</title>
<polygon fill="#fefece" stroke="transparent" points="1261.5,-414 519.5,-414 519.5,-322 1261.5,-322 1261.5,-414"/>
<polygon fill="#eeeeee" stroke="transparent" points="527.5,-376 527.5,-410 1253.5,-410 1253.5,-376 527.5,-376"/>
<polygon fill="none" stroke="black" points="527.5,-376 527.5,-410 1253.5,-410 1253.5,-376 527.5,-376"/>
<text text-anchor="start" x="831" y="-382.8" font-family="Times,serif" font-weight="bold" font-size="14.00">PolyfillHandler</text>
<polygon fill="none" stroke="black" points="527.5,-370 527.5,-376 1253.5,-376 1253.5,-370 527.5,-370"/>
<polygon fill="none" stroke="black" points="527.5,-326 527.5,-370 1253.5,-370 1253.5,-326 527.5,-326"/>
<text text-anchor="start" x="532.5" y="-353.8" font-family="Times,serif" font-size="14.00">+ __construct(jsonFileHandler : Bartlett\CompatInfoDb\Application\Service\JsonFileHandler)</text>
<text text-anchor="start" x="532.5" y="-334.8" font-family="Times,serif" font-size="14.00">+ __invoke(command : Bartlett\CompatInfoDb\Application\Command\Polyfill\PolyfillCommand) : void</text>
</g>
<!-- Bartlett\\CompatInfoDb\\Application\\Command\\Polyfill\\PolyfillHandler&#45;&gt;Bartlett\\CompatInfoDb\\Application\\Command\\CommandHandlerInterface -->
<g id="edge8" class="edge">
<title>Bartlett\\CompatInfoDb\\Application\\Command\\Polyfill\\PolyfillHandler&#45;&gt;Bartlett\\CompatInfoDb\\Application\\Command\\CommandHandlerInterface</title>
<path fill="none" stroke="black" stroke-dasharray="5,2" d="M1261.67,-344.16C1469.73,-339.59 1701.68,-352.26 1773,-424 1827.46,-478.78 1739.45,-715.34 1793,-771 1854.12,-834.54 1955.11,-840.83 2036.52,-832.72"/>
<polygon fill="none" stroke="black" points="2037.29,-836.15 2046.86,-831.6 2036.54,-829.19 2037.29,-836.15"/>
</g>
<!-- Bartlett\\CompatInfoDb\\Application\\Command\\Release\\ReleaseCommand -->
<g id="node12" class="node">
<title>Bartlett\\CompatInfoDb\\Application\\Command\\Release\\ReleaseCommand</title>
<polygon fill="#fefece" stroke="transparent" points="1178.5,-275.5 602.5,-275.5 602.5,-126.5 1178.5,-126.5 1178.5,-275.5"/>
<polygon fill="#eeeeee" stroke="transparent" points="610.5,-237 610.5,-271 1170.5,-271 1170.5,-237 610.5,-237"/>
<polygon fill="none" stroke="black" points="610.5,-237 610.5,-271 1170.5,-271 1170.5,-237 610.5,-237"/>
<text text-anchor="start" x="819.5" y="-243.8" font-family="Times,serif" font-weight="bold" font-size="14.00">ReleaseCommand</text>
<polygon fill="none" stroke="black" points="610.5,-231 610.5,-237 1170.5,-237 1170.5,-231 610.5,-231"/>
<polygon fill="none" stroke="black" points="610.5,-130 610.5,-231 1170.5,-231 1170.5,-130 610.5,-130"/>
<text text-anchor="start" x="615.5" y="-214.8" font-family="Times,serif" font-size="14.00">+ __construct(version : string, date : string, state : string, extension : string)</text>
<text text-anchor="start" x="615.5" y="-195.8" font-family="Times,serif" font-size="14.00">+ getVersion() : string</text>
<text text-anchor="start" x="615.5" y="-176.8" font-family="Times,serif" font-size="14.00">+ getDate() : string</text>
<text text-anchor="start" x="615.5" y="-157.8" font-family="Times,serif" font-size="14.00">+ getState() : string</text>
<text text-anchor="start" x="615.5" y="-138.8" font-family="Times,serif" font-size="14.00">+ getExtension() : string</text>
</g>
<!-- Bartlett\\CompatInfoDb\\Application\\Command\\Release\\ReleaseCommand&#45;&gt;Bartlett\\CompatInfoDb\\Application\\Command\\CommandInterface -->
<g id="edge9" class="edge">
<title>Bartlett\\CompatInfoDb\\Application\\Command\\Release\\ReleaseCommand&#45;&gt;Bartlett\\CompatInfoDb\\Application\\Command\\CommandInterface</title>
<path fill="none" stroke="black" stroke-dasharray="5,2" d="M1178.69,-150.05C1375.5,-133.16 1626.56,-150.46 1773,-310 1813.08,-353.66 1752.34,-799.88 1793,-843 1861.92,-916.1 1983.48,-914.03 2068.95,-900.92"/>
<polygon fill="none" stroke="black" points="2069.61,-904.36 2078.93,-899.32 2068.5,-897.45 2069.61,-904.36"/>
</g>
<!-- Bartlett\\CompatInfoDb\\Application\\Command\\Release\\ReleaseHandler -->
<g id="node13" class="node">
<title>Bartlett\\CompatInfoDb\\Application\\Command\\Release\\ReleaseHandler</title>
<polygon fill="#fefece" stroke="transparent" points="1269,-108 512,-108 512,-16 1269,-16 1269,-108"/>
<polygon fill="#eeeeee" stroke="transparent" points="520.5,-70 520.5,-104 1261.5,-104 1261.5,-70 520.5,-70"/>
<polygon fill="none" stroke="black" points="520.5,-70 520.5,-104 1261.5,-104 1261.5,-70 520.5,-70"/>
<text text-anchor="start" x="827.5" y="-76.8" font-family="Times,serif" font-weight="bold" font-size="14.00">ReleaseHandler</text>
<polygon fill="none" stroke="black" points="520.5,-64 520.5,-70 1261.5,-70 1261.5,-64 520.5,-64"/>
<polygon fill="none" stroke="black" points="520.5,-20 520.5,-64 1261.5,-64 1261.5,-20 520.5,-20"/>
<text text-anchor="start" x="525.5" y="-47.8" font-family="Times,serif" font-size="14.00">+ __construct(jsonFileHandler : Bartlett\CompatInfoDb\Application\Service\JsonFileHandler)</text>
<text text-anchor="start" x="525.5" y="-28.8" font-family="Times,serif" font-size="14.00">+ __invoke(command : Bartlett\CompatInfoDb\Application\Command\Release\ReleaseCommand) : void</text>
</g>
<!-- Bartlett\\CompatInfoDb\\Application\\Command\\Release\\ReleaseHandler&#45;&gt;Bartlett\\CompatInfoDb\\Application\\Command\\CommandHandlerInterface -->
<g id="edge10" class="edge">
<title>Bartlett\\CompatInfoDb\\Application\\Command\\Release\\ReleaseHandler&#45;&gt;Bartlett\\CompatInfoDb\\Application\\Command\\CommandHandlerInterface</title>
<path fill="none" stroke="black" stroke-dasharray="5,2" d="M1269.17,-37.34C1475.71,-32.95 1703.42,-46.1 1773,-118 1823.48,-170.16 1743.39,-718.01 1793,-771 1853.37,-835.47 1954.65,-841.62 2036.38,-833.21"/>
<polygon fill="none" stroke="black" points="2037.21,-836.64 2046.76,-832.06 2036.43,-829.69 2037.21,-836.64"/>
</g>
</g>
</svg>
