<?xml version="1.0" encoding="UTF-8" standalone="no"?>
<!DOCTYPE svg PUBLIC "-//W3C//DTD SVG 1.1//EN"
 "http://www.w3.org/Graphics/SVG/1.1/DTD/svg11.dtd">
<!-- Generated by graphviz version 2.43.0 (0)
 -->
<!-- Title: %3 Pages: 1 -->
<svg width="604pt" height="155pt"
 viewBox="0.00 0.00 604.00 155.00" xmlns="http://www.w3.org/2000/svg" xmlns:xlink="http://www.w3.org/1999/xlink">
<g id="graph0" class="graph" transform="scale(1 1) rotate(0) translate(4 151)">
<title>%3</title>
<g id="clust1" class="cluster">
<title>cluster_0</title>
<polygon fill="#cdaa7d" stroke="black" points="8,-8 8,-139 588,-139 588,-8 8,-8"/>
<text text-anchor="middle" x="298" y="-123.8" font-family="Times,serif" font-size="14.00">Bartlett\CompatInfoDb\Application\Service</text>
</g>
<!-- Bartlett\\CompatInfoDb\\Application\\Service\\JsonFileHandler -->
<g id="node1" class="node">
<title>Bartlett\\CompatInfoDb\\Application\\Service\\JsonFileHandler</title>
<polygon fill="#fefece" stroke="transparent" points="580,-108 16,-108 16,-16 580,-16 580,-108"/>
<polygon fill="#eeeeee" stroke="transparent" points="24,-70 24,-104 572,-104 572,-70 24,-70"/>
<polygon fill="none" stroke="black" points="24,-70 24,-104 572,-104 572,-70 24,-70"/>
<text text-anchor="start" x="233.5" y="-76.8" font-family="Times,serif" font-weight="bold" font-size="14.00">JsonFileHandler</text>
<polygon fill="none" stroke="black" points="24,-64 24,-70 572,-70 572,-64 24,-64"/>
<polygon fill="none" stroke="black" points="24,-20 24,-64 572,-64 572,-20 24,-20"/>
<text text-anchor="start" x="29" y="-47.8" font-family="Times,serif" font-size="14.00">+ read(path : string, fileBasename : string, ver : string) : ?array</text>
<text text-anchor="start" x="29" y="-28.8" font-family="Times,serif" font-size="14.00">+ write(path : string, fileBasename : string, ver : string, data : array) : bool</text>
</g>
</g>
</svg>
