<?xml version="1.0" encoding="UTF-8" standalone="no"?>
<!DOCTYPE svg PUBLIC "-//W3C//DTD SVG 1.1//EN"
 "http://www.w3.org/Graphics/SVG/1.1/DTD/svg11.dtd">
<!-- Generated by graphviz version 2.43.0 (0)
 -->
<!-- Title: %3 Pages: 1 -->
<svg width="1988pt" height="928pt"
 viewBox="0.00 0.00 1988.00 928.00" xmlns="http://www.w3.org/2000/svg" xmlns:xlink="http://www.w3.org/1999/xlink">
<g id="graph0" class="graph" transform="scale(1 1) rotate(0) translate(4 924)">
<title>%3</title>
<g id="clust1" class="cluster">
<title>cluster_0</title>
<polygon fill="#cdaa7d" stroke="black" points="8,-771.5 8,-883.5 1220,-883.5 1220,-771.5 8,-771.5"/>
<text text-anchor="middle" x="614" y="-868.3" font-family="Times,serif" font-size="14.00">Bartlett\CompatInfoDb\Application\Event\Dispatcher</text>
</g>
<g id="clust2" class="cluster">
<title>cluster_1</title>
<polygon fill="transparent" stroke="black" points="451,-248 451,-735 1569,-735 1569,-248 451,-248"/>
<text text-anchor="middle" x="1010" y="-719.8" font-family="Times,serif" font-size="14.00">Symfony\Component\EventDispatcher</text>
</g>
<g id="clust3" class="cluster">
<title>cluster_2</title>
<polygon fill="transparent" stroke="black" points="560,-128 560,-240 1174,-240 1174,-128 560,-128"/>
<text text-anchor="middle" x="867" y="-224.8" font-family="Times,serif" font-size="14.00">Symfony\Contracts\EventDispatcher</text>
</g>
<g id="clust4" class="cluster">
<title>cluster_3</title>
<polygon fill="transparent" stroke="black" points="714,-8 714,-120 1020,-120 1020,-8 714,-8"/>
<text text-anchor="middle" x="867" y="-104.8" font-family="Times,serif" font-size="14.00">Psr\EventDispatcher</text>
</g>
<g id="clust5" class="cluster">
<title>cluster_4</title>
<polygon fill="#cdaa7d" stroke="black" points="1228,-743 1228,-912 1972,-912 1972,-743 1228,-743"/>
<text text-anchor="middle" x="1600" y="-896.8" font-family="Times,serif" font-size="14.00">Bartlett\CompatInfoDb\Application\Event\Subscriber</text>
</g>
<!-- Bartlett\\CompatInfoDb\\Application\\Event\\Dispatcher\\EventDispatcher -->
<g id="node1" class="node">
<title>Bartlett\\CompatInfoDb\\Application\\Event\\Dispatcher\\EventDispatcher</title>
<polygon fill="#fefece" stroke="transparent" points="1211.5,-852.5 16.5,-852.5 16.5,-779.5 1211.5,-779.5 1211.5,-852.5"/>
<polygon fill="#eeeeee" stroke="transparent" points="25,-814 25,-848 1204,-848 1204,-814 25,-814"/>
<polygon fill="none" stroke="black" points="25,-814 25,-848 1204,-848 1204,-814 25,-814"/>
<text text-anchor="start" x="548.5" y="-820.8" font-family="Times,serif" font-weight="bold" font-size="14.00">EventDispatcher</text>
<polygon fill="none" stroke="black" points="25,-808 25,-814 1204,-814 1204,-808 25,-808"/>
<polygon fill="none" stroke="black" points="25,-783 25,-808 1204,-808 1204,-783 25,-783"/>
<text text-anchor="start" x="30" y="-791.8" font-family="Times,serif" font-size="14.00">+ __construct(input : Symfony\Component\Console\Input\InputInterface, profileEventSubscriber : Symfony\Component\EventDispatcher\EventSubscriberInterface)</text>
</g>
<!-- Symfony\\Component\\EventDispatcher\\EventDispatcher -->
<g id="node2" class="node">
<title>Symfony\\Component\\EventDispatcher\\EventDispatcher</title>
<polygon fill="#fefece" stroke="transparent" points="1195,-704 459,-704 459,-479 1195,-479 1195,-704"/>
<polygon fill="#eeeeee" stroke="transparent" points="467,-665.5 467,-699.5 1187,-699.5 1187,-665.5 467,-665.5"/>
<polygon fill="none" stroke="black" points="467,-665.5 467,-699.5 1187,-699.5 1187,-665.5 467,-665.5"/>
<text text-anchor="start" x="761" y="-672.3" font-family="Times,serif" font-weight="bold" font-size="14.00">EventDispatcher</text>
<polygon fill="none" stroke="black" points="467,-659.5 467,-665.5 1187,-665.5 1187,-659.5 467,-659.5"/>
<polygon fill="none" stroke="black" points="467,-482.5 467,-659.5 1187,-659.5 1187,-482.5 467,-482.5"/>
<text text-anchor="start" x="472" y="-643.3" font-family="Times,serif" font-size="14.00">+ __construct()</text>
<text text-anchor="start" x="472" y="-624.3" font-family="Times,serif" font-size="14.00">+ dispatch(event : object, eventName : string = «unknown») : object</text>
<text text-anchor="start" x="472" y="-605.3" font-family="Times,serif" font-size="14.00">+ getListeners(eventName : string = «unknown»)</text>
<text text-anchor="start" x="472" y="-586.3" font-family="Times,serif" font-size="14.00">+ getListenerPriority(eventName : string, listener)</text>
<text text-anchor="start" x="472" y="-567.3" font-family="Times,serif" font-size="14.00">+ hasListeners(eventName : string = «unknown»)</text>
<text text-anchor="start" x="472" y="-548.3" font-family="Times,serif" font-size="14.00">+ addListener(eventName : string, listener, priority : int = 0)</text>
<text text-anchor="start" x="472" y="-529.3" font-family="Times,serif" font-size="14.00">+ removeListener(eventName : string, listener)</text>
<text text-anchor="start" x="472" y="-510.3" font-family="Times,serif" font-size="14.00">+ addSubscriber(subscriber : Symfony\Component\EventDispatcher\EventSubscriberInterface)</text>
<text text-anchor="start" x="472" y="-491.3" font-family="Times,serif" font-size="14.00">+ removeSubscriber(subscriber : Symfony\Component\EventDispatcher\EventSubscriberInterface)</text>
</g>
<!-- Bartlett\\CompatInfoDb\\Application\\Event\\Dispatcher\\EventDispatcher&#45;&gt;Symfony\\Component\\EventDispatcher\\EventDispatcher -->
<g id="edge4" class="edge">
<title>Bartlett\\CompatInfoDb\\Application\\Event\\Dispatcher\\EventDispatcher&#45;&gt;Symfony\\Component\\EventDispatcher\\EventDispatcher</title>
<path fill="none" stroke="black" d="M648.22,-779.25C666.2,-760.47 689.39,-736.25 713.07,-711.51"/>
<polygon fill="none" stroke="black" points="715.7,-713.82 720.09,-704.18 710.65,-708.98 715.7,-713.82"/>
</g>
<!-- Symfony\\Component\\EventDispatcher\\EventDispatcherInterface -->
<g id="node3" class="node">
<title>Symfony\\Component\\EventDispatcher\\EventDispatcherInterface</title>
<polygon fill="#fefece" stroke="transparent" points="1275,-443 459,-443 459,-256 1275,-256 1275,-443"/>
<polygon fill="#eeeeee" stroke="transparent" points="467,-404.5 467,-438.5 1267,-438.5 1267,-404.5 467,-404.5"/>
<polygon fill="none" stroke="black" points="467,-404.5 467,-438.5 1267,-438.5 1267,-404.5 467,-404.5"/>
<text text-anchor="start" x="822" y="-425.3" font-family="Times,serif" font-weight="bold" font-size="14.00">«interface»</text>
<text text-anchor="start" x="764.5" y="-411.3" font-family="Times,serif" font-weight="bold" font-size="14.00">EventDispatcherInterface</text>
<polygon fill="none" stroke="black" points="467,-398.5 467,-404.5 1267,-404.5 1267,-398.5 467,-398.5"/>
<polygon fill="none" stroke="black" points="467,-259.5 467,-398.5 1267,-398.5 1267,-259.5 467,-259.5"/>
<text text-anchor="start" x="472" y="-382.3" font-family="Times,serif" font-size="14.00">+ «abstract» addListener(eventName : string, listener : callable, priority : int = 0)</text>
<text text-anchor="start" x="472" y="-363.3" font-family="Times,serif" font-size="14.00">+ «abstract» addSubscriber(subscriber : Symfony\Component\EventDispatcher\EventSubscriberInterface)</text>
<text text-anchor="start" x="472" y="-344.3" font-family="Times,serif" font-size="14.00">+ «abstract» removeListener(eventName : string, listener : callable)</text>
<text text-anchor="start" x="472" y="-325.3" font-family="Times,serif" font-size="14.00">+ «abstract» removeSubscriber(subscriber : Symfony\Component\EventDispatcher\EventSubscriberInterface)</text>
<text text-anchor="start" x="472" y="-306.3" font-family="Times,serif" font-size="14.00">+ «abstract» getListeners(eventName : string = «unknown»)</text>
<text text-anchor="start" x="472" y="-287.3" font-family="Times,serif" font-size="14.00">+ «abstract» getListenerPriority(eventName : string, listener : callable)</text>
<text text-anchor="start" x="472" y="-268.3" font-family="Times,serif" font-size="14.00">+ «abstract» hasListeners(eventName : string = «unknown»)</text>
</g>
<!-- Symfony\\Component\\EventDispatcher\\EventDispatcher&#45;&gt;Symfony\\Component\\EventDispatcher\\EventDispatcherInterface -->
<g id="edge3" class="edge">
<title>Symfony\\Component\\EventDispatcher\\EventDispatcher&#45;&gt;Symfony\\Component\\EventDispatcher\\EventDispatcherInterface</title>
<path fill="none" stroke="black" stroke-dasharray="5,2" d="M845.59,-478.93C847.03,-470.31 848.48,-461.63 849.91,-453.07"/>
<polygon fill="none" stroke="black" points="853.38,-453.53 851.57,-443.09 846.47,-452.37 853.38,-453.53"/>
</g>
<!-- Symfony\\Contracts\\EventDispatcher\\EventDispatcherInterface -->
<g id="node5" class="node">
<title>Symfony\\Contracts\\EventDispatcher\\EventDispatcherInterface</title>
<polygon fill="#fefece" stroke="transparent" points="1165.5,-209 568.5,-209 568.5,-136 1165.5,-136 1165.5,-209"/>
<polygon fill="#eeeeee" stroke="transparent" points="577,-170.5 577,-204.5 1158,-204.5 1158,-170.5 577,-170.5"/>
<polygon fill="none" stroke="black" points="577,-170.5 577,-204.5 1158,-204.5 1158,-170.5 577,-170.5"/>
<text text-anchor="start" x="822.5" y="-191.3" font-family="Times,serif" font-weight="bold" font-size="14.00">«interface»</text>
<text text-anchor="start" x="765" y="-177.3" font-family="Times,serif" font-weight="bold" font-size="14.00">EventDispatcherInterface</text>
<polygon fill="none" stroke="black" points="577,-164.5 577,-170.5 1158,-170.5 1158,-164.5 577,-164.5"/>
<polygon fill="none" stroke="black" points="577,-139.5 577,-164.5 1158,-164.5 1158,-139.5 577,-139.5"/>
<text text-anchor="start" x="582" y="-148.3" font-family="Times,serif" font-size="14.00">+ «abstract» dispatch(event : object, eventName : string = «unknown») : object</text>
</g>
<!-- Symfony\\Component\\EventDispatcher\\EventDispatcherInterface&#45;&gt;Symfony\\Contracts\\EventDispatcher\\EventDispatcherInterface -->
<g id="edge2" class="edge">
<title>Symfony\\Component\\EventDispatcher\\EventDispatcherInterface&#45;&gt;Symfony\\Contracts\\EventDispatcher\\EventDispatcherInterface</title>
<path fill="none" stroke="black" stroke-dasharray="5,2" d="M867,-255.88C867,-243.2 867,-230.66 867,-219.34"/>
<polygon fill="none" stroke="black" points="870.5,-219.31 867,-209.31 863.5,-219.31 870.5,-219.31"/>
</g>
<!-- Symfony\\Component\\EventDispatcher\\EventSubscriberInterface -->
<g id="node4" class="node">
<title>Symfony\\Component\\EventDispatcher\\EventSubscriberInterface</title>
<polygon fill="#fefece" stroke="transparent" points="1561,-628 1213,-628 1213,-555 1561,-555 1561,-628"/>
<polygon fill="#eeeeee" stroke="transparent" points="1221,-589.5 1221,-623.5 1553,-623.5 1553,-589.5 1221,-589.5"/>
<polygon fill="none" stroke="black" points="1221,-589.5 1221,-623.5 1553,-623.5 1553,-589.5 1221,-589.5"/>
<text text-anchor="start" x="1342" y="-610.3" font-family="Times,serif" font-weight="bold" font-size="14.00">«interface»</text>
<text text-anchor="start" x="1285" y="-596.3" font-family="Times,serif" font-weight="bold" font-size="14.00">EventSubscriberInterface</text>
<polygon fill="none" stroke="black" points="1221,-583.5 1221,-589.5 1553,-589.5 1553,-583.5 1221,-583.5"/>
<polygon fill="none" stroke="black" points="1221,-558.5 1221,-583.5 1553,-583.5 1553,-558.5 1221,-558.5"/>
<text text-anchor="start" x="1226" y="-567.3" font-family="Times,serif" font-size="14.00">+ «abstract» «static» getSubscribedEvents()</text>
</g>
<!-- Psr\\EventDispatcher\\EventDispatcherInterface -->
<g id="node6" class="node">
<title>Psr\\EventDispatcher\\EventDispatcherInterface</title>
<polygon fill="#fefece" stroke="transparent" points="1012.5,-89 721.5,-89 721.5,-16 1012.5,-16 1012.5,-89"/>
<polygon fill="#eeeeee" stroke="transparent" points="730,-50.5 730,-84.5 1005,-84.5 1005,-50.5 730,-50.5"/>
<polygon fill="none" stroke="black" points="730,-50.5 730,-84.5 1005,-84.5 1005,-50.5 730,-50.5"/>
<text text-anchor="start" x="822.5" y="-71.3" font-family="Times,serif" font-weight="bold" font-size="14.00">«interface»</text>
<text text-anchor="start" x="765" y="-57.3" font-family="Times,serif" font-weight="bold" font-size="14.00">EventDispatcherInterface</text>
<polygon fill="none" stroke="black" points="730,-44.5 730,-50.5 1005,-50.5 1005,-44.5 730,-44.5"/>
<polygon fill="none" stroke="black" points="730,-19.5 730,-44.5 1005,-44.5 1005,-19.5 730,-19.5"/>
<text text-anchor="start" x="735" y="-28.3" font-family="Times,serif" font-size="14.00">+ «abstract» dispatch(event : object)</text>
</g>
<!-- Symfony\\Contracts\\EventDispatcher\\EventDispatcherInterface&#45;&gt;Psr\\EventDispatcher\\EventDispatcherInterface -->
<g id="edge1" class="edge">
<title>Symfony\\Contracts\\EventDispatcher\\EventDispatcherInterface&#45;&gt;Psr\\EventDispatcher\\EventDispatcherInterface</title>
<path fill="none" stroke="black" stroke-dasharray="5,2" d="M867,-135.78C867,-124.34 867,-111.51 867,-99.45"/>
<polygon fill="none" stroke="black" points="870.5,-99.1 867,-89.1 863.5,-99.1 870.5,-99.1"/>
</g>
<!-- Bartlett\\CompatInfoDb\\Application\\Event\\Subscriber\\ProfileEventSubscriber -->
<g id="node7" class="node">
<title>Bartlett\\CompatInfoDb\\Application\\Event\\Subscriber\\ProfileEventSubscriber</title>
<polygon fill="#fefece" stroke="transparent" points="1964,-881 1236,-881 1236,-751 1964,-751 1964,-881"/>
<polygon fill="#eeeeee" stroke="transparent" points="1244,-843 1244,-877 1956,-877 1956,-843 1244,-843"/>
<polygon fill="none" stroke="black" points="1244,-843 1244,-877 1956,-877 1956,-843 1244,-843"/>
<text text-anchor="start" x="1508.5" y="-849.8" font-family="Times,serif" font-weight="bold" font-size="14.00">ProfileEventSubscriber</text>
<polygon fill="none" stroke="black" points="1244,-837 1244,-843 1956,-843 1956,-837 1244,-837"/>
<polygon fill="none" stroke="black" points="1244,-755 1244,-837 1956,-837 1956,-755 1244,-755"/>
<text text-anchor="start" x="1249" y="-820.8" font-family="Times,serif" font-size="14.00">+ __construct(stopwatch : Symfony\Component\Stopwatch\Stopwatch)</text>
<text text-anchor="start" x="1249" y="-801.8" font-family="Times,serif" font-size="14.00">+ «static» getSubscribedEvents()</text>
<text text-anchor="start" x="1249" y="-782.8" font-family="Times,serif" font-size="14.00">+ onConsoleCommand(event : Symfony\Component\Console\Event\ConsoleCommandEvent) : void</text>
<text text-anchor="start" x="1249" y="-763.8" font-family="Times,serif" font-size="14.00">+ onConsoleTerminate(event : Symfony\Component\Console\Event\ConsoleTerminateEvent) : void</text>
</g>
<!-- Bartlett\\CompatInfoDb\\Application\\Event\\Subscriber\\ProfileEventSubscriber&#45;&gt;Symfony\\Component\\EventDispatcher\\EventSubscriberInterface -->
<g id="edge5" class="edge">
<title>Bartlett\\CompatInfoDb\\Application\\Event\\Subscriber\\ProfileEventSubscriber&#45;&gt;Symfony\\Component\\EventDispatcher\\EventSubscriberInterface</title>
<path fill="none" stroke="black" stroke-dasharray="5,2" d="M1538.68,-750.94C1503.29,-713.98 1459.74,-668.48 1428.4,-635.74"/>
<polygon fill="none" stroke="black" points="1430.55,-632.93 1421.1,-628.12 1425.49,-637.77 1430.55,-632.93"/>
</g>
</g>
</svg>
