<?xml version="1.0" encoding="UTF-8" standalone="no"?>
<!DOCTYPE svg PUBLIC "-//W3C//DTD SVG 1.1//EN"
 "http://www.w3.org/Graphics/SVG/1.1/DTD/svg11.dtd">
<!-- Generated by graphviz version 2.43.0 (0)
 -->
<!-- Title: %3 Pages: 1 -->
<svg width="2686pt" height="513pt"
 viewBox="0.00 0.00 2686.00 513.00" xmlns="http://www.w3.org/2000/svg" xmlns:xlink="http://www.w3.org/1999/xlink">
<g id="graph0" class="graph" transform="scale(1 1) rotate(0) translate(4 509)">
<title>%3</title>
<g id="clust1" class="cluster">
<title>cluster_0</title>
<polygon fill="#66cd00" stroke="black" points="240,-8 240,-121 712,-121 712,-8 240,-8"/>
<text text-anchor="middle" x="476" y="-105.8" font-family="Times,serif" font-size="14.00">Bartlett\CompatInfoDb\Infrastructure\Framework\Composer</text>
</g>
<g id="clust2" class="cluster">
<title>cluster_1</title>
<polygon fill="#66cd00" stroke="black" points="13,-129 13,-376 939,-376 939,-129 13,-129"/>
<text text-anchor="middle" x="476" y="-360.8" font-family="Times,serif" font-size="14.00">Bartlett\CompatInfoDb\Infrastructure\Framework\Symfony\DependencyInjection</text>
</g>
<g id="clust3" class="cluster">
<title>cluster_2</title>
<polygon fill="transparent" stroke="black" points="964,-226 964,-487 2670,-487 2670,-226 964,-226"/>
<text text-anchor="middle" x="1817" y="-471.8" font-family="Times,serif" font-size="14.00">Symfony\Component\DependencyInjection\Extension</text>
</g>
<g id="clust4" class="cluster">
<title>cluster_3</title>
<polygon fill="transparent" stroke="black" points="1213.5,-105 1213.5,-218 1517.5,-218 1517.5,-105 1213.5,-105"/>
<text text-anchor="middle" x="1365.5" y="-202.8" font-family="Times,serif" font-size="14.00">Symfony\Component\Config\Definition</text>
</g>
<g id="clust5" class="cluster">
<title>cluster_4</title>
<polygon fill="#66cd00" stroke="black" points="8,-384 8,-497 944,-497 944,-384 8,-384"/>
<text text-anchor="middle" x="476" y="-481.8" font-family="Times,serif" font-size="14.00">Bartlett\CompatInfoDb\Infrastructure\Framework\Symfony</text>
</g>
<!-- Bartlett\\CompatInfoDb\\Infrastructure\\Framework\\Composer\\InstalledVersions -->
<g id="node1" class="node">
<title>Bartlett\\CompatInfoDb\\Infrastructure\\Framework\\Composer\\InstalledVersions</title>
<polygon fill="#fefece" stroke="transparent" points="704,-89.5 248,-89.5 248,-16.5 704,-16.5 704,-89.5"/>
<polygon fill="#eeeeee" stroke="transparent" points="256,-51 256,-85 696,-85 696,-51 256,-51"/>
<polygon fill="none" stroke="black" points="256,-51 256,-85 696,-85 696,-51 256,-51"/>
<text text-anchor="start" x="406.5" y="-57.8" font-family="Times,serif" font-weight="bold" font-size="14.00">InstalledVersions</text>
<polygon fill="none" stroke="black" points="256,-45 256,-51 696,-51 696,-45 256,-45"/>
<polygon fill="none" stroke="black" points="256,-20 256,-45 696,-45 696,-20 256,-20"/>
<text text-anchor="start" x="261" y="-28.8" font-family="Times,serif" font-size="14.00">+ «static» getPrettyVersion(packageName : string) : ?string</text>
</g>
<!-- Bartlett\\CompatInfoDb\\Infrastructure\\Framework\\Symfony\\DependencyInjection\\CompatInfoDbExtension -->
<g id="node2" class="node">
<title>Bartlett\\CompatInfoDb\\Infrastructure\\Framework\\Symfony\\DependencyInjection\\CompatInfoDbExtension</title>
<polygon fill="#fefece" stroke="transparent" points="849.5,-345 102.5,-345 102.5,-253 849.5,-253 849.5,-345"/>
<polygon fill="#eeeeee" stroke="transparent" points="111,-307 111,-341 842,-341 842,-307 111,-307"/>
<polygon fill="none" stroke="black" points="111,-307 111,-341 842,-341 842,-307 111,-307"/>
<text text-anchor="start" x="380" y="-313.8" font-family="Times,serif" font-weight="bold" font-size="14.00">CompatInfoDbExtension</text>
<polygon fill="none" stroke="black" points="111,-301 111,-307 842,-307 842,-301 111,-301"/>
<polygon fill="none" stroke="black" points="111,-257 111,-301 842,-301 842,-257 111,-257"/>
<text text-anchor="start" x="116" y="-284.8" font-family="Times,serif" font-size="14.00">+ getNamespace() : string</text>
<text text-anchor="start" x="116" y="-265.8" font-family="Times,serif" font-size="14.00">+ load(configs : array, container : Symfony\Component\DependencyInjection\ContainerBuilder) : void</text>
</g>
<!-- Symfony\\Component\\DependencyInjection\\Extension\\Extension -->
<g id="node4" class="node">
<title>Symfony\\Component\\DependencyInjection\\Extension\\Extension</title>
<polygon fill="#fefece" stroke="transparent" points="1759,-382.5 972,-382.5 972,-233.5 1759,-233.5 1759,-382.5"/>
<polygon fill="#eeeeee" stroke="transparent" points="980.5,-344 980.5,-378 1751.5,-378 1751.5,-344 980.5,-344"/>
<polygon fill="none" stroke="black" points="980.5,-344 980.5,-378 1751.5,-378 1751.5,-344 980.5,-344"/>
<text text-anchor="start" x="1324" y="-364.8" font-family="Times,serif" font-weight="bold" font-size="14.00">«abstract»</text>
<text text-anchor="start" x="1326.5" y="-350.8" font-family="Times,serif" font-weight="bold" font-size="14.00">Extension</text>
<polygon fill="none" stroke="black" points="980.5,-338 980.5,-344 1751.5,-344 1751.5,-338 980.5,-338"/>
<polygon fill="none" stroke="black" points="980.5,-237 980.5,-338 1751.5,-338 1751.5,-237 980.5,-237"/>
<text text-anchor="start" x="985.5" y="-321.8" font-family="Times,serif" font-size="14.00">+ getXsdValidationBasePath()</text>
<text text-anchor="start" x="985.5" y="-302.8" font-family="Times,serif" font-size="14.00">+ getNamespace()</text>
<text text-anchor="start" x="985.5" y="-283.8" font-family="Times,serif" font-size="14.00">+ getAlias()</text>
<text text-anchor="start" x="985.5" y="-264.8" font-family="Times,serif" font-size="14.00">+ getConfiguration(config : array, container : Symfony\Component\DependencyInjection\ContainerBuilder)</text>
<text text-anchor="start" x="985.5" y="-245.8" font-family="Times,serif" font-size="14.00">+ getProcessedConfigs() : array</text>
</g>
<!-- Bartlett\\CompatInfoDb\\Infrastructure\\Framework\\Symfony\\DependencyInjection\\CompatInfoDbExtension&#45;&gt;Symfony\\Component\\DependencyInjection\\Extension\\Extension -->
<g id="edge3" class="edge">
<title>Bartlett\\CompatInfoDb\\Infrastructure\\Framework\\Symfony\\DependencyInjection\\CompatInfoDbExtension&#45;&gt;Symfony\\Component\\DependencyInjection\\Extension\\Extension</title>
<path fill="none" stroke="black" d="M849.52,-302.78C886.64,-303.15 924.45,-303.54 961.86,-303.92"/>
<polygon fill="none" stroke="black" points="961.85,-307.42 971.88,-304.02 961.92,-300.42 961.85,-307.42"/>
</g>
<!-- Bartlett\\CompatInfoDb\\Infrastructure\\Framework\\Symfony\\DependencyInjection\\Configuration -->
<g id="node3" class="node">
<title>Bartlett\\CompatInfoDb\\Infrastructure\\Framework\\Symfony\\DependencyInjection\\Configuration</title>
<polygon fill="#fefece" stroke="transparent" points="931,-235 21,-235 21,-137 931,-137 931,-235"/>
<polygon fill="#eeeeee" stroke="transparent" points="29,-197 29,-231 923,-231 923,-197 29,-197"/>
<polygon fill="none" stroke="black" points="29,-197 29,-231 923,-231 923,-197 29,-197"/>
<text text-anchor="start" x="421" y="-203.8" font-family="Times,serif" font-weight="bold" font-size="14.00">Configuration</text>
<polygon fill="none" stroke="black" points="29,-172 29,-197 923,-197 923,-172 29,-172"/>
<text text-anchor="start" x="34" y="-180.8" font-family="Times,serif" font-size="14.00">+ «static» DEFAULT_PROXY_DIR : string = &quot;\%kernel\.cache_dir\%\/php\&#45;compatinfo\&#45;db\/\%version\%\/proxies&quot; {readOnly}</text>
<polygon fill="none" stroke="black" points="29,-166 29,-172 923,-172 923,-166 29,-166"/>
<polygon fill="none" stroke="black" points="29,-141 29,-166 923,-166 923,-141 29,-141"/>
<text text-anchor="start" x="34" y="-149.8" font-family="Times,serif" font-size="14.00">+ getConfigTreeBuilder() : Symfony\Component\Config\Definition\Builder\TreeBuilder</text>
</g>
<!-- Symfony\\Component\\Config\\Definition\\ConfigurationInterface -->
<g id="node7" class="node">
<title>Symfony\\Component\\Config\\Definition\\ConfigurationInterface</title>
<polygon fill="#fefece" stroke="transparent" points="1509.5,-186.5 1221.5,-186.5 1221.5,-113.5 1509.5,-113.5 1509.5,-186.5"/>
<polygon fill="#eeeeee" stroke="transparent" points="1229.5,-148 1229.5,-182 1501.5,-182 1501.5,-148 1229.5,-148"/>
<polygon fill="none" stroke="black" points="1229.5,-148 1229.5,-182 1501.5,-182 1501.5,-148 1229.5,-148"/>
<text text-anchor="start" x="1320.5" y="-168.8" font-family="Times,serif" font-weight="bold" font-size="14.00">«interface»</text>
<text text-anchor="start" x="1274" y="-154.8" font-family="Times,serif" font-weight="bold" font-size="14.00">ConfigurationInterface</text>
<polygon fill="none" stroke="black" points="1229.5,-142 1229.5,-148 1501.5,-148 1501.5,-142 1229.5,-142"/>
<polygon fill="none" stroke="black" points="1229.5,-117 1229.5,-142 1501.5,-142 1501.5,-117 1229.5,-117"/>
<text text-anchor="start" x="1234.5" y="-125.8" font-family="Times,serif" font-size="14.00">+ «abstract» getConfigTreeBuilder()</text>
</g>
<!-- Bartlett\\CompatInfoDb\\Infrastructure\\Framework\\Symfony\\DependencyInjection\\Configuration&#45;&gt;Symfony\\Component\\Config\\Definition\\ConfigurationInterface -->
<g id="edge4" class="edge">
<title>Bartlett\\CompatInfoDb\\Infrastructure\\Framework\\Symfony\\DependencyInjection\\Configuration&#45;&gt;Symfony\\Component\\Config\\Definition\\ConfigurationInterface</title>
<path fill="none" stroke="black" stroke-dasharray="5,2" d="M931.15,-167.58C1031.96,-163.49 1132.06,-159.43 1210.61,-156.24"/>
<polygon fill="none" stroke="black" points="1211.21,-159.72 1221.06,-155.82 1210.93,-152.73 1211.21,-159.72"/>
</g>
<!-- Symfony\\Component\\DependencyInjection\\Extension\\ExtensionInterface -->
<g id="node5" class="node">
<title>Symfony\\Component\\DependencyInjection\\Extension\\ExtensionInterface</title>
<polygon fill="#fefece" stroke="transparent" points="2620.5,-364 1836.5,-364 1836.5,-234 2620.5,-234 2620.5,-364"/>
<polygon fill="#eeeeee" stroke="transparent" points="1844.5,-326 1844.5,-360 2612.5,-360 2612.5,-326 1844.5,-326"/>
<polygon fill="none" stroke="black" points="1844.5,-326 1844.5,-360 2612.5,-360 2612.5,-326 1844.5,-326"/>
<text text-anchor="start" x="2183.5" y="-346.8" font-family="Times,serif" font-weight="bold" font-size="14.00">«interface»</text>
<text text-anchor="start" x="2153" y="-332.8" font-family="Times,serif" font-weight="bold" font-size="14.00">ExtensionInterface</text>
<polygon fill="none" stroke="black" points="1844.5,-320 1844.5,-326 2612.5,-326 2612.5,-320 1844.5,-320"/>
<polygon fill="none" stroke="black" points="1844.5,-238 1844.5,-320 2612.5,-320 2612.5,-238 1844.5,-238"/>
<text text-anchor="start" x="1849.5" y="-303.8" font-family="Times,serif" font-size="14.00">+ «abstract» load(configs : array, container : Symfony\Component\DependencyInjection\ContainerBuilder)</text>
<text text-anchor="start" x="1849.5" y="-284.8" font-family="Times,serif" font-size="14.00">+ «abstract» getNamespace()</text>
<text text-anchor="start" x="1849.5" y="-265.8" font-family="Times,serif" font-size="14.00">+ «abstract» getXsdValidationBasePath()</text>
<text text-anchor="start" x="1849.5" y="-246.8" font-family="Times,serif" font-size="14.00">+ «abstract» getAlias()</text>
</g>
<!-- Symfony\\Component\\DependencyInjection\\Extension\\Extension&#45;&gt;Symfony\\Component\\DependencyInjection\\Extension\\ExtensionInterface -->
<g id="edge1" class="edge">
<title>Symfony\\Component\\DependencyInjection\\Extension\\Extension&#45;&gt;Symfony\\Component\\DependencyInjection\\Extension\\ExtensionInterface</title>
<path fill="none" stroke="black" stroke-dasharray="5,2" d="M1759.21,-303.9C1781.42,-303.66 1803.76,-303.43 1826.01,-303.2"/>
<polygon fill="none" stroke="black" points="1826.26,-306.69 1836.22,-303.09 1826.18,-299.69 1826.26,-306.69"/>
</g>
<!-- Symfony\\Component\\DependencyInjection\\Extension\\ConfigurationExtensionInterface -->
<g id="node6" class="node">
<title>Symfony\\Component\\DependencyInjection\\Extension\\ConfigurationExtensionInterface</title>
<polygon fill="#fefece" stroke="transparent" points="2662,-455.5 1795,-455.5 1795,-382.5 2662,-382.5 2662,-455.5"/>
<polygon fill="#eeeeee" stroke="transparent" points="1803.5,-417 1803.5,-451 2654.5,-451 2654.5,-417 1803.5,-417"/>
<polygon fill="none" stroke="black" points="1803.5,-417 1803.5,-451 2654.5,-451 2654.5,-417 1803.5,-417"/>
<text text-anchor="start" x="2184" y="-437.8" font-family="Times,serif" font-weight="bold" font-size="14.00">«interface»</text>
<text text-anchor="start" x="2098.5" y="-423.8" font-family="Times,serif" font-weight="bold" font-size="14.00">ConfigurationExtensionInterface</text>
<polygon fill="none" stroke="black" points="1803.5,-411 1803.5,-417 2654.5,-417 2654.5,-411 1803.5,-411"/>
<polygon fill="none" stroke="black" points="1803.5,-386 1803.5,-411 2654.5,-411 2654.5,-386 1803.5,-386"/>
<text text-anchor="start" x="1808.5" y="-394.8" font-family="Times,serif" font-size="14.00">+ «abstract» getConfiguration(config : array, container : Symfony\Component\DependencyInjection\ContainerBuilder)</text>
</g>
<!-- Symfony\\Component\\DependencyInjection\\Extension\\Extension&#45;&gt;Symfony\\Component\\DependencyInjection\\Extension\\ConfigurationExtensionInterface -->
<g id="edge2" class="edge">
<title>Symfony\\Component\\DependencyInjection\\Extension\\Extension&#45;&gt;Symfony\\Component\\DependencyInjection\\Extension\\ConfigurationExtensionInterface</title>
<path fill="none" stroke="black" stroke-dasharray="5,2" d="M1759.28,-368.29C1771.32,-369.91 1783.25,-371.48 1795,-373 1816.85,-375.82 1839.35,-378.59 1862.05,-381.29"/>
<polygon fill="none" stroke="black" points="1861.79,-384.79 1872.14,-382.49 1862.62,-377.84 1861.79,-384.79"/>
</g>
<!-- Bartlett\\CompatInfoDb\\Infrastructure\\Framework\\Symfony\\Polyfill -->
<g id="node8" class="node">
<title>Bartlett\\CompatInfoDb\\Infrastructure\\Framework\\Symfony\\Polyfill</title>
<polygon fill="#fefece" stroke="transparent" points="936,-465.5 16,-465.5 16,-392.5 936,-392.5 936,-465.5"/>
<polygon fill="#eeeeee" stroke="transparent" points="24,-427 24,-461 928,-461 928,-427 24,-427"/>
<polygon fill="none" stroke="black" points="24,-427 24,-461 928,-461 928,-427 24,-427"/>
<text text-anchor="start" x="448.5" y="-433.8" font-family="Times,serif" font-weight="bold" font-size="14.00">Polyfill</text>
<polygon fill="none" stroke="black" points="24,-421 24,-427 928,-427 928,-421 24,-421"/>
<polygon fill="none" stroke="black" points="24,-396 24,-421 928,-421 928,-396 24,-396"/>
<text text-anchor="start" x="29" y="-404.8" font-family="Times,serif" font-size="14.00">+ «static» service(serviceId : string) : Symfony\Component\DependencyInjection\Loader\Configurator\ReferenceConfigurator</text>
</g>
</g>
</svg>
