<?xml version="1.0" encoding="UTF-8" standalone="no"?>
<!DOCTYPE svg PUBLIC "-//W3C//DTD SVG 1.1//EN"
 "http://www.w3.org/Graphics/SVG/1.1/DTD/svg11.dtd">
<!-- Generated by graphviz version 2.43.0 (0)
 -->
<!-- Title: %3 Pages: 1 -->
<svg width="1941pt" height="2292pt"
 viewBox="0.00 0.00 1940.68 2292.00" xmlns="http://www.w3.org/2000/svg" xmlns:xlink="http://www.w3.org/1999/xlink">
<g id="graph0" class="graph" transform="scale(1 1) rotate(0) translate(4 2288)">
<title>%3</title>
<polygon fill="white" stroke="transparent" points="-4,4 -4,-2288 1936.68,-2288 1936.68,4 -4,4"/>
<!-- bartlett/php&#45;compatinfo&#45;db -->
<g id="node1" class="node">
<title>bartlett/php&#45;compatinfo&#45;db</title>
<ellipse fill="lightgrey" stroke="black" stroke-width="2" cx="135.84" cy="-1489" rx="135.68" ry="18"/>
<text text-anchor="middle" x="135.84" y="-1485.3" font-family="Times,serif" font-size="14.00">bartlett/php&#45;compatinfo&#45;db</text>
</g>
<!-- php -->
<g id="node2" class="node">
<title>php</title>
<path fill="#eeeeee" stroke="black" d="M1920.68,-1788C1920.68,-1788 1890.68,-1788 1890.68,-1788 1884.68,-1788 1878.68,-1782 1878.68,-1776 1878.68,-1776 1878.68,-1764 1878.68,-1764 1878.68,-1758 1884.68,-1752 1890.68,-1752 1890.68,-1752 1920.68,-1752 1920.68,-1752 1926.68,-1752 1932.68,-1758 1932.68,-1764 1932.68,-1764 1932.68,-1776 1932.68,-1776 1932.68,-1782 1926.68,-1788 1920.68,-1788"/>
<text text-anchor="middle" x="1905.68" y="-1766.3" font-family="Times,serif" font-size="14.00" fill="#314b5f">php</text>
</g>
<!-- bartlett/php&#45;compatinfo&#45;db&#45;&gt;php -->
<g id="edge1" class="edge">
<title>bartlett/php&#45;compatinfo&#45;db&#45;&gt;php</title>
<path fill="none" stroke="#1a2833" d="M138.33,-1507.18C146.91,-1607.6 193.01,-2093.77 289.68,-2202 355.73,-2275.95 402.02,-2273 501.18,-2273 501.18,-2273 501.18,-2273 1639.68,-2273 1750.81,-2273 1819.4,-2259.19 1860.68,-2156 1886.76,-2090.79 1899.52,-1876.23 1903.38,-1798.46"/>
<polygon fill="#1a2833" stroke="#1a2833" points="1906.9,-1798.17 1903.88,-1788.02 1899.9,-1797.84 1906.9,-1798.17"/>
<text text-anchor="middle" x="1005.68" y="-2276" font-family="Times,serif" font-size="10.00" fill="#767676">^8.1</text>
</g>
<!-- ext&#45;json -->
<g id="node3" class="node">
<title>ext&#45;json</title>
<path fill="#eeeeee" stroke="black" d="M526.68,-252C526.68,-252 477.68,-252 477.68,-252 471.68,-252 465.68,-246 465.68,-240 465.68,-240 465.68,-228 465.68,-228 465.68,-222 471.68,-216 477.68,-216 477.68,-216 526.68,-216 526.68,-216 532.68,-216 538.68,-222 538.68,-228 538.68,-228 538.68,-240 538.68,-240 538.68,-246 532.68,-252 526.68,-252"/>
<text text-anchor="middle" x="502.18" y="-230.3" font-family="Times,serif" font-size="14.00" fill="#314b5f">ext&#45;json</text>
</g>
<!-- bartlett/php&#45;compatinfo&#45;db&#45;&gt;ext&#45;json -->
<g id="edge2" class="edge">
<title>bartlett/php&#45;compatinfo&#45;db&#45;&gt;ext&#45;json</title>
<path fill="none" stroke="#1a2833" d="M137.82,-1470.89C145.79,-1326.12 202.11,-360.08 289.68,-269 331.97,-225.01 406.85,-223.01 455.23,-227.26"/>
<polygon fill="#1a2833" stroke="#1a2833" points="455.12,-230.77 465.42,-228.28 455.82,-223.8 455.12,-230.77"/>
<text text-anchor="middle" x="319.18" y="-272" font-family="Times,serif" font-size="10.00" fill="#767676">*</text>
</g>
<!-- ext&#45;pcre -->
<g id="node4" class="node">
<title>ext&#45;pcre</title>
<path fill="#eeeeee" stroke="black" d="M527.68,-198C527.68,-198 476.68,-198 476.68,-198 470.68,-198 464.68,-192 464.68,-186 464.68,-186 464.68,-174 464.68,-174 464.68,-168 470.68,-162 476.68,-162 476.68,-162 527.68,-162 527.68,-162 533.68,-162 539.68,-168 539.68,-174 539.68,-174 539.68,-186 539.68,-186 539.68,-192 533.68,-198 527.68,-198"/>
<text text-anchor="middle" x="502.18" y="-176.3" font-family="Times,serif" font-size="14.00" fill="#314b5f">ext&#45;pcre</text>
</g>
<!-- bartlett/php&#45;compatinfo&#45;db&#45;&gt;ext&#45;pcre -->
<g id="edge3" class="edge">
<title>bartlett/php&#45;compatinfo&#45;db&#45;&gt;ext&#45;pcre</title>
<path fill="none" stroke="#1a2833" d="M137.75,-1470.65C145.35,-1321.88 199.88,-316.03 289.68,-220 331.29,-175.5 405.68,-171.46 454.22,-174.39"/>
<polygon fill="#1a2833" stroke="#1a2833" points="454.24,-177.9 464.47,-175.13 454.75,-170.92 454.24,-177.9"/>
<text text-anchor="middle" x="319.18" y="-223" font-family="Times,serif" font-size="10.00" fill="#767676">*</text>
</g>
<!-- ext&#45;pdo -->
<g id="node5" class="node">
<title>ext&#45;pdo</title>
<path fill="#eeeeee" stroke="black" d="M525.18,-144C525.18,-144 479.18,-144 479.18,-144 473.18,-144 467.18,-138 467.18,-132 467.18,-132 467.18,-120 467.18,-120 467.18,-114 473.18,-108 479.18,-108 479.18,-108 525.18,-108 525.18,-108 531.18,-108 537.18,-114 537.18,-120 537.18,-120 537.18,-132 537.18,-132 537.18,-138 531.18,-144 525.18,-144"/>
<text text-anchor="middle" x="502.18" y="-122.3" font-family="Times,serif" font-size="14.00" fill="#314b5f">ext&#45;pdo</text>
</g>
<!-- bartlett/php&#45;compatinfo&#45;db&#45;&gt;ext&#45;pdo -->
<g id="edge4" class="edge">
<title>bartlett/php&#45;compatinfo&#45;db&#45;&gt;ext&#45;pdo</title>
<path fill="none" stroke="#1a2833" d="M137.68,-1470.92C144.87,-1319.93 197.95,-271.59 289.68,-170 331.47,-123.71 408.22,-118.99 456.87,-121.37"/>
<polygon fill="#1a2833" stroke="#1a2833" points="456.9,-124.88 467.1,-121.99 457.33,-117.89 456.9,-124.88"/>
<text text-anchor="middle" x="319.18" y="-173" font-family="Times,serif" font-size="10.00" fill="#767676">*</text>
</g>
<!-- ext&#45;phar -->
<g id="node6" class="node">
<title>ext&#45;phar</title>
<path fill="#eeeeee" stroke="black" d="M528.68,-90C528.68,-90 475.68,-90 475.68,-90 469.68,-90 463.68,-84 463.68,-78 463.68,-78 463.68,-66 463.68,-66 463.68,-60 469.68,-54 475.68,-54 475.68,-54 528.68,-54 528.68,-54 534.68,-54 540.68,-60 540.68,-66 540.68,-66 540.68,-78 540.68,-78 540.68,-84 534.68,-90 528.68,-90"/>
<text text-anchor="middle" x="502.18" y="-68.3" font-family="Times,serif" font-size="14.00" fill="#314b5f">ext&#45;phar</text>
</g>
<!-- bartlett/php&#45;compatinfo&#45;db&#45;&gt;ext&#45;phar -->
<g id="edge5" class="edge">
<title>bartlett/php&#45;compatinfo&#45;db&#45;&gt;ext&#45;phar</title>
<path fill="none" stroke="#1a2833" d="M137.63,-1470.72C144.47,-1315.75 195.82,-225.02 289.68,-118 330.04,-71.97 404.68,-65.9 453.63,-67.57"/>
<polygon fill="#1a2833" stroke="#1a2833" points="453.51,-71.06 463.66,-68.03 453.83,-64.07 453.51,-71.06"/>
<text text-anchor="middle" x="319.18" y="-121" font-family="Times,serif" font-size="10.00" fill="#767676">*</text>
</g>
<!-- ext&#45;spl -->
<g id="node7" class="node">
<title>ext&#45;spl</title>
<path fill="#eeeeee" stroke="black" d="M522.68,-36C522.68,-36 481.68,-36 481.68,-36 475.68,-36 469.68,-30 469.68,-24 469.68,-24 469.68,-12 469.68,-12 469.68,-6 475.68,0 481.68,0 481.68,0 522.68,0 522.68,0 528.68,0 534.68,-6 534.68,-12 534.68,-12 534.68,-24 534.68,-24 534.68,-30 528.68,-36 522.68,-36"/>
<text text-anchor="middle" x="502.18" y="-14.3" font-family="Times,serif" font-size="14.00" fill="#314b5f">ext&#45;spl</text>
</g>
<!-- bartlett/php&#45;compatinfo&#45;db&#45;&gt;ext&#45;spl -->
<g id="edge6" class="edge">
<title>bartlett/php&#45;compatinfo&#45;db&#45;&gt;ext&#45;spl</title>
<path fill="none" stroke="#1a2833" d="M137.58,-1470.55C144.09,-1311.75 193.78,-178.52 289.68,-66 331.09,-17.41 410.42,-12.13 459.28,-14.1"/>
<polygon fill="#1a2833" stroke="#1a2833" points="459.35,-17.61 469.52,-14.64 459.71,-10.62 459.35,-17.61"/>
<text text-anchor="middle" x="319.18" y="-69" font-family="Times,serif" font-size="10.00" fill="#767676">*</text>
</g>
<!-- composer&#45;runtime&#45;api -->
<g id="node8" class="node">
<title>composer&#45;runtime&#45;api</title>
<path fill="#eeeeee" stroke="black" d="M1080.18,-980C1080.18,-980 931.18,-980 931.18,-980 925.18,-980 919.18,-974 919.18,-968 919.18,-968 919.18,-956 919.18,-956 919.18,-950 925.18,-944 931.18,-944 931.18,-944 1080.18,-944 1080.18,-944 1086.18,-944 1092.18,-950 1092.18,-956 1092.18,-956 1092.18,-968 1092.18,-968 1092.18,-974 1086.18,-980 1080.18,-980"/>
<text text-anchor="middle" x="1005.68" y="-958.3" font-family="Times,serif" font-size="14.00" fill="#314b5f">composer&#45;runtime&#45;api</text>
</g>
<!-- bartlett/php&#45;compatinfo&#45;db&#45;&gt;composer&#45;runtime&#45;api -->
<g id="edge7" class="edge">
<title>bartlett/php&#45;compatinfo&#45;db&#45;&gt;composer&#45;runtime&#45;api</title>
<path fill="none" stroke="#1a2833" d="M138.81,-1470.97C147.98,-1396.84 193.66,-1113.92 366.68,-997 452.57,-938.96 753.1,-947.01 909.08,-955.59"/>
<polygon fill="#1a2833" stroke="#1a2833" points="908.97,-959.08 919.15,-956.15 909.36,-952.1 908.97,-959.08"/>
<text text-anchor="middle" x="502.18" y="-1000" font-family="Times,serif" font-size="10.00" fill="#767676">^2.0</text>
</g>
<!-- composer/semver -->
<g id="node9" class="node">
<title>composer/semver</title>
<path fill="#eeeeee" stroke="black" d="M832.18,-2219C832.18,-2219 668.18,-2219 668.18,-2219 662.18,-2219 656.18,-2213 656.18,-2207 656.18,-2207 656.18,-2195 656.18,-2195 656.18,-2189 662.18,-2183 668.18,-2183 668.18,-2183 832.18,-2183 832.18,-2183 838.18,-2183 844.18,-2189 844.18,-2195 844.18,-2195 844.18,-2207 844.18,-2207 844.18,-2213 838.18,-2219 832.18,-2219"/>
<text text-anchor="middle" x="750.18" y="-2197.3" font-family="Times,serif" font-size="14.00" fill="#314b5f">composer/semver: 3.4.3</text>
</g>
<!-- bartlett/php&#45;compatinfo&#45;db&#45;&gt;composer/semver -->
<g id="edge9" class="edge">
<title>bartlett/php&#45;compatinfo&#45;db&#45;&gt;composer/semver</title>
<path fill="none" stroke="#1a2833" d="M138.28,-1507.12C146.36,-1603.97 189.36,-2059.59 289.68,-2149 386.11,-2234.94 542.83,-2233.4 645.96,-2220.39"/>
<polygon fill="#1a2833" stroke="#1a2833" points="646.63,-2223.83 656.08,-2219.05 645.71,-2216.89 646.63,-2223.83"/>
<text text-anchor="middle" x="319.18" y="-2190" font-family="Times,serif" font-size="10.00" fill="#767676">^3.0</text>
</g>
<!-- doctrine/orm -->
<g id="node10" class="node">
<title>doctrine/orm</title>
<path fill="#eeeeee" stroke="black" d="M567.18,-670C567.18,-670 437.18,-670 437.18,-670 431.18,-670 425.18,-664 425.18,-658 425.18,-658 425.18,-646 425.18,-646 425.18,-640 431.18,-634 437.18,-634 437.18,-634 567.18,-634 567.18,-634 573.18,-634 579.18,-640 579.18,-646 579.18,-646 579.18,-658 579.18,-658 579.18,-664 573.18,-670 567.18,-670"/>
<text text-anchor="middle" x="502.18" y="-648.3" font-family="Times,serif" font-size="14.00" fill="#314b5f">doctrine/orm: 3.5.0</text>
</g>
<!-- bartlett/php&#45;compatinfo&#45;db&#45;&gt;doctrine/orm -->
<g id="edge24" class="edge">
<title>bartlett/php&#45;compatinfo&#45;db&#45;&gt;doctrine/orm</title>
<path fill="none" stroke="#1a2833" d="M139.45,-1470.54C150.08,-1398.93 194.18,-1133.86 289.68,-938 341.34,-832.05 433.54,-725.1 477.11,-677.54"/>
<polygon fill="#1a2833" stroke="#1a2833" points="479.71,-679.88 483.92,-670.16 474.56,-675.14 479.71,-679.88"/>
<text text-anchor="middle" x="319.18" y="-941" font-family="Times,serif" font-size="10.00" fill="#767676">^3.3</text>
</g>
<!-- doctrine/dbal -->
<g id="node12" class="node">
<title>doctrine/dbal</title>
<path fill="#eeeeee" stroke="black" d="M1071.68,-308C1071.68,-308 939.68,-308 939.68,-308 933.68,-308 927.68,-302 927.68,-296 927.68,-296 927.68,-284 927.68,-284 927.68,-278 933.68,-272 939.68,-272 939.68,-272 1071.68,-272 1071.68,-272 1077.68,-272 1083.68,-278 1083.68,-284 1083.68,-284 1083.68,-296 1083.68,-296 1083.68,-302 1077.68,-308 1071.68,-308"/>
<text text-anchor="middle" x="1005.68" y="-286.3" font-family="Times,serif" font-size="14.00" fill="#314b5f">doctrine/dbal: 4.2.4</text>
</g>
<!-- bartlett/php&#45;compatinfo&#45;db&#45;&gt;doctrine/dbal -->
<g id="edge25" class="edge">
<title>bartlett/php&#45;compatinfo&#45;db&#45;&gt;doctrine/dbal</title>
<path fill="none" stroke="#1a2833" d="M137.67,-1470.78C144.14,-1338.45 190.78,-525.63 366.68,-374 407.68,-338.65 752.29,-308.68 917.29,-296.2"/>
<polygon fill="#1a2833" stroke="#1a2833" points="917.7,-299.68 927.41,-295.44 917.18,-292.7 917.7,-299.68"/>
<text text-anchor="middle" x="502.18" y="-377" font-family="Times,serif" font-size="10.00" fill="#767676">^4.0</text>
</g>
<!-- symfony/console -->
<g id="node21" class="node">
<title>symfony/console</title>
<path fill="#eeeeee" stroke="black" d="M1087.68,-362C1087.68,-362 923.68,-362 923.68,-362 917.68,-362 911.68,-356 911.68,-350 911.68,-350 911.68,-338 911.68,-338 911.68,-332 917.68,-326 923.68,-326 923.68,-326 1087.68,-326 1087.68,-326 1093.68,-326 1099.68,-332 1099.68,-338 1099.68,-338 1099.68,-350 1099.68,-350 1099.68,-356 1093.68,-362 1087.68,-362"/>
<text text-anchor="middle" x="1005.68" y="-340.3" font-family="Times,serif" font-size="14.00" fill="#314b5f">symfony/console: v7.3.1</text>
</g>
<!-- bartlett/php&#45;compatinfo&#45;db&#45;&gt;symfony/console -->
<g id="edge41" class="edge">
<title>bartlett/php&#45;compatinfo&#45;db&#45;&gt;symfony/console</title>
<path fill="none" stroke="#1a2833" d="M137.12,-1470.75C139.46,-1373.3 161.41,-907.91 366.68,-614 461.15,-478.73 503.21,-444.04 655.68,-381 678.02,-371.76 806.81,-359.76 901.46,-351.97"/>
<polygon fill="#1a2833" stroke="#1a2833" points="901.99,-355.44 911.67,-351.13 901.41,-348.46 901.99,-355.44"/>
<text text-anchor="middle" x="502.18" y="-617" font-family="Times,serif" font-size="10.00" fill="#767676">^6.4 || ^7.0</text>
</g>
<!-- psr/log -->
<g id="node23" class="node">
<title>psr/log</title>
<path fill="#eeeeee" stroke="black" d="M1682.18,-2098C1682.18,-2098 1595.18,-2098 1595.18,-2098 1589.18,-2098 1583.18,-2092 1583.18,-2086 1583.18,-2086 1583.18,-2074 1583.18,-2074 1583.18,-2068 1589.18,-2062 1595.18,-2062 1595.18,-2062 1682.18,-2062 1682.18,-2062 1688.18,-2062 1694.18,-2068 1694.18,-2074 1694.18,-2074 1694.18,-2086 1694.18,-2086 1694.18,-2092 1688.18,-2098 1682.18,-2098"/>
<text text-anchor="middle" x="1638.68" y="-2076.3" font-family="Times,serif" font-size="14.00" fill="#314b5f">psr/log: 3.0.2</text>
</g>
<!-- bartlett/php&#45;compatinfo&#45;db&#45;&gt;psr/log -->
<g id="edge27" class="edge">
<title>bartlett/php&#45;compatinfo&#45;db&#45;&gt;psr/log</title>
<path fill="none" stroke="#1a2833" d="M137.53,-1507.08C141.68,-1586.71 170.52,-1906.25 366.68,-2000 583.03,-2103.41 1345.27,-2089.01 1572.98,-2082.21"/>
<polygon fill="#1a2833" stroke="#1a2833" points="1573.2,-2085.7 1583.09,-2081.9 1572.99,-2078.7 1573.2,-2085.7"/>
<text text-anchor="middle" x="750.18" y="-2080" font-family="Times,serif" font-size="10.00" fill="#767676">^3.0</text>
</g>
<!-- symfony/cache -->
<g id="node24" class="node">
<title>symfony/cache</title>
<path fill="#eeeeee" stroke="black" d="M1081.18,-1598C1081.18,-1598 930.18,-1598 930.18,-1598 924.18,-1598 918.18,-1592 918.18,-1586 918.18,-1586 918.18,-1574 918.18,-1574 918.18,-1568 924.18,-1562 930.18,-1562 930.18,-1562 1081.18,-1562 1081.18,-1562 1087.18,-1562 1093.18,-1568 1093.18,-1574 1093.18,-1574 1093.18,-1586 1093.18,-1586 1093.18,-1592 1087.18,-1598 1081.18,-1598"/>
<text text-anchor="middle" x="1005.68" y="-1576.3" font-family="Times,serif" font-size="14.00" fill="#314b5f">symfony/cache: v7.3.1</text>
</g>
<!-- bartlett/php&#45;compatinfo&#45;db&#45;&gt;symfony/cache -->
<g id="edge35" class="edge">
<title>bartlett/php&#45;compatinfo&#45;db&#45;&gt;symfony/cache</title>
<path fill="none" stroke="#1a2833" d="M244.8,-1499.82C383.63,-1513.81 632.18,-1539.09 844.68,-1562 865.1,-1564.2 886.98,-1566.62 907.79,-1568.95"/>
<polygon fill="#1a2833" stroke="#1a2833" points="907.59,-1572.45 917.92,-1570.09 908.37,-1565.5 907.59,-1572.45"/>
<text text-anchor="middle" x="502.18" y="-1542" font-family="Times,serif" font-size="10.00" fill="#767676">^6.4 || ^7.0</text>
</g>
<!-- symfony/config -->
<g id="node28" class="node">
<title>symfony/config</title>
<path fill="#eeeeee" stroke="black" d="M1082.18,-1497C1082.18,-1497 929.18,-1497 929.18,-1497 923.18,-1497 917.18,-1491 917.18,-1485 917.18,-1485 917.18,-1473 917.18,-1473 917.18,-1467 923.18,-1461 929.18,-1461 929.18,-1461 1082.18,-1461 1082.18,-1461 1088.18,-1461 1094.18,-1467 1094.18,-1473 1094.18,-1473 1094.18,-1485 1094.18,-1485 1094.18,-1491 1088.18,-1497 1082.18,-1497"/>
<text text-anchor="middle" x="1005.68" y="-1475.3" font-family="Times,serif" font-size="14.00" fill="#314b5f">symfony/config: v7.3.0</text>
</g>
<!-- bartlett/php&#45;compatinfo&#45;db&#45;&gt;symfony/config -->
<g id="edge40" class="edge">
<title>bartlett/php&#45;compatinfo&#45;db&#45;&gt;symfony/config</title>
<path fill="none" stroke="#1a2833" d="M271.49,-1487.45C447.47,-1485.42 751.49,-1481.92 906.96,-1480.13"/>
<polygon fill="#1a2833" stroke="#1a2833" points="907.02,-1483.63 916.98,-1480.01 906.94,-1476.63 907.02,-1483.63"/>
<text text-anchor="middle" x="502.18" y="-1489" font-family="Times,serif" font-size="10.00" fill="#767676">^6.4 || ^7.0</text>
</g>
<!-- symfony/dependency&#45;injection -->
<g id="node31" class="node">
<title>symfony/dependency&#45;injection</title>
<path fill="#eeeeee" stroke="black" d="M1136.68,-1072C1136.68,-1072 874.68,-1072 874.68,-1072 868.68,-1072 862.68,-1066 862.68,-1060 862.68,-1060 862.68,-1048 862.68,-1048 862.68,-1042 868.68,-1036 874.68,-1036 874.68,-1036 1136.68,-1036 1136.68,-1036 1142.68,-1036 1148.68,-1042 1148.68,-1048 1148.68,-1048 1148.68,-1060 1148.68,-1060 1148.68,-1066 1142.68,-1072 1136.68,-1072"/>
<text text-anchor="middle" x="1005.68" y="-1050.3" font-family="Times,serif" font-size="14.00" fill="#314b5f">symfony/dependency&#45;injection: v7.3.1</text>
</g>
<!-- bartlett/php&#45;compatinfo&#45;db&#45;&gt;symfony/dependency&#45;injection -->
<g id="edge47" class="edge">
<title>bartlett/php&#45;compatinfo&#45;db&#45;&gt;symfony/dependency&#45;injection</title>
<path fill="none" stroke="#1a2833" d="M148.39,-1470.92C197.87,-1395.42 401.05,-1104.48 655.68,-1004 757.36,-963.87 887.03,-1004.07 956.14,-1032.05"/>
<polygon fill="#1a2833" stroke="#1a2833" points="954.91,-1035.32 965.49,-1035.9 957.58,-1028.85 954.91,-1035.32"/>
<text text-anchor="middle" x="502.18" y="-1205" font-family="Times,serif" font-size="10.00" fill="#767676">^6.4 || ^7.0</text>
</g>
<!-- symfony/event&#45;dispatcher -->
<g id="node33" class="node">
<title>symfony/event&#45;dispatcher</title>
<path fill="#eeeeee" stroke="black" d="M1120.68,-1760C1120.68,-1760 890.68,-1760 890.68,-1760 884.68,-1760 878.68,-1754 878.68,-1748 878.68,-1748 878.68,-1736 878.68,-1736 878.68,-1730 884.68,-1724 890.68,-1724 890.68,-1724 1120.68,-1724 1120.68,-1724 1126.68,-1724 1132.68,-1730 1132.68,-1736 1132.68,-1736 1132.68,-1748 1132.68,-1748 1132.68,-1754 1126.68,-1760 1120.68,-1760"/>
<text text-anchor="middle" x="1005.68" y="-1738.3" font-family="Times,serif" font-size="14.00" fill="#314b5f">symfony/event&#45;dispatcher: v7.3.0</text>
</g>
<!-- bartlett/php&#45;compatinfo&#45;db&#45;&gt;symfony/event&#45;dispatcher -->
<g id="edge50" class="edge">
<title>bartlett/php&#45;compatinfo&#45;db&#45;&gt;symfony/event&#45;dispatcher</title>
<path fill="none" stroke="#1a2833" d="M148.96,-1506.97C179.45,-1550.45 264.31,-1660.98 366.68,-1705 453.63,-1742.4 708.1,-1746.38 868.15,-1744.88"/>
<polygon fill="#1a2833" stroke="#1a2833" points="868.59,-1748.37 878.56,-1744.77 868.52,-1741.37 868.59,-1748.37"/>
<text text-anchor="middle" x="502.18" y="-1744" font-family="Times,serif" font-size="10.00" fill="#767676">^6.4 || ^7.0</text>
</g>
<!-- symfony/finder -->
<g id="node35" class="node">
<title>symfony/finder</title>
<path fill="#eeeeee" stroke="black" d="M1081.68,-1652C1081.68,-1652 929.68,-1652 929.68,-1652 923.68,-1652 917.68,-1646 917.68,-1640 917.68,-1640 917.68,-1628 917.68,-1628 917.68,-1622 923.68,-1616 929.68,-1616 929.68,-1616 1081.68,-1616 1081.68,-1616 1087.68,-1616 1093.68,-1622 1093.68,-1628 1093.68,-1628 1093.68,-1640 1093.68,-1640 1093.68,-1646 1087.68,-1652 1081.68,-1652"/>
<text text-anchor="middle" x="1005.68" y="-1630.3" font-family="Times,serif" font-size="14.00" fill="#314b5f">symfony/finder: v7.3.0</text>
</g>
<!-- bartlett/php&#45;compatinfo&#45;db&#45;&gt;symfony/finder -->
<g id="edge52" class="edge">
<title>bartlett/php&#45;compatinfo&#45;db&#45;&gt;symfony/finder</title>
<path fill="none" stroke="#1a2833" d="M192.92,-1505.34C239.38,-1518.76 307.19,-1538.08 366.68,-1554 494.65,-1588.25 524.38,-1609.34 655.68,-1627 740.11,-1638.36 837.06,-1639.35 907.32,-1637.94"/>
<polygon fill="#1a2833" stroke="#1a2833" points="907.56,-1641.44 917.48,-1637.72 907.41,-1634.44 907.56,-1641.44"/>
<text text-anchor="middle" x="502.18" y="-1627" font-family="Times,serif" font-size="10.00" fill="#767676">^6.4 || ^7.0</text>
</g>
<!-- symfony/http&#45;client -->
<g id="node36" class="node">
<title>symfony/http&#45;client</title>
<path fill="#eeeeee" stroke="black" d="M1098.18,-2153C1098.18,-2153 913.18,-2153 913.18,-2153 907.18,-2153 901.18,-2147 901.18,-2141 901.18,-2141 901.18,-2129 901.18,-2129 901.18,-2123 907.18,-2117 913.18,-2117 913.18,-2117 1098.18,-2117 1098.18,-2117 1104.18,-2117 1110.18,-2123 1110.18,-2129 1110.18,-2129 1110.18,-2141 1110.18,-2141 1110.18,-2147 1104.18,-2153 1098.18,-2153"/>
<text text-anchor="middle" x="1005.68" y="-2131.3" font-family="Times,serif" font-size="14.00" fill="#314b5f">symfony/http&#45;client: v7.3.1</text>
</g>
<!-- bartlett/php&#45;compatinfo&#45;db&#45;&gt;symfony/http&#45;client -->
<g id="edge58" class="edge">
<title>bartlett/php&#45;compatinfo&#45;db&#45;&gt;symfony/http&#45;client</title>
<path fill="none" stroke="#1a2833" d="M138.5,-1507.19C147.44,-1600.48 192.97,-2023.87 289.68,-2103 378.64,-2175.8 712.53,-2160.08 890.81,-2145.77"/>
<polygon fill="#1a2833" stroke="#1a2833" points="891.33,-2149.24 901.02,-2144.94 890.76,-2142.26 891.33,-2149.24"/>
<text text-anchor="middle" x="502.18" y="-2160" font-family="Times,serif" font-size="10.00" fill="#767676">^6.4 || ^7.0</text>
</g>
<!-- symfony/messenger -->
<g id="node38" class="node">
<title>symfony/messenger</title>
<path fill="#eeeeee" stroke="black" d="M1099.68,-1946C1099.68,-1946 911.68,-1946 911.68,-1946 905.68,-1946 899.68,-1940 899.68,-1934 899.68,-1934 899.68,-1922 899.68,-1922 899.68,-1916 905.68,-1910 911.68,-1910 911.68,-1910 1099.68,-1910 1099.68,-1910 1105.68,-1910 1111.68,-1916 1111.68,-1922 1111.68,-1922 1111.68,-1934 1111.68,-1934 1111.68,-1940 1105.68,-1946 1099.68,-1946"/>
<text text-anchor="middle" x="1005.68" y="-1924.3" font-family="Times,serif" font-size="14.00" fill="#314b5f">symfony/messenger: v7.3.1</text>
</g>
<!-- bartlett/php&#45;compatinfo&#45;db&#45;&gt;symfony/messenger -->
<g id="edge63" class="edge">
<title>bartlett/php&#45;compatinfo&#45;db&#45;&gt;symfony/messenger</title>
<path fill="none" stroke="#1a2833" d="M137.26,-1507.05C139.87,-1572.06 158.42,-1795.38 289.68,-1891 482.83,-2031.71 789.14,-1981.94 929.7,-1948.43"/>
<polygon fill="#1a2833" stroke="#1a2833" points="930.63,-1951.8 939.53,-1946.05 928.98,-1945 930.63,-1951.8"/>
<text text-anchor="middle" x="502.18" y="-1988" font-family="Times,serif" font-size="10.00" fill="#767676">^6.4 || ^7.0</text>
</g>
<!-- symfony/polyfill&#45;php84 -->
<g id="node40" class="node">
<title>symfony/polyfill&#45;php84</title>
<path fill="#eeeeee" stroke="black" d="M1420.68,-1913C1420.68,-1913 1203.68,-1913 1203.68,-1913 1197.68,-1913 1191.68,-1907 1191.68,-1901 1191.68,-1901 1191.68,-1889 1191.68,-1889 1191.68,-1883 1197.68,-1877 1203.68,-1877 1203.68,-1877 1420.68,-1877 1420.68,-1877 1426.68,-1877 1432.68,-1883 1432.68,-1889 1432.68,-1889 1432.68,-1901 1432.68,-1901 1432.68,-1907 1426.68,-1913 1420.68,-1913"/>
<text text-anchor="middle" x="1312.18" y="-1891.3" font-family="Times,serif" font-size="14.00" fill="#314b5f">symfony/polyfill&#45;php84: v1.32.0</text>
</g>
<!-- bartlett/php&#45;compatinfo&#45;db&#45;&gt;symfony/polyfill&#45;php84 -->
<g id="edge65" class="edge">
<title>bartlett/php&#45;compatinfo&#45;db&#45;&gt;symfony/polyfill&#45;php84</title>
<path fill="none" stroke="#1a2833" d="M138.68,-1507.2C145.69,-1566.06 176.36,-1752.31 289.68,-1836 359.74,-1887.75 922.02,-1894.83 1181.19,-1895.32"/>
<polygon fill="#1a2833" stroke="#1a2833" points="1181.41,-1898.82 1191.42,-1895.34 1181.42,-1891.82 1181.41,-1898.82"/>
<text text-anchor="middle" x="502.18" y="-1886" font-family="Times,serif" font-size="10.00" fill="#767676">^1.0</text>
</g>
<!-- symfony/process -->
<g id="node41" class="node">
<title>symfony/process</title>
<path fill="#eeeeee" stroke="black" d="M832.68,-1845C832.68,-1845 667.68,-1845 667.68,-1845 661.68,-1845 655.68,-1839 655.68,-1833 655.68,-1833 655.68,-1821 655.68,-1821 655.68,-1815 661.68,-1809 667.68,-1809 667.68,-1809 832.68,-1809 832.68,-1809 838.68,-1809 844.68,-1815 844.68,-1821 844.68,-1821 844.68,-1833 844.68,-1833 844.68,-1839 838.68,-1845 832.68,-1845"/>
<text text-anchor="middle" x="750.18" y="-1823.3" font-family="Times,serif" font-size="14.00" fill="#314b5f">symfony/process: v7.3.0</text>
</g>
<!-- bartlett/php&#45;compatinfo&#45;db&#45;&gt;symfony/process -->
<g id="edge67" class="edge">
<title>bartlett/php&#45;compatinfo&#45;db&#45;&gt;symfony/process</title>
<path fill="none" stroke="#1a2833" d="M139.36,-1507.28C148.13,-1563 182.82,-1731.16 289.68,-1802 345.93,-1839.29 528.07,-1838.25 645.43,-1833.23"/>
<polygon fill="#1a2833" stroke="#1a2833" points="645.69,-1836.72 655.52,-1832.78 645.38,-1829.73 645.69,-1836.72"/>
<text text-anchor="middle" x="319.18" y="-1824" font-family="Times,serif" font-size="10.00" fill="#767676">^6.4 || ^7.0</text>
</g>
<!-- symfony/requirements&#45;checker -->
<g id="node42" class="node">
<title>symfony/requirements&#45;checker</title>
<path fill="#eeeeee" stroke="black" d="M1445.68,-1804C1445.68,-1804 1178.68,-1804 1178.68,-1804 1172.68,-1804 1166.68,-1798 1166.68,-1792 1166.68,-1792 1166.68,-1780 1166.68,-1780 1166.68,-1774 1172.68,-1768 1178.68,-1768 1178.68,-1768 1445.68,-1768 1445.68,-1768 1451.68,-1768 1457.68,-1774 1457.68,-1780 1457.68,-1780 1457.68,-1792 1457.68,-1792 1457.68,-1798 1451.68,-1804 1445.68,-1804"/>
<text text-anchor="middle" x="1312.18" y="-1782.3" font-family="Times,serif" font-size="14.00" fill="#314b5f">symfony/requirements&#45;checker: v2.0.3</text>
</g>
<!-- bartlett/php&#45;compatinfo&#45;db&#45;&gt;symfony/requirements&#45;checker -->
<g id="edge69" class="edge">
<title>bartlett/php&#45;compatinfo&#45;db&#45;&gt;symfony/requirements&#45;checker</title>
<path fill="none" stroke="#1a2833" d="M144.63,-1506.98C168.49,-1559.24 246.3,-1710.33 366.68,-1756 506.48,-1809.04 926.09,-1801.76 1156.13,-1793.16"/>
<polygon fill="#1a2833" stroke="#1a2833" points="1156.4,-1796.65 1166.26,-1792.78 1156.14,-1789.66 1156.4,-1796.65"/>
<text text-anchor="middle" x="502.18" y="-1797" font-family="Times,serif" font-size="10.00" fill="#767676">^2.0</text>
</g>
<!-- symfony/stopwatch -->
<g id="node43" class="node">
<title>symfony/stopwatch</title>
<path fill="#eeeeee" stroke="black" d="M1097.68,-1706C1097.68,-1706 913.68,-1706 913.68,-1706 907.68,-1706 901.68,-1700 901.68,-1694 901.68,-1694 901.68,-1682 901.68,-1682 901.68,-1676 907.68,-1670 913.68,-1670 913.68,-1670 1097.68,-1670 1097.68,-1670 1103.68,-1670 1109.68,-1676 1109.68,-1682 1109.68,-1682 1109.68,-1694 1109.68,-1694 1109.68,-1700 1103.68,-1706 1097.68,-1706"/>
<text text-anchor="middle" x="1005.68" y="-1684.3" font-family="Times,serif" font-size="14.00" fill="#314b5f">symfony/stopwatch: v7.3.0</text>
</g>
<!-- bartlett/php&#45;compatinfo&#45;db&#45;&gt;symfony/stopwatch -->
<g id="edge72" class="edge">
<title>bartlett/php&#45;compatinfo&#45;db&#45;&gt;symfony/stopwatch</title>
<path fill="none" stroke="#1a2833" d="M156.51,-1506.92C194.08,-1539.91 280.05,-1609.58 366.68,-1639 542.75,-1698.81 761.34,-1701.35 891.56,-1695.95"/>
<polygon fill="#1a2833" stroke="#1a2833" points="891.72,-1699.44 901.56,-1695.51 891.41,-1692.45 891.72,-1699.44"/>
<text text-anchor="middle" x="502.18" y="-1693" font-family="Times,serif" font-size="10.00" fill="#767676">^6.4 || ^7.0</text>
</g>
<!-- symfony/framework&#45;bundle -->
<g id="node44" class="node">
<title>symfony/framework&#45;bundle</title>
<path fill="#eeeeee" stroke="black" d="M622.68,-1361C622.68,-1361 381.68,-1361 381.68,-1361 375.68,-1361 369.68,-1355 369.68,-1349 369.68,-1349 369.68,-1337 369.68,-1337 369.68,-1331 375.68,-1325 381.68,-1325 381.68,-1325 622.68,-1325 622.68,-1325 628.68,-1325 634.68,-1331 634.68,-1337 634.68,-1337 634.68,-1349 634.68,-1349 634.68,-1355 628.68,-1361 622.68,-1361"/>
<text text-anchor="middle" x="502.18" y="-1339.3" font-family="Times,serif" font-size="14.00" fill="#314b5f">symfony/framework&#45;bundle: v7.3.1</text>
</g>
<!-- bartlett/php&#45;compatinfo&#45;db&#45;&gt;symfony/framework&#45;bundle -->
<g id="edge88" class="edge">
<title>bartlett/php&#45;compatinfo&#45;db&#45;&gt;symfony/framework&#45;bundle</title>
<path fill="none" stroke="#1a2833" stroke-dasharray="5,2" d="M179.7,-1471.82C246.13,-1445.2 373.86,-1394.02 446.72,-1364.82"/>
<polygon fill="#1a2833" stroke="#1a2833" points="448.22,-1367.99 456.2,-1361.02 445.61,-1361.5 448.22,-1367.99"/>
<text text-anchor="middle" x="319.18" y="-1427" font-family="Times,serif" font-size="10.00" fill="#767676">^6.4 || ^7.0</text>
</g>
<!-- bamarni/composer&#45;bin&#45;plugin -->
<g id="node51" class="node">
<title>bamarni/composer&#45;bin&#45;plugin</title>
<path fill="#eeeeee" stroke="black" d="M625.68,-306C625.68,-306 378.68,-306 378.68,-306 372.68,-306 366.68,-300 366.68,-294 366.68,-294 366.68,-282 366.68,-282 366.68,-276 372.68,-270 378.68,-270 378.68,-270 625.68,-270 625.68,-270 631.68,-270 637.68,-276 637.68,-282 637.68,-282 637.68,-294 637.68,-294 637.68,-300 631.68,-306 625.68,-306"/>
<text text-anchor="middle" x="502.18" y="-284.3" font-family="Times,serif" font-size="14.00" fill="#314b5f">bamarni/composer&#45;bin&#45;plugin: 1.8.2</text>
</g>
<!-- bartlett/php&#45;compatinfo&#45;db&#45;&gt;bamarni/composer&#45;bin&#45;plugin -->
<g id="edge91" class="edge">
<title>bartlett/php&#45;compatinfo&#45;db&#45;&gt;bamarni/composer&#45;bin&#45;plugin</title>
<path fill="none" stroke="#1a2833" stroke-dasharray="5,2" d="M137.9,-1470.68C146.33,-1328.41 204.26,-402.98 289.68,-317 307.72,-298.84 331.43,-288.36 356.43,-282.75"/>
<polygon fill="#1a2833" stroke="#1a2833" points="357.31,-286.15 366.44,-280.77 355.95,-279.28 357.31,-286.15"/>
<text text-anchor="middle" x="319.18" y="-320" font-family="Times,serif" font-size="10.00" fill="#767676">^1.8</text>
</g>
<!-- composer/semver&#45;&gt;php -->
<g id="edge8" class="edge">
<title>composer/semver&#45;&gt;php</title>
<path fill="none" stroke="#1a2833" d="M844.4,-2207.22C1086.44,-2222.6 1721.62,-2257.67 1801.68,-2208 1872.64,-2163.98 1896.91,-1887.97 1902.99,-1798.18"/>
<polygon fill="#1a2833" stroke="#1a2833" points="1906.48,-1798.39 1903.64,-1788.18 1899.5,-1797.94 1906.48,-1798.39"/>
<text text-anchor="middle" x="1312.18" y="-2236" font-family="Times,serif" font-size="10.00" fill="#767676">^5.3.2 || ^7.0 || ^8.0</text>
</g>
<!-- doctrine/orm&#45;&gt;php -->
<g id="edge20" class="edge">
<title>doctrine/orm&#45;&gt;php</title>
<path fill="none" stroke="#1a2833" d="M579.52,-644.6C652.23,-637.94 764.79,-628.67 862.68,-625 1337.12,-607.21 1623.89,-594.48 1860.68,-1006 1897.9,-1070.69 1903.68,-1610.42 1904.53,-1741.43"/>
<polygon fill="#1a2833" stroke="#1a2833" points="1901.04,-1741.85 1904.6,-1751.82 1908.03,-1741.8 1901.04,-1741.85"/>
<text text-anchor="middle" x="1312.18" y="-657" font-family="Times,serif" font-size="10.00" fill="#767676">^8.1</text>
</g>
<!-- doctrine/orm&#45;&gt;composer&#45;runtime&#45;api -->
<g id="edge10" class="edge">
<title>doctrine/orm&#45;&gt;composer&#45;runtime&#45;api</title>
<path fill="none" stroke="#1a2833" d="M507.68,-670.25C520.85,-719.36 564.26,-854.69 655.68,-915 690.99,-938.3 802.75,-932.31 844.68,-938 865.46,-940.82 887.73,-944.04 908.86,-947.18"/>
<polygon fill="#1a2833" stroke="#1a2833" points="908.39,-950.65 918.8,-948.67 909.42,-943.73 908.39,-950.65"/>
<text text-anchor="middle" x="750.18" y="-941" font-family="Times,serif" font-size="10.00" fill="#767676">^2</text>
</g>
<!-- doctrine/collections -->
<g id="node11" class="node">
<title>doctrine/collections</title>
<path fill="#eeeeee" stroke="black" d="M1094.18,-416C1094.18,-416 917.18,-416 917.18,-416 911.18,-416 905.18,-410 905.18,-404 905.18,-404 905.18,-392 905.18,-392 905.18,-386 911.18,-380 917.18,-380 917.18,-380 1094.18,-380 1094.18,-380 1100.18,-380 1106.18,-386 1106.18,-392 1106.18,-392 1106.18,-404 1106.18,-404 1106.18,-410 1100.18,-416 1094.18,-416"/>
<text text-anchor="middle" x="1005.68" y="-394.3" font-family="Times,serif" font-size="14.00" fill="#314b5f">doctrine/collections: 2.3.0</text>
</g>
<!-- doctrine/orm&#45;&gt;doctrine/collections -->
<g id="edge11" class="edge">
<title>doctrine/orm&#45;&gt;doctrine/collections</title>
<path fill="none" stroke="#1a2833" d="M511.95,-633.85C531.61,-595.44 583.19,-506.22 655.68,-467 730.01,-426.78 769.96,-485.51 844.68,-446 855.54,-440.25 852.04,-431.16 862.68,-425 872.77,-419.15 883.88,-414.54 895.3,-410.9"/>
<polygon fill="#1a2833" stroke="#1a2833" points="896.35,-414.25 904.96,-408.07 894.38,-407.53 896.35,-414.25"/>
<text text-anchor="middle" x="750.18" y="-470" font-family="Times,serif" font-size="10.00" fill="#767676">^2.2</text>
</g>
<!-- doctrine/orm&#45;&gt;doctrine/dbal -->
<g id="edge12" class="edge">
<title>doctrine/orm&#45;&gt;doctrine/dbal</title>
<path fill="none" stroke="#1a2833" d="M508.56,-633.9C523.49,-587 570.06,-460.9 655.68,-399 725.49,-348.52 777.75,-410.24 844.68,-356 859.51,-343.98 847.63,-328.75 862.68,-317 878.41,-304.71 898.08,-297.45 917.72,-293.28"/>
<polygon fill="#1a2833" stroke="#1a2833" points="918.46,-296.7 927.65,-291.43 917.18,-289.82 918.46,-296.7"/>
<text text-anchor="middle" x="750.18" y="-402" font-family="Times,serif" font-size="10.00" fill="#767676">^3.8.2 || ^4</text>
</g>
<!-- doctrine/deprecations -->
<g id="node13" class="node">
<title>doctrine/deprecations</title>
<path fill="#eeeeee" stroke="black" d="M1102.68,-832C1102.68,-832 908.68,-832 908.68,-832 902.68,-832 896.68,-826 896.68,-820 896.68,-820 896.68,-808 896.68,-808 896.68,-802 902.68,-796 908.68,-796 908.68,-796 1102.68,-796 1102.68,-796 1108.68,-796 1114.68,-802 1114.68,-808 1114.68,-808 1114.68,-820 1114.68,-820 1114.68,-826 1108.68,-832 1102.68,-832"/>
<text text-anchor="middle" x="1005.68" y="-810.3" font-family="Times,serif" font-size="14.00" fill="#314b5f">doctrine/deprecations: 1.1.5</text>
</g>
<!-- doctrine/orm&#45;&gt;doctrine/deprecations -->
<g id="edge13" class="edge">
<title>doctrine/orm&#45;&gt;doctrine/deprecations</title>
<path fill="none" stroke="#1a2833" d="M524.25,-670.37C552.25,-693.71 604.2,-733.45 655.68,-754 729.28,-783.39 817.25,-798.39 886.46,-806.05"/>
<polygon fill="#1a2833" stroke="#1a2833" points="886.21,-809.54 896.53,-807.13 886.96,-802.58 886.21,-809.54"/>
<text text-anchor="middle" x="750.18" y="-803" font-family="Times,serif" font-size="10.00" fill="#767676">^0.5.3 || ^1</text>
</g>
<!-- doctrine/event&#45;manager -->
<g id="node14" class="node">
<title>doctrine/event&#45;manager</title>
<path fill="#eeeeee" stroke="black" d="M1110.18,-778C1110.18,-778 901.18,-778 901.18,-778 895.18,-778 889.18,-772 889.18,-766 889.18,-766 889.18,-754 889.18,-754 889.18,-748 895.18,-742 901.18,-742 901.18,-742 1110.18,-742 1110.18,-742 1116.18,-742 1122.18,-748 1122.18,-754 1122.18,-754 1122.18,-766 1122.18,-766 1122.18,-772 1116.18,-778 1110.18,-778"/>
<text text-anchor="middle" x="1005.68" y="-756.3" font-family="Times,serif" font-size="14.00" fill="#314b5f">doctrine/event&#45;manager: 2.0.1</text>
</g>
<!-- doctrine/orm&#45;&gt;doctrine/event&#45;manager -->
<g id="edge14" class="edge">
<title>doctrine/orm&#45;&gt;doctrine/event&#45;manager</title>
<path fill="none" stroke="#1a2833" d="M550.67,-670.08C580.47,-680.87 619.9,-694.16 655.68,-703 728.81,-721.08 812.01,-734.92 878.83,-744.43"/>
<polygon fill="#1a2833" stroke="#1a2833" points="878.6,-747.94 888.99,-745.86 879.57,-741 878.6,-747.94"/>
<text text-anchor="middle" x="750.18" y="-742" font-family="Times,serif" font-size="10.00" fill="#767676">^1.2 || ^2</text>
</g>
<!-- doctrine/inflector -->
<g id="node15" class="node">
<title>doctrine/inflector</title>
<path fill="#eeeeee" stroke="black" d="M1090.68,-724C1090.68,-724 920.68,-724 920.68,-724 914.68,-724 908.68,-718 908.68,-712 908.68,-712 908.68,-700 908.68,-700 908.68,-694 914.68,-688 920.68,-688 920.68,-688 1090.68,-688 1090.68,-688 1096.68,-688 1102.68,-694 1102.68,-700 1102.68,-700 1102.68,-712 1102.68,-712 1102.68,-718 1096.68,-724 1090.68,-724"/>
<text text-anchor="middle" x="1005.68" y="-702.3" font-family="Times,serif" font-size="14.00" fill="#314b5f">doctrine/inflector: 2.0.10</text>
</g>
<!-- doctrine/orm&#45;&gt;doctrine/inflector -->
<g id="edge15" class="edge">
<title>doctrine/orm&#45;&gt;doctrine/inflector</title>
<path fill="none" stroke="#1a2833" d="M579.34,-660.2C664.43,-669.36 802.75,-684.26 898.44,-694.56"/>
<polygon fill="#1a2833" stroke="#1a2833" points="898.12,-698.05 908.43,-695.64 898.87,-691.09 898.12,-698.05"/>
<text text-anchor="middle" x="750.18" y="-691" font-family="Times,serif" font-size="10.00" fill="#767676">^1.4 || ^2.0</text>
</g>
<!-- doctrine/instantiator -->
<g id="node16" class="node">
<title>doctrine/instantiator</title>
<path fill="#eeeeee" stroke="black" d="M1098.18,-670C1098.18,-670 913.18,-670 913.18,-670 907.18,-670 901.18,-664 901.18,-658 901.18,-658 901.18,-646 901.18,-646 901.18,-640 907.18,-634 913.18,-634 913.18,-634 1098.18,-634 1098.18,-634 1104.18,-634 1110.18,-640 1110.18,-646 1110.18,-646 1110.18,-658 1110.18,-658 1110.18,-664 1104.18,-670 1098.18,-670"/>
<text text-anchor="middle" x="1005.68" y="-648.3" font-family="Times,serif" font-size="14.00" fill="#314b5f">doctrine/instantiator: 2.0.0</text>
</g>
<!-- doctrine/orm&#45;&gt;doctrine/instantiator -->
<g id="edge16" class="edge">
<title>doctrine/orm&#45;&gt;doctrine/instantiator</title>
<path fill="none" stroke="#1a2833" d="M579.34,-652C662.09,-652 795.2,-652 890.47,-652"/>
<polygon fill="#1a2833" stroke="#1a2833" points="890.73,-655.5 900.73,-652 890.73,-648.5 890.73,-655.5"/>
<text text-anchor="middle" x="750.18" y="-655" font-family="Times,serif" font-size="10.00" fill="#767676">^1.3 || ^2</text>
</g>
<!-- doctrine/lexer -->
<g id="node17" class="node">
<title>doctrine/lexer</title>
<path fill="#eeeeee" stroke="black" d="M1074.18,-578C1074.18,-578 937.18,-578 937.18,-578 931.18,-578 925.18,-572 925.18,-566 925.18,-566 925.18,-554 925.18,-554 925.18,-548 931.18,-542 937.18,-542 937.18,-542 1074.18,-542 1074.18,-542 1080.18,-542 1086.18,-548 1086.18,-554 1086.18,-554 1086.18,-566 1086.18,-566 1086.18,-572 1080.18,-578 1074.18,-578"/>
<text text-anchor="middle" x="1005.68" y="-556.3" font-family="Times,serif" font-size="14.00" fill="#314b5f">doctrine/lexer: 3.0.1</text>
</g>
<!-- doctrine/orm&#45;&gt;doctrine/lexer -->
<g id="edge17" class="edge">
<title>doctrine/orm&#45;&gt;doctrine/lexer</title>
<path fill="none" stroke="#1a2833" d="M533.16,-633.89C563.04,-616.87 610.8,-592.36 655.68,-581 741.77,-559.21 843.44,-555.47 914.77,-556.26"/>
<polygon fill="#1a2833" stroke="#1a2833" points="915.02,-559.76 925.07,-556.41 915.12,-552.76 915.02,-559.76"/>
<text text-anchor="middle" x="750.18" y="-584" font-family="Times,serif" font-size="10.00" fill="#767676">^3</text>
</g>
<!-- doctrine/persistence -->
<g id="node18" class="node">
<title>doctrine/persistence</title>
<path fill="#eeeeee" stroke="black" d="M1097.68,-524C1097.68,-524 913.68,-524 913.68,-524 907.68,-524 901.68,-518 901.68,-512 901.68,-512 901.68,-500 901.68,-500 901.68,-494 907.68,-488 913.68,-488 913.68,-488 1097.68,-488 1097.68,-488 1103.68,-488 1109.68,-494 1109.68,-500 1109.68,-500 1109.68,-512 1109.68,-512 1109.68,-518 1103.68,-524 1097.68,-524"/>
<text text-anchor="middle" x="1005.68" y="-502.3" font-family="Times,serif" font-size="14.00" fill="#314b5f">doctrine/persistence: 4.0.0</text>
</g>
<!-- doctrine/orm&#45;&gt;doctrine/persistence -->
<g id="edge18" class="edge">
<title>doctrine/orm&#45;&gt;doctrine/persistence</title>
<path fill="none" stroke="#1a2833" d="M521.44,-633.78C548.27,-608.29 601.07,-562.79 655.68,-542 697.5,-526.08 806.28,-516.57 891.38,-511.36"/>
<polygon fill="#1a2833" stroke="#1a2833" points="891.6,-514.86 901.37,-510.77 891.18,-507.87 891.6,-514.86"/>
<text text-anchor="middle" x="750.18" y="-545" font-family="Times,serif" font-size="10.00" fill="#767676">^3.3.1 || ^4</text>
</g>
<!-- ext&#45;ctype -->
<g id="node19" class="node">
<title>ext&#45;ctype</title>
<path fill="#eeeeee" stroke="black" d="M1035.18,-470C1035.18,-470 976.18,-470 976.18,-470 970.18,-470 964.18,-464 964.18,-458 964.18,-458 964.18,-446 964.18,-446 964.18,-440 970.18,-434 976.18,-434 976.18,-434 1035.18,-434 1035.18,-434 1041.18,-434 1047.18,-440 1047.18,-446 1047.18,-446 1047.18,-458 1047.18,-458 1047.18,-464 1041.18,-470 1035.18,-470"/>
<text text-anchor="middle" x="1005.68" y="-448.3" font-family="Times,serif" font-size="14.00" fill="#314b5f">ext&#45;ctype</text>
</g>
<!-- doctrine/orm&#45;&gt;ext&#45;ctype -->
<g id="edge19" class="edge">
<title>doctrine/orm&#45;&gt;ext&#45;ctype</title>
<path fill="none" stroke="#1a2833" d="M515.08,-633.93C537.9,-600.99 591.29,-531.75 655.68,-501 731.94,-464.58 761.01,-491.96 844.68,-480 881.45,-474.74 922.75,-467.48 954.18,-461.67"/>
<polygon fill="#1a2833" stroke="#1a2833" points="954.82,-465.11 964.02,-459.84 953.54,-458.23 954.82,-465.11"/>
<text text-anchor="middle" x="750.18" y="-504" font-family="Times,serif" font-size="10.00" fill="#767676">*</text>
</g>
<!-- psr/cache -->
<g id="node20" class="node">
<title>psr/cache</title>
<path fill="#eeeeee" stroke="black" d="M1691.68,-1306C1691.68,-1306 1585.68,-1306 1585.68,-1306 1579.68,-1306 1573.68,-1300 1573.68,-1294 1573.68,-1294 1573.68,-1282 1573.68,-1282 1573.68,-1276 1579.68,-1270 1585.68,-1270 1585.68,-1270 1691.68,-1270 1691.68,-1270 1697.68,-1270 1703.68,-1276 1703.68,-1282 1703.68,-1282 1703.68,-1294 1703.68,-1294 1703.68,-1300 1697.68,-1306 1691.68,-1306"/>
<text text-anchor="middle" x="1638.68" y="-1284.3" font-family="Times,serif" font-size="14.00" fill="#314b5f">psr/cache: 3.0.0</text>
</g>
<!-- doctrine/orm&#45;&gt;psr/cache -->
<g id="edge21" class="edge">
<title>doctrine/orm&#45;&gt;psr/cache</title>
<path fill="none" stroke="#1a2833" d="M510.93,-670.04C529.42,-710.68 580.23,-809.44 655.68,-856 710.36,-889.74 1147.97,-923.3 1148.68,-924 1196.13,-970.88 1122.64,-1022.9 1166.68,-1073 1254.77,-1173.24 1368.03,-1048.14 1457.68,-1147 1493.31,-1186.3 1437.97,-1227.68 1475.68,-1265 1498.35,-1287.44 1532.31,-1294.62 1563.28,-1295.61"/>
<polygon fill="#1a2833" stroke="#1a2833" points="1563.62,-1299.11 1573.65,-1295.72 1563.69,-1292.11 1563.62,-1299.11"/>
<text text-anchor="middle" x="1005.68" y="-927" font-family="Times,serif" font-size="10.00" fill="#767676">^1 || ^2 || ^3</text>
</g>
<!-- doctrine/orm&#45;&gt;symfony/console -->
<g id="edge22" class="edge">
<title>doctrine/orm&#45;&gt;symfony/console</title>
<path fill="none" stroke="#1a2833" d="M509.68,-633.91C526.31,-590.62 574.84,-481.08 655.68,-433 728.31,-389.79 776.58,-462.06 844.68,-412 860.71,-400.21 847.11,-383.4 862.68,-371 874.08,-361.92 887.62,-355.57 901.74,-351.18"/>
<polygon fill="#1a2833" stroke="#1a2833" points="902.89,-354.49 911.59,-348.44 901.02,-347.75 902.89,-354.49"/>
<text text-anchor="middle" x="750.18" y="-436" font-family="Times,serif" font-size="10.00" fill="#767676">^5.4 || ^6.0 || ^7.0</text>
</g>
<!-- symfony/var&#45;exporter -->
<g id="node22" class="node">
<title>symfony/var&#45;exporter</title>
<path fill="#eeeeee" stroke="black" d="M1738.68,-1041C1738.68,-1041 1538.68,-1041 1538.68,-1041 1532.68,-1041 1526.68,-1035 1526.68,-1029 1526.68,-1029 1526.68,-1017 1526.68,-1017 1526.68,-1011 1532.68,-1005 1538.68,-1005 1538.68,-1005 1738.68,-1005 1738.68,-1005 1744.68,-1005 1750.68,-1011 1750.68,-1017 1750.68,-1017 1750.68,-1029 1750.68,-1029 1750.68,-1035 1744.68,-1041 1738.68,-1041"/>
<text text-anchor="middle" x="1638.68" y="-1019.3" font-family="Times,serif" font-size="14.00" fill="#314b5f">symfony/var&#45;exporter: v7.3.0</text>
</g>
<!-- doctrine/orm&#45;&gt;symfony/var&#45;exporter -->
<g id="edge23" class="edge">
<title>doctrine/orm&#45;&gt;symfony/var&#45;exporter</title>
<path fill="none" stroke="#1a2833" d="M514.09,-670.25C536.02,-705.07 589.06,-780.58 655.68,-815 852.13,-916.5 931.64,-839.65 1148.68,-882 1287.8,-909.14 1321.89,-920.33 1457.68,-961 1498.63,-973.27 1544.15,-988.96 1579.16,-1001.49"/>
<polygon fill="#1a2833" stroke="#1a2833" points="1578.15,-1004.85 1588.75,-1004.94 1580.52,-998.26 1578.15,-1004.85"/>
<text text-anchor="middle" x="1005.68" y="-885" font-family="Times,serif" font-size="10.00" fill="#767676">^6.3.9 || ^7.0</text>
</g>
<!-- psr/log&#45;&gt;php -->
<g id="edge26" class="edge">
<title>psr/log&#45;&gt;php</title>
<path fill="none" stroke="#1a2833" d="M1694.31,-2081.62C1727.74,-2080.14 1770.03,-2073.64 1801.68,-2053 1888.26,-1996.54 1902.54,-1858.51 1904.55,-1798.57"/>
<polygon fill="#1a2833" stroke="#1a2833" points="1908.06,-1798.4 1904.8,-1788.32 1901.06,-1798.23 1908.06,-1798.4"/>
<text text-anchor="middle" x="1840.18" y="-2041" font-family="Times,serif" font-size="10.00" fill="#767676">&gt;=8.0.0</text>
</g>
<!-- symfony/cache&#45;&gt;php -->
<g id="edge28" class="edge">
<title>symfony/cache&#45;&gt;php</title>
<path fill="none" stroke="#1a2833" d="M1093.39,-1572.67C1113.13,-1567.69 1132.91,-1559.71 1148.68,-1547 1163.23,-1535.27 1151.38,-1519.74 1166.68,-1509 1219.84,-1471.67 1393.8,-1492.85 1457.68,-1481 1465.84,-1479.49 1467.45,-1477.12 1475.68,-1476 1547.46,-1466.22 1742.59,-1434.09 1801.68,-1476 1889.28,-1538.13 1902.95,-1680.77 1904.68,-1741.64"/>
<polygon fill="#1a2833" stroke="#1a2833" points="1901.18,-1741.75 1904.87,-1751.68 1908.18,-1741.61 1901.18,-1741.75"/>
<text text-anchor="middle" x="1638.68" y="-1479" font-family="Times,serif" font-size="10.00" fill="#767676">&gt;=8.2</text>
</g>
<!-- symfony/cache&#45;&gt;psr/cache -->
<g id="edge29" class="edge">
<title>symfony/cache&#45;&gt;psr/cache</title>
<path fill="none" stroke="#1a2833" d="M1093.19,-1577.9C1114.14,-1573.14 1134.55,-1564.18 1148.68,-1548 1179.05,-1513.22 1133.79,-1373.41 1166.68,-1341 1189.77,-1318.25 1425.73,-1325.53 1457.68,-1320 1465.86,-1318.58 1467.57,-1316.8 1475.68,-1315 1504.19,-1308.68 1535.82,-1303.1 1563.5,-1298.67"/>
<polygon fill="#1a2833" stroke="#1a2833" points="1564.18,-1302.11 1573.51,-1297.09 1563.09,-1295.19 1564.18,-1302.11"/>
<text text-anchor="middle" x="1312.18" y="-1344" font-family="Times,serif" font-size="10.00" fill="#767676">^2.0|^3.0</text>
</g>
<!-- symfony/cache&#45;&gt;symfony/var&#45;exporter -->
<g id="edge34" class="edge">
<title>symfony/cache&#45;&gt;symfony/var&#45;exporter</title>
<path fill="none" stroke="#1a2833" d="M1093.43,-1578.1C1114.38,-1573.34 1134.72,-1564.33 1148.68,-1548 1188.47,-1501.45 1125.09,-1317.96 1166.68,-1273 1255.4,-1177.07 1367.34,-1325.42 1457.68,-1231 1485.62,-1201.79 1448.05,-1079.51 1475.68,-1050 1486.89,-1038.02 1501.25,-1030.06 1516.78,-1024.92"/>
<polygon fill="#1a2833" stroke="#1a2833" points="1517.95,-1028.23 1526.57,-1022.08 1516,-1021.5 1517.95,-1028.23"/>
<text text-anchor="middle" x="1312.18" y="-1276" font-family="Times,serif" font-size="10.00" fill="#767676">^6.4|^7.0</text>
</g>
<!-- symfony/cache&#45;&gt;psr/log -->
<g id="edge30" class="edge">
<title>symfony/cache&#45;&gt;psr/log</title>
<path fill="none" stroke="#1a2833" d="M1093.43,-1578.85C1114.25,-1582.89 1134.53,-1591.2 1148.68,-1607 1183.17,-1645.53 1130.01,-1802.53 1166.68,-1839 1212.64,-1884.72 1411.35,-1814.64 1457.68,-1860 1488.45,-1890.14 1446.34,-2021.46 1475.68,-2053 1499.88,-2079.01 1538.9,-2086.1 1572.58,-2086.52"/>
<polygon fill="#1a2833" stroke="#1a2833" points="1572.87,-2090.02 1582.84,-2086.45 1572.82,-2083.02 1572.87,-2090.02"/>
<text text-anchor="middle" x="1312.18" y="-1863" font-family="Times,serif" font-size="10.00" fill="#767676">^1.1|^2|^3</text>
</g>
<!-- symfony/cache&#45;contracts -->
<g id="node25" class="node">
<title>symfony/cache&#45;contracts</title>
<path fill="#eeeeee" stroke="black" d="M1749.68,-1532C1749.68,-1532 1527.68,-1532 1527.68,-1532 1521.68,-1532 1515.68,-1526 1515.68,-1520 1515.68,-1520 1515.68,-1508 1515.68,-1508 1515.68,-1502 1521.68,-1496 1527.68,-1496 1527.68,-1496 1749.68,-1496 1749.68,-1496 1755.68,-1496 1761.68,-1502 1761.68,-1508 1761.68,-1508 1761.68,-1520 1761.68,-1520 1761.68,-1526 1755.68,-1532 1749.68,-1532"/>
<text text-anchor="middle" x="1638.68" y="-1510.3" font-family="Times,serif" font-size="14.00" fill="#314b5f">symfony/cache&#45;contracts: v3.6.0</text>
</g>
<!-- symfony/cache&#45;&gt;symfony/cache&#45;contracts -->
<g id="edge31" class="edge">
<title>symfony/cache&#45;&gt;symfony/cache&#45;contracts</title>
<path fill="none" stroke="#1a2833" d="M1093.37,-1568.97C1117.11,-1566.15 1142.87,-1563.27 1166.68,-1561 1295.76,-1548.68 1328.76,-1553.94 1457.68,-1540 1475.16,-1538.11 1493.55,-1535.81 1511.63,-1533.37"/>
<polygon fill="#1a2833" stroke="#1a2833" points="1512.2,-1536.83 1521.64,-1532 1511.25,-1529.89 1512.2,-1536.83"/>
<text text-anchor="middle" x="1312.18" y="-1564" font-family="Times,serif" font-size="10.00" fill="#767676">^3.6</text>
</g>
<!-- symfony/deprecation&#45;contracts -->
<g id="node26" class="node">
<title>symfony/deprecation&#45;contracts</title>
<path fill="#eeeeee" stroke="black" d="M1771.68,-1426C1771.68,-1426 1505.68,-1426 1505.68,-1426 1499.68,-1426 1493.68,-1420 1493.68,-1414 1493.68,-1414 1493.68,-1402 1493.68,-1402 1493.68,-1396 1499.68,-1390 1505.68,-1390 1505.68,-1390 1771.68,-1390 1771.68,-1390 1777.68,-1390 1783.68,-1396 1783.68,-1402 1783.68,-1402 1783.68,-1414 1783.68,-1414 1783.68,-1420 1777.68,-1426 1771.68,-1426"/>
<text text-anchor="middle" x="1638.68" y="-1404.3" font-family="Times,serif" font-size="14.00" fill="#314b5f">symfony/deprecation&#45;contracts: v3.6.0</text>
</g>
<!-- symfony/cache&#45;&gt;symfony/deprecation&#45;contracts -->
<g id="edge32" class="edge">
<title>symfony/cache&#45;&gt;symfony/deprecation&#45;contracts</title>
<path fill="none" stroke="#1a2833" d="M1093.2,-1576.18C1113.65,-1571.36 1133.81,-1562.79 1148.68,-1548 1173.9,-1522.91 1139.73,-1493.23 1166.68,-1470 1191.24,-1448.82 1425.59,-1451.72 1457.68,-1447 1489.65,-1442.29 1524.44,-1435.23 1554.83,-1428.39"/>
<polygon fill="#1a2833" stroke="#1a2833" points="1555.98,-1431.72 1564.96,-1426.09 1554.43,-1424.89 1555.98,-1431.72"/>
<text text-anchor="middle" x="1312.18" y="-1473" font-family="Times,serif" font-size="10.00" fill="#767676">^2.5|^3.0</text>
</g>
<!-- symfony/service&#45;contracts -->
<g id="node27" class="node">
<title>symfony/service&#45;contracts</title>
<path fill="#eeeeee" stroke="black" d="M1755.18,-1586C1755.18,-1586 1522.18,-1586 1522.18,-1586 1516.18,-1586 1510.18,-1580 1510.18,-1574 1510.18,-1574 1510.18,-1562 1510.18,-1562 1510.18,-1556 1516.18,-1550 1522.18,-1550 1522.18,-1550 1755.18,-1550 1755.18,-1550 1761.18,-1550 1767.18,-1556 1767.18,-1562 1767.18,-1562 1767.18,-1574 1767.18,-1574 1767.18,-1580 1761.18,-1586 1755.18,-1586"/>
<text text-anchor="middle" x="1638.68" y="-1564.3" font-family="Times,serif" font-size="14.00" fill="#314b5f">symfony/service&#45;contracts: v3.6.0</text>
</g>
<!-- symfony/cache&#45;&gt;symfony/service&#45;contracts -->
<g id="edge33" class="edge">
<title>symfony/cache&#45;&gt;symfony/service&#45;contracts</title>
<path fill="none" stroke="#1a2833" d="M1093.57,-1579.36C1184.39,-1578.57 1331.05,-1576.95 1457.68,-1574 1471.26,-1573.68 1485.42,-1573.3 1499.56,-1572.89"/>
<polygon fill="#1a2833" stroke="#1a2833" points="1499.96,-1576.37 1509.85,-1572.58 1499.75,-1569.38 1499.96,-1576.37"/>
<text text-anchor="middle" x="1312.18" y="-1581" font-family="Times,serif" font-size="10.00" fill="#767676">^2.5|^3</text>
</g>
<!-- symfony/config&#45;&gt;php -->
<g id="edge36" class="edge">
<title>symfony/config&#45;&gt;php</title>
<path fill="none" stroke="#1a2833" d="M1094.4,-1479.8C1114.83,-1475.68 1134.68,-1467.42 1148.68,-1452 1178.22,-1419.45 1134.45,-1284.9 1166.68,-1255 1178.63,-1243.91 1798.87,-1247.81 1801.68,-1250 1880.24,-1311.53 1899.61,-1641.99 1903.7,-1741.58"/>
<polygon fill="#1a2833" stroke="#1a2833" points="1900.21,-1741.92 1904.1,-1751.78 1907.2,-1741.65 1900.21,-1741.92"/>
<text text-anchor="middle" x="1638.68" y="-1253" font-family="Times,serif" font-size="10.00" fill="#767676">&gt;=8.2</text>
</g>
<!-- symfony/config&#45;&gt;symfony/deprecation&#45;contracts -->
<g id="edge37" class="edge">
<title>symfony/config&#45;&gt;symfony/deprecation&#45;contracts</title>
<path fill="none" stroke="#1a2833" d="M1094.4,-1478.06C1114.35,-1473.88 1133.96,-1466.03 1148.68,-1452 1173.49,-1428.34 1139.76,-1398.22 1166.68,-1377 1223.48,-1332.22 1425.92,-1363.94 1546.13,-1387.95"/>
<polygon fill="#1a2833" stroke="#1a2833" points="1545.57,-1391.41 1556.06,-1389.95 1546.95,-1384.55 1545.57,-1391.41"/>
<text text-anchor="middle" x="1312.18" y="-1380" font-family="Times,serif" font-size="10.00" fill="#767676">^2.5|^3</text>
</g>
<!-- symfony/filesystem -->
<g id="node29" class="node">
<title>symfony/filesystem</title>
<path fill="#eeeeee" stroke="black" d="M1730.18,-1204C1730.18,-1204 1547.18,-1204 1547.18,-1204 1541.18,-1204 1535.18,-1198 1535.18,-1192 1535.18,-1192 1535.18,-1180 1535.18,-1180 1535.18,-1174 1541.18,-1168 1547.18,-1168 1547.18,-1168 1730.18,-1168 1730.18,-1168 1736.18,-1168 1742.18,-1174 1742.18,-1180 1742.18,-1180 1742.18,-1192 1742.18,-1192 1742.18,-1198 1736.18,-1204 1730.18,-1204"/>
<text text-anchor="middle" x="1638.68" y="-1182.3" font-family="Times,serif" font-size="14.00" fill="#314b5f">symfony/filesystem: v7.3.0</text>
</g>
<!-- symfony/config&#45;&gt;symfony/filesystem -->
<g id="edge38" class="edge">
<title>symfony/config&#45;&gt;symfony/filesystem</title>
<path fill="none" stroke="#1a2833" d="M1094.19,-1480.02C1114.75,-1475.92 1134.71,-1467.62 1148.68,-1452 1183.73,-1412.79 1129.25,-1252.96 1166.68,-1216 1179.28,-1203.56 1389.76,-1194.23 1525.04,-1189.5"/>
<polygon fill="#1a2833" stroke="#1a2833" points="1525.18,-1192.99 1535.05,-1189.15 1524.94,-1186 1525.18,-1192.99"/>
<text text-anchor="middle" x="1312.18" y="-1219" font-family="Times,serif" font-size="10.00" fill="#767676">^7.1</text>
</g>
<!-- symfony/polyfill&#45;ctype -->
<g id="node30" class="node">
<title>symfony/polyfill&#45;ctype</title>
<path fill="#eeeeee" stroke="black" d="M1744.18,-1360C1744.18,-1360 1533.18,-1360 1533.18,-1360 1527.18,-1360 1521.18,-1354 1521.18,-1348 1521.18,-1348 1521.18,-1336 1521.18,-1336 1521.18,-1330 1527.18,-1324 1533.18,-1324 1533.18,-1324 1744.18,-1324 1744.18,-1324 1750.18,-1324 1756.18,-1330 1756.18,-1336 1756.18,-1336 1756.18,-1348 1756.18,-1348 1756.18,-1354 1750.18,-1360 1744.18,-1360"/>
<text text-anchor="middle" x="1638.68" y="-1338.3" font-family="Times,serif" font-size="14.00" fill="#314b5f">symfony/polyfill&#45;ctype: v1.32.0</text>
</g>
<!-- symfony/config&#45;&gt;symfony/polyfill&#45;ctype -->
<g id="edge39" class="edge">
<title>symfony/config&#45;&gt;symfony/polyfill&#45;ctype</title>
<path fill="none" stroke="#1a2833" d="M1094.41,-1479.4C1114.72,-1475.26 1134.5,-1467.09 1148.68,-1452 1192.53,-1405.31 1118.64,-1351.37 1166.68,-1309 1215.17,-1266.22 1393.84,-1298.64 1457.68,-1309 1466,-1310.35 1467.49,-1312.97 1475.68,-1315 1487.03,-1317.82 1498.9,-1320.43 1510.83,-1322.82"/>
<polygon fill="#1a2833" stroke="#1a2833" points="1510.38,-1326.3 1520.86,-1324.78 1511.72,-1319.43 1510.38,-1326.3"/>
<text text-anchor="middle" x="1312.18" y="-1312" font-family="Times,serif" font-size="10.00" fill="#767676">~1.8</text>
</g>
<!-- symfony/dependency&#45;injection&#45;&gt;php -->
<g id="edge42" class="edge">
<title>symfony/dependency&#45;injection&#45;&gt;php</title>
<path fill="none" stroke="#1a2833" d="M1148.93,-1067.87C1258.23,-1078.7 1399.95,-1093.19 1457.68,-1101 1465.71,-1102.09 1467.66,-1102.79 1475.68,-1104 1547.96,-1114.9 1742.42,-1105.19 1801.68,-1148 1899.56,-1218.72 1905.23,-1629.62 1904.93,-1741.74"/>
<polygon fill="#1a2833" stroke="#1a2833" points="1901.42,-1741.91 1904.88,-1751.93 1908.42,-1741.94 1901.42,-1741.91"/>
<text text-anchor="middle" x="1638.68" y="-1151" font-family="Times,serif" font-size="10.00" fill="#767676">&gt;=8.2</text>
</g>
<!-- symfony/dependency&#45;injection&#45;&gt;symfony/var&#45;exporter -->
<g id="edge46" class="edge">
<title>symfony/dependency&#45;injection&#45;&gt;symfony/var&#45;exporter</title>
<path fill="none" stroke="#1a2833" d="M1148.82,-1037.38C1154.85,-1036.87 1160.82,-1036.41 1166.68,-1036 1285.17,-1027.71 1420.78,-1024.65 1515.96,-1023.54"/>
<polygon fill="#1a2833" stroke="#1a2833" points="1516.24,-1027.04 1526.2,-1023.43 1516.17,-1020.04 1516.24,-1027.04"/>
<text text-anchor="middle" x="1312.18" y="-1039" font-family="Times,serif" font-size="10.00" fill="#767676">^6.4.20|^7.2.5</text>
</g>
<!-- symfony/dependency&#45;injection&#45;&gt;symfony/deprecation&#45;contracts -->
<g id="edge44" class="edge">
<title>symfony/dependency&#45;injection&#45;&gt;symfony/deprecation&#45;contracts</title>
<path fill="none" stroke="#1a2833" d="M1129.35,-1072.11C1136.34,-1075.97 1142.87,-1080.56 1148.68,-1086 1169.31,-1105.32 1144.93,-1128.94 1166.68,-1147 1216.68,-1188.55 1411.92,-1130.82 1457.68,-1177 1487.84,-1207.44 1447.61,-1336.61 1475.68,-1369 1480.76,-1374.86 1486.55,-1379.92 1492.85,-1384.29"/>
<polygon fill="#1a2833" stroke="#1a2833" points="1491.4,-1387.51 1501.74,-1389.82 1495.09,-1381.56 1491.4,-1387.51"/>
<text text-anchor="middle" x="1312.18" y="-1180" font-family="Times,serif" font-size="10.00" fill="#767676">^2.5|^3</text>
</g>
<!-- symfony/dependency&#45;injection&#45;&gt;symfony/service&#45;contracts -->
<g id="edge45" class="edge">
<title>symfony/dependency&#45;injection&#45;&gt;symfony/service&#45;contracts</title>
<path fill="none" stroke="#1a2833" d="M1133.05,-1072.1C1138.82,-1076.01 1144.1,-1080.61 1148.68,-1086 1192.76,-1137.93 1120.59,-1341.84 1166.68,-1392 1255.09,-1488.22 1364.2,-1342.68 1457.68,-1434 1492.17,-1467.7 1441.55,-1506.93 1475.68,-1541 1482.94,-1548.25 1491.36,-1554 1500.48,-1558.52"/>
<polygon fill="#1a2833" stroke="#1a2833" points="1499.25,-1561.8 1509.81,-1562.64 1502.08,-1555.4 1499.25,-1561.8"/>
<text text-anchor="middle" x="1312.18" y="-1437" font-family="Times,serif" font-size="10.00" fill="#767676">^3.5</text>
</g>
<!-- psr/container -->
<g id="node32" class="node">
<title>psr/container</title>
<path fill="#eeeeee" stroke="black" d="M1705.18,-1095C1705.18,-1095 1572.18,-1095 1572.18,-1095 1566.18,-1095 1560.18,-1089 1560.18,-1083 1560.18,-1083 1560.18,-1071 1560.18,-1071 1560.18,-1065 1566.18,-1059 1572.18,-1059 1572.18,-1059 1705.18,-1059 1705.18,-1059 1711.18,-1059 1717.18,-1065 1717.18,-1071 1717.18,-1071 1717.18,-1083 1717.18,-1083 1717.18,-1089 1711.18,-1095 1705.18,-1095"/>
<text text-anchor="middle" x="1638.68" y="-1073.3" font-family="Times,serif" font-size="14.00" fill="#314b5f">psr/container: 2.0.2</text>
</g>
<!-- symfony/dependency&#45;injection&#45;&gt;psr/container -->
<g id="edge43" class="edge">
<title>symfony/dependency&#45;injection&#45;&gt;psr/container</title>
<path fill="none" stroke="#1a2833" d="M1148.73,-1051.76C1237.58,-1051.23 1354.39,-1052.1 1457.68,-1058 1487.7,-1059.71 1520.44,-1062.8 1549.66,-1066"/>
<polygon fill="#1a2833" stroke="#1a2833" points="1549.52,-1069.5 1559.84,-1067.13 1550.29,-1062.55 1549.52,-1069.5"/>
<text text-anchor="middle" x="1312.18" y="-1061" font-family="Times,serif" font-size="10.00" fill="#767676">^1.1|^2.0</text>
</g>
<!-- symfony/event&#45;dispatcher&#45;&gt;php -->
<g id="edge48" class="edge">
<title>symfony/event&#45;dispatcher&#45;&gt;php</title>
<path fill="none" stroke="#1a2833" d="M1132.96,-1745.94C1341.14,-1752.43 1745.58,-1765.04 1868.42,-1768.87"/>
<polygon fill="#1a2833" stroke="#1a2833" points="1868.33,-1772.37 1878.44,-1769.18 1868.55,-1765.37 1868.33,-1772.37"/>
<text text-anchor="middle" x="1638.68" y="-1769" font-family="Times,serif" font-size="10.00" fill="#767676">&gt;=8.2</text>
</g>
<!-- symfony/event&#45;dispatcher&#45;contracts -->
<g id="node34" class="node">
<title>symfony/event&#45;dispatcher&#45;contracts</title>
<path fill="#eeeeee" stroke="black" d="M1789.68,-1734C1789.68,-1734 1487.68,-1734 1487.68,-1734 1481.68,-1734 1475.68,-1728 1475.68,-1722 1475.68,-1722 1475.68,-1710 1475.68,-1710 1475.68,-1704 1481.68,-1698 1487.68,-1698 1487.68,-1698 1789.68,-1698 1789.68,-1698 1795.68,-1698 1801.68,-1704 1801.68,-1710 1801.68,-1710 1801.68,-1722 1801.68,-1722 1801.68,-1728 1795.68,-1734 1789.68,-1734"/>
<text text-anchor="middle" x="1638.68" y="-1712.3" font-family="Times,serif" font-size="14.00" fill="#314b5f">symfony/event&#45;dispatcher&#45;contracts: v3.6.0</text>
</g>
<!-- symfony/event&#45;dispatcher&#45;&gt;symfony/event&#45;dispatcher&#45;contracts -->
<g id="edge49" class="edge">
<title>symfony/event&#45;dispatcher&#45;&gt;symfony/event&#45;dispatcher&#45;contracts</title>
<path fill="none" stroke="#1a2833" d="M1132.83,-1730.23C1144.27,-1729.38 1155.68,-1728.62 1166.68,-1728 1265.46,-1722.42 1376.05,-1719.44 1465.24,-1717.84"/>
<polygon fill="#1a2833" stroke="#1a2833" points="1465.51,-1721.34 1475.45,-1717.66 1465.39,-1714.34 1465.51,-1721.34"/>
<text text-anchor="middle" x="1312.18" y="-1731" font-family="Times,serif" font-size="10.00" fill="#767676">^2.5|^3</text>
</g>
<!-- symfony/finder&#45;&gt;php -->
<g id="edge51" class="edge">
<title>symfony/finder&#45;&gt;php</title>
<path fill="none" stroke="#1a2833" d="M1093.89,-1622.44C1242.3,-1605.72 1552.11,-1583.63 1801.68,-1651 1830.27,-1658.72 1839.94,-1660.84 1860.68,-1682 1877.3,-1698.96 1888.84,-1723.45 1895.92,-1742.29"/>
<polygon fill="#1a2833" stroke="#1a2833" points="1892.66,-1743.57 1899.31,-1751.82 1899.26,-1741.23 1892.66,-1743.57"/>
<text text-anchor="middle" x="1638.68" y="-1654" font-family="Times,serif" font-size="10.00" fill="#767676">&gt;=8.2</text>
</g>
<!-- symfony/http&#45;client&#45;&gt;php -->
<g id="edge53" class="edge">
<title>symfony/http&#45;client&#45;&gt;php</title>
<path fill="none" stroke="#1a2833" d="M1110.62,-2137.01C1202.06,-2138.25 1338.76,-2138.79 1457.68,-2134 1610.91,-2127.83 1661.01,-2168.1 1801.68,-2107 1834.28,-2092.84 1843.89,-2084.33 1860.68,-2053 1884.16,-2009.18 1897.81,-1861.11 1902.65,-1798.42"/>
<polygon fill="#1a2833" stroke="#1a2833" points="1906.17,-1798.32 1903.43,-1788.09 1899.19,-1797.8 1906.17,-1798.32"/>
<text text-anchor="middle" x="1638.68" y="-2144" font-family="Times,serif" font-size="10.00" fill="#767676">&gt;=8.2</text>
</g>
<!-- symfony/http&#45;client&#45;&gt;psr/log -->
<g id="edge54" class="edge">
<title>symfony/http&#45;client&#45;&gt;psr/log</title>
<path fill="none" stroke="#1a2833" d="M1110.42,-2127.13C1232.86,-2117.82 1424.13,-2103.16 1457.68,-2100 1495.83,-2096.4 1538.46,-2091.69 1572.65,-2087.75"/>
<polygon fill="#1a2833" stroke="#1a2833" points="1573.45,-2091.18 1582.98,-2086.56 1572.64,-2084.23 1573.45,-2091.18"/>
<text text-anchor="middle" x="1312.18" y="-2125" font-family="Times,serif" font-size="10.00" fill="#767676">^1|^2|^3</text>
</g>
<!-- symfony/http&#45;client&#45;&gt;symfony/deprecation&#45;contracts -->
<g id="edge55" class="edge">
<title>symfony/http&#45;client&#45;&gt;symfony/deprecation&#45;contracts</title>
<path fill="none" stroke="#1a2833" d="M1017.13,-2116.81C1039.34,-2080.05 1095.11,-1997.26 1166.68,-1960 1224.52,-1929.88 1413.73,-1970.19 1457.68,-1922 1493.41,-1882.81 1441.83,-1485.84 1475.68,-1445 1479.69,-1440.16 1484.19,-1435.88 1489.06,-1432.09"/>
<polygon fill="#1a2833" stroke="#1a2833" points="1491.38,-1434.75 1497.61,-1426.18 1487.39,-1428.99 1491.38,-1434.75"/>
<text text-anchor="middle" x="1312.18" y="-1963" font-family="Times,serif" font-size="10.00" fill="#767676">^2.5|^3</text>
</g>
<!-- symfony/http&#45;client&#45;&gt;symfony/service&#45;contracts -->
<g id="edge57" class="edge">
<title>symfony/http&#45;client&#45;&gt;symfony/service&#45;contracts</title>
<path fill="none" stroke="#1a2833" d="M1020.56,-2116.64C1045.69,-2085.02 1102.15,-2021.07 1166.68,-1994 1226.46,-1968.92 1412.38,-2019.39 1457.68,-1973 1486.66,-1943.31 1448.57,-1631.41 1475.68,-1600 1482.77,-1591.78 1491.32,-1585.29 1500.73,-1580.2"/>
<polygon fill="#1a2833" stroke="#1a2833" points="1502.5,-1583.23 1509.99,-1575.73 1499.47,-1576.92 1502.5,-1583.23"/>
<text text-anchor="middle" x="1312.18" y="-1997" font-family="Times,serif" font-size="10.00" fill="#767676">^2.5|^3</text>
</g>
<!-- symfony/http&#45;client&#45;contracts -->
<g id="node37" class="node">
<title>symfony/http&#45;client&#45;contracts</title>
<path fill="#eeeeee" stroke="black" d="M1766.68,-2199C1766.68,-2199 1510.68,-2199 1510.68,-2199 1504.68,-2199 1498.68,-2193 1498.68,-2187 1498.68,-2187 1498.68,-2175 1498.68,-2175 1498.68,-2169 1504.68,-2163 1510.68,-2163 1510.68,-2163 1766.68,-2163 1766.68,-2163 1772.68,-2163 1778.68,-2169 1778.68,-2175 1778.68,-2175 1778.68,-2187 1778.68,-2187 1778.68,-2193 1772.68,-2199 1766.68,-2199"/>
<text text-anchor="middle" x="1638.68" y="-2177.3" font-family="Times,serif" font-size="14.00" fill="#314b5f">symfony/http&#45;client&#45;contracts: v3.6.0</text>
</g>
<!-- symfony/http&#45;client&#45;&gt;symfony/http&#45;client&#45;contracts -->
<g id="edge56" class="edge">
<title>symfony/http&#45;client&#45;&gt;symfony/http&#45;client&#45;contracts</title>
<path fill="none" stroke="#1a2833" d="M1110.2,-2152.11C1128.95,-2154.76 1148.37,-2157.2 1166.68,-2159 1274.07,-2169.53 1395.75,-2175.05 1488.53,-2177.93"/>
<polygon fill="#1a2833" stroke="#1a2833" points="1488.45,-2181.43 1498.55,-2178.23 1488.66,-2174.43 1488.45,-2181.43"/>
<text text-anchor="middle" x="1312.18" y="-2179" font-family="Times,serif" font-size="10.00" fill="#767676">~3.4.4|^3.5.2</text>
</g>
<!-- symfony/messenger&#45;&gt;php -->
<g id="edge59" class="edge">
<title>symfony/messenger&#45;&gt;php</title>
<path fill="none" stroke="#1a2833" d="M1111.78,-1930.11C1312.58,-1933.72 1736.65,-1939.26 1801.68,-1923 1830.41,-1915.81 1841.22,-1914.34 1860.68,-1892 1884.05,-1865.17 1895.33,-1824.98 1900.54,-1798.14"/>
<polygon fill="#1a2833" stroke="#1a2833" points="1904,-1798.68 1902.31,-1788.22 1897.11,-1797.45 1904,-1798.68"/>
<text text-anchor="middle" x="1638.68" y="-1937" font-family="Times,serif" font-size="10.00" fill="#767676">&gt;=8.2</text>
</g>
<!-- symfony/messenger&#45;&gt;psr/log -->
<g id="edge60" class="edge">
<title>symfony/messenger&#45;&gt;psr/log</title>
<path fill="none" stroke="#1a2833" d="M1024.92,-1946.03C1052.78,-1972.25 1108.79,-2020.07 1166.68,-2041 1227.68,-2063.05 1393.03,-2058.57 1457.68,-2064 1495.78,-2067.2 1538.41,-2070.98 1572.61,-2074.06"/>
<polygon fill="#1a2833" stroke="#1a2833" points="1572.67,-2077.58 1582.94,-2074.99 1573.3,-2070.61 1572.67,-2077.58"/>
<text text-anchor="middle" x="1312.18" y="-2067" font-family="Times,serif" font-size="10.00" fill="#767676">^1|^2|^3</text>
</g>
<!-- symfony/messenger&#45;&gt;symfony/deprecation&#45;contracts -->
<g id="edge62" class="edge">
<title>symfony/messenger&#45;&gt;symfony/deprecation&#45;contracts</title>
<path fill="none" stroke="#1a2833" d="M1030.74,-1909.83C1064,-1883.12 1122.85,-1829.81 1148.68,-1769 1169.76,-1719.36 1129.88,-1566.43 1166.68,-1527 1255.83,-1431.46 1353.31,-1563.63 1457.68,-1485 1473.25,-1473.27 1460.59,-1457.35 1475.68,-1445 1482.57,-1439.36 1490.15,-1434.53 1498.17,-1430.42"/>
<polygon fill="#1a2833" stroke="#1a2833" points="1499.83,-1433.5 1507.38,-1426.07 1496.84,-1427.17 1499.83,-1433.5"/>
<text text-anchor="middle" x="1312.18" y="-1530" font-family="Times,serif" font-size="10.00" fill="#767676">^2.5|^3</text>
</g>
<!-- symfony/clock -->
<g id="node39" class="node">
<title>symfony/clock</title>
<path fill="#eeeeee" stroke="black" d="M1711.68,-2044C1711.68,-2044 1565.68,-2044 1565.68,-2044 1559.68,-2044 1553.68,-2038 1553.68,-2032 1553.68,-2032 1553.68,-2020 1553.68,-2020 1553.68,-2014 1559.68,-2008 1565.68,-2008 1565.68,-2008 1711.68,-2008 1711.68,-2008 1717.68,-2008 1723.68,-2014 1723.68,-2020 1723.68,-2020 1723.68,-2032 1723.68,-2032 1723.68,-2038 1717.68,-2044 1711.68,-2044"/>
<text text-anchor="middle" x="1638.68" y="-2022.3" font-family="Times,serif" font-size="14.00" fill="#314b5f">symfony/clock: v7.3.0</text>
</g>
<!-- symfony/messenger&#45;&gt;symfony/clock -->
<g id="edge61" class="edge">
<title>symfony/messenger&#45;&gt;symfony/clock</title>
<path fill="none" stroke="#1a2833" d="M1034.18,-1946.07C1064.99,-1965.21 1117.14,-1994.38 1166.68,-2007 1235.28,-2024.48 1426.32,-2027.01 1542.94,-2026.81"/>
<polygon fill="#1a2833" stroke="#1a2833" points="1543.3,-2030.31 1553.29,-2026.79 1543.28,-2023.31 1543.3,-2030.31"/>
<text text-anchor="middle" x="1312.18" y="-2029" font-family="Times,serif" font-size="10.00" fill="#767676">^6.4|^7.0</text>
</g>
<!-- symfony/polyfill&#45;php84&#45;&gt;php -->
<g id="edge64" class="edge">
<title>symfony/polyfill&#45;php84&#45;&gt;php</title>
<path fill="none" stroke="#1a2833" d="M1432.9,-1903.83C1572.8,-1911.72 1793.72,-1915.9 1860.68,-1870 1884.42,-1853.72 1895.47,-1821.6 1900.54,-1798.14"/>
<polygon fill="#1a2833" stroke="#1a2833" points="1904.03,-1798.54 1902.47,-1788.06 1897.15,-1797.22 1904.03,-1798.54"/>
<text text-anchor="middle" x="1638.68" y="-1911" font-family="Times,serif" font-size="10.00" fill="#767676">&gt;=7.2</text>
</g>
<!-- symfony/process&#45;&gt;php -->
<g id="edge66" class="edge">
<title>symfony/process&#45;&gt;php</title>
<path fill="none" stroke="#1a2833" d="M844.99,-1824.97C1028.66,-1820.92 1448.59,-1811.35 1801.68,-1801 1827.9,-1800.23 1835.68,-1806.96 1860.68,-1799 1865.01,-1797.62 1869.32,-1795.68 1873.45,-1793.45"/>
<polygon fill="#1a2833" stroke="#1a2833" points="1875.39,-1796.37 1882.15,-1788.22 1871.78,-1790.38 1875.39,-1796.37"/>
<text text-anchor="middle" x="1312.18" y="-1820" font-family="Times,serif" font-size="10.00" fill="#767676">&gt;=8.2</text>
</g>
<!-- symfony/requirements&#45;checker&#45;&gt;php -->
<g id="edge68" class="edge">
<title>symfony/requirements&#45;checker&#45;&gt;php</title>
<path fill="none" stroke="#1a2833" d="M1457.73,-1786.27C1554.96,-1786.31 1686.02,-1786.1 1801.68,-1785 1827.9,-1784.75 1834.8,-1788.24 1860.68,-1784 1863.33,-1783.57 1866.04,-1783 1868.75,-1782.36"/>
<polygon fill="#1a2833" stroke="#1a2833" points="1869.73,-1785.72 1878.46,-1779.71 1867.89,-1778.97 1869.73,-1785.72"/>
<text text-anchor="middle" x="1638.68" y="-1789" font-family="Times,serif" font-size="10.00" fill="#767676">&gt;=5.3.9</text>
</g>
<!-- symfony/stopwatch&#45;&gt;php -->
<g id="edge70" class="edge">
<title>symfony/stopwatch&#45;&gt;php</title>
<path fill="none" stroke="#1a2833" d="M1109.87,-1682.48C1310.44,-1672.37 1738.81,-1654.01 1801.68,-1678 1836.19,-1691.17 1866.47,-1721.81 1885.11,-1744.13"/>
<polygon fill="#1a2833" stroke="#1a2833" points="1882.42,-1746.36 1891.44,-1751.92 1887.85,-1741.95 1882.42,-1746.36"/>
<text text-anchor="middle" x="1638.68" y="-1681" font-family="Times,serif" font-size="10.00" fill="#767676">&gt;=8.2</text>
</g>
<!-- symfony/stopwatch&#45;&gt;symfony/service&#45;contracts -->
<g id="edge71" class="edge">
<title>symfony/stopwatch&#45;&gt;symfony/service&#45;contracts</title>
<path fill="none" stroke="#1a2833" d="M1107.36,-1669.93C1121.27,-1667.12 1135.36,-1664.11 1148.68,-1661 1156.76,-1659.11 1158.59,-1657.88 1166.68,-1656 1284.66,-1628.64 1420.79,-1603.94 1516.27,-1587.72"/>
<polygon fill="#1a2833" stroke="#1a2833" points="1516.97,-1591.15 1526.25,-1586.03 1515.8,-1584.25 1516.97,-1591.15"/>
<text text-anchor="middle" x="1312.18" y="-1659" font-family="Times,serif" font-size="10.00" fill="#767676">^2.5|^3</text>
</g>
<!-- symfony/framework&#45;bundle&#45;&gt;php -->
<g id="edge75" class="edge">
<title>symfony/framework&#45;bundle&#45;&gt;php</title>
<path fill="none" stroke="#1a2833" d="M532.49,-1324.81C564.3,-1303.32 613.75,-1264.42 637.68,-1217 653.19,-1186.24 631.69,-1087.73 655.68,-1063 685.23,-1032.52 803.9,-1046.84 844.68,-1035 853.08,-1032.56 854.17,-1029.07 862.68,-1027 964.11,-1002.32 1716.62,-935.48 1801.68,-996 1866.84,-1042.36 1844.52,-1087.67 1860.68,-1166 1905.68,-1384.23 1906.33,-1655.09 1905.21,-1741.87"/>
<polygon fill="#1a2833" stroke="#1a2833" points="1901.71,-1741.93 1905.07,-1751.98 1908.71,-1742.03 1901.71,-1741.93"/>
<text text-anchor="middle" x="1312.18" y="-993" font-family="Times,serif" font-size="10.00" fill="#767676">&gt;=8.2</text>
</g>
<!-- symfony/framework&#45;bundle&#45;&gt;composer&#45;runtime&#45;api -->
<g id="edge73" class="edge">
<title>symfony/framework&#45;bundle&#45;&gt;composer&#45;runtime&#45;api</title>
<path fill="none" stroke="#1a2833" d="M505.96,-1324.95C515.49,-1269.85 552.1,-1102.79 655.68,-1024 675.72,-1008.75 812.85,-987.65 909.12,-974.42"/>
<polygon fill="#1a2833" stroke="#1a2833" points="909.74,-977.87 919.18,-973.04 908.79,-970.93 909.74,-977.87"/>
<text text-anchor="middle" x="750.18" y="-1027" font-family="Times,serif" font-size="10.00" fill="#767676">&gt;=2.1</text>
</g>
<!-- symfony/framework&#45;bundle&#45;&gt;symfony/cache -->
<g id="edge76" class="edge">
<title>symfony/framework&#45;bundle&#45;&gt;symfony/cache</title>
<path fill="none" stroke="#1a2833" d="M521.36,-1361.16C554.83,-1394.24 625.55,-1462.35 655.68,-1478 732.3,-1517.81 772.94,-1474.94 844.68,-1523 856.05,-1530.62 851.26,-1540.45 862.68,-1548 876.29,-1557 892.08,-1563.5 908.07,-1568.18"/>
<polygon fill="#1a2833" stroke="#1a2833" points="907.47,-1571.65 918.04,-1570.87 909.29,-1564.89 907.47,-1571.65"/>
<text text-anchor="middle" x="750.18" y="-1526" font-family="Times,serif" font-size="10.00" fill="#767676">^6.4|^7.0</text>
</g>
<!-- symfony/framework&#45;bundle&#45;&gt;symfony/deprecation&#45;contracts -->
<g id="edge79" class="edge">
<title>symfony/framework&#45;bundle&#45;&gt;symfony/deprecation&#45;contracts</title>
<path fill="none" stroke="#1a2833" d="M522.59,-1361.22C549.96,-1385.76 602.5,-1428.8 655.68,-1450 734.55,-1481.45 773.33,-1431.94 844.68,-1478 857.1,-1486.02 849.69,-1498.91 862.68,-1506 918.46,-1536.46 1099.53,-1546.29 1148.68,-1506 1180.22,-1480.14 1135.35,-1442.13 1166.68,-1416 1190.77,-1395.9 1355.25,-1397.03 1483.13,-1401.15"/>
<polygon fill="#1a2833" stroke="#1a2833" points="1483.33,-1404.66 1493.44,-1401.49 1483.56,-1397.66 1483.33,-1404.66"/>
<text text-anchor="middle" x="1005.68" y="-1535" font-family="Times,serif" font-size="10.00" fill="#767676">^2.5|^3</text>
</g>
<!-- symfony/framework&#45;bundle&#45;&gt;symfony/config -->
<g id="edge77" class="edge">
<title>symfony/framework&#45;bundle&#45;&gt;symfony/config</title>
<path fill="none" stroke="#1a2833" d="M533.25,-1361.03C563.2,-1378.09 611.01,-1402.97 655.68,-1416 736.91,-1439.69 765.88,-1408.14 844.68,-1439 853.86,-1442.6 853.61,-1448.1 862.68,-1452 876.57,-1457.99 891.8,-1462.65 906.96,-1466.28"/>
<polygon fill="#1a2833" stroke="#1a2833" points="906.37,-1469.74 916.9,-1468.52 907.91,-1462.91 906.37,-1469.74"/>
<text text-anchor="middle" x="750.18" y="-1442" font-family="Times,serif" font-size="10.00" fill="#767676">^7.3</text>
</g>
<!-- symfony/framework&#45;bundle&#45;&gt;symfony/filesystem -->
<g id="edge82" class="edge">
<title>symfony/framework&#45;bundle&#45;&gt;symfony/filesystem</title>
<path fill="none" stroke="#1a2833" d="M512.33,-1324.92C532.53,-1287 584.83,-1199.22 655.68,-1157 736.17,-1109.03 769.4,-1125.93 862.68,-1117 1126.17,-1091.78 1196.33,-1101.03 1457.68,-1143 1492.61,-1148.61 1530.79,-1157.35 1562.96,-1165.49"/>
<polygon fill="#1a2833" stroke="#1a2833" points="1562.19,-1168.9 1572.74,-1167.99 1563.92,-1162.12 1562.19,-1168.9"/>
<text text-anchor="middle" x="1005.68" y="-1120" font-family="Times,serif" font-size="10.00" fill="#767676">^7.1</text>
</g>
<!-- symfony/framework&#45;bundle&#45;&gt;symfony/dependency&#45;injection -->
<g id="edge78" class="edge">
<title>symfony/framework&#45;bundle&#45;&gt;symfony/dependency&#45;injection</title>
<path fill="none" stroke="#1a2833" d="M507.63,-1324.77C520.66,-1275.73 563.77,-1140.83 655.68,-1083 672.78,-1072.24 766.3,-1064.83 852.22,-1060.2"/>
<polygon fill="#1a2833" stroke="#1a2833" points="852.58,-1063.68 862.38,-1059.66 852.21,-1056.69 852.58,-1063.68"/>
<text text-anchor="middle" x="750.18" y="-1086" font-family="Times,serif" font-size="10.00" fill="#767676">^7.2</text>
</g>
<!-- symfony/framework&#45;bundle&#45;&gt;symfony/event&#45;dispatcher -->
<g id="edge81" class="edge">
<title>symfony/framework&#45;bundle&#45;&gt;symfony/event&#45;dispatcher</title>
<path fill="none" stroke="#1a2833" d="M532.55,-1361.09C564.17,-1382.28 613.22,-1420.47 637.68,-1467 664,-1517.07 624.2,-1546 655.68,-1593 715.1,-1681.73 762.74,-1677.36 862.68,-1715 868.53,-1717.21 874.59,-1719.24 880.77,-1721.11"/>
<polygon fill="#1a2833" stroke="#1a2833" points="879.97,-1724.52 890.55,-1723.92 881.9,-1717.79 879.97,-1724.52"/>
<text text-anchor="middle" x="750.18" y="-1709" font-family="Times,serif" font-size="10.00" fill="#767676">^6.4|^7.0</text>
</g>
<!-- symfony/framework&#45;bundle&#45;&gt;symfony/finder -->
<g id="edge83" class="edge">
<title>symfony/framework&#45;bundle&#45;&gt;symfony/finder</title>
<path fill="none" stroke="#1a2833" d="M530.8,-1361.02C561.57,-1382.55 610.54,-1421.43 637.68,-1467 654.33,-1494.97 632.43,-1515.21 655.68,-1538 717.25,-1598.39 772.9,-1534.18 844.68,-1582 856.07,-1589.59 851.13,-1599.64 862.68,-1607 876.17,-1615.6 891.75,-1621.59 907.55,-1625.74"/>
<polygon fill="#1a2833" stroke="#1a2833" points="906.85,-1629.17 917.39,-1628.09 908.48,-1622.36 906.85,-1629.17"/>
<text text-anchor="middle" x="750.18" y="-1585" font-family="Times,serif" font-size="10.00" fill="#767676">^6.4|^7.0</text>
</g>
<!-- ext&#45;xml -->
<g id="node45" class="node">
<title>ext&#45;xml</title>
<path fill="#eeeeee" stroke="black" d="M1028.68,-1443C1028.68,-1443 982.68,-1443 982.68,-1443 976.68,-1443 970.68,-1437 970.68,-1431 970.68,-1431 970.68,-1419 970.68,-1419 970.68,-1413 976.68,-1407 982.68,-1407 982.68,-1407 1028.68,-1407 1028.68,-1407 1034.68,-1407 1040.68,-1413 1040.68,-1419 1040.68,-1419 1040.68,-1431 1040.68,-1431 1040.68,-1437 1034.68,-1443 1028.68,-1443"/>
<text text-anchor="middle" x="1005.68" y="-1421.3" font-family="Times,serif" font-size="14.00" fill="#314b5f">ext&#45;xml</text>
</g>
<!-- symfony/framework&#45;bundle&#45;&gt;ext&#45;xml -->
<g id="edge74" class="edge">
<title>symfony/framework&#45;bundle&#45;&gt;ext&#45;xml</title>
<path fill="none" stroke="#1a2833" d="M581.32,-1361.07C605.12,-1366.26 631.41,-1371.68 655.68,-1376 713.32,-1386.27 879.87,-1408.57 960.24,-1419.18"/>
<polygon fill="#1a2833" stroke="#1a2833" points="960.16,-1422.7 970.53,-1420.53 961.07,-1415.76 960.16,-1422.7"/>
<text text-anchor="middle" x="750.18" y="-1406" font-family="Times,serif" font-size="10.00" fill="#767676">*</text>
</g>
<!-- symfony/error&#45;handler -->
<g id="node46" class="node">
<title>symfony/error&#45;handler</title>
<path fill="#eeeeee" stroke="black" d="M1108.68,-1389C1108.68,-1389 902.68,-1389 902.68,-1389 896.68,-1389 890.68,-1383 890.68,-1377 890.68,-1377 890.68,-1365 890.68,-1365 890.68,-1359 896.68,-1353 902.68,-1353 902.68,-1353 1108.68,-1353 1108.68,-1353 1114.68,-1353 1120.68,-1359 1120.68,-1365 1120.68,-1365 1120.68,-1377 1120.68,-1377 1120.68,-1383 1114.68,-1389 1108.68,-1389"/>
<text text-anchor="middle" x="1005.68" y="-1367.3" font-family="Times,serif" font-size="14.00" fill="#314b5f">symfony/error&#45;handler: v7.3.1</text>
</g>
<!-- symfony/framework&#45;bundle&#45;&gt;symfony/error&#45;handler -->
<g id="edge80" class="edge">
<title>symfony/framework&#45;bundle&#45;&gt;symfony/error&#45;handler</title>
<path fill="none" stroke="#1a2833" d="M634.94,-1350.36C710.75,-1354.59 805.44,-1359.88 880.02,-1364.04"/>
<polygon fill="#1a2833" stroke="#1a2833" points="880.22,-1367.56 890.4,-1364.62 880.61,-1360.57 880.22,-1367.56"/>
<text text-anchor="middle" x="750.18" y="-1364" font-family="Times,serif" font-size="10.00" fill="#767676">^7.3</text>
</g>
<!-- symfony/http&#45;foundation -->
<g id="node47" class="node">
<title>symfony/http&#45;foundation</title>
<path fill="#eeeeee" stroke="black" d="M1116.18,-1335C1116.18,-1335 895.18,-1335 895.18,-1335 889.18,-1335 883.18,-1329 883.18,-1323 883.18,-1323 883.18,-1311 883.18,-1311 883.18,-1305 889.18,-1299 895.18,-1299 895.18,-1299 1116.18,-1299 1116.18,-1299 1122.18,-1299 1128.18,-1305 1128.18,-1311 1128.18,-1311 1128.18,-1323 1128.18,-1323 1128.18,-1329 1122.18,-1335 1116.18,-1335"/>
<text text-anchor="middle" x="1005.68" y="-1313.3" font-family="Times,serif" font-size="14.00" fill="#314b5f">symfony/http&#45;foundation: v7.3.1</text>
</g>
<!-- symfony/framework&#45;bundle&#45;&gt;symfony/http&#45;foundation -->
<g id="edge84" class="edge">
<title>symfony/framework&#45;bundle&#45;&gt;symfony/http&#45;foundation</title>
<path fill="none" stroke="#1a2833" d="M634.94,-1336.17C708.25,-1332.37 799.23,-1327.65 872.59,-1323.85"/>
<polygon fill="#1a2833" stroke="#1a2833" points="873.02,-1327.33 882.82,-1323.32 872.65,-1320.34 873.02,-1327.33"/>
<text text-anchor="middle" x="750.18" y="-1337" font-family="Times,serif" font-size="10.00" fill="#767676">^7.3</text>
</g>
<!-- symfony/http&#45;kernel -->
<g id="node48" class="node">
<title>symfony/http&#45;kernel</title>
<path fill="#eeeeee" stroke="black" d="M1100.68,-1281C1100.68,-1281 910.68,-1281 910.68,-1281 904.68,-1281 898.68,-1275 898.68,-1269 898.68,-1269 898.68,-1257 898.68,-1257 898.68,-1251 904.68,-1245 910.68,-1245 910.68,-1245 1100.68,-1245 1100.68,-1245 1106.68,-1245 1112.68,-1251 1112.68,-1257 1112.68,-1257 1112.68,-1269 1112.68,-1269 1112.68,-1275 1106.68,-1281 1100.68,-1281"/>
<text text-anchor="middle" x="1005.68" y="-1259.3" font-family="Times,serif" font-size="14.00" fill="#314b5f">symfony/http&#45;kernel: v7.3.1</text>
</g>
<!-- symfony/framework&#45;bundle&#45;&gt;symfony/http&#45;kernel -->
<g id="edge85" class="edge">
<title>symfony/framework&#45;bundle&#45;&gt;symfony/http&#45;kernel</title>
<path fill="none" stroke="#1a2833" d="M580.91,-1324.93C604.82,-1319.71 631.26,-1314.28 655.68,-1310 732.86,-1296.47 820.24,-1284.71 888.26,-1276.34"/>
<polygon fill="#1a2833" stroke="#1a2833" points="889.08,-1279.76 898.58,-1275.07 888.23,-1272.81 889.08,-1279.76"/>
<text text-anchor="middle" x="750.18" y="-1313" font-family="Times,serif" font-size="10.00" fill="#767676">^7.2</text>
</g>
<!-- symfony/polyfill&#45;mbstring -->
<g id="node49" class="node">
<title>symfony/polyfill&#45;mbstring</title>
<path fill="#eeeeee" stroke="black" d="M1124.18,-1227C1124.18,-1227 887.18,-1227 887.18,-1227 881.18,-1227 875.18,-1221 875.18,-1215 875.18,-1215 875.18,-1203 875.18,-1203 875.18,-1197 881.18,-1191 887.18,-1191 887.18,-1191 1124.18,-1191 1124.18,-1191 1130.18,-1191 1136.18,-1197 1136.18,-1203 1136.18,-1203 1136.18,-1215 1136.18,-1215 1136.18,-1221 1130.18,-1227 1124.18,-1227"/>
<text text-anchor="middle" x="1005.68" y="-1205.3" font-family="Times,serif" font-size="14.00" fill="#314b5f">symfony/polyfill&#45;mbstring: v1.32.0</text>
</g>
<!-- symfony/framework&#45;bundle&#45;&gt;symfony/polyfill&#45;mbstring -->
<g id="edge86" class="edge">
<title>symfony/framework&#45;bundle&#45;&gt;symfony/polyfill&#45;mbstring</title>
<path fill="none" stroke="#1a2833" d="M532.71,-1324.95C562.64,-1307.47 610.79,-1281.55 655.68,-1267 722.78,-1245.24 799.92,-1231.33 864.59,-1222.61"/>
<polygon fill="#1a2833" stroke="#1a2833" points="865.4,-1226.03 874.86,-1221.25 864.48,-1219.09 865.4,-1226.03"/>
<text text-anchor="middle" x="750.18" y="-1270" font-family="Times,serif" font-size="10.00" fill="#767676">~1.0</text>
</g>
<!-- symfony/routing -->
<g id="node50" class="node">
<title>symfony/routing</title>
<path fill="#eeeeee" stroke="black" d="M1087.18,-1173C1087.18,-1173 924.18,-1173 924.18,-1173 918.18,-1173 912.18,-1167 912.18,-1161 912.18,-1161 912.18,-1149 912.18,-1149 912.18,-1143 918.18,-1137 924.18,-1137 924.18,-1137 1087.18,-1137 1087.18,-1137 1093.18,-1137 1099.18,-1143 1099.18,-1149 1099.18,-1149 1099.18,-1161 1099.18,-1161 1099.18,-1167 1093.18,-1173 1087.18,-1173"/>
<text text-anchor="middle" x="1005.68" y="-1151.3" font-family="Times,serif" font-size="14.00" fill="#314b5f">symfony/routing: v7.3.0</text>
</g>
<!-- symfony/framework&#45;bundle&#45;&gt;symfony/routing -->
<g id="edge87" class="edge">
<title>symfony/framework&#45;bundle&#45;&gt;symfony/routing</title>
<path fill="none" stroke="#1a2833" d="M517.87,-1324.81C542.79,-1295.33 596.47,-1237.64 655.68,-1210 733.15,-1173.83 829.73,-1160.75 901.64,-1156.33"/>
<polygon fill="#1a2833" stroke="#1a2833" points="902.28,-1159.8 912.06,-1155.74 901.88,-1152.81 902.28,-1159.8"/>
<text text-anchor="middle" x="750.18" y="-1213" font-family="Times,serif" font-size="10.00" fill="#767676">^6.4|^7.0</text>
</g>
<!-- bamarni/composer&#45;bin&#45;plugin&#45;&gt;php -->
<g id="edge90" class="edge">
<title>bamarni/composer&#45;bin&#45;plugin&#45;&gt;php</title>
<path fill="none" stroke="#1a2833" d="M637.81,-273.13C798.21,-257.1 1056.13,-237.13 1148.68,-263 1475.56,-354.37 1605.38,-382.1 1801.68,-659 1875.23,-762.75 1844.15,-812.9 1860.68,-939 1901.65,-1251.68 1904.74,-1635.28 1904.76,-1741.55"/>
<polygon fill="#1a2833" stroke="#1a2833" points="1901.26,-1741.77 1904.75,-1751.78 1908.26,-1741.78 1901.26,-1741.77"/>
<text text-anchor="middle" x="1312.18" y="-360" font-family="Times,serif" font-size="10.00" fill="#767676">^7.2.5 || ^8.0</text>
</g>
<!-- composer&#45;plugin&#45;api -->
<g id="node52" class="node">
<title>composer&#45;plugin&#45;api</title>
<path fill="#eeeeee" stroke="black" d="M1074.18,-216C1074.18,-216 937.18,-216 937.18,-216 931.18,-216 925.18,-210 925.18,-204 925.18,-204 925.18,-192 925.18,-192 925.18,-186 931.18,-180 937.18,-180 937.18,-180 1074.18,-180 1074.18,-180 1080.18,-180 1086.18,-186 1086.18,-192 1086.18,-192 1086.18,-204 1086.18,-204 1086.18,-210 1080.18,-216 1074.18,-216"/>
<text text-anchor="middle" x="1005.68" y="-194.3" font-family="Times,serif" font-size="14.00" fill="#314b5f">composer&#45;plugin&#45;api</text>
</g>
<!-- bamarni/composer&#45;bin&#45;plugin&#45;&gt;composer&#45;plugin&#45;api -->
<g id="edge89" class="edge">
<title>bamarni/composer&#45;bin&#45;plugin&#45;&gt;composer&#45;plugin&#45;api</title>
<path fill="none" stroke="#1a2833" d="M624.67,-269.84C629.25,-267.24 633.61,-264.3 637.68,-261 653.44,-248.2 639.06,-230.68 655.68,-219 730.75,-166.19 838.9,-168.44 914.86,-179.13"/>
<polygon fill="#1a2833" stroke="#1a2833" points="914.48,-182.61 924.89,-180.62 915.51,-175.69 914.48,-182.61"/>
<text text-anchor="middle" x="750.18" y="-222" font-family="Times,serif" font-size="10.00" fill="#767676">^2.0</text>
</g>
</g>
</svg>
