<?xml version="1.0" encoding="UTF-8" standalone="no"?>
<!DOCTYPE svg PUBLIC "-//W3C//DTD SVG 1.1//EN"
 "http://www.w3.org/Graphics/SVG/1.1/DTD/svg11.dtd">
<!-- Generated by graphviz version 2.43.0 (0)
 -->
<!-- Title: %3 Pages: 1 -->
<svg width="1486pt" height="2074pt"
 viewBox="0.00 0.00 1485.68 2073.80" xmlns="http://www.w3.org/2000/svg" xmlns:xlink="http://www.w3.org/1999/xlink">
<g id="graph0" class="graph" transform="scale(1 1) rotate(0) translate(4 2069.8)">
<title>%3</title>
<polygon fill="white" stroke="transparent" points="-4,4 -4,-2069.8 1481.68,-2069.8 1481.68,4 -4,4"/>
<g id="clust1" class="cluster">
<title>cluster_0</title>
<polygon fill="none" stroke="black" points="8,-8.8 8,-2057.8 1469.68,-2057.8 1469.68,-8.8 8,-8.8"/>
<text text-anchor="middle" x="738.84" y="-2042.6" font-family="Times,serif" font-size="14.00">0</text>
</g>
<!-- bartlett/php&#45;compatinfo&#45;db -->
<g id="node1" class="node">
<title>bartlett/php&#45;compatinfo&#45;db</title>
<ellipse fill="lightgrey" stroke="black" stroke-width="2" cx="151.84" cy="-967.8" rx="135.68" ry="18"/>
<text text-anchor="middle" x="151.84" y="-964.1" font-family="Times,serif" font-size="14.00">bartlett/php&#45;compatinfo&#45;db</text>
</g>
<!-- php -->
<g id="node2" class="node">
<title>php</title>
<path fill="#eeeeee" stroke="black" d="M1449.68,-1452.8C1449.68,-1452.8 1419.68,-1452.8 1419.68,-1452.8 1413.68,-1452.8 1407.68,-1446.8 1407.68,-1440.8 1407.68,-1440.8 1407.68,-1428.8 1407.68,-1428.8 1407.68,-1422.8 1413.68,-1416.8 1419.68,-1416.8 1419.68,-1416.8 1449.68,-1416.8 1449.68,-1416.8 1455.68,-1416.8 1461.68,-1422.8 1461.68,-1428.8 1461.68,-1428.8 1461.68,-1440.8 1461.68,-1440.8 1461.68,-1446.8 1455.68,-1452.8 1449.68,-1452.8"/>
<text text-anchor="middle" x="1434.68" y="-1431.1" font-family="Times,serif" font-size="14.00" fill="#314b5f">php</text>
</g>
<!-- bartlett/php&#45;compatinfo&#45;db&#45;&gt;php -->
<g id="edge1" class="edge">
<title>bartlett/php&#45;compatinfo&#45;db&#45;&gt;php</title>
<path fill="none" stroke="#1a2833" d="M154.07,-949.8C161.61,-844.73 204.46,-311.22 305.68,-188.8 452.51,-11.21 1111.57,39.57 1330.68,-31.8 1361.53,-41.85 1374.5,-46.12 1389.68,-74.8 1421.92,-135.74 1431.95,-1216.66 1433.46,-1406.47"/>
<polygon fill="#1a2833" stroke="#1a2833" points="1429.96,-1406.53 1433.54,-1416.5 1436.96,-1406.47 1429.96,-1406.53"/>
<text text-anchor="middle" x="841.18" y="-32.8" font-family="Times,serif" font-size="10.00" fill="#767676">8.2 &#45; 8.5</text>
</g>
<!-- ext&#45;json -->
<g id="node3" class="node">
<title>ext&#45;json</title>
<path fill="#eeeeee" stroke="black" d="M554.68,-202.8C554.68,-202.8 505.68,-202.8 505.68,-202.8 499.68,-202.8 493.68,-196.8 493.68,-190.8 493.68,-190.8 493.68,-178.8 493.68,-178.8 493.68,-172.8 499.68,-166.8 505.68,-166.8 505.68,-166.8 554.68,-166.8 554.68,-166.8 560.68,-166.8 566.68,-172.8 566.68,-178.8 566.68,-178.8 566.68,-190.8 566.68,-190.8 566.68,-196.8 560.68,-202.8 554.68,-202.8"/>
<text text-anchor="middle" x="530.18" y="-181.1" font-family="Times,serif" font-size="14.00" fill="#314b5f">ext&#45;json</text>
</g>
<!-- bartlett/php&#45;compatinfo&#45;db&#45;&gt;ext&#45;json -->
<g id="edge2" class="edge">
<title>bartlett/php&#45;compatinfo&#45;db&#45;&gt;ext&#45;json</title>
<path fill="none" stroke="#1a2833" d="M153.95,-949.76C160.65,-846.8 199.06,-334.54 305.68,-227.8 352.18,-181.25 432.75,-177.06 483.4,-179.83"/>
<polygon fill="#1a2833" stroke="#1a2833" points="483.21,-183.32 493.42,-180.49 483.67,-176.34 483.21,-183.32"/>
<text text-anchor="middle" x="335.18" y="-230.8" font-family="Times,serif" font-size="10.00" fill="#767676">*</text>
</g>
<!-- ext&#45;pcre -->
<g id="node4" class="node">
<title>ext&#45;pcre</title>
<path fill="#eeeeee" stroke="black" d="M555.68,-256.8C555.68,-256.8 504.68,-256.8 504.68,-256.8 498.68,-256.8 492.68,-250.8 492.68,-244.8 492.68,-244.8 492.68,-232.8 492.68,-232.8 492.68,-226.8 498.68,-220.8 504.68,-220.8 504.68,-220.8 555.68,-220.8 555.68,-220.8 561.68,-220.8 567.68,-226.8 567.68,-232.8 567.68,-232.8 567.68,-244.8 567.68,-244.8 567.68,-250.8 561.68,-256.8 555.68,-256.8"/>
<text text-anchor="middle" x="530.18" y="-235.1" font-family="Times,serif" font-size="14.00" fill="#314b5f">ext&#45;pcre</text>
</g>
<!-- bartlett/php&#45;compatinfo&#45;db&#45;&gt;ext&#45;pcre -->
<g id="edge3" class="edge">
<title>bartlett/php&#45;compatinfo&#45;db&#45;&gt;ext&#45;pcre</title>
<path fill="none" stroke="#1a2833" d="M154.17,-949.57C161.81,-849.98 203.44,-372.73 305.68,-275.8 352.81,-231.12 432.12,-228.69 482.5,-232.59"/>
<polygon fill="#1a2833" stroke="#1a2833" points="482.21,-236.08 492.48,-233.47 482.82,-229.1 482.21,-236.08"/>
<text text-anchor="middle" x="335.18" y="-278.8" font-family="Times,serif" font-size="10.00" fill="#767676">*</text>
</g>
<!-- ext&#45;pdo -->
<g id="node5" class="node">
<title>ext&#45;pdo</title>
<path fill="#eeeeee" stroke="black" d="M553.18,-310.8C553.18,-310.8 507.18,-310.8 507.18,-310.8 501.18,-310.8 495.18,-304.8 495.18,-298.8 495.18,-298.8 495.18,-286.8 495.18,-286.8 495.18,-280.8 501.18,-274.8 507.18,-274.8 507.18,-274.8 553.18,-274.8 553.18,-274.8 559.18,-274.8 565.18,-280.8 565.18,-286.8 565.18,-286.8 565.18,-298.8 565.18,-298.8 565.18,-304.8 559.18,-310.8 553.18,-310.8"/>
<text text-anchor="middle" x="530.18" y="-289.1" font-family="Times,serif" font-size="14.00" fill="#314b5f">ext&#45;pdo</text>
</g>
<!-- bartlett/php&#45;compatinfo&#45;db&#45;&gt;ext&#45;pdo -->
<g id="edge4" class="edge">
<title>bartlett/php&#45;compatinfo&#45;db&#45;&gt;ext&#45;pdo</title>
<path fill="none" stroke="#1a2833" d="M154.39,-949.78C163,-854.44 207.99,-409.88 305.68,-321.8 354.24,-278.02 434.64,-279.04 484.62,-285.03"/>
<polygon fill="#1a2833" stroke="#1a2833" points="484.43,-288.53 494.8,-286.37 485.34,-281.59 484.43,-288.53"/>
<text text-anchor="middle" x="335.18" y="-324.8" font-family="Times,serif" font-size="10.00" fill="#767676">*</text>
</g>
<!-- ext&#45;phar -->
<g id="node6" class="node">
<title>ext&#45;phar</title>
<path fill="#eeeeee" stroke="black" d="M556.68,-364.8C556.68,-364.8 503.68,-364.8 503.68,-364.8 497.68,-364.8 491.68,-358.8 491.68,-352.8 491.68,-352.8 491.68,-340.8 491.68,-340.8 491.68,-334.8 497.68,-328.8 503.68,-328.8 503.68,-328.8 556.68,-328.8 556.68,-328.8 562.68,-328.8 568.68,-334.8 568.68,-340.8 568.68,-340.8 568.68,-352.8 568.68,-352.8 568.68,-358.8 562.68,-364.8 556.68,-364.8"/>
<text text-anchor="middle" x="530.18" y="-343.1" font-family="Times,serif" font-size="14.00" fill="#314b5f">ext&#45;phar</text>
</g>
<!-- bartlett/php&#45;compatinfo&#45;db&#45;&gt;ext&#45;phar -->
<g id="edge5" class="edge">
<title>bartlett/php&#45;compatinfo&#45;db&#45;&gt;ext&#45;phar</title>
<path fill="none" stroke="#1a2833" d="M154.65,-949.73C164.25,-857.98 212.24,-445.06 305.68,-365.8 354.16,-324.68 431.7,-328.28 481.52,-336.28"/>
<polygon fill="#1a2833" stroke="#1a2833" points="480.95,-339.74 491.4,-337.99 482.14,-332.84 480.95,-339.74"/>
<text text-anchor="middle" x="335.18" y="-368.8" font-family="Times,serif" font-size="10.00" fill="#767676">*</text>
</g>
<!-- ext&#45;spl -->
<g id="node7" class="node">
<title>ext&#45;spl</title>
<path fill="#eeeeee" stroke="black" d="M550.68,-418.8C550.68,-418.8 509.68,-418.8 509.68,-418.8 503.68,-418.8 497.68,-412.8 497.68,-406.8 497.68,-406.8 497.68,-394.8 497.68,-394.8 497.68,-388.8 503.68,-382.8 509.68,-382.8 509.68,-382.8 550.68,-382.8 550.68,-382.8 556.68,-382.8 562.68,-388.8 562.68,-394.8 562.68,-394.8 562.68,-406.8 562.68,-406.8 562.68,-412.8 556.68,-418.8 550.68,-418.8"/>
<text text-anchor="middle" x="530.18" y="-397.1" font-family="Times,serif" font-size="14.00" fill="#314b5f">ext&#45;spl</text>
</g>
<!-- bartlett/php&#45;compatinfo&#45;db&#45;&gt;ext&#45;spl -->
<g id="edge6" class="edge">
<title>bartlett/php&#45;compatinfo&#45;db&#45;&gt;ext&#45;spl</title>
<path fill="none" stroke="#1a2833" d="M154.89,-949.61C165.29,-860.92 215.29,-475.21 305.68,-404.8 357.55,-364.39 438.67,-375.72 487.6,-388.01"/>
<polygon fill="#1a2833" stroke="#1a2833" points="486.96,-391.46 497.53,-390.62 488.75,-384.69 486.96,-391.46"/>
<text text-anchor="middle" x="335.18" y="-407.8" font-family="Times,serif" font-size="10.00" fill="#767676">*</text>
</g>
<!-- composer&#45;runtime&#45;api -->
<g id="node8" class="node">
<title>composer&#45;runtime&#45;api</title>
<path fill="#eeeeee" stroke="black" d="M1242.18,-119.8C1242.18,-119.8 1093.18,-119.8 1093.18,-119.8 1087.18,-119.8 1081.18,-113.8 1081.18,-107.8 1081.18,-107.8 1081.18,-95.8 1081.18,-95.8 1081.18,-89.8 1087.18,-83.8 1093.18,-83.8 1093.18,-83.8 1242.18,-83.8 1242.18,-83.8 1248.18,-83.8 1254.18,-89.8 1254.18,-95.8 1254.18,-95.8 1254.18,-107.8 1254.18,-107.8 1254.18,-113.8 1248.18,-119.8 1242.18,-119.8"/>
<text text-anchor="middle" x="1167.68" y="-98.1" font-family="Times,serif" font-size="14.00" fill="#314b5f">composer&#45;runtime&#45;api</text>
</g>
<!-- bartlett/php&#45;compatinfo&#45;db&#45;&gt;composer&#45;runtime&#45;api -->
<g id="edge7" class="edge">
<title>bartlett/php&#45;compatinfo&#45;db&#45;&gt;composer&#45;runtime&#45;api</title>
<path fill="none" stroke="#1a2833" d="M154.83,-949.64C164.05,-875.62 209.75,-595.4 382.68,-483.8 493.85,-412.06 587.69,-540.8 677.68,-443.8 723.25,-394.68 647.94,-189.83 695.68,-142.8 707.2,-131.45 970.57,-131.41 986.68,-129.8 1014.14,-127.06 1043.8,-122.93 1070.97,-118.69"/>
<polygon fill="#1a2833" stroke="#1a2833" points="1071.53,-122.14 1080.86,-117.12 1070.43,-115.23 1071.53,-122.14"/>
<text text-anchor="middle" x="530.18" y="-486.8" font-family="Times,serif" font-size="10.00" fill="#767676">^2.0</text>
</g>
<!-- composer/semver -->
<g id="node9" class="node">
<title>composer/semver</title>
<path fill="#eeeeee" stroke="black" d="M923.18,-120.8C923.18,-120.8 759.18,-120.8 759.18,-120.8 753.18,-120.8 747.18,-114.8 747.18,-108.8 747.18,-108.8 747.18,-96.8 747.18,-96.8 747.18,-90.8 753.18,-84.8 759.18,-84.8 759.18,-84.8 923.18,-84.8 923.18,-84.8 929.18,-84.8 935.18,-90.8 935.18,-96.8 935.18,-96.8 935.18,-108.8 935.18,-108.8 935.18,-114.8 929.18,-120.8 923.18,-120.8"/>
<text text-anchor="middle" x="841.18" y="-99.1" font-family="Times,serif" font-size="14.00" fill="#314b5f">composer/semver: 3.4.4</text>
</g>
<!-- bartlett/php&#45;compatinfo&#45;db&#45;&gt;composer/semver -->
<g id="edge9" class="edge">
<title>bartlett/php&#45;compatinfo&#45;db&#45;&gt;composer/semver</title>
<path fill="none" stroke="#1a2833" d="M155.56,-949.54C168.34,-866.3 225.22,-524.02 305.68,-458.8 370.12,-406.57 619.67,-487.11 677.68,-427.8 723.6,-380.85 652.69,-182.46 695.68,-132.8 706.58,-120.21 721.26,-112.08 737.1,-106.95"/>
<polygon fill="#1a2833" stroke="#1a2833" points="738.41,-110.22 747.09,-104.14 736.52,-103.48 738.41,-110.22"/>
<text text-anchor="middle" x="335.18" y="-461.8" font-family="Times,serif" font-size="10.00" fill="#767676">^3.0</text>
</g>
<!-- doctrine/orm -->
<g id="node10" class="node">
<title>doctrine/orm</title>
<path fill="#eeeeee" stroke="black" d="M595.18,-539.8C595.18,-539.8 465.18,-539.8 465.18,-539.8 459.18,-539.8 453.18,-533.8 453.18,-527.8 453.18,-527.8 453.18,-515.8 453.18,-515.8 453.18,-509.8 459.18,-503.8 465.18,-503.8 465.18,-503.8 595.18,-503.8 595.18,-503.8 601.18,-503.8 607.18,-509.8 607.18,-515.8 607.18,-515.8 607.18,-527.8 607.18,-527.8 607.18,-533.8 601.18,-539.8 595.18,-539.8"/>
<text text-anchor="middle" x="530.18" y="-518.1" font-family="Times,serif" font-size="14.00" fill="#314b5f">doctrine/orm: 3.6.4</text>
</g>
<!-- bartlett/php&#45;compatinfo&#45;db&#45;&gt;doctrine/orm -->
<g id="edge24" class="edge">
<title>bartlett/php&#45;compatinfo&#45;db&#45;&gt;doctrine/orm</title>
<path fill="none" stroke="#1a2833" d="M157.87,-949.72C172.83,-898.67 221.32,-751.16 305.68,-658.8 353.68,-606.24 426.47,-566.76 475.82,-544"/>
<polygon fill="#1a2833" stroke="#1a2833" points="477.4,-547.13 485.06,-539.81 474.51,-540.76 477.4,-547.13"/>
<text text-anchor="middle" x="335.18" y="-661.8" font-family="Times,serif" font-size="10.00" fill="#767676">^3.5</text>
</g>
<!-- doctrine/dbal -->
<g id="node12" class="node">
<title>doctrine/dbal</title>
<path fill="#eeeeee" stroke="black" d="M1233.68,-652.8C1233.68,-652.8 1101.68,-652.8 1101.68,-652.8 1095.68,-652.8 1089.68,-646.8 1089.68,-640.8 1089.68,-640.8 1089.68,-628.8 1089.68,-628.8 1089.68,-622.8 1095.68,-616.8 1101.68,-616.8 1101.68,-616.8 1233.68,-616.8 1233.68,-616.8 1239.68,-616.8 1245.68,-622.8 1245.68,-628.8 1245.68,-628.8 1245.68,-640.8 1245.68,-640.8 1245.68,-646.8 1239.68,-652.8 1233.68,-652.8"/>
<text text-anchor="middle" x="1167.68" y="-631.1" font-family="Times,serif" font-size="14.00" fill="#314b5f">doctrine/dbal: 4.4.3</text>
</g>
<!-- bartlett/php&#45;compatinfo&#45;db&#45;&gt;doctrine/dbal -->
<g id="edge25" class="edge">
<title>bartlett/php&#45;compatinfo&#45;db&#45;&gt;doctrine/dbal</title>
<path fill="none" stroke="#1a2833" d="M162.89,-949.86C190.67,-902.26 273.66,-772.66 382.68,-717.8 502.95,-657.28 855.73,-701.14 986.68,-669.8 995.19,-667.77 996.29,-664.32 1004.68,-661.8 1028.56,-654.63 1055.03,-649.21 1079.53,-645.18"/>
<polygon fill="#1a2833" stroke="#1a2833" points="1080.21,-648.61 1089.53,-643.59 1079.11,-641.7 1080.21,-648.61"/>
<text text-anchor="middle" x="530.18" y="-720.8" font-family="Times,serif" font-size="10.00" fill="#767676">^4.0</text>
</g>
<!-- symfony/console -->
<g id="node21" class="node">
<title>symfony/console</title>
<path fill="#eeeeee" stroke="black" d="M1249.68,-706.8C1249.68,-706.8 1085.68,-706.8 1085.68,-706.8 1079.68,-706.8 1073.68,-700.8 1073.68,-694.8 1073.68,-694.8 1073.68,-682.8 1073.68,-682.8 1073.68,-676.8 1079.68,-670.8 1085.68,-670.8 1085.68,-670.8 1249.68,-670.8 1249.68,-670.8 1255.68,-670.8 1261.68,-676.8 1261.68,-682.8 1261.68,-682.8 1261.68,-694.8 1261.68,-694.8 1261.68,-700.8 1255.68,-706.8 1249.68,-706.8"/>
<text text-anchor="middle" x="1167.68" y="-685.1" font-family="Times,serif" font-size="14.00" fill="#314b5f">symfony/console: v7.4.9</text>
</g>
<!-- bartlett/php&#45;compatinfo&#45;db&#45;&gt;symfony/console -->
<g id="edge41" class="edge">
<title>bartlett/php&#45;compatinfo&#45;db&#45;&gt;symfony/console</title>
<path fill="none" stroke="#1a2833" d="M182.73,-950.14C262.67,-903.92 489.32,-779.31 695.68,-726.8 819.49,-695.3 966.98,-688.06 1063.51,-687.23"/>
<polygon fill="#1a2833" stroke="#1a2833" points="1063.58,-690.73 1073.56,-687.16 1063.54,-683.73 1063.58,-690.73"/>
<text text-anchor="middle" x="530.18" y="-845.8" font-family="Times,serif" font-size="10.00" fill="#767676">^7.4 || ^8.0</text>
</g>
<!-- psr/log -->
<g id="node23" class="node">
<title>psr/log</title>
<path fill="#eeeeee" stroke="black" d="M1211.18,-1481.8C1211.18,-1481.8 1124.18,-1481.8 1124.18,-1481.8 1118.18,-1481.8 1112.18,-1475.8 1112.18,-1469.8 1112.18,-1469.8 1112.18,-1457.8 1112.18,-1457.8 1112.18,-1451.8 1118.18,-1445.8 1124.18,-1445.8 1124.18,-1445.8 1211.18,-1445.8 1211.18,-1445.8 1217.18,-1445.8 1223.18,-1451.8 1223.18,-1457.8 1223.18,-1457.8 1223.18,-1469.8 1223.18,-1469.8 1223.18,-1475.8 1217.18,-1481.8 1211.18,-1481.8"/>
<text text-anchor="middle" x="1167.68" y="-1460.1" font-family="Times,serif" font-size="14.00" fill="#314b5f">psr/log: 3.0.2</text>
</g>
<!-- bartlett/php&#45;compatinfo&#45;db&#45;&gt;psr/log -->
<g id="edge27" class="edge">
<title>bartlett/php&#45;compatinfo&#45;db&#45;&gt;psr/log</title>
<path fill="none" stroke="#1a2833" d="M156.99,-985.97C172.78,-1050.21 235.78,-1267.07 382.68,-1345.8 510.36,-1414.24 552.9,-1412.28 695.68,-1436.8 771.8,-1449.88 991.42,-1458.34 1101.77,-1461.89"/>
<polygon fill="#1a2833" stroke="#1a2833" points="1101.67,-1465.39 1111.78,-1462.21 1101.9,-1458.39 1101.67,-1465.39"/>
<text text-anchor="middle" x="530.18" y="-1435.8" font-family="Times,serif" font-size="10.00" fill="#767676">^3.0</text>
</g>
<!-- symfony/cache -->
<g id="node24" class="node">
<title>symfony/cache</title>
<path fill="#eeeeee" stroke="black" d="M610.18,-947.8C610.18,-947.8 450.18,-947.8 450.18,-947.8 444.18,-947.8 438.18,-941.8 438.18,-935.8 438.18,-935.8 438.18,-923.8 438.18,-923.8 438.18,-917.8 444.18,-911.8 450.18,-911.8 450.18,-911.8 610.18,-911.8 610.18,-911.8 616.18,-911.8 622.18,-917.8 622.18,-923.8 622.18,-923.8 622.18,-935.8 622.18,-935.8 622.18,-941.8 616.18,-947.8 610.18,-947.8"/>
<text text-anchor="middle" x="530.18" y="-926.1" font-family="Times,serif" font-size="14.00" fill="#314b5f">symfony/cache: v7.4.10</text>
</g>
<!-- bartlett/php&#45;compatinfo&#45;db&#45;&gt;symfony/cache -->
<g id="edge35" class="edge">
<title>bartlett/php&#45;compatinfo&#45;db&#45;&gt;symfony/cache</title>
<path fill="none" stroke="#1a2833" d="M260.43,-956.94C313.07,-951.62 376.09,-945.26 427.87,-940.03"/>
<polygon fill="#1a2833" stroke="#1a2833" points="428.47,-943.49 438.07,-939 427.77,-936.52 428.47,-943.49"/>
<text text-anchor="middle" x="335.18" y="-954.8" font-family="Times,serif" font-size="10.00" fill="#767676">^7.4 || ^8.0</text>
</g>
<!-- symfony/config -->
<g id="node28" class="node">
<title>symfony/config</title>
<path fill="#eeeeee" stroke="black" d="M611.18,-1023.8C611.18,-1023.8 449.18,-1023.8 449.18,-1023.8 443.18,-1023.8 437.18,-1017.8 437.18,-1011.8 437.18,-1011.8 437.18,-999.8 437.18,-999.8 437.18,-993.8 443.18,-987.8 449.18,-987.8 449.18,-987.8 611.18,-987.8 611.18,-987.8 617.18,-987.8 623.18,-993.8 623.18,-999.8 623.18,-999.8 623.18,-1011.8 623.18,-1011.8 623.18,-1017.8 617.18,-1023.8 611.18,-1023.8"/>
<text text-anchor="middle" x="530.18" y="-1002.1" font-family="Times,serif" font-size="14.00" fill="#314b5f">symfony/config: v7.4.10</text>
</g>
<!-- bartlett/php&#45;compatinfo&#45;db&#45;&gt;symfony/config -->
<g id="edge40" class="edge">
<title>bartlett/php&#45;compatinfo&#45;db&#45;&gt;symfony/config</title>
<path fill="none" stroke="#1a2833" d="M260.43,-978.67C312.77,-983.95 375.36,-990.27 426.97,-995.48"/>
<polygon fill="#1a2833" stroke="#1a2833" points="426.83,-998.99 437.13,-996.51 427.54,-992.02 426.83,-998.99"/>
<text text-anchor="middle" x="335.18" y="-991.8" font-family="Times,serif" font-size="10.00" fill="#767676">^7.4 || ^8.0</text>
</g>
<!-- symfony/dependency&#45;injection -->
<g id="node31" class="node">
<title>symfony/dependency&#45;injection</title>
<path fill="#eeeeee" stroke="black" d="M665.68,-1123.8C665.68,-1123.8 394.68,-1123.8 394.68,-1123.8 388.68,-1123.8 382.68,-1117.8 382.68,-1111.8 382.68,-1111.8 382.68,-1099.8 382.68,-1099.8 382.68,-1093.8 388.68,-1087.8 394.68,-1087.8 394.68,-1087.8 665.68,-1087.8 665.68,-1087.8 671.68,-1087.8 677.68,-1093.8 677.68,-1099.8 677.68,-1099.8 677.68,-1111.8 677.68,-1111.8 677.68,-1117.8 671.68,-1123.8 665.68,-1123.8"/>
<text text-anchor="middle" x="530.18" y="-1102.1" font-family="Times,serif" font-size="14.00" fill="#314b5f">symfony/dependency&#45;injection: v7.4.10</text>
</g>
<!-- bartlett/php&#45;compatinfo&#45;db&#45;&gt;symfony/dependency&#45;injection -->
<g id="edge47" class="edge">
<title>bartlett/php&#45;compatinfo&#45;db&#45;&gt;symfony/dependency&#45;injection</title>
<path fill="none" stroke="#1a2833" d="M198.98,-984.72C267.26,-1009.76 395.19,-1056.67 470.19,-1084.17"/>
<polygon fill="#1a2833" stroke="#1a2833" points="469.37,-1087.6 479.96,-1087.76 471.78,-1081.03 469.37,-1087.6"/>
<text text-anchor="middle" x="335.18" y="-1047.8" font-family="Times,serif" font-size="10.00" fill="#767676">^7.4 || ^8.0</text>
</g>
<!-- symfony/event&#45;dispatcher -->
<g id="node33" class="node">
<title>symfony/event&#45;dispatcher</title>
<path fill="#eeeeee" stroke="black" d="M645.18,-1275.8C645.18,-1275.8 415.18,-1275.8 415.18,-1275.8 409.18,-1275.8 403.18,-1269.8 403.18,-1263.8 403.18,-1263.8 403.18,-1251.8 403.18,-1251.8 403.18,-1245.8 409.18,-1239.8 415.18,-1239.8 415.18,-1239.8 645.18,-1239.8 645.18,-1239.8 651.18,-1239.8 657.18,-1245.8 657.18,-1251.8 657.18,-1251.8 657.18,-1263.8 657.18,-1263.8 657.18,-1269.8 651.18,-1275.8 645.18,-1275.8"/>
<text text-anchor="middle" x="530.18" y="-1254.1" font-family="Times,serif" font-size="14.00" fill="#314b5f">symfony/event&#45;dispatcher: v7.4.9</text>
</g>
<!-- bartlett/php&#45;compatinfo&#45;db&#45;&gt;symfony/event&#45;dispatcher -->
<g id="edge50" class="edge">
<title>bartlett/php&#45;compatinfo&#45;db&#45;&gt;symfony/event&#45;dispatcher</title>
<path fill="none" stroke="#1a2833" d="M176.1,-985.72C240.9,-1035.67 423.62,-1176.46 497.54,-1233.43"/>
<polygon fill="#1a2833" stroke="#1a2833" points="495.53,-1236.3 505.59,-1239.63 499.81,-1230.75 495.53,-1236.3"/>
<text text-anchor="middle" x="335.18" y="-1132.8" font-family="Times,serif" font-size="10.00" fill="#767676">^7.4 || ^8.0</text>
</g>
<!-- symfony/finder -->
<g id="node35" class="node">
<title>symfony/finder</title>
<path fill="#eeeeee" stroke="black" d="M917.18,-1435.8C917.18,-1435.8 765.18,-1435.8 765.18,-1435.8 759.18,-1435.8 753.18,-1429.8 753.18,-1423.8 753.18,-1423.8 753.18,-1411.8 753.18,-1411.8 753.18,-1405.8 759.18,-1399.8 765.18,-1399.8 765.18,-1399.8 917.18,-1399.8 917.18,-1399.8 923.18,-1399.8 929.18,-1405.8 929.18,-1411.8 929.18,-1411.8 929.18,-1423.8 929.18,-1423.8 929.18,-1429.8 923.18,-1435.8 917.18,-1435.8"/>
<text text-anchor="middle" x="841.18" y="-1414.1" font-family="Times,serif" font-size="14.00" fill="#314b5f">symfony/finder: v7.4.8</text>
</g>
<!-- bartlett/php&#45;compatinfo&#45;db&#45;&gt;symfony/finder -->
<g id="edge52" class="edge">
<title>bartlett/php&#45;compatinfo&#45;db&#45;&gt;symfony/finder</title>
<path fill="none" stroke="#1a2833" d="M160.91,-985.9C185.81,-1039.72 266.84,-1200.22 382.68,-1284.8 490.37,-1363.44 643.86,-1395.78 742.75,-1408.95"/>
<polygon fill="#1a2833" stroke="#1a2833" points="742.38,-1412.43 752.75,-1410.24 743.28,-1405.48 742.38,-1412.43"/>
<text text-anchor="middle" x="335.18" y="-1268.8" font-family="Times,serif" font-size="10.00" fill="#767676">^7.4 || ^8.0</text>
</g>
<!-- symfony/http&#45;client -->
<g id="node36" class="node">
<title>symfony/http&#45;client</title>
<path fill="#eeeeee" stroke="black" d="M622.68,-1495.8C622.68,-1495.8 437.68,-1495.8 437.68,-1495.8 431.68,-1495.8 425.68,-1489.8 425.68,-1483.8 425.68,-1483.8 425.68,-1471.8 425.68,-1471.8 425.68,-1465.8 431.68,-1459.8 437.68,-1459.8 437.68,-1459.8 622.68,-1459.8 622.68,-1459.8 628.68,-1459.8 634.68,-1465.8 634.68,-1471.8 634.68,-1471.8 634.68,-1483.8 634.68,-1483.8 634.68,-1489.8 628.68,-1495.8 622.68,-1495.8"/>
<text text-anchor="middle" x="530.18" y="-1474.1" font-family="Times,serif" font-size="14.00" fill="#314b5f">symfony/http&#45;client: v7.4.9</text>
</g>
<!-- bartlett/php&#45;compatinfo&#45;db&#45;&gt;symfony/http&#45;client -->
<g id="edge59" class="edge">
<title>bartlett/php&#45;compatinfo&#45;db&#45;&gt;symfony/http&#45;client</title>
<path fill="none" stroke="#1a2833" d="M152.67,-986.08C153.11,-1056.45 164.68,-1312.03 305.68,-1435.8 335.57,-1462.04 376.55,-1474.14 415.26,-1479.15"/>
<polygon fill="#1a2833" stroke="#1a2833" points="415.24,-1482.67 425.57,-1480.33 416.03,-1475.72 415.24,-1482.67"/>
<text text-anchor="middle" x="335.18" y="-1469.8" font-family="Times,serif" font-size="10.00" fill="#767676">^7.4 || ^8.0</text>
</g>
<!-- symfony/messenger -->
<g id="node39" class="node">
<title>symfony/messenger</title>
<path fill="#eeeeee" stroke="black" d="M628.68,-1549.8C628.68,-1549.8 431.68,-1549.8 431.68,-1549.8 425.68,-1549.8 419.68,-1543.8 419.68,-1537.8 419.68,-1537.8 419.68,-1525.8 419.68,-1525.8 419.68,-1519.8 425.68,-1513.8 431.68,-1513.8 431.68,-1513.8 628.68,-1513.8 628.68,-1513.8 634.68,-1513.8 640.68,-1519.8 640.68,-1525.8 640.68,-1525.8 640.68,-1537.8 640.68,-1537.8 640.68,-1543.8 634.68,-1549.8 628.68,-1549.8"/>
<text text-anchor="middle" x="530.18" y="-1528.1" font-family="Times,serif" font-size="14.00" fill="#314b5f">symfony/messenger: v7.4.10</text>
</g>
<!-- bartlett/php&#45;compatinfo&#45;db&#45;&gt;symfony/messenger -->
<g id="edge64" class="edge">
<title>bartlett/php&#45;compatinfo&#45;db&#45;&gt;symfony/messenger</title>
<path fill="none" stroke="#1a2833" d="M152.47,-985.84C152.02,-1058.94 160.28,-1336.23 305.68,-1481.8 333.02,-1509.18 371.86,-1522.97 409.52,-1529.54"/>
<polygon fill="#1a2833" stroke="#1a2833" points="409.15,-1533.03 419.58,-1531.14 410.25,-1526.11 409.15,-1533.03"/>
<text text-anchor="middle" x="335.18" y="-1519.8" font-family="Times,serif" font-size="10.00" fill="#767676">^7.4 || ^8.0</text>
</g>
<!-- symfony/polyfill&#45;php84 -->
<g id="node41" class="node">
<title>symfony/polyfill&#45;php84</title>
<path fill="#eeeeee" stroke="black" d="M949.68,-1827.8C949.68,-1827.8 732.68,-1827.8 732.68,-1827.8 726.68,-1827.8 720.68,-1821.8 720.68,-1815.8 720.68,-1815.8 720.68,-1803.8 720.68,-1803.8 720.68,-1797.8 726.68,-1791.8 732.68,-1791.8 732.68,-1791.8 949.68,-1791.8 949.68,-1791.8 955.68,-1791.8 961.68,-1797.8 961.68,-1803.8 961.68,-1803.8 961.68,-1815.8 961.68,-1815.8 961.68,-1821.8 955.68,-1827.8 949.68,-1827.8"/>
<text text-anchor="middle" x="841.18" y="-1806.1" font-family="Times,serif" font-size="14.00" fill="#314b5f">symfony/polyfill&#45;php84: v1.37.0</text>
</g>
<!-- bartlett/php&#45;compatinfo&#45;db&#45;&gt;symfony/polyfill&#45;php84 -->
<g id="edge66" class="edge">
<title>bartlett/php&#45;compatinfo&#45;db&#45;&gt;symfony/polyfill&#45;php84</title>
<path fill="none" stroke="#1a2833" d="M155.22,-985.98C167.48,-1077.44 226.13,-1486.55 305.68,-1582.8 421.71,-1723.21 536.06,-1640.24 677.68,-1754.8 688.04,-1763.19 684.45,-1771.62 695.68,-1778.8 700.92,-1782.16 706.48,-1785.16 712.23,-1787.84"/>
<polygon fill="#1a2833" stroke="#1a2833" points="710.84,-1791.06 721.41,-1791.79 713.61,-1784.63 710.84,-1791.06"/>
<text text-anchor="middle" x="335.18" y="-1636.8" font-family="Times,serif" font-size="10.00" fill="#767676">^1.0</text>
</g>
<!-- symfony/process -->
<g id="node42" class="node">
<title>symfony/process</title>
<path fill="#eeeeee" stroke="black" d="M923.68,-1877.8C923.68,-1877.8 758.68,-1877.8 758.68,-1877.8 752.68,-1877.8 746.68,-1871.8 746.68,-1865.8 746.68,-1865.8 746.68,-1853.8 746.68,-1853.8 746.68,-1847.8 752.68,-1841.8 758.68,-1841.8 758.68,-1841.8 923.68,-1841.8 923.68,-1841.8 929.68,-1841.8 935.68,-1847.8 935.68,-1853.8 935.68,-1853.8 935.68,-1865.8 935.68,-1865.8 935.68,-1871.8 929.68,-1877.8 923.68,-1877.8"/>
<text text-anchor="middle" x="841.18" y="-1856.1" font-family="Times,serif" font-size="14.00" fill="#314b5f">symfony/process: v7.4.8</text>
</g>
<!-- bartlett/php&#45;compatinfo&#45;db&#45;&gt;symfony/process -->
<g id="edge68" class="edge">
<title>bartlett/php&#45;compatinfo&#45;db&#45;&gt;symfony/process</title>
<path fill="none" stroke="#1a2833" d="M152.51,-985.81C151.84,-1068.83 158.2,-1420.22 305.68,-1648.8 398.95,-1793.37 609.12,-1838.91 736.36,-1853.24"/>
<polygon fill="#1a2833" stroke="#1a2833" points="736.19,-1856.75 746.51,-1854.34 736.94,-1849.79 736.19,-1856.75"/>
<text text-anchor="middle" x="335.18" y="-1716.8" font-family="Times,serif" font-size="10.00" fill="#767676">^7.4 || ^8.0</text>
</g>
<!-- symfony/requirements&#45;checker -->
<g id="node43" class="node">
<title>symfony/requirements&#45;checker</title>
<path fill="#eeeeee" stroke="black" d="M974.68,-1925.8C974.68,-1925.8 707.68,-1925.8 707.68,-1925.8 701.68,-1925.8 695.68,-1919.8 695.68,-1913.8 695.68,-1913.8 695.68,-1901.8 695.68,-1901.8 695.68,-1895.8 701.68,-1889.8 707.68,-1889.8 707.68,-1889.8 974.68,-1889.8 974.68,-1889.8 980.68,-1889.8 986.68,-1895.8 986.68,-1901.8 986.68,-1901.8 986.68,-1913.8 986.68,-1913.8 986.68,-1919.8 980.68,-1925.8 974.68,-1925.8"/>
<text text-anchor="middle" x="841.18" y="-1904.1" font-family="Times,serif" font-size="14.00" fill="#314b5f">symfony/requirements&#45;checker: v2.0.3</text>
</g>
<!-- bartlett/php&#45;compatinfo&#45;db&#45;&gt;symfony/requirements&#45;checker -->
<g id="edge70" class="edge">
<title>bartlett/php&#45;compatinfo&#45;db&#45;&gt;symfony/requirements&#45;checker</title>
<path fill="none" stroke="#1a2833" d="M152.26,-985.9C150.23,-1074.27 150.68,-1466.65 305.68,-1728.8 381.52,-1857.08 556.27,-1896.09 685.41,-1906.63"/>
<polygon fill="#1a2833" stroke="#1a2833" points="685.17,-1910.13 695.41,-1907.4 685.71,-1903.15 685.17,-1910.13"/>
<text text-anchor="middle" x="335.18" y="-1795.8" font-family="Times,serif" font-size="10.00" fill="#767676">^2.0</text>
</g>
<!-- symfony/stopwatch -->
<g id="node44" class="node">
<title>symfony/stopwatch</title>
<path fill="#eeeeee" stroke="black" d="M622.18,-1603.8C622.18,-1603.8 438.18,-1603.8 438.18,-1603.8 432.18,-1603.8 426.18,-1597.8 426.18,-1591.8 426.18,-1591.8 426.18,-1579.8 426.18,-1579.8 426.18,-1573.8 432.18,-1567.8 438.18,-1567.8 438.18,-1567.8 622.18,-1567.8 622.18,-1567.8 628.18,-1567.8 634.18,-1573.8 634.18,-1579.8 634.18,-1579.8 634.18,-1591.8 634.18,-1591.8 634.18,-1597.8 628.18,-1603.8 622.18,-1603.8"/>
<text text-anchor="middle" x="530.18" y="-1582.1" font-family="Times,serif" font-size="14.00" fill="#314b5f">symfony/stopwatch: v7.4.8</text>
</g>
<!-- bartlett/php&#45;compatinfo&#45;db&#45;&gt;symfony/stopwatch -->
<g id="edge73" class="edge">
<title>bartlett/php&#45;compatinfo&#45;db&#45;&gt;symfony/stopwatch</title>
<path fill="none" stroke="#1a2833" d="M155.47,-986.05C168.4,-1073.4 227.7,-1447.95 305.68,-1531.8 333.87,-1562.12 375.9,-1576.74 415.93,-1583.4"/>
<polygon fill="#1a2833" stroke="#1a2833" points="415.64,-1586.89 426.05,-1584.92 416.69,-1579.97 415.64,-1586.89"/>
<text text-anchor="middle" x="335.18" y="-1570.8" font-family="Times,serif" font-size="10.00" fill="#767676">^7.4 || ^8.0</text>
</g>
<!-- bamarni/composer&#45;bin&#45;plugin -->
<g id="node45" class="node">
<title>bamarni/composer&#45;bin&#45;plugin</title>
<path fill="#eeeeee" stroke="black" d="M653.68,-1979.8C653.68,-1979.8 406.68,-1979.8 406.68,-1979.8 400.68,-1979.8 394.68,-1973.8 394.68,-1967.8 394.68,-1967.8 394.68,-1955.8 394.68,-1955.8 394.68,-1949.8 400.68,-1943.8 406.68,-1943.8 406.68,-1943.8 653.68,-1943.8 653.68,-1943.8 659.68,-1943.8 665.68,-1949.8 665.68,-1955.8 665.68,-1955.8 665.68,-1967.8 665.68,-1967.8 665.68,-1973.8 659.68,-1979.8 653.68,-1979.8"/>
<text text-anchor="middle" x="530.18" y="-1958.1" font-family="Times,serif" font-size="14.00" fill="#314b5f">bamarni/composer&#45;bin&#45;plugin: 1.9.1</text>
</g>
<!-- bartlett/php&#45;compatinfo&#45;db&#45;&gt;bamarni/composer&#45;bin&#45;plugin -->
<g id="edge76" class="edge">
<title>bartlett/php&#45;compatinfo&#45;db&#45;&gt;bamarni/composer&#45;bin&#45;plugin</title>
<path fill="none" stroke="#1a2833" stroke-dasharray="5,2" d="M153.6,-985.85C158.73,-1100.11 191.71,-1722.55 305.68,-1866.8 335.02,-1903.94 381.6,-1926.78 424.67,-1940.71"/>
<polygon fill="#1a2833" stroke="#1a2833" points="423.78,-1944.1 434.37,-1943.72 425.86,-1937.41 423.78,-1944.1"/>
<text text-anchor="middle" x="335.18" y="-1914.8" font-family="Times,serif" font-size="10.00" fill="#767676">^1.8</text>
</g>
<!-- composer/semver&#45;&gt;php -->
<g id="edge8" class="edge">
<title>composer/semver&#45;&gt;php</title>
<path fill="none" stroke="#1a2833" d="M902.52,-84.73C932.87,-76.57 970.39,-67.86 1004.68,-63.8 1178.89,-43.19 1335.31,15.99 1389.68,-150.8 1429.79,-273.88 1433.33,-1229.55 1433.65,-1406.63"/>
<polygon fill="#1a2833" stroke="#1a2833" points="1430.15,-1406.72 1433.66,-1416.71 1437.15,-1406.7 1430.15,-1406.72"/>
<text text-anchor="middle" x="1167.68" y="-66.8" font-family="Times,serif" font-size="10.00" fill="#767676">^5.3.2 || ^7.0 || ^8.0</text>
</g>
<!-- doctrine/orm&#45;&gt;php -->
<g id="edge20" class="edge">
<title>doctrine/orm&#45;&gt;php</title>
<path fill="none" stroke="#1a2833" d="M607.29,-527.97C633.2,-525.86 660.04,-518.26 677.68,-498.8 724.03,-447.68 646.72,-237.44 695.68,-188.8 718.64,-165.98 955.37,-182.05 986.68,-173.8 995.33,-171.52 995.97,-166.86 1004.68,-164.8 1075.18,-148.16 1277.22,-115.91 1330.68,-164.8 1425.51,-251.54 1433.05,-1227.3 1433.63,-1406.59"/>
<polygon fill="#1a2833" stroke="#1a2833" points="1430.13,-1406.8 1433.66,-1416.79 1437.13,-1406.78 1430.13,-1406.8"/>
<text text-anchor="middle" x="1167.68" y="-167.8" font-family="Times,serif" font-size="10.00" fill="#767676">^8.1</text>
</g>
<!-- doctrine/orm&#45;&gt;composer&#45;runtime&#45;api -->
<g id="edge10" class="edge">
<title>doctrine/orm&#45;&gt;composer&#45;runtime&#45;api</title>
<path fill="none" stroke="#1a2833" d="M607.37,-523C633.44,-519.3 660.38,-510.12 677.68,-489.8 724.86,-434.39 644.83,-214.87 695.68,-162.8 718.33,-139.6 954.89,-146.26 986.68,-139.8 994.94,-138.12 996.52,-135.96 1004.68,-133.8 1025.95,-128.18 1049.02,-123.05 1070.91,-118.63"/>
<polygon fill="#1a2833" stroke="#1a2833" points="1071.75,-122.03 1080.88,-116.65 1070.38,-115.17 1071.75,-122.03"/>
<text text-anchor="middle" x="841.18" y="-165.8" font-family="Times,serif" font-size="10.00" fill="#767676">^2</text>
</g>
<!-- doctrine/collections -->
<g id="node11" class="node">
<title>doctrine/collections</title>
<path fill="#eeeeee" stroke="black" d="M1256.18,-220.8C1256.18,-220.8 1079.18,-220.8 1079.18,-220.8 1073.18,-220.8 1067.18,-214.8 1067.18,-208.8 1067.18,-208.8 1067.18,-196.8 1067.18,-196.8 1067.18,-190.8 1073.18,-184.8 1079.18,-184.8 1079.18,-184.8 1256.18,-184.8 1256.18,-184.8 1262.18,-184.8 1268.18,-190.8 1268.18,-196.8 1268.18,-196.8 1268.18,-208.8 1268.18,-208.8 1268.18,-214.8 1262.18,-220.8 1256.18,-220.8"/>
<text text-anchor="middle" x="1167.68" y="-199.1" font-family="Times,serif" font-size="14.00" fill="#314b5f">doctrine/collections: 2.6.0</text>
</g>
<!-- doctrine/orm&#45;&gt;doctrine/collections -->
<g id="edge11" class="edge">
<title>doctrine/orm&#45;&gt;doctrine/collections</title>
<path fill="none" stroke="#1a2833" d="M607.18,-522.84C633.24,-519.12 660.21,-509.97 677.68,-489.8 714.14,-447.7 656.42,-279.32 695.68,-239.8 744.45,-190.7 933.6,-190.26 1056.85,-195.66"/>
<polygon fill="#1a2833" stroke="#1a2833" points="1056.93,-199.17 1067.08,-196.13 1057.25,-192.17 1056.93,-199.17"/>
<text text-anchor="middle" x="841.18" y="-242.8" font-family="Times,serif" font-size="10.00" fill="#767676">^2.2</text>
</g>
<!-- doctrine/orm&#45;&gt;doctrine/dbal -->
<g id="edge12" class="edge">
<title>doctrine/orm&#45;&gt;doctrine/dbal</title>
<path fill="none" stroke="#1a2833" d="M585.4,-539.82C617.18,-549.66 658.3,-561.16 695.68,-567.8 759.54,-579.15 927.39,-564.48 986.68,-590.8 996.73,-595.27 994.82,-602.91 1004.68,-607.8 1027.67,-619.22 1054.53,-625.95 1079.7,-629.87"/>
<polygon fill="#1a2833" stroke="#1a2833" points="1079.22,-633.34 1089.61,-631.29 1080.21,-626.41 1079.22,-633.34"/>
<text text-anchor="middle" x="841.18" y="-593.8" font-family="Times,serif" font-size="10.00" fill="#767676">^3.8.2 || ^4</text>
</g>
<!-- doctrine/deprecations -->
<g id="node13" class="node">
<title>doctrine/deprecations</title>
<path fill="#eeeeee" stroke="black" d="M1264.68,-274.8C1264.68,-274.8 1070.68,-274.8 1070.68,-274.8 1064.68,-274.8 1058.68,-268.8 1058.68,-262.8 1058.68,-262.8 1058.68,-250.8 1058.68,-250.8 1058.68,-244.8 1064.68,-238.8 1070.68,-238.8 1070.68,-238.8 1264.68,-238.8 1264.68,-238.8 1270.68,-238.8 1276.68,-244.8 1276.68,-250.8 1276.68,-250.8 1276.68,-262.8 1276.68,-262.8 1276.68,-268.8 1270.68,-274.8 1264.68,-274.8"/>
<text text-anchor="middle" x="1167.68" y="-253.1" font-family="Times,serif" font-size="14.00" fill="#314b5f">doctrine/deprecations: 1.1.6</text>
</g>
<!-- doctrine/orm&#45;&gt;doctrine/deprecations -->
<g id="edge13" class="edge">
<title>doctrine/orm&#45;&gt;doctrine/deprecations</title>
<path fill="none" stroke="#1a2833" d="M607.41,-522.65C633.33,-518.88 660.15,-509.75 677.68,-489.8 708.44,-454.78 662.14,-313.18 695.68,-280.8 720.52,-256.81 917.22,-254.02 1048.45,-254.9"/>
<polygon fill="#1a2833" stroke="#1a2833" points="1048.54,-258.4 1058.57,-254.98 1048.59,-251.4 1048.54,-258.4"/>
<text text-anchor="middle" x="841.18" y="-283.8" font-family="Times,serif" font-size="10.00" fill="#767676">^0.5.3 || ^1</text>
</g>
<!-- doctrine/event&#45;manager -->
<g id="node14" class="node">
<title>doctrine/event&#45;manager</title>
<path fill="#eeeeee" stroke="black" d="M1272.18,-328.8C1272.18,-328.8 1063.18,-328.8 1063.18,-328.8 1057.18,-328.8 1051.18,-322.8 1051.18,-316.8 1051.18,-316.8 1051.18,-304.8 1051.18,-304.8 1051.18,-298.8 1057.18,-292.8 1063.18,-292.8 1063.18,-292.8 1272.18,-292.8 1272.18,-292.8 1278.18,-292.8 1284.18,-298.8 1284.18,-304.8 1284.18,-304.8 1284.18,-316.8 1284.18,-316.8 1284.18,-322.8 1278.18,-328.8 1272.18,-328.8"/>
<text text-anchor="middle" x="1167.68" y="-307.1" font-family="Times,serif" font-size="14.00" fill="#314b5f">doctrine/event&#45;manager: 2.1.1</text>
</g>
<!-- doctrine/orm&#45;&gt;doctrine/event&#45;manager -->
<g id="edge14" class="edge">
<title>doctrine/orm&#45;&gt;doctrine/event&#45;manager</title>
<path fill="none" stroke="#1a2833" d="M607.46,-522.3C633.22,-518.46 659.93,-509.38 677.68,-489.8 723.66,-439.08 645.78,-383.69 695.68,-336.8 743.82,-291.56 918.35,-293.01 1040.85,-300.28"/>
<polygon fill="#1a2833" stroke="#1a2833" points="1040.86,-303.79 1051.05,-300.9 1041.29,-296.8 1040.86,-303.79"/>
<text text-anchor="middle" x="841.18" y="-339.8" font-family="Times,serif" font-size="10.00" fill="#767676">^1.2 || ^2</text>
</g>
<!-- doctrine/inflector -->
<g id="node15" class="node">
<title>doctrine/inflector</title>
<path fill="#eeeeee" stroke="black" d="M1248.18,-382.8C1248.18,-382.8 1087.18,-382.8 1087.18,-382.8 1081.18,-382.8 1075.18,-376.8 1075.18,-370.8 1075.18,-370.8 1075.18,-358.8 1075.18,-358.8 1075.18,-352.8 1081.18,-346.8 1087.18,-346.8 1087.18,-346.8 1248.18,-346.8 1248.18,-346.8 1254.18,-346.8 1260.18,-352.8 1260.18,-358.8 1260.18,-358.8 1260.18,-370.8 1260.18,-370.8 1260.18,-376.8 1254.18,-382.8 1248.18,-382.8"/>
<text text-anchor="middle" x="1167.68" y="-361.1" font-family="Times,serif" font-size="14.00" fill="#314b5f">doctrine/inflector: 2.1.0</text>
</g>
<!-- doctrine/orm&#45;&gt;doctrine/inflector -->
<g id="edge15" class="edge">
<title>doctrine/orm&#45;&gt;doctrine/inflector</title>
<path fill="none" stroke="#1a2833" d="M607.52,-521.52C632.98,-517.56 659.47,-508.59 677.68,-489.8 708.19,-458.31 662.81,-421.82 695.68,-392.8 748.49,-346.16 943.03,-349.56 1064.96,-356.81"/>
<polygon fill="#1a2833" stroke="#1a2833" points="1064.87,-360.31 1075.07,-357.43 1065.3,-353.33 1064.87,-360.31"/>
<text text-anchor="middle" x="841.18" y="-395.8" font-family="Times,serif" font-size="10.00" fill="#767676">^1.4 || ^2.0</text>
</g>
<!-- doctrine/instantiator -->
<g id="node16" class="node">
<title>doctrine/instantiator</title>
<path fill="#eeeeee" stroke="black" d="M1260.18,-436.8C1260.18,-436.8 1075.18,-436.8 1075.18,-436.8 1069.18,-436.8 1063.18,-430.8 1063.18,-424.8 1063.18,-424.8 1063.18,-412.8 1063.18,-412.8 1063.18,-406.8 1069.18,-400.8 1075.18,-400.8 1075.18,-400.8 1260.18,-400.8 1260.18,-400.8 1266.18,-400.8 1272.18,-406.8 1272.18,-412.8 1272.18,-412.8 1272.18,-424.8 1272.18,-424.8 1272.18,-430.8 1266.18,-436.8 1260.18,-436.8"/>
<text text-anchor="middle" x="1167.68" y="-415.1" font-family="Times,serif" font-size="14.00" fill="#314b5f">doctrine/instantiator: 2.0.0</text>
</g>
<!-- doctrine/orm&#45;&gt;doctrine/instantiator -->
<g id="edge16" class="edge">
<title>doctrine/orm&#45;&gt;doctrine/instantiator</title>
<path fill="none" stroke="#1a2833" d="M607.51,-514.35C631.15,-509.68 656.52,-502.1 677.68,-489.8 688.02,-483.79 685.03,-475.25 695.68,-469.8 807.35,-412.67 953.13,-405.51 1052.74,-409.06"/>
<polygon fill="#1a2833" stroke="#1a2833" points="1052.71,-412.56 1062.84,-409.46 1052.99,-405.56 1052.71,-412.56"/>
<text text-anchor="middle" x="841.18" y="-472.8" font-family="Times,serif" font-size="10.00" fill="#767676">^1.3 || ^2</text>
</g>
<!-- doctrine/lexer -->
<g id="node17" class="node">
<title>doctrine/lexer</title>
<path fill="#eeeeee" stroke="black" d="M1236.18,-490.8C1236.18,-490.8 1099.18,-490.8 1099.18,-490.8 1093.18,-490.8 1087.18,-484.8 1087.18,-478.8 1087.18,-478.8 1087.18,-466.8 1087.18,-466.8 1087.18,-460.8 1093.18,-454.8 1099.18,-454.8 1099.18,-454.8 1236.18,-454.8 1236.18,-454.8 1242.18,-454.8 1248.18,-460.8 1248.18,-466.8 1248.18,-466.8 1248.18,-478.8 1248.18,-478.8 1248.18,-484.8 1242.18,-490.8 1236.18,-490.8"/>
<text text-anchor="middle" x="1167.68" y="-469.1" font-family="Times,serif" font-size="14.00" fill="#314b5f">doctrine/lexer: 3.0.1</text>
</g>
<!-- doctrine/orm&#45;&gt;doctrine/lexer -->
<g id="edge17" class="edge">
<title>doctrine/orm&#45;&gt;doctrine/lexer</title>
<path fill="none" stroke="#1a2833" d="M607.3,-513.97C635.1,-511.22 666.8,-508.22 695.68,-505.8 828.28,-494.71 982.1,-484.42 1076.91,-478.37"/>
<polygon fill="#1a2833" stroke="#1a2833" points="1077.28,-481.85 1087.04,-477.72 1076.84,-474.87 1077.28,-481.85"/>
<text text-anchor="middle" x="841.18" y="-508.8" font-family="Times,serif" font-size="10.00" fill="#767676">^3</text>
</g>
<!-- doctrine/persistence -->
<g id="node18" class="node">
<title>doctrine/persistence</title>
<path fill="#eeeeee" stroke="black" d="M1259.68,-544.8C1259.68,-544.8 1075.68,-544.8 1075.68,-544.8 1069.68,-544.8 1063.68,-538.8 1063.68,-532.8 1063.68,-532.8 1063.68,-520.8 1063.68,-520.8 1063.68,-514.8 1069.68,-508.8 1075.68,-508.8 1075.68,-508.8 1259.68,-508.8 1259.68,-508.8 1265.68,-508.8 1271.68,-514.8 1271.68,-520.8 1271.68,-520.8 1271.68,-532.8 1271.68,-532.8 1271.68,-538.8 1265.68,-544.8 1259.68,-544.8"/>
<text text-anchor="middle" x="1167.68" y="-523.1" font-family="Times,serif" font-size="14.00" fill="#314b5f">doctrine/persistence: 4.2.0</text>
</g>
<!-- doctrine/orm&#45;&gt;doctrine/persistence -->
<g id="edge18" class="edge">
<title>doctrine/orm&#45;&gt;doctrine/persistence</title>
<path fill="none" stroke="#1a2833" d="M607.34,-521.5C697.8,-521.26 853.24,-521.17 986.68,-522.8 1008.22,-523.07 1031.22,-523.48 1053.32,-523.94"/>
<polygon fill="#1a2833" stroke="#1a2833" points="1053.33,-527.44 1063.41,-524.15 1053.48,-520.44 1053.33,-527.44"/>
<text text-anchor="middle" x="841.18" y="-525.8" font-family="Times,serif" font-size="10.00" fill="#767676">^3.3.1 || ^4</text>
</g>
<!-- ext&#45;ctype -->
<g id="node19" class="node">
<title>ext&#45;ctype</title>
<path fill="#eeeeee" stroke="black" d="M1197.18,-598.8C1197.18,-598.8 1138.18,-598.8 1138.18,-598.8 1132.18,-598.8 1126.18,-592.8 1126.18,-586.8 1126.18,-586.8 1126.18,-574.8 1126.18,-574.8 1126.18,-568.8 1132.18,-562.8 1138.18,-562.8 1138.18,-562.8 1197.18,-562.8 1197.18,-562.8 1203.18,-562.8 1209.18,-568.8 1209.18,-574.8 1209.18,-574.8 1209.18,-586.8 1209.18,-586.8 1209.18,-592.8 1203.18,-598.8 1197.18,-598.8"/>
<text text-anchor="middle" x="1167.68" y="-577.1" font-family="Times,serif" font-size="14.00" fill="#314b5f">ext&#45;ctype</text>
</g>
<!-- doctrine/orm&#45;&gt;ext&#45;ctype -->
<g id="edge19" class="edge">
<title>doctrine/orm&#45;&gt;ext&#45;ctype</title>
<path fill="none" stroke="#1a2833" d="M607.46,-527.43C727.36,-536.31 950.1,-552.96 986.68,-556.8 1030.34,-561.39 1079.76,-568.09 1115.76,-573.24"/>
<polygon fill="#1a2833" stroke="#1a2833" points="1115.61,-576.76 1126,-574.72 1116.61,-569.83 1115.61,-576.76"/>
<text text-anchor="middle" x="841.18" y="-559.8" font-family="Times,serif" font-size="10.00" fill="#767676">*</text>
</g>
<!-- psr/cache -->
<g id="node20" class="node">
<title>psr/cache</title>
<path fill="#eeeeee" stroke="black" d="M1220.68,-760.8C1220.68,-760.8 1114.68,-760.8 1114.68,-760.8 1108.68,-760.8 1102.68,-754.8 1102.68,-748.8 1102.68,-748.8 1102.68,-736.8 1102.68,-736.8 1102.68,-730.8 1108.68,-724.8 1114.68,-724.8 1114.68,-724.8 1220.68,-724.8 1220.68,-724.8 1226.68,-724.8 1232.68,-730.8 1232.68,-736.8 1232.68,-736.8 1232.68,-748.8 1232.68,-748.8 1232.68,-754.8 1226.68,-760.8 1220.68,-760.8"/>
<text text-anchor="middle" x="1167.68" y="-739.1" font-family="Times,serif" font-size="14.00" fill="#314b5f">psr/cache: 3.0.0</text>
</g>
<!-- doctrine/orm&#45;&gt;psr/cache -->
<g id="edge21" class="edge">
<title>doctrine/orm&#45;&gt;psr/cache</title>
<path fill="none" stroke="#1a2833" d="M552.02,-539.94C581.87,-565.01 639.43,-610.07 695.68,-635.8 817.13,-691.37 857.66,-676.26 986.68,-710.8 994.7,-712.95 996.57,-714.01 1004.68,-715.8 1033.19,-722.12 1064.82,-727.7 1092.5,-732.13"/>
<polygon fill="#1a2833" stroke="#1a2833" points="1092.09,-735.61 1102.51,-733.71 1093.18,-728.69 1092.09,-735.61"/>
<text text-anchor="middle" x="841.18" y="-713.8" font-family="Times,serif" font-size="10.00" fill="#767676">^1 || ^2 || ^3</text>
</g>
<!-- doctrine/orm&#45;&gt;symfony/console -->
<g id="edge22" class="edge">
<title>doctrine/orm&#45;&gt;symfony/console</title>
<path fill="none" stroke="#1a2833" d="M559.88,-539.9C591.72,-558.96 645.27,-588.08 695.68,-601.8 758.27,-618.84 933.08,-588.26 986.68,-624.8 1001.78,-635.1 990.03,-650.86 1004.68,-661.8 1021.73,-674.54 1042.62,-682.15 1063.66,-686.53"/>
<polygon fill="#1a2833" stroke="#1a2833" points="1063.18,-690 1073.65,-688.38 1064.45,-683.12 1063.18,-690"/>
<text text-anchor="middle" x="841.18" y="-627.8" font-family="Times,serif" font-size="10.00" fill="#767676">^5.4 || ^6.0 || ^7.0 || ^8.0</text>
</g>
<!-- symfony/var&#45;exporter -->
<g id="node22" class="node">
<title>symfony/var&#45;exporter</title>
<path fill="#eeeeee" stroke="black" d="M1267.68,-861.8C1267.68,-861.8 1067.68,-861.8 1067.68,-861.8 1061.68,-861.8 1055.68,-855.8 1055.68,-849.8 1055.68,-849.8 1055.68,-837.8 1055.68,-837.8 1055.68,-831.8 1061.68,-825.8 1067.68,-825.8 1067.68,-825.8 1267.68,-825.8 1267.68,-825.8 1273.68,-825.8 1279.68,-831.8 1279.68,-837.8 1279.68,-837.8 1279.68,-849.8 1279.68,-849.8 1279.68,-855.8 1273.68,-861.8 1267.68,-861.8"/>
<text text-anchor="middle" x="1167.68" y="-840.1" font-family="Times,serif" font-size="14.00" fill="#314b5f">symfony/var&#45;exporter: v7.4.9</text>
</g>
<!-- doctrine/orm&#45;&gt;symfony/var&#45;exporter -->
<g id="edge23" class="edge">
<title>doctrine/orm&#45;&gt;symfony/var&#45;exporter</title>
<path fill="none" stroke="#1a2833" d="M561.37,-539.82C595.5,-561.91 649.92,-602.65 677.68,-652.8 700.6,-694.23 662.37,-724.15 695.68,-757.8 788.15,-851.24 857.36,-787.17 986.68,-810.8 1009.92,-815.05 1034.85,-819.61 1058.53,-823.95"/>
<polygon fill="#1a2833" stroke="#1a2833" points="1058.12,-827.44 1068.59,-825.8 1059.38,-820.55 1058.12,-827.44"/>
<text text-anchor="middle" x="841.18" y="-813.8" font-family="Times,serif" font-size="10.00" fill="#767676">^6.3.9 || ^7.0 || ^8.0</text>
</g>
<!-- psr/log&#45;&gt;php -->
<g id="edge26" class="edge">
<title>psr/log&#45;&gt;php</title>
<path fill="none" stroke="#1a2833" d="M1223.26,-1457.83C1275.3,-1452.13 1352.21,-1443.72 1397.2,-1438.79"/>
<polygon fill="#1a2833" stroke="#1a2833" points="1397.82,-1442.25 1407.38,-1437.68 1397.06,-1435.29 1397.82,-1442.25"/>
<text text-anchor="middle" x="1369.18" y="-1445.8" font-family="Times,serif" font-size="10.00" fill="#767676">&gt;=8.0.0</text>
</g>
<!-- symfony/cache&#45;&gt;php -->
<g id="edge28" class="edge">
<title>symfony/cache&#45;&gt;php</title>
<path fill="none" stroke="#1a2833" d="M588.33,-911.73C617.87,-900.09 652.84,-882.47 677.68,-857.8 690.37,-845.2 680.71,-831.6 695.68,-821.8 725.2,-802.48 1302.75,-784.23 1330.68,-805.8 1427.29,-880.43 1433.88,-1293.7 1433.85,-1406.41"/>
<polygon fill="#1a2833" stroke="#1a2833" points="1430.35,-1406.63 1433.83,-1416.64 1437.35,-1406.65 1430.35,-1406.63"/>
<text text-anchor="middle" x="1167.68" y="-808.8" font-family="Times,serif" font-size="10.00" fill="#767676">&gt;=8.2</text>
</g>
<!-- symfony/cache&#45;&gt;psr/cache -->
<g id="edge29" class="edge">
<title>symfony/cache&#45;&gt;psr/cache</title>
<path fill="none" stroke="#1a2833" d="M540.64,-911.53C562.05,-872.48 618.37,-781.65 695.68,-746.8 764.33,-715.85 978.02,-727.37 1092.49,-736.26"/>
<polygon fill="#1a2833" stroke="#1a2833" points="1092.34,-739.76 1102.58,-737.06 1092.89,-732.78 1092.34,-739.76"/>
<text text-anchor="middle" x="841.18" y="-749.8" font-family="Times,serif" font-size="10.00" fill="#767676">^2.0|^3.0</text>
</g>
<!-- symfony/cache&#45;&gt;symfony/var&#45;exporter -->
<g id="edge34" class="edge">
<title>symfony/cache&#45;&gt;symfony/var&#45;exporter</title>
<path fill="none" stroke="#1a2833" d="M558.25,-911.71C589.72,-891.85 643.96,-861.13 695.68,-848.8 812.07,-821.05 949.28,-823.39 1045.49,-830.49"/>
<polygon fill="#1a2833" stroke="#1a2833" points="1045.31,-833.98 1055.54,-831.26 1045.84,-827 1045.31,-833.98"/>
<text text-anchor="middle" x="841.18" y="-851.8" font-family="Times,serif" font-size="10.00" fill="#767676">^6.4|^7.0|^8.0</text>
</g>
<!-- symfony/cache&#45;&gt;psr/log -->
<g id="edge30" class="edge">
<title>symfony/cache&#45;&gt;psr/log</title>
<path fill="none" stroke="#1a2833" d="M622.48,-942.39C643.68,-949.67 664.02,-961.06 677.68,-978.8 715.84,-1028.39 651.61,-1215.38 695.68,-1259.8 741.34,-1305.83 939.77,-1236.04 986.68,-1280.8 1035.57,-1327.47 958.74,-1382.22 1004.68,-1431.8 1028.95,-1458.01 1067.98,-1466.28 1101.64,-1467.88"/>
<polygon fill="#1a2833" stroke="#1a2833" points="1101.8,-1471.38 1111.9,-1468.17 1102,-1464.39 1101.8,-1471.38"/>
<text text-anchor="middle" x="841.18" y="-1283.8" font-family="Times,serif" font-size="10.00" fill="#767676">^1.1|^2|^3</text>
</g>
<!-- symfony/cache&#45;contracts -->
<g id="node25" class="node">
<title>symfony/cache&#45;contracts</title>
<path fill="#eeeeee" stroke="black" d="M1278.68,-915.8C1278.68,-915.8 1056.68,-915.8 1056.68,-915.8 1050.68,-915.8 1044.68,-909.8 1044.68,-903.8 1044.68,-903.8 1044.68,-891.8 1044.68,-891.8 1044.68,-885.8 1050.68,-879.8 1056.68,-879.8 1056.68,-879.8 1278.68,-879.8 1278.68,-879.8 1284.68,-879.8 1290.68,-885.8 1290.68,-891.8 1290.68,-891.8 1290.68,-903.8 1290.68,-903.8 1290.68,-909.8 1284.68,-915.8 1278.68,-915.8"/>
<text text-anchor="middle" x="1167.68" y="-894.1" font-family="Times,serif" font-size="14.00" fill="#314b5f">symfony/cache&#45;contracts: v3.7.0</text>
</g>
<!-- symfony/cache&#45;&gt;symfony/cache&#45;contracts -->
<g id="edge31" class="edge">
<title>symfony/cache&#45;&gt;symfony/cache&#45;contracts</title>
<path fill="none" stroke="#1a2833" d="M622.52,-924.02C646.33,-922.58 671.96,-921.08 695.68,-919.8 810.03,-913.66 940.07,-907.66 1034.49,-903.48"/>
<polygon fill="#1a2833" stroke="#1a2833" points="1034.83,-906.97 1044.67,-903.03 1034.52,-899.98 1034.83,-906.97"/>
<text text-anchor="middle" x="841.18" y="-922.8" font-family="Times,serif" font-size="10.00" fill="#767676">^3.6</text>
</g>
<!-- symfony/deprecation&#45;contracts -->
<g id="node26" class="node">
<title>symfony/deprecation&#45;contracts</title>
<path fill="#eeeeee" stroke="black" d="M1300.68,-1225.8C1300.68,-1225.8 1034.68,-1225.8 1034.68,-1225.8 1028.68,-1225.8 1022.68,-1219.8 1022.68,-1213.8 1022.68,-1213.8 1022.68,-1201.8 1022.68,-1201.8 1022.68,-1195.8 1028.68,-1189.8 1034.68,-1189.8 1034.68,-1189.8 1300.68,-1189.8 1300.68,-1189.8 1306.68,-1189.8 1312.68,-1195.8 1312.68,-1201.8 1312.68,-1201.8 1312.68,-1213.8 1312.68,-1213.8 1312.68,-1219.8 1306.68,-1225.8 1300.68,-1225.8"/>
<text text-anchor="middle" x="1167.68" y="-1204.1" font-family="Times,serif" font-size="14.00" fill="#314b5f">symfony/deprecation&#45;contracts: v3.7.0</text>
</g>
<!-- symfony/cache&#45;&gt;symfony/deprecation&#45;contracts -->
<g id="edge32" class="edge">
<title>symfony/cache&#45;&gt;symfony/deprecation&#45;contracts</title>
<path fill="none" stroke="#1a2833" d="M622.24,-931.15C751.44,-933.5 973.81,-939.34 986.68,-951.8 1022.55,-986.55 971.45,-1138.52 1004.68,-1175.8 1007.63,-1179.11 1010.81,-1182.14 1014.19,-1184.91"/>
<polygon fill="#1a2833" stroke="#1a2833" points="1012.28,-1187.84 1022.42,-1190.9 1016.4,-1182.18 1012.28,-1187.84"/>
<text text-anchor="middle" x="841.18" y="-954.8" font-family="Times,serif" font-size="10.00" fill="#767676">^2.5|^3</text>
</g>
<!-- symfony/service&#45;contracts -->
<g id="node27" class="node">
<title>symfony/service&#45;contracts</title>
<path fill="#eeeeee" stroke="black" d="M1284.18,-1326.8C1284.18,-1326.8 1051.18,-1326.8 1051.18,-1326.8 1045.18,-1326.8 1039.18,-1320.8 1039.18,-1314.8 1039.18,-1314.8 1039.18,-1302.8 1039.18,-1302.8 1039.18,-1296.8 1045.18,-1290.8 1051.18,-1290.8 1051.18,-1290.8 1284.18,-1290.8 1284.18,-1290.8 1290.18,-1290.8 1296.18,-1296.8 1296.18,-1302.8 1296.18,-1302.8 1296.18,-1314.8 1296.18,-1314.8 1296.18,-1320.8 1290.18,-1326.8 1284.18,-1326.8"/>
<text text-anchor="middle" x="1167.68" y="-1305.1" font-family="Times,serif" font-size="14.00" fill="#314b5f">symfony/service&#45;contracts: v3.7.0</text>
</g>
<!-- symfony/cache&#45;&gt;symfony/service&#45;contracts -->
<g id="edge33" class="edge">
<title>symfony/cache&#45;&gt;symfony/service&#45;contracts</title>
<path fill="none" stroke="#1a2833" d="M622.42,-943.31C643.36,-950.59 663.59,-961.74 677.68,-978.8 716.22,-1025.48 651.81,-1072.09 695.68,-1113.8 742.7,-1158.52 939.74,-1093 986.68,-1137.8 1031.74,-1180.81 962.11,-1231.32 1004.68,-1276.8 1011.95,-1284.57 1020.52,-1290.77 1029.86,-1295.67"/>
<polygon fill="#1a2833" stroke="#1a2833" points="1028.5,-1298.9 1039.04,-1299.99 1031.48,-1292.56 1028.5,-1298.9"/>
<text text-anchor="middle" x="841.18" y="-1140.8" font-family="Times,serif" font-size="10.00" fill="#767676">^2.5|^3</text>
</g>
<!-- symfony/config&#45;&gt;php -->
<g id="edge36" class="edge">
<title>symfony/config&#45;&gt;php</title>
<path fill="none" stroke="#1a2833" d="M623.29,-1005.47C830.5,-1004.9 1316.47,-1004.65 1330.68,-1014.8 1395.55,-1061.16 1423.68,-1319.75 1431.38,-1406.46"/>
<polygon fill="#1a2833" stroke="#1a2833" points="1427.91,-1406.95 1432.25,-1416.61 1434.88,-1406.34 1427.91,-1406.95"/>
<text text-anchor="middle" x="1167.68" y="-1017.8" font-family="Times,serif" font-size="10.00" fill="#767676">&gt;=8.2</text>
</g>
<!-- symfony/config&#45;&gt;symfony/deprecation&#45;contracts -->
<g id="edge37" class="edge">
<title>symfony/config&#45;&gt;symfony/deprecation&#45;contracts</title>
<path fill="none" stroke="#1a2833" d="M607.5,-1023.87C635.17,-1030.06 666.74,-1036.71 695.68,-1041.8 759.93,-1053.12 939.31,-1035.93 986.68,-1080.8 1017.87,-1110.36 974.41,-1145.3 1004.68,-1175.8 1007.6,-1178.75 1010.72,-1181.47 1013.99,-1183.97"/>
<polygon fill="#1a2833" stroke="#1a2833" points="1012.2,-1186.99 1022.43,-1189.76 1016.16,-1181.22 1012.2,-1186.99"/>
<text text-anchor="middle" x="841.18" y="-1083.8" font-family="Times,serif" font-size="10.00" fill="#767676">^2.5|^3</text>
</g>
<!-- symfony/filesystem -->
<g id="node29" class="node">
<title>symfony/filesystem</title>
<path fill="#eeeeee" stroke="black" d="M1259.18,-969.8C1259.18,-969.8 1076.18,-969.8 1076.18,-969.8 1070.18,-969.8 1064.18,-963.8 1064.18,-957.8 1064.18,-957.8 1064.18,-945.8 1064.18,-945.8 1064.18,-939.8 1070.18,-933.8 1076.18,-933.8 1076.18,-933.8 1259.18,-933.8 1259.18,-933.8 1265.18,-933.8 1271.18,-939.8 1271.18,-945.8 1271.18,-945.8 1271.18,-957.8 1271.18,-957.8 1271.18,-963.8 1265.18,-969.8 1259.18,-969.8"/>
<text text-anchor="middle" x="1167.68" y="-948.1" font-family="Times,serif" font-size="14.00" fill="#314b5f">symfony/filesystem: v7.4.9</text>
</g>
<!-- symfony/config&#45;&gt;symfony/filesystem -->
<g id="edge38" class="edge">
<title>symfony/config&#45;&gt;symfony/filesystem</title>
<path fill="none" stroke="#1a2833" d="M623.37,-996.57C646.94,-994.28 672.24,-991.89 695.68,-989.8 762.72,-983.84 937.33,-969.91 1054.07,-960.67"/>
<polygon fill="#1a2833" stroke="#1a2833" points="1054.43,-964.16 1064.12,-959.88 1053.88,-957.18 1054.43,-964.16"/>
<text text-anchor="middle" x="841.18" y="-992.8" font-family="Times,serif" font-size="10.00" fill="#767676">^7.1|^8.0</text>
</g>
<!-- symfony/polyfill&#45;ctype -->
<g id="node30" class="node">
<title>symfony/polyfill&#45;ctype</title>
<path fill="#eeeeee" stroke="black" d="M1273.18,-1070.8C1273.18,-1070.8 1062.18,-1070.8 1062.18,-1070.8 1056.18,-1070.8 1050.18,-1064.8 1050.18,-1058.8 1050.18,-1058.8 1050.18,-1046.8 1050.18,-1046.8 1050.18,-1040.8 1056.18,-1034.8 1062.18,-1034.8 1062.18,-1034.8 1273.18,-1034.8 1273.18,-1034.8 1279.18,-1034.8 1285.18,-1040.8 1285.18,-1046.8 1285.18,-1046.8 1285.18,-1058.8 1285.18,-1058.8 1285.18,-1064.8 1279.18,-1070.8 1273.18,-1070.8"/>
<text text-anchor="middle" x="1167.68" y="-1049.1" font-family="Times,serif" font-size="14.00" fill="#314b5f">symfony/polyfill&#45;ctype: v1.37.0</text>
</g>
<!-- symfony/config&#45;&gt;symfony/polyfill&#45;ctype -->
<g id="edge39" class="edge">
<title>symfony/config&#45;&gt;symfony/polyfill&#45;ctype</title>
<path fill="none" stroke="#1a2833" d="M623.35,-1009.05C715.45,-1012.73 861.04,-1019.69 986.68,-1030.8 1003.85,-1032.32 1021.91,-1034.2 1039.69,-1036.21"/>
<polygon fill="#1a2833" stroke="#1a2833" points="1039.79,-1039.74 1050.12,-1037.4 1040.58,-1032.79 1039.79,-1039.74"/>
<text text-anchor="middle" x="841.18" y="-1033.8" font-family="Times,serif" font-size="10.00" fill="#767676">~1.8</text>
</g>
<!-- symfony/dependency&#45;injection&#45;&gt;php -->
<g id="edge42" class="edge">
<title>symfony/dependency&#45;injection&#45;&gt;php</title>
<path fill="none" stroke="#1a2833" d="M677.77,-1109.78C809.53,-1113.43 982.99,-1118.47 986.68,-1119.8 996.21,-1123.24 995.28,-1129.99 1004.68,-1133.8 1139.75,-1188.62 1209.89,-1088.19 1330.68,-1169.8 1410.79,-1223.93 1428.61,-1350.37 1432.56,-1406.77"/>
<polygon fill="#1a2833" stroke="#1a2833" points="1429.06,-1407 1433.16,-1416.77 1436.05,-1406.58 1429.06,-1407"/>
<text text-anchor="middle" x="1167.68" y="-1172.8" font-family="Times,serif" font-size="10.00" fill="#767676">&gt;=8.2</text>
</g>
<!-- symfony/dependency&#45;injection&#45;&gt;symfony/var&#45;exporter -->
<g id="edge46" class="edge">
<title>symfony/dependency&#45;injection&#45;&gt;symfony/var&#45;exporter</title>
<path fill="none" stroke="#1a2833" d="M599.09,-1087.72C627.82,-1076.58 658.92,-1059.22 677.68,-1032.8 714.5,-980.93 650.1,-935.18 695.68,-890.8 698.81,-887.75 906.66,-867.92 1045.17,-855.01"/>
<polygon fill="#1a2833" stroke="#1a2833" points="1045.8,-858.47 1055.43,-854.05 1045.15,-851.5 1045.8,-858.47"/>
<text text-anchor="middle" x="841.18" y="-893.8" font-family="Times,serif" font-size="10.00" fill="#767676">^6.4.20|^7.2.5|^8.0</text>
</g>
<!-- symfony/dependency&#45;injection&#45;&gt;symfony/deprecation&#45;contracts -->
<g id="edge44" class="edge">
<title>symfony/dependency&#45;injection&#45;&gt;symfony/deprecation&#45;contracts</title>
<path fill="none" stroke="#1a2833" d="M586.92,-1123.86C618.5,-1133.38 658.93,-1144.38 695.68,-1150.8 823.48,-1173.13 858.08,-1156.63 986.68,-1173.8 1014.33,-1177.5 1044.17,-1182.65 1071.45,-1187.83"/>
<polygon fill="#1a2833" stroke="#1a2833" points="1070.89,-1191.29 1081.37,-1189.74 1072.21,-1184.41 1070.89,-1191.29"/>
<text text-anchor="middle" x="841.18" y="-1176.8" font-family="Times,serif" font-size="10.00" fill="#767676">^2.5|^3</text>
</g>
<!-- symfony/dependency&#45;injection&#45;&gt;symfony/service&#45;contracts -->
<g id="edge45" class="edge">
<title>symfony/dependency&#45;injection&#45;&gt;symfony/service&#45;contracts</title>
<path fill="none" stroke="#1a2833" d="M561.64,-1123.98C594.97,-1145.42 647.66,-1184.12 677.68,-1230.8 693.42,-1255.3 672.71,-1275.9 695.68,-1293.8 721.52,-1313.95 899.46,-1314.75 1029.03,-1312.54"/>
<polygon fill="#1a2833" stroke="#1a2833" points="1029.11,-1316.04 1039.05,-1312.36 1028.99,-1309.04 1029.11,-1316.04"/>
<text text-anchor="middle" x="841.18" y="-1315.8" font-family="Times,serif" font-size="10.00" fill="#767676">^3.6</text>
</g>
<!-- psr/container -->
<g id="node32" class="node">
<title>psr/container</title>
<path fill="#eeeeee" stroke="black" d="M1234.18,-1124.8C1234.18,-1124.8 1101.18,-1124.8 1101.18,-1124.8 1095.18,-1124.8 1089.18,-1118.8 1089.18,-1112.8 1089.18,-1112.8 1089.18,-1100.8 1089.18,-1100.8 1089.18,-1094.8 1095.18,-1088.8 1101.18,-1088.8 1101.18,-1088.8 1234.18,-1088.8 1234.18,-1088.8 1240.18,-1088.8 1246.18,-1094.8 1246.18,-1100.8 1246.18,-1100.8 1246.18,-1112.8 1246.18,-1112.8 1246.18,-1118.8 1240.18,-1124.8 1234.18,-1124.8"/>
<text text-anchor="middle" x="1167.68" y="-1103.1" font-family="Times,serif" font-size="14.00" fill="#314b5f">psr/container: 2.0.2</text>
</g>
<!-- symfony/dependency&#45;injection&#45;&gt;psr/container -->
<g id="edge43" class="edge">
<title>symfony/dependency&#45;injection&#45;&gt;psr/container</title>
<path fill="none" stroke="#1a2833" d="M677.81,-1099.25C683.84,-1099.08 689.82,-1098.93 695.68,-1098.8 824.98,-1096.05 857.37,-1095.93 986.68,-1098.8 1016.61,-1099.47 1049.32,-1100.75 1078.55,-1102.1"/>
<polygon fill="#1a2833" stroke="#1a2833" points="1078.58,-1105.61 1088.73,-1102.58 1078.91,-1098.62 1078.58,-1105.61"/>
<text text-anchor="middle" x="841.18" y="-1101.8" font-family="Times,serif" font-size="10.00" fill="#767676">^1.1|^2.0</text>
</g>
<!-- symfony/event&#45;dispatcher&#45;&gt;php -->
<g id="edge48" class="edge">
<title>symfony/event&#45;dispatcher&#45;&gt;php</title>
<path fill="none" stroke="#1a2833" d="M657.48,-1256.7C875.5,-1255.24 1302.01,-1254.52 1330.68,-1270.8 1382.87,-1300.45 1412.36,-1368.52 1425.43,-1406.99"/>
<polygon fill="#1a2833" stroke="#1a2833" points="1422.12,-1408.12 1428.54,-1416.55 1428.77,-1405.96 1422.12,-1408.12"/>
<text text-anchor="middle" x="1167.68" y="-1273.8" font-family="Times,serif" font-size="10.00" fill="#767676">&gt;=8.2</text>
</g>
<!-- symfony/event&#45;dispatcher&#45;contracts -->
<g id="node34" class="node">
<title>symfony/event&#45;dispatcher&#45;contracts</title>
<path fill="#eeeeee" stroke="black" d="M1318.68,-1380.8C1318.68,-1380.8 1016.68,-1380.8 1016.68,-1380.8 1010.68,-1380.8 1004.68,-1374.8 1004.68,-1368.8 1004.68,-1368.8 1004.68,-1356.8 1004.68,-1356.8 1004.68,-1350.8 1010.68,-1344.8 1016.68,-1344.8 1016.68,-1344.8 1318.68,-1344.8 1318.68,-1344.8 1324.68,-1344.8 1330.68,-1350.8 1330.68,-1356.8 1330.68,-1356.8 1330.68,-1368.8 1330.68,-1368.8 1330.68,-1374.8 1324.68,-1380.8 1318.68,-1380.8"/>
<text text-anchor="middle" x="1167.68" y="-1359.1" font-family="Times,serif" font-size="14.00" fill="#314b5f">symfony/event&#45;dispatcher&#45;contracts: v3.7.0</text>
</g>
<!-- symfony/event&#45;dispatcher&#45;&gt;symfony/event&#45;dispatcher&#45;contracts -->
<g id="edge49" class="edge">
<title>symfony/event&#45;dispatcher&#45;&gt;symfony/event&#45;dispatcher&#45;contracts</title>
<path fill="none" stroke="#1a2833" d="M580.97,-1275.95C611.36,-1288.77 649.61,-1308.23 677.68,-1333.8 688.61,-1343.77 682.7,-1354.7 695.68,-1361.8 721.8,-1376.1 870.67,-1374.45 994.15,-1370.37"/>
<polygon fill="#1a2833" stroke="#1a2833" points="994.62,-1373.86 1004.5,-1370.02 994.39,-1366.86 994.62,-1373.86"/>
<text text-anchor="middle" x="841.18" y="-1375.8" font-family="Times,serif" font-size="10.00" fill="#767676">^2.5|^3</text>
</g>
<!-- symfony/finder&#45;&gt;php -->
<g id="edge51" class="edge">
<title>symfony/finder&#45;&gt;php</title>
<path fill="none" stroke="#1a2833" d="M929.6,-1417.37C1027.39,-1417.32 1190.49,-1418.54 1330.68,-1425.8 1352.86,-1426.95 1377.67,-1429.09 1397.38,-1431"/>
<polygon fill="#1a2833" stroke="#1a2833" points="1397.17,-1434.5 1407.46,-1432 1397.86,-1427.53 1397.17,-1434.5"/>
<text text-anchor="middle" x="1167.68" y="-1428.8" font-family="Times,serif" font-size="10.00" fill="#767676">&gt;=8.2</text>
</g>
<!-- symfony/http&#45;client&#45;&gt;php -->
<g id="edge53" class="edge">
<title>symfony/http&#45;client&#45;&gt;php</title>
<path fill="none" stroke="#1a2833" d="M634.94,-1480.44C650.98,-1485.19 666.05,-1492.84 677.68,-1504.8 714.04,-1542.21 656.06,-1586.86 695.68,-1620.8 720.23,-1641.84 954.36,-1621.83 986.68,-1620.8 1063.24,-1618.36 1264.85,-1637.98 1330.68,-1598.8 1382.04,-1568.23 1411.74,-1501.02 1425.09,-1462.81"/>
<polygon fill="#1a2833" stroke="#1a2833" points="1428.57,-1463.45 1428.43,-1452.86 1421.93,-1461.23 1428.57,-1463.45"/>
<text text-anchor="middle" x="1167.68" y="-1625.8" font-family="Times,serif" font-size="10.00" fill="#767676">&gt;=8.2</text>
</g>
<!-- symfony/http&#45;client&#45;&gt;psr/log -->
<g id="edge54" class="edge">
<title>symfony/http&#45;client&#45;&gt;psr/log</title>
<path fill="none" stroke="#1a2833" d="M635.11,-1469.9C655.2,-1468.64 676.08,-1467.52 695.68,-1466.8 840.65,-1461.5 1010.9,-1462.11 1101.76,-1462.98"/>
<polygon fill="#1a2833" stroke="#1a2833" points="1101.87,-1466.48 1111.9,-1463.08 1101.94,-1459.48 1101.87,-1466.48"/>
<text text-anchor="middle" x="841.18" y="-1469.8" font-family="Times,serif" font-size="10.00" fill="#767676">^1|^2|^3</text>
</g>
<!-- symfony/http&#45;client&#45;&gt;symfony/deprecation&#45;contracts -->
<g id="edge55" class="edge">
<title>symfony/http&#45;client&#45;&gt;symfony/deprecation&#45;contracts</title>
<path fill="none" stroke="#1a2833" d="M634.86,-1472.52C651.21,-1467.18 666.4,-1458.77 677.68,-1445.8 712.47,-1405.77 656.78,-1243.87 695.68,-1207.8 718.72,-1186.44 883.9,-1190.73 1012.22,-1197.57"/>
<polygon fill="#1a2833" stroke="#1a2833" points="1012.38,-1201.08 1022.56,-1198.13 1012.76,-1194.09 1012.38,-1201.08"/>
<text text-anchor="middle" x="841.18" y="-1210.8" font-family="Times,serif" font-size="10.00" fill="#767676">^2.5|^3</text>
</g>
<!-- symfony/http&#45;client&#45;&gt;symfony/service&#45;contracts -->
<g id="edge58" class="edge">
<title>symfony/http&#45;client&#45;&gt;symfony/service&#45;contracts</title>
<path fill="none" stroke="#1a2833" d="M634.85,-1471.12C650.89,-1465.88 665.99,-1457.86 677.68,-1445.8 708.19,-1414.31 662.99,-1378.03 695.68,-1348.8 719.84,-1327.19 954.39,-1330.67 986.68,-1327.8 1000.28,-1326.59 1014.45,-1325.25 1028.6,-1323.85"/>
<polygon fill="#1a2833" stroke="#1a2833" points="1029.29,-1327.3 1038.9,-1322.82 1028.6,-1320.33 1029.29,-1327.3"/>
<text text-anchor="middle" x="841.18" y="-1351.8" font-family="Times,serif" font-size="10.00" fill="#767676">^2.5|^3</text>
</g>
<!-- symfony/http&#45;client&#45;contracts -->
<g id="node37" class="node">
<title>symfony/http&#45;client&#45;contracts</title>
<path fill="#eeeeee" stroke="black" d="M1295.68,-1535.8C1295.68,-1535.8 1039.68,-1535.8 1039.68,-1535.8 1033.68,-1535.8 1027.68,-1529.8 1027.68,-1523.8 1027.68,-1523.8 1027.68,-1511.8 1027.68,-1511.8 1027.68,-1505.8 1033.68,-1499.8 1039.68,-1499.8 1039.68,-1499.8 1295.68,-1499.8 1295.68,-1499.8 1301.68,-1499.8 1307.68,-1505.8 1307.68,-1511.8 1307.68,-1511.8 1307.68,-1523.8 1307.68,-1523.8 1307.68,-1529.8 1301.68,-1535.8 1295.68,-1535.8"/>
<text text-anchor="middle" x="1167.68" y="-1514.1" font-family="Times,serif" font-size="14.00" fill="#314b5f">symfony/http&#45;client&#45;contracts: v3.7.0</text>
</g>
<!-- symfony/http&#45;client&#45;&gt;symfony/http&#45;client&#45;contracts -->
<g id="edge56" class="edge">
<title>symfony/http&#45;client&#45;&gt;symfony/http&#45;client&#45;contracts</title>
<path fill="none" stroke="#1a2833" d="M634.99,-1494.42C649.43,-1497.46 663.99,-1500.92 677.68,-1504.8 685.93,-1507.15 687.25,-1510.17 695.68,-1511.8 801.89,-1532.43 924.12,-1533.34 1017.44,-1529.4"/>
<polygon fill="#1a2833" stroke="#1a2833" points="1017.69,-1532.89 1027.52,-1528.95 1017.38,-1525.9 1017.69,-1532.89"/>
<text text-anchor="middle" x="841.18" y="-1533.8" font-family="Times,serif" font-size="10.00" fill="#767676">~3.4.4|^3.5.2</text>
</g>
<!-- symfony/polyfill&#45;php83 -->
<g id="node38" class="node">
<title>symfony/polyfill&#45;php83</title>
<path fill="#eeeeee" stroke="black" d="M1276.18,-1589.8C1276.18,-1589.8 1059.18,-1589.8 1059.18,-1589.8 1053.18,-1589.8 1047.18,-1583.8 1047.18,-1577.8 1047.18,-1577.8 1047.18,-1565.8 1047.18,-1565.8 1047.18,-1559.8 1053.18,-1553.8 1059.18,-1553.8 1059.18,-1553.8 1276.18,-1553.8 1276.18,-1553.8 1282.18,-1553.8 1288.18,-1559.8 1288.18,-1565.8 1288.18,-1565.8 1288.18,-1577.8 1288.18,-1577.8 1288.18,-1583.8 1282.18,-1589.8 1276.18,-1589.8"/>
<text text-anchor="middle" x="1167.68" y="-1568.1" font-family="Times,serif" font-size="14.00" fill="#314b5f">symfony/polyfill&#45;php83: v1.37.0</text>
</g>
<!-- symfony/http&#45;client&#45;&gt;symfony/polyfill&#45;php83 -->
<g id="edge57" class="edge">
<title>symfony/http&#45;client&#45;&gt;symfony/polyfill&#45;php83</title>
<path fill="none" stroke="#1a2833" d="M634.89,-1481.48C650.74,-1486.15 665.76,-1493.5 677.68,-1504.8 702.55,-1528.39 668.76,-1558.58 695.68,-1579.8 747.37,-1620.56 920.28,-1606.89 1041.53,-1591.14"/>
<polygon fill="#1a2833" stroke="#1a2833" points="1042.18,-1594.58 1051.63,-1589.8 1041.26,-1587.64 1042.18,-1594.58"/>
<text text-anchor="middle" x="841.18" y="-1608.8" font-family="Times,serif" font-size="10.00" fill="#767676">^1.29</text>
</g>
<!-- symfony/messenger&#45;&gt;php -->
<g id="edge60" class="edge">
<title>symfony/messenger&#45;&gt;php</title>
<path fill="none" stroke="#1a2833" d="M640.9,-1535.83C654.79,-1540.7 667.62,-1548.02 677.68,-1558.8 702.07,-1584.98 669,-1694.96 695.68,-1718.8 732.44,-1751.66 1321.35,-1706.24 1330.68,-1699.8 1410.05,-1645.01 1428.26,-1519.46 1432.44,-1463.1"/>
<polygon fill="#1a2833" stroke="#1a2833" points="1435.93,-1463.31 1433.08,-1453.11 1428.95,-1462.86 1435.93,-1463.31"/>
<text text-anchor="middle" x="1167.68" y="-1726.8" font-family="Times,serif" font-size="10.00" fill="#767676">&gt;=8.2</text>
</g>
<!-- symfony/messenger&#45;&gt;psr/log -->
<g id="edge61" class="edge">
<title>symfony/messenger&#45;&gt;psr/log</title>
<path fill="none" stroke="#1a2833" d="M638.77,-1513.75C651.93,-1511.02 665.15,-1508.03 677.68,-1504.8 685.84,-1502.7 687.41,-1500.45 695.68,-1498.8 822.84,-1473.44 857.37,-1487.5 986.68,-1477.8 1024.77,-1474.95 1067.4,-1471.64 1101.6,-1468.95"/>
<polygon fill="#1a2833" stroke="#1a2833" points="1102.24,-1472.41 1111.93,-1468.14 1101.69,-1465.43 1102.24,-1472.41"/>
<text text-anchor="middle" x="841.18" y="-1501.8" font-family="Times,serif" font-size="10.00" fill="#767676">^1|^2|^3</text>
</g>
<!-- symfony/messenger&#45;&gt;symfony/deprecation&#45;contracts -->
<g id="edge63" class="edge">
<title>symfony/messenger&#45;&gt;symfony/deprecation&#45;contracts</title>
<path fill="none" stroke="#1a2833" d="M640.95,-1528.28C654.92,-1523.36 667.77,-1515.89 677.68,-1504.8 715.68,-1462.28 655.69,-1289.46 695.68,-1248.8 701.33,-1243.06 877.35,-1228.93 1012.55,-1218.87"/>
<polygon fill="#1a2833" stroke="#1a2833" points="1012.91,-1222.35 1022.62,-1218.12 1012.39,-1215.37 1012.91,-1222.35"/>
<text text-anchor="middle" x="841.18" y="-1251.8" font-family="Times,serif" font-size="10.00" fill="#767676">^2.5|^3</text>
</g>
<!-- symfony/clock -->
<g id="node40" class="node">
<title>symfony/clock</title>
<path fill="#eeeeee" stroke="black" d="M1240.68,-1690.8C1240.68,-1690.8 1094.68,-1690.8 1094.68,-1690.8 1088.68,-1690.8 1082.68,-1684.8 1082.68,-1678.8 1082.68,-1678.8 1082.68,-1666.8 1082.68,-1666.8 1082.68,-1660.8 1088.68,-1654.8 1094.68,-1654.8 1094.68,-1654.8 1240.68,-1654.8 1240.68,-1654.8 1246.68,-1654.8 1252.68,-1660.8 1252.68,-1666.8 1252.68,-1666.8 1252.68,-1678.8 1252.68,-1678.8 1252.68,-1684.8 1246.68,-1690.8 1240.68,-1690.8"/>
<text text-anchor="middle" x="1167.68" y="-1669.1" font-family="Times,serif" font-size="14.00" fill="#314b5f">symfony/clock: v7.4.8</text>
</g>
<!-- symfony/messenger&#45;&gt;symfony/clock -->
<g id="edge62" class="edge">
<title>symfony/messenger&#45;&gt;symfony/clock</title>
<path fill="none" stroke="#1a2833" d="M640.75,-1537.46C654.4,-1542.14 667.21,-1548.98 677.68,-1558.8 701.72,-1581.38 670.61,-1609.37 695.68,-1630.8 801.61,-1721.37 974.19,-1710.29 1078.42,-1692.54"/>
<polygon fill="#1a2833" stroke="#1a2833" points="1079.05,-1695.99 1088.29,-1690.81 1077.84,-1689.09 1079.05,-1695.99"/>
<text text-anchor="middle" x="841.18" y="-1706.8" font-family="Times,serif" font-size="10.00" fill="#767676">^6.4|^7.0|^8.0</text>
</g>
<!-- symfony/polyfill&#45;php84&#45;&gt;php -->
<g id="edge65" class="edge">
<title>symfony/polyfill&#45;php84&#45;&gt;php</title>
<path fill="none" stroke="#1a2833" d="M961.71,-1821.03C1104.98,-1831.55 1332.93,-1837.91 1389.68,-1778.8 1432.71,-1733.98 1434.95,-1537.81 1434.21,-1463.49"/>
<polygon fill="#1a2833" stroke="#1a2833" points="1437.7,-1462.99 1434.07,-1453.04 1430.7,-1463.08 1437.7,-1462.99"/>
<text text-anchor="middle" x="1167.68" y="-1830.8" font-family="Times,serif" font-size="10.00" fill="#767676">&gt;=7.2</text>
</g>
<!-- symfony/process&#45;&gt;php -->
<g id="edge67" class="edge">
<title>symfony/process&#45;&gt;php</title>
<path fill="none" stroke="#1a2833" d="M936.08,-1873.78C1037.04,-1884.93 1200.57,-1891.61 1330.68,-1842.8 1362.33,-1830.93 1373.33,-1824.39 1389.68,-1794.8 1421.16,-1737.81 1430.49,-1537.92 1432.91,-1463.24"/>
<polygon fill="#1a2833" stroke="#1a2833" points="1436.42,-1463.26 1433.22,-1453.16 1429.42,-1463.05 1436.42,-1463.26"/>
<text text-anchor="middle" x="1167.68" y="-1883.8" font-family="Times,serif" font-size="10.00" fill="#767676">&gt;=8.2</text>
</g>
<!-- symfony/requirements&#45;checker&#45;&gt;php -->
<g id="edge69" class="edge">
<title>symfony/requirements&#45;checker&#45;&gt;php</title>
<path fill="none" stroke="#1a2833" d="M986.95,-1916.47C1108.87,-1921.39 1272.44,-1921.72 1330.68,-1892.8 1368.04,-1874.25 1373.56,-1858.28 1389.68,-1819.8 1416.74,-1755.21 1428.89,-1541.02 1432.48,-1463.29"/>
<polygon fill="#1a2833" stroke="#1a2833" points="1435.98,-1463.41 1432.93,-1453.26 1428.98,-1463.1 1435.98,-1463.41"/>
<text text-anchor="middle" x="1167.68" y="-1921.8" font-family="Times,serif" font-size="10.00" fill="#767676">&gt;=5.3.9</text>
</g>
<!-- symfony/stopwatch&#45;&gt;php -->
<g id="edge71" class="edge">
<title>symfony/stopwatch&#45;&gt;php</title>
<path fill="none" stroke="#1a2833" d="M615.28,-1603.94C638.46,-1612.74 661.61,-1625.71 677.68,-1644.8 702.26,-1674.02 666.38,-1704.32 695.68,-1728.8 749.83,-1774.05 1267.4,-1770.03 1330.68,-1738.8 1369.34,-1719.72 1371.99,-1701.12 1389.68,-1661.8 1419.87,-1594.67 1429.38,-1507.23 1432.35,-1463.03"/>
<polygon fill="#1a2833" stroke="#1a2833" points="1435.85,-1463.21 1432.96,-1453.02 1428.86,-1462.78 1435.85,-1463.21"/>
<text text-anchor="middle" x="1167.68" y="-1764.8" font-family="Times,serif" font-size="10.00" fill="#767676">&gt;=8.2</text>
</g>
<!-- symfony/stopwatch&#45;&gt;symfony/service&#45;contracts -->
<g id="edge72" class="edge">
<title>symfony/stopwatch&#45;&gt;symfony/service&#45;contracts</title>
<path fill="none" stroke="#1a2833" d="M634.21,-1573.21C654.57,-1570.92 675.78,-1568.67 695.68,-1566.8 727.95,-1563.78 963.6,-1568.57 986.68,-1545.8 1020.02,-1512.91 972.9,-1370.21 1004.68,-1335.8 1011.86,-1328.02 1020.37,-1321.93 1029.66,-1317.21"/>
<polygon fill="#1a2833" stroke="#1a2833" points="1031.13,-1320.38 1038.8,-1313.08 1028.25,-1314.01 1031.13,-1320.38"/>
<text text-anchor="middle" x="841.18" y="-1569.8" font-family="Times,serif" font-size="10.00" fill="#767676">^2.5|^3</text>
</g>
<!-- bamarni/composer&#45;bin&#45;plugin&#45;&gt;php -->
<g id="edge75" class="edge">
<title>bamarni/composer&#45;bin&#45;plugin&#45;&gt;php</title>
<path fill="none" stroke="#1a2833" d="M665.84,-1963.39C878.4,-1964.96 1273.53,-1963.71 1330.68,-1933.8 1369.5,-1913.48 1373.71,-1895.61 1389.68,-1854.8 1417.8,-1782.93 1429.42,-1545.18 1432.67,-1463.02"/>
<polygon fill="#1a2833" stroke="#1a2833" points="1436.17,-1463.05 1433.05,-1452.93 1429.17,-1462.79 1436.17,-1463.05"/>
<text text-anchor="middle" x="1167.68" y="-1963.8" font-family="Times,serif" font-size="10.00" fill="#767676">^7.2.5 || ^8.0</text>
</g>
<!-- composer&#45;plugin&#45;api -->
<g id="node46" class="node">
<title>composer&#45;plugin&#45;api</title>
<path fill="#eeeeee" stroke="black" d="M1236.18,-2026.8C1236.18,-2026.8 1099.18,-2026.8 1099.18,-2026.8 1093.18,-2026.8 1087.18,-2020.8 1087.18,-2014.8 1087.18,-2014.8 1087.18,-2002.8 1087.18,-2002.8 1087.18,-1996.8 1093.18,-1990.8 1099.18,-1990.8 1099.18,-1990.8 1236.18,-1990.8 1236.18,-1990.8 1242.18,-1990.8 1248.18,-1996.8 1248.18,-2002.8 1248.18,-2002.8 1248.18,-2014.8 1248.18,-2014.8 1248.18,-2020.8 1242.18,-2026.8 1236.18,-2026.8"/>
<text text-anchor="middle" x="1167.68" y="-2005.1" font-family="Times,serif" font-size="14.00" fill="#314b5f">composer&#45;plugin&#45;api</text>
</g>
<!-- bamarni/composer&#45;bin&#45;plugin&#45;&gt;composer&#45;plugin&#45;api -->
<g id="edge74" class="edge">
<title>bamarni/composer&#45;bin&#45;plugin&#45;&gt;composer&#45;plugin&#45;api</title>
<path fill="none" stroke="#1a2833" d="M665.95,-1971.77C789.66,-1980.92 969.51,-1994.22 1076.63,-2002.14"/>
<polygon fill="#1a2833" stroke="#1a2833" points="1076.53,-2005.65 1086.76,-2002.89 1077.05,-1998.66 1076.53,-2005.65"/>
<text text-anchor="middle" x="841.18" y="-1997.8" font-family="Times,serif" font-size="10.00" fill="#767676">^2.0</text>
</g>
</g>
</svg>
