<?xml version="1.0" encoding="UTF-8" standalone="no"?>
<!DOCTYPE svg PUBLIC "-//W3C//DTD SVG 1.1//EN"
 "http://www.w3.org/Graphics/SVG/1.1/DTD/svg11.dtd">
<!-- Generated by graphviz version 2.43.0 (0)
 -->
<!-- Title: %3 Pages: 1 -->
<svg width="1454pt" height="2049pt"
 viewBox="0.00 0.00 1453.68 2049.00" xmlns="http://www.w3.org/2000/svg" xmlns:xlink="http://www.w3.org/1999/xlink">
<g id="graph0" class="graph" transform="scale(1 1) rotate(0) translate(4 2045)">
<title>%3</title>
<polygon fill="white" stroke="transparent" points="-4,4 -4,-2045 1449.68,-2045 1449.68,4 -4,4"/>
<!-- bartlett/php&#45;compatinfo&#45;db -->
<g id="node1" class="node">
<title>bartlett/php&#45;compatinfo&#45;db</title>
<ellipse fill="lightgrey" stroke="black" stroke-width="2" cx="135.84" cy="-1078" rx="135.68" ry="18"/>
<text text-anchor="middle" x="135.84" y="-1074.3" font-family="Times,serif" font-size="14.00">bartlett/php&#45;compatinfo&#45;db</text>
</g>
<!-- php -->
<g id="node2" class="node">
<title>php</title>
<path fill="#eeeeee" stroke="black" d="M1433.68,-567C1433.68,-567 1403.68,-567 1403.68,-567 1397.68,-567 1391.68,-561 1391.68,-555 1391.68,-555 1391.68,-543 1391.68,-543 1391.68,-537 1397.68,-531 1403.68,-531 1403.68,-531 1433.68,-531 1433.68,-531 1439.68,-531 1445.68,-537 1445.68,-543 1445.68,-543 1445.68,-555 1445.68,-555 1445.68,-561 1439.68,-567 1433.68,-567"/>
<text text-anchor="middle" x="1418.68" y="-545.3" font-family="Times,serif" font-size="14.00" fill="#314b5f">php</text>
</g>
<!-- bartlett/php&#45;compatinfo&#45;db&#45;&gt;php -->
<g id="edge1" class="edge">
<title>bartlett/php&#45;compatinfo&#45;db&#45;&gt;php</title>
<path fill="none" stroke="#1a2833" d="M138.11,-1096.11C145.81,-1200.6 189.11,-1726.08 289.68,-1846 437.06,-2021.74 1122.4,-2092.05 1314.68,-1967 1368.89,-1931.74 1359.19,-1897.02 1373.68,-1834 1402.69,-1707.74 1415.26,-753.84 1417.36,-577.12"/>
<polygon fill="#1a2833" stroke="#1a2833" points="1420.86,-577.09 1417.47,-567.05 1413.86,-577.01 1420.86,-577.09"/>
<text text-anchor="middle" x="825.18" y="-2033" font-family="Times,serif" font-size="10.00" fill="#767676">^8.1</text>
</g>
<!-- ext&#45;json -->
<g id="node3" class="node">
<title>ext&#45;json</title>
<path fill="#eeeeee" stroke="black" d="M538.68,-1867C538.68,-1867 489.68,-1867 489.68,-1867 483.68,-1867 477.68,-1861 477.68,-1855 477.68,-1855 477.68,-1843 477.68,-1843 477.68,-1837 483.68,-1831 489.68,-1831 489.68,-1831 538.68,-1831 538.68,-1831 544.68,-1831 550.68,-1837 550.68,-1843 550.68,-1843 550.68,-1855 550.68,-1855 550.68,-1861 544.68,-1867 538.68,-1867"/>
<text text-anchor="middle" x="514.18" y="-1845.3" font-family="Times,serif" font-size="14.00" fill="#314b5f">ext&#45;json</text>
</g>
<!-- bartlett/php&#45;compatinfo&#45;db&#45;&gt;ext&#45;json -->
<g id="edge2" class="edge">
<title>bartlett/php&#45;compatinfo&#45;db&#45;&gt;ext&#45;json</title>
<path fill="none" stroke="#1a2833" d="M138.36,-1096.22C147.12,-1196.85 194.03,-1684.1 289.68,-1794 333.61,-1844.48 415.7,-1852.45 467.23,-1851.93"/>
<polygon fill="#1a2833" stroke="#1a2833" points="467.5,-1855.42 477.42,-1851.71 467.35,-1848.42 467.5,-1855.42"/>
<text text-anchor="middle" x="319.18" y="-1834" font-family="Times,serif" font-size="10.00" fill="#767676">*</text>
</g>
<!-- ext&#45;pcre -->
<g id="node4" class="node">
<title>ext&#45;pcre</title>
<path fill="#eeeeee" stroke="black" d="M539.68,-1813C539.68,-1813 488.68,-1813 488.68,-1813 482.68,-1813 476.68,-1807 476.68,-1801 476.68,-1801 476.68,-1789 476.68,-1789 476.68,-1783 482.68,-1777 488.68,-1777 488.68,-1777 539.68,-1777 539.68,-1777 545.68,-1777 551.68,-1783 551.68,-1789 551.68,-1789 551.68,-1801 551.68,-1801 551.68,-1807 545.68,-1813 539.68,-1813"/>
<text text-anchor="middle" x="514.18" y="-1791.3" font-family="Times,serif" font-size="14.00" fill="#314b5f">ext&#45;pcre</text>
</g>
<!-- bartlett/php&#45;compatinfo&#45;db&#45;&gt;ext&#45;pcre -->
<g id="edge3" class="edge">
<title>bartlett/php&#45;compatinfo&#45;db&#45;&gt;ext&#45;pcre</title>
<path fill="none" stroke="#1a2833" d="M138.62,-1096.23C148.38,-1192.74 198.38,-1643.29 289.68,-1743 334.35,-1791.79 415.11,-1799.16 466.34,-1798.32"/>
<polygon fill="#1a2833" stroke="#1a2833" points="466.59,-1801.82 476.49,-1798.04 466.4,-1794.82 466.59,-1801.82"/>
<text text-anchor="middle" x="319.18" y="-1782" font-family="Times,serif" font-size="10.00" fill="#767676">*</text>
</g>
<!-- ext&#45;pdo -->
<g id="node5" class="node">
<title>ext&#45;pdo</title>
<path fill="#eeeeee" stroke="black" d="M537.18,-1759C537.18,-1759 491.18,-1759 491.18,-1759 485.18,-1759 479.18,-1753 479.18,-1747 479.18,-1747 479.18,-1735 479.18,-1735 479.18,-1729 485.18,-1723 491.18,-1723 491.18,-1723 537.18,-1723 537.18,-1723 543.18,-1723 549.18,-1729 549.18,-1735 549.18,-1735 549.18,-1747 549.18,-1747 549.18,-1753 543.18,-1759 537.18,-1759"/>
<text text-anchor="middle" x="514.18" y="-1737.3" font-family="Times,serif" font-size="14.00" fill="#314b5f">ext&#45;pdo</text>
</g>
<!-- bartlett/php&#45;compatinfo&#45;db&#45;&gt;ext&#45;pdo -->
<g id="edge4" class="edge">
<title>bartlett/php&#45;compatinfo&#45;db&#45;&gt;ext&#45;pdo</title>
<path fill="none" stroke="#1a2833" d="M138.86,-1096.19C149.46,-1188.6 201.63,-1604.99 289.68,-1694 336.53,-1741.37 418.18,-1746.8 468.75,-1744.94"/>
<polygon fill="#1a2833" stroke="#1a2833" points="469.23,-1748.43 479.05,-1744.45 468.89,-1741.43 469.23,-1748.43"/>
<text text-anchor="middle" x="319.18" y="-1731" font-family="Times,serif" font-size="10.00" fill="#767676">*</text>
</g>
<!-- ext&#45;phar -->
<g id="node6" class="node">
<title>ext&#45;phar</title>
<path fill="#eeeeee" stroke="black" d="M540.68,-1705C540.68,-1705 487.68,-1705 487.68,-1705 481.68,-1705 475.68,-1699 475.68,-1693 475.68,-1693 475.68,-1681 475.68,-1681 475.68,-1675 481.68,-1669 487.68,-1669 487.68,-1669 540.68,-1669 540.68,-1669 546.68,-1669 552.68,-1675 552.68,-1681 552.68,-1681 552.68,-1693 552.68,-1693 552.68,-1699 546.68,-1705 540.68,-1705"/>
<text text-anchor="middle" x="514.18" y="-1683.3" font-family="Times,serif" font-size="14.00" fill="#314b5f">ext&#45;phar</text>
</g>
<!-- bartlett/php&#45;compatinfo&#45;db&#45;&gt;ext&#45;phar -->
<g id="edge5" class="edge">
<title>bartlett/php&#45;compatinfo&#45;db&#45;&gt;ext&#45;phar</title>
<path fill="none" stroke="#1a2833" d="M139.1,-1096.1C150.49,-1184.38 204.44,-1568.74 289.68,-1647 337.12,-1690.56 415.03,-1694.81 465.21,-1692.18"/>
<polygon fill="#1a2833" stroke="#1a2833" points="465.71,-1695.66 475.47,-1691.53 465.27,-1688.67 465.71,-1695.66"/>
<text text-anchor="middle" x="319.18" y="-1682" font-family="Times,serif" font-size="10.00" fill="#767676">*</text>
</g>
<!-- ext&#45;spl -->
<g id="node7" class="node">
<title>ext&#45;spl</title>
<path fill="#eeeeee" stroke="black" d="M534.68,-1651C534.68,-1651 493.68,-1651 493.68,-1651 487.68,-1651 481.68,-1645 481.68,-1639 481.68,-1639 481.68,-1627 481.68,-1627 481.68,-1621 487.68,-1615 493.68,-1615 493.68,-1615 534.68,-1615 534.68,-1615 540.68,-1615 546.68,-1621 546.68,-1627 546.68,-1627 546.68,-1639 546.68,-1639 546.68,-1645 540.68,-1651 534.68,-1651"/>
<text text-anchor="middle" x="514.18" y="-1629.3" font-family="Times,serif" font-size="14.00" fill="#314b5f">ext&#45;spl</text>
</g>
<!-- bartlett/php&#45;compatinfo&#45;db&#45;&gt;ext&#45;spl -->
<g id="edge6" class="edge">
<title>bartlett/php&#45;compatinfo&#45;db&#45;&gt;ext&#45;spl</title>
<path fill="none" stroke="#1a2833" d="M139.47,-1096.12C152.07,-1180.35 209,-1532.31 289.68,-1602 340.05,-1645.51 422.01,-1644.92 471.44,-1639.6"/>
<polygon fill="#1a2833" stroke="#1a2833" points="471.96,-1643.06 481.47,-1638.41 471.13,-1636.11 471.96,-1643.06"/>
<text text-anchor="middle" x="319.18" y="-1635" font-family="Times,serif" font-size="10.00" fill="#767676">*</text>
</g>
<!-- composer&#45;runtime&#45;api -->
<g id="node8" class="node">
<title>composer&#45;runtime&#45;api</title>
<path fill="#eeeeee" stroke="black" d="M1226.18,-1914C1226.18,-1914 1077.18,-1914 1077.18,-1914 1071.18,-1914 1065.18,-1908 1065.18,-1902 1065.18,-1902 1065.18,-1890 1065.18,-1890 1065.18,-1884 1071.18,-1878 1077.18,-1878 1077.18,-1878 1226.18,-1878 1226.18,-1878 1232.18,-1878 1238.18,-1884 1238.18,-1890 1238.18,-1890 1238.18,-1902 1238.18,-1902 1238.18,-1908 1232.18,-1914 1226.18,-1914"/>
<text text-anchor="middle" x="1151.68" y="-1892.3" font-family="Times,serif" font-size="14.00" fill="#314b5f">composer&#45;runtime&#45;api</text>
</g>
<!-- bartlett/php&#45;compatinfo&#45;db&#45;&gt;composer&#45;runtime&#45;api -->
<g id="edge7" class="edge">
<title>bartlett/php&#45;compatinfo&#45;db&#45;&gt;composer&#45;runtime&#45;api</title>
<path fill="none" stroke="#1a2833" d="M139.29,-1096.36C149.99,-1167.95 199.75,-1428.96 366.68,-1521 482.7,-1584.98 571.8,-1466.65 661.68,-1564 703.52,-1609.32 637.19,-1796.28 679.68,-1841 705.03,-1867.69 924.82,-1883.93 1055.01,-1891.3"/>
<polygon fill="#1a2833" stroke="#1a2833" points="1054.82,-1894.79 1065,-1891.85 1055.21,-1887.8 1054.82,-1894.79"/>
<text text-anchor="middle" x="514.18" y="-1567" font-family="Times,serif" font-size="10.00" fill="#767676">^2.0</text>
</g>
<!-- composer/semver -->
<g id="node9" class="node">
<title>composer/semver</title>
<path fill="#eeeeee" stroke="black" d="M907.18,-1940C907.18,-1940 743.18,-1940 743.18,-1940 737.18,-1940 731.18,-1934 731.18,-1928 731.18,-1928 731.18,-1916 731.18,-1916 731.18,-1910 737.18,-1904 743.18,-1904 743.18,-1904 907.18,-1904 907.18,-1904 913.18,-1904 919.18,-1910 919.18,-1916 919.18,-1916 919.18,-1928 919.18,-1928 919.18,-1934 913.18,-1940 907.18,-1940"/>
<text text-anchor="middle" x="825.18" y="-1918.3" font-family="Times,serif" font-size="14.00" fill="#314b5f">composer/semver: 3.4.3</text>
</g>
<!-- bartlett/php&#45;compatinfo&#45;db&#45;&gt;composer/semver -->
<g id="edge9" class="edge">
<title>bartlett/php&#45;compatinfo&#45;db&#45;&gt;composer/semver</title>
<path fill="none" stroke="#1a2833" d="M136.2,-1096.19C134.77,-1168.57 139.99,-1438.12 289.68,-1562 353.81,-1615.07 604.29,-1545.7 661.68,-1606 702.06,-1648.43 644.51,-1822.15 679.68,-1869 690.43,-1883.34 705.48,-1893.8 721.82,-1901.43"/>
<polygon fill="#1a2833" stroke="#1a2833" points="720.44,-1904.65 731.01,-1905.39 723.21,-1898.22 720.44,-1904.65"/>
<text text-anchor="middle" x="319.18" y="-1584" font-family="Times,serif" font-size="10.00" fill="#767676">^3.0</text>
</g>
<!-- doctrine/orm -->
<g id="node10" class="node">
<title>doctrine/orm</title>
<path fill="#eeeeee" stroke="black" d="M579.18,-1512C579.18,-1512 449.18,-1512 449.18,-1512 443.18,-1512 437.18,-1506 437.18,-1500 437.18,-1500 437.18,-1488 437.18,-1488 437.18,-1482 443.18,-1476 449.18,-1476 449.18,-1476 579.18,-1476 579.18,-1476 585.18,-1476 591.18,-1482 591.18,-1488 591.18,-1488 591.18,-1500 591.18,-1500 591.18,-1506 585.18,-1512 579.18,-1512"/>
<text text-anchor="middle" x="514.18" y="-1490.3" font-family="Times,serif" font-size="14.00" fill="#314b5f">doctrine/orm: 3.5.2</text>
</g>
<!-- bartlett/php&#45;compatinfo&#45;db&#45;&gt;doctrine/orm -->
<g id="edge24" class="edge">
<title>bartlett/php&#45;compatinfo&#45;db&#45;&gt;doctrine/orm</title>
<path fill="none" stroke="#1a2833" d="M142.08,-1096.2C157.26,-1146.15 205.61,-1287.4 289.68,-1373 335.18,-1419.34 402.24,-1452.39 451.03,-1472.12"/>
<polygon fill="#1a2833" stroke="#1a2833" points="449.94,-1475.45 460.53,-1475.88 452.52,-1468.95 449.94,-1475.45"/>
<text text-anchor="middle" x="319.18" y="-1419" font-family="Times,serif" font-size="10.00" fill="#767676">^3.3</text>
</g>
<!-- doctrine/dbal -->
<g id="node12" class="node">
<title>doctrine/dbal</title>
<path fill="#eeeeee" stroke="black" d="M1217.68,-1381C1217.68,-1381 1085.68,-1381 1085.68,-1381 1079.68,-1381 1073.68,-1375 1073.68,-1369 1073.68,-1369 1073.68,-1357 1073.68,-1357 1073.68,-1351 1079.68,-1345 1085.68,-1345 1085.68,-1345 1217.68,-1345 1217.68,-1345 1223.68,-1345 1229.68,-1351 1229.68,-1357 1229.68,-1357 1229.68,-1369 1229.68,-1369 1229.68,-1375 1223.68,-1381 1217.68,-1381"/>
<text text-anchor="middle" x="1151.68" y="-1359.3" font-family="Times,serif" font-size="14.00" fill="#314b5f">doctrine/dbal: 4.2.5</text>
</g>
<!-- bartlett/php&#45;compatinfo&#45;db&#45;&gt;doctrine/dbal -->
<g id="edge25" class="edge">
<title>bartlett/php&#45;compatinfo&#45;db&#45;&gt;doctrine/dbal</title>
<path fill="none" stroke="#1a2833" d="M149.4,-1095.93C180.57,-1138.86 266.26,-1247.66 366.68,-1297 487.23,-1356.24 885.32,-1363.41 1063.32,-1363.55"/>
<polygon fill="#1a2833" stroke="#1a2833" points="1063.44,-1367.05 1073.44,-1363.55 1063.44,-1360.05 1063.44,-1367.05"/>
<text text-anchor="middle" x="514.18" y="-1352" font-family="Times,serif" font-size="10.00" fill="#767676">^4.0</text>
</g>
<!-- symfony/console -->
<g id="node21" class="node">
<title>symfony/console</title>
<path fill="#eeeeee" stroke="black" d="M1238.18,-1327C1238.18,-1327 1065.18,-1327 1065.18,-1327 1059.18,-1327 1053.18,-1321 1053.18,-1315 1053.18,-1315 1053.18,-1303 1053.18,-1303 1053.18,-1297 1059.18,-1291 1065.18,-1291 1065.18,-1291 1238.18,-1291 1238.18,-1291 1244.18,-1291 1250.18,-1297 1250.18,-1303 1250.18,-1303 1250.18,-1315 1250.18,-1315 1250.18,-1321 1244.18,-1327 1238.18,-1327"/>
<text text-anchor="middle" x="1151.68" y="-1305.3" font-family="Times,serif" font-size="14.00" fill="#314b5f">symfony/console: v6.4.24</text>
</g>
<!-- bartlett/php&#45;compatinfo&#45;db&#45;&gt;symfony/console -->
<g id="edge40" class="edge">
<title>bartlett/php&#45;compatinfo&#45;db&#45;&gt;symfony/console</title>
<path fill="none" stroke="#1a2833" d="M176.44,-1095.28C222.05,-1115.01 299.34,-1147.91 366.68,-1174 504.45,-1227.38 534.76,-1257.2 679.68,-1286 802.6,-1310.43 946.93,-1313.87 1043.11,-1312.68"/>
<polygon fill="#1a2833" stroke="#1a2833" points="1043.19,-1316.18 1053.14,-1312.54 1043.09,-1309.18 1043.19,-1316.18"/>
<text text-anchor="middle" x="514.18" y="-1285" font-family="Times,serif" font-size="10.00" fill="#767676">^6.4 || ^7.0</text>
</g>
<!-- psr/log -->
<g id="node23" class="node">
<title>psr/log</title>
<path fill="#eeeeee" stroke="black" d="M1195.18,-527C1195.18,-527 1108.18,-527 1108.18,-527 1102.18,-527 1096.18,-521 1096.18,-515 1096.18,-515 1096.18,-503 1096.18,-503 1096.18,-497 1102.18,-491 1108.18,-491 1108.18,-491 1195.18,-491 1195.18,-491 1201.18,-491 1207.18,-497 1207.18,-503 1207.18,-503 1207.18,-515 1207.18,-515 1207.18,-521 1201.18,-527 1195.18,-527"/>
<text text-anchor="middle" x="1151.68" y="-505.3" font-family="Times,serif" font-size="14.00" fill="#314b5f">psr/log: 3.0.2</text>
</g>
<!-- bartlett/php&#45;compatinfo&#45;db&#45;&gt;psr/log -->
<g id="edge27" class="edge">
<title>bartlett/php&#45;compatinfo&#45;db&#45;&gt;psr/log</title>
<path fill="none" stroke="#1a2833" d="M140.13,-1059.72C153.81,-989.32 212.73,-733.3 366.68,-605 477.59,-512.56 536.81,-538.88 679.68,-518 823.44,-496.99 994.5,-500.81 1085.73,-505.11"/>
<polygon fill="#1a2833" stroke="#1a2833" points="1085.76,-508.61 1095.92,-505.61 1086.1,-501.62 1085.76,-508.61"/>
<text text-anchor="middle" x="514.18" y="-608" font-family="Times,serif" font-size="10.00" fill="#767676">^3.0</text>
</g>
<!-- symfony/cache -->
<g id="node24" class="node">
<title>symfony/cache</title>
<path fill="#eeeeee" stroke="black" d="M594.18,-1165C594.18,-1165 434.18,-1165 434.18,-1165 428.18,-1165 422.18,-1159 422.18,-1153 422.18,-1153 422.18,-1141 422.18,-1141 422.18,-1135 428.18,-1129 434.18,-1129 434.18,-1129 594.18,-1129 594.18,-1129 600.18,-1129 606.18,-1135 606.18,-1141 606.18,-1141 606.18,-1153 606.18,-1153 606.18,-1159 600.18,-1165 594.18,-1165"/>
<text text-anchor="middle" x="514.18" y="-1143.3" font-family="Times,serif" font-size="14.00" fill="#314b5f">symfony/cache: v6.4.24</text>
</g>
<!-- bartlett/php&#45;compatinfo&#45;db&#45;&gt;symfony/cache -->
<g id="edge34" class="edge">
<title>bartlett/php&#45;compatinfo&#45;db&#45;&gt;symfony/cache</title>
<path fill="none" stroke="#1a2833" d="M216.19,-1092.55C273.18,-1103 350.47,-1117.17 411.91,-1128.43"/>
<polygon fill="#1a2833" stroke="#1a2833" points="411.55,-1131.93 422.02,-1130.29 412.82,-1125.04 411.55,-1131.93"/>
<text text-anchor="middle" x="319.18" y="-1119" font-family="Times,serif" font-size="10.00" fill="#767676">^6.4 || ^7.0</text>
</g>
<!-- symfony/config -->
<g id="node27" class="node">
<title>symfony/config</title>
<path fill="#eeeeee" stroke="black" d="M595.18,-1029C595.18,-1029 433.18,-1029 433.18,-1029 427.18,-1029 421.18,-1023 421.18,-1017 421.18,-1017 421.18,-1005 421.18,-1005 421.18,-999 427.18,-993 433.18,-993 433.18,-993 595.18,-993 595.18,-993 601.18,-993 607.18,-999 607.18,-1005 607.18,-1005 607.18,-1017 607.18,-1017 607.18,-1023 601.18,-1029 595.18,-1029"/>
<text text-anchor="middle" x="514.18" y="-1007.3" font-family="Times,serif" font-size="14.00" fill="#314b5f">symfony/config: v6.4.24</text>
</g>
<!-- bartlett/php&#45;compatinfo&#45;db&#45;&gt;symfony/config -->
<g id="edge39" class="edge">
<title>bartlett/php&#45;compatinfo&#45;db&#45;&gt;symfony/config</title>
<path fill="none" stroke="#1a2833" d="M218.03,-1063.54C274.53,-1053.49 350.28,-1040 410.9,-1029.21"/>
<polygon fill="#1a2833" stroke="#1a2833" points="411.64,-1032.63 420.88,-1027.43 410.42,-1025.74 411.64,-1032.63"/>
<text text-anchor="middle" x="319.18" y="-1054" font-family="Times,serif" font-size="10.00" fill="#767676">^6.4 || ^7.0</text>
</g>
<!-- symfony/dependency&#45;injection -->
<g id="node31" class="node">
<title>symfony/dependency&#45;injection</title>
<path fill="#eeeeee" stroke="black" d="M649.68,-954C649.68,-954 378.68,-954 378.68,-954 372.68,-954 366.68,-948 366.68,-942 366.68,-942 366.68,-930 366.68,-930 366.68,-924 372.68,-918 378.68,-918 378.68,-918 649.68,-918 649.68,-918 655.68,-918 661.68,-924 661.68,-930 661.68,-930 661.68,-942 661.68,-942 661.68,-948 655.68,-954 649.68,-954"/>
<text text-anchor="middle" x="514.18" y="-932.3" font-family="Times,serif" font-size="14.00" fill="#314b5f">symfony/dependency&#45;injection: v6.4.24</text>
</g>
<!-- bartlett/php&#45;compatinfo&#45;db&#45;&gt;symfony/dependency&#45;injection -->
<g id="edge46" class="edge">
<title>bartlett/php&#45;compatinfo&#45;db&#45;&gt;symfony/dependency&#45;injection</title>
<path fill="none" stroke="#1a2833" d="M176.77,-1060.65C222.35,-1041.09 299.31,-1008.78 366.68,-984 392.07,-974.66 420.25,-965.21 445.06,-957.2"/>
<polygon fill="#1a2833" stroke="#1a2833" points="446.29,-960.48 454.74,-954.09 444.15,-953.81 446.29,-960.48"/>
<text text-anchor="middle" x="319.18" y="-1017" font-family="Times,serif" font-size="10.00" fill="#767676">^6.4 || ^7.0</text>
</g>
<!-- symfony/event&#45;dispatcher -->
<g id="node33" class="node">
<title>symfony/event&#45;dispatcher</title>
<path fill="#eeeeee" stroke="black" d="M633.68,-379C633.68,-379 394.68,-379 394.68,-379 388.68,-379 382.68,-373 382.68,-367 382.68,-367 382.68,-355 382.68,-355 382.68,-349 388.68,-343 394.68,-343 394.68,-343 633.68,-343 633.68,-343 639.68,-343 645.68,-349 645.68,-355 645.68,-355 645.68,-367 645.68,-367 645.68,-373 639.68,-379 633.68,-379"/>
<text text-anchor="middle" x="514.18" y="-357.3" font-family="Times,serif" font-size="14.00" fill="#314b5f">symfony/event&#45;dispatcher: v6.4.24</text>
</g>
<!-- bartlett/php&#45;compatinfo&#45;db&#45;&gt;symfony/event&#45;dispatcher -->
<g id="edge49" class="edge">
<title>bartlett/php&#45;compatinfo&#45;db&#45;&gt;symfony/event&#45;dispatcher</title>
<path fill="none" stroke="#1a2833" d="M138.77,-1059.72C149.15,-964.96 201.05,-530.27 289.68,-434 312.35,-409.37 343.44,-393.03 375.22,-382.19"/>
<polygon fill="#1a2833" stroke="#1a2833" points="376.65,-385.41 385.09,-379 374.5,-378.75 376.65,-385.41"/>
<text text-anchor="middle" x="319.18" y="-437" font-family="Times,serif" font-size="10.00" fill="#767676">^6.4 || ^7.0</text>
</g>
<!-- symfony/finder -->
<g id="node35" class="node">
<title>symfony/finder</title>
<path fill="#eeeeee" stroke="black" d="M905.68,-281C905.68,-281 744.68,-281 744.68,-281 738.68,-281 732.68,-275 732.68,-269 732.68,-269 732.68,-257 732.68,-257 732.68,-251 738.68,-245 744.68,-245 744.68,-245 905.68,-245 905.68,-245 911.68,-245 917.68,-251 917.68,-257 917.68,-257 917.68,-269 917.68,-269 917.68,-275 911.68,-281 905.68,-281"/>
<text text-anchor="middle" x="825.18" y="-259.3" font-family="Times,serif" font-size="14.00" fill="#314b5f">symfony/finder: v6.4.24</text>
</g>
<!-- bartlett/php&#45;compatinfo&#45;db&#45;&gt;symfony/finder -->
<g id="edge51" class="edge">
<title>bartlett/php&#45;compatinfo&#45;db&#45;&gt;symfony/finder</title>
<path fill="none" stroke="#1a2833" d="M138.85,-1059.87C150,-961.83 206.78,-495.15 289.68,-380 339.42,-310.9 581.59,-281.2 722.3,-269.61"/>
<polygon fill="#1a2833" stroke="#1a2833" points="722.98,-273.07 732.67,-268.77 722.42,-266.09 722.98,-273.07"/>
<text text-anchor="middle" x="319.18" y="-383" font-family="Times,serif" font-size="10.00" fill="#767676">^6.4 || ^7.0</text>
</g>
<!-- symfony/http&#45;client -->
<g id="node36" class="node">
<title>symfony/http&#45;client</title>
<path fill="#eeeeee" stroke="black" d="M611.18,-661C611.18,-661 417.18,-661 417.18,-661 411.18,-661 405.18,-655 405.18,-649 405.18,-649 405.18,-637 405.18,-637 405.18,-631 411.18,-625 417.18,-625 417.18,-625 611.18,-625 611.18,-625 617.18,-625 623.18,-631 623.18,-637 623.18,-637 623.18,-649 623.18,-649 623.18,-655 617.18,-661 611.18,-661"/>
<text text-anchor="middle" x="514.18" y="-639.3" font-family="Times,serif" font-size="14.00" fill="#314b5f">symfony/http&#45;client: v6.4.24</text>
</g>
<!-- bartlett/php&#45;compatinfo&#45;db&#45;&gt;symfony/http&#45;client -->
<g id="edge57" class="edge">
<title>bartlett/php&#45;compatinfo&#45;db&#45;&gt;symfony/http&#45;client</title>
<path fill="none" stroke="#1a2833" d="M150.94,-1059.95C186.27,-1014.91 281.86,-894.26 366.68,-798 407.97,-751.13 458.46,-698.72 488.09,-668.43"/>
<polygon fill="#1a2833" stroke="#1a2833" points="490.66,-670.81 495.16,-661.22 485.66,-665.91 490.66,-670.81"/>
<text text-anchor="middle" x="319.18" y="-885" font-family="Times,serif" font-size="10.00" fill="#767676">^6.4 || ^7.0</text>
</g>
<!-- symfony/messenger -->
<g id="node38" class="node">
<title>symfony/messenger</title>
<path fill="#eeeeee" stroke="black" d="M612.68,-468C612.68,-468 415.68,-468 415.68,-468 409.68,-468 403.68,-462 403.68,-456 403.68,-456 403.68,-444 403.68,-444 403.68,-438 409.68,-432 415.68,-432 415.68,-432 612.68,-432 612.68,-432 618.68,-432 624.68,-438 624.68,-444 624.68,-444 624.68,-456 624.68,-456 624.68,-462 618.68,-468 612.68,-468"/>
<text text-anchor="middle" x="514.18" y="-446.3" font-family="Times,serif" font-size="14.00" fill="#314b5f">symfony/messenger: v6.4.24</text>
</g>
<!-- bartlett/php&#45;compatinfo&#45;db&#45;&gt;symfony/messenger -->
<g id="edge62" class="edge">
<title>bartlett/php&#45;compatinfo&#45;db&#45;&gt;symfony/messenger</title>
<path fill="none" stroke="#1a2833" d="M138.77,-1059.79C148.85,-968.28 198.5,-559.78 289.68,-479 317.72,-454.16 356.05,-443.84 393.05,-440.66"/>
<polygon fill="#1a2833" stroke="#1a2833" points="393.7,-444.12 403.44,-439.94 393.22,-437.14 393.7,-444.12"/>
<text text-anchor="middle" x="319.18" y="-482" font-family="Times,serif" font-size="10.00" fill="#767676">^6.4 || ^7.0</text>
</g>
<!-- symfony/polyfill&#45;php84 -->
<g id="node40" class="node">
<title>symfony/polyfill&#45;php84</title>
<path fill="#eeeeee" stroke="black" d="M933.68,-234C933.68,-234 716.68,-234 716.68,-234 710.68,-234 704.68,-228 704.68,-222 704.68,-222 704.68,-210 704.68,-210 704.68,-204 710.68,-198 716.68,-198 716.68,-198 933.68,-198 933.68,-198 939.68,-198 945.68,-204 945.68,-210 945.68,-210 945.68,-222 945.68,-222 945.68,-228 939.68,-234 933.68,-234"/>
<text text-anchor="middle" x="825.18" y="-212.3" font-family="Times,serif" font-size="14.00" fill="#314b5f">symfony/polyfill&#45;php84: v1.32.0</text>
</g>
<!-- bartlett/php&#45;compatinfo&#45;db&#45;&gt;symfony/polyfill&#45;php84 -->
<g id="edge64" class="edge">
<title>bartlett/php&#45;compatinfo&#45;db&#45;&gt;symfony/polyfill&#45;php84</title>
<path fill="none" stroke="#1a2833" d="M138.76,-1059.68C149.77,-957.32 207.2,-456.25 289.68,-328 312.56,-292.41 327.31,-287.51 366.68,-272 424.49,-249.22 580.55,-233.47 694.36,-224.6"/>
<polygon fill="#1a2833" stroke="#1a2833" points="694.85,-228.08 704.55,-223.82 694.31,-221.1 694.85,-228.08"/>
<text text-anchor="middle" x="319.18" y="-331" font-family="Times,serif" font-size="10.00" fill="#767676">^1.0</text>
</g>
<!-- symfony/process -->
<g id="node41" class="node">
<title>symfony/process</title>
<path fill="#eeeeee" stroke="black" d="M912.18,-190C912.18,-190 738.18,-190 738.18,-190 732.18,-190 726.18,-184 726.18,-178 726.18,-178 726.18,-166 726.18,-166 726.18,-160 732.18,-154 738.18,-154 738.18,-154 912.18,-154 912.18,-154 918.18,-154 924.18,-160 924.18,-166 924.18,-166 924.18,-178 924.18,-178 924.18,-184 918.18,-190 912.18,-190"/>
<text text-anchor="middle" x="825.18" y="-168.3" font-family="Times,serif" font-size="14.00" fill="#314b5f">symfony/process: v6.4.24</text>
</g>
<!-- bartlett/php&#45;compatinfo&#45;db&#45;&gt;symfony/process -->
<g id="edge66" class="edge">
<title>bartlett/php&#45;compatinfo&#45;db&#45;&gt;symfony/process</title>
<path fill="none" stroke="#1a2833" d="M138.14,-1059.73C146.15,-951.87 191.56,-398.53 289.68,-265 338.93,-197.96 574.68,-179.16 716.12,-173.94"/>
<polygon fill="#1a2833" stroke="#1a2833" points="716.26,-177.44 726.13,-173.59 716.02,-170.45 716.26,-177.44"/>
<text text-anchor="middle" x="319.18" y="-268" font-family="Times,serif" font-size="10.00" fill="#767676">^6.4 || ^7.0</text>
</g>
<!-- symfony/requirements&#45;checker -->
<g id="node42" class="node">
<title>symfony/requirements&#45;checker</title>
<path fill="#eeeeee" stroke="black" d="M958.68,-143C958.68,-143 691.68,-143 691.68,-143 685.68,-143 679.68,-137 679.68,-131 679.68,-131 679.68,-119 679.68,-119 679.68,-113 685.68,-107 691.68,-107 691.68,-107 958.68,-107 958.68,-107 964.68,-107 970.68,-113 970.68,-119 970.68,-119 970.68,-131 970.68,-131 970.68,-137 964.68,-143 958.68,-143"/>
<text text-anchor="middle" x="825.18" y="-121.3" font-family="Times,serif" font-size="14.00" fill="#314b5f">symfony/requirements&#45;checker: v2.0.3</text>
</g>
<!-- bartlett/php&#45;compatinfo&#45;db&#45;&gt;symfony/requirements&#45;checker -->
<g id="edge68" class="edge">
<title>bartlett/php&#45;compatinfo&#45;db&#45;&gt;symfony/requirements&#45;checker</title>
<path fill="none" stroke="#1a2833" d="M137.92,-1059.71C144.88,-947.99 186.14,-357.48 289.68,-215 333.47,-154.74 527.53,-134.59 669.25,-127.99"/>
<polygon fill="#1a2833" stroke="#1a2833" points="669.52,-131.48 679.36,-127.54 669.21,-124.49 669.52,-131.48"/>
<text text-anchor="middle" x="319.18" y="-218" font-family="Times,serif" font-size="10.00" fill="#767676">^2.0</text>
</g>
<!-- symfony/stopwatch -->
<g id="node43" class="node">
<title>symfony/stopwatch</title>
<path fill="#eeeeee" stroke="black" d="M610.68,-843C610.68,-843 417.68,-843 417.68,-843 411.68,-843 405.68,-837 405.68,-831 405.68,-831 405.68,-819 405.68,-819 405.68,-813 411.68,-807 417.68,-807 417.68,-807 610.68,-807 610.68,-807 616.68,-807 622.68,-813 622.68,-819 622.68,-819 622.68,-831 622.68,-831 622.68,-837 616.68,-843 610.68,-843"/>
<text text-anchor="middle" x="514.18" y="-821.3" font-family="Times,serif" font-size="14.00" fill="#314b5f">symfony/stopwatch: v6.4.24</text>
</g>
<!-- bartlett/php&#45;compatinfo&#45;db&#45;&gt;symfony/stopwatch -->
<g id="edge71" class="edge">
<title>bartlett/php&#45;compatinfo&#45;db&#45;&gt;symfony/stopwatch</title>
<path fill="none" stroke="#1a2833" d="M159.39,-1060.08C199.88,-1028.22 288.03,-960.22 366.68,-909 400.63,-886.89 440.62,-864.17 470.23,-847.94"/>
<polygon fill="#1a2833" stroke="#1a2833" points="471.97,-850.98 479.07,-843.12 468.62,-844.84 471.97,-850.98"/>
<text text-anchor="middle" x="319.18" y="-961" font-family="Times,serif" font-size="10.00" fill="#767676">^6.4 || ^7.0</text>
</g>
<!-- bamarni/composer&#45;bin&#45;plugin -->
<g id="node44" class="node">
<title>bamarni/composer&#45;bin&#45;plugin</title>
<path fill="#eeeeee" stroke="black" d="M637.68,-90C637.68,-90 390.68,-90 390.68,-90 384.68,-90 378.68,-84 378.68,-78 378.68,-78 378.68,-66 378.68,-66 378.68,-60 384.68,-54 390.68,-54 390.68,-54 637.68,-54 637.68,-54 643.68,-54 649.68,-60 649.68,-66 649.68,-66 649.68,-78 649.68,-78 649.68,-84 643.68,-90 637.68,-90"/>
<text text-anchor="middle" x="514.18" y="-68.3" font-family="Times,serif" font-size="14.00" fill="#314b5f">bamarni/composer&#45;bin&#45;plugin: 1.8.2</text>
</g>
<!-- bartlett/php&#45;compatinfo&#45;db&#45;&gt;bamarni/composer&#45;bin&#45;plugin -->
<g id="edge74" class="edge">
<title>bartlett/php&#45;compatinfo&#45;db&#45;&gt;bamarni/composer&#45;bin&#45;plugin</title>
<path fill="none" stroke="#1a2833" stroke-dasharray="5,2" d="M137.12,-1059.82C139.35,-940.54 157.68,-270.28 289.68,-127 310.56,-104.33 339.16,-90.32 368.92,-81.82"/>
<polygon fill="#1a2833" stroke="#1a2833" points="369.85,-85.2 378.62,-79.25 368.06,-78.43 369.85,-85.2"/>
<text text-anchor="middle" x="319.18" y="-130" font-family="Times,serif" font-size="10.00" fill="#767676">^1.8</text>
</g>
<!-- composer/semver&#45;&gt;php -->
<g id="edge8" class="edge">
<title>composer/semver&#45;&gt;php</title>
<path fill="none" stroke="#1a2833" d="M919.24,-1935.2C1043.54,-1950.68 1255.05,-1968.85 1314.68,-1923 1425.3,-1837.93 1419.83,-766.31 1418,-577.36"/>
<polygon fill="#1a2833" stroke="#1a2833" points="1421.5,-577.1 1417.89,-567.14 1414.5,-577.17 1421.5,-577.1"/>
<text text-anchor="middle" x="1151.68" y="-1955" font-family="Times,serif" font-size="10.00" fill="#767676">^5.3.2 || ^7.0 || ^8.0</text>
</g>
<!-- doctrine/orm&#45;&gt;php -->
<g id="edge20" class="edge">
<title>doctrine/orm&#45;&gt;php</title>
<path fill="none" stroke="#1a2833" d="M591.44,-1488.47C617.05,-1490.72 643.65,-1498.25 661.68,-1517 709.43,-1566.68 628.2,-1625.19 679.68,-1671 710.79,-1698.69 1299.59,-1673.95 1314.68,-1660 1396.6,-1584.22 1414.5,-744.54 1417.25,-577.72"/>
<polygon fill="#1a2833" stroke="#1a2833" points="1420.76,-577.35 1417.42,-567.3 1413.76,-577.24 1420.76,-577.35"/>
<text text-anchor="middle" x="1151.68" y="-1684" font-family="Times,serif" font-size="10.00" fill="#767676">^8.1</text>
</g>
<!-- doctrine/orm&#45;&gt;composer&#45;runtime&#45;api -->
<g id="edge10" class="edge">
<title>doctrine/orm&#45;&gt;composer&#45;runtime&#45;api</title>
<path fill="none" stroke="#1a2833" d="M591.27,-1492.89C617.33,-1496.6 644.28,-1505.76 661.68,-1526 702.46,-1573.46 635.76,-1762.43 679.68,-1807 725.2,-1853.21 917.46,-1792.91 970.68,-1830 986.34,-1840.91 973.5,-1857.42 988.68,-1869 1007.62,-1883.45 1031.45,-1891.35 1054.97,-1895.42"/>
<polygon fill="#1a2833" stroke="#1a2833" points="1054.61,-1898.91 1065.02,-1896.95 1055.65,-1891.99 1054.61,-1898.91"/>
<text text-anchor="middle" x="825.18" y="-1833" font-family="Times,serif" font-size="10.00" fill="#767676">^2</text>
</g>
<!-- doctrine/collections -->
<g id="node11" class="node">
<title>doctrine/collections</title>
<path fill="#eeeeee" stroke="black" d="M1240.18,-1651C1240.18,-1651 1063.18,-1651 1063.18,-1651 1057.18,-1651 1051.18,-1645 1051.18,-1639 1051.18,-1639 1051.18,-1627 1051.18,-1627 1051.18,-1621 1057.18,-1615 1063.18,-1615 1063.18,-1615 1240.18,-1615 1240.18,-1615 1246.18,-1615 1252.18,-1621 1252.18,-1627 1252.18,-1627 1252.18,-1639 1252.18,-1639 1252.18,-1645 1246.18,-1651 1240.18,-1651"/>
<text text-anchor="middle" x="1151.68" y="-1629.3" font-family="Times,serif" font-size="14.00" fill="#314b5f">doctrine/collections: 2.3.0</text>
</g>
<!-- doctrine/orm&#45;&gt;doctrine/collections -->
<g id="edge11" class="edge">
<title>doctrine/orm&#45;&gt;doctrine/collections</title>
<path fill="none" stroke="#1a2833" d="M591.26,-1495.91C616.25,-1500.08 642.51,-1508.77 661.68,-1526 680.49,-1542.91 660.01,-1564.08 679.68,-1580 780.82,-1661.88 936.75,-1662.82 1041.17,-1651.58"/>
<polygon fill="#1a2833" stroke="#1a2833" points="1041.57,-1655.06 1051.11,-1650.46 1040.78,-1648.1 1041.57,-1655.06"/>
<text text-anchor="middle" x="825.18" y="-1659" font-family="Times,serif" font-size="10.00" fill="#767676">^2.2</text>
</g>
<!-- doctrine/orm&#45;&gt;doctrine/dbal -->
<g id="edge12" class="edge">
<title>doctrine/orm&#45;&gt;doctrine/dbal</title>
<path fill="none" stroke="#1a2833" d="M549.05,-1475.94C581.55,-1459.54 632.54,-1436.27 679.68,-1425 805.79,-1394.86 849.62,-1450.47 970.68,-1404 980.14,-1400.37 979.39,-1394.07 988.68,-1390 1011.86,-1379.84 1038.44,-1373.48 1063.28,-1369.5"/>
<polygon fill="#1a2833" stroke="#1a2833" points="1064.06,-1372.93 1073.43,-1367.99 1063.03,-1366 1064.06,-1372.93"/>
<text text-anchor="middle" x="825.18" y="-1428" font-family="Times,serif" font-size="10.00" fill="#767676">^3.8.2 || ^4</text>
</g>
<!-- doctrine/deprecations -->
<g id="node13" class="node">
<title>doctrine/deprecations</title>
<path fill="#eeeeee" stroke="black" d="M1248.68,-1597C1248.68,-1597 1054.68,-1597 1054.68,-1597 1048.68,-1597 1042.68,-1591 1042.68,-1585 1042.68,-1585 1042.68,-1573 1042.68,-1573 1042.68,-1567 1048.68,-1561 1054.68,-1561 1054.68,-1561 1248.68,-1561 1248.68,-1561 1254.68,-1561 1260.68,-1567 1260.68,-1573 1260.68,-1573 1260.68,-1585 1260.68,-1585 1260.68,-1591 1254.68,-1597 1248.68,-1597"/>
<text text-anchor="middle" x="1151.68" y="-1575.3" font-family="Times,serif" font-size="14.00" fill="#314b5f">doctrine/deprecations: 1.1.5</text>
</g>
<!-- doctrine/orm&#45;&gt;doctrine/deprecations -->
<g id="edge13" class="edge">
<title>doctrine/orm&#45;&gt;doctrine/deprecations</title>
<path fill="none" stroke="#1a2833" d="M591.22,-1510.56C613.89,-1515.51 638.79,-1520.96 661.68,-1526 669.68,-1527.76 671.59,-1528.68 679.68,-1530 799.2,-1549.43 937.1,-1562.72 1032.66,-1570.51"/>
<polygon fill="#1a2833" stroke="#1a2833" points="1032.4,-1574 1042.65,-1571.31 1032.96,-1567.02 1032.4,-1574"/>
<text text-anchor="middle" x="825.18" y="-1568" font-family="Times,serif" font-size="10.00" fill="#767676">^0.5.3 || ^1</text>
</g>
<!-- doctrine/event&#45;manager -->
<g id="node14" class="node">
<title>doctrine/event&#45;manager</title>
<path fill="#eeeeee" stroke="black" d="M1256.18,-1543C1256.18,-1543 1047.18,-1543 1047.18,-1543 1041.18,-1543 1035.18,-1537 1035.18,-1531 1035.18,-1531 1035.18,-1519 1035.18,-1519 1035.18,-1513 1041.18,-1507 1047.18,-1507 1047.18,-1507 1256.18,-1507 1256.18,-1507 1262.18,-1507 1268.18,-1513 1268.18,-1519 1268.18,-1519 1268.18,-1531 1268.18,-1531 1268.18,-1537 1262.18,-1543 1256.18,-1543"/>
<text text-anchor="middle" x="1151.68" y="-1521.3" font-family="Times,serif" font-size="14.00" fill="#314b5f">doctrine/event&#45;manager: 2.0.1</text>
</g>
<!-- doctrine/orm&#45;&gt;doctrine/event&#45;manager -->
<g id="edge14" class="edge">
<title>doctrine/orm&#45;&gt;doctrine/event&#45;manager</title>
<path fill="none" stroke="#1a2833" d="M591.2,-1497.71C698.42,-1502.94 895.37,-1512.55 1024.67,-1518.85"/>
<polygon fill="#1a2833" stroke="#1a2833" points="1024.86,-1522.37 1035.02,-1519.36 1025.2,-1515.38 1024.86,-1522.37"/>
<text text-anchor="middle" x="825.18" y="-1518" font-family="Times,serif" font-size="10.00" fill="#767676">^1.2 || ^2</text>
</g>
<!-- doctrine/inflector -->
<g id="node15" class="node">
<title>doctrine/inflector</title>
<path fill="#eeeeee" stroke="black" d="M1232.18,-1489C1232.18,-1489 1071.18,-1489 1071.18,-1489 1065.18,-1489 1059.18,-1483 1059.18,-1477 1059.18,-1477 1059.18,-1465 1059.18,-1465 1059.18,-1459 1065.18,-1453 1071.18,-1453 1071.18,-1453 1232.18,-1453 1232.18,-1453 1238.18,-1453 1244.18,-1459 1244.18,-1465 1244.18,-1465 1244.18,-1477 1244.18,-1477 1244.18,-1483 1238.18,-1489 1232.18,-1489"/>
<text text-anchor="middle" x="1151.68" y="-1467.3" font-family="Times,serif" font-size="14.00" fill="#314b5f">doctrine/inflector: 2.1.0</text>
</g>
<!-- doctrine/orm&#45;&gt;doctrine/inflector -->
<g id="edge15" class="edge">
<title>doctrine/orm&#45;&gt;doctrine/inflector</title>
<path fill="none" stroke="#1a2833" d="M591.2,-1491.25C705.4,-1487.12 921.38,-1479.3 1049,-1474.68"/>
<polygon fill="#1a2833" stroke="#1a2833" points="1049.31,-1478.17 1059.18,-1474.31 1049.05,-1471.18 1049.31,-1478.17"/>
<text text-anchor="middle" x="825.18" y="-1490" font-family="Times,serif" font-size="10.00" fill="#767676">^1.4 || ^2.0</text>
</g>
<!-- doctrine/instantiator -->
<g id="node16" class="node">
<title>doctrine/instantiator</title>
<path fill="#eeeeee" stroke="black" d="M1244.18,-1435C1244.18,-1435 1059.18,-1435 1059.18,-1435 1053.18,-1435 1047.18,-1429 1047.18,-1423 1047.18,-1423 1047.18,-1411 1047.18,-1411 1047.18,-1405 1053.18,-1399 1059.18,-1399 1059.18,-1399 1244.18,-1399 1244.18,-1399 1250.18,-1399 1256.18,-1405 1256.18,-1411 1256.18,-1411 1256.18,-1423 1256.18,-1423 1256.18,-1429 1250.18,-1435 1244.18,-1435"/>
<text text-anchor="middle" x="1151.68" y="-1413.3" font-family="Times,serif" font-size="14.00" fill="#314b5f">doctrine/instantiator: 2.0.0</text>
</g>
<!-- doctrine/orm&#45;&gt;doctrine/instantiator -->
<g id="edge16" class="edge">
<title>doctrine/orm&#45;&gt;doctrine/instantiator</title>
<path fill="none" stroke="#1a2833" d="M591.46,-1477.35C619.14,-1471.79 650.71,-1466 679.68,-1462 808.23,-1444.25 841.54,-1450.85 970.68,-1438 992.12,-1435.87 1014.98,-1433.37 1036.96,-1430.86"/>
<polygon fill="#1a2833" stroke="#1a2833" points="1037.46,-1434.32 1046.99,-1429.7 1036.66,-1427.37 1037.46,-1434.32"/>
<text text-anchor="middle" x="825.18" y="-1465" font-family="Times,serif" font-size="10.00" fill="#767676">^1.3 || ^2</text>
</g>
<!-- doctrine/lexer -->
<g id="node17" class="node">
<title>doctrine/lexer</title>
<path fill="#eeeeee" stroke="black" d="M1220.18,-1860C1220.18,-1860 1083.18,-1860 1083.18,-1860 1077.18,-1860 1071.18,-1854 1071.18,-1848 1071.18,-1848 1071.18,-1836 1071.18,-1836 1071.18,-1830 1077.18,-1824 1083.18,-1824 1083.18,-1824 1220.18,-1824 1220.18,-1824 1226.18,-1824 1232.18,-1830 1232.18,-1836 1232.18,-1836 1232.18,-1848 1232.18,-1848 1232.18,-1854 1226.18,-1860 1220.18,-1860"/>
<text text-anchor="middle" x="1151.68" y="-1838.3" font-family="Times,serif" font-size="14.00" fill="#314b5f">doctrine/lexer: 3.0.1</text>
</g>
<!-- doctrine/orm&#45;&gt;doctrine/lexer -->
<g id="edge17" class="edge">
<title>doctrine/orm&#45;&gt;doctrine/lexer</title>
<path fill="none" stroke="#1a2833" d="M591.55,-1493.03C617.49,-1496.78 644.28,-1505.94 661.68,-1526 697.73,-1567.58 640.88,-1733.97 679.68,-1773 725.4,-1819.01 912.14,-1768.04 970.68,-1796 981.17,-1801.01 978.41,-1809.54 988.68,-1815 1010.69,-1826.71 1036.57,-1833.57 1061.1,-1837.53"/>
<polygon fill="#1a2833" stroke="#1a2833" points="1060.75,-1841.01 1071.15,-1839 1061.77,-1834.09 1060.75,-1841.01"/>
<text text-anchor="middle" x="825.18" y="-1799" font-family="Times,serif" font-size="10.00" fill="#767676">^3</text>
</g>
<!-- doctrine/persistence -->
<g id="node18" class="node">
<title>doctrine/persistence</title>
<path fill="#eeeeee" stroke="black" d="M1243.68,-1806C1243.68,-1806 1059.68,-1806 1059.68,-1806 1053.68,-1806 1047.68,-1800 1047.68,-1794 1047.68,-1794 1047.68,-1782 1047.68,-1782 1047.68,-1776 1053.68,-1770 1059.68,-1770 1059.68,-1770 1243.68,-1770 1243.68,-1770 1249.68,-1770 1255.68,-1776 1255.68,-1782 1255.68,-1782 1255.68,-1794 1255.68,-1794 1255.68,-1800 1249.68,-1806 1243.68,-1806"/>
<text text-anchor="middle" x="1151.68" y="-1784.3" font-family="Times,serif" font-size="14.00" fill="#314b5f">doctrine/persistence: 4.0.0</text>
</g>
<!-- doctrine/orm&#45;&gt;doctrine/persistence -->
<g id="edge18" class="edge">
<title>doctrine/orm&#45;&gt;doctrine/persistence</title>
<path fill="none" stroke="#1a2833" d="M591.43,-1493.14C617.35,-1496.9 644.17,-1506.04 661.68,-1526 693,-1561.71 646,-1705.5 679.68,-1739 702.67,-1761.87 938.44,-1758.4 970.68,-1762 992.31,-1764.41 1015.35,-1767.41 1037.46,-1770.51"/>
<polygon fill="#1a2833" stroke="#1a2833" points="1037.15,-1774 1047.55,-1771.94 1038.14,-1767.07 1037.15,-1774"/>
<text text-anchor="middle" x="825.18" y="-1765" font-family="Times,serif" font-size="10.00" fill="#767676">^3.3.1 || ^4</text>
</g>
<!-- ext&#45;ctype -->
<g id="node19" class="node">
<title>ext&#45;ctype</title>
<path fill="#eeeeee" stroke="black" d="M1181.18,-1752C1181.18,-1752 1122.18,-1752 1122.18,-1752 1116.18,-1752 1110.18,-1746 1110.18,-1740 1110.18,-1740 1110.18,-1728 1110.18,-1728 1110.18,-1722 1116.18,-1716 1122.18,-1716 1122.18,-1716 1181.18,-1716 1181.18,-1716 1187.18,-1716 1193.18,-1722 1193.18,-1728 1193.18,-1728 1193.18,-1740 1193.18,-1740 1193.18,-1746 1187.18,-1752 1181.18,-1752"/>
<text text-anchor="middle" x="1151.68" y="-1730.3" font-family="Times,serif" font-size="14.00" fill="#314b5f">ext&#45;ctype</text>
</g>
<!-- doctrine/orm&#45;&gt;ext&#45;ctype -->
<g id="edge19" class="edge">
<title>doctrine/orm&#45;&gt;ext&#45;ctype</title>
<path fill="none" stroke="#1a2833" d="M591.23,-1493.31C617.13,-1497.09 643.98,-1506.2 661.68,-1526 687.72,-1555.15 651.59,-1673.81 679.68,-1701 694.59,-1715.44 980.99,-1727.7 1099.75,-1732.18"/>
<polygon fill="#1a2833" stroke="#1a2833" points="1099.91,-1735.69 1110.03,-1732.56 1100.17,-1728.69 1099.91,-1735.69"/>
<text text-anchor="middle" x="825.18" y="-1729" font-family="Times,serif" font-size="10.00" fill="#767676">*</text>
</g>
<!-- psr/cache -->
<g id="node20" class="node">
<title>psr/cache</title>
<path fill="#eeeeee" stroke="black" d="M1204.68,-1273C1204.68,-1273 1098.68,-1273 1098.68,-1273 1092.68,-1273 1086.68,-1267 1086.68,-1261 1086.68,-1261 1086.68,-1249 1086.68,-1249 1086.68,-1243 1092.68,-1237 1098.68,-1237 1098.68,-1237 1204.68,-1237 1204.68,-1237 1210.68,-1237 1216.68,-1243 1216.68,-1249 1216.68,-1249 1216.68,-1261 1216.68,-1261 1216.68,-1267 1210.68,-1273 1204.68,-1273"/>
<text text-anchor="middle" x="1151.68" y="-1251.3" font-family="Times,serif" font-size="14.00" fill="#314b5f">psr/cache: 3.0.0</text>
</g>
<!-- doctrine/orm&#45;&gt;psr/cache -->
<g id="edge21" class="edge">
<title>doctrine/orm&#45;&gt;psr/cache</title>
<path fill="none" stroke="#1a2833" d="M544.83,-1475.86C577.19,-1454.8 628.79,-1417.35 661.68,-1374 673.71,-1358.15 663.88,-1345.1 679.68,-1333 783.52,-1253.47 844.28,-1322.69 970.68,-1289 978.97,-1286.79 980.4,-1284.27 988.68,-1282 1016.96,-1274.23 1048.67,-1268.35 1076.49,-1264.09"/>
<polygon fill="#1a2833" stroke="#1a2833" points="1077.17,-1267.52 1086.54,-1262.59 1076.14,-1260.6 1077.17,-1267.52"/>
<text text-anchor="middle" x="825.18" y="-1336" font-family="Times,serif" font-size="10.00" fill="#767676">^1 || ^2 || ^3</text>
</g>
<!-- doctrine/orm&#45;&gt;symfony/console -->
<g id="edge22" class="edge">
<title>doctrine/orm&#45;&gt;symfony/console</title>
<path fill="none" stroke="#1a2833" d="M537.28,-1475.92C567.47,-1452.27 624.19,-1411.45 679.68,-1391 802.35,-1345.79 848.66,-1394.95 970.68,-1348 979.65,-1344.55 979.73,-1339.54 988.68,-1336 1005.76,-1329.25 1024.5,-1324.18 1042.99,-1320.38"/>
<polygon fill="#1a2833" stroke="#1a2833" points="1043.77,-1323.8 1052.92,-1318.45 1042.44,-1316.92 1043.77,-1323.8"/>
<text text-anchor="middle" x="825.18" y="-1394" font-family="Times,serif" font-size="10.00" fill="#767676">^5.4 || ^6.0 || ^7.0</text>
</g>
<!-- symfony/var&#45;exporter -->
<g id="node22" class="node">
<title>symfony/var&#45;exporter</title>
<path fill="#eeeeee" stroke="black" d="M1256.18,-1172C1256.18,-1172 1047.18,-1172 1047.18,-1172 1041.18,-1172 1035.18,-1166 1035.18,-1160 1035.18,-1160 1035.18,-1148 1035.18,-1148 1035.18,-1142 1041.18,-1136 1047.18,-1136 1047.18,-1136 1256.18,-1136 1256.18,-1136 1262.18,-1136 1268.18,-1142 1268.18,-1148 1268.18,-1148 1268.18,-1160 1268.18,-1160 1268.18,-1166 1262.18,-1172 1256.18,-1172"/>
<text text-anchor="middle" x="1151.68" y="-1150.3" font-family="Times,serif" font-size="14.00" fill="#314b5f">symfony/var&#45;exporter: v6.4.24</text>
</g>
<!-- doctrine/orm&#45;&gt;symfony/var&#45;exporter -->
<g id="edge23" class="edge">
<title>doctrine/orm&#45;&gt;symfony/var&#45;exporter</title>
<path fill="none" stroke="#1a2833" d="M549.01,-1475.92C583.19,-1455.78 634.69,-1419.92 661.68,-1374 684.56,-1335.07 646.15,-1304.25 679.68,-1274 727.82,-1230.56 920.66,-1293.28 970.68,-1252 994.13,-1232.65 966.42,-1206.72 988.68,-1186 999.24,-1176.16 1011.93,-1168.95 1025.48,-1163.72"/>
<polygon fill="#1a2833" stroke="#1a2833" points="1026.7,-1167 1034.99,-1160.41 1024.4,-1160.39 1026.7,-1167"/>
<text text-anchor="middle" x="825.18" y="-1277" font-family="Times,serif" font-size="10.00" fill="#767676">^6.3.9 || ^7.0</text>
</g>
<!-- psr/log&#45;&gt;php -->
<g id="edge26" class="edge">
<title>psr/log&#45;&gt;php</title>
<path fill="none" stroke="#1a2833" d="M1207.45,-514.42C1252.34,-519.29 1317.41,-527.31 1373.68,-538 1376.18,-538.48 1378.75,-539.01 1381.34,-539.57"/>
<polygon fill="#1a2833" stroke="#1a2833" points="1380.73,-543.02 1391.26,-541.87 1382.31,-536.2 1380.73,-543.02"/>
<text text-anchor="middle" x="1353.18" y="-541" font-family="Times,serif" font-size="10.00" fill="#767676">&gt;=8.0.0</text>
</g>
<!-- symfony/cache&#45;&gt;php -->
<g id="edge28" class="edge">
<title>symfony/cache&#45;&gt;php</title>
<path fill="none" stroke="#1a2833" d="M606.29,-1158.9C624.74,-1161.98 643.91,-1165.68 661.68,-1170 669.87,-1171.99 671.36,-1174.58 679.68,-1176 749.23,-1187.87 1260.46,-1226.16 1314.68,-1181 1408.92,-1102.5 1417.22,-689.8 1417.72,-577.33"/>
<polygon fill="#1a2833" stroke="#1a2833" points="1421.22,-577.13 1417.74,-567.12 1414.22,-577.11 1421.22,-577.13"/>
<text text-anchor="middle" x="1151.68" y="-1205" font-family="Times,serif" font-size="10.00" fill="#767676">&gt;=8.1</text>
</g>
<!-- symfony/cache&#45;&gt;psr/cache -->
<g id="edge29" class="edge">
<title>symfony/cache&#45;&gt;psr/cache</title>
<path fill="none" stroke="#1a2833" d="M548.07,-1165.05C580.49,-1181.9 631.97,-1206.18 679.68,-1218 680.87,-1218.3 943.87,-1238.86 1076.29,-1249.2"/>
<polygon fill="#1a2833" stroke="#1a2833" points="1076.13,-1252.69 1086.37,-1249.98 1076.67,-1245.71 1076.13,-1252.69"/>
<text text-anchor="middle" x="825.18" y="-1242" font-family="Times,serif" font-size="10.00" fill="#767676">^2.0|^3.0</text>
</g>
<!-- symfony/cache&#45;&gt;symfony/var&#45;exporter -->
<g id="edge33" class="edge">
<title>symfony/cache&#45;&gt;symfony/var&#45;exporter</title>
<path fill="none" stroke="#1a2833" d="M606.47,-1154.85C630.28,-1156.57 655.92,-1158.13 679.68,-1159 796.57,-1163.26 929.88,-1161.2 1024.77,-1158.55"/>
<polygon fill="#1a2833" stroke="#1a2833" points="1025.09,-1162.04 1034.98,-1158.26 1024.89,-1155.04 1025.09,-1162.04"/>
<text text-anchor="middle" x="825.18" y="-1164" font-family="Times,serif" font-size="10.00" fill="#767676">^6.3.6|^7.0</text>
</g>
<!-- symfony/cache&#45;&gt;psr/log -->
<g id="edge30" class="edge">
<title>symfony/cache&#45;&gt;psr/log</title>
<path fill="none" stroke="#1a2833" d="M554.5,-1128.84C588.72,-1110.85 636.65,-1079.92 661.68,-1038 690,-990.56 640.7,-954.16 679.68,-915 771.95,-822.29 882.71,-967.8 970.68,-871 1020.07,-816.65 940.52,-596.45 988.68,-541 1012.27,-513.83 1051.67,-505.61 1085.71,-504.29"/>
<polygon fill="#1a2833" stroke="#1a2833" points="1086.15,-507.78 1096.07,-504.09 1086.01,-500.78 1086.15,-507.78"/>
<text text-anchor="middle" x="825.18" y="-918" font-family="Times,serif" font-size="10.00" fill="#767676">^1.1|^2|^3</text>
</g>
<!-- symfony/cache&#45;contracts -->
<g id="node25" class="node">
<title>symfony/cache&#45;contracts</title>
<path fill="#eeeeee" stroke="black" d="M1262.68,-1118C1262.68,-1118 1040.68,-1118 1040.68,-1118 1034.68,-1118 1028.68,-1112 1028.68,-1106 1028.68,-1106 1028.68,-1094 1028.68,-1094 1028.68,-1088 1034.68,-1082 1040.68,-1082 1040.68,-1082 1262.68,-1082 1262.68,-1082 1268.68,-1082 1274.68,-1088 1274.68,-1094 1274.68,-1094 1274.68,-1106 1274.68,-1106 1274.68,-1112 1268.68,-1118 1262.68,-1118"/>
<text text-anchor="middle" x="1151.68" y="-1096.3" font-family="Times,serif" font-size="14.00" fill="#314b5f">symfony/cache&#45;contracts: v3.6.0</text>
</g>
<!-- symfony/cache&#45;&gt;symfony/cache&#45;contracts -->
<g id="edge31" class="edge">
<title>symfony/cache&#45;&gt;symfony/cache&#45;contracts</title>
<path fill="none" stroke="#1a2833" d="M606.52,-1145C698.61,-1142.41 844.75,-1136.76 970.68,-1125 987.22,-1123.45 1004.57,-1121.49 1021.71,-1119.34"/>
<polygon fill="#1a2833" stroke="#1a2833" points="1022.28,-1122.79 1031.76,-1118.05 1021.4,-1115.85 1022.28,-1122.79"/>
<text text-anchor="middle" x="825.18" y="-1145" font-family="Times,serif" font-size="10.00" fill="#767676">^2.5|^3</text>
</g>
<!-- symfony/service&#45;contracts -->
<g id="node26" class="node">
<title>symfony/service&#45;contracts</title>
<path fill="#eeeeee" stroke="black" d="M1268.18,-808C1268.18,-808 1035.18,-808 1035.18,-808 1029.18,-808 1023.18,-802 1023.18,-796 1023.18,-796 1023.18,-784 1023.18,-784 1023.18,-778 1029.18,-772 1035.18,-772 1035.18,-772 1268.18,-772 1268.18,-772 1274.18,-772 1280.18,-778 1280.18,-784 1280.18,-784 1280.18,-796 1280.18,-796 1280.18,-802 1274.18,-808 1268.18,-808"/>
<text text-anchor="middle" x="1151.68" y="-786.3" font-family="Times,serif" font-size="14.00" fill="#314b5f">symfony/service&#45;contracts: v3.6.0</text>
</g>
<!-- symfony/cache&#45;&gt;symfony/service&#45;contracts -->
<g id="edge32" class="edge">
<title>symfony/cache&#45;&gt;symfony/service&#45;contracts</title>
<path fill="none" stroke="#1a2833" d="M549.4,-1128.96C581.96,-1112.71 632.78,-1089.63 679.68,-1078 742.69,-1062.37 925.02,-1098.16 970.68,-1052 1006.73,-1015.55 954.6,-860.31 988.68,-822 995.82,-813.96 1004.35,-807.6 1013.71,-802.58"/>
<polygon fill="#1a2833" stroke="#1a2833" points="1015.4,-805.65 1022.91,-798.18 1012.38,-799.34 1015.4,-805.65"/>
<text text-anchor="middle" x="825.18" y="-1081" font-family="Times,serif" font-size="10.00" fill="#767676">^2.5|^3</text>
</g>
<!-- symfony/config&#45;&gt;php -->
<g id="edge35" class="edge">
<title>symfony/config&#45;&gt;php</title>
<path fill="none" stroke="#1a2833" d="M607.4,-1001.47C630.96,-999.03 656.26,-996.42 679.68,-994 809.01,-980.65 846.65,-1003.03 970.68,-964 979.41,-961.25 979.96,-956.78 988.68,-954 1058.12,-931.87 1255.73,-960.87 1314.68,-918 1370.93,-877.09 1404.02,-656.7 1414.24,-577.43"/>
<polygon fill="#1a2833" stroke="#1a2833" points="1417.75,-577.57 1415.53,-567.21 1410.81,-576.69 1417.75,-577.57"/>
<text text-anchor="middle" x="1151.68" y="-957" font-family="Times,serif" font-size="10.00" fill="#767676">&gt;=8.1</text>
</g>
<!-- symfony/deprecation&#45;contracts -->
<g id="node28" class="node">
<title>symfony/deprecation&#45;contracts</title>
<path fill="#eeeeee" stroke="black" d="M1284.68,-735C1284.68,-735 1018.68,-735 1018.68,-735 1012.68,-735 1006.68,-729 1006.68,-723 1006.68,-723 1006.68,-711 1006.68,-711 1006.68,-705 1012.68,-699 1018.68,-699 1018.68,-699 1284.68,-699 1284.68,-699 1290.68,-699 1296.68,-705 1296.68,-711 1296.68,-711 1296.68,-723 1296.68,-723 1296.68,-729 1290.68,-735 1284.68,-735"/>
<text text-anchor="middle" x="1151.68" y="-713.3" font-family="Times,serif" font-size="14.00" fill="#314b5f">symfony/deprecation&#45;contracts: v3.6.0</text>
</g>
<!-- symfony/config&#45;&gt;symfony/deprecation&#45;contracts -->
<g id="edge36" class="edge">
<title>symfony/config&#45;&gt;symfony/deprecation&#45;contracts</title>
<path fill="none" stroke="#1a2833" d="M607.31,-998.45C628.11,-991.3 648.04,-980.2 661.68,-963 690.37,-926.82 646.79,-788.41 679.68,-756 702.77,-733.25 938.38,-737.78 970.68,-735 979,-734.28 987.53,-733.52 996.15,-732.73"/>
<polygon fill="#1a2833" stroke="#1a2833" points="996.65,-736.2 1006.29,-731.79 996.01,-729.23 996.65,-736.2"/>
<text text-anchor="middle" x="825.18" y="-759" font-family="Times,serif" font-size="10.00" fill="#767676">^2.5|^3</text>
</g>
<!-- symfony/filesystem -->
<g id="node29" class="node">
<title>symfony/filesystem</title>
<path fill="#eeeeee" stroke="black" d="M1247.68,-1010C1247.68,-1010 1055.68,-1010 1055.68,-1010 1049.68,-1010 1043.68,-1004 1043.68,-998 1043.68,-998 1043.68,-986 1043.68,-986 1043.68,-980 1049.68,-974 1055.68,-974 1055.68,-974 1247.68,-974 1247.68,-974 1253.68,-974 1259.68,-980 1259.68,-986 1259.68,-986 1259.68,-998 1259.68,-998 1259.68,-1004 1253.68,-1010 1247.68,-1010"/>
<text text-anchor="middle" x="1151.68" y="-988.3" font-family="Times,serif" font-size="14.00" fill="#314b5f">symfony/filesystem: v6.4.24</text>
</g>
<!-- symfony/config&#45;&gt;symfony/filesystem -->
<g id="edge37" class="edge">
<title>symfony/config&#45;&gt;symfony/filesystem</title>
<path fill="none" stroke="#1a2833" d="M607.24,-1008.25C719.75,-1004.88 910.26,-999.19 1033.22,-995.51"/>
<polygon fill="#1a2833" stroke="#1a2833" points="1033.54,-999 1043.43,-995.21 1033.33,-992.01 1033.54,-999"/>
<text text-anchor="middle" x="825.18" y="-1009" font-family="Times,serif" font-size="10.00" fill="#767676">^5.4|^6.0|^7.0</text>
</g>
<!-- symfony/polyfill&#45;ctype -->
<g id="node30" class="node">
<title>symfony/polyfill&#45;ctype</title>
<path fill="#eeeeee" stroke="black" d="M1257.18,-1064C1257.18,-1064 1046.18,-1064 1046.18,-1064 1040.18,-1064 1034.18,-1058 1034.18,-1052 1034.18,-1052 1034.18,-1040 1034.18,-1040 1034.18,-1034 1040.18,-1028 1046.18,-1028 1046.18,-1028 1257.18,-1028 1257.18,-1028 1263.18,-1028 1269.18,-1034 1269.18,-1040 1269.18,-1040 1269.18,-1052 1269.18,-1052 1269.18,-1058 1263.18,-1064 1257.18,-1064"/>
<text text-anchor="middle" x="1151.68" y="-1042.3" font-family="Times,serif" font-size="14.00" fill="#314b5f">symfony/polyfill&#45;ctype: v1.32.0</text>
</g>
<!-- symfony/config&#45;&gt;symfony/polyfill&#45;ctype -->
<g id="edge38" class="edge">
<title>symfony/config&#45;&gt;symfony/polyfill&#45;ctype</title>
<path fill="none" stroke="#1a2833" d="M607.39,-1016.73C630.96,-1018.16 656.25,-1019.67 679.68,-1021 796.22,-1027.64 929.02,-1034.63 1023.83,-1039.53"/>
<polygon fill="#1a2833" stroke="#1a2833" points="1023.88,-1043.04 1034.04,-1040.06 1024.24,-1036.05 1023.88,-1043.04"/>
<text text-anchor="middle" x="825.18" y="-1040" font-family="Times,serif" font-size="10.00" fill="#767676">~1.8</text>
</g>
<!-- symfony/dependency&#45;injection&#45;&gt;php -->
<g id="edge41" class="edge">
<title>symfony/dependency&#45;injection&#45;&gt;php</title>
<path fill="none" stroke="#1a2833" d="M661.92,-929.89C790.33,-923.94 958.34,-914.43 970.68,-905 990.1,-890.15 969.56,-868.26 988.68,-853 1102.59,-762.05 1199.25,-906.02 1314.68,-817 1391.65,-757.64 1411.12,-633.21 1416.03,-577.29"/>
<polygon fill="#1a2833" stroke="#1a2833" points="1419.54,-577.3 1416.83,-567.05 1412.56,-576.75 1419.54,-577.3"/>
<text text-anchor="middle" x="1151.68" y="-856" font-family="Times,serif" font-size="10.00" fill="#767676">&gt;=8.1</text>
</g>
<!-- symfony/dependency&#45;injection&#45;&gt;symfony/var&#45;exporter -->
<g id="edge45" class="edge">
<title>symfony/dependency&#45;injection&#45;&gt;symfony/var&#45;exporter</title>
<path fill="none" stroke="#1a2833" d="M618.82,-954.1C635.07,-961.08 650.24,-970.71 661.68,-984 693.13,-1020.56 644,-1058.55 679.68,-1091 727.64,-1134.63 910.55,-1087.75 970.68,-1112 980.33,-1115.9 979.21,-1122.66 988.68,-1127 1000.24,-1132.3 1012.7,-1136.58 1025.38,-1140.02"/>
<polygon fill="#1a2833" stroke="#1a2833" points="1024.56,-1143.43 1035.12,-1142.5 1026.29,-1136.64 1024.56,-1143.43"/>
<text text-anchor="middle" x="825.18" y="-1115" font-family="Times,serif" font-size="10.00" fill="#767676">^6.4.20|^7.2.5</text>
</g>
<!-- symfony/dependency&#45;injection&#45;&gt;symfony/service&#45;contracts -->
<g id="edge44" class="edge">
<title>symfony/dependency&#45;injection&#45;&gt;symfony/service&#45;contracts</title>
<path fill="none" stroke="#1a2833" d="M545.82,-917.97C577.98,-899.99 630.61,-873.19 679.68,-860 805.11,-826.27 847.4,-873.92 970.68,-833 979.57,-830.05 979.94,-825.41 988.68,-822 999.74,-817.69 1011.46,-813.93 1023.33,-810.67"/>
<polygon fill="#1a2833" stroke="#1a2833" points="1024.55,-813.97 1033.34,-808.04 1022.77,-807.2 1024.55,-813.97"/>
<text text-anchor="middle" x="825.18" y="-863" font-family="Times,serif" font-size="10.00" fill="#767676">^2.5|^3.0</text>
</g>
<!-- symfony/dependency&#45;injection&#45;&gt;symfony/deprecation&#45;contracts -->
<g id="edge43" class="edge">
<title>symfony/dependency&#45;injection&#45;&gt;symfony/deprecation&#45;contracts</title>
<path fill="none" stroke="#1a2833" d="M571.18,-917.92C602.87,-904.73 640.31,-883.57 661.68,-852 693.87,-804.42 636.6,-762.01 679.68,-724 703.22,-703.22 868.05,-704.86 996.16,-709.49"/>
<polygon fill="#1a2833" stroke="#1a2833" points="996.36,-713 1006.49,-709.87 996.62,-706 996.36,-713"/>
<text text-anchor="middle" x="825.18" y="-727" font-family="Times,serif" font-size="10.00" fill="#767676">^2.5|^3</text>
</g>
<!-- psr/container -->
<g id="node32" class="node">
<title>psr/container</title>
<path fill="#eeeeee" stroke="black" d="M1218.18,-909C1218.18,-909 1085.18,-909 1085.18,-909 1079.18,-909 1073.18,-903 1073.18,-897 1073.18,-897 1073.18,-885 1073.18,-885 1073.18,-879 1079.18,-873 1085.18,-873 1085.18,-873 1218.18,-873 1218.18,-873 1224.18,-873 1230.18,-879 1230.18,-885 1230.18,-885 1230.18,-897 1230.18,-897 1230.18,-903 1224.18,-909 1218.18,-909"/>
<text text-anchor="middle" x="1151.68" y="-887.3" font-family="Times,serif" font-size="14.00" fill="#314b5f">psr/container: 2.0.2</text>
</g>
<!-- symfony/dependency&#45;injection&#45;&gt;psr/container -->
<g id="edge42" class="edge">
<title>symfony/dependency&#45;injection&#45;&gt;psr/container</title>
<path fill="none" stroke="#1a2833" d="M661.92,-947.24C751.86,-950.88 868.88,-949.79 970.68,-930 979.1,-928.36 980.43,-925.4 988.68,-923 1012.51,-916.07 1038.75,-910.17 1063.04,-905.39"/>
<polygon fill="#1a2833" stroke="#1a2833" points="1063.8,-908.81 1072.96,-903.48 1062.48,-901.94 1063.8,-908.81"/>
<text text-anchor="middle" x="825.18" y="-952" font-family="Times,serif" font-size="10.00" fill="#767676">^1.1|^2.0</text>
</g>
<!-- symfony/event&#45;dispatcher&#45;&gt;php -->
<g id="edge47" class="edge">
<title>symfony/event&#45;dispatcher&#45;&gt;php</title>
<path fill="none" stroke="#1a2833" d="M645.91,-355.46C857.89,-347.51 1258.68,-337.2 1314.68,-370 1371,-403 1399.31,-479.6 1410.96,-521.09"/>
<polygon fill="#1a2833" stroke="#1a2833" points="1407.6,-522.08 1413.57,-530.84 1414.36,-520.27 1407.6,-522.08"/>
<text text-anchor="middle" x="1151.68" y="-373" font-family="Times,serif" font-size="10.00" fill="#767676">&gt;=8.1</text>
</g>
<!-- symfony/event&#45;dispatcher&#45;contracts -->
<g id="node34" class="node">
<title>symfony/event&#45;dispatcher&#45;contracts</title>
<path fill="#eeeeee" stroke="black" d="M1302.68,-325C1302.68,-325 1000.68,-325 1000.68,-325 994.68,-325 988.68,-319 988.68,-313 988.68,-313 988.68,-301 988.68,-301 988.68,-295 994.68,-289 1000.68,-289 1000.68,-289 1302.68,-289 1302.68,-289 1308.68,-289 1314.68,-295 1314.68,-301 1314.68,-301 1314.68,-313 1314.68,-313 1314.68,-319 1308.68,-325 1302.68,-325"/>
<text text-anchor="middle" x="1151.68" y="-303.3" font-family="Times,serif" font-size="14.00" fill="#314b5f">symfony/event&#45;dispatcher&#45;contracts: v3.6.0</text>
</g>
<!-- symfony/event&#45;dispatcher&#45;&gt;symfony/event&#45;dispatcher&#45;contracts -->
<g id="edge48" class="edge">
<title>symfony/event&#45;dispatcher&#45;&gt;symfony/event&#45;dispatcher&#45;contracts</title>
<path fill="none" stroke="#1a2833" d="M624.72,-342.96C643.04,-340.34 661.87,-337.9 679.68,-336 778.32,-325.49 889.01,-318.43 978.3,-313.92"/>
<polygon fill="#1a2833" stroke="#1a2833" points="978.71,-317.4 988.52,-313.4 978.36,-310.41 978.71,-317.4"/>
<text text-anchor="middle" x="825.18" y="-339" font-family="Times,serif" font-size="10.00" fill="#767676">^2.5|^3</text>
</g>
<!-- symfony/finder&#45;&gt;php -->
<g id="edge50" class="edge">
<title>symfony/finder&#45;&gt;php</title>
<path fill="none" stroke="#1a2833" d="M917.88,-254.69C1039.8,-245.24 1247.68,-235.16 1314.68,-269 1406.7,-315.48 1417.89,-458.96 1418.31,-520.49"/>
<polygon fill="#1a2833" stroke="#1a2833" points="1414.81,-520.65 1418.29,-530.65 1421.81,-520.66 1414.81,-520.65"/>
<text text-anchor="middle" x="1151.68" y="-272" font-family="Times,serif" font-size="10.00" fill="#767676">&gt;=8.1</text>
</g>
<!-- symfony/http&#45;client&#45;&gt;php -->
<g id="edge52" class="edge">
<title>symfony/http&#45;client&#45;&gt;php</title>
<path fill="none" stroke="#1a2833" d="M555.12,-624.88C587.86,-610.97 635.78,-592.71 679.68,-584 816.28,-556.89 1252.12,-550.59 1381.28,-549.3"/>
<polygon fill="#1a2833" stroke="#1a2833" points="1381.46,-552.8 1391.43,-549.2 1381.39,-545.8 1381.46,-552.8"/>
<text text-anchor="middle" x="1151.68" y="-562" font-family="Times,serif" font-size="10.00" fill="#767676">&gt;=8.1</text>
</g>
<!-- symfony/http&#45;client&#45;&gt;psr/log -->
<g id="edge53" class="edge">
<title>symfony/http&#45;client&#45;&gt;psr/log</title>
<path fill="none" stroke="#1a2833" d="M535.71,-624.9C565.2,-600.14 622.33,-556.67 679.68,-538 717.24,-525.77 965.57,-515.51 1085.74,-511.19"/>
<polygon fill="#1a2833" stroke="#1a2833" points="1086.05,-514.68 1095.92,-510.83 1085.8,-507.68 1086.05,-514.68"/>
<text text-anchor="middle" x="825.18" y="-541" font-family="Times,serif" font-size="10.00" fill="#767676">^1|^2|^3</text>
</g>
<!-- symfony/http&#45;client&#45;&gt;symfony/service&#45;contracts -->
<g id="edge56" class="edge">
<title>symfony/http&#45;client&#45;&gt;symfony/service&#45;contracts</title>
<path fill="none" stroke="#1a2833" d="M531.69,-661.45C559.08,-690.57 617.14,-746.24 679.68,-769 710.29,-780.14 884.95,-785.55 1012.68,-788.04"/>
<polygon fill="#1a2833" stroke="#1a2833" points="1012.88,-791.55 1022.95,-788.24 1013.02,-784.55 1012.88,-791.55"/>
<text text-anchor="middle" x="825.18" y="-790" font-family="Times,serif" font-size="10.00" fill="#767676">^2.5|^3</text>
</g>
<!-- symfony/http&#45;client&#45;&gt;symfony/deprecation&#45;contracts -->
<g id="edge54" class="edge">
<title>symfony/http&#45;client&#45;&gt;symfony/deprecation&#45;contracts</title>
<path fill="none" stroke="#1a2833" d="M623.44,-659.83C642.16,-662.45 661.46,-664.95 679.68,-667 808.6,-681.48 841.78,-675.26 970.68,-690 989.39,-692.14 1009.15,-694.75 1028.45,-697.49"/>
<polygon fill="#1a2833" stroke="#1a2833" points="1028.1,-700.97 1038.49,-698.93 1029.09,-694.05 1028.1,-700.97"/>
<text text-anchor="middle" x="825.18" y="-693" font-family="Times,serif" font-size="10.00" fill="#767676">^2.5|^3</text>
</g>
<!-- symfony/http&#45;client&#45;contracts -->
<g id="node37" class="node">
<title>symfony/http&#45;client&#45;contracts</title>
<path fill="#eeeeee" stroke="black" d="M1279.68,-628C1279.68,-628 1023.68,-628 1023.68,-628 1017.68,-628 1011.68,-622 1011.68,-616 1011.68,-616 1011.68,-604 1011.68,-604 1011.68,-598 1017.68,-592 1023.68,-592 1023.68,-592 1279.68,-592 1279.68,-592 1285.68,-592 1291.68,-598 1291.68,-604 1291.68,-604 1291.68,-616 1291.68,-616 1291.68,-622 1285.68,-628 1279.68,-628"/>
<text text-anchor="middle" x="1151.68" y="-606.3" font-family="Times,serif" font-size="14.00" fill="#314b5f">symfony/http&#45;client&#45;contracts: v3.6.0</text>
</g>
<!-- symfony/http&#45;client&#45;&gt;symfony/http&#45;client&#45;contracts -->
<g id="edge55" class="edge">
<title>symfony/http&#45;client&#45;&gt;symfony/http&#45;client&#45;contracts</title>
<path fill="none" stroke="#1a2833" d="M565.91,-624.94C598.05,-614.48 640.75,-602.34 679.68,-597 786.61,-582.33 908.43,-586.24 1001.39,-593.47"/>
<polygon fill="#1a2833" stroke="#1a2833" points="1001.18,-596.96 1011.43,-594.27 1001.74,-589.98 1001.18,-596.96"/>
<text text-anchor="middle" x="825.18" y="-600" font-family="Times,serif" font-size="10.00" fill="#767676">~3.4.4|^3.5.2</text>
</g>
<!-- symfony/messenger&#45;&gt;php -->
<g id="edge58" class="edge">
<title>symfony/messenger&#45;&gt;php</title>
<path fill="none" stroke="#1a2833" d="M625.02,-444.55C813.69,-436.56 1190.96,-427.03 1314.68,-471 1345.28,-481.88 1374.21,-505.4 1393.57,-523.78"/>
<polygon fill="#1a2833" stroke="#1a2833" points="1391.16,-526.32 1400.76,-530.79 1396.04,-521.31 1391.16,-526.32"/>
<text text-anchor="middle" x="1151.68" y="-474" font-family="Times,serif" font-size="10.00" fill="#767676">&gt;=8.1</text>
</g>
<!-- symfony/messenger&#45;&gt;psr/log -->
<g id="edge59" class="edge">
<title>symfony/messenger&#45;&gt;psr/log</title>
<path fill="none" stroke="#1a2833" d="M624.98,-453.86C717.41,-457.86 852.99,-465.48 970.68,-479 1009.21,-483.43 1052.05,-490.48 1086.26,-496.63"/>
<polygon fill="#1a2833" stroke="#1a2833" points="1085.67,-500.08 1096.13,-498.43 1086.92,-493.2 1085.67,-500.08"/>
<text text-anchor="middle" x="825.18" y="-482" font-family="Times,serif" font-size="10.00" fill="#767676">^1|^2|^3</text>
</g>
<!-- symfony/messenger&#45;&gt;symfony/deprecation&#45;contracts -->
<g id="edge61" class="edge">
<title>symfony/messenger&#45;&gt;symfony/deprecation&#45;contracts</title>
<path fill="none" stroke="#1a2833" d="M624.85,-458.2C638.74,-463.48 651.6,-471.11 661.68,-482 701.29,-524.81 638.55,-570.64 679.68,-612 771.81,-704.67 858.94,-586.25 970.68,-654 982.38,-661.1 977.29,-671.4 988.68,-679 998.44,-685.52 1009.18,-690.92 1020.35,-695.4"/>
<polygon fill="#1a2833" stroke="#1a2833" points="1019.22,-698.72 1029.81,-698.95 1021.68,-692.16 1019.22,-698.72"/>
<text text-anchor="middle" x="825.18" y="-657" font-family="Times,serif" font-size="10.00" fill="#767676">^2.5|^3</text>
</g>
<!-- symfony/clock -->
<g id="node39" class="node">
<title>symfony/clock</title>
<path fill="#eeeeee" stroke="black" d="M1229.18,-426C1229.18,-426 1074.18,-426 1074.18,-426 1068.18,-426 1062.18,-420 1062.18,-414 1062.18,-414 1062.18,-402 1062.18,-402 1062.18,-396 1068.18,-390 1074.18,-390 1074.18,-390 1229.18,-390 1229.18,-390 1235.18,-390 1241.18,-396 1241.18,-402 1241.18,-402 1241.18,-414 1241.18,-414 1241.18,-420 1235.18,-426 1229.18,-426"/>
<text text-anchor="middle" x="1151.68" y="-404.3" font-family="Times,serif" font-size="14.00" fill="#314b5f">symfony/clock: v6.4.24</text>
</g>
<!-- symfony/messenger&#45;&gt;symfony/clock -->
<g id="edge60" class="edge">
<title>symfony/messenger&#45;&gt;symfony/clock</title>
<path fill="none" stroke="#1a2833" d="M599.77,-431.98C625.33,-427.24 653.54,-422.7 679.68,-420 807.64,-406.78 956.14,-405.28 1051.64,-406.08"/>
<polygon fill="#1a2833" stroke="#1a2833" points="1051.84,-409.58 1061.87,-406.18 1051.9,-402.58 1051.84,-409.58"/>
<text text-anchor="middle" x="825.18" y="-423" font-family="Times,serif" font-size="10.00" fill="#767676">^6.3|^7.0</text>
</g>
<!-- symfony/polyfill&#45;php84&#45;&gt;php -->
<g id="edge63" class="edge">
<title>symfony/polyfill&#45;php84&#45;&gt;php</title>
<path fill="none" stroke="#1a2833" d="M945.74,-199.43C1047.09,-190.07 1194.67,-187.67 1314.68,-231 1345.95,-242.29 1356.74,-248.39 1373.68,-277 1397.93,-317.97 1411.07,-459.67 1415.71,-520.69"/>
<polygon fill="#1a2833" stroke="#1a2833" points="1412.23,-521.05 1416.46,-530.77 1419.21,-520.54 1412.23,-521.05"/>
<text text-anchor="middle" x="1151.68" y="-234" font-family="Times,serif" font-size="10.00" fill="#767676">&gt;=7.2</text>
</g>
<!-- symfony/process&#45;&gt;php -->
<g id="edge65" class="edge">
<title>symfony/process&#45;&gt;php</title>
<path fill="none" stroke="#1a2833" d="M924.18,-165.08C1046.09,-157.9 1246.48,-151.22 1314.68,-179 1348.16,-192.64 1357.13,-202.85 1373.68,-235 1399.21,-284.61 1411.89,-452.54 1416.07,-520.3"/>
<polygon fill="#1a2833" stroke="#1a2833" points="1412.6,-520.87 1416.69,-530.65 1419.58,-520.46 1412.6,-520.87"/>
<text text-anchor="middle" x="1151.68" y="-182" font-family="Times,serif" font-size="10.00" fill="#767676">&gt;=8.1</text>
</g>
<!-- symfony/requirements&#45;checker&#45;&gt;php -->
<g id="edge67" class="edge">
<title>symfony/requirements&#45;checker&#45;&gt;php</title>
<path fill="none" stroke="#1a2833" d="M970.93,-110.09C1070.14,-104.79 1203.4,-107.45 1314.68,-144 1344.77,-153.89 1357.18,-156.95 1373.68,-184 1408.11,-240.49 1415.63,-444.84 1417.24,-520.54"/>
<polygon fill="#1a2833" stroke="#1a2833" points="1413.75,-520.81 1417.44,-530.74 1420.75,-520.67 1413.75,-520.81"/>
<text text-anchor="middle" x="1151.68" y="-147" font-family="Times,serif" font-size="10.00" fill="#767676">&gt;=5.3.9</text>
</g>
<!-- symfony/stopwatch&#45;&gt;php -->
<g id="edge69" class="edge">
<title>symfony/stopwatch&#45;&gt;php</title>
<path fill="none" stroke="#1a2833" d="M535.48,-806.91C565.56,-779.4 622.62,-724.47 661.68,-670 671.64,-656.1 665.03,-644.82 679.68,-636 735.08,-602.64 906.03,-634.21 970.68,-636 978.69,-636.22 980.67,-636.78 988.68,-637 1133.51,-641.02 1178.75,-687.16 1314.68,-637 1348.13,-624.65 1378.09,-596.06 1396.96,-574.8"/>
<polygon fill="#1a2833" stroke="#1a2833" points="1399.75,-576.92 1403.63,-567.06 1394.45,-572.35 1399.75,-576.92"/>
<text text-anchor="middle" x="1151.68" y="-664" font-family="Times,serif" font-size="10.00" fill="#767676">&gt;=8.1</text>
</g>
<!-- symfony/stopwatch&#45;&gt;symfony/service&#45;contracts -->
<g id="edge70" class="edge">
<title>symfony/stopwatch&#45;&gt;symfony/service&#45;contracts</title>
<path fill="none" stroke="#1a2833" d="M622.89,-820.52C715.22,-816.51 851.74,-810.17 970.68,-803 984.27,-802.18 998.43,-801.27 1012.58,-800.31"/>
<polygon fill="#1a2833" stroke="#1a2833" points="1013.13,-803.78 1022.87,-799.61 1012.65,-796.8 1013.13,-803.78"/>
<text text-anchor="middle" x="825.18" y="-821" font-family="Times,serif" font-size="10.00" fill="#767676">^2.5|^3</text>
</g>
<!-- bamarni/composer&#45;bin&#45;plugin&#45;&gt;php -->
<g id="edge73" class="edge">
<title>bamarni/composer&#45;bin&#45;plugin&#45;&gt;php</title>
<path fill="none" stroke="#1a2833" d="M650.07,-70.66C861.95,-69.3 1254.87,-70.13 1314.68,-94 1347.41,-107.06 1357.59,-115.64 1373.68,-147 1407.27,-212.48 1415.35,-440.3 1417.17,-520.67"/>
<polygon fill="#1a2833" stroke="#1a2833" points="1413.68,-521.07 1417.39,-531 1420.68,-520.92 1413.68,-521.07"/>
<text text-anchor="middle" x="1151.68" y="-97" font-family="Times,serif" font-size="10.00" fill="#767676">^7.2.5 || ^8.0</text>
</g>
<!-- composer&#45;plugin&#45;api -->
<g id="node45" class="node">
<title>composer&#45;plugin&#45;api</title>
<path fill="#eeeeee" stroke="black" d="M1220.18,-36C1220.18,-36 1083.18,-36 1083.18,-36 1077.18,-36 1071.18,-30 1071.18,-24 1071.18,-24 1071.18,-12 1071.18,-12 1071.18,-6 1077.18,0 1083.18,0 1083.18,0 1220.18,0 1220.18,0 1226.18,0 1232.18,-6 1232.18,-12 1232.18,-12 1232.18,-24 1232.18,-24 1232.18,-30 1226.18,-36 1220.18,-36"/>
<text text-anchor="middle" x="1151.68" y="-14.3" font-family="Times,serif" font-size="14.00" fill="#314b5f">composer&#45;plugin&#45;api</text>
</g>
<!-- bamarni/composer&#45;bin&#45;plugin&#45;&gt;composer&#45;plugin&#45;api -->
<g id="edge72" class="edge">
<title>bamarni/composer&#45;bin&#45;plugin&#45;&gt;composer&#45;plugin&#45;api</title>
<path fill="none" stroke="#1a2833" d="M624.72,-53.96C643.04,-51.34 661.87,-48.9 679.68,-47 811.92,-32.91 965.84,-25.03 1060.77,-21.15"/>
<polygon fill="#1a2833" stroke="#1a2833" points="1061.06,-24.64 1070.91,-20.74 1060.77,-17.64 1061.06,-24.64"/>
<text text-anchor="middle" x="825.18" y="-50" font-family="Times,serif" font-size="10.00" fill="#767676">^2.0</text>
</g>
</g>
</svg>
