<?xml version="1.0" encoding="UTF-8" standalone="no"?>
<!DOCTYPE svg PUBLIC "-//W3C//DTD SVG 1.1//EN"
 "http://www.w3.org/Graphics/SVG/1.1/DTD/svg11.dtd">
<!-- Generated by graphviz version 2.43.0 (0)
 -->
<!-- Title: %3 Pages: 1 -->
<svg width="1962pt" height="2281pt"
 viewBox="0.00 0.00 1961.68 2281.00" xmlns="http://www.w3.org/2000/svg" xmlns:xlink="http://www.w3.org/1999/xlink">
<g id="graph0" class="graph" transform="scale(1 1) rotate(0) translate(4 2277)">
<title>%3</title>
<polygon fill="white" stroke="transparent" points="-4,4 -4,-2277 1957.68,-2277 1957.68,4 -4,4"/>
<!-- bartlett/php&#45;compatinfo&#45;db -->
<g id="node1" class="node">
<title>bartlett/php&#45;compatinfo&#45;db</title>
<ellipse fill="lightgrey" stroke="black" stroke-width="2" cx="135.84" cy="-1540" rx="135.68" ry="18"/>
<text text-anchor="middle" x="135.84" y="-1536.3" font-family="Times,serif" font-size="14.00">bartlett/php&#45;compatinfo&#45;db</text>
</g>
<!-- php -->
<g id="node2" class="node">
<title>php</title>
<path fill="#eeeeee" stroke="black" d="M1941.68,-1753C1941.68,-1753 1911.68,-1753 1911.68,-1753 1905.68,-1753 1899.68,-1747 1899.68,-1741 1899.68,-1741 1899.68,-1729 1899.68,-1729 1899.68,-1723 1905.68,-1717 1911.68,-1717 1911.68,-1717 1941.68,-1717 1941.68,-1717 1947.68,-1717 1953.68,-1723 1953.68,-1729 1953.68,-1729 1953.68,-1741 1953.68,-1741 1953.68,-1747 1947.68,-1753 1941.68,-1753"/>
<text text-anchor="middle" x="1926.68" y="-1731.3" font-family="Times,serif" font-size="14.00" fill="#314b5f">php</text>
</g>
<!-- bartlett/php&#45;compatinfo&#45;db&#45;&gt;php -->
<g id="edge1" class="edge">
<title>bartlett/php&#45;compatinfo&#45;db&#45;&gt;php</title>
<path fill="none" stroke="#1a2833" d="M138.59,-1558.03C148.28,-1654.48 198.3,-2108.86 289.68,-2210 316.8,-2240.03 491.45,-2262 502.68,-2262 502.68,-2262 502.68,-2262 1660.68,-2262 1769.8,-2262 1838.59,-2255.26 1881.68,-2155 1912.15,-2084.09 1922.26,-1845.72 1924.89,-1763.31"/>
<polygon fill="#1a2833" stroke="#1a2833" points="1928.39,-1763.29 1925.2,-1753.19 1921.39,-1763.07 1928.39,-1763.29"/>
<text text-anchor="middle" x="1022.18" y="-2265" font-family="Times,serif" font-size="10.00" fill="#767676">^8.1</text>
</g>
<!-- ext&#45;json -->
<g id="node3" class="node">
<title>ext&#45;json</title>
<path fill="#eeeeee" stroke="black" d="M528.18,-252C528.18,-252 479.18,-252 479.18,-252 473.18,-252 467.18,-246 467.18,-240 467.18,-240 467.18,-228 467.18,-228 467.18,-222 473.18,-216 479.18,-216 479.18,-216 528.18,-216 528.18,-216 534.18,-216 540.18,-222 540.18,-228 540.18,-228 540.18,-240 540.18,-240 540.18,-246 534.18,-252 528.18,-252"/>
<text text-anchor="middle" x="503.68" y="-230.3" font-family="Times,serif" font-size="14.00" fill="#314b5f">ext&#45;json</text>
</g>
<!-- bartlett/php&#45;compatinfo&#45;db&#45;&gt;ext&#45;json -->
<g id="edge2" class="edge">
<title>bartlett/php&#45;compatinfo&#45;db&#45;&gt;ext&#45;json</title>
<path fill="none" stroke="#1a2833" d="M137.73,-1521.61C145.16,-1372.45 198.59,-364.1 289.68,-269 332.39,-224.4 408.36,-222.72 457.08,-227.18"/>
<polygon fill="#1a2833" stroke="#1a2833" points="456.74,-230.66 467.05,-228.21 457.46,-223.7 456.74,-230.66"/>
<text text-anchor="middle" x="319.18" y="-272" font-family="Times,serif" font-size="10.00" fill="#767676">*</text>
</g>
<!-- ext&#45;pcre -->
<g id="node4" class="node">
<title>ext&#45;pcre</title>
<path fill="#eeeeee" stroke="black" d="M529.18,-198C529.18,-198 478.18,-198 478.18,-198 472.18,-198 466.18,-192 466.18,-186 466.18,-186 466.18,-174 466.18,-174 466.18,-168 472.18,-162 478.18,-162 478.18,-162 529.18,-162 529.18,-162 535.18,-162 541.18,-168 541.18,-174 541.18,-174 541.18,-186 541.18,-186 541.18,-192 535.18,-198 529.18,-198"/>
<text text-anchor="middle" x="503.68" y="-176.3" font-family="Times,serif" font-size="14.00" fill="#314b5f">ext&#45;pcre</text>
</g>
<!-- bartlett/php&#45;compatinfo&#45;db&#45;&gt;ext&#45;pcre -->
<g id="edge3" class="edge">
<title>bartlett/php&#45;compatinfo&#45;db&#45;&gt;ext&#45;pcre</title>
<path fill="none" stroke="#1a2833" d="M137.65,-1521.89C144.63,-1370.59 196.29,-320.2 289.68,-220 331.71,-174.9 407.19,-171.15 456.08,-174.29"/>
<polygon fill="#1a2833" stroke="#1a2833" points="455.86,-177.78 466.09,-175.05 456.39,-170.8 455.86,-177.78"/>
<text text-anchor="middle" x="319.18" y="-223" font-family="Times,serif" font-size="10.00" fill="#767676">*</text>
</g>
<!-- ext&#45;pdo -->
<g id="node5" class="node">
<title>ext&#45;pdo</title>
<path fill="#eeeeee" stroke="black" d="M526.68,-144C526.68,-144 480.68,-144 480.68,-144 474.68,-144 468.68,-138 468.68,-132 468.68,-132 468.68,-120 468.68,-120 468.68,-114 474.68,-108 480.68,-108 480.68,-108 526.68,-108 526.68,-108 532.68,-108 538.68,-114 538.68,-120 538.68,-120 538.68,-132 538.68,-132 538.68,-138 532.68,-144 526.68,-144"/>
<text text-anchor="middle" x="503.68" y="-122.3" font-family="Times,serif" font-size="14.00" fill="#314b5f">ext&#45;pdo</text>
</g>
<!-- bartlett/php&#45;compatinfo&#45;db&#45;&gt;ext&#45;pdo -->
<g id="edge4" class="edge">
<title>bartlett/php&#45;compatinfo&#45;db&#45;&gt;ext&#45;pdo</title>
<path fill="none" stroke="#1a2833" d="M137.6,-1521.7C144.19,-1366.5 193.85,-274.27 289.68,-169 332,-122.51 409.48,-118.32 458.41,-121.07"/>
<polygon fill="#1a2833" stroke="#1a2833" points="458.18,-124.56 468.4,-121.75 458.66,-117.58 458.18,-124.56"/>
<text text-anchor="middle" x="319.18" y="-172" font-family="Times,serif" font-size="10.00" fill="#767676">*</text>
</g>
<!-- ext&#45;phar -->
<g id="node6" class="node">
<title>ext&#45;phar</title>
<path fill="#eeeeee" stroke="black" d="M530.18,-90C530.18,-90 477.18,-90 477.18,-90 471.18,-90 465.18,-84 465.18,-78 465.18,-78 465.18,-66 465.18,-66 465.18,-60 471.18,-54 477.18,-54 477.18,-54 530.18,-54 530.18,-54 536.18,-54 542.18,-60 542.18,-66 542.18,-66 542.18,-78 542.18,-78 542.18,-84 536.18,-90 530.18,-90"/>
<text text-anchor="middle" x="503.68" y="-68.3" font-family="Times,serif" font-size="14.00" fill="#314b5f">ext&#45;phar</text>
</g>
<!-- bartlett/php&#45;compatinfo&#45;db&#45;&gt;ext&#45;phar -->
<g id="edge5" class="edge">
<title>bartlett/php&#45;compatinfo&#45;db&#45;&gt;ext&#45;phar</title>
<path fill="none" stroke="#1a2833" d="M137.56,-1521.55C143.91,-1362.71 192.49,-229.27 289.68,-118 330.22,-71.58 405.42,-65.61 454.75,-67.41"/>
<polygon fill="#1a2833" stroke="#1a2833" points="454.7,-70.91 464.86,-67.9 455.04,-63.92 454.7,-70.91"/>
<text text-anchor="middle" x="319.18" y="-121" font-family="Times,serif" font-size="10.00" fill="#767676">*</text>
</g>
<!-- ext&#45;spl -->
<g id="node7" class="node">
<title>ext&#45;spl</title>
<path fill="#eeeeee" stroke="black" d="M524.18,-36C524.18,-36 483.18,-36 483.18,-36 477.18,-36 471.18,-30 471.18,-24 471.18,-24 471.18,-12 471.18,-12 471.18,-6 477.18,0 483.18,0 483.18,0 524.18,0 524.18,0 530.18,0 536.18,-6 536.18,-12 536.18,-12 536.18,-24 536.18,-24 536.18,-30 530.18,-36 524.18,-36"/>
<text text-anchor="middle" x="503.68" y="-14.3" font-family="Times,serif" font-size="14.00" fill="#314b5f">ext&#45;spl</text>
</g>
<!-- bartlett/php&#45;compatinfo&#45;db&#45;&gt;ext&#45;spl -->
<g id="edge6" class="edge">
<title>bartlett/php&#45;compatinfo&#45;db&#45;&gt;ext&#45;spl</title>
<path fill="none" stroke="#1a2833" d="M137.48,-1521.9C143.34,-1361.15 189.62,-181.41 289.68,-65 331.62,-16.2 411.72,-11.48 460.84,-13.82"/>
<polygon fill="#1a2833" stroke="#1a2833" points="460.64,-17.31 470.83,-14.41 461.06,-10.32 460.64,-17.31"/>
<text text-anchor="middle" x="319.18" y="-68" font-family="Times,serif" font-size="10.00" fill="#767676">*</text>
</g>
<!-- composer&#45;runtime&#45;api -->
<g id="node8" class="node">
<title>composer&#45;runtime&#45;api</title>
<path fill="#eeeeee" stroke="black" d="M1096.68,-980C1096.68,-980 947.68,-980 947.68,-980 941.68,-980 935.68,-974 935.68,-968 935.68,-968 935.68,-956 935.68,-956 935.68,-950 941.68,-944 947.68,-944 947.68,-944 1096.68,-944 1096.68,-944 1102.68,-944 1108.68,-950 1108.68,-956 1108.68,-956 1108.68,-968 1108.68,-968 1108.68,-974 1102.68,-980 1096.68,-980"/>
<text text-anchor="middle" x="1022.18" y="-958.3" font-family="Times,serif" font-size="14.00" fill="#314b5f">composer&#45;runtime&#45;api</text>
</g>
<!-- bartlett/php&#45;compatinfo&#45;db&#45;&gt;composer&#45;runtime&#45;api -->
<g id="edge7" class="edge">
<title>bartlett/php&#45;compatinfo&#45;db&#45;&gt;composer&#45;runtime&#45;api</title>
<path fill="none" stroke="#1a2833" d="M138.03,-1521.86C144.3,-1443.21 180.6,-1129.62 366.68,-998 411.09,-966.58 754.32,-962.01 925.19,-961.71"/>
<polygon fill="#1a2833" stroke="#1a2833" points="925.44,-965.21 935.44,-961.7 925.43,-958.21 925.44,-965.21"/>
<text text-anchor="middle" x="503.68" y="-1001" font-family="Times,serif" font-size="10.00" fill="#767676">^2.0</text>
</g>
<!-- composer/semver -->
<g id="node9" class="node">
<title>composer/semver</title>
<path fill="#eeeeee" stroke="black" d="M839.68,-2219C839.68,-2219 675.68,-2219 675.68,-2219 669.68,-2219 663.68,-2213 663.68,-2207 663.68,-2207 663.68,-2195 663.68,-2195 663.68,-2189 669.68,-2183 675.68,-2183 675.68,-2183 839.68,-2183 839.68,-2183 845.68,-2183 851.68,-2189 851.68,-2195 851.68,-2195 851.68,-2207 851.68,-2207 851.68,-2213 845.68,-2219 839.68,-2219"/>
<text text-anchor="middle" x="757.68" y="-2197.3" font-family="Times,serif" font-size="14.00" fill="#314b5f">composer/semver: 3.4.3</text>
</g>
<!-- bartlett/php&#45;compatinfo&#45;db&#45;&gt;composer/semver -->
<g id="edge9" class="edge">
<title>bartlett/php&#45;compatinfo&#45;db&#45;&gt;composer/semver</title>
<path fill="none" stroke="#1a2833" d="M138.49,-1558.05C147.45,-1651.56 193.37,-2079.79 289.68,-2162 395.37,-2252.23 567.93,-2239.41 671.07,-2220.89"/>
<polygon fill="#1a2833" stroke="#1a2833" points="671.94,-2224.29 681.14,-2219.03 670.67,-2217.41 671.94,-2224.29"/>
<text text-anchor="middle" x="319.18" y="-2198" font-family="Times,serif" font-size="10.00" fill="#767676">^3.0</text>
</g>
<!-- doctrine/orm -->
<g id="node10" class="node">
<title>doctrine/orm</title>
<path fill="#eeeeee" stroke="black" d="M568.68,-670C568.68,-670 438.68,-670 438.68,-670 432.68,-670 426.68,-664 426.68,-658 426.68,-658 426.68,-646 426.68,-646 426.68,-640 432.68,-634 438.68,-634 438.68,-634 568.68,-634 568.68,-634 574.68,-634 580.68,-640 580.68,-646 580.68,-646 580.68,-658 580.68,-658 580.68,-664 574.68,-670 568.68,-670"/>
<text text-anchor="middle" x="503.68" y="-648.3" font-family="Times,serif" font-size="14.00" fill="#314b5f">doctrine/orm: 3.4.3</text>
</g>
<!-- bartlett/php&#45;compatinfo&#45;db&#45;&gt;doctrine/orm -->
<g id="edge24" class="edge">
<title>bartlett/php&#45;compatinfo&#45;db&#45;&gt;doctrine/orm</title>
<path fill="none" stroke="#1a2833" d="M138.82,-1521.9C147.58,-1446.8 187,-1153.65 289.68,-938 340.48,-831.31 433.93,-724.72 478.2,-677.4"/>
<polygon fill="#1a2833" stroke="#1a2833" points="480.81,-679.73 485.12,-670.05 475.71,-674.93 480.81,-679.73"/>
<text text-anchor="middle" x="319.18" y="-941" font-family="Times,serif" font-size="10.00" fill="#767676">^3.3</text>
</g>
<!-- doctrine/dbal -->
<g id="node12" class="node">
<title>doctrine/dbal</title>
<path fill="#eeeeee" stroke="black" d="M1088.18,-308C1088.18,-308 956.18,-308 956.18,-308 950.18,-308 944.18,-302 944.18,-296 944.18,-296 944.18,-284 944.18,-284 944.18,-278 950.18,-272 956.18,-272 956.18,-272 1088.18,-272 1088.18,-272 1094.18,-272 1100.18,-278 1100.18,-284 1100.18,-284 1100.18,-296 1100.18,-296 1100.18,-302 1094.18,-308 1088.18,-308"/>
<text text-anchor="middle" x="1022.18" y="-286.3" font-family="Times,serif" font-size="14.00" fill="#314b5f">doctrine/dbal: 4.2.4</text>
</g>
<!-- bartlett/php&#45;compatinfo&#45;db&#45;&gt;doctrine/dbal -->
<g id="edge25" class="edge">
<title>bartlett/php&#45;compatinfo&#45;db&#45;&gt;doctrine/dbal</title>
<path fill="none" stroke="#1a2833" d="M137.48,-1521.82C142.69,-1386.12 182.56,-532.51 366.68,-374 408.95,-337.61 765.76,-307.97 934.02,-295.87"/>
<polygon fill="#1a2833" stroke="#1a2833" points="934.37,-299.36 944.09,-295.15 933.87,-292.37 934.37,-299.36"/>
<text text-anchor="middle" x="503.68" y="-377" font-family="Times,serif" font-size="10.00" fill="#767676">^4.0</text>
</g>
<!-- symfony/console -->
<g id="node21" class="node">
<title>symfony/console</title>
<path fill="#eeeeee" stroke="black" d="M1108.68,-362C1108.68,-362 935.68,-362 935.68,-362 929.68,-362 923.68,-356 923.68,-350 923.68,-350 923.68,-338 923.68,-338 923.68,-332 929.68,-326 935.68,-326 935.68,-326 1108.68,-326 1108.68,-326 1114.68,-326 1120.68,-332 1120.68,-338 1120.68,-338 1120.68,-350 1120.68,-350 1120.68,-356 1114.68,-362 1108.68,-362"/>
<text text-anchor="middle" x="1022.18" y="-340.3" font-family="Times,serif" font-size="14.00" fill="#314b5f">symfony/console: v6.4.23</text>
</g>
<!-- bartlett/php&#45;compatinfo&#45;db&#45;&gt;symfony/console -->
<g id="edge40" class="edge">
<title>bartlett/php&#45;compatinfo&#45;db&#45;&gt;symfony/console</title>
<path fill="none" stroke="#1a2833" d="M136.69,-1521.96C136.76,-1421.54 148.46,-924.78 366.68,-614 462.08,-478.12 504.96,-443.75 658.68,-381 681.86,-371.54 815,-359.63 913.23,-351.92"/>
<polygon fill="#1a2833" stroke="#1a2833" points="913.53,-355.4 923.23,-351.14 912.98,-348.43 913.53,-355.4"/>
<text text-anchor="middle" x="503.68" y="-617" font-family="Times,serif" font-size="10.00" fill="#767676">^6.4 || ^7.0</text>
</g>
<!-- psr/log -->
<g id="node23" class="node">
<title>psr/log</title>
<path fill="#eeeeee" stroke="black" d="M1703.18,-2087C1703.18,-2087 1616.18,-2087 1616.18,-2087 1610.18,-2087 1604.18,-2081 1604.18,-2075 1604.18,-2075 1604.18,-2063 1604.18,-2063 1604.18,-2057 1610.18,-2051 1616.18,-2051 1616.18,-2051 1703.18,-2051 1703.18,-2051 1709.18,-2051 1715.18,-2057 1715.18,-2063 1715.18,-2063 1715.18,-2075 1715.18,-2075 1715.18,-2081 1709.18,-2087 1703.18,-2087"/>
<text text-anchor="middle" x="1659.68" y="-2065.3" font-family="Times,serif" font-size="14.00" fill="#314b5f">psr/log: 3.0.2</text>
</g>
<!-- bartlett/php&#45;compatinfo&#45;db&#45;&gt;psr/log -->
<g id="edge27" class="edge">
<title>bartlett/php&#45;compatinfo&#45;db&#45;&gt;psr/log</title>
<path fill="none" stroke="#1a2833" d="M136.61,-1558.24C136.69,-1644.01 150.03,-2007.8 366.68,-2120 443.22,-2159.64 1441.03,-2095.25 1478.68,-2092 1516.93,-2088.7 1559.57,-2083.33 1593.74,-2078.61"/>
<polygon fill="#1a2833" stroke="#1a2833" points="1594.63,-2082.01 1604.05,-2077.16 1593.67,-2075.08 1594.63,-2082.01"/>
<text text-anchor="middle" x="757.68" y="-2134" font-family="Times,serif" font-size="10.00" fill="#767676">^3.0</text>
</g>
<!-- symfony/cache -->
<g id="node24" class="node">
<title>symfony/cache</title>
<path fill="#eeeeee" stroke="black" d="M1102.18,-1652C1102.18,-1652 942.18,-1652 942.18,-1652 936.18,-1652 930.18,-1646 930.18,-1640 930.18,-1640 930.18,-1628 930.18,-1628 930.18,-1622 936.18,-1616 942.18,-1616 942.18,-1616 1102.18,-1616 1102.18,-1616 1108.18,-1616 1114.18,-1622 1114.18,-1628 1114.18,-1628 1114.18,-1640 1114.18,-1640 1114.18,-1646 1108.18,-1652 1102.18,-1652"/>
<text text-anchor="middle" x="1022.18" y="-1630.3" font-family="Times,serif" font-size="14.00" fill="#314b5f">symfony/cache: v6.4.23</text>
</g>
<!-- bartlett/php&#45;compatinfo&#45;db&#45;&gt;symfony/cache -->
<g id="edge34" class="edge">
<title>bartlett/php&#45;compatinfo&#45;db&#45;&gt;symfony/cache</title>
<path fill="none" stroke="#1a2833" d="M204.87,-1555.52C250.43,-1565.37 311.87,-1577.61 366.68,-1585 561.42,-1611.26 790.8,-1624.38 919.78,-1630.14"/>
<polygon fill="#1a2833" stroke="#1a2833" points="919.89,-1633.65 930.03,-1630.59 920.19,-1626.66 919.89,-1633.65"/>
<text text-anchor="middle" x="503.68" y="-1615" font-family="Times,serif" font-size="10.00" fill="#767676">^6.4 || ^7.0</text>
</g>
<!-- symfony/config -->
<g id="node27" class="node">
<title>symfony/config</title>
<path fill="#eeeeee" stroke="black" d="M1103.18,-1497C1103.18,-1497 941.18,-1497 941.18,-1497 935.18,-1497 929.18,-1491 929.18,-1485 929.18,-1485 929.18,-1473 929.18,-1473 929.18,-1467 935.18,-1461 941.18,-1461 941.18,-1461 1103.18,-1461 1103.18,-1461 1109.18,-1461 1115.18,-1467 1115.18,-1473 1115.18,-1473 1115.18,-1485 1115.18,-1485 1115.18,-1491 1109.18,-1497 1103.18,-1497"/>
<text text-anchor="middle" x="1022.18" y="-1475.3" font-family="Times,serif" font-size="14.00" fill="#314b5f">symfony/config: v6.4.22</text>
</g>
<!-- bartlett/php&#45;compatinfo&#45;db&#45;&gt;symfony/config -->
<g id="edge39" class="edge">
<title>bartlett/php&#45;compatinfo&#45;db&#45;&gt;symfony/config</title>
<path fill="none" stroke="#1a2833" d="M271.75,-1540.57C476.59,-1541.22 843.83,-1541.48 856.68,-1535 868.58,-1529 863.46,-1518.21 874.68,-1511 888.1,-1502.38 903.49,-1496.05 919.14,-1491.41"/>
<polygon fill="#1a2833" stroke="#1a2833" points="920.18,-1494.75 928.9,-1488.73 918.33,-1488 920.18,-1494.75"/>
<text text-anchor="middle" x="503.68" y="-1543" font-family="Times,serif" font-size="10.00" fill="#767676">^6.4 || ^7.0</text>
</g>
<!-- symfony/dependency&#45;injection -->
<g id="node31" class="node">
<title>symfony/dependency&#45;injection</title>
<path fill="#eeeeee" stroke="black" d="M1157.68,-1072C1157.68,-1072 886.68,-1072 886.68,-1072 880.68,-1072 874.68,-1066 874.68,-1060 874.68,-1060 874.68,-1048 874.68,-1048 874.68,-1042 880.68,-1036 886.68,-1036 886.68,-1036 1157.68,-1036 1157.68,-1036 1163.68,-1036 1169.68,-1042 1169.68,-1048 1169.68,-1048 1169.68,-1060 1169.68,-1060 1169.68,-1066 1163.68,-1072 1157.68,-1072"/>
<text text-anchor="middle" x="1022.18" y="-1050.3" font-family="Times,serif" font-size="14.00" fill="#314b5f">symfony/dependency&#45;injection: v6.4.23</text>
</g>
<!-- bartlett/php&#45;compatinfo&#45;db&#45;&gt;symfony/dependency&#45;injection -->
<g id="edge46" class="edge">
<title>bartlett/php&#45;compatinfo&#45;db&#45;&gt;symfony/dependency&#45;injection</title>
<path fill="none" stroke="#1a2833" d="M146.85,-1522C192.58,-1441.93 390.95,-1117 658.68,-1004 764.33,-959.41 901.22,-1002.56 972.76,-1031.89"/>
<polygon fill="#1a2833" stroke="#1a2833" points="971.84,-1035.29 982.41,-1035.92 974.54,-1028.84 971.84,-1035.29"/>
<text text-anchor="middle" x="503.68" y="-1219" font-family="Times,serif" font-size="10.00" fill="#767676">^6.4 || ^7.0</text>
</g>
<!-- symfony/event&#45;dispatcher -->
<g id="node33" class="node">
<title>symfony/event&#45;dispatcher</title>
<path fill="#eeeeee" stroke="black" d="M1141.68,-1760C1141.68,-1760 902.68,-1760 902.68,-1760 896.68,-1760 890.68,-1754 890.68,-1748 890.68,-1748 890.68,-1736 890.68,-1736 890.68,-1730 896.68,-1724 902.68,-1724 902.68,-1724 1141.68,-1724 1141.68,-1724 1147.68,-1724 1153.68,-1730 1153.68,-1736 1153.68,-1736 1153.68,-1748 1153.68,-1748 1153.68,-1754 1147.68,-1760 1141.68,-1760"/>
<text text-anchor="middle" x="1022.18" y="-1738.3" font-family="Times,serif" font-size="14.00" fill="#314b5f">symfony/event&#45;dispatcher: v6.4.13</text>
</g>
<!-- bartlett/php&#45;compatinfo&#45;db&#45;&gt;symfony/event&#45;dispatcher -->
<g id="edge49" class="edge">
<title>bartlett/php&#45;compatinfo&#45;db&#45;&gt;symfony/event&#45;dispatcher</title>
<path fill="none" stroke="#1a2833" d="M158.32,-1557.97C197.13,-1589.36 282.74,-1653.72 366.68,-1684 535.87,-1745.04 744.94,-1752.89 880.58,-1749.92"/>
<polygon fill="#1a2833" stroke="#1a2833" points="880.71,-1753.42 890.62,-1749.67 880.54,-1746.42 880.71,-1753.42"/>
<text text-anchor="middle" x="503.68" y="-1744" font-family="Times,serif" font-size="10.00" fill="#767676">^6.4 || ^7.0</text>
</g>
<!-- symfony/finder -->
<g id="node35" class="node">
<title>symfony/finder</title>
<path fill="#eeeeee" stroke="black" d="M1102.68,-1598C1102.68,-1598 941.68,-1598 941.68,-1598 935.68,-1598 929.68,-1592 929.68,-1586 929.68,-1586 929.68,-1574 929.68,-1574 929.68,-1568 935.68,-1562 941.68,-1562 941.68,-1562 1102.68,-1562 1102.68,-1562 1108.68,-1562 1114.68,-1568 1114.68,-1574 1114.68,-1574 1114.68,-1586 1114.68,-1586 1114.68,-1592 1108.68,-1598 1102.68,-1598"/>
<text text-anchor="middle" x="1022.18" y="-1576.3" font-family="Times,serif" font-size="14.00" fill="#314b5f">symfony/finder: v6.4.17</text>
</g>
<!-- bartlett/php&#45;compatinfo&#45;db&#45;&gt;symfony/finder -->
<g id="edge51" class="edge">
<title>bartlett/php&#45;compatinfo&#45;db&#45;&gt;symfony/finder</title>
<path fill="none" stroke="#1a2833" d="M245.32,-1550.69C260.21,-1551.94 275.32,-1553.09 289.68,-1554 514.08,-1568.25 777.75,-1575.23 919.19,-1578.17"/>
<polygon fill="#1a2833" stroke="#1a2833" points="919.51,-1581.68 929.58,-1578.38 919.65,-1574.68 919.51,-1581.68"/>
<text text-anchor="middle" x="503.68" y="-1573" font-family="Times,serif" font-size="10.00" fill="#767676">^6.4 || ^7.0</text>
</g>
<!-- symfony/http&#45;client -->
<g id="node36" class="node">
<title>symfony/http&#45;client</title>
<path fill="#eeeeee" stroke="black" d="M1119.18,-2096C1119.18,-2096 925.18,-2096 925.18,-2096 919.18,-2096 913.18,-2090 913.18,-2084 913.18,-2084 913.18,-2072 913.18,-2072 913.18,-2066 919.18,-2060 925.18,-2060 925.18,-2060 1119.18,-2060 1119.18,-2060 1125.18,-2060 1131.18,-2066 1131.18,-2072 1131.18,-2072 1131.18,-2084 1131.18,-2084 1131.18,-2090 1125.18,-2096 1119.18,-2096"/>
<text text-anchor="middle" x="1022.18" y="-2074.3" font-family="Times,serif" font-size="14.00" fill="#314b5f">symfony/http&#45;client: v6.4.23</text>
</g>
<!-- bartlett/php&#45;compatinfo&#45;db&#45;&gt;symfony/http&#45;client -->
<g id="edge57" class="edge">
<title>bartlett/php&#45;compatinfo&#45;db&#45;&gt;symfony/http&#45;client</title>
<path fill="none" stroke="#1a2833" d="M138.16,-1558.21C144.85,-1634.95 182.36,-1932.61 366.68,-2033 537.32,-2125.95 771.2,-2114.99 908.24,-2097.35"/>
<polygon fill="#1a2833" stroke="#1a2833" points="908.89,-2100.79 918.35,-2096.01 907.98,-2093.85 908.89,-2100.79"/>
<text text-anchor="middle" x="503.68" y="-2108" font-family="Times,serif" font-size="10.00" fill="#767676">^6.4 || ^7.0</text>
</g>
<!-- symfony/messenger -->
<g id="node38" class="node">
<title>symfony/messenger</title>
<path fill="#eeeeee" stroke="black" d="M1120.68,-2022C1120.68,-2022 923.68,-2022 923.68,-2022 917.68,-2022 911.68,-2016 911.68,-2010 911.68,-2010 911.68,-1998 911.68,-1998 911.68,-1992 917.68,-1986 923.68,-1986 923.68,-1986 1120.68,-1986 1120.68,-1986 1126.68,-1986 1132.68,-1992 1132.68,-1998 1132.68,-1998 1132.68,-2010 1132.68,-2010 1132.68,-2016 1126.68,-2022 1120.68,-2022"/>
<text text-anchor="middle" x="1022.18" y="-2000.3" font-family="Times,serif" font-size="14.00" fill="#314b5f">symfony/messenger: v6.4.23</text>
</g>
<!-- bartlett/php&#45;compatinfo&#45;db&#45;&gt;symfony/messenger -->
<g id="edge62" class="edge">
<title>bartlett/php&#45;compatinfo&#45;db&#45;&gt;symfony/messenger</title>
<path fill="none" stroke="#1a2833" d="M138.53,-1558.21C145.12,-1618.01 174.77,-1809.63 289.68,-1898 467.72,-2034.93 744.25,-2034.17 901.37,-2019.99"/>
<polygon fill="#1a2833" stroke="#1a2833" points="901.91,-2023.45 911.54,-2019.04 901.26,-2016.48 901.91,-2023.45"/>
<text text-anchor="middle" x="503.68" y="-2022" font-family="Times,serif" font-size="10.00" fill="#767676">^6.4 || ^7.0</text>
</g>
<!-- symfony/polyfill&#45;php84 -->
<g id="node40" class="node">
<title>symfony/polyfill&#45;php84</title>
<path fill="#eeeeee" stroke="black" d="M1441.68,-1913C1441.68,-1913 1224.68,-1913 1224.68,-1913 1218.68,-1913 1212.68,-1907 1212.68,-1901 1212.68,-1901 1212.68,-1889 1212.68,-1889 1212.68,-1883 1218.68,-1877 1224.68,-1877 1224.68,-1877 1441.68,-1877 1441.68,-1877 1447.68,-1877 1453.68,-1883 1453.68,-1889 1453.68,-1889 1453.68,-1901 1453.68,-1901 1453.68,-1907 1447.68,-1913 1441.68,-1913"/>
<text text-anchor="middle" x="1333.18" y="-1891.3" font-family="Times,serif" font-size="14.00" fill="#314b5f">symfony/polyfill&#45;php84: v1.32.0</text>
</g>
<!-- bartlett/php&#45;compatinfo&#45;db&#45;&gt;symfony/polyfill&#45;php84 -->
<g id="edge64" class="edge">
<title>bartlett/php&#45;compatinfo&#45;db&#45;&gt;symfony/polyfill&#45;php84</title>
<path fill="none" stroke="#1a2833" d="M140.3,-1558.16C151.45,-1611.32 191.53,-1767.65 289.68,-1844 428.37,-1951.89 955.22,-1925.58 1202.52,-1906.48"/>
<polygon fill="#1a2833" stroke="#1a2833" points="1202.95,-1909.96 1212.64,-1905.69 1202.4,-1902.98 1202.95,-1909.96"/>
<text text-anchor="middle" x="503.68" y="-1923" font-family="Times,serif" font-size="10.00" fill="#767676">^1.0</text>
</g>
<!-- symfony/process -->
<g id="node41" class="node">
<title>symfony/process</title>
<path fill="#eeeeee" stroke="black" d="M844.68,-1845C844.68,-1845 670.68,-1845 670.68,-1845 664.68,-1845 658.68,-1839 658.68,-1833 658.68,-1833 658.68,-1821 658.68,-1821 658.68,-1815 664.68,-1809 670.68,-1809 670.68,-1809 844.68,-1809 844.68,-1809 850.68,-1809 856.68,-1815 856.68,-1821 856.68,-1821 856.68,-1833 856.68,-1833 856.68,-1839 850.68,-1845 844.68,-1845"/>
<text text-anchor="middle" x="757.68" y="-1823.3" font-family="Times,serif" font-size="14.00" fill="#314b5f">symfony/process: v6.4.20</text>
</g>
<!-- bartlett/php&#45;compatinfo&#45;db&#45;&gt;symfony/process -->
<g id="edge66" class="edge">
<title>bartlett/php&#45;compatinfo&#45;db&#45;&gt;symfony/process</title>
<path fill="none" stroke="#1a2833" d="M141.08,-1558.16C153.72,-1607.64 196.19,-1744.93 289.68,-1802 403.07,-1871.23 562.3,-1862.17 662.44,-1846.62"/>
<polygon fill="#1a2833" stroke="#1a2833" points="663.23,-1850.04 672.55,-1845 662.12,-1843.13 663.23,-1850.04"/>
<text text-anchor="middle" x="319.18" y="-1832" font-family="Times,serif" font-size="10.00" fill="#767676">^6.4 || ^7.0</text>
</g>
<!-- symfony/requirements&#45;checker -->
<g id="node42" class="node">
<title>symfony/requirements&#45;checker</title>
<path fill="#eeeeee" stroke="black" d="M1466.68,-1804C1466.68,-1804 1199.68,-1804 1199.68,-1804 1193.68,-1804 1187.68,-1798 1187.68,-1792 1187.68,-1792 1187.68,-1780 1187.68,-1780 1187.68,-1774 1193.68,-1768 1199.68,-1768 1199.68,-1768 1466.68,-1768 1466.68,-1768 1472.68,-1768 1478.68,-1774 1478.68,-1780 1478.68,-1780 1478.68,-1792 1478.68,-1792 1478.68,-1798 1472.68,-1804 1466.68,-1804"/>
<text text-anchor="middle" x="1333.18" y="-1782.3" font-family="Times,serif" font-size="14.00" fill="#314b5f">symfony/requirements&#45;checker: v2.0.3</text>
</g>
<!-- bartlett/php&#45;compatinfo&#45;db&#45;&gt;symfony/requirements&#45;checker -->
<g id="edge68" class="edge">
<title>bartlett/php&#45;compatinfo&#45;db&#45;&gt;symfony/requirements&#45;checker</title>
<path fill="none" stroke="#1a2833" d="M148.88,-1558.15C179.22,-1602.02 263.73,-1713.35 366.68,-1756 439.3,-1786.08 923.45,-1788.19 1177.37,-1787.17"/>
<polygon fill="#1a2833" stroke="#1a2833" points="1177.43,-1790.67 1187.42,-1787.12 1177.4,-1783.67 1177.43,-1790.67"/>
<text text-anchor="middle" x="503.68" y="-1784" font-family="Times,serif" font-size="10.00" fill="#767676">^2.0</text>
</g>
<!-- symfony/stopwatch -->
<g id="node43" class="node">
<title>symfony/stopwatch</title>
<path fill="#eeeeee" stroke="black" d="M1118.68,-1706C1118.68,-1706 925.68,-1706 925.68,-1706 919.68,-1706 913.68,-1700 913.68,-1694 913.68,-1694 913.68,-1682 913.68,-1682 913.68,-1676 919.68,-1670 925.68,-1670 925.68,-1670 1118.68,-1670 1118.68,-1670 1124.68,-1670 1130.68,-1676 1130.68,-1682 1130.68,-1682 1130.68,-1694 1130.68,-1694 1130.68,-1700 1124.68,-1706 1118.68,-1706"/>
<text text-anchor="middle" x="1022.18" y="-1684.3" font-family="Times,serif" font-size="14.00" fill="#314b5f">symfony/stopwatch: v6.4.19</text>
</g>
<!-- bartlett/php&#45;compatinfo&#45;db&#45;&gt;symfony/stopwatch -->
<g id="edge71" class="edge">
<title>bartlett/php&#45;compatinfo&#45;db&#45;&gt;symfony/stopwatch</title>
<path fill="none" stroke="#1a2833" d="M173.3,-1557.32C217.84,-1577.65 296.01,-1610.65 366.68,-1627 551.02,-1669.66 771.13,-1682.65 903.34,-1686.51"/>
<polygon fill="#1a2833" stroke="#1a2833" points="903.4,-1690.01 913.49,-1686.79 903.6,-1683.01 903.4,-1690.01"/>
<text text-anchor="middle" x="503.68" y="-1672" font-family="Times,serif" font-size="10.00" fill="#767676">^6.4 || ^7.0</text>
</g>
<!-- symfony/framework&#45;bundle -->
<g id="node44" class="node">
<title>symfony/framework&#45;bundle</title>
<path fill="#eeeeee" stroke="black" d="M628.68,-1362C628.68,-1362 378.68,-1362 378.68,-1362 372.68,-1362 366.68,-1356 366.68,-1350 366.68,-1350 366.68,-1338 366.68,-1338 366.68,-1332 372.68,-1326 378.68,-1326 378.68,-1326 628.68,-1326 628.68,-1326 634.68,-1326 640.68,-1332 640.68,-1338 640.68,-1338 640.68,-1350 640.68,-1350 640.68,-1356 634.68,-1362 628.68,-1362"/>
<text text-anchor="middle" x="503.68" y="-1340.3" font-family="Times,serif" font-size="14.00" fill="#314b5f">symfony/framework&#45;bundle: v6.4.23</text>
</g>
<!-- bartlett/php&#45;compatinfo&#45;db&#45;&gt;symfony/framework&#45;bundle -->
<g id="edge87" class="edge">
<title>bartlett/php&#45;compatinfo&#45;db&#45;&gt;symfony/framework&#45;bundle</title>
<path fill="none" stroke="#1a2833" stroke-dasharray="5,2" d="M169.63,-1522.43C235.98,-1486.89 386.11,-1406.45 459.99,-1366.87"/>
<polygon fill="#1a2833" stroke="#1a2833" points="461.87,-1369.83 469.04,-1362.02 458.57,-1363.66 461.87,-1369.83"/>
<text text-anchor="middle" x="319.18" y="-1456" font-family="Times,serif" font-size="10.00" fill="#767676">^6.4 || ^7.0</text>
</g>
<!-- bamarni/composer&#45;bin&#45;plugin -->
<g id="node51" class="node">
<title>bamarni/composer&#45;bin&#45;plugin</title>
<path fill="#eeeeee" stroke="black" d="M627.18,-306C627.18,-306 380.18,-306 380.18,-306 374.18,-306 368.18,-300 368.18,-294 368.18,-294 368.18,-282 368.18,-282 368.18,-276 374.18,-270 380.18,-270 380.18,-270 627.18,-270 627.18,-270 633.18,-270 639.18,-276 639.18,-282 639.18,-282 639.18,-294 639.18,-294 639.18,-300 633.18,-306 627.18,-306"/>
<text text-anchor="middle" x="503.68" y="-284.3" font-family="Times,serif" font-size="14.00" fill="#314b5f">bamarni/composer&#45;bin&#45;plugin: 1.8.2</text>
</g>
<!-- bartlett/php&#45;compatinfo&#45;db&#45;&gt;bamarni/composer&#45;bin&#45;plugin -->
<g id="edge90" class="edge">
<title>bartlett/php&#45;compatinfo&#45;db&#45;&gt;bamarni/composer&#45;bin&#45;plugin</title>
<path fill="none" stroke="#1a2833" stroke-dasharray="5,2" d="M137.79,-1521.82C145.57,-1376.53 200.62,-407.04 289.68,-317 308.12,-298.35 332.49,-287.76 358.14,-282.2"/>
<polygon fill="#1a2833" stroke="#1a2833" points="358.85,-285.63 368.02,-280.31 357.54,-278.75 358.85,-285.63"/>
<text text-anchor="middle" x="319.18" y="-320" font-family="Times,serif" font-size="10.00" fill="#767676">^1.8</text>
</g>
<!-- composer/semver&#45;&gt;php -->
<g id="edge8" class="edge">
<title>composer/semver&#45;&gt;php</title>
<path fill="none" stroke="#1a2833" d="M852,-2205.82C1095.96,-2217.71 1739.59,-2244.16 1822.68,-2197 1866.89,-2171.9 1865.15,-2147.08 1881.68,-2099 1922.87,-1979.18 1926.6,-1825.63 1926.23,-1763.24"/>
<polygon fill="#1a2833" stroke="#1a2833" points="1929.73,-1762.98 1926.12,-1753.01 1922.73,-1763.05 1929.73,-1762.98"/>
<text text-anchor="middle" x="1333.18" y="-2227" font-family="Times,serif" font-size="10.00" fill="#767676">^5.3.2 || ^7.0 || ^8.0</text>
</g>
<!-- doctrine/orm&#45;&gt;php -->
<g id="edge20" class="edge">
<title>doctrine/orm&#45;&gt;php</title>
<path fill="none" stroke="#1a2833" d="M580.76,-644.82C655.5,-638.15 772.82,-628.71 874.68,-625 1005.7,-620.23 1042.1,-594.76 1169.68,-625 1485.7,-699.91 1556.08,-767.5 1822.68,-953 1852.1,-973.47 1866.39,-975.57 1881.68,-1008 1911.86,-1072.04 1922.91,-1580.5 1925.2,-1706.72"/>
<polygon fill="#1a2833" stroke="#1a2833" points="1921.7,-1706.82 1925.38,-1716.76 1928.7,-1706.7 1921.7,-1706.82"/>
<text text-anchor="middle" x="1333.18" y="-730" font-family="Times,serif" font-size="10.00" fill="#767676">^8.1</text>
</g>
<!-- doctrine/orm&#45;&gt;composer&#45;runtime&#45;api -->
<g id="edge10" class="edge">
<title>doctrine/orm&#45;&gt;composer&#45;runtime&#45;api</title>
<path fill="none" stroke="#1a2833" d="M509.26,-670.28C522.67,-719.47 566.74,-854.98 658.68,-915 695.77,-939.21 812.76,-932.25 856.68,-938 878.99,-940.92 902.96,-944.29 925.53,-947.56"/>
<polygon fill="#1a2833" stroke="#1a2833" points="925.04,-951.03 935.44,-949.01 926.05,-944.1 925.04,-951.03"/>
<text text-anchor="middle" x="757.68" y="-941" font-family="Times,serif" font-size="10.00" fill="#767676">^2</text>
</g>
<!-- doctrine/collections -->
<g id="node11" class="node">
<title>doctrine/collections</title>
<path fill="#eeeeee" stroke="black" d="M1110.68,-416C1110.68,-416 933.68,-416 933.68,-416 927.68,-416 921.68,-410 921.68,-404 921.68,-404 921.68,-392 921.68,-392 921.68,-386 927.68,-380 933.68,-380 933.68,-380 1110.68,-380 1110.68,-380 1116.68,-380 1122.68,-386 1122.68,-392 1122.68,-392 1122.68,-404 1122.68,-404 1122.68,-410 1116.68,-416 1110.68,-416"/>
<text text-anchor="middle" x="1022.18" y="-394.3" font-family="Times,serif" font-size="14.00" fill="#314b5f">doctrine/collections: 2.3.0</text>
</g>
<!-- doctrine/orm&#45;&gt;doctrine/collections -->
<g id="edge11" class="edge">
<title>doctrine/orm&#45;&gt;doctrine/collections</title>
<path fill="none" stroke="#1a2833" d="M513.57,-633.82C533.49,-595.35 585.71,-506.02 658.68,-467 736.71,-425.26 778.34,-487.17 856.68,-446 867.56,-440.28 864.02,-431.13 874.68,-425 886.02,-418.47 898.6,-413.47 911.49,-409.65"/>
<polygon fill="#1a2833" stroke="#1a2833" points="912.66,-412.95 921.39,-406.95 910.82,-406.2 912.66,-412.95"/>
<text text-anchor="middle" x="757.68" y="-470" font-family="Times,serif" font-size="10.00" fill="#767676">^2.2</text>
</g>
<!-- doctrine/orm&#45;&gt;doctrine/dbal -->
<g id="edge12" class="edge">
<title>doctrine/orm&#45;&gt;doctrine/dbal</title>
<path fill="none" stroke="#1a2833" d="M510.13,-633.85C525.26,-586.83 572.4,-460.45 658.68,-399 732.02,-346.76 786.44,-412.35 856.68,-356 871.57,-344.05 859.6,-328.71 874.68,-317 891.6,-303.85 912.93,-296.39 934.02,-292.31"/>
<polygon fill="#1a2833" stroke="#1a2833" points="934.74,-295.73 944.01,-290.61 933.56,-288.83 934.74,-295.73"/>
<text text-anchor="middle" x="757.68" y="-402" font-family="Times,serif" font-size="10.00" fill="#767676">^3.8.2 || ^4</text>
</g>
<!-- doctrine/deprecations -->
<g id="node13" class="node">
<title>doctrine/deprecations</title>
<path fill="#eeeeee" stroke="black" d="M1119.18,-832C1119.18,-832 925.18,-832 925.18,-832 919.18,-832 913.18,-826 913.18,-820 913.18,-820 913.18,-808 913.18,-808 913.18,-802 919.18,-796 925.18,-796 925.18,-796 1119.18,-796 1119.18,-796 1125.18,-796 1131.18,-802 1131.18,-808 1131.18,-808 1131.18,-820 1131.18,-820 1131.18,-826 1125.18,-832 1119.18,-832"/>
<text text-anchor="middle" x="1022.18" y="-810.3" font-family="Times,serif" font-size="14.00" fill="#314b5f">doctrine/deprecations: 1.1.5</text>
</g>
<!-- doctrine/orm&#45;&gt;doctrine/deprecations -->
<g id="edge13" class="edge">
<title>doctrine/orm&#45;&gt;doctrine/deprecations</title>
<path fill="none" stroke="#1a2833" d="M525.48,-670.01C553.66,-693.34 606.45,-733.47 658.68,-754 736.78,-784.7 830.35,-799.69 902.85,-807.01"/>
<polygon fill="#1a2833" stroke="#1a2833" points="902.65,-810.51 912.94,-808 903.33,-803.54 902.65,-810.51"/>
<text text-anchor="middle" x="757.68" y="-803" font-family="Times,serif" font-size="10.00" fill="#767676">^0.5.3 || ^1</text>
</g>
<!-- doctrine/event&#45;manager -->
<g id="node14" class="node">
<title>doctrine/event&#45;manager</title>
<path fill="#eeeeee" stroke="black" d="M1126.68,-778C1126.68,-778 917.68,-778 917.68,-778 911.68,-778 905.68,-772 905.68,-766 905.68,-766 905.68,-754 905.68,-754 905.68,-748 911.68,-742 917.68,-742 917.68,-742 1126.68,-742 1126.68,-742 1132.68,-742 1138.68,-748 1138.68,-754 1138.68,-754 1138.68,-766 1138.68,-766 1138.68,-772 1132.68,-778 1126.68,-778"/>
<text text-anchor="middle" x="1022.18" y="-756.3" font-family="Times,serif" font-size="14.00" fill="#314b5f">doctrine/event&#45;manager: 2.0.1</text>
</g>
<!-- doctrine/orm&#45;&gt;doctrine/event&#45;manager -->
<g id="edge14" class="edge">
<title>doctrine/orm&#45;&gt;doctrine/event&#45;manager</title>
<path fill="none" stroke="#1a2833" d="M552.3,-670.02C582.43,-680.85 622.41,-694.21 658.68,-703 736.42,-721.85 825.12,-735.92 895.32,-745.37"/>
<polygon fill="#1a2833" stroke="#1a2833" points="895.16,-748.88 905.53,-746.73 896.08,-741.94 895.16,-748.88"/>
<text text-anchor="middle" x="757.68" y="-742" font-family="Times,serif" font-size="10.00" fill="#767676">^1.2 || ^2</text>
</g>
<!-- doctrine/inflector -->
<g id="node15" class="node">
<title>doctrine/inflector</title>
<path fill="#eeeeee" stroke="black" d="M1107.18,-724C1107.18,-724 937.18,-724 937.18,-724 931.18,-724 925.18,-718 925.18,-712 925.18,-712 925.18,-700 925.18,-700 925.18,-694 931.18,-688 937.18,-688 937.18,-688 1107.18,-688 1107.18,-688 1113.18,-688 1119.18,-694 1119.18,-700 1119.18,-700 1119.18,-712 1119.18,-712 1119.18,-718 1113.18,-724 1107.18,-724"/>
<text text-anchor="middle" x="1022.18" y="-702.3" font-family="Times,serif" font-size="14.00" fill="#314b5f">doctrine/inflector: 2.0.10</text>
</g>
<!-- doctrine/orm&#45;&gt;doctrine/inflector -->
<g id="edge15" class="edge">
<title>doctrine/orm&#45;&gt;doctrine/inflector</title>
<path fill="none" stroke="#1a2833" d="M580.89,-659.97C669.19,-669.2 815.28,-684.47 914.76,-694.87"/>
<polygon fill="#1a2833" stroke="#1a2833" points="914.53,-698.37 924.84,-695.93 915.25,-691.41 914.53,-698.37"/>
<text text-anchor="middle" x="757.68" y="-691" font-family="Times,serif" font-size="10.00" fill="#767676">^1.4 || ^2.0</text>
</g>
<!-- doctrine/instantiator -->
<g id="node16" class="node">
<title>doctrine/instantiator</title>
<path fill="#eeeeee" stroke="black" d="M1114.68,-670C1114.68,-670 929.68,-670 929.68,-670 923.68,-670 917.68,-664 917.68,-658 917.68,-658 917.68,-646 917.68,-646 917.68,-640 923.68,-634 929.68,-634 929.68,-634 1114.68,-634 1114.68,-634 1120.68,-634 1126.68,-640 1126.68,-646 1126.68,-646 1126.68,-658 1126.68,-658 1126.68,-664 1120.68,-670 1114.68,-670"/>
<text text-anchor="middle" x="1022.18" y="-648.3" font-family="Times,serif" font-size="14.00" fill="#314b5f">doctrine/instantiator: 2.0.0</text>
</g>
<!-- doctrine/orm&#45;&gt;doctrine/instantiator -->
<g id="edge16" class="edge">
<title>doctrine/orm&#45;&gt;doctrine/instantiator</title>
<path fill="none" stroke="#1a2833" d="M580.89,-652C667.02,-652 808.13,-652 907.34,-652"/>
<polygon fill="#1a2833" stroke="#1a2833" points="907.41,-655.5 917.41,-652 907.41,-648.5 907.41,-655.5"/>
<text text-anchor="middle" x="757.68" y="-655" font-family="Times,serif" font-size="10.00" fill="#767676">^1.3 || ^2</text>
</g>
<!-- doctrine/lexer -->
<g id="node17" class="node">
<title>doctrine/lexer</title>
<path fill="#eeeeee" stroke="black" d="M1090.68,-578C1090.68,-578 953.68,-578 953.68,-578 947.68,-578 941.68,-572 941.68,-566 941.68,-566 941.68,-554 941.68,-554 941.68,-548 947.68,-542 953.68,-542 953.68,-542 1090.68,-542 1090.68,-542 1096.68,-542 1102.68,-548 1102.68,-554 1102.68,-554 1102.68,-566 1102.68,-566 1102.68,-572 1096.68,-578 1090.68,-578"/>
<text text-anchor="middle" x="1022.18" y="-556.3" font-family="Times,serif" font-size="14.00" fill="#314b5f">doctrine/lexer: 3.0.1</text>
</g>
<!-- doctrine/orm&#45;&gt;doctrine/lexer -->
<g id="edge17" class="edge">
<title>doctrine/orm&#45;&gt;doctrine/lexer</title>
<path fill="none" stroke="#1a2833" d="M534.98,-633.87C565.16,-616.84 613.4,-592.32 658.68,-581 749.5,-558.3 856.95,-554.87 931.16,-555.99"/>
<polygon fill="#1a2833" stroke="#1a2833" points="931.35,-559.49 941.41,-556.18 931.47,-552.5 931.35,-559.49"/>
<text text-anchor="middle" x="757.68" y="-584" font-family="Times,serif" font-size="10.00" fill="#767676">^3</text>
</g>
<!-- doctrine/persistence -->
<g id="node18" class="node">
<title>doctrine/persistence</title>
<path fill="#eeeeee" stroke="black" d="M1114.18,-524C1114.18,-524 930.18,-524 930.18,-524 924.18,-524 918.18,-518 918.18,-512 918.18,-512 918.18,-500 918.18,-500 918.18,-494 924.18,-488 930.18,-488 930.18,-488 1114.18,-488 1114.18,-488 1120.18,-488 1126.18,-494 1126.18,-500 1126.18,-500 1126.18,-512 1126.18,-512 1126.18,-518 1120.18,-524 1114.18,-524"/>
<text text-anchor="middle" x="1022.18" y="-502.3" font-family="Times,serif" font-size="14.00" fill="#314b5f">doctrine/persistence: 4.0.0</text>
</g>
<!-- doctrine/orm&#45;&gt;doctrine/persistence -->
<g id="edge18" class="edge">
<title>doctrine/orm&#45;&gt;doctrine/persistence</title>
<path fill="none" stroke="#1a2833" d="M522.66,-633.99C549.58,-608.3 603.16,-561.92 658.68,-541 681.64,-532.35 810.08,-521.32 907.61,-513.97"/>
<polygon fill="#1a2833" stroke="#1a2833" points="908.13,-517.45 917.84,-513.21 907.61,-510.46 908.13,-517.45"/>
<text text-anchor="middle" x="757.68" y="-544" font-family="Times,serif" font-size="10.00" fill="#767676">^3.3.1 || ^4</text>
</g>
<!-- ext&#45;ctype -->
<g id="node19" class="node">
<title>ext&#45;ctype</title>
<path fill="#eeeeee" stroke="black" d="M1051.68,-470C1051.68,-470 992.68,-470 992.68,-470 986.68,-470 980.68,-464 980.68,-458 980.68,-458 980.68,-446 980.68,-446 980.68,-440 986.68,-434 992.68,-434 992.68,-434 1051.68,-434 1051.68,-434 1057.68,-434 1063.68,-440 1063.68,-446 1063.68,-446 1063.68,-458 1063.68,-458 1063.68,-464 1057.68,-470 1051.68,-470"/>
<text text-anchor="middle" x="1022.18" y="-448.3" font-family="Times,serif" font-size="14.00" fill="#314b5f">ext&#45;ctype</text>
</g>
<!-- doctrine/orm&#45;&gt;ext&#45;ctype -->
<g id="edge19" class="edge">
<title>doctrine/orm&#45;&gt;ext&#45;ctype</title>
<path fill="none" stroke="#1a2833" d="M517,-633.94C540.34,-601.38 594.46,-533.41 658.68,-503 738.74,-465.08 768.98,-492.55 856.68,-480 894.84,-474.54 937.79,-467.19 970.23,-461.39"/>
<polygon fill="#1a2833" stroke="#1a2833" points="971.15,-464.78 980.37,-459.56 969.91,-457.89 971.15,-464.78"/>
<text text-anchor="middle" x="757.68" y="-506" font-family="Times,serif" font-size="10.00" fill="#767676">*</text>
</g>
<!-- psr/cache -->
<g id="node20" class="node">
<title>psr/cache</title>
<path fill="#eeeeee" stroke="black" d="M1712.68,-1327C1712.68,-1327 1606.68,-1327 1606.68,-1327 1600.68,-1327 1594.68,-1321 1594.68,-1315 1594.68,-1315 1594.68,-1303 1594.68,-1303 1594.68,-1297 1600.68,-1291 1606.68,-1291 1606.68,-1291 1712.68,-1291 1712.68,-1291 1718.68,-1291 1724.68,-1297 1724.68,-1303 1724.68,-1303 1724.68,-1315 1724.68,-1315 1724.68,-1321 1718.68,-1327 1712.68,-1327"/>
<text text-anchor="middle" x="1659.68" y="-1305.3" font-family="Times,serif" font-size="14.00" fill="#314b5f">psr/cache: 3.0.0</text>
</g>
<!-- doctrine/orm&#45;&gt;psr/cache -->
<g id="edge21" class="edge">
<title>doctrine/orm&#45;&gt;psr/cache</title>
<path fill="none" stroke="#1a2833" d="M512.54,-670.08C531.26,-710.8 582.68,-809.73 658.68,-856 741.87,-906.65 778.19,-879.68 874.68,-893 939.97,-902.01 1122.71,-877.75 1169.68,-924 1217.21,-970.8 1143.64,-1022.9 1187.68,-1073 1275.77,-1173.24 1390.15,-1047.14 1478.68,-1147 1520,-1193.62 1452.9,-1241.68 1496.68,-1286 1519.1,-1308.7 1553.02,-1315.91 1584.04,-1316.85"/>
<polygon fill="#1a2833" stroke="#1a2833" points="1584.4,-1320.35 1594.43,-1316.94 1584.46,-1313.35 1584.4,-1320.35"/>
<text text-anchor="middle" x="1022.18" y="-927" font-family="Times,serif" font-size="10.00" fill="#767676">^1 || ^2 || ^3</text>
</g>
<!-- doctrine/orm&#45;&gt;symfony/console -->
<g id="edge22" class="edge">
<title>doctrine/orm&#45;&gt;symfony/console</title>
<path fill="none" stroke="#1a2833" d="M511.29,-633.88C528.17,-590.52 577.35,-480.85 658.68,-433 734.95,-388.13 785.24,-464.23 856.68,-412 872.74,-400.25 859.07,-383.35 874.68,-371 886.13,-361.93 899.65,-355.55 913.78,-351.12"/>
<polygon fill="#1a2833" stroke="#1a2833" points="914.96,-354.42 923.64,-348.35 913.07,-347.68 914.96,-354.42"/>
<text text-anchor="middle" x="757.68" y="-436" font-family="Times,serif" font-size="10.00" fill="#767676">^5.4 || ^6.0 || ^7.0</text>
</g>
<!-- symfony/var&#45;exporter -->
<g id="node22" class="node">
<title>symfony/var&#45;exporter</title>
<path fill="#eeeeee" stroke="black" d="M1764.18,-1041C1764.18,-1041 1555.18,-1041 1555.18,-1041 1549.18,-1041 1543.18,-1035 1543.18,-1029 1543.18,-1029 1543.18,-1017 1543.18,-1017 1543.18,-1011 1549.18,-1005 1555.18,-1005 1555.18,-1005 1764.18,-1005 1764.18,-1005 1770.18,-1005 1776.18,-1011 1776.18,-1017 1776.18,-1017 1776.18,-1029 1776.18,-1029 1776.18,-1035 1770.18,-1041 1764.18,-1041"/>
<text text-anchor="middle" x="1659.68" y="-1019.3" font-family="Times,serif" font-size="14.00" fill="#314b5f">symfony/var&#45;exporter: v6.4.22</text>
</g>
<!-- doctrine/orm&#45;&gt;symfony/var&#45;exporter -->
<g id="edge23" class="edge">
<title>doctrine/orm&#45;&gt;symfony/var&#45;exporter</title>
<path fill="none" stroke="#1a2833" d="M515.56,-670.01C537.65,-704.76 591.41,-780.66 658.68,-815 862.68,-919.16 944.76,-838.67 1169.68,-882 1308.87,-908.82 1342.89,-920.33 1478.68,-961 1519.63,-973.27 1565.15,-988.96 1600.16,-1001.49"/>
<polygon fill="#1a2833" stroke="#1a2833" points="1599.15,-1004.85 1609.75,-1004.94 1601.52,-998.26 1599.15,-1004.85"/>
<text text-anchor="middle" x="1022.18" y="-885" font-family="Times,serif" font-size="10.00" fill="#767676">^6.3.9 || ^7.0</text>
</g>
<!-- psr/log&#45;&gt;php -->
<g id="edge26" class="edge">
<title>psr/log&#45;&gt;php</title>
<path fill="none" stroke="#1a2833" d="M1715.45,-2077.41C1765.76,-2081.76 1838.81,-2079 1881.68,-2036 1919.56,-1998 1925.02,-1830.7 1925.67,-1763.29"/>
<polygon fill="#1a2833" stroke="#1a2833" points="1929.17,-1763.03 1925.73,-1753 1922.17,-1762.98 1929.17,-1763.03"/>
<text text-anchor="middle" x="1861.18" y="-2065" font-family="Times,serif" font-size="10.00" fill="#767676">&gt;=8.0.0</text>
</g>
<!-- symfony/cache&#45;&gt;php -->
<g id="edge28" class="edge">
<title>symfony/cache&#45;&gt;php</title>
<path fill="none" stroke="#1a2833" d="M1114.51,-1624.64C1310.94,-1605.22 1760.85,-1564.87 1822.68,-1596 1868.82,-1619.24 1899.46,-1674.01 1914.59,-1707.44"/>
<polygon fill="#1a2833" stroke="#1a2833" points="1911.41,-1708.9 1918.62,-1716.67 1917.83,-1706.1 1911.41,-1708.9"/>
<text text-anchor="middle" x="1659.68" y="-1599" font-family="Times,serif" font-size="10.00" fill="#767676">&gt;=8.1</text>
</g>
<!-- symfony/cache&#45;&gt;psr/cache -->
<g id="edge29" class="edge">
<title>symfony/cache&#45;&gt;psr/cache</title>
<path fill="none" stroke="#1a2833" d="M1114.2,-1635.06C1135.02,-1630.88 1155.24,-1622.53 1169.68,-1607 1219.6,-1553.29 1137.25,-1496.23 1187.68,-1443 1277.82,-1347.84 1380.05,-1481.34 1478.68,-1395 1499.3,-1376.94 1476.06,-1354.08 1496.68,-1336 1520.37,-1315.23 1553.79,-1307.36 1584.13,-1305.12"/>
<polygon fill="#1a2833" stroke="#1a2833" points="1584.49,-1308.61 1594.28,-1304.57 1584.11,-1301.62 1584.49,-1308.61"/>
<text text-anchor="middle" x="1333.18" y="-1446" font-family="Times,serif" font-size="10.00" fill="#767676">^2.0|^3.0</text>
</g>
<!-- symfony/cache&#45;&gt;symfony/var&#45;exporter -->
<g id="edge33" class="edge">
<title>symfony/cache&#45;&gt;symfony/var&#45;exporter</title>
<path fill="none" stroke="#1a2833" d="M1114.33,-1635.6C1135.27,-1631.44 1155.52,-1622.96 1169.68,-1607 1211.94,-1559.36 1146.63,-1369.69 1187.68,-1321 1273.35,-1219.37 1391.69,-1352.5 1478.68,-1252 1508.17,-1217.92 1466.05,-1083.06 1496.68,-1050 1506.75,-1039.12 1519.42,-1031.55 1533.21,-1026.39"/>
<polygon fill="#1a2833" stroke="#1a2833" points="1534.51,-1029.65 1542.92,-1023.19 1532.32,-1023 1534.51,-1029.65"/>
<text text-anchor="middle" x="1333.18" y="-1324" font-family="Times,serif" font-size="10.00" fill="#767676">^6.3.6|^7.0</text>
</g>
<!-- symfony/cache&#45;&gt;psr/log -->
<g id="edge30" class="edge">
<title>symfony/cache&#45;&gt;psr/log</title>
<path fill="none" stroke="#1a2833" d="M1114.29,-1632.85C1135.11,-1637.03 1155.3,-1645.41 1169.68,-1661 1196.62,-1690.23 1159.16,-1811.29 1187.68,-1839 1234.18,-1884.18 1432.16,-1814.83 1478.68,-1860 1507.04,-1887.54 1470.06,-2007.77 1496.68,-2037 1520.81,-2063.51 1560.03,-2071.76 1593.83,-2073.26"/>
<polygon fill="#1a2833" stroke="#1a2833" points="1594.04,-2076.76 1604.13,-2073.52 1594.22,-2069.76 1594.04,-2076.76"/>
<text text-anchor="middle" x="1333.18" y="-1863" font-family="Times,serif" font-size="10.00" fill="#767676">^1.1|^2|^3</text>
</g>
<!-- symfony/cache&#45;contracts -->
<g id="node25" class="node">
<title>symfony/cache&#45;contracts</title>
<path fill="#eeeeee" stroke="black" d="M1770.68,-1551C1770.68,-1551 1548.68,-1551 1548.68,-1551 1542.68,-1551 1536.68,-1545 1536.68,-1539 1536.68,-1539 1536.68,-1527 1536.68,-1527 1536.68,-1521 1542.68,-1515 1548.68,-1515 1548.68,-1515 1770.68,-1515 1770.68,-1515 1776.68,-1515 1782.68,-1521 1782.68,-1527 1782.68,-1527 1782.68,-1539 1782.68,-1539 1782.68,-1545 1776.68,-1551 1770.68,-1551"/>
<text text-anchor="middle" x="1659.68" y="-1529.3" font-family="Times,serif" font-size="14.00" fill="#314b5f">symfony/cache&#45;contracts: v3.6.0</text>
</g>
<!-- symfony/cache&#45;&gt;symfony/cache&#45;contracts -->
<g id="edge31" class="edge">
<title>symfony/cache&#45;&gt;symfony/cache&#45;contracts</title>
<path fill="none" stroke="#1a2833" d="M1114.28,-1633.31C1134.6,-1629.08 1154.57,-1621.14 1169.68,-1607 1193.44,-1584.75 1162.05,-1556.07 1187.68,-1536 1213.83,-1515.51 1396.59,-1519.83 1526.59,-1525.71"/>
<polygon fill="#1a2833" stroke="#1a2833" points="1526.49,-1529.21 1536.64,-1526.18 1526.81,-1522.22 1526.49,-1529.21"/>
<text text-anchor="middle" x="1333.18" y="-1539" font-family="Times,serif" font-size="10.00" fill="#767676">^2.5|^3</text>
</g>
<!-- symfony/service&#45;contracts -->
<g id="node26" class="node">
<title>symfony/service&#45;contracts</title>
<path fill="#eeeeee" stroke="black" d="M1776.18,-1652C1776.18,-1652 1543.18,-1652 1543.18,-1652 1537.18,-1652 1531.18,-1646 1531.18,-1640 1531.18,-1640 1531.18,-1628 1531.18,-1628 1531.18,-1622 1537.18,-1616 1543.18,-1616 1543.18,-1616 1776.18,-1616 1776.18,-1616 1782.18,-1616 1788.18,-1622 1788.18,-1628 1788.18,-1628 1788.18,-1640 1788.18,-1640 1788.18,-1646 1782.18,-1652 1776.18,-1652"/>
<text text-anchor="middle" x="1659.68" y="-1630.3" font-family="Times,serif" font-size="14.00" fill="#314b5f">symfony/service&#45;contracts: v3.6.0</text>
</g>
<!-- symfony/cache&#45;&gt;symfony/service&#45;contracts -->
<g id="edge32" class="edge">
<title>symfony/cache&#45;&gt;symfony/service&#45;contracts</title>
<path fill="none" stroke="#1a2833" d="M1114.53,-1630.73C1138.34,-1630.01 1163.96,-1629.36 1187.68,-1629 1316.99,-1627.04 1349.36,-1627.2 1478.68,-1629 1492.26,-1629.19 1506.42,-1629.46 1520.56,-1629.77"/>
<polygon fill="#1a2833" stroke="#1a2833" points="1520.78,-1633.28 1530.85,-1630.01 1520.94,-1626.28 1520.78,-1633.28"/>
<text text-anchor="middle" x="1333.18" y="-1632" font-family="Times,serif" font-size="10.00" fill="#767676">^2.5|^3</text>
</g>
<!-- symfony/config&#45;&gt;php -->
<g id="edge35" class="edge">
<title>symfony/config&#45;&gt;php</title>
<path fill="none" stroke="#1a2833" d="M1115.42,-1479.9C1135.83,-1475.65 1155.56,-1467.3 1169.68,-1452 1196.34,-1423.11 1158.71,-1302.58 1187.68,-1276 1199.69,-1264.97 1819.94,-1268.87 1822.68,-1271 1892.52,-1325.37 1917.64,-1614.46 1923.94,-1706.7"/>
<polygon fill="#1a2833" stroke="#1a2833" points="1920.47,-1707.19 1924.62,-1716.94 1927.45,-1706.73 1920.47,-1707.19"/>
<text text-anchor="middle" x="1659.68" y="-1274" font-family="Times,serif" font-size="10.00" fill="#767676">&gt;=8.1</text>
</g>
<!-- symfony/deprecation&#45;contracts -->
<g id="node28" class="node">
<title>symfony/deprecation&#45;contracts</title>
<path fill="#eeeeee" stroke="black" d="M1792.68,-1450C1792.68,-1450 1526.68,-1450 1526.68,-1450 1520.68,-1450 1514.68,-1444 1514.68,-1438 1514.68,-1438 1514.68,-1426 1514.68,-1426 1514.68,-1420 1520.68,-1414 1526.68,-1414 1526.68,-1414 1792.68,-1414 1792.68,-1414 1798.68,-1414 1804.68,-1420 1804.68,-1426 1804.68,-1426 1804.68,-1438 1804.68,-1438 1804.68,-1444 1798.68,-1450 1792.68,-1450"/>
<text text-anchor="middle" x="1659.68" y="-1428.3" font-family="Times,serif" font-size="14.00" fill="#314b5f">symfony/deprecation&#45;contracts: v3.6.0</text>
</g>
<!-- symfony/config&#45;&gt;symfony/deprecation&#45;contracts -->
<g id="edge36" class="edge">
<title>symfony/config&#45;&gt;symfony/deprecation&#45;contracts</title>
<path fill="none" stroke="#1a2833" d="M1115.32,-1477.96C1135.25,-1473.67 1154.78,-1465.8 1169.68,-1452 1192.61,-1430.76 1162.9,-1403.07 1187.68,-1384 1238.92,-1344.56 1414.84,-1373.64 1478.68,-1384 1487,-1385.35 1488.59,-1387.61 1496.68,-1390 1521.89,-1397.46 1549.52,-1404.89 1574.7,-1411.39"/>
<polygon fill="#1a2833" stroke="#1a2833" points="1574.04,-1414.83 1584.59,-1413.92 1575.77,-1408.05 1574.04,-1414.83"/>
<text text-anchor="middle" x="1333.18" y="-1387" font-family="Times,serif" font-size="10.00" fill="#767676">^2.5|^3</text>
</g>
<!-- symfony/filesystem -->
<g id="node29" class="node">
<title>symfony/filesystem</title>
<path fill="#eeeeee" stroke="black" d="M1755.68,-1218C1755.68,-1218 1563.68,-1218 1563.68,-1218 1557.68,-1218 1551.68,-1212 1551.68,-1206 1551.68,-1206 1551.68,-1194 1551.68,-1194 1551.68,-1188 1557.68,-1182 1563.68,-1182 1563.68,-1182 1755.68,-1182 1755.68,-1182 1761.68,-1182 1767.68,-1188 1767.68,-1194 1767.68,-1194 1767.68,-1206 1767.68,-1206 1767.68,-1212 1761.68,-1218 1755.68,-1218"/>
<text text-anchor="middle" x="1659.68" y="-1196.3" font-family="Times,serif" font-size="14.00" fill="#314b5f">symfony/filesystem: v6.4.13</text>
</g>
<!-- symfony/config&#45;&gt;symfony/filesystem -->
<g id="edge37" class="edge">
<title>symfony/config&#45;&gt;symfony/filesystem</title>
<path fill="none" stroke="#1a2833" d="M1115.24,-1480.16C1135.78,-1475.93 1155.61,-1467.53 1169.68,-1452 1201.86,-1416.47 1153.69,-1270.82 1187.68,-1237 1235.75,-1189.17 1418.22,-1187.69 1541.41,-1192.64"/>
<polygon fill="#1a2833" stroke="#1a2833" points="1541.52,-1196.15 1551.66,-1193.07 1541.82,-1189.16 1541.52,-1196.15"/>
<text text-anchor="middle" x="1333.18" y="-1240" font-family="Times,serif" font-size="10.00" fill="#767676">^5.4|^6.0|^7.0</text>
</g>
<!-- symfony/polyfill&#45;ctype -->
<g id="node30" class="node">
<title>symfony/polyfill&#45;ctype</title>
<path fill="#eeeeee" stroke="black" d="M1765.18,-1381C1765.18,-1381 1554.18,-1381 1554.18,-1381 1548.18,-1381 1542.18,-1375 1542.18,-1369 1542.18,-1369 1542.18,-1357 1542.18,-1357 1542.18,-1351 1548.18,-1345 1554.18,-1345 1554.18,-1345 1765.18,-1345 1765.18,-1345 1771.18,-1345 1777.18,-1351 1777.18,-1357 1777.18,-1357 1777.18,-1369 1777.18,-1369 1777.18,-1375 1771.18,-1381 1765.18,-1381"/>
<text text-anchor="middle" x="1659.68" y="-1359.3" font-family="Times,serif" font-size="14.00" fill="#314b5f">symfony/polyfill&#45;ctype: v1.32.0</text>
</g>
<!-- symfony/config&#45;&gt;symfony/polyfill&#45;ctype -->
<g id="edge38" class="edge">
<title>symfony/config&#45;&gt;symfony/polyfill&#45;ctype</title>
<path fill="none" stroke="#1a2833" d="M1115.45,-1479.04C1135.61,-1474.76 1155.22,-1466.62 1169.68,-1452 1202.66,-1418.65 1151.79,-1378.21 1187.68,-1348 1213.47,-1326.29 1401.31,-1338.75 1531.83,-1350.39"/>
<polygon fill="#1a2833" stroke="#1a2833" points="1531.64,-1353.88 1541.91,-1351.29 1532.26,-1346.91 1531.64,-1353.88"/>
<text text-anchor="middle" x="1333.18" y="-1351" font-family="Times,serif" font-size="10.00" fill="#767676">~1.8</text>
</g>
<!-- symfony/dependency&#45;injection&#45;&gt;php -->
<g id="edge41" class="edge">
<title>symfony/dependency&#45;injection&#45;&gt;php</title>
<path fill="none" stroke="#1a2833" d="M1169.9,-1067.37C1300.14,-1079.31 1471.06,-1095.2 1478.68,-1097 1487.03,-1098.98 1488.41,-1101.68 1496.68,-1104 1638.37,-1143.75 1705.78,-1072.59 1822.68,-1162 1910.59,-1229.24 1923.47,-1600.77 1925.35,-1706.76"/>
<polygon fill="#1a2833" stroke="#1a2833" points="1921.86,-1707.05 1925.51,-1716.99 1928.86,-1706.94 1921.86,-1707.05"/>
<text text-anchor="middle" x="1659.68" y="-1165" font-family="Times,serif" font-size="10.00" fill="#767676">&gt;=8.1</text>
</g>
<!-- symfony/dependency&#45;injection&#45;&gt;symfony/var&#45;exporter -->
<g id="edge45" class="edge">
<title>symfony/dependency&#45;injection&#45;&gt;symfony/var&#45;exporter</title>
<path fill="none" stroke="#1a2833" d="M1169.76,-1037.35C1175.81,-1036.85 1181.8,-1036.4 1187.68,-1036 1304.41,-1028.02 1437.74,-1024.9 1532.67,-1023.7"/>
<polygon fill="#1a2833" stroke="#1a2833" points="1532.94,-1027.19 1542.9,-1023.57 1532.85,-1020.19 1532.94,-1027.19"/>
<text text-anchor="middle" x="1333.18" y="-1039" font-family="Times,serif" font-size="10.00" fill="#767676">^6.4.20|^7.2.5</text>
</g>
<!-- symfony/dependency&#45;injection&#45;&gt;symfony/service&#45;contracts -->
<g id="edge44" class="edge">
<title>symfony/dependency&#45;injection&#45;&gt;symfony/service&#45;contracts</title>
<path fill="none" stroke="#1a2833" d="M1154.23,-1072.13C1159.92,-1076.04 1165.14,-1080.63 1169.68,-1086 1196.12,-1117.25 1160.59,-1423.31 1187.68,-1454 1274.56,-1552.45 1385.37,-1412.62 1478.68,-1505 1509.83,-1535.85 1465.85,-1570.82 1496.68,-1602 1503.93,-1609.34 1512.35,-1615.25 1521.46,-1619.98"/>
<polygon fill="#1a2833" stroke="#1a2833" points="1520.24,-1623.28 1530.79,-1624.33 1523.2,-1616.93 1520.24,-1623.28"/>
<text text-anchor="middle" x="1333.18" y="-1508" font-family="Times,serif" font-size="10.00" fill="#767676">^2.5|^3.0</text>
</g>
<!-- symfony/dependency&#45;injection&#45;&gt;symfony/deprecation&#45;contracts -->
<g id="edge43" class="edge">
<title>symfony/dependency&#45;injection&#45;&gt;symfony/deprecation&#45;contracts</title>
<path fill="none" stroke="#1a2833" d="M1150.4,-1072.15C1157.36,-1076.02 1163.86,-1080.59 1169.68,-1086 1190.37,-1105.26 1165.87,-1129.01 1187.68,-1147 1237.78,-1188.35 1433.02,-1128.78 1478.68,-1175 1512.37,-1209.11 1465.78,-1353.34 1496.68,-1390 1502.93,-1397.42 1510.31,-1403.62 1518.41,-1408.79"/>
<polygon fill="#1a2833" stroke="#1a2833" points="1516.7,-1411.84 1527.11,-1413.81 1520.2,-1405.78 1516.7,-1411.84"/>
<text text-anchor="middle" x="1333.18" y="-1178" font-family="Times,serif" font-size="10.00" fill="#767676">^2.5|^3</text>
</g>
<!-- psr/container -->
<g id="node32" class="node">
<title>psr/container</title>
<path fill="#eeeeee" stroke="black" d="M1726.18,-1095C1726.18,-1095 1593.18,-1095 1593.18,-1095 1587.18,-1095 1581.18,-1089 1581.18,-1083 1581.18,-1083 1581.18,-1071 1581.18,-1071 1581.18,-1065 1587.18,-1059 1593.18,-1059 1593.18,-1059 1726.18,-1059 1726.18,-1059 1732.18,-1059 1738.18,-1065 1738.18,-1071 1738.18,-1071 1738.18,-1083 1738.18,-1083 1738.18,-1089 1732.18,-1095 1726.18,-1095"/>
<text text-anchor="middle" x="1659.68" y="-1073.3" font-family="Times,serif" font-size="14.00" fill="#314b5f">psr/container: 2.0.2</text>
</g>
<!-- symfony/dependency&#45;injection&#45;&gt;psr/container -->
<g id="edge42" class="edge">
<title>symfony/dependency&#45;injection&#45;&gt;psr/container</title>
<path fill="none" stroke="#1a2833" d="M1169.71,-1051.71C1259.06,-1051.2 1375.54,-1052.12 1478.68,-1058 1508.7,-1059.71 1541.44,-1062.8 1570.66,-1066"/>
<polygon fill="#1a2833" stroke="#1a2833" points="1570.52,-1069.5 1580.84,-1067.13 1571.29,-1062.54 1570.52,-1069.5"/>
<text text-anchor="middle" x="1333.18" y="-1061" font-family="Times,serif" font-size="10.00" fill="#767676">^1.1|^2.0</text>
</g>
<!-- symfony/event&#45;dispatcher&#45;&gt;php -->
<g id="edge47" class="edge">
<title>symfony/event&#45;dispatcher&#45;&gt;php</title>
<path fill="none" stroke="#1a2833" d="M1153.81,-1735.93C1165.26,-1735.56 1176.67,-1735.23 1187.68,-1735 1457.03,-1729.27 1781.82,-1732.95 1889.24,-1734.45"/>
<polygon fill="#1a2833" stroke="#1a2833" points="1889.48,-1737.96 1899.53,-1734.6 1889.58,-1730.96 1889.48,-1737.96"/>
<text text-anchor="middle" x="1659.68" y="-1736" font-family="Times,serif" font-size="10.00" fill="#767676">&gt;=8.1</text>
</g>
<!-- symfony/event&#45;dispatcher&#45;contracts -->
<g id="node34" class="node">
<title>symfony/event&#45;dispatcher&#45;contracts</title>
<path fill="#eeeeee" stroke="black" d="M1810.68,-1800C1810.68,-1800 1508.68,-1800 1508.68,-1800 1502.68,-1800 1496.68,-1794 1496.68,-1788 1496.68,-1788 1496.68,-1776 1496.68,-1776 1496.68,-1770 1502.68,-1764 1508.68,-1764 1508.68,-1764 1810.68,-1764 1810.68,-1764 1816.68,-1764 1822.68,-1770 1822.68,-1776 1822.68,-1776 1822.68,-1788 1822.68,-1788 1822.68,-1794 1816.68,-1800 1810.68,-1800"/>
<text text-anchor="middle" x="1659.68" y="-1778.3" font-family="Times,serif" font-size="14.00" fill="#314b5f">symfony/event&#45;dispatcher&#45;contracts: v3.6.0</text>
</g>
<!-- symfony/event&#45;dispatcher&#45;&gt;symfony/event&#45;dispatcher&#45;contracts -->
<g id="edge48" class="edge">
<title>symfony/event&#45;dispatcher&#45;&gt;symfony/event&#45;dispatcher&#45;contracts</title>
<path fill="none" stroke="#1a2833" d="M1154.04,-1739.37C1245.25,-1738.81 1369.62,-1740.59 1478.68,-1751 1505.13,-1753.52 1533.55,-1757.72 1559.81,-1762.22"/>
<polygon fill="#1a2833" stroke="#1a2833" points="1559.31,-1765.68 1569.77,-1763.95 1560.52,-1758.79 1559.31,-1765.68"/>
<text text-anchor="middle" x="1333.18" y="-1754" font-family="Times,serif" font-size="10.00" fill="#767676">^2.5|^3</text>
</g>
<!-- symfony/finder&#45;&gt;php -->
<g id="edge50" class="edge">
<title>symfony/finder&#45;&gt;php</title>
<path fill="none" stroke="#1a2833" d="M1115.01,-1572.23C1134.39,-1567.36 1153.77,-1559.76 1169.68,-1548 1182.8,-1538.3 1173.88,-1524.71 1187.68,-1516 1217.52,-1497.16 1792.35,-1476.93 1822.68,-1495 1897.93,-1539.84 1918.26,-1653.68 1923.71,-1706.84"/>
<polygon fill="#1a2833" stroke="#1a2833" points="1920.23,-1707.29 1924.63,-1716.93 1927.2,-1706.65 1920.23,-1707.29"/>
<text text-anchor="middle" x="1659.68" y="-1498" font-family="Times,serif" font-size="10.00" fill="#767676">&gt;=8.1</text>
</g>
<!-- symfony/http&#45;client&#45;&gt;php -->
<g id="edge52" class="edge">
<title>symfony/http&#45;client&#45;&gt;php</title>
<path fill="none" stroke="#1a2833" d="M1131.5,-2088.33C1150.22,-2089.8 1169.5,-2091.11 1187.68,-2092 1264.71,-2095.77 1832.37,-2136.31 1881.68,-2077 1921.08,-2029.6 1925.56,-1837.16 1925.81,-1763.69"/>
<polygon fill="#1a2833" stroke="#1a2833" points="1929.31,-1763.36 1925.82,-1753.35 1922.31,-1763.35 1929.31,-1763.36"/>
<text text-anchor="middle" x="1659.68" y="-2112" font-family="Times,serif" font-size="10.00" fill="#767676">&gt;=8.1</text>
</g>
<!-- symfony/http&#45;client&#45;&gt;psr/log -->
<g id="edge53" class="edge">
<title>symfony/http&#45;client&#45;&gt;psr/log</title>
<path fill="none" stroke="#1a2833" d="M1131.33,-2078.1C1223.62,-2077.99 1359.88,-2077.37 1478.68,-2075 1516.78,-2074.24 1559.41,-2072.84 1593.61,-2071.59"/>
<polygon fill="#1a2833" stroke="#1a2833" points="1594.08,-2075.07 1603.94,-2071.2 1593.82,-2068.08 1594.08,-2075.07"/>
<text text-anchor="middle" x="1333.18" y="-2080" font-family="Times,serif" font-size="10.00" fill="#767676">^1|^2|^3</text>
</g>
<!-- symfony/http&#45;client&#45;&gt;symfony/service&#45;contracts -->
<g id="edge56" class="edge">
<title>symfony/http&#45;client&#45;&gt;symfony/service&#45;contracts</title>
<path fill="none" stroke="#1a2833" d="M1124.42,-2059.95C1141.22,-2053.16 1157.2,-2043.83 1169.68,-2031 1189.68,-2010.43 1165.37,-1987.05 1187.68,-1969 1238.08,-1928.23 1433.02,-1994.03 1478.68,-1948 1522.89,-1903.41 1455.28,-1713.22 1496.68,-1666 1503.84,-1657.83 1512.43,-1651.38 1521.87,-1646.32"/>
<polygon fill="#1a2833" stroke="#1a2833" points="1523.64,-1649.35 1531.16,-1641.88 1520.63,-1643.03 1523.64,-1649.35"/>
<text text-anchor="middle" x="1333.18" y="-1972" font-family="Times,serif" font-size="10.00" fill="#767676">^2.5|^3</text>
</g>
<!-- symfony/http&#45;client&#45;&gt;symfony/deprecation&#45;contracts -->
<g id="edge54" class="edge">
<title>symfony/http&#45;client&#45;&gt;symfony/deprecation&#45;contracts</title>
<path fill="none" stroke="#1a2833" d="M1127.7,-2059.98C1143.56,-2053.17 1158.37,-2043.82 1169.68,-2031 1198.39,-1998.45 1155.29,-1963.91 1187.68,-1935 1236.04,-1891.82 1433.57,-1960.57 1478.68,-1914 1513.49,-1878.05 1464.14,-1502.02 1496.68,-1464 1499.61,-1460.57 1502.8,-1457.44 1506.2,-1454.59"/>
<polygon fill="#1a2833" stroke="#1a2833" points="1508.55,-1457.2 1514.49,-1448.42 1504.37,-1451.58 1508.55,-1457.2"/>
<text text-anchor="middle" x="1333.18" y="-1938" font-family="Times,serif" font-size="10.00" fill="#767676">^2.5|^3</text>
</g>
<!-- symfony/http&#45;client&#45;contracts -->
<g id="node37" class="node">
<title>symfony/http&#45;client&#45;contracts</title>
<path fill="#eeeeee" stroke="black" d="M1787.68,-2188C1787.68,-2188 1531.68,-2188 1531.68,-2188 1525.68,-2188 1519.68,-2182 1519.68,-2176 1519.68,-2176 1519.68,-2164 1519.68,-2164 1519.68,-2158 1525.68,-2152 1531.68,-2152 1531.68,-2152 1787.68,-2152 1787.68,-2152 1793.68,-2152 1799.68,-2158 1799.68,-2164 1799.68,-2164 1799.68,-2176 1799.68,-2176 1799.68,-2182 1793.68,-2188 1787.68,-2188"/>
<text text-anchor="middle" x="1659.68" y="-2166.3" font-family="Times,serif" font-size="14.00" fill="#314b5f">symfony/http&#45;client&#45;contracts: v3.6.0</text>
</g>
<!-- symfony/http&#45;client&#45;&gt;symfony/http&#45;client&#45;contracts -->
<g id="edge55" class="edge">
<title>symfony/http&#45;client&#45;&gt;symfony/http&#45;client&#45;contracts</title>
<path fill="none" stroke="#1a2833" d="M1063.84,-2096.13C1096.59,-2109.86 1144.18,-2127.86 1187.68,-2137 1293.81,-2159.31 1416.04,-2167.37 1509.39,-2169.96"/>
<polygon fill="#1a2833" stroke="#1a2833" points="1509.39,-2173.46 1519.47,-2170.22 1509.57,-2166.46 1509.39,-2173.46"/>
<text text-anchor="middle" x="1333.18" y="-2171" font-family="Times,serif" font-size="10.00" fill="#767676">~3.4.4|^3.5.2</text>
</g>
<!-- symfony/messenger&#45;&gt;php -->
<g id="edge58" class="edge">
<title>symfony/messenger&#45;&gt;php</title>
<path fill="none" stroke="#1a2833" d="M1132.88,-2009.32C1151.17,-2010.02 1169.96,-2010.62 1187.68,-2011 1328.8,-2014 1698.78,-2062.63 1822.68,-1995 1906.35,-1949.33 1922.26,-1820.77 1925.13,-1763.33"/>
<polygon fill="#1a2833" stroke="#1a2833" points="1928.64,-1763.29 1925.54,-1753.16 1921.64,-1763.01 1928.64,-1763.29"/>
<text text-anchor="middle" x="1659.68" y="-2033" font-family="Times,serif" font-size="10.00" fill="#767676">&gt;=8.1</text>
</g>
<!-- symfony/messenger&#45;&gt;psr/log -->
<g id="edge59" class="edge">
<title>symfony/messenger&#45;&gt;psr/log</title>
<path fill="none" stroke="#1a2833" d="M1091.95,-2022.08C1121.25,-2029.1 1155.94,-2036.52 1187.68,-2041 1264.17,-2051.8 1483.62,-2061.89 1593.85,-2066.45"/>
<polygon fill="#1a2833" stroke="#1a2833" points="1593.71,-2069.94 1603.85,-2066.86 1594,-2062.95 1593.71,-2069.94"/>
<text text-anchor="middle" x="1333.18" y="-2064" font-family="Times,serif" font-size="10.00" fill="#767676">^1|^2|^3</text>
</g>
<!-- symfony/messenger&#45;&gt;symfony/deprecation&#45;contracts -->
<g id="edge61" class="edge">
<title>symfony/messenger&#45;&gt;symfony/deprecation&#45;contracts</title>
<path fill="none" stroke="#1a2833" d="M1038.43,-1985.99C1069.24,-1948.46 1138.62,-1857.97 1169.68,-1769 1181.25,-1735.84 1164.19,-1638.11 1187.68,-1612 1276.31,-1513.48 1385.26,-1641 1478.68,-1547 1505.28,-1520.23 1469.74,-1490.44 1496.68,-1464 1499.64,-1461.09 1502.79,-1458.41 1506.09,-1455.93"/>
<polygon fill="#1a2833" stroke="#1a2833" points="1508.25,-1458.7 1514.6,-1450.21 1504.35,-1452.89 1508.25,-1458.7"/>
<text text-anchor="middle" x="1333.18" y="-1615" font-family="Times,serif" font-size="10.00" fill="#767676">^2.5|^3</text>
</g>
<!-- symfony/clock -->
<g id="node39" class="node">
<title>symfony/clock</title>
<path fill="#eeeeee" stroke="black" d="M1737.18,-1986C1737.18,-1986 1582.18,-1986 1582.18,-1986 1576.18,-1986 1570.18,-1980 1570.18,-1974 1570.18,-1974 1570.18,-1962 1570.18,-1962 1570.18,-1956 1576.18,-1950 1582.18,-1950 1582.18,-1950 1737.18,-1950 1737.18,-1950 1743.18,-1950 1749.18,-1956 1749.18,-1962 1749.18,-1962 1749.18,-1974 1749.18,-1974 1749.18,-1980 1743.18,-1986 1737.18,-1986"/>
<text text-anchor="middle" x="1659.68" y="-1964.3" font-family="Times,serif" font-size="14.00" fill="#314b5f">symfony/clock: v6.4.13</text>
</g>
<!-- symfony/messenger&#45;&gt;symfony/clock -->
<g id="edge60" class="edge">
<title>symfony/messenger&#45;&gt;symfony/clock</title>
<path fill="none" stroke="#1a2833" d="M1132.75,-1999.61C1225.05,-1995.7 1360.55,-1989.44 1478.68,-1982 1505.03,-1980.34 1533.53,-1978.26 1559.91,-1976.21"/>
<polygon fill="#1a2833" stroke="#1a2833" points="1560.21,-1979.69 1569.91,-1975.42 1559.66,-1972.72 1560.21,-1979.69"/>
<text text-anchor="middle" x="1333.18" y="-1999" font-family="Times,serif" font-size="10.00" fill="#767676">^6.3|^7.0</text>
</g>
<!-- symfony/polyfill&#45;php84&#45;&gt;php -->
<g id="edge63" class="edge">
<title>symfony/polyfill&#45;php84&#45;&gt;php</title>
<path fill="none" stroke="#1a2833" d="M1453.8,-1909.76C1594.48,-1924.41 1817.06,-1938.3 1881.68,-1889 1901.66,-1873.75 1915.37,-1803.2 1921.69,-1763.09"/>
<polygon fill="#1a2833" stroke="#1a2833" points="1925.17,-1763.53 1923.21,-1753.12 1918.25,-1762.48 1925.17,-1763.53"/>
<text text-anchor="middle" x="1659.68" y="-1926" font-family="Times,serif" font-size="10.00" fill="#767676">&gt;=7.2</text>
</g>
<!-- symfony/process&#45;&gt;php -->
<g id="edge65" class="edge">
<title>symfony/process&#45;&gt;php</title>
<path fill="none" stroke="#1a2833" d="M857.07,-1826.71C944.03,-1826.46 1074.28,-1826.13 1187.68,-1826 1252.34,-1825.92 1419.6,-1799.69 1478.68,-1826 1489.6,-1830.87 1485.75,-1841.13 1496.68,-1846 1629.03,-1904.95 1684.91,-1890.88 1822.68,-1846 1863.77,-1832.61 1894.57,-1790.64 1911.34,-1762.32"/>
<polygon fill="#1a2833" stroke="#1a2833" points="1914.57,-1763.72 1916.49,-1753.3 1908.49,-1760.25 1914.57,-1763.72"/>
<text text-anchor="middle" x="1333.18" y="-1829" font-family="Times,serif" font-size="10.00" fill="#767676">&gt;=8.1</text>
</g>
<!-- symfony/requirements&#45;checker&#45;&gt;php -->
<g id="edge67" class="edge">
<title>symfony/requirements&#45;checker&#45;&gt;php</title>
<path fill="none" stroke="#1a2833" d="M1446.73,-1804.02C1463.43,-1806.09 1480.48,-1807.86 1496.68,-1809 1641.21,-1819.18 1684.76,-1853.41 1822.68,-1809 1852.52,-1799.39 1881.03,-1777.58 1900.45,-1760.11"/>
<polygon fill="#1a2833" stroke="#1a2833" points="1902.98,-1762.54 1907.95,-1753.18 1898.23,-1757.4 1902.98,-1762.54"/>
<text text-anchor="middle" x="1659.68" y="-1834" font-family="Times,serif" font-size="10.00" fill="#767676">&gt;=5.3.9</text>
</g>
<!-- symfony/stopwatch&#45;&gt;php -->
<g id="edge69" class="edge">
<title>symfony/stopwatch&#45;&gt;php</title>
<path fill="none" stroke="#1a2833" d="M1130.87,-1686.75C1284.76,-1686.1 1576.23,-1689.1 1822.68,-1716 1845.15,-1718.45 1870.09,-1723 1889.8,-1727.04"/>
<polygon fill="#1a2833" stroke="#1a2833" points="1889.08,-1730.46 1899.59,-1729.09 1890.51,-1723.61 1889.08,-1730.46"/>
<text text-anchor="middle" x="1659.68" y="-1719" font-family="Times,serif" font-size="10.00" fill="#767676">&gt;=8.1</text>
</g>
<!-- symfony/stopwatch&#45;&gt;symfony/service&#45;contracts -->
<g id="edge70" class="edge">
<title>symfony/stopwatch&#45;&gt;symfony/service&#45;contracts</title>
<path fill="none" stroke="#1a2833" d="M1130.95,-1670.21C1149.82,-1667.5 1169.29,-1664.96 1187.68,-1663 1299.49,-1651.09 1426.79,-1643.61 1520.83,-1639.24"/>
<polygon fill="#1a2833" stroke="#1a2833" points="1521.15,-1642.73 1530.98,-1638.77 1520.83,-1635.74 1521.15,-1642.73"/>
<text text-anchor="middle" x="1333.18" y="-1666" font-family="Times,serif" font-size="10.00" fill="#767676">^2.5|^3</text>
</g>
<!-- symfony/framework&#45;bundle&#45;&gt;php -->
<g id="edge74" class="edge">
<title>symfony/framework&#45;bundle&#45;&gt;php</title>
<path fill="none" stroke="#1a2833" d="M538.83,-1325.97C571.03,-1306.98 617.69,-1273.88 640.68,-1231 658.42,-1197.91 632.58,-1089.99 658.68,-1063 689.56,-1031.05 813.96,-1047.25 856.68,-1035 865.09,-1032.59 866.17,-1029.06 874.68,-1027 1143.67,-961.79 1219.95,-1001.82 1496.68,-996 1641.53,-992.95 1705.49,-910.8 1822.68,-996 1891.45,-1046 1865.1,-1094.6 1881.68,-1178 1921.39,-1377.86 1925.55,-1624.78 1925.77,-1706.94"/>
<polygon fill="#1a2833" stroke="#1a2833" points="1922.27,-1707 1925.78,-1717 1929.27,-1706.99 1922.27,-1707"/>
<text text-anchor="middle" x="1333.18" y="-999" font-family="Times,serif" font-size="10.00" fill="#767676">&gt;=8.1</text>
</g>
<!-- symfony/framework&#45;bundle&#45;&gt;composer&#45;runtime&#45;api -->
<g id="edge72" class="edge">
<title>symfony/framework&#45;bundle&#45;&gt;composer&#45;runtime&#45;api</title>
<path fill="none" stroke="#1a2833" d="M507.51,-1325.86C517.18,-1270.49 554.29,-1102.67 658.68,-1024 679.78,-1008.09 825.21,-986.83 925.32,-973.79"/>
<polygon fill="#1a2833" stroke="#1a2833" points="926,-977.23 935.47,-972.48 925.1,-970.29 926,-977.23"/>
<text text-anchor="middle" x="757.68" y="-1027" font-family="Times,serif" font-size="10.00" fill="#767676">&gt;=2.1</text>
</g>
<!-- symfony/framework&#45;bundle&#45;&gt;symfony/cache -->
<g id="edge75" class="edge">
<title>symfony/framework&#45;bundle&#45;&gt;symfony/cache</title>
<path fill="none" stroke="#1a2833" d="M519.18,-1362.45C544.71,-1394 600.49,-1458.97 658.68,-1501 745.36,-1563.62 773.14,-1573.44 874.68,-1607 889.08,-1611.76 904.57,-1615.76 919.9,-1619.09"/>
<polygon fill="#1a2833" stroke="#1a2833" points="919.43,-1622.57 929.93,-1621.19 920.86,-1615.71 919.43,-1622.57"/>
<text text-anchor="middle" x="757.68" y="-1602" font-family="Times,serif" font-size="10.00" fill="#767676">^5.4|^6.0|^7.0</text>
</g>
<!-- symfony/framework&#45;bundle&#45;&gt;symfony/config -->
<g id="edge76" class="edge">
<title>symfony/framework&#45;bundle&#45;&gt;symfony/config</title>
<path fill="none" stroke="#1a2833" d="M540.1,-1362.05C570.7,-1376.83 616.51,-1397.02 658.68,-1408 744.41,-1430.33 778.46,-1389.39 856.68,-1431 867.53,-1436.77 864.02,-1445.87 874.68,-1452 888.19,-1459.78 903.47,-1465.39 918.92,-1469.42"/>
<polygon fill="#1a2833" stroke="#1a2833" points="918.55,-1472.93 929.09,-1471.85 920.18,-1466.13 918.55,-1472.93"/>
<text text-anchor="middle" x="757.68" y="-1434" font-family="Times,serif" font-size="10.00" fill="#767676">^6.1|^7.0</text>
</g>
<!-- symfony/framework&#45;bundle&#45;&gt;symfony/deprecation&#45;contracts -->
<g id="edge78" class="edge">
<title>symfony/framework&#45;bundle&#45;&gt;symfony/deprecation&#45;contracts</title>
<path fill="none" stroke="#1a2833" d="M526.52,-1362.24C555,-1384.93 607.24,-1423.02 658.68,-1442 742.05,-1472.78 784.54,-1418.08 856.68,-1470 871.2,-1480.45 859.46,-1496.6 874.68,-1506 930.44,-1540.46 1115.92,-1543.52 1169.68,-1506 1188.7,-1492.72 1169.01,-1470.78 1187.68,-1457 1212.93,-1438.36 1376.93,-1433.08 1504.4,-1431.84"/>
<polygon fill="#1a2833" stroke="#1a2833" points="1504.7,-1435.34 1514.67,-1431.75 1504.64,-1428.34 1504.7,-1435.34"/>
<text text-anchor="middle" x="1022.18" y="-1536" font-family="Times,serif" font-size="10.00" fill="#767676">^2.5|^3</text>
</g>
<!-- symfony/framework&#45;bundle&#45;&gt;symfony/filesystem -->
<g id="edge81" class="edge">
<title>symfony/framework&#45;bundle&#45;&gt;symfony/filesystem</title>
<path fill="none" stroke="#1a2833" d="M513.72,-1325.94C533.92,-1287.65 586.66,-1198.34 658.68,-1156 742.77,-1106.55 777.51,-1125.7 874.68,-1117 1142.3,-1093.03 1215.09,-1090.85 1478.68,-1143 1520.85,-1151.34 1567.07,-1166.1 1602.1,-1178.51"/>
<polygon fill="#1a2833" stroke="#1a2833" points="1601.08,-1181.86 1611.68,-1181.94 1603.44,-1175.27 1601.08,-1181.86"/>
<text text-anchor="middle" x="1022.18" y="-1120" font-family="Times,serif" font-size="10.00" fill="#767676">^5.4|^6.0|^7.0</text>
</g>
<!-- symfony/framework&#45;bundle&#45;&gt;symfony/dependency&#45;injection -->
<g id="edge77" class="edge">
<title>symfony/framework&#45;bundle&#45;&gt;symfony/dependency&#45;injection</title>
<path fill="none" stroke="#1a2833" d="M509.2,-1325.68C522.43,-1276.4 566.11,-1140.88 658.68,-1083 676.57,-1071.81 774.7,-1064.4 864.35,-1059.87"/>
<polygon fill="#1a2833" stroke="#1a2833" points="864.58,-1063.36 874.39,-1059.37 864.23,-1056.37 864.58,-1063.36"/>
<text text-anchor="middle" x="757.68" y="-1086" font-family="Times,serif" font-size="10.00" fill="#767676">^6.4.12|^7.0</text>
</g>
<!-- symfony/framework&#45;bundle&#45;&gt;symfony/event&#45;dispatcher -->
<g id="edge80" class="edge">
<title>symfony/framework&#45;bundle&#45;&gt;symfony/event&#45;dispatcher</title>
<path fill="none" stroke="#1a2833" d="M524,-1362.29C554.08,-1391.95 611.63,-1453.71 640.68,-1518 658.55,-1557.56 632.08,-1579.69 658.68,-1614 723.6,-1697.76 773.75,-1682.69 874.68,-1715 882.04,-1717.36 889.67,-1719.53 897.43,-1721.53"/>
<polygon fill="#1a2833" stroke="#1a2833" points="896.74,-1724.97 907.29,-1723.98 898.43,-1718.17 896.74,-1724.97"/>
<text text-anchor="middle" x="757.68" y="-1711" font-family="Times,serif" font-size="10.00" fill="#767676">^5.4|^6.0|^7.0</text>
</g>
<!-- symfony/framework&#45;bundle&#45;&gt;symfony/finder -->
<g id="edge82" class="edge">
<title>symfony/framework&#45;bundle&#45;&gt;symfony/finder</title>
<path fill="none" stroke="#1a2833" d="M521,-1362.43C547.02,-1390.41 600.88,-1442.92 658.68,-1467 699.56,-1484.04 822.59,-1461.71 856.68,-1490 877.44,-1507.24 854.79,-1529.75 874.68,-1548 887.34,-1559.62 903.22,-1567.38 919.82,-1572.49"/>
<polygon fill="#1a2833" stroke="#1a2833" points="919.08,-1575.92 929.65,-1575.2 920.94,-1569.17 919.08,-1575.92"/>
<text text-anchor="middle" x="757.68" y="-1493" font-family="Times,serif" font-size="10.00" fill="#767676">^5.4|^6.0|^7.0</text>
</g>
<!-- ext&#45;xml -->
<g id="node45" class="node">
<title>ext&#45;xml</title>
<path fill="#eeeeee" stroke="black" d="M1045.18,-1443C1045.18,-1443 999.18,-1443 999.18,-1443 993.18,-1443 987.18,-1437 987.18,-1431 987.18,-1431 987.18,-1419 987.18,-1419 987.18,-1413 993.18,-1407 999.18,-1407 999.18,-1407 1045.18,-1407 1045.18,-1407 1051.18,-1407 1057.18,-1413 1057.18,-1419 1057.18,-1419 1057.18,-1431 1057.18,-1431 1057.18,-1437 1051.18,-1443 1045.18,-1443"/>
<text text-anchor="middle" x="1022.18" y="-1421.3" font-family="Times,serif" font-size="14.00" fill="#314b5f">ext&#45;xml</text>
</g>
<!-- symfony/framework&#45;bundle&#45;&gt;ext&#45;xml -->
<g id="edge73" class="edge">
<title>symfony/framework&#45;bundle&#45;&gt;ext&#45;xml</title>
<path fill="none" stroke="#1a2833" d="M591.21,-1362.07C613.16,-1366.32 636.74,-1370.59 658.68,-1374 746.22,-1387.59 768.98,-1384.45 856.68,-1397 897.43,-1402.83 943.63,-1410.82 976.68,-1416.77"/>
<polygon fill="#1a2833" stroke="#1a2833" points="976.45,-1420.29 986.92,-1418.62 977.7,-1413.4 976.45,-1420.29"/>
<text text-anchor="middle" x="757.68" y="-1400" font-family="Times,serif" font-size="10.00" fill="#767676">*</text>
</g>
<!-- symfony/error&#45;handler -->
<g id="node46" class="node">
<title>symfony/error&#45;handler</title>
<path fill="#eeeeee" stroke="black" d="M1129.68,-1389C1129.68,-1389 914.68,-1389 914.68,-1389 908.68,-1389 902.68,-1383 902.68,-1377 902.68,-1377 902.68,-1365 902.68,-1365 902.68,-1359 908.68,-1353 914.68,-1353 914.68,-1353 1129.68,-1353 1129.68,-1353 1135.68,-1353 1141.68,-1359 1141.68,-1365 1141.68,-1365 1141.68,-1377 1141.68,-1377 1141.68,-1383 1135.68,-1389 1129.68,-1389"/>
<text text-anchor="middle" x="1022.18" y="-1367.3" font-family="Times,serif" font-size="14.00" fill="#314b5f">symfony/error&#45;handler: v6.4.23</text>
</g>
<!-- symfony/framework&#45;bundle&#45;&gt;symfony/error&#45;handler -->
<g id="edge79" class="edge">
<title>symfony/framework&#45;bundle&#45;&gt;symfony/error&#45;handler</title>
<path fill="none" stroke="#1a2833" d="M640.72,-1351.11C718.52,-1355.18 815.56,-1360.25 892.16,-1364.26"/>
<polygon fill="#1a2833" stroke="#1a2833" points="892.18,-1367.76 902.35,-1364.79 892.54,-1360.77 892.18,-1367.76"/>
<text text-anchor="middle" x="757.68" y="-1365" font-family="Times,serif" font-size="10.00" fill="#767676">^6.1|^7.0</text>
</g>
<!-- symfony/http&#45;foundation -->
<g id="node47" class="node">
<title>symfony/http&#45;foundation</title>
<path fill="#eeeeee" stroke="black" d="M1137.18,-1335C1137.18,-1335 907.18,-1335 907.18,-1335 901.18,-1335 895.18,-1329 895.18,-1323 895.18,-1323 895.18,-1311 895.18,-1311 895.18,-1305 901.18,-1299 907.18,-1299 907.18,-1299 1137.18,-1299 1137.18,-1299 1143.18,-1299 1149.18,-1305 1149.18,-1311 1149.18,-1311 1149.18,-1323 1149.18,-1323 1149.18,-1329 1143.18,-1335 1137.18,-1335"/>
<text text-anchor="middle" x="1022.18" y="-1313.3" font-family="Times,serif" font-size="14.00" fill="#314b5f">symfony/http&#45;foundation: v6.4.23</text>
</g>
<!-- symfony/framework&#45;bundle&#45;&gt;symfony/http&#45;foundation -->
<g id="edge83" class="edge">
<title>symfony/framework&#45;bundle&#45;&gt;symfony/http&#45;foundation</title>
<path fill="none" stroke="#1a2833" d="M640.72,-1336.89C716.09,-1332.95 809.51,-1328.06 884.92,-1324.12"/>
<polygon fill="#1a2833" stroke="#1a2833" points="885.16,-1327.62 894.96,-1323.6 884.79,-1320.62 885.16,-1327.62"/>
<text text-anchor="middle" x="757.68" y="-1338" font-family="Times,serif" font-size="10.00" fill="#767676">^6.4|^7.0</text>
</g>
<!-- symfony/http&#45;kernel -->
<g id="node48" class="node">
<title>symfony/http&#45;kernel</title>
<path fill="#eeeeee" stroke="black" d="M1121.68,-1281C1121.68,-1281 922.68,-1281 922.68,-1281 916.68,-1281 910.68,-1275 910.68,-1269 910.68,-1269 910.68,-1257 910.68,-1257 910.68,-1251 916.68,-1245 922.68,-1245 922.68,-1245 1121.68,-1245 1121.68,-1245 1127.68,-1245 1133.68,-1251 1133.68,-1257 1133.68,-1257 1133.68,-1269 1133.68,-1269 1133.68,-1275 1127.68,-1281 1121.68,-1281"/>
<text text-anchor="middle" x="1022.18" y="-1259.3" font-family="Times,serif" font-size="14.00" fill="#314b5f">symfony/http&#45;kernel: v6.4.23</text>
</g>
<!-- symfony/framework&#45;bundle&#45;&gt;symfony/http&#45;kernel -->
<g id="edge84" class="edge">
<title>symfony/framework&#45;bundle&#45;&gt;symfony/http&#45;kernel</title>
<path fill="none" stroke="#1a2833" d="M580,-1325.98C604.95,-1320.38 632.92,-1314.5 658.68,-1310 738.81,-1295.99 829.59,-1284.22 900.26,-1275.97"/>
<polygon fill="#1a2833" stroke="#1a2833" points="901.01,-1279.41 910.54,-1274.78 900.2,-1272.45 901.01,-1279.41"/>
<text text-anchor="middle" x="757.68" y="-1313" font-family="Times,serif" font-size="10.00" fill="#767676">^6.4</text>
</g>
<!-- symfony/polyfill&#45;mbstring -->
<g id="node49" class="node">
<title>symfony/polyfill&#45;mbstring</title>
<path fill="#eeeeee" stroke="black" d="M1140.68,-1227C1140.68,-1227 903.68,-1227 903.68,-1227 897.68,-1227 891.68,-1221 891.68,-1215 891.68,-1215 891.68,-1203 891.68,-1203 891.68,-1197 897.68,-1191 903.68,-1191 903.68,-1191 1140.68,-1191 1140.68,-1191 1146.68,-1191 1152.68,-1197 1152.68,-1203 1152.68,-1203 1152.68,-1215 1152.68,-1215 1152.68,-1221 1146.68,-1227 1140.68,-1227"/>
<text text-anchor="middle" x="1022.18" y="-1205.3" font-family="Times,serif" font-size="14.00" fill="#314b5f">symfony/polyfill&#45;mbstring: v1.32.0</text>
</g>
<!-- symfony/framework&#45;bundle&#45;&gt;symfony/polyfill&#45;mbstring -->
<g id="edge85" class="edge">
<title>symfony/framework&#45;bundle&#45;&gt;symfony/polyfill&#45;mbstring</title>
<path fill="none" stroke="#1a2833" d="M533.59,-1325.87C563.69,-1307.86 612.76,-1280.83 658.68,-1266 730.33,-1242.86 813.08,-1228.94 881.42,-1220.65"/>
<polygon fill="#1a2833" stroke="#1a2833" points="881.87,-1224.12 891.39,-1219.47 881.05,-1217.17 881.87,-1224.12"/>
<text text-anchor="middle" x="757.68" y="-1269" font-family="Times,serif" font-size="10.00" fill="#767676">~1.0</text>
</g>
<!-- symfony/routing -->
<g id="node50" class="node">
<title>symfony/routing</title>
<path fill="#eeeeee" stroke="black" d="M1108.18,-1173C1108.18,-1173 936.18,-1173 936.18,-1173 930.18,-1173 924.18,-1167 924.18,-1161 924.18,-1161 924.18,-1149 924.18,-1149 924.18,-1143 930.18,-1137 936.18,-1137 936.18,-1137 1108.18,-1137 1108.18,-1137 1114.18,-1137 1120.18,-1143 1120.18,-1149 1120.18,-1149 1120.18,-1161 1120.18,-1161 1120.18,-1167 1114.18,-1173 1108.18,-1173"/>
<text text-anchor="middle" x="1022.18" y="-1151.3" font-family="Times,serif" font-size="14.00" fill="#314b5f">symfony/routing: v6.4.22</text>
</g>
<!-- symfony/framework&#45;bundle&#45;&gt;symfony/routing -->
<g id="edge86" class="edge">
<title>symfony/framework&#45;bundle&#45;&gt;symfony/routing</title>
<path fill="none" stroke="#1a2833" d="M519.06,-1325.96C543.98,-1296.1 598.35,-1236.95 658.68,-1209 738.91,-1171.83 838.85,-1159.11 913.46,-1155.24"/>
<polygon fill="#1a2833" stroke="#1a2833" points="913.99,-1158.71 923.82,-1154.75 913.66,-1151.72 913.99,-1158.71"/>
<text text-anchor="middle" x="757.68" y="-1212" font-family="Times,serif" font-size="10.00" fill="#767676">^6.4|^7.0</text>
</g>
<!-- bamarni/composer&#45;bin&#45;plugin&#45;&gt;php -->
<g id="edge89" class="edge">
<title>bamarni/composer&#45;bin&#45;plugin&#45;&gt;php</title>
<path fill="none" stroke="#1a2833" d="M639.43,-272.09C804.71,-254.47 1074.65,-232.3 1169.68,-263 1510.19,-372.99 1620.43,-438.79 1822.68,-734 1881.35,-819.64 1865.54,-857.45 1881.68,-960 1927.14,-1249.01 1927.14,-1605.17 1926.09,-1706.76"/>
<polygon fill="#1a2833" stroke="#1a2833" points="1922.59,-1706.8 1925.97,-1716.84 1929.59,-1706.88 1922.59,-1706.8"/>
<text text-anchor="middle" x="1333.18" y="-386" font-family="Times,serif" font-size="10.00" fill="#767676">^7.2.5 || ^8.0</text>
</g>
<!-- composer&#45;plugin&#45;api -->
<g id="node52" class="node">
<title>composer&#45;plugin&#45;api</title>
<path fill="#eeeeee" stroke="black" d="M1090.68,-216C1090.68,-216 953.68,-216 953.68,-216 947.68,-216 941.68,-210 941.68,-204 941.68,-204 941.68,-192 941.68,-192 941.68,-186 947.68,-180 953.68,-180 953.68,-180 1090.68,-180 1090.68,-180 1096.68,-180 1102.68,-186 1102.68,-192 1102.68,-192 1102.68,-204 1102.68,-204 1102.68,-210 1096.68,-216 1090.68,-216"/>
<text text-anchor="middle" x="1022.18" y="-194.3" font-family="Times,serif" font-size="14.00" fill="#314b5f">composer&#45;plugin&#45;api</text>
</g>
<!-- bamarni/composer&#45;bin&#45;plugin&#45;&gt;composer&#45;plugin&#45;api -->
<g id="edge88" class="edge">
<title>bamarni/composer&#45;bin&#45;plugin&#45;&gt;composer&#45;plugin&#45;api</title>
<path fill="none" stroke="#1a2833" d="M627.52,-269.92C632.15,-267.29 636.56,-264.33 640.68,-261 656.46,-248.22 642.05,-230.67 658.68,-219 737.85,-163.44 852.34,-166.94 931.37,-178.66"/>
<polygon fill="#1a2833" stroke="#1a2833" points="930.89,-182.12 941.31,-180.2 931.97,-175.21 930.89,-182.12"/>
<text text-anchor="middle" x="757.68" y="-222" font-family="Times,serif" font-size="10.00" fill="#767676">^2.0</text>
</g>
</g>
</svg>
