<?xml version="1.0" encoding="UTF-8" standalone="no"?>
<!DOCTYPE svg PUBLIC "-//W3C//DTD SVG 1.1//EN"
 "http://www.w3.org/Graphics/SVG/1.1/DTD/svg11.dtd">
<!-- Generated by graphviz version 2.43.0 (0)
 -->
<!-- Title: %3 Pages: 1 -->
<svg width="1454pt" height="2151pt"
 viewBox="0.00 0.00 1453.68 2151.15" xmlns="http://www.w3.org/2000/svg" xmlns:xlink="http://www.w3.org/1999/xlink">
<g id="graph0" class="graph" transform="scale(1 1) rotate(0) translate(4 2147.15)">
<title>%3</title>
<polygon fill="white" stroke="transparent" points="-4,4 -4,-2147.15 1449.68,-2147.15 1449.68,4 -4,4"/>
<!-- bartlett/php&#45;compatinfo&#45;db -->
<g id="node1" class="node">
<title>bartlett/php&#45;compatinfo&#45;db</title>
<ellipse fill="lightgrey" stroke="black" stroke-width="2" cx="135.84" cy="-598.79" rx="135.68" ry="18"/>
<text text-anchor="middle" x="135.84" y="-595.09" font-family="Times,serif" font-size="14.00">bartlett/php&#45;compatinfo&#45;db</text>
</g>
<!-- php -->
<g id="node2" class="node">
<title>php</title>
<path fill="#eeeeee" stroke="black" d="M1433.68,-657.79C1433.68,-657.79 1403.68,-657.79 1403.68,-657.79 1397.68,-657.79 1391.68,-651.79 1391.68,-645.79 1391.68,-645.79 1391.68,-633.79 1391.68,-633.79 1391.68,-627.79 1397.68,-621.79 1403.68,-621.79 1403.68,-621.79 1433.68,-621.79 1433.68,-621.79 1439.68,-621.79 1445.68,-627.79 1445.68,-633.79 1445.68,-633.79 1445.68,-645.79 1445.68,-645.79 1445.68,-651.79 1439.68,-657.79 1433.68,-657.79"/>
<text text-anchor="middle" x="1418.68" y="-636.09" font-family="Times,serif" font-size="14.00" fill="#314b5f">php</text>
</g>
<!-- bartlett/php&#45;compatinfo&#45;db&#45;&gt;php -->
<g id="edge1" class="edge">
<title>bartlett/php&#45;compatinfo&#45;db&#45;&gt;php</title>
<path fill="none" stroke="#1a2833" d="M137.41,-617.05C142.19,-759.11 180.42,-1687.19 366.68,-1877.79 477.47,-1991.16 526.54,-2007.83 679.68,-2048.79 952.33,-2121.71 1081.42,-2214.69 1314.68,-2055.79 1373.88,-2015.46 1359.11,-1975.93 1373.68,-1905.79 1399.6,-1780.95 1414.66,-843.47 1417.27,-668.03"/>
<polygon fill="#1a2833" stroke="#1a2833" points="1420.77,-668.08 1417.42,-658.03 1413.77,-667.97 1420.77,-668.08"/>
<text text-anchor="middle" x="825.18" y="-2133.79" font-family="Times,serif" font-size="10.00" fill="#767676">^8.1</text>
</g>
<!-- ext&#45;json -->
<g id="node3" class="node">
<title>ext&#45;json</title>
<path fill="#eeeeee" stroke="black" d="M538.68,-265.79C538.68,-265.79 489.68,-265.79 489.68,-265.79 483.68,-265.79 477.68,-259.79 477.68,-253.79 477.68,-253.79 477.68,-241.79 477.68,-241.79 477.68,-235.79 483.68,-229.79 489.68,-229.79 489.68,-229.79 538.68,-229.79 538.68,-229.79 544.68,-229.79 550.68,-235.79 550.68,-241.79 550.68,-241.79 550.68,-253.79 550.68,-253.79 550.68,-259.79 544.68,-265.79 538.68,-265.79"/>
<text text-anchor="middle" x="514.18" y="-244.09" font-family="Times,serif" font-size="14.00" fill="#314b5f">ext&#45;json</text>
</g>
<!-- bartlett/php&#45;compatinfo&#45;db&#45;&gt;ext&#45;json -->
<g id="edge2" class="edge">
<title>bartlett/php&#45;compatinfo&#45;db&#45;&gt;ext&#45;json</title>
<path fill="none" stroke="#1a2833" d="M139.46,-580.43C148.51,-524.43 183.94,-354.87 289.68,-277.79 341.55,-239.97 418.66,-238.29 467.4,-241.97"/>
<polygon fill="#1a2833" stroke="#1a2833" points="467.39,-245.48 477.65,-242.86 467.99,-238.51 467.39,-245.48"/>
<text text-anchor="middle" x="319.18" y="-280.79" font-family="Times,serif" font-size="10.00" fill="#767676">*</text>
</g>
<!-- ext&#45;pcre -->
<g id="node4" class="node">
<title>ext&#45;pcre</title>
<path fill="#eeeeee" stroke="black" d="M539.68,-211.79C539.68,-211.79 488.68,-211.79 488.68,-211.79 482.68,-211.79 476.68,-205.79 476.68,-199.79 476.68,-199.79 476.68,-187.79 476.68,-187.79 476.68,-181.79 482.68,-175.79 488.68,-175.79 488.68,-175.79 539.68,-175.79 539.68,-175.79 545.68,-175.79 551.68,-181.79 551.68,-187.79 551.68,-187.79 551.68,-199.79 551.68,-199.79 551.68,-205.79 545.68,-211.79 539.68,-211.79"/>
<text text-anchor="middle" x="514.18" y="-190.09" font-family="Times,serif" font-size="14.00" fill="#314b5f">ext&#45;pcre</text>
</g>
<!-- bartlett/php&#45;compatinfo&#45;db&#45;&gt;ext&#45;pcre -->
<g id="edge3" class="edge">
<title>bartlett/php&#45;compatinfo&#45;db&#45;&gt;ext&#45;pcre</title>
<path fill="none" stroke="#1a2833" d="M138.67,-580.66C145.73,-521.06 176.64,-329.72 289.68,-236.79 339.69,-195.67 417.23,-189.57 466.58,-190.51"/>
<polygon fill="#1a2833" stroke="#1a2833" points="466.57,-194.01 476.67,-190.81 466.77,-187.01 466.57,-194.01"/>
<text text-anchor="middle" x="319.18" y="-239.79" font-family="Times,serif" font-size="10.00" fill="#767676">*</text>
</g>
<!-- ext&#45;pdo -->
<g id="node5" class="node">
<title>ext&#45;pdo</title>
<path fill="#eeeeee" stroke="black" d="M537.18,-157.79C537.18,-157.79 491.18,-157.79 491.18,-157.79 485.18,-157.79 479.18,-151.79 479.18,-145.79 479.18,-145.79 479.18,-133.79 479.18,-133.79 479.18,-127.79 485.18,-121.79 491.18,-121.79 491.18,-121.79 537.18,-121.79 537.18,-121.79 543.18,-121.79 549.18,-127.79 549.18,-133.79 549.18,-133.79 549.18,-145.79 549.18,-145.79 549.18,-151.79 543.18,-157.79 537.18,-157.79"/>
<text text-anchor="middle" x="514.18" y="-136.09" font-family="Times,serif" font-size="14.00" fill="#314b5f">ext&#45;pdo</text>
</g>
<!-- bartlett/php&#45;compatinfo&#45;db&#45;&gt;ext&#45;pdo -->
<g id="edge4" class="edge">
<title>bartlett/php&#45;compatinfo&#45;db&#45;&gt;ext&#45;pdo</title>
<path fill="none" stroke="#1a2833" d="M138.19,-580.77C143.91,-517.72 171.54,-304.69 289.68,-191.79 337.94,-145.66 418.79,-137.64 468.88,-137.61"/>
<polygon fill="#1a2833" stroke="#1a2833" points="469.04,-141.11 479.08,-137.71 469.11,-134.11 469.04,-141.11"/>
<text text-anchor="middle" x="319.18" y="-194.79" font-family="Times,serif" font-size="10.00" fill="#767676">*</text>
</g>
<!-- ext&#45;phar -->
<g id="node6" class="node">
<title>ext&#45;phar</title>
<path fill="#eeeeee" stroke="black" d="M540.68,-103.79C540.68,-103.79 487.68,-103.79 487.68,-103.79 481.68,-103.79 475.68,-97.79 475.68,-91.79 475.68,-91.79 475.68,-79.79 475.68,-79.79 475.68,-73.79 481.68,-67.79 487.68,-67.79 487.68,-67.79 540.68,-67.79 540.68,-67.79 546.68,-67.79 552.68,-73.79 552.68,-79.79 552.68,-79.79 552.68,-91.79 552.68,-91.79 552.68,-97.79 546.68,-103.79 540.68,-103.79"/>
<text text-anchor="middle" x="514.18" y="-82.09" font-family="Times,serif" font-size="14.00" fill="#314b5f">ext&#45;phar</text>
</g>
<!-- bartlett/php&#45;compatinfo&#45;db&#45;&gt;ext&#45;phar -->
<g id="edge5" class="edge">
<title>bartlett/php&#45;compatinfo&#45;db&#45;&gt;ext&#45;phar</title>
<path fill="none" stroke="#1a2833" d="M137.55,-580.72C141.18,-513.28 162.86,-273.44 289.68,-141.79 335.37,-94.35 414.74,-84.77 465.57,-83.97"/>
<polygon fill="#1a2833" stroke="#1a2833" points="465.67,-87.47 475.65,-83.92 465.63,-80.47 465.67,-87.47"/>
<text text-anchor="middle" x="319.18" y="-144.79" font-family="Times,serif" font-size="10.00" fill="#767676">*</text>
</g>
<!-- ext&#45;spl -->
<g id="node7" class="node">
<title>ext&#45;spl</title>
<path fill="#eeeeee" stroke="black" d="M534.68,-49.79C534.68,-49.79 493.68,-49.79 493.68,-49.79 487.68,-49.79 481.68,-43.79 481.68,-37.79 481.68,-37.79 481.68,-25.79 481.68,-25.79 481.68,-19.79 487.68,-13.79 493.68,-13.79 493.68,-13.79 534.68,-13.79 534.68,-13.79 540.68,-13.79 546.68,-19.79 546.68,-25.79 546.68,-25.79 546.68,-37.79 546.68,-37.79 546.68,-43.79 540.68,-49.79 534.68,-49.79"/>
<text text-anchor="middle" x="514.18" y="-28.09" font-family="Times,serif" font-size="14.00" fill="#314b5f">ext&#45;spl</text>
</g>
<!-- bartlett/php&#45;compatinfo&#45;db&#45;&gt;ext&#45;spl -->
<g id="edge6" class="edge">
<title>bartlett/php&#45;compatinfo&#45;db&#45;&gt;ext&#45;spl</title>
<path fill="none" stroke="#1a2833" d="M136.94,-580.32C138.31,-507.86 152.82,-239.7 289.68,-89.79 335.98,-39.07 420.4,-30.26 471.18,-29.98"/>
<polygon fill="#1a2833" stroke="#1a2833" points="471.47,-33.48 481.49,-30.04 471.51,-26.48 471.47,-33.48"/>
<text text-anchor="middle" x="319.18" y="-92.79" font-family="Times,serif" font-size="10.00" fill="#767676">*</text>
</g>
<!-- composer&#45;runtime&#45;api -->
<g id="node8" class="node">
<title>composer&#45;runtime&#45;api</title>
<path fill="#eeeeee" stroke="black" d="M1226.18,-1517.79C1226.18,-1517.79 1077.18,-1517.79 1077.18,-1517.79 1071.18,-1517.79 1065.18,-1511.79 1065.18,-1505.79 1065.18,-1505.79 1065.18,-1493.79 1065.18,-1493.79 1065.18,-1487.79 1071.18,-1481.79 1077.18,-1481.79 1077.18,-1481.79 1226.18,-1481.79 1226.18,-1481.79 1232.18,-1481.79 1238.18,-1487.79 1238.18,-1493.79 1238.18,-1493.79 1238.18,-1505.79 1238.18,-1505.79 1238.18,-1511.79 1232.18,-1517.79 1226.18,-1517.79"/>
<text text-anchor="middle" x="1151.68" y="-1496.09" font-family="Times,serif" font-size="14.00" fill="#314b5f">composer&#45;runtime&#45;api</text>
</g>
<!-- bartlett/php&#45;compatinfo&#45;db&#45;&gt;composer&#45;runtime&#45;api -->
<g id="edge7" class="edge">
<title>bartlett/php&#45;compatinfo&#45;db&#45;&gt;composer&#45;runtime&#45;api</title>
<path fill="none" stroke="#1a2833" d="M138.38,-617.09C148.8,-735.57 213.15,-1392.84 366.68,-1501.79 474.58,-1578.37 870.79,-1537.47 1055.15,-1513.37"/>
<polygon fill="#1a2833" stroke="#1a2833" points="1055.65,-1516.84 1065.1,-1512.06 1054.73,-1509.9 1055.65,-1516.84"/>
<text text-anchor="middle" x="514.18" y="-1548.79" font-family="Times,serif" font-size="10.00" fill="#767676">^2.0</text>
</g>
<!-- composer/semver -->
<g id="node9" class="node">
<title>composer/semver</title>
<path fill="#eeeeee" stroke="black" d="M907.18,-2039.79C907.18,-2039.79 743.18,-2039.79 743.18,-2039.79 737.18,-2039.79 731.18,-2033.79 731.18,-2027.79 731.18,-2027.79 731.18,-2015.79 731.18,-2015.79 731.18,-2009.79 737.18,-2003.79 743.18,-2003.79 743.18,-2003.79 907.18,-2003.79 907.18,-2003.79 913.18,-2003.79 919.18,-2009.79 919.18,-2015.79 919.18,-2015.79 919.18,-2027.79 919.18,-2027.79 919.18,-2033.79 913.18,-2039.79 907.18,-2039.79"/>
<text text-anchor="middle" x="825.18" y="-2018.09" font-family="Times,serif" font-size="14.00" fill="#314b5f">composer/semver: 3.4.4</text>
</g>
<!-- bartlett/php&#45;compatinfo&#45;db&#45;&gt;composer/semver -->
<g id="edge9" class="edge">
<title>bartlett/php&#45;compatinfo&#45;db&#45;&gt;composer/semver</title>
<path fill="none" stroke="#1a2833" d="M138.02,-616.94C146.07,-737.59 195.58,-1424.61 289.68,-1608.79 400.2,-1825.13 465.38,-1877.34 679.68,-1991.79 692.44,-1998.61 706.6,-2003.87 720.93,-2007.95"/>
<polygon fill="#1a2833" stroke="#1a2833" points="720.29,-2011.4 730.85,-2010.58 722.08,-2004.63 720.29,-2011.4"/>
<text text-anchor="middle" x="319.18" y="-1716.79" font-family="Times,serif" font-size="10.00" fill="#767676">^3.0</text>
</g>
<!-- doctrine/orm -->
<g id="node10" class="node">
<title>doctrine/orm</title>
<path fill="#eeeeee" stroke="black" d="M579.18,-1654.79C579.18,-1654.79 449.18,-1654.79 449.18,-1654.79 443.18,-1654.79 437.18,-1648.79 437.18,-1642.79 437.18,-1642.79 437.18,-1630.79 437.18,-1630.79 437.18,-1624.79 443.18,-1618.79 449.18,-1618.79 449.18,-1618.79 579.18,-1618.79 579.18,-1618.79 585.18,-1618.79 591.18,-1624.79 591.18,-1630.79 591.18,-1630.79 591.18,-1642.79 591.18,-1642.79 591.18,-1648.79 585.18,-1654.79 579.18,-1654.79"/>
<text text-anchor="middle" x="514.18" y="-1633.09" font-family="Times,serif" font-size="14.00" fill="#314b5f">doctrine/orm: 3.6.0</text>
</g>
<!-- bartlett/php&#45;compatinfo&#45;db&#45;&gt;doctrine/orm -->
<g id="edge24" class="edge">
<title>bartlett/php&#45;compatinfo&#45;db&#45;&gt;doctrine/orm</title>
<path fill="none" stroke="#1a2833" d="M137.36,-617.15C141.13,-736.19 167.39,-1398.4 289.68,-1549.79 323.26,-1591.37 379.36,-1613.12 426.95,-1624.48"/>
<polygon fill="#1a2833" stroke="#1a2833" points="426.44,-1627.96 436.97,-1626.75 427.99,-1621.13 426.44,-1627.96"/>
<text text-anchor="middle" x="319.18" y="-1596.79" font-family="Times,serif" font-size="10.00" fill="#767676">^3.5</text>
</g>
<!-- doctrine/dbal -->
<g id="node12" class="node">
<title>doctrine/dbal</title>
<path fill="#eeeeee" stroke="black" d="M1217.68,-1463.79C1217.68,-1463.79 1085.68,-1463.79 1085.68,-1463.79 1079.68,-1463.79 1073.68,-1457.79 1073.68,-1451.79 1073.68,-1451.79 1073.68,-1439.79 1073.68,-1439.79 1073.68,-1433.79 1079.68,-1427.79 1085.68,-1427.79 1085.68,-1427.79 1217.68,-1427.79 1217.68,-1427.79 1223.68,-1427.79 1229.68,-1433.79 1229.68,-1439.79 1229.68,-1439.79 1229.68,-1451.79 1229.68,-1451.79 1229.68,-1457.79 1223.68,-1463.79 1217.68,-1463.79"/>
<text text-anchor="middle" x="1151.68" y="-1442.09" font-family="Times,serif" font-size="14.00" fill="#314b5f">doctrine/dbal: 4.2.5</text>
</g>
<!-- bartlett/php&#45;compatinfo&#45;db&#45;&gt;doctrine/dbal -->
<g id="edge25" class="edge">
<title>bartlett/php&#45;compatinfo&#45;db&#45;&gt;doctrine/dbal</title>
<path fill="none" stroke="#1a2833" d="M139.44,-616.92C155.19,-723.82 241.2,-1270.75 366.68,-1372.79 577.25,-1544.02 699.57,-1475.56 970.68,-1462.79 1000.83,-1461.37 1033.72,-1458.62 1063.05,-1455.73"/>
<polygon fill="#1a2833" stroke="#1a2833" points="1063.66,-1459.19 1073.26,-1454.71 1062.97,-1452.22 1063.66,-1459.19"/>
<text text-anchor="middle" x="514.18" y="-1489.79" font-family="Times,serif" font-size="10.00" fill="#767676">^4.0</text>
</g>
<!-- symfony/console -->
<g id="node21" class="node">
<title>symfony/console</title>
<path fill="#eeeeee" stroke="black" d="M1238.18,-1409.79C1238.18,-1409.79 1065.18,-1409.79 1065.18,-1409.79 1059.18,-1409.79 1053.18,-1403.79 1053.18,-1397.79 1053.18,-1397.79 1053.18,-1385.79 1053.18,-1385.79 1053.18,-1379.79 1059.18,-1373.79 1065.18,-1373.79 1065.18,-1373.79 1238.18,-1373.79 1238.18,-1373.79 1244.18,-1373.79 1250.18,-1379.79 1250.18,-1385.79 1250.18,-1385.79 1250.18,-1397.79 1250.18,-1397.79 1250.18,-1403.79 1244.18,-1409.79 1238.18,-1409.79"/>
<text text-anchor="middle" x="1151.68" y="-1388.09" font-family="Times,serif" font-size="14.00" fill="#314b5f">symfony/console: v6.4.31</text>
</g>
<!-- bartlett/php&#45;compatinfo&#45;db&#45;&gt;symfony/console -->
<g id="edge40" class="edge">
<title>bartlett/php&#45;compatinfo&#45;db&#45;&gt;symfony/console</title>
<path fill="none" stroke="#1a2833" d="M136.42,-616.93C135.45,-705.82 144.22,-1097.58 366.68,-1257.79 587.84,-1417.07 700.26,-1329.78 970.68,-1363.79 994.01,-1366.72 1018.98,-1370.32 1042.67,-1373.94"/>
<polygon fill="#1a2833" stroke="#1a2833" points="1042.32,-1377.43 1052.73,-1375.49 1043.38,-1370.51 1042.32,-1377.43"/>
<text text-anchor="middle" x="514.18" y="-1360.79" font-family="Times,serif" font-size="10.00" fill="#767676">^6.4 || ^7.0</text>
</g>
<!-- psr/log -->
<g id="node23" class="node">
<title>psr/log</title>
<path fill="#eeeeee" stroke="black" d="M1195.18,-1020.79C1195.18,-1020.79 1108.18,-1020.79 1108.18,-1020.79 1102.18,-1020.79 1096.18,-1014.79 1096.18,-1008.79 1096.18,-1008.79 1096.18,-996.79 1096.18,-996.79 1096.18,-990.79 1102.18,-984.79 1108.18,-984.79 1108.18,-984.79 1195.18,-984.79 1195.18,-984.79 1201.18,-984.79 1207.18,-990.79 1207.18,-996.79 1207.18,-996.79 1207.18,-1008.79 1207.18,-1008.79 1207.18,-1014.79 1201.18,-1020.79 1195.18,-1020.79"/>
<text text-anchor="middle" x="1151.68" y="-999.09" font-family="Times,serif" font-size="14.00" fill="#314b5f">psr/log: 3.0.2</text>
</g>
<!-- bartlett/php&#45;compatinfo&#45;db&#45;&gt;psr/log -->
<g id="edge27" class="edge">
<title>bartlett/php&#45;compatinfo&#45;db&#45;&gt;psr/log</title>
<path fill="none" stroke="#1a2833" d="M147.01,-616.91C175.37,-665.87 260.3,-802.16 366.68,-876.79 487.63,-961.65 534.49,-961.37 679.68,-988.79 822.68,-1015.8 994.37,-1012.03 1085.83,-1007.22"/>
<polygon fill="#1a2833" stroke="#1a2833" points="1086.25,-1010.7 1096.04,-1006.66 1085.87,-1003.71 1086.25,-1010.7"/>
<text text-anchor="middle" x="514.18" y="-987.79" font-family="Times,serif" font-size="10.00" fill="#767676">^3.0</text>
</g>
<!-- symfony/cache -->
<g id="node24" class="node">
<title>symfony/cache</title>
<path fill="#eeeeee" stroke="black" d="M594.18,-1248.79C594.18,-1248.79 434.18,-1248.79 434.18,-1248.79 428.18,-1248.79 422.18,-1242.79 422.18,-1236.79 422.18,-1236.79 422.18,-1224.79 422.18,-1224.79 422.18,-1218.79 428.18,-1212.79 434.18,-1212.79 434.18,-1212.79 594.18,-1212.79 594.18,-1212.79 600.18,-1212.79 606.18,-1218.79 606.18,-1224.79 606.18,-1224.79 606.18,-1236.79 606.18,-1236.79 606.18,-1242.79 600.18,-1248.79 594.18,-1248.79"/>
<text text-anchor="middle" x="514.18" y="-1227.09" font-family="Times,serif" font-size="14.00" fill="#314b5f">symfony/cache: v6.4.31</text>
</g>
<!-- bartlett/php&#45;compatinfo&#45;db&#45;&gt;symfony/cache -->
<g id="edge34" class="edge">
<title>bartlett/php&#45;compatinfo&#45;db&#45;&gt;symfony/cache</title>
<path fill="none" stroke="#1a2833" d="M138.92,-616.85C147.24,-682.32 182.91,-911.24 289.68,-1060.79 337.14,-1127.28 418.23,-1179.56 468.59,-1207.75"/>
<polygon fill="#1a2833" stroke="#1a2833" points="467.17,-1210.96 477.62,-1212.73 470.55,-1204.84 467.17,-1210.96"/>
<text text-anchor="middle" x="319.18" y="-1124.79" font-family="Times,serif" font-size="10.00" fill="#767676">^6.4 || ^7.0</text>
</g>
<!-- symfony/config -->
<g id="node27" class="node">
<title>symfony/config</title>
<path fill="#eeeeee" stroke="black" d="M595.18,-579.79C595.18,-579.79 433.18,-579.79 433.18,-579.79 427.18,-579.79 421.18,-573.79 421.18,-567.79 421.18,-567.79 421.18,-555.79 421.18,-555.79 421.18,-549.79 427.18,-543.79 433.18,-543.79 433.18,-543.79 595.18,-543.79 595.18,-543.79 601.18,-543.79 607.18,-549.79 607.18,-555.79 607.18,-555.79 607.18,-567.79 607.18,-567.79 607.18,-573.79 601.18,-579.79 595.18,-579.79"/>
<text text-anchor="middle" x="514.18" y="-558.09" font-family="Times,serif" font-size="14.00" fill="#314b5f">symfony/config: v6.4.28</text>
</g>
<!-- bartlett/php&#45;compatinfo&#45;db&#45;&gt;symfony/config -->
<g id="edge39" class="edge">
<title>bartlett/php&#45;compatinfo&#45;db&#45;&gt;symfony/config</title>
<path fill="none" stroke="#1a2833" d="M245.44,-588.11C297.55,-582.99 359.63,-576.89 410.89,-571.85"/>
<polygon fill="#1a2833" stroke="#1a2833" points="411.38,-575.31 420.99,-570.85 410.7,-568.35 411.38,-575.31"/>
<text text-anchor="middle" x="319.18" y="-585.79" font-family="Times,serif" font-size="10.00" fill="#767676">^6.4 || ^7.0</text>
</g>
<!-- symfony/dependency&#45;injection -->
<g id="node31" class="node">
<title>symfony/dependency&#45;injection</title>
<path fill="#eeeeee" stroke="black" d="M649.68,-714.79C649.68,-714.79 378.68,-714.79 378.68,-714.79 372.68,-714.79 366.68,-708.79 366.68,-702.79 366.68,-702.79 366.68,-690.79 366.68,-690.79 366.68,-684.79 372.68,-678.79 378.68,-678.79 378.68,-678.79 649.68,-678.79 649.68,-678.79 655.68,-678.79 661.68,-684.79 661.68,-690.79 661.68,-690.79 661.68,-702.79 661.68,-702.79 661.68,-708.79 655.68,-714.79 649.68,-714.79"/>
<text text-anchor="middle" x="514.18" y="-693.09" font-family="Times,serif" font-size="14.00" fill="#314b5f">symfony/dependency&#45;injection: v6.4.31</text>
</g>
<!-- bartlett/php&#45;compatinfo&#45;db&#45;&gt;symfony/dependency&#45;injection -->
<g id="edge46" class="edge">
<title>bartlett/php&#45;compatinfo&#45;db&#45;&gt;symfony/dependency&#45;injection</title>
<path fill="none" stroke="#1a2833" d="M198.56,-614.86C262.89,-631.61 363.91,-657.92 434.06,-676.19"/>
<polygon fill="#1a2833" stroke="#1a2833" points="433.19,-679.58 443.75,-678.71 434.95,-672.8 433.19,-679.58"/>
<text text-anchor="middle" x="319.18" y="-655.79" font-family="Times,serif" font-size="10.00" fill="#767676">^6.4 || ^7.0</text>
</g>
<!-- symfony/event&#45;dispatcher -->
<g id="node33" class="node">
<title>symfony/event&#45;dispatcher</title>
<path fill="#eeeeee" stroke="black" d="M633.68,-525.79C633.68,-525.79 394.68,-525.79 394.68,-525.79 388.68,-525.79 382.68,-519.79 382.68,-513.79 382.68,-513.79 382.68,-501.79 382.68,-501.79 382.68,-495.79 388.68,-489.79 394.68,-489.79 394.68,-489.79 633.68,-489.79 633.68,-489.79 639.68,-489.79 645.68,-495.79 645.68,-501.79 645.68,-501.79 645.68,-513.79 645.68,-513.79 645.68,-519.79 639.68,-525.79 633.68,-525.79"/>
<text text-anchor="middle" x="514.18" y="-504.09" font-family="Times,serif" font-size="14.00" fill="#314b5f">symfony/event&#45;dispatcher: v6.4.25</text>
</g>
<!-- bartlett/php&#45;compatinfo&#45;db&#45;&gt;symfony/event&#45;dispatcher -->
<g id="edge49" class="edge">
<title>bartlett/php&#45;compatinfo&#45;db&#45;&gt;symfony/event&#45;dispatcher</title>
<path fill="none" stroke="#1a2833" d="M190.82,-582.29C237.18,-568.47 305.94,-548.81 366.68,-534.79 377.09,-532.38 387.97,-530.05 398.88,-527.83"/>
<polygon fill="#1a2833" stroke="#1a2833" points="399.78,-531.22 408.9,-525.82 398.41,-524.36 399.78,-531.22"/>
<text text-anchor="middle" x="319.18" y="-556.79" font-family="Times,serif" font-size="10.00" fill="#767676">^6.4 || ^7.0</text>
</g>
<!-- symfony/finder -->
<g id="node35" class="node">
<title>symfony/finder</title>
<path fill="#eeeeee" stroke="black" d="M905.68,-309.79C905.68,-309.79 744.68,-309.79 744.68,-309.79 738.68,-309.79 732.68,-303.79 732.68,-297.79 732.68,-297.79 732.68,-285.79 732.68,-285.79 732.68,-279.79 738.68,-273.79 744.68,-273.79 744.68,-273.79 905.68,-273.79 905.68,-273.79 911.68,-273.79 917.68,-279.79 917.68,-285.79 917.68,-285.79 917.68,-297.79 917.68,-297.79 917.68,-303.79 911.68,-309.79 905.68,-309.79"/>
<text text-anchor="middle" x="825.18" y="-288.09" font-family="Times,serif" font-size="14.00" fill="#314b5f">symfony/finder: v6.4.31</text>
</g>
<!-- bartlett/php&#45;compatinfo&#45;db&#45;&gt;symfony/finder -->
<g id="edge51" class="edge">
<title>bartlett/php&#45;compatinfo&#45;db&#45;&gt;symfony/finder</title>
<path fill="none" stroke="#1a2833" d="M163.86,-581.14C205.56,-554.81 288.92,-505.66 366.68,-480.79 429.78,-460.61 614.76,-484.57 661.68,-437.79 700.18,-399.4 641.69,-355.69 679.68,-316.79 691.31,-304.87 706.44,-297.41 722.51,-292.91"/>
<polygon fill="#1a2833" stroke="#1a2833" points="723.72,-296.22 732.62,-290.48 722.08,-289.42 723.72,-296.22"/>
<text text-anchor="middle" x="319.18" y="-512.79" font-family="Times,serif" font-size="10.00" fill="#767676">^6.4 || ^7.0</text>
</g>
<!-- symfony/http&#45;client -->
<g id="node36" class="node">
<title>symfony/http&#45;client</title>
<path fill="#eeeeee" stroke="black" d="M611.18,-867.79C611.18,-867.79 417.18,-867.79 417.18,-867.79 411.18,-867.79 405.18,-861.79 405.18,-855.79 405.18,-855.79 405.18,-843.79 405.18,-843.79 405.18,-837.79 411.18,-831.79 417.18,-831.79 417.18,-831.79 611.18,-831.79 611.18,-831.79 617.18,-831.79 623.18,-837.79 623.18,-843.79 623.18,-843.79 623.18,-855.79 623.18,-855.79 623.18,-861.79 617.18,-867.79 611.18,-867.79"/>
<text text-anchor="middle" x="514.18" y="-846.09" font-family="Times,serif" font-size="14.00" fill="#314b5f">symfony/http&#45;client: v6.4.31</text>
</g>
<!-- bartlett/php&#45;compatinfo&#45;db&#45;&gt;symfony/http&#45;client -->
<g id="edge58" class="edge">
<title>bartlett/php&#45;compatinfo&#45;db&#45;&gt;symfony/http&#45;client</title>
<path fill="none" stroke="#1a2833" d="M163.3,-616.44C229.46,-660.56 402.12,-775.72 477.31,-825.87"/>
<polygon fill="#1a2833" stroke="#1a2833" points="475.72,-829.02 485.98,-831.65 479.61,-823.19 475.72,-829.02"/>
<text text-anchor="middle" x="319.18" y="-741.79" font-family="Times,serif" font-size="10.00" fill="#767676">^6.4 || ^7.0</text>
</g>
<!-- symfony/messenger -->
<g id="node39" class="node">
<title>symfony/messenger</title>
<path fill="#eeeeee" stroke="black" d="M612.68,-1067.79C612.68,-1067.79 415.68,-1067.79 415.68,-1067.79 409.68,-1067.79 403.68,-1061.79 403.68,-1055.79 403.68,-1055.79 403.68,-1043.79 403.68,-1043.79 403.68,-1037.79 409.68,-1031.79 415.68,-1031.79 415.68,-1031.79 612.68,-1031.79 612.68,-1031.79 618.68,-1031.79 624.68,-1037.79 624.68,-1043.79 624.68,-1043.79 624.68,-1055.79 624.68,-1055.79 624.68,-1061.79 618.68,-1067.79 612.68,-1067.79"/>
<text text-anchor="middle" x="514.18" y="-1046.09" font-family="Times,serif" font-size="14.00" fill="#314b5f">symfony/messenger: v6.4.31</text>
</g>
<!-- bartlett/php&#45;compatinfo&#45;db&#45;&gt;symfony/messenger -->
<g id="edge63" class="edge">
<title>bartlett/php&#45;compatinfo&#45;db&#45;&gt;symfony/messenger</title>
<path fill="none" stroke="#1a2833" d="M137.33,-617.11C140.16,-683.14 159.36,-910.67 289.68,-1016.79 318.52,-1040.28 356.66,-1050.89 393.26,-1054.95"/>
<polygon fill="#1a2833" stroke="#1a2833" points="393.25,-1058.46 403.53,-1055.92 393.91,-1051.49 393.25,-1058.46"/>
<text text-anchor="middle" x="319.18" y="-1048.79" font-family="Times,serif" font-size="10.00" fill="#767676">^6.4 || ^7.0</text>
</g>
<!-- symfony/polyfill&#45;php84 -->
<g id="node41" class="node">
<title>symfony/polyfill&#45;php84</title>
<path fill="#eeeeee" stroke="black" d="M933.68,-265.79C933.68,-265.79 716.68,-265.79 716.68,-265.79 710.68,-265.79 704.68,-259.79 704.68,-253.79 704.68,-253.79 704.68,-241.79 704.68,-241.79 704.68,-235.79 710.68,-229.79 716.68,-229.79 716.68,-229.79 933.68,-229.79 933.68,-229.79 939.68,-229.79 945.68,-235.79 945.68,-241.79 945.68,-241.79 945.68,-253.79 945.68,-253.79 945.68,-259.79 939.68,-265.79 933.68,-265.79"/>
<text text-anchor="middle" x="825.18" y="-244.09" font-family="Times,serif" font-size="14.00" fill="#314b5f">symfony/polyfill&#45;php84: v1.33.0</text>
</g>
<!-- bartlett/php&#45;compatinfo&#45;db&#45;&gt;symfony/polyfill&#45;php84 -->
<g id="edge65" class="edge">
<title>bartlett/php&#45;compatinfo&#45;db&#45;&gt;symfony/polyfill&#45;php84</title>
<path fill="none" stroke="#1a2833" d="M154.84,-580.94C182.17,-554.54 236.59,-504.67 289.68,-471.79 321.48,-452.09 330.64,-447.84 366.68,-437.79 430.34,-420.03 614.72,-446.3 661.68,-399.79 703.12,-358.74 638.71,-311.31 679.68,-269.79 684.35,-265.05 689.59,-261.05 695.23,-257.68"/>
<polygon fill="#1a2833" stroke="#1a2833" points="697.13,-260.64 704.38,-252.91 693.9,-254.43 697.13,-260.64"/>
<text text-anchor="middle" x="319.18" y="-474.79" font-family="Times,serif" font-size="10.00" fill="#767676">^1.0</text>
</g>
<!-- symfony/process -->
<g id="node42" class="node">
<title>symfony/process</title>
<path fill="#eeeeee" stroke="black" d="M912.18,-218.79C912.18,-218.79 738.18,-218.79 738.18,-218.79 732.18,-218.79 726.18,-212.79 726.18,-206.79 726.18,-206.79 726.18,-194.79 726.18,-194.79 726.18,-188.79 732.18,-182.79 738.18,-182.79 738.18,-182.79 912.18,-182.79 912.18,-182.79 918.18,-182.79 924.18,-188.79 924.18,-194.79 924.18,-194.79 924.18,-206.79 924.18,-206.79 924.18,-212.79 918.18,-218.79 912.18,-218.79"/>
<text text-anchor="middle" x="825.18" y="-197.09" font-family="Times,serif" font-size="14.00" fill="#314b5f">symfony/process: v6.4.31</text>
</g>
<!-- bartlett/php&#45;compatinfo&#45;db&#45;&gt;symfony/process -->
<g id="edge67" class="edge">
<title>bartlett/php&#45;compatinfo&#45;db&#45;&gt;symfony/process</title>
<path fill="none" stroke="#1a2833" d="M148.49,-580.65C171.49,-546.18 226.04,-470.87 289.68,-427.79 319.83,-407.38 331.29,-408.39 366.68,-399.79 430.9,-384.18 614.92,-408.51 661.68,-361.79 705.74,-317.76 636.12,-267.33 679.68,-222.79 689.67,-212.57 702.26,-205.78 715.82,-201.41"/>
<polygon fill="#1a2833" stroke="#1a2833" points="717.14,-204.68 725.85,-198.64 715.28,-197.93 717.14,-204.68"/>
<text text-anchor="middle" x="319.18" y="-430.79" font-family="Times,serif" font-size="10.00" fill="#767676">^6.4 || ^7.0</text>
</g>
<!-- symfony/requirements&#45;checker -->
<g id="node43" class="node">
<title>symfony/requirements&#45;checker</title>
<path fill="#eeeeee" stroke="black" d="M958.68,-165.79C958.68,-165.79 691.68,-165.79 691.68,-165.79 685.68,-165.79 679.68,-159.79 679.68,-153.79 679.68,-153.79 679.68,-141.79 679.68,-141.79 679.68,-135.79 685.68,-129.79 691.68,-129.79 691.68,-129.79 958.68,-129.79 958.68,-129.79 964.68,-129.79 970.68,-135.79 970.68,-141.79 970.68,-141.79 970.68,-153.79 970.68,-153.79 970.68,-159.79 964.68,-165.79 958.68,-165.79"/>
<text text-anchor="middle" x="825.18" y="-144.09" font-family="Times,serif" font-size="14.00" fill="#314b5f">symfony/requirements&#45;checker: v2.0.3</text>
</g>
<!-- bartlett/php&#45;compatinfo&#45;db&#45;&gt;symfony/requirements&#45;checker -->
<g id="edge69" class="edge">
<title>bartlett/php&#45;compatinfo&#45;db&#45;&gt;symfony/requirements&#45;checker</title>
<path fill="none" stroke="#1a2833" d="M145.19,-580.76C164.73,-540.51 217.31,-442.61 289.68,-388.79 318.78,-367.15 331.32,-369.86 366.68,-361.79 430.99,-347.12 614.93,-375.33 661.68,-328.79 710.82,-279.85 632.19,-224.33 679.68,-173.79 680.01,-173.43 680.36,-173.07 680.7,-172.72"/>
<polygon fill="#1a2833" stroke="#1a2833" points="683.23,-175.16 688.36,-165.89 678.57,-169.93 683.23,-175.16"/>
<text text-anchor="middle" x="319.18" y="-391.79" font-family="Times,serif" font-size="10.00" fill="#767676">^2.0</text>
</g>
<!-- symfony/stopwatch -->
<g id="node44" class="node">
<title>symfony/stopwatch</title>
<path fill="#eeeeee" stroke="black" d="M610.68,-633.79C610.68,-633.79 417.68,-633.79 417.68,-633.79 411.68,-633.79 405.68,-627.79 405.68,-621.79 405.68,-621.79 405.68,-609.79 405.68,-609.79 405.68,-603.79 411.68,-597.79 417.68,-597.79 417.68,-597.79 610.68,-597.79 610.68,-597.79 616.68,-597.79 622.68,-603.79 622.68,-609.79 622.68,-609.79 622.68,-621.79 622.68,-621.79 622.68,-627.79 616.68,-633.79 610.68,-633.79"/>
<text text-anchor="middle" x="514.18" y="-612.09" font-family="Times,serif" font-size="14.00" fill="#314b5f">symfony/stopwatch: v6.4.24</text>
</g>
<!-- bartlett/php&#45;compatinfo&#45;db&#45;&gt;symfony/stopwatch -->
<g id="edge72" class="edge">
<title>bartlett/php&#45;compatinfo&#45;db&#45;&gt;symfony/stopwatch</title>
<path fill="none" stroke="#1a2833" d="M264.77,-604.57C307.1,-606.48 353.97,-608.6 395.49,-610.47"/>
<polygon fill="#1a2833" stroke="#1a2833" points="395.49,-613.98 405.64,-610.93 395.81,-606.98 395.49,-613.98"/>
<text text-anchor="middle" x="319.18" y="-610.79" font-family="Times,serif" font-size="10.00" fill="#767676">^6.4 || ^7.0</text>
</g>
<!-- bamarni/composer&#45;bin&#45;plugin -->
<g id="node45" class="node">
<title>bamarni/composer&#45;bin&#45;plugin</title>
<path fill="#eeeeee" stroke="black" d="M637.68,-319.79C637.68,-319.79 390.68,-319.79 390.68,-319.79 384.68,-319.79 378.68,-313.79 378.68,-307.79 378.68,-307.79 378.68,-295.79 378.68,-295.79 378.68,-289.79 384.68,-283.79 390.68,-283.79 390.68,-283.79 637.68,-283.79 637.68,-283.79 643.68,-283.79 649.68,-289.79 649.68,-295.79 649.68,-295.79 649.68,-307.79 649.68,-307.79 649.68,-313.79 643.68,-319.79 637.68,-319.79"/>
<text text-anchor="middle" x="514.18" y="-298.09" font-family="Times,serif" font-size="14.00" fill="#314b5f">bamarni/composer&#45;bin&#45;plugin: 1.8.3</text>
</g>
<!-- bartlett/php&#45;compatinfo&#45;db&#45;&gt;bamarni/composer&#45;bin&#45;plugin -->
<g id="edge75" class="edge">
<title>bartlett/php&#45;compatinfo&#45;db&#45;&gt;bamarni/composer&#45;bin&#45;plugin</title>
<path fill="none" stroke="#1a2833" stroke-dasharray="5,2" d="M140.27,-580.7C151.2,-528.61 190.53,-378 289.68,-314.79 312.95,-299.95 340.52,-292.34 368.2,-289.1"/>
<polygon fill="#1a2833" stroke="#1a2833" points="368.79,-292.56 378.4,-288.09 368.1,-285.59 368.79,-292.56"/>
<text text-anchor="middle" x="319.18" y="-317.79" font-family="Times,serif" font-size="10.00" fill="#767676">^1.8</text>
</g>
<!-- composer/semver&#45;&gt;php -->
<g id="edge8" class="edge">
<title>composer/semver&#45;&gt;php</title>
<path fill="none" stroke="#1a2833" d="M919.25,-2031.8C1044.1,-2043.09 1256.87,-2054.13 1314.68,-2005.79 1421,-1916.88 1419.09,-857.28 1417.9,-668.48"/>
<polygon fill="#1a2833" stroke="#1a2833" points="1421.4,-668.22 1417.83,-658.24 1414.4,-668.27 1421.4,-668.22"/>
<text text-anchor="middle" x="1151.68" y="-2043.79" font-family="Times,serif" font-size="10.00" fill="#767676">^5.3.2 || ^7.0 || ^8.0</text>
</g>
<!-- doctrine/orm&#45;&gt;php -->
<g id="edge20" class="edge">
<title>doctrine/orm&#45;&gt;php</title>
<path fill="none" stroke="#1a2833" d="M585.57,-1654.85C614.53,-1661.58 648.53,-1668.6 679.68,-1672.79 749.62,-1682.19 1261.81,-1735.55 1314.68,-1688.79 1393.48,-1619.08 1413.82,-828.12 1417.14,-667.97"/>
<polygon fill="#1a2833" stroke="#1a2833" points="1420.64,-668.01 1417.34,-657.94 1413.64,-667.87 1420.64,-668.01"/>
<text text-anchor="middle" x="1151.68" y="-1709.79" font-family="Times,serif" font-size="10.00" fill="#767676">^8.1</text>
</g>
<!-- doctrine/orm&#45;&gt;composer&#45;runtime&#45;api -->
<g id="edge10" class="edge">
<title>doctrine/orm&#45;&gt;composer&#45;runtime&#45;api</title>
<path fill="none" stroke="#1a2833" d="M549.05,-1618.73C581.55,-1602.33 632.54,-1579.06 679.68,-1567.79 742.73,-1552.72 912.44,-1575.28 970.68,-1546.79 981.42,-1541.53 978.19,-1532.54 988.68,-1526.79 1008.82,-1515.74 1032.33,-1508.98 1055.1,-1504.89"/>
<polygon fill="#1a2833" stroke="#1a2833" points="1055.84,-1508.31 1065.14,-1503.24 1054.71,-1501.41 1055.84,-1508.31"/>
<text text-anchor="middle" x="825.18" y="-1570.79" font-family="Times,serif" font-size="10.00" fill="#767676">^2</text>
</g>
<!-- doctrine/collections -->
<g id="node11" class="node">
<title>doctrine/collections</title>
<path fill="#eeeeee" stroke="black" d="M1240.18,-1679.79C1240.18,-1679.79 1063.18,-1679.79 1063.18,-1679.79 1057.18,-1679.79 1051.18,-1673.79 1051.18,-1667.79 1051.18,-1667.79 1051.18,-1655.79 1051.18,-1655.79 1051.18,-1649.79 1057.18,-1643.79 1063.18,-1643.79 1063.18,-1643.79 1240.18,-1643.79 1240.18,-1643.79 1246.18,-1643.79 1252.18,-1649.79 1252.18,-1655.79 1252.18,-1655.79 1252.18,-1667.79 1252.18,-1667.79 1252.18,-1673.79 1246.18,-1679.79 1240.18,-1679.79"/>
<text text-anchor="middle" x="1151.68" y="-1658.09" font-family="Times,serif" font-size="14.00" fill="#314b5f">doctrine/collections: 2.4.0</text>
</g>
<!-- doctrine/orm&#45;&gt;doctrine/collections -->
<g id="edge11" class="edge">
<title>doctrine/orm&#45;&gt;doctrine/collections</title>
<path fill="none" stroke="#1a2833" d="M591.3,-1643.06C619.09,-1645.16 650.79,-1647.34 679.68,-1648.79 803.24,-1655 945.19,-1658.41 1040.68,-1660.16"/>
<polygon fill="#1a2833" stroke="#1a2833" points="1040.87,-1663.66 1050.93,-1660.34 1041,-1656.66 1040.87,-1663.66"/>
<text text-anchor="middle" x="825.18" y="-1660.79" font-family="Times,serif" font-size="10.00" fill="#767676">^2.2</text>
</g>
<!-- doctrine/orm&#45;&gt;doctrine/dbal -->
<g id="edge12" class="edge">
<title>doctrine/orm&#45;&gt;doctrine/dbal</title>
<path fill="none" stroke="#1a2833" d="M552.22,-1618.77C583,-1602.95 627.16,-1578.23 661.68,-1550.79 670.78,-1543.55 669.36,-1537.17 679.68,-1531.79 795.62,-1471.24 851.37,-1541.41 970.68,-1487.79 980.17,-1483.52 979.21,-1477.13 988.68,-1472.79 1011.8,-1462.19 1038.48,-1455.7 1063.43,-1451.74"/>
<polygon fill="#1a2833" stroke="#1a2833" points="1064.24,-1455.15 1073.63,-1450.24 1063.22,-1448.23 1064.24,-1455.15"/>
<text text-anchor="middle" x="825.18" y="-1534.79" font-family="Times,serif" font-size="10.00" fill="#767676">^3.8.2 || ^4</text>
</g>
<!-- doctrine/deprecations -->
<g id="node13" class="node">
<title>doctrine/deprecations</title>
<path fill="#eeeeee" stroke="black" d="M1248.68,-1625.79C1248.68,-1625.79 1054.68,-1625.79 1054.68,-1625.79 1048.68,-1625.79 1042.68,-1619.79 1042.68,-1613.79 1042.68,-1613.79 1042.68,-1601.79 1042.68,-1601.79 1042.68,-1595.79 1048.68,-1589.79 1054.68,-1589.79 1054.68,-1589.79 1248.68,-1589.79 1248.68,-1589.79 1254.68,-1589.79 1260.68,-1595.79 1260.68,-1601.79 1260.68,-1601.79 1260.68,-1613.79 1260.68,-1613.79 1260.68,-1619.79 1254.68,-1625.79 1248.68,-1625.79"/>
<text text-anchor="middle" x="1151.68" y="-1604.09" font-family="Times,serif" font-size="14.00" fill="#314b5f">doctrine/deprecations: 1.1.5</text>
</g>
<!-- doctrine/orm&#45;&gt;doctrine/deprecations -->
<g id="edge13" class="edge">
<title>doctrine/orm&#45;&gt;doctrine/deprecations</title>
<path fill="none" stroke="#1a2833" d="M591.2,-1633.32C700.5,-1628.33 903.07,-1619.09 1032.13,-1613.2"/>
<polygon fill="#1a2833" stroke="#1a2833" points="1032.62,-1616.68 1042.45,-1612.73 1032.3,-1609.69 1032.62,-1616.68"/>
<text text-anchor="middle" x="825.18" y="-1631.79" font-family="Times,serif" font-size="10.00" fill="#767676">^0.5.3 || ^1</text>
</g>
<!-- doctrine/event&#45;manager -->
<g id="node14" class="node">
<title>doctrine/event&#45;manager</title>
<path fill="#eeeeee" stroke="black" d="M1256.18,-1571.79C1256.18,-1571.79 1047.18,-1571.79 1047.18,-1571.79 1041.18,-1571.79 1035.18,-1565.79 1035.18,-1559.79 1035.18,-1559.79 1035.18,-1547.79 1035.18,-1547.79 1035.18,-1541.79 1041.18,-1535.79 1047.18,-1535.79 1047.18,-1535.79 1256.18,-1535.79 1256.18,-1535.79 1262.18,-1535.79 1268.18,-1541.79 1268.18,-1547.79 1268.18,-1547.79 1268.18,-1559.79 1268.18,-1559.79 1268.18,-1565.79 1262.18,-1571.79 1256.18,-1571.79"/>
<text text-anchor="middle" x="1151.68" y="-1550.09" font-family="Times,serif" font-size="14.00" fill="#314b5f">doctrine/event&#45;manager: 2.0.1</text>
</g>
<!-- doctrine/orm&#45;&gt;doctrine/event&#45;manager -->
<g id="edge14" class="edge">
<title>doctrine/orm&#45;&gt;doctrine/event&#45;manager</title>
<path fill="none" stroke="#1a2833" d="M589.31,-1618.75C617.45,-1612.5 649.9,-1606.01 679.68,-1601.79 808.06,-1583.59 841.8,-1595.08 970.68,-1580.79 989.75,-1578.67 1009.91,-1576.04 1029.56,-1573.26"/>
<polygon fill="#1a2833" stroke="#1a2833" points="1030.07,-1576.72 1039.47,-1571.84 1029.07,-1569.79 1030.07,-1576.72"/>
<text text-anchor="middle" x="825.18" y="-1604.79" font-family="Times,serif" font-size="10.00" fill="#767676">^1.2 || ^2</text>
</g>
<!-- doctrine/inflector -->
<g id="node15" class="node">
<title>doctrine/inflector</title>
<path fill="#eeeeee" stroke="black" d="M1232.18,-1996.79C1232.18,-1996.79 1071.18,-1996.79 1071.18,-1996.79 1065.18,-1996.79 1059.18,-1990.79 1059.18,-1984.79 1059.18,-1984.79 1059.18,-1972.79 1059.18,-1972.79 1059.18,-1966.79 1065.18,-1960.79 1071.18,-1960.79 1071.18,-1960.79 1232.18,-1960.79 1232.18,-1960.79 1238.18,-1960.79 1244.18,-1966.79 1244.18,-1972.79 1244.18,-1972.79 1244.18,-1984.79 1244.18,-1984.79 1244.18,-1990.79 1238.18,-1996.79 1232.18,-1996.79"/>
<text text-anchor="middle" x="1151.68" y="-1975.09" font-family="Times,serif" font-size="14.00" fill="#314b5f">doctrine/inflector: 2.1.0</text>
</g>
<!-- doctrine/orm&#45;&gt;doctrine/inflector -->
<g id="edge15" class="edge">
<title>doctrine/orm&#45;&gt;doctrine/inflector</title>
<path fill="none" stroke="#1a2833" d="M533.6,-1654.95C565.46,-1687.55 630.4,-1759.55 661.68,-1833.79 681.42,-1880.66 642.13,-1912.49 679.68,-1946.79 706.29,-1971.1 918.74,-1977.11 1049.05,-1978.49"/>
<polygon fill="#1a2833" stroke="#1a2833" points="1049.03,-1981.99 1059.06,-1978.59 1049.1,-1974.99 1049.03,-1981.99"/>
<text text-anchor="middle" x="825.18" y="-1979.79" font-family="Times,serif" font-size="10.00" fill="#767676">^1.4 || ^2.0</text>
</g>
<!-- doctrine/instantiator -->
<g id="node16" class="node">
<title>doctrine/instantiator</title>
<path fill="#eeeeee" stroke="black" d="M1244.18,-1942.79C1244.18,-1942.79 1059.18,-1942.79 1059.18,-1942.79 1053.18,-1942.79 1047.18,-1936.79 1047.18,-1930.79 1047.18,-1930.79 1047.18,-1918.79 1047.18,-1918.79 1047.18,-1912.79 1053.18,-1906.79 1059.18,-1906.79 1059.18,-1906.79 1244.18,-1906.79 1244.18,-1906.79 1250.18,-1906.79 1256.18,-1912.79 1256.18,-1918.79 1256.18,-1918.79 1256.18,-1930.79 1256.18,-1930.79 1256.18,-1936.79 1250.18,-1942.79 1244.18,-1942.79"/>
<text text-anchor="middle" x="1151.68" y="-1921.09" font-family="Times,serif" font-size="14.00" fill="#314b5f">doctrine/instantiator: 2.0.0</text>
</g>
<!-- doctrine/orm&#45;&gt;doctrine/instantiator -->
<g id="edge16" class="edge">
<title>doctrine/orm&#45;&gt;doctrine/instantiator</title>
<path fill="none" stroke="#1a2833" d="M532.02,-1654.94C561.97,-1688.1 624.81,-1761.69 661.68,-1833.79 673.77,-1857.44 658.83,-1874.32 679.68,-1890.79 733.1,-1932.99 915.44,-1934.74 1036.94,-1930.77"/>
<polygon fill="#1a2833" stroke="#1a2833" points="1037.17,-1934.26 1047.04,-1930.42 1036.93,-1927.27 1037.17,-1934.26"/>
<text text-anchor="middle" x="825.18" y="-1934.79" font-family="Times,serif" font-size="10.00" fill="#767676">^1.3 || ^2</text>
</g>
<!-- doctrine/lexer -->
<g id="node17" class="node">
<title>doctrine/lexer</title>
<path fill="#eeeeee" stroke="black" d="M1220.18,-1888.79C1220.18,-1888.79 1083.18,-1888.79 1083.18,-1888.79 1077.18,-1888.79 1071.18,-1882.79 1071.18,-1876.79 1071.18,-1876.79 1071.18,-1864.79 1071.18,-1864.79 1071.18,-1858.79 1077.18,-1852.79 1083.18,-1852.79 1083.18,-1852.79 1220.18,-1852.79 1220.18,-1852.79 1226.18,-1852.79 1232.18,-1858.79 1232.18,-1864.79 1232.18,-1864.79 1232.18,-1876.79 1232.18,-1876.79 1232.18,-1882.79 1226.18,-1888.79 1220.18,-1888.79"/>
<text text-anchor="middle" x="1151.68" y="-1867.09" font-family="Times,serif" font-size="14.00" fill="#314b5f">doctrine/lexer: 3.0.1</text>
</g>
<!-- doctrine/orm&#45;&gt;doctrine/lexer -->
<g id="edge17" class="edge">
<title>doctrine/orm&#45;&gt;doctrine/lexer</title>
<path fill="none" stroke="#1a2833" d="M526.73,-1655C556.71,-1701.58 637.58,-1822.96 679.68,-1844.79 743.78,-1878.03 943.1,-1877.81 1060.9,-1874.46"/>
<polygon fill="#1a2833" stroke="#1a2833" points="1061.1,-1877.95 1070.99,-1874.16 1060.89,-1870.96 1061.1,-1877.95"/>
<text text-anchor="middle" x="825.18" y="-1878.79" font-family="Times,serif" font-size="10.00" fill="#767676">^3</text>
</g>
<!-- doctrine/persistence -->
<g id="node18" class="node">
<title>doctrine/persistence</title>
<path fill="#eeeeee" stroke="black" d="M1243.68,-1834.79C1243.68,-1834.79 1059.68,-1834.79 1059.68,-1834.79 1053.68,-1834.79 1047.68,-1828.79 1047.68,-1822.79 1047.68,-1822.79 1047.68,-1810.79 1047.68,-1810.79 1047.68,-1804.79 1053.68,-1798.79 1059.68,-1798.79 1059.68,-1798.79 1243.68,-1798.79 1243.68,-1798.79 1249.68,-1798.79 1255.68,-1804.79 1255.68,-1810.79 1255.68,-1810.79 1255.68,-1822.79 1255.68,-1822.79 1255.68,-1828.79 1249.68,-1834.79 1243.68,-1834.79"/>
<text text-anchor="middle" x="1151.68" y="-1813.09" font-family="Times,serif" font-size="14.00" fill="#314b5f">doctrine/persistence: 4.1.1</text>
</g>
<!-- doctrine/orm&#45;&gt;doctrine/persistence -->
<g id="edge18" class="edge">
<title>doctrine/orm&#45;&gt;doctrine/persistence</title>
<path fill="none" stroke="#1a2833" d="M528.81,-1655.02C554.28,-1687.48 612.65,-1754.53 679.68,-1782.79 794.41,-1831.16 938.78,-1834.1 1037.24,-1828.5"/>
<polygon fill="#1a2833" stroke="#1a2833" points="1037.75,-1831.97 1047.52,-1827.87 1037.33,-1824.99 1037.75,-1831.97"/>
<text text-anchor="middle" x="825.18" y="-1832.79" font-family="Times,serif" font-size="10.00" fill="#767676">^3.3.1 || ^4</text>
</g>
<!-- ext&#45;ctype -->
<g id="node19" class="node">
<title>ext&#45;ctype</title>
<path fill="#eeeeee" stroke="black" d="M1181.18,-1780.79C1181.18,-1780.79 1122.18,-1780.79 1122.18,-1780.79 1116.18,-1780.79 1110.18,-1774.79 1110.18,-1768.79 1110.18,-1768.79 1110.18,-1756.79 1110.18,-1756.79 1110.18,-1750.79 1116.18,-1744.79 1122.18,-1744.79 1122.18,-1744.79 1181.18,-1744.79 1181.18,-1744.79 1187.18,-1744.79 1193.18,-1750.79 1193.18,-1756.79 1193.18,-1756.79 1193.18,-1768.79 1193.18,-1768.79 1193.18,-1774.79 1187.18,-1780.79 1181.18,-1780.79"/>
<text text-anchor="middle" x="1151.68" y="-1759.09" font-family="Times,serif" font-size="14.00" fill="#314b5f">ext&#45;ctype</text>
</g>
<!-- doctrine/orm&#45;&gt;ext&#45;ctype -->
<g id="edge19" class="edge">
<title>doctrine/orm&#45;&gt;ext&#45;ctype</title>
<path fill="none" stroke="#1a2833" d="M538.97,-1654.81C569.63,-1676.93 625.48,-1713.48 679.68,-1729.79 827.14,-1774.16 1011.82,-1771.18 1099.68,-1766.45"/>
<polygon fill="#1a2833" stroke="#1a2833" points="1100.12,-1769.93 1109.9,-1765.87 1099.72,-1762.94 1100.12,-1769.93"/>
<text text-anchor="middle" x="825.18" y="-1770.79" font-family="Times,serif" font-size="10.00" fill="#767676">*</text>
</g>
<!-- psr/cache -->
<g id="node20" class="node">
<title>psr/cache</title>
<path fill="#eeeeee" stroke="black" d="M1204.68,-1355.79C1204.68,-1355.79 1098.68,-1355.79 1098.68,-1355.79 1092.68,-1355.79 1086.68,-1349.79 1086.68,-1343.79 1086.68,-1343.79 1086.68,-1331.79 1086.68,-1331.79 1086.68,-1325.79 1092.68,-1319.79 1098.68,-1319.79 1098.68,-1319.79 1204.68,-1319.79 1204.68,-1319.79 1210.68,-1319.79 1216.68,-1325.79 1216.68,-1331.79 1216.68,-1331.79 1216.68,-1343.79 1216.68,-1343.79 1216.68,-1349.79 1210.68,-1355.79 1204.68,-1355.79"/>
<text text-anchor="middle" x="1151.68" y="-1334.09" font-family="Times,serif" font-size="14.00" fill="#314b5f">psr/cache: 3.0.0</text>
</g>
<!-- doctrine/orm&#45;&gt;psr/cache -->
<g id="edge21" class="edge">
<title>doctrine/orm&#45;&gt;psr/cache</title>
<path fill="none" stroke="#1a2833" d="M569.47,-1618.78C601.57,-1605.24 640.06,-1583.34 661.68,-1550.79 695.16,-1500.37 635.6,-1457.28 679.68,-1415.79 726.89,-1371.35 915.44,-1428.74 970.68,-1394.79 983.92,-1386.65 975.82,-1373.54 988.68,-1364.79 1014.08,-1347.49 1046.81,-1339.97 1076.2,-1337.07"/>
<polygon fill="#1a2833" stroke="#1a2833" points="1076.76,-1340.53 1086.43,-1336.22 1076.18,-1333.56 1076.76,-1340.53"/>
<text text-anchor="middle" x="825.18" y="-1418.79" font-family="Times,serif" font-size="10.00" fill="#767676">^1 || ^2 || ^3</text>
</g>
<!-- doctrine/orm&#45;&gt;symfony/console -->
<g id="edge22" class="edge">
<title>doctrine/orm&#45;&gt;symfony/console</title>
<path fill="none" stroke="#1a2833" d="M566.99,-1618.67C598.95,-1604.88 638.2,-1582.76 661.68,-1550.79 682.73,-1522.11 653.57,-1496.96 679.68,-1472.79 775.65,-1383.91 846.87,-1471 970.68,-1428.79 979.34,-1425.84 980.04,-1421.81 988.68,-1418.79 1005.9,-1412.77 1024.64,-1408.07 1043.06,-1404.41"/>
<polygon fill="#1a2833" stroke="#1a2833" points="1043.77,-1407.84 1052.95,-1402.54 1042.47,-1400.96 1043.77,-1407.84"/>
<text text-anchor="middle" x="825.18" y="-1475.79" font-family="Times,serif" font-size="10.00" fill="#767676">^5.4 || ^6.0 || ^7.0 || ^8.0</text>
</g>
<!-- symfony/var&#45;exporter -->
<g id="node22" class="node">
<title>symfony/var&#45;exporter</title>
<path fill="#eeeeee" stroke="black" d="M1256.18,-1200.79C1256.18,-1200.79 1047.18,-1200.79 1047.18,-1200.79 1041.18,-1200.79 1035.18,-1194.79 1035.18,-1188.79 1035.18,-1188.79 1035.18,-1176.79 1035.18,-1176.79 1035.18,-1170.79 1041.18,-1164.79 1047.18,-1164.79 1047.18,-1164.79 1256.18,-1164.79 1256.18,-1164.79 1262.18,-1164.79 1268.18,-1170.79 1268.18,-1176.79 1268.18,-1176.79 1268.18,-1188.79 1268.18,-1188.79 1268.18,-1194.79 1262.18,-1200.79 1256.18,-1200.79"/>
<text text-anchor="middle" x="1151.68" y="-1179.09" font-family="Times,serif" font-size="14.00" fill="#314b5f">symfony/var&#45;exporter: v6.4.26</text>
</g>
<!-- doctrine/orm&#45;&gt;symfony/var&#45;exporter -->
<g id="edge23" class="edge">
<title>doctrine/orm&#45;&gt;symfony/var&#45;exporter</title>
<path fill="none" stroke="#1a2833" d="M570.5,-1618.67C602.57,-1605.18 640.65,-1583.38 661.68,-1550.79 682.15,-1519.05 653.52,-1409.03 679.68,-1381.79 770.23,-1287.49 878.6,-1431.61 970.68,-1338.79 1011.44,-1297.69 948.29,-1251.26 988.68,-1209.79 998.94,-1199.25 1011.65,-1191.86 1025.39,-1186.78"/>
<polygon fill="#1a2833" stroke="#1a2833" points="1026.64,-1190.06 1035.06,-1183.63 1024.47,-1183.4 1026.64,-1190.06"/>
<text text-anchor="middle" x="825.18" y="-1384.79" font-family="Times,serif" font-size="10.00" fill="#767676">^6.3.9 || ^7.0 || ^8.0</text>
</g>
<!-- psr/log&#45;&gt;php -->
<g id="edge26" class="edge">
<title>psr/log&#45;&gt;php</title>
<path fill="none" stroke="#1a2833" d="M1207.63,-1010.75C1258.07,-1014.68 1331.2,-1011.28 1373.68,-967.79 1414.91,-925.56 1418.3,-739.85 1418.03,-668.16"/>
<polygon fill="#1a2833" stroke="#1a2833" points="1421.53,-668.04 1417.96,-658.06 1414.53,-668.08 1421.53,-668.04"/>
<text text-anchor="middle" x="1353.18" y="-996.79" font-family="Times,serif" font-size="10.00" fill="#767676">&gt;=8.0.0</text>
</g>
<!-- symfony/cache&#45;&gt;php -->
<g id="edge28" class="edge">
<title>symfony/cache&#45;&gt;php</title>
<path fill="none" stroke="#1a2833" d="M602.33,-1248.86C627.2,-1253.28 654.41,-1257.41 679.68,-1259.79 749.92,-1266.39 1258.97,-1307.1 1314.68,-1263.79 1410.31,-1189.43 1417.6,-779.68 1417.8,-667.94"/>
<polygon fill="#1a2833" stroke="#1a2833" points="1421.3,-667.79 1417.8,-657.79 1414.3,-667.79 1421.3,-667.79"/>
<text text-anchor="middle" x="1151.68" y="-1285.79" font-family="Times,serif" font-size="10.00" fill="#767676">&gt;=8.1</text>
</g>
<!-- symfony/cache&#45;&gt;psr/cache -->
<g id="edge29" class="edge">
<title>symfony/cache&#45;&gt;psr/cache</title>
<path fill="none" stroke="#1a2833" d="M548.06,-1248.86C580.48,-1265.73 631.96,-1290.02 679.68,-1301.79 689.16,-1304.13 945.58,-1322.94 1076,-1332.4"/>
<polygon fill="#1a2833" stroke="#1a2833" points="1076.08,-1335.91 1086.31,-1333.15 1076.59,-1328.93 1076.08,-1335.91"/>
<text text-anchor="middle" x="825.18" y="-1326.79" font-family="Times,serif" font-size="10.00" fill="#767676">^2.0|^3.0</text>
</g>
<!-- symfony/cache&#45;&gt;symfony/var&#45;exporter -->
<g id="edge33" class="edge">
<title>symfony/cache&#45;&gt;symfony/var&#45;exporter</title>
<path fill="none" stroke="#1a2833" d="M606.54,-1228.93C698.63,-1226.46 844.78,-1220.89 970.68,-1208.79 989.14,-1207.01 1008.62,-1204.68 1027.66,-1202.15"/>
<polygon fill="#1a2833" stroke="#1a2833" points="1028.13,-1205.61 1037.57,-1200.8 1027.19,-1198.68 1028.13,-1205.61"/>
<text text-anchor="middle" x="825.18" y="-1228.79" font-family="Times,serif" font-size="10.00" fill="#767676">^6.3.6|^7.0</text>
</g>
<!-- symfony/cache&#45;&gt;psr/log -->
<g id="edge30" class="edge">
<title>symfony/cache&#45;&gt;psr/log</title>
<path fill="none" stroke="#1a2833" d="M536.9,-1212.71C566.87,-1188.94 623.59,-1148.05 679.68,-1129.79 741.36,-1109.71 920.8,-1148.26 970.68,-1106.79 994.39,-1087.08 966.46,-1061.17 988.68,-1039.79 1014.29,-1015.13 1052.79,-1005.64 1085.83,-1002.42"/>
<polygon fill="#1a2833" stroke="#1a2833" points="1086.2,-1005.91 1095.89,-1001.62 1085.64,-998.93 1086.2,-1005.91"/>
<text text-anchor="middle" x="825.18" y="-1132.79" font-family="Times,serif" font-size="10.00" fill="#767676">^1.1|^2|^3</text>
</g>
<!-- symfony/cache&#45;contracts -->
<g id="node25" class="node">
<title>symfony/cache&#45;contracts</title>
<path fill="#eeeeee" stroke="black" d="M1262.68,-1254.79C1262.68,-1254.79 1040.68,-1254.79 1040.68,-1254.79 1034.68,-1254.79 1028.68,-1248.79 1028.68,-1242.79 1028.68,-1242.79 1028.68,-1230.79 1028.68,-1230.79 1028.68,-1224.79 1034.68,-1218.79 1040.68,-1218.79 1040.68,-1218.79 1262.68,-1218.79 1262.68,-1218.79 1268.68,-1218.79 1274.68,-1224.79 1274.68,-1230.79 1274.68,-1230.79 1274.68,-1242.79 1274.68,-1242.79 1274.68,-1248.79 1268.68,-1254.79 1262.68,-1254.79"/>
<text text-anchor="middle" x="1151.68" y="-1233.09" font-family="Times,serif" font-size="14.00" fill="#314b5f">symfony/cache&#45;contracts: v3.6.0</text>
</g>
<!-- symfony/cache&#45;&gt;symfony/cache&#45;contracts -->
<g id="edge31" class="edge">
<title>symfony/cache&#45;&gt;symfony/cache&#45;contracts</title>
<path fill="none" stroke="#1a2833" d="M606.47,-1238.64C630.28,-1240.36 655.92,-1241.92 679.68,-1242.79 794.01,-1246.95 924.04,-1244.77 1018.47,-1241.94"/>
<polygon fill="#1a2833" stroke="#1a2833" points="1018.76,-1245.43 1028.65,-1241.63 1018.55,-1238.44 1018.76,-1245.43"/>
<text text-anchor="middle" x="825.18" y="-1247.79" font-family="Times,serif" font-size="10.00" fill="#767676">^2.5|^3</text>
</g>
<!-- symfony/service&#45;contracts -->
<g id="node26" class="node">
<title>symfony/service&#45;contracts</title>
<path fill="#eeeeee" stroke="black" d="M1268.18,-809.79C1268.18,-809.79 1035.18,-809.79 1035.18,-809.79 1029.18,-809.79 1023.18,-803.79 1023.18,-797.79 1023.18,-797.79 1023.18,-785.79 1023.18,-785.79 1023.18,-779.79 1029.18,-773.79 1035.18,-773.79 1035.18,-773.79 1268.18,-773.79 1268.18,-773.79 1274.18,-773.79 1280.18,-779.79 1280.18,-785.79 1280.18,-785.79 1280.18,-797.79 1280.18,-797.79 1280.18,-803.79 1274.18,-809.79 1268.18,-809.79"/>
<text text-anchor="middle" x="1151.68" y="-788.09" font-family="Times,serif" font-size="14.00" fill="#314b5f">symfony/service&#45;contracts: v3.6.1</text>
</g>
<!-- symfony/cache&#45;&gt;symfony/service&#45;contracts -->
<g id="edge32" class="edge">
<title>symfony/cache&#45;&gt;symfony/service&#45;contracts</title>
<path fill="none" stroke="#1a2833" d="M530.75,-1212.46C557.68,-1182.13 616.18,-1122.06 679.68,-1093.79 799.05,-1040.64 881.39,-1147.2 970.68,-1051.79 1006.16,-1013.87 953.61,-857.09 988.68,-818.79 995.9,-810.9 1004.48,-804.74 1013.88,-799.98"/>
<polygon fill="#1a2833" stroke="#1a2833" points="1015.42,-803.12 1023.11,-795.83 1012.55,-796.74 1015.42,-803.12"/>
<text text-anchor="middle" x="825.18" y="-1096.79" font-family="Times,serif" font-size="10.00" fill="#767676">^2.5|^3</text>
</g>
<!-- symfony/config&#45;&gt;php -->
<g id="edge35" class="edge">
<title>symfony/config&#45;&gt;php</title>
<path fill="none" stroke="#1a2833" d="M607.47,-561.38C627.51,-557.1 647.06,-549.06 661.68,-534.79 689.62,-507.51 649.57,-473.66 679.68,-448.79 692.15,-438.49 1312.42,-442.43 1314.68,-443.79 1375.75,-480.69 1402.41,-567.12 1412.45,-611.86"/>
<polygon fill="#1a2833" stroke="#1a2833" points="1409.05,-612.71 1414.55,-621.77 1415.9,-611.26 1409.05,-612.71"/>
<text text-anchor="middle" x="1151.68" y="-446.79" font-family="Times,serif" font-size="10.00" fill="#767676">&gt;=8.1</text>
</g>
<!-- symfony/deprecation&#45;contracts -->
<g id="node28" class="node">
<title>symfony/deprecation&#45;contracts</title>
<path fill="#eeeeee" stroke="black" d="M1284.68,-755.79C1284.68,-755.79 1018.68,-755.79 1018.68,-755.79 1012.68,-755.79 1006.68,-749.79 1006.68,-743.79 1006.68,-743.79 1006.68,-731.79 1006.68,-731.79 1006.68,-725.79 1012.68,-719.79 1018.68,-719.79 1018.68,-719.79 1284.68,-719.79 1284.68,-719.79 1290.68,-719.79 1296.68,-725.79 1296.68,-731.79 1296.68,-731.79 1296.68,-743.79 1296.68,-743.79 1296.68,-749.79 1290.68,-755.79 1284.68,-755.79"/>
<text text-anchor="middle" x="1151.68" y="-734.09" font-family="Times,serif" font-size="14.00" fill="#314b5f">symfony/deprecation&#45;contracts: v3.6.0</text>
</g>
<!-- symfony/config&#45;&gt;symfony/deprecation&#45;contracts -->
<g id="edge36" class="edge">
<title>symfony/config&#45;&gt;symfony/deprecation&#45;contracts</title>
<path fill="none" stroke="#1a2833" d="M607.23,-554.43C724.84,-547.16 919.37,-543.02 970.68,-589.79 1009.23,-624.93 952.55,-668.15 988.68,-705.79 991.69,-708.93 994.92,-711.81 998.32,-714.45"/>
<polygon fill="#1a2833" stroke="#1a2833" points="996.36,-717.35 1006.57,-720.19 1000.36,-711.6 996.36,-717.35"/>
<text text-anchor="middle" x="825.18" y="-592.79" font-family="Times,serif" font-size="10.00" fill="#767676">^2.5|^3</text>
</g>
<!-- symfony/filesystem -->
<g id="node29" class="node">
<title>symfony/filesystem</title>
<path fill="#eeeeee" stroke="black" d="M1247.68,-553.79C1247.68,-553.79 1055.68,-553.79 1055.68,-553.79 1049.68,-553.79 1043.68,-547.79 1043.68,-541.79 1043.68,-541.79 1043.68,-529.79 1043.68,-529.79 1043.68,-523.79 1049.68,-517.79 1055.68,-517.79 1055.68,-517.79 1247.68,-517.79 1247.68,-517.79 1253.68,-517.79 1259.68,-523.79 1259.68,-529.79 1259.68,-529.79 1259.68,-541.79 1259.68,-541.79 1259.68,-547.79 1253.68,-553.79 1247.68,-553.79"/>
<text text-anchor="middle" x="1151.68" y="-532.09" font-family="Times,serif" font-size="14.00" fill="#314b5f">symfony/filesystem: v6.4.30</text>
</g>
<!-- symfony/config&#45;&gt;symfony/filesystem -->
<g id="edge37" class="edge">
<title>symfony/config&#45;&gt;symfony/filesystem</title>
<path fill="none" stroke="#1a2833" d="M607.43,-546.81C625.52,-543.31 644.27,-539.27 661.68,-534.79 669.84,-532.69 671.35,-530.14 679.68,-528.79 807.34,-508.07 841.37,-526.28 970.68,-528.79 990.96,-529.18 1012.53,-529.83 1033.42,-530.57"/>
<polygon fill="#1a2833" stroke="#1a2833" points="1033.5,-534.07 1043.62,-530.94 1033.75,-527.08 1033.5,-534.07"/>
<text text-anchor="middle" x="825.18" y="-531.79" font-family="Times,serif" font-size="10.00" fill="#767676">^5.4|^6.0|^7.0</text>
</g>
<!-- symfony/polyfill&#45;ctype -->
<g id="node30" class="node">
<title>symfony/polyfill&#45;ctype</title>
<path fill="#eeeeee" stroke="black" d="M1257.18,-499.79C1257.18,-499.79 1046.18,-499.79 1046.18,-499.79 1040.18,-499.79 1034.18,-493.79 1034.18,-487.79 1034.18,-487.79 1034.18,-475.79 1034.18,-475.79 1034.18,-469.79 1040.18,-463.79 1046.18,-463.79 1046.18,-463.79 1257.18,-463.79 1257.18,-463.79 1263.18,-463.79 1269.18,-469.79 1269.18,-475.79 1269.18,-475.79 1269.18,-487.79 1269.18,-487.79 1269.18,-493.79 1263.18,-499.79 1257.18,-499.79"/>
<text text-anchor="middle" x="1151.68" y="-478.09" font-family="Times,serif" font-size="14.00" fill="#314b5f">symfony/polyfill&#45;ctype: v1.33.0</text>
</g>
<!-- symfony/config&#45;&gt;symfony/polyfill&#45;ctype -->
<g id="edge38" class="edge">
<title>symfony/config&#45;&gt;symfony/polyfill&#45;ctype</title>
<path fill="none" stroke="#1a2833" d="M607.54,-557.13C626.68,-552.9 645.82,-545.96 661.68,-534.79 674.7,-525.62 666.06,-512.06 679.68,-503.79 796.03,-433.14 959.96,-444.99 1060.56,-461.97"/>
<polygon fill="#1a2833" stroke="#1a2833" points="1060.24,-465.47 1070.7,-463.74 1061.44,-458.57 1060.24,-465.47"/>
<text text-anchor="middle" x="825.18" y="-506.79" font-family="Times,serif" font-size="10.00" fill="#767676">~1.8</text>
</g>
<!-- symfony/dependency&#45;injection&#45;&gt;php -->
<g id="edge41" class="edge">
<title>symfony/dependency&#45;injection&#45;&gt;php</title>
<path fill="none" stroke="#1a2833" d="M581.87,-678.77C611.57,-671.64 647.12,-664.31 679.68,-660.79 808.26,-646.88 841.78,-650.12 970.68,-660.79 978.76,-661.46 980.59,-663.12 988.68,-663.79 1133.07,-675.74 1170.74,-680.34 1314.68,-663.79 1337.2,-661.2 1361.96,-655.52 1381.55,-650.34"/>
<polygon fill="#1a2833" stroke="#1a2833" points="1382.56,-653.7 1391.29,-647.7 1380.73,-646.94 1382.56,-653.7"/>
<text text-anchor="middle" x="1151.68" y="-676.79" font-family="Times,serif" font-size="10.00" fill="#767676">&gt;=8.1</text>
</g>
<!-- symfony/dependency&#45;injection&#45;&gt;symfony/var&#45;exporter -->
<g id="edge45" class="edge">
<title>symfony/dependency&#45;injection&#45;&gt;symfony/var&#45;exporter</title>
<path fill="none" stroke="#1a2833" d="M548.9,-714.8C584.05,-735.62 637.32,-773.45 661.68,-822.79 677.34,-854.52 654.85,-1115.57 679.68,-1140.79 702.42,-1163.89 938.4,-1158.74 970.68,-1161.79 988.25,-1163.45 1006.77,-1165.39 1024.97,-1167.41"/>
<polygon fill="#1a2833" stroke="#1a2833" points="1024.72,-1170.9 1035.04,-1168.54 1025.5,-1163.94 1024.72,-1170.9"/>
<text text-anchor="middle" x="825.18" y="-1164.79" font-family="Times,serif" font-size="10.00" fill="#767676">^6.4.20|^7.2.5</text>
</g>
<!-- symfony/dependency&#45;injection&#45;&gt;symfony/service&#45;contracts -->
<g id="edge44" class="edge">
<title>symfony/dependency&#45;injection&#45;&gt;symfony/service&#45;contracts</title>
<path fill="none" stroke="#1a2833" d="M552.74,-714.88C585.45,-729.72 634.58,-749.86 679.68,-759.79 740.92,-773.28 897.27,-782.08 1013.12,-786.97"/>
<polygon fill="#1a2833" stroke="#1a2833" points="1013.01,-790.47 1023.14,-787.39 1013.3,-783.47 1013.01,-790.47"/>
<text text-anchor="middle" x="825.18" y="-787.79" font-family="Times,serif" font-size="10.00" fill="#767676">^2.5|^3.0</text>
</g>
<!-- symfony/dependency&#45;injection&#45;&gt;symfony/deprecation&#45;contracts -->
<g id="edge43" class="edge">
<title>symfony/dependency&#45;injection&#45;&gt;symfony/deprecation&#45;contracts</title>
<path fill="none" stroke="#1a2833" d="M661.79,-699.32C751.17,-701.68 867.66,-706.19 970.68,-714.79 983.43,-715.85 996.68,-717.16 1009.93,-718.61"/>
<polygon fill="#1a2833" stroke="#1a2833" points="1009.74,-722.11 1020.06,-719.74 1010.51,-715.15 1009.74,-722.11"/>
<text text-anchor="middle" x="825.18" y="-717.79" font-family="Times,serif" font-size="10.00" fill="#767676">^2.5|^3</text>
</g>
<!-- psr/container -->
<g id="node32" class="node">
<title>psr/container</title>
<path fill="#eeeeee" stroke="black" d="M1218.18,-654.79C1218.18,-654.79 1085.18,-654.79 1085.18,-654.79 1079.18,-654.79 1073.18,-648.79 1073.18,-642.79 1073.18,-642.79 1073.18,-630.79 1073.18,-630.79 1073.18,-624.79 1079.18,-618.79 1085.18,-618.79 1085.18,-618.79 1218.18,-618.79 1218.18,-618.79 1224.18,-618.79 1230.18,-624.79 1230.18,-630.79 1230.18,-630.79 1230.18,-642.79 1230.18,-642.79 1230.18,-648.79 1224.18,-654.79 1218.18,-654.79"/>
<text text-anchor="middle" x="1151.68" y="-633.09" font-family="Times,serif" font-size="14.00" fill="#314b5f">psr/container: 2.0.2</text>
</g>
<!-- symfony/dependency&#45;injection&#45;&gt;psr/container -->
<g id="edge42" class="edge">
<title>symfony/dependency&#45;injection&#45;&gt;psr/container</title>
<path fill="none" stroke="#1a2833" d="M586.17,-678.69C611.38,-670.24 639.09,-658.5 661.68,-642.79 671.77,-635.77 668.51,-626.93 679.68,-621.79 745.49,-591.52 945.63,-610.31 1062.77,-624.76"/>
<polygon fill="#1a2833" stroke="#1a2833" points="1062.44,-628.25 1072.79,-626.02 1063.3,-621.3 1062.44,-628.25"/>
<text text-anchor="middle" x="825.18" y="-624.79" font-family="Times,serif" font-size="10.00" fill="#767676">^1.1|^2.0</text>
</g>
<!-- symfony/event&#45;dispatcher&#45;&gt;php -->
<g id="edge47" class="edge">
<title>symfony/event&#45;dispatcher&#45;&gt;php</title>
<path fill="none" stroke="#1a2833" d="M632.66,-489.67C643.05,-485.19 652.93,-479.65 661.68,-472.79 675.44,-461.99 664.91,-447.16 679.68,-437.79 798.82,-362.14 1176.57,-397.71 1314.68,-426.79 1342.72,-432.69 1355.36,-430.75 1373.68,-452.79 1411.75,-498.61 1418.12,-571.53 1418.48,-611.42"/>
<polygon fill="#1a2833" stroke="#1a2833" points="1414.98,-611.51 1418.45,-621.52 1421.98,-611.53 1414.98,-611.51"/>
<text text-anchor="middle" x="1151.68" y="-429.79" font-family="Times,serif" font-size="10.00" fill="#767676">&gt;=8.1</text>
</g>
<!-- symfony/event&#45;dispatcher&#45;contracts -->
<g id="node34" class="node">
<title>symfony/event&#45;dispatcher&#45;contracts</title>
<path fill="#eeeeee" stroke="black" d="M1302.68,-351.79C1302.68,-351.79 1000.68,-351.79 1000.68,-351.79 994.68,-351.79 988.68,-345.79 988.68,-339.79 988.68,-339.79 988.68,-327.79 988.68,-327.79 988.68,-321.79 994.68,-315.79 1000.68,-315.79 1000.68,-315.79 1302.68,-315.79 1302.68,-315.79 1308.68,-315.79 1314.68,-321.79 1314.68,-327.79 1314.68,-327.79 1314.68,-339.79 1314.68,-339.79 1314.68,-345.79 1308.68,-351.79 1302.68,-351.79"/>
<text text-anchor="middle" x="1151.68" y="-330.09" font-family="Times,serif" font-size="14.00" fill="#314b5f">symfony/event&#45;dispatcher&#45;contracts: v3.6.0</text>
</g>
<!-- symfony/event&#45;dispatcher&#45;&gt;symfony/event&#45;dispatcher&#45;contracts -->
<g id="edge48" class="edge">
<title>symfony/event&#45;dispatcher&#45;&gt;symfony/event&#45;dispatcher&#45;contracts</title>
<path fill="none" stroke="#1a2833" d="M644.56,-489.67C650.81,-485.77 656.58,-481.18 661.68,-475.79 696.6,-438.82 642.02,-396.97 679.68,-362.79 722.63,-323.79 862.2,-319.07 978.35,-322.63"/>
<polygon fill="#1a2833" stroke="#1a2833" points="978.33,-326.13 988.44,-322.96 978.56,-319.14 978.33,-326.13"/>
<text text-anchor="middle" x="825.18" y="-365.79" font-family="Times,serif" font-size="10.00" fill="#767676">^2.5|^3</text>
</g>
<!-- symfony/finder&#45;&gt;php -->
<g id="edge50" class="edge">
<title>symfony/finder&#45;&gt;php</title>
<path fill="none" stroke="#1a2833" d="M917.86,-283.07C1039.76,-273.07 1247.61,-262.08 1314.68,-295.79 1353.51,-315.31 1356.52,-333.85 1373.68,-373.79 1408.62,-455.13 1415.95,-561.46 1417.39,-611.47"/>
<polygon fill="#1a2833" stroke="#1a2833" points="1413.89,-611.62 1417.62,-621.53 1420.89,-611.45 1413.89,-611.62"/>
<text text-anchor="middle" x="1151.68" y="-298.79" font-family="Times,serif" font-size="10.00" fill="#767676">&gt;=8.1</text>
</g>
<!-- symfony/http&#45;client&#45;&gt;php -->
<g id="edge52" class="edge">
<title>symfony/http&#45;client&#45;&gt;php</title>
<path fill="none" stroke="#1a2833" d="M570.19,-867.8C601.88,-877.51 642.65,-888.89 679.68,-895.79 807.41,-919.6 841.85,-906.88 970.68,-923.79 978.72,-924.84 980.59,-926.12 988.68,-926.79 1060.87,-932.76 1255.43,-968.48 1314.68,-926.79 1400.27,-866.57 1415.09,-728.2 1417.4,-668.3"/>
<polygon fill="#1a2833" stroke="#1a2833" points="1420.91,-668.16 1417.7,-658.06 1413.91,-667.96 1420.91,-668.16"/>
<text text-anchor="middle" x="1151.68" y="-948.79" font-family="Times,serif" font-size="10.00" fill="#767676">&gt;=8.1</text>
</g>
<!-- symfony/http&#45;client&#45;&gt;psr/log -->
<g id="edge53" class="edge">
<title>symfony/http&#45;client&#45;&gt;psr/log</title>
<path fill="none" stroke="#1a2833" d="M548.07,-867.83C580.49,-884.68 631.97,-908.96 679.68,-920.79 742.64,-936.41 914.15,-911.96 970.68,-943.79 982.61,-950.51 977.2,-961.32 988.68,-968.79 1017.37,-987.46 1054.43,-996.11 1085.86,-1000.03"/>
<polygon fill="#1a2833" stroke="#1a2833" points="1085.53,-1003.52 1095.85,-1001.15 1086.3,-996.56 1085.53,-1003.52"/>
<text text-anchor="middle" x="825.18" y="-946.79" font-family="Times,serif" font-size="10.00" fill="#767676">^1|^2|^3</text>
</g>
<!-- symfony/http&#45;client&#45;&gt;symfony/service&#45;contracts -->
<g id="edge57" class="edge">
<title>symfony/http&#45;client&#45;&gt;symfony/service&#45;contracts</title>
<path fill="none" stroke="#1a2833" d="M623.53,-837.55C642.25,-835.55 661.52,-833.55 679.68,-831.79 791.78,-820.9 919.06,-810.19 1013.02,-802.59"/>
<polygon fill="#1a2833" stroke="#1a2833" points="1013.47,-806.07 1023.16,-801.78 1012.91,-799.09 1013.47,-806.07"/>
<text text-anchor="middle" x="825.18" y="-834.79" font-family="Times,serif" font-size="10.00" fill="#767676">^2.5|^3</text>
</g>
<!-- symfony/http&#45;client&#45;&gt;symfony/deprecation&#45;contracts -->
<g id="edge54" class="edge">
<title>symfony/http&#45;client&#45;&gt;symfony/deprecation&#45;contracts</title>
<path fill="none" stroke="#1a2833" d="M535.67,-831.69C565.12,-807.01 622.19,-763.9 679.68,-746.79 736.89,-729.76 881.99,-729.23 996.15,-731.91"/>
<polygon fill="#1a2833" stroke="#1a2833" points="996.31,-735.42 1006.4,-732.16 996.49,-728.42 996.31,-735.42"/>
<text text-anchor="middle" x="825.18" y="-749.79" font-family="Times,serif" font-size="10.00" fill="#767676">^2.5|^3</text>
</g>
<!-- symfony/http&#45;client&#45;contracts -->
<g id="node37" class="node">
<title>symfony/http&#45;client&#45;contracts</title>
<path fill="#eeeeee" stroke="black" d="M1279.68,-917.79C1279.68,-917.79 1023.68,-917.79 1023.68,-917.79 1017.68,-917.79 1011.68,-911.79 1011.68,-905.79 1011.68,-905.79 1011.68,-893.79 1011.68,-893.79 1011.68,-887.79 1017.68,-881.79 1023.68,-881.79 1023.68,-881.79 1279.68,-881.79 1279.68,-881.79 1285.68,-881.79 1291.68,-887.79 1291.68,-893.79 1291.68,-893.79 1291.68,-905.79 1291.68,-905.79 1291.68,-911.79 1285.68,-917.79 1279.68,-917.79"/>
<text text-anchor="middle" x="1151.68" y="-896.09" font-family="Times,serif" font-size="14.00" fill="#314b5f">symfony/http&#45;client&#45;contracts: v3.6.0</text>
</g>
<!-- symfony/http&#45;client&#45;&gt;symfony/http&#45;client&#45;contracts -->
<g id="edge55" class="edge">
<title>symfony/http&#45;client&#45;&gt;symfony/http&#45;client&#45;contracts</title>
<path fill="none" stroke="#1a2833" d="M623.33,-857.9C715.63,-864.87 851.89,-875.28 970.68,-884.79 980.74,-885.6 991.13,-886.44 1001.59,-887.29"/>
<polygon fill="#1a2833" stroke="#1a2833" points="1001.38,-890.78 1011.63,-888.11 1001.95,-883.81 1001.38,-890.78"/>
<text text-anchor="middle" x="825.18" y="-887.79" font-family="Times,serif" font-size="10.00" fill="#767676">~3.4.4|^3.5.2</text>
</g>
<!-- symfony/polyfill&#45;php83 -->
<g id="node38" class="node">
<title>symfony/polyfill&#45;php83</title>
<path fill="#eeeeee" stroke="black" d="M1260.18,-863.79C1260.18,-863.79 1043.18,-863.79 1043.18,-863.79 1037.18,-863.79 1031.18,-857.79 1031.18,-851.79 1031.18,-851.79 1031.18,-839.79 1031.18,-839.79 1031.18,-833.79 1037.18,-827.79 1043.18,-827.79 1043.18,-827.79 1260.18,-827.79 1260.18,-827.79 1266.18,-827.79 1272.18,-833.79 1272.18,-839.79 1272.18,-839.79 1272.18,-851.79 1272.18,-851.79 1272.18,-857.79 1266.18,-863.79 1260.18,-863.79"/>
<text text-anchor="middle" x="1151.68" y="-842.09" font-family="Times,serif" font-size="14.00" fill="#314b5f">symfony/polyfill&#45;php83: v1.33.0</text>
</g>
<!-- symfony/http&#45;client&#45;&gt;symfony/polyfill&#45;php83 -->
<g id="edge56" class="edge">
<title>symfony/http&#45;client&#45;&gt;symfony/polyfill&#45;php83</title>
<path fill="none" stroke="#1a2833" d="M623.34,-849.11C733.34,-848.42 903.82,-847.34 1021,-846.61"/>
<polygon fill="#1a2833" stroke="#1a2833" points="1021.13,-850.1 1031.11,-846.54 1021.08,-843.1 1021.13,-850.1"/>
<text text-anchor="middle" x="825.18" y="-850.79" font-family="Times,serif" font-size="10.00" fill="#767676">^1.29</text>
</g>
<!-- symfony/messenger&#45;&gt;php -->
<g id="edge59" class="edge">
<title>symfony/messenger&#45;&gt;php</title>
<path fill="none" stroke="#1a2833" d="M624.91,-1053.45C846,-1059.57 1327.91,-1066.11 1373.68,-1008.79 1415.5,-956.41 1418.42,-745.97 1418.03,-668.56"/>
<polygon fill="#1a2833" stroke="#1a2833" points="1421.53,-668.11 1417.96,-658.13 1414.53,-668.16 1421.53,-668.11"/>
<text text-anchor="middle" x="1151.68" y="-1058.79" font-family="Times,serif" font-size="10.00" fill="#767676">&gt;=8.1</text>
</g>
<!-- symfony/messenger&#45;&gt;psr/log -->
<g id="edge60" class="edge">
<title>symfony/messenger&#45;&gt;psr/log</title>
<path fill="none" stroke="#1a2833" d="M624.89,-1041.01C643.18,-1039.58 661.96,-1038.13 679.68,-1036.79 824.71,-1025.82 994.93,-1013.73 1085.77,-1007.33"/>
<polygon fill="#1a2833" stroke="#1a2833" points="1086.19,-1010.81 1095.92,-1006.62 1085.69,-1003.83 1086.19,-1010.81"/>
<text text-anchor="middle" x="825.18" y="-1039.79" font-family="Times,serif" font-size="10.00" fill="#767676">^1|^2|^3</text>
</g>
<!-- symfony/messenger&#45;&gt;symfony/deprecation&#45;contracts -->
<g id="edge62" class="edge">
<title>symfony/messenger&#45;&gt;symfony/deprecation&#45;contracts</title>
<path fill="none" stroke="#1a2833" d="M624.73,-1032.78C637.56,-1028.79 650.17,-1023.87 661.68,-1017.79 671.41,-1012.65 669.8,-1005.64 679.68,-1000.79 797.19,-943.03 881.02,-1050.22 970.68,-954.79 999.72,-923.88 959.77,-795.82 988.68,-764.79 991.68,-761.56 994.92,-758.63 998.34,-755.96"/>
<polygon fill="#1a2833" stroke="#1a2833" points="1000.42,-758.78 1006.66,-750.21 996.44,-753.02 1000.42,-758.78"/>
<text text-anchor="middle" x="825.18" y="-1003.79" font-family="Times,serif" font-size="10.00" fill="#767676">^2.5|^3</text>
</g>
<!-- symfony/clock -->
<g id="node40" class="node">
<title>symfony/clock</title>
<path fill="#eeeeee" stroke="black" d="M1229.18,-1146.79C1229.18,-1146.79 1074.18,-1146.79 1074.18,-1146.79 1068.18,-1146.79 1062.18,-1140.79 1062.18,-1134.79 1062.18,-1134.79 1062.18,-1122.79 1062.18,-1122.79 1062.18,-1116.79 1068.18,-1110.79 1074.18,-1110.79 1074.18,-1110.79 1229.18,-1110.79 1229.18,-1110.79 1235.18,-1110.79 1241.18,-1116.79 1241.18,-1122.79 1241.18,-1122.79 1241.18,-1134.79 1241.18,-1134.79 1241.18,-1140.79 1235.18,-1146.79 1229.18,-1146.79"/>
<text text-anchor="middle" x="1151.68" y="-1125.09" font-family="Times,serif" font-size="14.00" fill="#314b5f">symfony/clock: v6.4.30</text>
</g>
<!-- symfony/messenger&#45;&gt;symfony/clock -->
<g id="edge61" class="edge">
<title>symfony/messenger&#45;&gt;symfony/clock</title>
<path fill="none" stroke="#1a2833" d="M531.17,-1067.94C558.26,-1097.16 616.45,-1153.49 679.68,-1174.79 740.96,-1195.43 911.27,-1200.34 970.68,-1174.79 981.36,-1170.19 978.41,-1161.25 988.68,-1155.79 1008,-1145.51 1030.29,-1138.97 1052.04,-1134.85"/>
<polygon fill="#1a2833" stroke="#1a2833" points="1052.73,-1138.28 1061.99,-1133.12 1051.53,-1131.39 1052.73,-1138.28"/>
<text text-anchor="middle" x="825.18" y="-1194.79" font-family="Times,serif" font-size="10.00" fill="#767676">^6.3|^7.0</text>
</g>
<!-- symfony/polyfill&#45;php84&#45;&gt;php -->
<g id="edge64" class="edge">
<title>symfony/polyfill&#45;php84&#45;&gt;php</title>
<path fill="none" stroke="#1a2833" d="M945.92,-230.29C1047.05,-220.16 1194.23,-216.45 1314.68,-257.79 1345.62,-268.41 1357.15,-273.56 1373.68,-301.79 1404.39,-354.25 1414.15,-540.21 1416.8,-611.6"/>
<polygon fill="#1a2833" stroke="#1a2833" points="1413.3,-611.78 1417.15,-621.65 1420.3,-611.53 1413.3,-611.78"/>
<text text-anchor="middle" x="1151.68" y="-260.79" font-family="Times,serif" font-size="10.00" fill="#767676">&gt;=7.2</text>
</g>
<!-- symfony/process&#45;&gt;php -->
<g id="edge66" class="edge">
<title>symfony/process&#45;&gt;php</title>
<path fill="none" stroke="#1a2833" d="M924.49,-182.78C1025.92,-168.59 1186.88,-158.46 1314.68,-207.79 1347.28,-220.38 1357.48,-228.82 1373.68,-259.79 1405.65,-320.93 1414.71,-533.15 1416.98,-610.93"/>
<polygon fill="#1a2833" stroke="#1a2833" points="1413.5,-611.5 1417.27,-621.4 1420.5,-611.3 1413.5,-611.5"/>
<text text-anchor="middle" x="1151.68" y="-210.79" font-family="Times,serif" font-size="10.00" fill="#767676">&gt;=8.1</text>
</g>
<!-- symfony/requirements&#45;checker&#45;&gt;php -->
<g id="edge68" class="edge">
<title>symfony/requirements&#45;checker&#45;&gt;php</title>
<path fill="none" stroke="#1a2833" d="M921.51,-129.78C1022.97,-115.01 1186.26,-104 1314.68,-155.79 1347.92,-169.2 1357.72,-178.69 1373.68,-210.79 1408.88,-281.6 1415.94,-527.65 1417.34,-611.53"/>
<polygon fill="#1a2833" stroke="#1a2833" points="1413.84,-611.65 1417.49,-621.59 1420.84,-611.54 1413.84,-611.65"/>
<text text-anchor="middle" x="1151.68" y="-158.79" font-family="Times,serif" font-size="10.00" fill="#767676">&gt;=5.3.9</text>
</g>
<!-- symfony/stopwatch&#45;&gt;php -->
<g id="edge70" class="edge">
<title>symfony/stopwatch&#45;&gt;php</title>
<path fill="none" stroke="#1a2833" d="M623.05,-605.44C641.91,-603.97 661.35,-602.66 679.68,-601.79 961.59,-588.44 1037.5,-545.65 1314.68,-598.79 1338.07,-603.27 1362.91,-613 1382.34,-621.86"/>
<polygon fill="#1a2833" stroke="#1a2833" points="1380.87,-625.04 1391.41,-626.11 1383.84,-618.7 1380.87,-625.04"/>
<text text-anchor="middle" x="1151.68" y="-601.79" font-family="Times,serif" font-size="10.00" fill="#767676">&gt;=8.1</text>
</g>
<!-- symfony/stopwatch&#45;&gt;symfony/service&#45;contracts -->
<g id="edge71" class="edge">
<title>symfony/stopwatch&#45;&gt;symfony/service&#45;contracts</title>
<path fill="none" stroke="#1a2833" d="M622.91,-630.59C755.57,-649.03 964.3,-678.85 970.68,-684.79 997.34,-709.63 962.19,-739.75 988.68,-764.79 996.06,-771.77 1004.52,-777.33 1013.62,-781.73"/>
<polygon fill="#1a2833" stroke="#1a2833" points="1012.36,-784.99 1022.92,-785.75 1015.14,-778.57 1012.36,-784.99"/>
<text text-anchor="middle" x="825.18" y="-687.79" font-family="Times,serif" font-size="10.00" fill="#767676">^2.5|^3</text>
</g>
<!-- bamarni/composer&#45;bin&#45;plugin&#45;&gt;php -->
<g id="edge74" class="edge">
<title>bamarni/composer&#45;bin&#45;plugin&#45;&gt;php</title>
<path fill="none" stroke="#1a2833" d="M649.81,-285.11C654.07,-282.08 658.05,-278.66 661.68,-274.79 708.77,-224.48 629.63,-168.16 679.68,-120.79 705.31,-96.53 1282.01,-88.42 1314.68,-101.79 1348.71,-115.72 1357.92,-126.56 1373.68,-159.79 1412,-240.63 1417,-521.25 1417.61,-611.56"/>
<polygon fill="#1a2833" stroke="#1a2833" points="1414.11,-611.62 1417.66,-621.6 1421.11,-611.58 1414.11,-611.62"/>
<text text-anchor="middle" x="1151.68" y="-104.79" font-family="Times,serif" font-size="10.00" fill="#767676">^7.2.5 || ^8.0</text>
</g>
<!-- composer&#45;plugin&#45;api -->
<g id="node46" class="node">
<title>composer&#45;plugin&#45;api</title>
<path fill="#eeeeee" stroke="black" d="M1220.18,-62.79C1220.18,-62.79 1083.18,-62.79 1083.18,-62.79 1077.18,-62.79 1071.18,-56.79 1071.18,-50.79 1071.18,-50.79 1071.18,-38.79 1071.18,-38.79 1071.18,-32.79 1077.18,-26.79 1083.18,-26.79 1083.18,-26.79 1220.18,-26.79 1220.18,-26.79 1226.18,-26.79 1232.18,-32.79 1232.18,-38.79 1232.18,-38.79 1232.18,-50.79 1232.18,-50.79 1232.18,-56.79 1226.18,-62.79 1220.18,-62.79"/>
<text text-anchor="middle" x="1151.68" y="-41.09" font-family="Times,serif" font-size="14.00" fill="#314b5f">composer&#45;plugin&#45;api</text>
</g>
<!-- bamarni/composer&#45;bin&#45;plugin&#45;&gt;composer&#45;plugin&#45;api -->
<g id="edge73" class="edge">
<title>bamarni/composer&#45;bin&#45;plugin&#45;&gt;composer&#45;plugin&#45;api</title>
<path fill="none" stroke="#1a2833" d="M649.94,-285.23C654.17,-282.17 658.11,-278.71 661.68,-274.79 691.88,-241.64 647.53,-105.06 679.68,-73.79 785.96,29.58 977.36,1.29 1080.41,-24.17"/>
<polygon fill="#1a2833" stroke="#1a2833" points="1079.85,-27.64 1090.41,-26.7 1081.57,-20.85 1079.85,-27.64"/>
<text text-anchor="middle" x="825.18" y="-76.79" font-family="Times,serif" font-size="10.00" fill="#767676">^2.0</text>
</g>
</g>
</svg>
