<?xml version="1.0" encoding="UTF-8" standalone="no"?>
<!DOCTYPE svg PUBLIC "-//W3C//DTD SVG 1.1//EN"
 "http://www.w3.org/Graphics/SVG/1.1/DTD/svg11.dtd">
<!-- Generated by graphviz version 2.43.0 (0)
 -->
<!-- Title: %3 Pages: 1 -->
<svg width="1709pt" height="2051pt"
 viewBox="0.00 0.00 1708.68 2051.41" xmlns="http://www.w3.org/2000/svg" xmlns:xlink="http://www.w3.org/1999/xlink">
<g id="graph0" class="graph" transform="scale(1 1) rotate(0) translate(4 2047.41)">
<title>%3</title>
<polygon fill="white" stroke="transparent" points="-4,4 -4,-2047.41 1704.68,-2047.41 1704.68,4 -4,4"/>
<!-- bartlett/php&#45;compatinfo&#45;db -->
<g id="node1" class="node">
<title>bartlett/php&#45;compatinfo&#45;db</title>
<ellipse fill="lightgrey" stroke="black" stroke-width="2" cx="135.84" cy="-1143.41" rx="135.68" ry="18"/>
<text text-anchor="middle" x="135.84" y="-1139.71" font-family="Times,serif" font-size="14.00">bartlett/php&#45;compatinfo&#45;db</text>
</g>
<!-- php -->
<g id="node2" class="node">
<title>php</title>
<path fill="#eeeeee" stroke="black" d="M1552.68,-836.41C1552.68,-836.41 1522.68,-836.41 1522.68,-836.41 1516.68,-836.41 1510.68,-830.41 1510.68,-824.41 1510.68,-824.41 1510.68,-812.41 1510.68,-812.41 1510.68,-806.41 1516.68,-800.41 1522.68,-800.41 1522.68,-800.41 1552.68,-800.41 1552.68,-800.41 1558.68,-800.41 1564.68,-806.41 1564.68,-812.41 1564.68,-812.41 1564.68,-824.41 1564.68,-824.41 1564.68,-830.41 1558.68,-836.41 1552.68,-836.41"/>
<text text-anchor="middle" x="1537.68" y="-814.71" font-family="Times,serif" font-size="14.00" fill="#314b5f">php</text>
</g>
<!-- bartlett/php&#45;compatinfo&#45;db&#45;&gt;php -->
<g id="edge1" class="edge">
<title>bartlett/php&#45;compatinfo&#45;db&#45;&gt;php</title>
<path fill="none" stroke="#1a2833" d="M145.54,-1125.18C165.61,-1084.87 218.88,-987.27 289.68,-930.41 318.71,-907.1 331.41,-909.36 366.68,-897.41 493.48,-854.47 525.91,-840.63 658.68,-823.41 982.97,-781.36 1380.31,-806.28 1500.54,-815.45"/>
<polygon fill="#1a2833" stroke="#1a2833" points="1500.42,-818.95 1510.66,-816.24 1500.96,-811.98 1500.42,-818.95"/>
<text text-anchor="middle" x="804.18" y="-826.41" font-family="Times,serif" font-size="10.00" fill="#767676">^8.1</text>
</g>
<!-- ext&#45;json -->
<g id="node3" class="node">
<title>ext&#45;json</title>
<path fill="#eeeeee" stroke="black" d="M528.18,-1962.41C528.18,-1962.41 479.18,-1962.41 479.18,-1962.41 473.18,-1962.41 467.18,-1956.41 467.18,-1950.41 467.18,-1950.41 467.18,-1938.41 467.18,-1938.41 467.18,-1932.41 473.18,-1926.41 479.18,-1926.41 479.18,-1926.41 528.18,-1926.41 528.18,-1926.41 534.18,-1926.41 540.18,-1932.41 540.18,-1938.41 540.18,-1938.41 540.18,-1950.41 540.18,-1950.41 540.18,-1956.41 534.18,-1962.41 528.18,-1962.41"/>
<text text-anchor="middle" x="503.68" y="-1940.71" font-family="Times,serif" font-size="14.00" fill="#314b5f">ext&#45;json</text>
</g>
<!-- bartlett/php&#45;compatinfo&#45;db&#45;&gt;ext&#45;json -->
<g id="edge2" class="edge">
<title>bartlett/php&#45;compatinfo&#45;db&#45;&gt;ext&#45;json</title>
<path fill="none" stroke="#1a2833" d="M138.2,-1161.71C146.22,-1264.98 190.45,-1774.44 289.68,-1889.41 330.91,-1937.19 407.66,-1946.2 456.9,-1946.59"/>
<polygon fill="#1a2833" stroke="#1a2833" points="456.97,-1950.09 466.96,-1946.55 456.95,-1943.09 456.97,-1950.09"/>
<text text-anchor="middle" x="319.18" y="-1930.41" font-family="Times,serif" font-size="10.00" fill="#767676">*</text>
</g>
<!-- ext&#45;pcre -->
<g id="node4" class="node">
<title>ext&#45;pcre</title>
<path fill="#eeeeee" stroke="black" d="M529.18,-1908.41C529.18,-1908.41 478.18,-1908.41 478.18,-1908.41 472.18,-1908.41 466.18,-1902.41 466.18,-1896.41 466.18,-1896.41 466.18,-1884.41 466.18,-1884.41 466.18,-1878.41 472.18,-1872.41 478.18,-1872.41 478.18,-1872.41 529.18,-1872.41 529.18,-1872.41 535.18,-1872.41 541.18,-1878.41 541.18,-1884.41 541.18,-1884.41 541.18,-1896.41 541.18,-1896.41 541.18,-1902.41 535.18,-1908.41 529.18,-1908.41"/>
<text text-anchor="middle" x="503.68" y="-1886.71" font-family="Times,serif" font-size="14.00" fill="#314b5f">ext&#45;pcre</text>
</g>
<!-- bartlett/php&#45;compatinfo&#45;db&#45;&gt;ext&#45;pcre -->
<g id="edge3" class="edge">
<title>bartlett/php&#45;compatinfo&#45;db&#45;&gt;ext&#45;pcre</title>
<path fill="none" stroke="#1a2833" d="M138.43,-1161.43C147.48,-1259.9 195.37,-1732.24 289.68,-1837.41 331.36,-1883.9 406.94,-1892.59 455.95,-1892.83"/>
<polygon fill="#1a2833" stroke="#1a2833" points="456,-1896.33 465.98,-1892.76 455.96,-1889.33 456,-1896.33"/>
<text text-anchor="middle" x="319.18" y="-1877.41" font-family="Times,serif" font-size="10.00" fill="#767676">*</text>
</g>
<!-- ext&#45;pdo -->
<g id="node5" class="node">
<title>ext&#45;pdo</title>
<path fill="#eeeeee" stroke="black" d="M526.68,-1854.41C526.68,-1854.41 480.68,-1854.41 480.68,-1854.41 474.68,-1854.41 468.68,-1848.41 468.68,-1842.41 468.68,-1842.41 468.68,-1830.41 468.68,-1830.41 468.68,-1824.41 474.68,-1818.41 480.68,-1818.41 480.68,-1818.41 526.68,-1818.41 526.68,-1818.41 532.68,-1818.41 538.68,-1824.41 538.68,-1830.41 538.68,-1830.41 538.68,-1842.41 538.68,-1842.41 538.68,-1848.41 532.68,-1854.41 526.68,-1854.41"/>
<text text-anchor="middle" x="503.68" y="-1832.71" font-family="Times,serif" font-size="14.00" fill="#314b5f">ext&#45;pdo</text>
</g>
<!-- bartlett/php&#45;compatinfo&#45;db&#45;&gt;ext&#45;pdo -->
<g id="edge4" class="edge">
<title>bartlett/php&#45;compatinfo&#45;db&#45;&gt;ext&#45;pdo</title>
<path fill="none" stroke="#1a2833" d="M138.73,-1161.71C148.91,-1256.53 199.95,-1691.43 289.68,-1786.41 332.93,-1832.2 409.53,-1839.65 458.12,-1839.22"/>
<polygon fill="#1a2833" stroke="#1a2833" points="458.41,-1842.71 468.34,-1839 458.26,-1835.71 458.41,-1842.71"/>
<text text-anchor="middle" x="319.18" y="-1825.41" font-family="Times,serif" font-size="10.00" fill="#767676">*</text>
</g>
<!-- ext&#45;phar -->
<g id="node6" class="node">
<title>ext&#45;phar</title>
<path fill="#eeeeee" stroke="black" d="M530.18,-1800.41C530.18,-1800.41 477.18,-1800.41 477.18,-1800.41 471.18,-1800.41 465.18,-1794.41 465.18,-1788.41 465.18,-1788.41 465.18,-1776.41 465.18,-1776.41 465.18,-1770.41 471.18,-1764.41 477.18,-1764.41 477.18,-1764.41 530.18,-1764.41 530.18,-1764.41 536.18,-1764.41 542.18,-1770.41 542.18,-1776.41 542.18,-1776.41 542.18,-1788.41 542.18,-1788.41 542.18,-1794.41 536.18,-1800.41 530.18,-1800.41"/>
<text text-anchor="middle" x="503.68" y="-1778.71" font-family="Times,serif" font-size="14.00" fill="#314b5f">ext&#45;phar</text>
</g>
<!-- bartlett/php&#45;compatinfo&#45;db&#45;&gt;ext&#45;phar -->
<g id="edge5" class="edge">
<title>bartlett/php&#45;compatinfo&#45;db&#45;&gt;ext&#45;phar</title>
<path fill="none" stroke="#1a2833" d="M138.94,-1161.7C149.75,-1252.72 202.09,-1655.78 289.68,-1739.41 333.65,-1781.4 406.68,-1787.57 454.75,-1786.37"/>
<polygon fill="#1a2833" stroke="#1a2833" points="455.04,-1789.86 464.91,-1786 454.79,-1782.87 455.04,-1789.86"/>
<text text-anchor="middle" x="319.18" y="-1774.41" font-family="Times,serif" font-size="10.00" fill="#767676">*</text>
</g>
<!-- ext&#45;spl -->
<g id="node7" class="node">
<title>ext&#45;spl</title>
<path fill="#eeeeee" stroke="black" d="M524.18,-1746.41C524.18,-1746.41 483.18,-1746.41 483.18,-1746.41 477.18,-1746.41 471.18,-1740.41 471.18,-1734.41 471.18,-1734.41 471.18,-1722.41 471.18,-1722.41 471.18,-1716.41 477.18,-1710.41 483.18,-1710.41 483.18,-1710.41 524.18,-1710.41 524.18,-1710.41 530.18,-1710.41 536.18,-1716.41 536.18,-1722.41 536.18,-1722.41 536.18,-1734.41 536.18,-1734.41 536.18,-1740.41 530.18,-1746.41 524.18,-1746.41"/>
<text text-anchor="middle" x="503.68" y="-1724.71" font-family="Times,serif" font-size="14.00" fill="#314b5f">ext&#45;spl</text>
</g>
<!-- bartlett/php&#45;compatinfo&#45;db&#45;&gt;ext&#45;spl -->
<g id="edge6" class="edge">
<title>bartlett/php&#45;compatinfo&#45;db&#45;&gt;ext&#45;spl</title>
<path fill="none" stroke="#1a2833" d="M139.22,-1161.59C151.01,-1248.53 205.83,-1620.8 289.68,-1695.41 336.46,-1737.04 413.09,-1738.35 460.56,-1734.26"/>
<polygon fill="#1a2833" stroke="#1a2833" points="461.2,-1737.71 470.81,-1733.25 460.51,-1730.75 461.2,-1737.71"/>
<text text-anchor="middle" x="319.18" y="-1727.41" font-family="Times,serif" font-size="10.00" fill="#767676">*</text>
</g>
<!-- composer&#45;runtime&#45;api -->
<g id="node8" class="node">
<title>composer&#45;runtime&#45;api</title>
<path fill="#eeeeee" stroke="black" d="M1189.68,-1065.41C1189.68,-1065.41 1040.68,-1065.41 1040.68,-1065.41 1034.68,-1065.41 1028.68,-1059.41 1028.68,-1053.41 1028.68,-1053.41 1028.68,-1041.41 1028.68,-1041.41 1028.68,-1035.41 1034.68,-1029.41 1040.68,-1029.41 1040.68,-1029.41 1189.68,-1029.41 1189.68,-1029.41 1195.68,-1029.41 1201.68,-1035.41 1201.68,-1041.41 1201.68,-1041.41 1201.68,-1053.41 1201.68,-1053.41 1201.68,-1059.41 1195.68,-1065.41 1189.68,-1065.41"/>
<text text-anchor="middle" x="1115.18" y="-1043.71" font-family="Times,serif" font-size="14.00" fill="#314b5f">composer&#45;runtime&#45;api</text>
</g>
<!-- bartlett/php&#45;compatinfo&#45;db&#45;&gt;composer&#45;runtime&#45;api -->
<g id="edge7" class="edge">
<title>bartlett/php&#45;compatinfo&#45;db&#45;&gt;composer&#45;runtime&#45;api</title>
<path fill="none" stroke="#1a2833" d="M223.86,-1129.67C327.26,-1113.82 505.12,-1088.07 658.68,-1073.41 782.56,-1061.59 925.94,-1054.48 1018.24,-1050.76"/>
<polygon fill="#1a2833" stroke="#1a2833" points="1018.54,-1054.25 1028.4,-1050.36 1018.27,-1047.26 1018.54,-1054.25"/>
<text text-anchor="middle" x="503.68" y="-1112.41" font-family="Times,serif" font-size="10.00" fill="#767676">^2.0</text>
</g>
<!-- composer/semver -->
<g id="node9" class="node">
<title>composer/semver</title>
<path fill="#eeeeee" stroke="black" d="M886.18,-71.41C886.18,-71.41 722.18,-71.41 722.18,-71.41 716.18,-71.41 710.18,-65.41 710.18,-59.41 710.18,-59.41 710.18,-47.41 710.18,-47.41 710.18,-41.41 716.18,-35.41 722.18,-35.41 722.18,-35.41 886.18,-35.41 886.18,-35.41 892.18,-35.41 898.18,-41.41 898.18,-47.41 898.18,-47.41 898.18,-59.41 898.18,-59.41 898.18,-65.41 892.18,-71.41 886.18,-71.41"/>
<text text-anchor="middle" x="804.18" y="-49.71" font-family="Times,serif" font-size="14.00" fill="#314b5f">composer/semver: 3.4.3</text>
</g>
<!-- bartlett/php&#45;compatinfo&#45;db&#45;&gt;composer/semver -->
<g id="edge9" class="edge">
<title>bartlett/php&#45;compatinfo&#45;db&#45;&gt;composer/semver</title>
<path fill="none" stroke="#1a2833" d="M136.68,-1125.2C135.97,-999.62 138.37,-262.63 289.68,-115.41 399.43,-8.63 590.82,-16.6 706.38,-33.82"/>
<polygon fill="#1a2833" stroke="#1a2833" points="705.87,-37.29 716.29,-35.35 706.94,-30.37 705.87,-37.29"/>
<text text-anchor="middle" x="319.18" y="-118.41" font-family="Times,serif" font-size="10.00" fill="#767676">^3.0</text>
</g>
<!-- doctrine/orm -->
<g id="node10" class="node">
<title>doctrine/orm</title>
<path fill="#eeeeee" stroke="black" d="M568.68,-1537.41C568.68,-1537.41 438.68,-1537.41 438.68,-1537.41 432.68,-1537.41 426.68,-1531.41 426.68,-1525.41 426.68,-1525.41 426.68,-1513.41 426.68,-1513.41 426.68,-1507.41 432.68,-1501.41 438.68,-1501.41 438.68,-1501.41 568.68,-1501.41 568.68,-1501.41 574.68,-1501.41 580.68,-1507.41 580.68,-1513.41 580.68,-1513.41 580.68,-1525.41 580.68,-1525.41 580.68,-1531.41 574.68,-1537.41 568.68,-1537.41"/>
<text text-anchor="middle" x="503.68" y="-1515.71" font-family="Times,serif" font-size="14.00" fill="#314b5f">doctrine/orm: 3.3.2</text>
</g>
<!-- bartlett/php&#45;compatinfo&#45;db&#45;&gt;doctrine/orm -->
<g id="edge24" class="edge">
<title>bartlett/php&#45;compatinfo&#45;db&#45;&gt;doctrine/orm</title>
<path fill="none" stroke="#1a2833" d="M154.48,-1161.55C214.11,-1222.83 408.26,-1422.37 477.7,-1493.74"/>
<polygon fill="#1a2833" stroke="#1a2833" points="475.3,-1496.29 484.78,-1501.02 480.31,-1491.41 475.3,-1496.29"/>
<text text-anchor="middle" x="319.18" y="-1356.41" font-family="Times,serif" font-size="10.00" fill="#767676">^3.3</text>
</g>
<!-- doctrine/dbal -->
<g id="node12" class="node">
<title>doctrine/dbal</title>
<path fill="#eeeeee" stroke="black" d="M1181.18,-1328.41C1181.18,-1328.41 1049.18,-1328.41 1049.18,-1328.41 1043.18,-1328.41 1037.18,-1322.41 1037.18,-1316.41 1037.18,-1316.41 1037.18,-1304.41 1037.18,-1304.41 1037.18,-1298.41 1043.18,-1292.41 1049.18,-1292.41 1049.18,-1292.41 1181.18,-1292.41 1181.18,-1292.41 1187.18,-1292.41 1193.18,-1298.41 1193.18,-1304.41 1193.18,-1304.41 1193.18,-1316.41 1193.18,-1316.41 1193.18,-1322.41 1187.18,-1328.41 1181.18,-1328.41"/>
<text text-anchor="middle" x="1115.18" y="-1306.71" font-family="Times,serif" font-size="14.00" fill="#314b5f">doctrine/dbal: 4.2.3</text>
</g>
<!-- bartlett/php&#45;compatinfo&#45;db&#45;&gt;doctrine/dbal -->
<g id="edge25" class="edge">
<title>bartlett/php&#45;compatinfo&#45;db&#45;&gt;doctrine/dbal</title>
<path fill="none" stroke="#1a2833" d="M201.47,-1159.32C247.39,-1170.3 310.6,-1184.79 366.68,-1195.41 487.72,-1218.35 518.91,-1218.69 640.68,-1237.41 775.52,-1258.14 931.95,-1282.28 1026.95,-1296.94"/>
<polygon fill="#1a2833" stroke="#1a2833" points="1026.67,-1300.44 1037.09,-1298.51 1027.74,-1293.52 1026.67,-1300.44"/>
<text text-anchor="middle" x="503.68" y="-1240.41" font-family="Times,serif" font-size="10.00" fill="#767676">^4.0</text>
</g>
<!-- symfony/console -->
<g id="node21" class="node">
<title>symfony/console</title>
<path fill="#eeeeee" stroke="black" d="M1201.68,-1908.41C1201.68,-1908.41 1028.68,-1908.41 1028.68,-1908.41 1022.68,-1908.41 1016.68,-1902.41 1016.68,-1896.41 1016.68,-1896.41 1016.68,-1884.41 1016.68,-1884.41 1016.68,-1878.41 1022.68,-1872.41 1028.68,-1872.41 1028.68,-1872.41 1201.68,-1872.41 1201.68,-1872.41 1207.68,-1872.41 1213.68,-1878.41 1213.68,-1884.41 1213.68,-1884.41 1213.68,-1896.41 1213.68,-1896.41 1213.68,-1902.41 1207.68,-1908.41 1201.68,-1908.41"/>
<text text-anchor="middle" x="1115.18" y="-1886.71" font-family="Times,serif" font-size="14.00" fill="#314b5f">symfony/console: v6.4.20</text>
</g>
<!-- bartlett/php&#45;compatinfo&#45;db&#45;&gt;symfony/console -->
<g id="edge38" class="edge">
<title>bartlett/php&#45;compatinfo&#45;db&#45;&gt;symfony/console</title>
<path fill="none" stroke="#1a2833" d="M142.21,-1161.6C161.62,-1224.3 234.11,-1433.75 366.68,-1546.41 465.69,-1630.56 560.75,-1545.96 640.68,-1648.41 662.96,-1676.97 632.88,-1784.99 658.68,-1810.41 704.95,-1856.01 888.47,-1816.63 949.68,-1838.41 958.73,-1841.64 958.93,-1846.43 967.68,-1850.41 984.18,-1857.93 1002.38,-1864.29 1020.19,-1869.58"/>
<polygon fill="#1a2833" stroke="#1a2833" points="1019.45,-1873.01 1030.03,-1872.41 1021.38,-1866.28 1019.45,-1873.01"/>
<text text-anchor="middle" x="503.68" y="-1651.41" font-family="Times,serif" font-size="10.00" fill="#767676">^6.4 || ^7.0</text>
</g>
<!-- symfony/cache -->
<g id="node23" class="node">
<title>symfony/cache</title>
<path fill="#eeeeee" stroke="black" d="M1195.18,-1274.41C1195.18,-1274.41 1035.18,-1274.41 1035.18,-1274.41 1029.18,-1274.41 1023.18,-1268.41 1023.18,-1262.41 1023.18,-1262.41 1023.18,-1250.41 1023.18,-1250.41 1023.18,-1244.41 1029.18,-1238.41 1035.18,-1238.41 1035.18,-1238.41 1195.18,-1238.41 1195.18,-1238.41 1201.18,-1238.41 1207.18,-1244.41 1207.18,-1250.41 1207.18,-1250.41 1207.18,-1262.41 1207.18,-1262.41 1207.18,-1268.41 1201.18,-1274.41 1195.18,-1274.41"/>
<text text-anchor="middle" x="1115.18" y="-1252.71" font-family="Times,serif" font-size="14.00" fill="#314b5f">symfony/cache: v6.4.20</text>
</g>
<!-- bartlett/php&#45;compatinfo&#45;db&#45;&gt;symfony/cache -->
<g id="edge32" class="edge">
<title>bartlett/php&#45;compatinfo&#45;db&#45;&gt;symfony/cache</title>
<path fill="none" stroke="#1a2833" d="M164.05,-1161.21C205.66,-1187.26 288.53,-1234.6 366.68,-1252.41 592.8,-1303.95 867.49,-1285.48 1012.75,-1269.63"/>
<polygon fill="#1a2833" stroke="#1a2833" points="1013.43,-1273.08 1022.98,-1268.5 1012.65,-1266.12 1013.43,-1273.08"/>
<text text-anchor="middle" x="503.68" y="-1287.41" font-family="Times,serif" font-size="10.00" fill="#767676">^6.4 || ^7.0</text>
</g>
<!-- psr/log -->
<g id="node24" class="node">
<title>psr/log</title>
<path fill="#eeeeee" stroke="black" d="M1581.18,-1945.41C1581.18,-1945.41 1494.18,-1945.41 1494.18,-1945.41 1488.18,-1945.41 1482.18,-1939.41 1482.18,-1933.41 1482.18,-1933.41 1482.18,-1921.41 1482.18,-1921.41 1482.18,-1915.41 1488.18,-1909.41 1494.18,-1909.41 1494.18,-1909.41 1581.18,-1909.41 1581.18,-1909.41 1587.18,-1909.41 1593.18,-1915.41 1593.18,-1921.41 1593.18,-1921.41 1593.18,-1933.41 1593.18,-1933.41 1593.18,-1939.41 1587.18,-1945.41 1581.18,-1945.41"/>
<text text-anchor="middle" x="1537.68" y="-1923.71" font-family="Times,serif" font-size="14.00" fill="#314b5f">psr/log: 3.0.2</text>
</g>
<!-- bartlett/php&#45;compatinfo&#45;db&#45;&gt;psr/log -->
<g id="edge70" class="edge">
<title>bartlett/php&#45;compatinfo&#45;db&#45;&gt;psr/log</title>
<path fill="none" stroke="#1a2833" stroke-dasharray="5,2" d="M137.94,-1161.56C144.8,-1268.67 184.73,-1817.77 289.68,-1942.41 441.59,-2122.85 1238.24,-1985.27 1472.08,-1940.31"/>
<polygon fill="#1a2833" stroke="#1a2833" points="1472.98,-1943.7 1482.14,-1938.37 1471.65,-1936.83 1472.98,-1943.7"/>
<text text-anchor="middle" x="804.18" y="-2035.41" font-family="Times,serif" font-size="10.00" fill="#767676">^3.0</text>
</g>
<!-- symfony/config -->
<g id="node27" class="node">
<title>symfony/config</title>
<path fill="#eeeeee" stroke="black" d="M1196.18,-158.41C1196.18,-158.41 1034.18,-158.41 1034.18,-158.41 1028.18,-158.41 1022.18,-152.41 1022.18,-146.41 1022.18,-146.41 1022.18,-134.41 1022.18,-134.41 1022.18,-128.41 1028.18,-122.41 1034.18,-122.41 1034.18,-122.41 1196.18,-122.41 1196.18,-122.41 1202.18,-122.41 1208.18,-128.41 1208.18,-134.41 1208.18,-134.41 1208.18,-146.41 1208.18,-146.41 1208.18,-152.41 1202.18,-158.41 1196.18,-158.41"/>
<text text-anchor="middle" x="1115.18" y="-136.71" font-family="Times,serif" font-size="14.00" fill="#314b5f">symfony/config: v6.4.14</text>
</g>
<!-- bartlett/php&#45;compatinfo&#45;db&#45;&gt;symfony/config -->
<g id="edge37" class="edge">
<title>bartlett/php&#45;compatinfo&#45;db&#45;&gt;symfony/config</title>
<path fill="none" stroke="#1a2833" d="M137.64,-1125.11C143.04,-1009.26 177.36,-377.96 289.68,-228.41 374.21,-115.86 810.79,-123.92 1012.18,-133.99"/>
<polygon fill="#1a2833" stroke="#1a2833" points="1012.01,-137.49 1022.18,-134.51 1012.37,-130.5 1012.01,-137.49"/>
<text text-anchor="middle" x="503.68" y="-180.41" font-family="Times,serif" font-size="10.00" fill="#767676">^6.4 || ^7.0</text>
</g>
<!-- symfony/dependency&#45;injection -->
<g id="node31" class="node">
<title>symfony/dependency&#45;injection</title>
<path fill="#eeeeee" stroke="black" d="M1250.68,-1011.41C1250.68,-1011.41 979.68,-1011.41 979.68,-1011.41 973.68,-1011.41 967.68,-1005.41 967.68,-999.41 967.68,-999.41 967.68,-987.41 967.68,-987.41 967.68,-981.41 973.68,-975.41 979.68,-975.41 979.68,-975.41 1250.68,-975.41 1250.68,-975.41 1256.68,-975.41 1262.68,-981.41 1262.68,-987.41 1262.68,-987.41 1262.68,-999.41 1262.68,-999.41 1262.68,-1005.41 1256.68,-1011.41 1250.68,-1011.41"/>
<text text-anchor="middle" x="1115.18" y="-989.71" font-family="Times,serif" font-size="14.00" fill="#314b5f">symfony/dependency&#45;injection: v6.4.20</text>
</g>
<!-- bartlett/php&#45;compatinfo&#45;db&#45;&gt;symfony/dependency&#45;injection -->
<g id="edge44" class="edge">
<title>bartlett/php&#45;compatinfo&#45;db&#45;&gt;symfony/dependency&#45;injection</title>
<path fill="none" stroke="#1a2833" d="M177.65,-1126.28C223.06,-1107.83 298.97,-1078.79 366.68,-1061.41 566.1,-1010.25 804.09,-996.34 957.08,-993.18"/>
<polygon fill="#1a2833" stroke="#1a2833" points="957.56,-996.68 967.49,-992.98 957.42,-989.68 957.56,-996.68"/>
<text text-anchor="middle" x="503.68" y="-1064.41" font-family="Times,serif" font-size="10.00" fill="#767676">^6.4 || ^7.0</text>
</g>
<!-- symfony/event&#45;dispatcher -->
<g id="node33" class="node">
<title>symfony/event&#45;dispatcher</title>
<path fill="#eeeeee" stroke="black" d="M1234.68,-306.41C1234.68,-306.41 995.68,-306.41 995.68,-306.41 989.68,-306.41 983.68,-300.41 983.68,-294.41 983.68,-294.41 983.68,-282.41 983.68,-282.41 983.68,-276.41 989.68,-270.41 995.68,-270.41 995.68,-270.41 1234.68,-270.41 1234.68,-270.41 1240.68,-270.41 1246.68,-276.41 1246.68,-282.41 1246.68,-282.41 1246.68,-294.41 1246.68,-294.41 1246.68,-300.41 1240.68,-306.41 1234.68,-306.41"/>
<text text-anchor="middle" x="1115.18" y="-284.71" font-family="Times,serif" font-size="14.00" fill="#314b5f">symfony/event&#45;dispatcher: v6.4.13</text>
</g>
<!-- bartlett/php&#45;compatinfo&#45;db&#45;&gt;symfony/event&#45;dispatcher -->
<g id="edge47" class="edge">
<title>bartlett/php&#45;compatinfo&#45;db&#45;&gt;symfony/event&#45;dispatcher</title>
<path fill="none" stroke="#1a2833" d="M138.63,-1125.3C147.41,-1045.78 192.85,-723.72 366.68,-547.41 482.08,-430.36 505.15,-379.16 658.68,-320.41 758.94,-282.05 880.59,-275.32 972.95,-277.49"/>
<polygon fill="#1a2833" stroke="#1a2833" points="973.11,-280.99 983.21,-277.77 973.31,-274 973.11,-280.99"/>
<text text-anchor="middle" x="503.68" y="-550.41" font-family="Times,serif" font-size="10.00" fill="#767676">^6.4 || ^7.0</text>
</g>
<!-- symfony/finder -->
<g id="node35" class="node">
<title>symfony/finder</title>
<path fill="#eeeeee" stroke="black" d="M1195.68,-731.41C1195.68,-731.41 1034.68,-731.41 1034.68,-731.41 1028.68,-731.41 1022.68,-725.41 1022.68,-719.41 1022.68,-719.41 1022.68,-707.41 1022.68,-707.41 1022.68,-701.41 1028.68,-695.41 1034.68,-695.41 1034.68,-695.41 1195.68,-695.41 1195.68,-695.41 1201.68,-695.41 1207.68,-701.41 1207.68,-707.41 1207.68,-707.41 1207.68,-719.41 1207.68,-719.41 1207.68,-725.41 1201.68,-731.41 1195.68,-731.41"/>
<text text-anchor="middle" x="1115.18" y="-709.71" font-family="Times,serif" font-size="14.00" fill="#314b5f">symfony/finder: v6.4.17</text>
</g>
<!-- bartlett/php&#45;compatinfo&#45;db&#45;&gt;symfony/finder -->
<g id="edge49" class="edge">
<title>bartlett/php&#45;compatinfo&#45;db&#45;&gt;symfony/finder</title>
<path fill="none" stroke="#1a2833" d="M139.38,-1125.3C148.53,-1066.5 185.01,-878.57 289.68,-772.41 315.82,-745.9 330.34,-747.53 366.68,-739.41 486.5,-712.64 837.19,-711.23 1012.28,-712.33"/>
<polygon fill="#1a2833" stroke="#1a2833" points="1012.51,-715.83 1022.53,-712.4 1012.56,-708.83 1012.51,-715.83"/>
<text text-anchor="middle" x="503.68" y="-742.41" font-family="Times,serif" font-size="10.00" fill="#767676">^6.4 || ^7.0</text>
</g>
<!-- symfony/http&#45;client -->
<g id="node36" class="node">
<title>symfony/http&#45;client</title>
<path fill="#eeeeee" stroke="black" d="M1212.18,-1220.41C1212.18,-1220.41 1018.18,-1220.41 1018.18,-1220.41 1012.18,-1220.41 1006.18,-1214.41 1006.18,-1208.41 1006.18,-1208.41 1006.18,-1196.41 1006.18,-1196.41 1006.18,-1190.41 1012.18,-1184.41 1018.18,-1184.41 1018.18,-1184.41 1212.18,-1184.41 1212.18,-1184.41 1218.18,-1184.41 1224.18,-1190.41 1224.18,-1196.41 1224.18,-1196.41 1224.18,-1208.41 1224.18,-1208.41 1224.18,-1214.41 1218.18,-1220.41 1212.18,-1220.41"/>
<text text-anchor="middle" x="1115.18" y="-1198.71" font-family="Times,serif" font-size="14.00" fill="#314b5f">symfony/http&#45;client: v6.4.19</text>
</g>
<!-- bartlett/php&#45;compatinfo&#45;db&#45;&gt;symfony/http&#45;client -->
<g id="edge55" class="edge">
<title>bartlett/php&#45;compatinfo&#45;db&#45;&gt;symfony/http&#45;client</title>
<path fill="none" stroke="#1a2833" d="M243.26,-1154.47C258.82,-1155.91 274.65,-1157.28 289.68,-1158.41 540.74,-1177.42 835.42,-1191.06 995.67,-1197.75"/>
<polygon fill="#1a2833" stroke="#1a2833" points="995.9,-1201.26 1006.03,-1198.18 996.19,-1194.27 995.9,-1201.26"/>
<text text-anchor="middle" x="503.68" y="-1183.41" font-family="Times,serif" font-size="10.00" fill="#767676">^6.4 || ^7.0</text>
</g>
<!-- symfony/messenger -->
<g id="node38" class="node">
<title>symfony/messenger</title>
<path fill="#eeeeee" stroke="black" d="M1213.68,-1962.41C1213.68,-1962.41 1016.68,-1962.41 1016.68,-1962.41 1010.68,-1962.41 1004.68,-1956.41 1004.68,-1950.41 1004.68,-1950.41 1004.68,-1938.41 1004.68,-1938.41 1004.68,-1932.41 1010.68,-1926.41 1016.68,-1926.41 1016.68,-1926.41 1213.68,-1926.41 1213.68,-1926.41 1219.68,-1926.41 1225.68,-1932.41 1225.68,-1938.41 1225.68,-1938.41 1225.68,-1950.41 1225.68,-1950.41 1225.68,-1956.41 1219.68,-1962.41 1213.68,-1962.41"/>
<text text-anchor="middle" x="1115.18" y="-1940.71" font-family="Times,serif" font-size="14.00" fill="#314b5f">symfony/messenger: v6.4.19</text>
</g>
<!-- bartlett/php&#45;compatinfo&#45;db&#45;&gt;symfony/messenger -->
<g id="edge60" class="edge">
<title>bartlett/php&#45;compatinfo&#45;db&#45;&gt;symfony/messenger</title>
<path fill="none" stroke="#1a2833" d="M138.42,-1161.49C146.16,-1237.83 187.36,-1535.52 366.68,-1659.41 417.09,-1694.25 597.11,-1647.32 640.68,-1690.41 686.84,-1736.08 615.98,-1786.48 658.68,-1835.41 752.09,-1942.47 829.04,-1886.29 967.68,-1917.41 978.41,-1919.82 989.62,-1922.18 1000.86,-1924.43"/>
<polygon fill="#1a2833" stroke="#1a2833" points="1000.24,-1927.87 1010.72,-1926.38 1001.59,-1921.01 1000.24,-1927.87"/>
<text text-anchor="middle" x="503.68" y="-1693.41" font-family="Times,serif" font-size="10.00" fill="#767676">^6.4 || ^7.0</text>
</g>
<!-- symfony/polyfill&#45;php84 -->
<g id="node40" class="node">
<title>symfony/polyfill&#45;php84</title>
<path fill="#eeeeee" stroke="black" d="M912.68,-776.41C912.68,-776.41 695.68,-776.41 695.68,-776.41 689.68,-776.41 683.68,-770.41 683.68,-764.41 683.68,-764.41 683.68,-752.41 683.68,-752.41 683.68,-746.41 689.68,-740.41 695.68,-740.41 695.68,-740.41 912.68,-740.41 912.68,-740.41 918.68,-740.41 924.68,-746.41 924.68,-752.41 924.68,-752.41 924.68,-764.41 924.68,-764.41 924.68,-770.41 918.68,-776.41 912.68,-776.41"/>
<text text-anchor="middle" x="804.18" y="-754.71" font-family="Times,serif" font-size="14.00" fill="#314b5f">symfony/polyfill&#45;php84: v1.31.0</text>
</g>
<!-- bartlett/php&#45;compatinfo&#45;db&#45;&gt;symfony/polyfill&#45;php84 -->
<g id="edge62" class="edge">
<title>bartlett/php&#45;compatinfo&#45;db&#45;&gt;symfony/polyfill&#45;php84</title>
<path fill="none" stroke="#1a2833" d="M138.61,-1125.2C145.42,-1066.32 175.54,-880.24 289.68,-799.41 349.25,-757.23 541.65,-752.17 673.26,-754.05"/>
<polygon fill="#1a2833" stroke="#1a2833" points="673.36,-757.55 683.42,-754.21 673.47,-750.55 673.36,-757.55"/>
<text text-anchor="middle" x="319.18" y="-802.41" font-family="Times,serif" font-size="10.00" fill="#767676">^1.0</text>
</g>
<!-- symfony/process -->
<g id="node41" class="node">
<title>symfony/process</title>
<path fill="#eeeeee" stroke="black" d="M891.18,-985.41C891.18,-985.41 717.18,-985.41 717.18,-985.41 711.18,-985.41 705.18,-979.41 705.18,-973.41 705.18,-973.41 705.18,-961.41 705.18,-961.41 705.18,-955.41 711.18,-949.41 717.18,-949.41 717.18,-949.41 891.18,-949.41 891.18,-949.41 897.18,-949.41 903.18,-955.41 903.18,-961.41 903.18,-961.41 903.18,-973.41 903.18,-973.41 903.18,-979.41 897.18,-985.41 891.18,-985.41"/>
<text text-anchor="middle" x="804.18" y="-963.71" font-family="Times,serif" font-size="14.00" fill="#314b5f">symfony/process: v6.4.20</text>
</g>
<!-- bartlett/php&#45;compatinfo&#45;db&#45;&gt;symfony/process -->
<g id="edge64" class="edge">
<title>bartlett/php&#45;compatinfo&#45;db&#45;&gt;symfony/process</title>
<path fill="none" stroke="#1a2833" d="M147.49,-1125.39C169.14,-1090.72 222.03,-1015.5 289.68,-985.41 359.51,-954.35 565.93,-956.81 694.8,-961.83"/>
<polygon fill="#1a2833" stroke="#1a2833" points="694.96,-965.34 705.09,-962.24 695.24,-958.34 694.96,-965.34"/>
<text text-anchor="middle" x="319.18" y="-988.41" font-family="Times,serif" font-size="10.00" fill="#767676">^6.4 || ^7.0</text>
</g>
<!-- symfony/requirements&#45;checker -->
<g id="node42" class="node">
<title>symfony/requirements&#45;checker</title>
<path fill="#eeeeee" stroke="black" d="M937.68,-944.41C937.68,-944.41 670.68,-944.41 670.68,-944.41 664.68,-944.41 658.68,-938.41 658.68,-932.41 658.68,-932.41 658.68,-920.41 658.68,-920.41 658.68,-914.41 664.68,-908.41 670.68,-908.41 670.68,-908.41 937.68,-908.41 937.68,-908.41 943.68,-908.41 949.68,-914.41 949.68,-920.41 949.68,-920.41 949.68,-932.41 949.68,-932.41 949.68,-938.41 943.68,-944.41 937.68,-944.41"/>
<text text-anchor="middle" x="804.18" y="-922.71" font-family="Times,serif" font-size="14.00" fill="#314b5f">symfony/requirements&#45;checker: v2.0.3</text>
</g>
<!-- bartlett/php&#45;compatinfo&#45;db&#45;&gt;symfony/requirements&#45;checker -->
<g id="edge66" class="edge">
<title>bartlett/php&#45;compatinfo&#45;db&#45;&gt;symfony/requirements&#45;checker</title>
<path fill="none" stroke="#1a2833" d="M145.14,-1125.37C164.23,-1086.3 215.36,-994.35 289.68,-956.41 412.8,-893.57 574.77,-895.75 683.59,-907.3"/>
<polygon fill="#1a2833" stroke="#1a2833" points="683.3,-910.79 693.62,-908.41 684.07,-903.84 683.3,-910.79"/>
<text text-anchor="middle" x="319.18" y="-959.41" font-family="Times,serif" font-size="10.00" fill="#767676">^2.0</text>
</g>
<!-- symfony/stopwatch -->
<g id="node43" class="node">
<title>symfony/stopwatch</title>
<path fill="#eeeeee" stroke="black" d="M1211.68,-1166.41C1211.68,-1166.41 1018.68,-1166.41 1018.68,-1166.41 1012.68,-1166.41 1006.68,-1160.41 1006.68,-1154.41 1006.68,-1154.41 1006.68,-1142.41 1006.68,-1142.41 1006.68,-1136.41 1012.68,-1130.41 1018.68,-1130.41 1018.68,-1130.41 1211.68,-1130.41 1211.68,-1130.41 1217.68,-1130.41 1223.68,-1136.41 1223.68,-1142.41 1223.68,-1142.41 1223.68,-1154.41 1223.68,-1154.41 1223.68,-1160.41 1217.68,-1166.41 1211.68,-1166.41"/>
<text text-anchor="middle" x="1115.18" y="-1144.71" font-family="Times,serif" font-size="14.00" fill="#314b5f">symfony/stopwatch: v6.4.19</text>
</g>
<!-- bartlett/php&#45;compatinfo&#45;db&#45;&gt;symfony/stopwatch -->
<g id="edge69" class="edge">
<title>bartlett/php&#45;compatinfo&#45;db&#45;&gt;symfony/stopwatch</title>
<path fill="none" stroke="#1a2833" d="M271.71,-1144.1C464.05,-1145.09 814,-1146.88 996.44,-1147.81"/>
<polygon fill="#1a2833" stroke="#1a2833" points="996.58,-1151.31 1006.6,-1147.86 996.62,-1144.31 996.58,-1151.31"/>
<text text-anchor="middle" x="503.68" y="-1149.41" font-family="Times,serif" font-size="10.00" fill="#767676">^6.4 || ^7.0</text>
</g>
<!-- symfony/framework&#45;bundle -->
<g id="node44" class="node">
<title>symfony/framework&#45;bundle</title>
<path fill="#eeeeee" stroke="black" d="M628.68,-603.41C628.68,-603.41 378.68,-603.41 378.68,-603.41 372.68,-603.41 366.68,-597.41 366.68,-591.41 366.68,-591.41 366.68,-579.41 366.68,-579.41 366.68,-573.41 372.68,-567.41 378.68,-567.41 378.68,-567.41 628.68,-567.41 628.68,-567.41 634.68,-567.41 640.68,-573.41 640.68,-579.41 640.68,-579.41 640.68,-591.41 640.68,-591.41 640.68,-597.41 634.68,-603.41 628.68,-603.41"/>
<text text-anchor="middle" x="503.68" y="-581.71" font-family="Times,serif" font-size="14.00" fill="#314b5f">symfony/framework&#45;bundle: v6.4.20</text>
</g>
<!-- bartlett/php&#45;compatinfo&#45;db&#45;&gt;symfony/framework&#45;bundle -->
<g id="edge86" class="edge">
<title>bartlett/php&#45;compatinfo&#45;db&#45;&gt;symfony/framework&#45;bundle</title>
<path fill="none" stroke="#1a2833" stroke-dasharray="5,2" d="M138.44,-1125.07C145.04,-1059.72 175.4,-834.99 289.68,-700.41 327.85,-655.46 388.17,-625.23 434.9,-607.1"/>
<polygon fill="#1a2833" stroke="#1a2833" points="436.23,-610.33 444.35,-603.52 433.76,-603.79 436.23,-610.33"/>
<text text-anchor="middle" x="319.18" y="-703.41" font-family="Times,serif" font-size="10.00" fill="#767676">^6.4 || ^7.0</text>
</g>
<!-- bamarni/composer&#45;bin&#45;plugin -->
<g id="node51" class="node">
<title>bamarni/composer&#45;bin&#45;plugin</title>
<path fill="#eeeeee" stroke="black" d="M627.18,-247.41C627.18,-247.41 380.18,-247.41 380.18,-247.41 374.18,-247.41 368.18,-241.41 368.18,-235.41 368.18,-235.41 368.18,-223.41 368.18,-223.41 368.18,-217.41 374.18,-211.41 380.18,-211.41 380.18,-211.41 627.18,-211.41 627.18,-211.41 633.18,-211.41 639.18,-217.41 639.18,-223.41 639.18,-223.41 639.18,-235.41 639.18,-235.41 639.18,-241.41 633.18,-247.41 627.18,-247.41"/>
<text text-anchor="middle" x="503.68" y="-225.71" font-family="Times,serif" font-size="14.00" fill="#314b5f">bamarni/composer&#45;bin&#45;plugin: 1.8.2</text>
</g>
<!-- bartlett/php&#45;compatinfo&#45;db&#45;&gt;bamarni/composer&#45;bin&#45;plugin -->
<g id="edge89" class="edge">
<title>bartlett/php&#45;compatinfo&#45;db&#45;&gt;bamarni/composer&#45;bin&#45;plugin</title>
<path fill="none" stroke="#1a2833" stroke-dasharray="5,2" d="M137.23,-1125.36C140.09,-1011.17 161.48,-389.87 289.68,-263.41 308.29,-245.05 332.6,-234.17 358.11,-228.07"/>
<polygon fill="#1a2833" stroke="#1a2833" points="358.9,-231.48 367.94,-225.96 357.42,-224.64 358.9,-231.48"/>
<text text-anchor="middle" x="319.18" y="-266.41" font-family="Times,serif" font-size="10.00" fill="#767676">^1.8</text>
</g>
<!-- composer/semver&#45;&gt;php -->
<g id="edge8" class="edge">
<title>composer/semver&#45;&gt;php</title>
<path fill="none" stroke="#1a2833" d="M858.04,-35.37C949.02,-7.84 1137.48,33.35 1262.68,-48.41 1279.34,-59.3 1269.34,-73.06 1280.68,-89.41 1307.54,-128.16 1335.82,-121.13 1356.68,-163.41 1386.77,-224.42 1360.18,-248.95 1374.68,-315.41 1415.1,-500.76 1495.91,-714.85 1525.49,-790.33"/>
<polygon fill="#1a2833" stroke="#1a2833" points="1522.4,-792.02 1529.32,-800.04 1528.91,-789.46 1522.4,-792.02"/>
<text text-anchor="middle" x="1115.18" y="-51.41" font-family="Times,serif" font-size="10.00" fill="#767676">^5.3.2 || ^7.0 || ^8.0</text>
</g>
<!-- doctrine/orm&#45;&gt;php -->
<g id="edge20" class="edge">
<title>doctrine/orm&#45;&gt;php</title>
<path fill="none" stroke="#1a2833" d="M514.25,-1501.4C535.89,-1461.9 591.92,-1366.21 658.68,-1303.41 776.61,-1192.47 815.02,-1164.39 967.68,-1110.41 1029.94,-1088.4 1215.07,-1120.18 1262.68,-1074.41 1298.7,-1039.78 1248.89,-1001.98 1280.68,-963.41 1303.57,-935.63 1330.23,-959.84 1356.68,-935.41 1370.7,-922.46 1361.29,-910.02 1374.68,-896.41 1409.89,-860.62 1464.82,-839.01 1500.78,-827.89"/>
<polygon fill="#1a2833" stroke="#1a2833" points="1501.8,-831.24 1510.39,-825.03 1499.81,-824.53 1501.8,-831.24"/>
<text text-anchor="middle" x="1115.18" y="-1113.41" font-family="Times,serif" font-size="10.00" fill="#767676">^8.1</text>
</g>
<!-- doctrine/orm&#45;&gt;composer&#45;runtime&#45;api -->
<g id="edge10" class="edge">
<title>doctrine/orm&#45;&gt;composer&#45;runtime&#45;api</title>
<path fill="none" stroke="#1a2833" d="M520.14,-1501.22C549.61,-1465.37 613.31,-1381.88 640.68,-1299.41 655.15,-1255.8 626.05,-1125.77 658.68,-1093.41 681.71,-1070.57 917.43,-1073.94 949.68,-1070.41 972.02,-1067.97 996.02,-1064.88 1018.58,-1061.77"/>
<polygon fill="#1a2833" stroke="#1a2833" points="1019.07,-1065.23 1028.49,-1060.39 1018.11,-1058.3 1019.07,-1065.23"/>
<text text-anchor="middle" x="804.18" y="-1096.41" font-family="Times,serif" font-size="10.00" fill="#767676">^2</text>
</g>
<!-- doctrine/collections -->
<g id="node11" class="node">
<title>doctrine/collections</title>
<path fill="#eeeeee" stroke="black" d="M1203.68,-1483.41C1203.68,-1483.41 1026.68,-1483.41 1026.68,-1483.41 1020.68,-1483.41 1014.68,-1477.41 1014.68,-1471.41 1014.68,-1471.41 1014.68,-1459.41 1014.68,-1459.41 1014.68,-1453.41 1020.68,-1447.41 1026.68,-1447.41 1026.68,-1447.41 1203.68,-1447.41 1203.68,-1447.41 1209.68,-1447.41 1215.68,-1453.41 1215.68,-1459.41 1215.68,-1459.41 1215.68,-1471.41 1215.68,-1471.41 1215.68,-1477.41 1209.68,-1483.41 1203.68,-1483.41"/>
<text text-anchor="middle" x="1115.18" y="-1461.71" font-family="Times,serif" font-size="14.00" fill="#314b5f">doctrine/collections: 2.3.0</text>
</g>
<!-- doctrine/orm&#45;&gt;doctrine/collections -->
<g id="edge11" class="edge">
<title>doctrine/orm&#45;&gt;doctrine/collections</title>
<path fill="none" stroke="#1a2833" d="M581.03,-1511.8C605.8,-1509.38 633.4,-1506.73 658.68,-1504.41 776.76,-1493.61 912.15,-1482.13 1004.43,-1474.45"/>
<polygon fill="#1a2833" stroke="#1a2833" points="1004.95,-1477.92 1014.63,-1473.6 1004.37,-1470.94 1004.95,-1477.92"/>
<text text-anchor="middle" x="804.18" y="-1507.41" font-family="Times,serif" font-size="10.00" fill="#767676">^2.2</text>
</g>
<!-- doctrine/orm&#45;&gt;doctrine/dbal -->
<g id="edge12" class="edge">
<title>doctrine/orm&#45;&gt;doctrine/dbal</title>
<path fill="none" stroke="#1a2833" d="M513.74,-1501.2C533.81,-1463.14 586.01,-1375.72 658.68,-1339.41 721.03,-1308.26 912.83,-1306.23 1026.69,-1308.01"/>
<polygon fill="#1a2833" stroke="#1a2833" points="1026.72,-1311.51 1036.78,-1308.18 1026.84,-1304.51 1026.72,-1311.51"/>
<text text-anchor="middle" x="804.18" y="-1342.41" font-family="Times,serif" font-size="10.00" fill="#767676">^3.8.2 || ^4</text>
</g>
<!-- doctrine/deprecations -->
<g id="node13" class="node">
<title>doctrine/deprecations</title>
<path fill="#eeeeee" stroke="black" d="M1212.18,-1429.41C1212.18,-1429.41 1018.18,-1429.41 1018.18,-1429.41 1012.18,-1429.41 1006.18,-1423.41 1006.18,-1417.41 1006.18,-1417.41 1006.18,-1405.41 1006.18,-1405.41 1006.18,-1399.41 1012.18,-1393.41 1018.18,-1393.41 1018.18,-1393.41 1212.18,-1393.41 1212.18,-1393.41 1218.18,-1393.41 1224.18,-1399.41 1224.18,-1405.41 1224.18,-1405.41 1224.18,-1417.41 1224.18,-1417.41 1224.18,-1423.41 1218.18,-1429.41 1212.18,-1429.41"/>
<text text-anchor="middle" x="1115.18" y="-1407.71" font-family="Times,serif" font-size="14.00" fill="#314b5f">doctrine/deprecations: 1.1.5</text>
</g>
<!-- doctrine/orm&#45;&gt;doctrine/deprecations -->
<g id="edge13" class="edge">
<title>doctrine/orm&#45;&gt;doctrine/deprecations</title>
<path fill="none" stroke="#1a2833" d="M547.04,-1501.34C577.54,-1489.05 619.97,-1473.45 658.68,-1464.41 771.33,-1438.1 902.84,-1424.59 995.51,-1417.82"/>
<polygon fill="#1a2833" stroke="#1a2833" points="996.05,-1421.29 1005.77,-1417.08 995.55,-1414.3 996.05,-1421.29"/>
<text text-anchor="middle" x="804.18" y="-1467.41" font-family="Times,serif" font-size="10.00" fill="#767676">^0.5.3 || ^1</text>
</g>
<!-- doctrine/event&#45;manager -->
<g id="node14" class="node">
<title>doctrine/event&#45;manager</title>
<path fill="#eeeeee" stroke="black" d="M1219.68,-1807.41C1219.68,-1807.41 1010.68,-1807.41 1010.68,-1807.41 1004.68,-1807.41 998.68,-1801.41 998.68,-1795.41 998.68,-1795.41 998.68,-1783.41 998.68,-1783.41 998.68,-1777.41 1004.68,-1771.41 1010.68,-1771.41 1010.68,-1771.41 1219.68,-1771.41 1219.68,-1771.41 1225.68,-1771.41 1231.68,-1777.41 1231.68,-1783.41 1231.68,-1783.41 1231.68,-1795.41 1231.68,-1795.41 1231.68,-1801.41 1225.68,-1807.41 1219.68,-1807.41"/>
<text text-anchor="middle" x="1115.18" y="-1785.71" font-family="Times,serif" font-size="14.00" fill="#314b5f">doctrine/event&#45;manager: 2.0.1</text>
</g>
<!-- doctrine/orm&#45;&gt;doctrine/event&#45;manager -->
<g id="edge14" class="edge">
<title>doctrine/orm&#45;&gt;doctrine/event&#45;manager</title>
<path fill="none" stroke="#1a2833" d="M547.54,-1537.49C578.46,-1552.83 618.51,-1577.87 640.68,-1612.41 666.24,-1652.27 623.71,-1685.49 658.68,-1717.41 706.58,-1761.15 892.2,-1710.35 949.68,-1740.41 960.87,-1746.27 956.8,-1755.99 967.68,-1762.41 974.41,-1766.39 981.59,-1769.81 989.03,-1772.73"/>
<polygon fill="#1a2833" stroke="#1a2833" points="987.98,-1776.08 998.57,-1776.19 990.36,-1769.49 987.98,-1776.08"/>
<text text-anchor="middle" x="804.18" y="-1743.41" font-family="Times,serif" font-size="10.00" fill="#767676">^1.2 || ^2</text>
</g>
<!-- doctrine/inflector -->
<g id="node15" class="node">
<title>doctrine/inflector</title>
<path fill="#eeeeee" stroke="black" d="M1200.18,-1753.41C1200.18,-1753.41 1030.18,-1753.41 1030.18,-1753.41 1024.18,-1753.41 1018.18,-1747.41 1018.18,-1741.41 1018.18,-1741.41 1018.18,-1729.41 1018.18,-1729.41 1018.18,-1723.41 1024.18,-1717.41 1030.18,-1717.41 1030.18,-1717.41 1200.18,-1717.41 1200.18,-1717.41 1206.18,-1717.41 1212.18,-1723.41 1212.18,-1729.41 1212.18,-1729.41 1212.18,-1741.41 1212.18,-1741.41 1212.18,-1747.41 1206.18,-1753.41 1200.18,-1753.41"/>
<text text-anchor="middle" x="1115.18" y="-1731.71" font-family="Times,serif" font-size="14.00" fill="#314b5f">doctrine/inflector: 2.0.10</text>
</g>
<!-- doctrine/orm&#45;&gt;doctrine/inflector -->
<g id="edge15" class="edge">
<title>doctrine/orm&#45;&gt;doctrine/inflector</title>
<path fill="none" stroke="#1a2833" d="M545.78,-1537.55C576.4,-1553.12 616.87,-1578.45 640.68,-1612.41 659.11,-1638.72 634.12,-1661.7 658.68,-1682.41 683.48,-1703.33 917.5,-1702.26 949.68,-1706.41 969.36,-1708.95 990.27,-1712.21 1010.36,-1715.62"/>
<polygon fill="#1a2833" stroke="#1a2833" points="1010.01,-1719.11 1020.45,-1717.35 1011.19,-1712.21 1010.01,-1719.11"/>
<text text-anchor="middle" x="804.18" y="-1709.41" font-family="Times,serif" font-size="10.00" fill="#767676">^1.4 || ^2.0</text>
</g>
<!-- doctrine/instantiator -->
<g id="node16" class="node">
<title>doctrine/instantiator</title>
<path fill="#eeeeee" stroke="black" d="M1207.68,-1699.41C1207.68,-1699.41 1022.68,-1699.41 1022.68,-1699.41 1016.68,-1699.41 1010.68,-1693.41 1010.68,-1687.41 1010.68,-1687.41 1010.68,-1675.41 1010.68,-1675.41 1010.68,-1669.41 1016.68,-1663.41 1022.68,-1663.41 1022.68,-1663.41 1207.68,-1663.41 1207.68,-1663.41 1213.68,-1663.41 1219.68,-1669.41 1219.68,-1675.41 1219.68,-1675.41 1219.68,-1687.41 1219.68,-1687.41 1219.68,-1693.41 1213.68,-1699.41 1207.68,-1699.41"/>
<text text-anchor="middle" x="1115.18" y="-1677.71" font-family="Times,serif" font-size="14.00" fill="#314b5f">doctrine/instantiator: 2.0.0</text>
</g>
<!-- doctrine/orm&#45;&gt;doctrine/instantiator -->
<g id="edge16" class="edge">
<title>doctrine/orm&#45;&gt;doctrine/instantiator</title>
<path fill="none" stroke="#1a2833" d="M534.46,-1537.52C562.79,-1555.26 606.12,-1583.74 640.68,-1612.41 649.38,-1619.64 648.48,-1625.51 658.68,-1630.41 688.81,-1644.91 875.71,-1662.35 1000.55,-1672.63"/>
<polygon fill="#1a2833" stroke="#1a2833" points="1000.3,-1676.12 1010.55,-1673.45 1000.87,-1669.14 1000.3,-1676.12"/>
<text text-anchor="middle" x="804.18" y="-1670.41" font-family="Times,serif" font-size="10.00" fill="#767676">^1.3 || ^2</text>
</g>
<!-- doctrine/lexer -->
<g id="node17" class="node">
<title>doctrine/lexer</title>
<path fill="#eeeeee" stroke="black" d="M1183.68,-1645.41C1183.68,-1645.41 1046.68,-1645.41 1046.68,-1645.41 1040.68,-1645.41 1034.68,-1639.41 1034.68,-1633.41 1034.68,-1633.41 1034.68,-1621.41 1034.68,-1621.41 1034.68,-1615.41 1040.68,-1609.41 1046.68,-1609.41 1046.68,-1609.41 1183.68,-1609.41 1183.68,-1609.41 1189.68,-1609.41 1195.68,-1615.41 1195.68,-1621.41 1195.68,-1621.41 1195.68,-1633.41 1195.68,-1633.41 1195.68,-1639.41 1189.68,-1645.41 1183.68,-1645.41"/>
<text text-anchor="middle" x="1115.18" y="-1623.71" font-family="Times,serif" font-size="14.00" fill="#314b5f">doctrine/lexer: 3.0.1</text>
</g>
<!-- doctrine/orm&#45;&gt;doctrine/lexer -->
<g id="edge17" class="edge">
<title>doctrine/orm&#45;&gt;doctrine/lexer</title>
<path fill="none" stroke="#1a2833" d="M548.06,-1537.5C578.51,-1549.48 620.45,-1564.56 658.68,-1573.41 783.55,-1602.34 931.48,-1616.24 1024.09,-1622.57"/>
<polygon fill="#1a2833" stroke="#1a2833" points="1024.06,-1626.08 1034.27,-1623.25 1024.53,-1619.09 1024.06,-1626.08"/>
<text text-anchor="middle" x="804.18" y="-1618.41" font-family="Times,serif" font-size="10.00" fill="#767676">^3</text>
</g>
<!-- doctrine/persistence -->
<g id="node18" class="node">
<title>doctrine/persistence</title>
<path fill="#eeeeee" stroke="black" d="M1207.18,-1591.41C1207.18,-1591.41 1023.18,-1591.41 1023.18,-1591.41 1017.18,-1591.41 1011.18,-1585.41 1011.18,-1579.41 1011.18,-1579.41 1011.18,-1567.41 1011.18,-1567.41 1011.18,-1561.41 1017.18,-1555.41 1023.18,-1555.41 1023.18,-1555.41 1207.18,-1555.41 1207.18,-1555.41 1213.18,-1555.41 1219.18,-1561.41 1219.18,-1567.41 1219.18,-1567.41 1219.18,-1579.41 1219.18,-1579.41 1219.18,-1585.41 1213.18,-1591.41 1207.18,-1591.41"/>
<text text-anchor="middle" x="1115.18" y="-1569.71" font-family="Times,serif" font-size="14.00" fill="#314b5f">doctrine/persistence: 4.0.0</text>
</g>
<!-- doctrine/orm&#45;&gt;doctrine/persistence -->
<g id="edge18" class="edge">
<title>doctrine/orm&#45;&gt;doctrine/persistence</title>
<path fill="none" stroke="#1a2833" d="M581.03,-1527.03C605.8,-1529.45 633.4,-1532.1 658.68,-1534.41 775.24,-1545.08 908.66,-1556.4 1000.84,-1564.08"/>
<polygon fill="#1a2833" stroke="#1a2833" points="1000.77,-1567.59 1011.03,-1564.93 1001.35,-1560.61 1000.77,-1567.59"/>
<text text-anchor="middle" x="804.18" y="-1561.41" font-family="Times,serif" font-size="10.00" fill="#767676">^3.3.1 || ^4</text>
</g>
<!-- ext&#45;ctype -->
<g id="node19" class="node">
<title>ext&#45;ctype</title>
<path fill="#eeeeee" stroke="black" d="M1144.68,-1537.41C1144.68,-1537.41 1085.68,-1537.41 1085.68,-1537.41 1079.68,-1537.41 1073.68,-1531.41 1073.68,-1525.41 1073.68,-1525.41 1073.68,-1513.41 1073.68,-1513.41 1073.68,-1507.41 1079.68,-1501.41 1085.68,-1501.41 1085.68,-1501.41 1144.68,-1501.41 1144.68,-1501.41 1150.68,-1501.41 1156.68,-1507.41 1156.68,-1513.41 1156.68,-1513.41 1156.68,-1525.41 1156.68,-1525.41 1156.68,-1531.41 1150.68,-1537.41 1144.68,-1537.41"/>
<text text-anchor="middle" x="1115.18" y="-1515.71" font-family="Times,serif" font-size="14.00" fill="#314b5f">ext&#45;ctype</text>
</g>
<!-- doctrine/orm&#45;&gt;ext&#45;ctype -->
<g id="edge19" class="edge">
<title>doctrine/orm&#45;&gt;ext&#45;ctype</title>
<path fill="none" stroke="#1a2833" d="M580.94,-1519.41C707.22,-1519.41 956.4,-1519.41 1063.41,-1519.41"/>
<polygon fill="#1a2833" stroke="#1a2833" points="1063.61,-1522.91 1073.61,-1519.41 1063.61,-1515.91 1063.61,-1522.91"/>
<text text-anchor="middle" x="804.18" y="-1522.41" font-family="Times,serif" font-size="10.00" fill="#767676">*</text>
</g>
<!-- psr/cache -->
<g id="node20" class="node">
<title>psr/cache</title>
<path fill="#eeeeee" stroke="black" d="M1590.68,-1708.41C1590.68,-1708.41 1484.68,-1708.41 1484.68,-1708.41 1478.68,-1708.41 1472.68,-1702.41 1472.68,-1696.41 1472.68,-1696.41 1472.68,-1684.41 1472.68,-1684.41 1472.68,-1678.41 1478.68,-1672.41 1484.68,-1672.41 1484.68,-1672.41 1590.68,-1672.41 1590.68,-1672.41 1596.68,-1672.41 1602.68,-1678.41 1602.68,-1684.41 1602.68,-1684.41 1602.68,-1696.41 1602.68,-1696.41 1602.68,-1702.41 1596.68,-1708.41 1590.68,-1708.41"/>
<text text-anchor="middle" x="1537.68" y="-1686.71" font-family="Times,serif" font-size="14.00" fill="#314b5f">psr/cache: 3.0.0</text>
</g>
<!-- doctrine/orm&#45;&gt;psr/cache -->
<g id="edge21" class="edge">
<title>doctrine/orm&#45;&gt;psr/cache</title>
<path fill="none" stroke="#1a2833" d="M548.61,-1537.55C579.65,-1552.78 619.37,-1577.66 640.68,-1612.41 673.23,-1665.52 613.91,-1708.09 658.68,-1751.41 705.36,-1796.59 896.31,-1742.36 949.68,-1779.41 964.7,-1789.84 952.17,-1806.71 967.68,-1816.41 1023.25,-1851.18 1198.64,-1830.43 1262.68,-1816.41 1352.66,-1796.71 1448.38,-1744.58 1499.44,-1713.9"/>
<polygon fill="#1a2833" stroke="#1a2833" points="1501.42,-1716.79 1508.15,-1708.61 1497.78,-1710.81 1501.42,-1716.79"/>
<text text-anchor="middle" x="1115.18" y="-1838.41" font-family="Times,serif" font-size="10.00" fill="#767676">^1 || ^2 || ^3</text>
</g>
<!-- doctrine/orm&#45;&gt;symfony/console -->
<g id="edge22" class="edge">
<title>doctrine/orm&#45;&gt;symfony/console</title>
<path fill="none" stroke="#1a2833" d="M548.81,-1537.43C579.95,-1552.6 619.71,-1577.46 640.68,-1612.41 659.53,-1643.86 632.36,-1750.89 658.68,-1776.41 705.24,-1821.58 899.1,-1758.79 949.68,-1799.41 971.05,-1816.58 947.52,-1839.83 967.68,-1858.41 978.82,-1868.69 992.48,-1875.95 1006.93,-1881.03"/>
<polygon fill="#1a2833" stroke="#1a2833" points="1005.93,-1884.38 1016.52,-1884.06 1008.04,-1877.71 1005.93,-1884.38"/>
<text text-anchor="middle" x="804.18" y="-1802.41" font-family="Times,serif" font-size="10.00" fill="#767676">^5.4 || ^6.0 || ^7.0</text>
</g>
<!-- symfony/var&#45;exporter -->
<g id="node22" class="node">
<title>symfony/var&#45;exporter</title>
<path fill="#eeeeee" stroke="black" d="M1642.18,-1447.41C1642.18,-1447.41 1433.18,-1447.41 1433.18,-1447.41 1427.18,-1447.41 1421.18,-1441.41 1421.18,-1435.41 1421.18,-1435.41 1421.18,-1423.41 1421.18,-1423.41 1421.18,-1417.41 1427.18,-1411.41 1433.18,-1411.41 1433.18,-1411.41 1642.18,-1411.41 1642.18,-1411.41 1648.18,-1411.41 1654.18,-1417.41 1654.18,-1423.41 1654.18,-1423.41 1654.18,-1435.41 1654.18,-1435.41 1654.18,-1441.41 1648.18,-1447.41 1642.18,-1447.41"/>
<text text-anchor="middle" x="1537.68" y="-1425.71" font-family="Times,serif" font-size="14.00" fill="#314b5f">symfony/var&#45;exporter: v6.4.20</text>
</g>
<!-- doctrine/orm&#45;&gt;symfony/var&#45;exporter -->
<g id="edge23" class="edge">
<title>doctrine/orm&#45;&gt;symfony/var&#45;exporter</title>
<path fill="none" stroke="#1a2833" d="M525.94,-1501.04C554.21,-1477.71 606.66,-1438.14 658.68,-1418.41 788.44,-1369.19 829.26,-1383.44 967.68,-1373.41 1033.06,-1368.68 1213.74,-1329.8 1262.68,-1373.41 1314.78,-1419.85 1228.57,-1482.98 1280.68,-1529.41 1305.89,-1551.89 1330.09,-1550.24 1356.68,-1529.41 1382.98,-1508.81 1350.16,-1479.12 1374.68,-1456.41 1385.11,-1446.75 1397.63,-1439.82 1411.03,-1434.94"/>
<polygon fill="#1a2833" stroke="#1a2833" points="1412.49,-1438.15 1420.92,-1431.73 1410.33,-1431.49 1412.49,-1438.15"/>
<text text-anchor="middle" x="1115.18" y="-1376.41" font-family="Times,serif" font-size="10.00" fill="#767676">^6.3.9 || ^7.0</text>
</g>
<!-- symfony/cache&#45;&gt;php -->
<g id="edge26" class="edge">
<title>symfony/cache&#45;&gt;php</title>
<path fill="none" stroke="#1a2833" d="M1186.87,-1274.43C1241.03,-1283.59 1313.56,-1284.97 1356.68,-1241.41 1383.68,-1214.13 1353.41,-928.37 1374.68,-896.41 1403.13,-853.65 1461.92,-833.64 1500.31,-824.79"/>
<polygon fill="#1a2833" stroke="#1a2833" points="1501.51,-828.12 1510.55,-822.59 1500.04,-821.27 1501.51,-828.12"/>
<text text-anchor="middle" x="1318.68" y="-1279.41" font-family="Times,serif" font-size="10.00" fill="#767676">&gt;=8.1</text>
</g>
<!-- symfony/cache&#45;&gt;psr/cache -->
<g id="edge27" class="edge">
<title>symfony/cache&#45;&gt;psr/cache</title>
<path fill="none" stroke="#1a2833" d="M1207.47,-1255.11C1228.28,-1259.29 1248.43,-1267.7 1262.68,-1283.41 1294.44,-1318.44 1257.91,-1453.97 1280.68,-1495.41 1326.73,-1579.25 1425.68,-1638.17 1486.18,-1668"/>
<polygon fill="#1a2833" stroke="#1a2833" points="1484.66,-1671.15 1495.19,-1672.36 1487.71,-1664.85 1484.66,-1671.15"/>
<text text-anchor="middle" x="1318.68" y="-1584.41" font-family="Times,serif" font-size="10.00" fill="#767676">^2.0|^3.0</text>
</g>
<!-- symfony/cache&#45;&gt;symfony/var&#45;exporter -->
<g id="edge31" class="edge">
<title>symfony/cache&#45;&gt;symfony/var&#45;exporter</title>
<path fill="none" stroke="#1a2833" d="M1207.42,-1255.58C1228.11,-1259.78 1248.21,-1268.08 1262.68,-1283.41 1306.94,-1330.32 1232.49,-1384.54 1280.68,-1427.41 1300.29,-1444.87 1356.33,-1446.64 1410.99,-1443.48"/>
<polygon fill="#1a2833" stroke="#1a2833" points="1411.41,-1446.96 1421.17,-1442.84 1410.97,-1439.97 1411.41,-1446.96"/>
<text text-anchor="middle" x="1318.68" y="-1447.41" font-family="Times,serif" font-size="10.00" fill="#767676">^6.3.6|^7.0</text>
</g>
<!-- symfony/cache&#45;&gt;psr/log -->
<g id="edge28" class="edge">
<title>symfony/cache&#45;&gt;psr/log</title>
<path fill="none" stroke="#1a2833" d="M1207.31,-1254.42C1228.38,-1258.56 1248.7,-1267.12 1262.68,-1283.41 1306.47,-1334.45 1236.09,-1838.06 1280.68,-1888.41 1305.27,-1916.19 1404.54,-1924.36 1471.98,-1926.66"/>
<polygon fill="#1a2833" stroke="#1a2833" points="1472,-1930.16 1482.11,-1926.97 1472.22,-1923.17 1472,-1930.16"/>
<text text-anchor="middle" x="1318.68" y="-1918.41" font-family="Times,serif" font-size="10.00" fill="#767676">^1.1|^2|^3</text>
</g>
<!-- symfony/cache&#45;contracts -->
<g id="node25" class="node">
<title>symfony/cache&#45;contracts</title>
<path fill="#eeeeee" stroke="black" d="M1648.68,-1501.41C1648.68,-1501.41 1426.68,-1501.41 1426.68,-1501.41 1420.68,-1501.41 1414.68,-1495.41 1414.68,-1489.41 1414.68,-1489.41 1414.68,-1477.41 1414.68,-1477.41 1414.68,-1471.41 1420.68,-1465.41 1426.68,-1465.41 1426.68,-1465.41 1648.68,-1465.41 1648.68,-1465.41 1654.68,-1465.41 1660.68,-1471.41 1660.68,-1477.41 1660.68,-1477.41 1660.68,-1489.41 1660.68,-1489.41 1660.68,-1495.41 1654.68,-1501.41 1648.68,-1501.41"/>
<text text-anchor="middle" x="1537.68" y="-1479.71" font-family="Times,serif" font-size="14.00" fill="#314b5f">symfony/cache&#45;contracts: v3.5.1</text>
</g>
<!-- symfony/cache&#45;&gt;symfony/cache&#45;contracts -->
<g id="edge29" class="edge">
<title>symfony/cache&#45;&gt;symfony/cache&#45;contracts</title>
<path fill="none" stroke="#1a2833" d="M1207.28,-1255.28C1228.1,-1259.46 1248.29,-1267.83 1262.68,-1283.41 1289.34,-1312.31 1252.76,-1431.73 1280.68,-1459.41 1298.73,-1477.31 1351.4,-1484.04 1404.31,-1485.98"/>
<polygon fill="#1a2833" stroke="#1a2833" points="1404.43,-1489.49 1414.53,-1486.3 1404.65,-1482.49 1404.43,-1489.49"/>
<text text-anchor="middle" x="1318.68" y="-1484.41" font-family="Times,serif" font-size="10.00" fill="#767676">^2.5|^3</text>
</g>
<!-- symfony/service&#45;contracts -->
<g id="node26" class="node">
<title>symfony/service&#45;contracts</title>
<path fill="#eeeeee" stroke="black" d="M1654.18,-1246.41C1654.18,-1246.41 1421.18,-1246.41 1421.18,-1246.41 1415.18,-1246.41 1409.18,-1240.41 1409.18,-1234.41 1409.18,-1234.41 1409.18,-1222.41 1409.18,-1222.41 1409.18,-1216.41 1415.18,-1210.41 1421.18,-1210.41 1421.18,-1210.41 1654.18,-1210.41 1654.18,-1210.41 1660.18,-1210.41 1666.18,-1216.41 1666.18,-1222.41 1666.18,-1222.41 1666.18,-1234.41 1666.18,-1234.41 1666.18,-1240.41 1660.18,-1246.41 1654.18,-1246.41"/>
<text text-anchor="middle" x="1537.68" y="-1224.71" font-family="Times,serif" font-size="14.00" fill="#314b5f">symfony/service&#45;contracts: v3.5.1</text>
</g>
<!-- symfony/cache&#45;&gt;symfony/service&#45;contracts -->
<g id="edge30" class="edge">
<title>symfony/cache&#45;&gt;symfony/service&#45;contracts</title>
<path fill="none" stroke="#1a2833" d="M1207.44,-1256.93C1227.75,-1261.17 1247.68,-1269.16 1262.68,-1283.41 1287.83,-1307.33 1253.45,-1337.88 1280.68,-1359.41 1307.17,-1380.37 1330.09,-1380.24 1356.68,-1359.41 1382.98,-1338.81 1352.28,-1311.22 1374.68,-1286.41 1389.26,-1270.26 1408.66,-1258.61 1428.95,-1250.19"/>
<polygon fill="#1a2833" stroke="#1a2833" points="1430.27,-1253.44 1438.33,-1246.55 1427.74,-1246.91 1430.27,-1253.44"/>
<text text-anchor="middle" x="1318.68" y="-1377.41" font-family="Times,serif" font-size="10.00" fill="#767676">^2.5|^3</text>
</g>
<!-- symfony/config&#45;&gt;php -->
<g id="edge33" class="edge">
<title>symfony/config&#45;&gt;php</title>
<path fill="none" stroke="#1a2833" d="M1208.23,-146.84C1260.63,-155.72 1322.46,-176.12 1356.68,-222.41 1381.7,-256.27 1364.2,-274.64 1374.68,-315.41 1421.97,-499.58 1498.87,-715.23 1526.44,-790.68"/>
<polygon fill="#1a2833" stroke="#1a2833" points="1523.26,-792.19 1529.99,-800.37 1529.83,-789.78 1523.26,-792.19"/>
<text text-anchor="middle" x="1318.68" y="-225.41" font-family="Times,serif" font-size="10.00" fill="#767676">&gt;=8.1</text>
</g>
<!-- symfony/deprecation&#45;contracts -->
<g id="node28" class="node">
<title>symfony/deprecation&#45;contracts</title>
<path fill="#eeeeee" stroke="black" d="M1670.68,-1059.41C1670.68,-1059.41 1404.68,-1059.41 1404.68,-1059.41 1398.68,-1059.41 1392.68,-1053.41 1392.68,-1047.41 1392.68,-1047.41 1392.68,-1035.41 1392.68,-1035.41 1392.68,-1029.41 1398.68,-1023.41 1404.68,-1023.41 1404.68,-1023.41 1670.68,-1023.41 1670.68,-1023.41 1676.68,-1023.41 1682.68,-1029.41 1682.68,-1035.41 1682.68,-1035.41 1682.68,-1047.41 1682.68,-1047.41 1682.68,-1053.41 1676.68,-1059.41 1670.68,-1059.41"/>
<text text-anchor="middle" x="1537.68" y="-1037.71" font-family="Times,serif" font-size="14.00" fill="#314b5f">symfony/deprecation&#45;contracts: v3.5.1</text>
</g>
<!-- symfony/config&#45;&gt;symfony/deprecation&#45;contracts -->
<g id="edge34" class="edge">
<title>symfony/config&#45;&gt;symfony/deprecation&#45;contracts</title>
<path fill="none" stroke="#1a2833" d="M1208.29,-141.92C1229.09,-146.82 1249.02,-156 1262.68,-172.41 1282.76,-196.56 1271.67,-707.33 1280.68,-737.41 1299.21,-799.34 1333.02,-801.26 1356.68,-861.41 1371.45,-898.97 1350.92,-917.79 1374.68,-950.41 1398.19,-982.71 1436.87,-1005.06 1470.54,-1019.52"/>
<polygon fill="#1a2833" stroke="#1a2833" points="1469.31,-1022.8 1479.89,-1023.4 1471.99,-1016.34 1469.31,-1022.8"/>
<text text-anchor="middle" x="1318.68" y="-864.41" font-family="Times,serif" font-size="10.00" fill="#767676">^2.5|^3</text>
</g>
<!-- symfony/filesystem -->
<g id="node29" class="node">
<title>symfony/filesystem</title>
<path fill="#eeeeee" stroke="black" d="M1633.68,-161.41C1633.68,-161.41 1441.68,-161.41 1441.68,-161.41 1435.68,-161.41 1429.68,-155.41 1429.68,-149.41 1429.68,-149.41 1429.68,-137.41 1429.68,-137.41 1429.68,-131.41 1435.68,-125.41 1441.68,-125.41 1441.68,-125.41 1633.68,-125.41 1633.68,-125.41 1639.68,-125.41 1645.68,-131.41 1645.68,-137.41 1645.68,-137.41 1645.68,-149.41 1645.68,-149.41 1645.68,-155.41 1639.68,-161.41 1633.68,-161.41"/>
<text text-anchor="middle" x="1537.68" y="-139.71" font-family="Times,serif" font-size="14.00" fill="#314b5f">symfony/filesystem: v6.4.13</text>
</g>
<!-- symfony/config&#45;&gt;symfony/filesystem -->
<g id="edge35" class="edge">
<title>symfony/config&#45;&gt;symfony/filesystem</title>
<path fill="none" stroke="#1a2833" d="M1208.2,-141.07C1270.27,-141.51 1352.72,-142.1 1419.48,-142.58"/>
<polygon fill="#1a2833" stroke="#1a2833" points="1419.61,-146.08 1429.63,-142.65 1419.66,-139.08 1419.61,-146.08"/>
<text text-anchor="middle" x="1318.68" y="-145.41" font-family="Times,serif" font-size="10.00" fill="#767676">^5.4|^6.0|^7.0</text>
</g>
<!-- symfony/polyfill&#45;ctype -->
<g id="node30" class="node">
<title>symfony/polyfill&#45;ctype</title>
<path fill="#eeeeee" stroke="black" d="M1643.18,-61.41C1643.18,-61.41 1432.18,-61.41 1432.18,-61.41 1426.18,-61.41 1420.18,-55.41 1420.18,-49.41 1420.18,-49.41 1420.18,-37.41 1420.18,-37.41 1420.18,-31.41 1426.18,-25.41 1432.18,-25.41 1432.18,-25.41 1643.18,-25.41 1643.18,-25.41 1649.18,-25.41 1655.18,-31.41 1655.18,-37.41 1655.18,-37.41 1655.18,-49.41 1655.18,-49.41 1655.18,-55.41 1649.18,-61.41 1643.18,-61.41"/>
<text text-anchor="middle" x="1537.68" y="-39.71" font-family="Times,serif" font-size="14.00" fill="#314b5f">symfony/polyfill&#45;ctype: v1.31.0</text>
</g>
<!-- symfony/config&#45;&gt;symfony/polyfill&#45;ctype -->
<g id="edge36" class="edge">
<title>symfony/config&#45;&gt;symfony/polyfill&#45;ctype</title>
<path fill="none" stroke="#1a2833" d="M1208.19,-124.44C1226.3,-121.02 1245.12,-117.27 1262.68,-113.41 1330.28,-98.57 1406.52,-78.84 1461.38,-64.12"/>
<polygon fill="#1a2833" stroke="#1a2833" points="1462.62,-67.41 1471.37,-61.43 1460.8,-60.65 1462.62,-67.41"/>
<text text-anchor="middle" x="1318.68" y="-111.41" font-family="Times,serif" font-size="10.00" fill="#767676">~1.8</text>
</g>
<!-- symfony/dependency&#45;injection&#45;&gt;php -->
<g id="edge39" class="edge">
<title>symfony/dependency&#45;injection&#45;&gt;php</title>
<path fill="none" stroke="#1a2833" d="M1241.43,-975.33C1249.04,-971.48 1256.22,-966.88 1262.68,-961.41 1279.11,-947.49 1265.33,-931.53 1280.68,-916.41 1312.87,-884.7 1438.2,-846.1 1500.75,-828.29"/>
<polygon fill="#1a2833" stroke="#1a2833" points="1501.92,-831.6 1510.59,-825.51 1500.01,-824.86 1501.92,-831.6"/>
<text text-anchor="middle" x="1318.68" y="-919.41" font-family="Times,serif" font-size="10.00" fill="#767676">&gt;=8.1</text>
</g>
<!-- symfony/dependency&#45;injection&#45;&gt;symfony/var&#45;exporter -->
<g id="edge43" class="edge">
<title>symfony/dependency&#45;injection&#45;&gt;symfony/var&#45;exporter</title>
<path fill="none" stroke="#1a2833" d="M1252.59,-1011.51C1256.18,-1014.18 1259.56,-1017.13 1262.68,-1020.41 1304.4,-1064.27 1240.9,-1109.78 1280.68,-1155.41 1303.7,-1181.83 1333.96,-1149.73 1356.68,-1176.41 1404.21,-1232.25 1333.95,-1279.44 1374.68,-1340.41 1395.85,-1372.11 1432.24,-1393.55 1465.18,-1407.43"/>
<polygon fill="#1a2833" stroke="#1a2833" points="1464.24,-1410.82 1474.82,-1411.32 1466.86,-1404.33 1464.24,-1410.82"/>
<text text-anchor="middle" x="1318.68" y="-1179.41" font-family="Times,serif" font-size="10.00" fill="#767676">^6.4.20|^7.2.5</text>
</g>
<!-- symfony/dependency&#45;injection&#45;&gt;symfony/service&#45;contracts -->
<g id="edge42" class="edge">
<title>symfony/dependency&#45;injection&#45;&gt;symfony/service&#45;contracts</title>
<path fill="none" stroke="#1a2833" d="M1252.09,-1011.47C1255.85,-1014.14 1259.39,-1017.11 1262.68,-1020.41 1294.82,-1052.75 1250.38,-1087.33 1280.68,-1121.41 1304.12,-1147.79 1323.71,-1131.81 1356.68,-1144.41 1404.13,-1162.56 1456.59,-1187.64 1492.56,-1205.67"/>
<polygon fill="#1a2833" stroke="#1a2833" points="1491.29,-1208.95 1501.8,-1210.32 1494.44,-1202.69 1491.29,-1208.95"/>
<text text-anchor="middle" x="1318.68" y="-1147.41" font-family="Times,serif" font-size="10.00" fill="#767676">^2.5|^3.0</text>
</g>
<!-- symfony/dependency&#45;injection&#45;&gt;symfony/deprecation&#45;contracts -->
<g id="edge41" class="edge">
<title>symfony/dependency&#45;injection&#45;&gt;symfony/deprecation&#45;contracts</title>
<path fill="none" stroke="#1a2833" d="M1223.09,-1011.44C1242.23,-1014.35 1262.02,-1017.14 1280.68,-1019.41 1313.48,-1023.41 1348.74,-1026.94 1382.28,-1029.93"/>
<polygon fill="#1a2833" stroke="#1a2833" points="1382.37,-1033.45 1392.63,-1030.84 1382.98,-1026.48 1382.37,-1033.45"/>
<text text-anchor="middle" x="1318.68" y="-1030.41" font-family="Times,serif" font-size="10.00" fill="#767676">^2.5|^3</text>
</g>
<!-- psr/container -->
<g id="node32" class="node">
<title>psr/container</title>
<path fill="#eeeeee" stroke="black" d="M1604.18,-941.41C1604.18,-941.41 1471.18,-941.41 1471.18,-941.41 1465.18,-941.41 1459.18,-935.41 1459.18,-929.41 1459.18,-929.41 1459.18,-917.41 1459.18,-917.41 1459.18,-911.41 1465.18,-905.41 1471.18,-905.41 1471.18,-905.41 1604.18,-905.41 1604.18,-905.41 1610.18,-905.41 1616.18,-911.41 1616.18,-917.41 1616.18,-917.41 1616.18,-929.41 1616.18,-929.41 1616.18,-935.41 1610.18,-941.41 1604.18,-941.41"/>
<text text-anchor="middle" x="1537.68" y="-919.71" font-family="Times,serif" font-size="14.00" fill="#314b5f">psr/container: 2.0.2</text>
</g>
<!-- symfony/dependency&#45;injection&#45;&gt;psr/container -->
<g id="edge40" class="edge">
<title>symfony/dependency&#45;injection&#45;&gt;psr/container</title>
<path fill="none" stroke="#1a2833" d="M1221.7,-975.35C1235.74,-971.51 1249.74,-966.91 1262.68,-961.41 1271.53,-957.66 1271.63,-952.66 1280.68,-949.41 1334.37,-930.14 1398.2,-923.63 1448.69,-921.94"/>
<polygon fill="#1a2833" stroke="#1a2833" points="1449.03,-925.43 1458.93,-921.65 1448.83,-918.43 1449.03,-925.43"/>
<text text-anchor="middle" x="1318.68" y="-952.41" font-family="Times,serif" font-size="10.00" fill="#767676">^1.1|^2.0</text>
</g>
<!-- symfony/event&#45;dispatcher&#45;&gt;php -->
<g id="edge45" class="edge">
<title>symfony/event&#45;dispatcher&#45;&gt;php</title>
<path fill="none" stroke="#1a2833" d="M1247.02,-305.95C1252.5,-308.71 1257.75,-311.85 1262.68,-315.41 1433.69,-439.35 1509.54,-703.87 1530.42,-790.39"/>
<polygon fill="#1a2833" stroke="#1a2833" points="1527.05,-791.33 1532.75,-800.26 1533.86,-789.73 1527.05,-791.33"/>
<text text-anchor="middle" x="1318.68" y="-404.41" font-family="Times,serif" font-size="10.00" fill="#767676">&gt;=8.1</text>
</g>
<!-- symfony/event&#45;dispatcher&#45;contracts -->
<g id="node34" class="node">
<title>symfony/event&#45;dispatcher&#45;contracts</title>
<path fill="#eeeeee" stroke="black" d="M1688.68,-306.41C1688.68,-306.41 1386.68,-306.41 1386.68,-306.41 1380.68,-306.41 1374.68,-300.41 1374.68,-294.41 1374.68,-294.41 1374.68,-282.41 1374.68,-282.41 1374.68,-276.41 1380.68,-270.41 1386.68,-270.41 1386.68,-270.41 1688.68,-270.41 1688.68,-270.41 1694.68,-270.41 1700.68,-276.41 1700.68,-282.41 1700.68,-282.41 1700.68,-294.41 1700.68,-294.41 1700.68,-300.41 1694.68,-306.41 1688.68,-306.41"/>
<text text-anchor="middle" x="1537.68" y="-284.71" font-family="Times,serif" font-size="14.00" fill="#314b5f">symfony/event&#45;dispatcher&#45;contracts: v3.5.1</text>
</g>
<!-- symfony/event&#45;dispatcher&#45;&gt;symfony/event&#45;dispatcher&#45;contracts -->
<g id="edge46" class="edge">
<title>symfony/event&#45;dispatcher&#45;&gt;symfony/event&#45;dispatcher&#45;contracts</title>
<path fill="none" stroke="#1a2833" d="M1246.92,-288.41C1283.99,-288.41 1324.93,-288.41 1364.07,-288.41"/>
<polygon fill="#1a2833" stroke="#1a2833" points="1364.51,-291.91 1374.51,-288.41 1364.51,-284.91 1364.51,-291.91"/>
<text text-anchor="middle" x="1318.68" y="-291.41" font-family="Times,serif" font-size="10.00" fill="#767676">^2.5|^3</text>
</g>
<!-- symfony/finder&#45;&gt;php -->
<g id="edge48" class="edge">
<title>symfony/finder&#45;&gt;php</title>
<path fill="none" stroke="#1a2833" d="M1207.84,-707.25C1253.33,-706.6 1308.67,-709.45 1356.68,-722.41 1411.68,-737.26 1468.63,-771.36 1503.37,-794.65"/>
<polygon fill="#1a2833" stroke="#1a2833" points="1501.47,-797.59 1511.7,-800.32 1505.4,-791.8 1501.47,-797.59"/>
<text text-anchor="middle" x="1318.68" y="-725.41" font-family="Times,serif" font-size="10.00" fill="#767676">&gt;=8.1</text>
</g>
<!-- symfony/http&#45;client&#45;&gt;php -->
<g id="edge50" class="edge">
<title>symfony/http&#45;client&#45;&gt;php</title>
<path fill="none" stroke="#1a2833" d="M1224.53,-1198.02C1238.78,-1193.24 1252.09,-1186.04 1262.68,-1175.41 1294.54,-1143.41 1252.65,-1110.82 1280.68,-1075.41 1303.53,-1046.54 1334.63,-1071.91 1356.68,-1042.41 1395.82,-990.05 1336.56,-949.53 1374.68,-896.41 1404.53,-854.8 1462.66,-834.49 1500.56,-825.27"/>
<polygon fill="#1a2833" stroke="#1a2833" points="1501.71,-828.59 1510.67,-822.95 1500.14,-821.77 1501.71,-828.59"/>
<text text-anchor="middle" x="1318.68" y="-1078.41" font-family="Times,serif" font-size="10.00" fill="#767676">&gt;=8.1</text>
</g>
<!-- symfony/http&#45;client&#45;&gt;psr/log -->
<g id="edge51" class="edge">
<title>symfony/http&#45;client&#45;&gt;psr/log</title>
<path fill="none" stroke="#1a2833" d="M1224.34,-1205.12C1238.98,-1210.05 1252.46,-1217.73 1262.68,-1229.41 1289.56,-1260.14 1266.54,-1558.11 1280.68,-1596.41 1329.6,-1728.92 1451.88,-1851.09 1507.87,-1902.18"/>
<polygon fill="#1a2833" stroke="#1a2833" points="1505.87,-1905.09 1515.63,-1909.2 1510.56,-1899.9 1505.87,-1905.09"/>
<text text-anchor="middle" x="1318.68" y="-1729.41" font-family="Times,serif" font-size="10.00" fill="#767676">^1|^2|^3</text>
</g>
<!-- symfony/http&#45;client&#45;&gt;symfony/service&#45;contracts -->
<g id="edge54" class="edge">
<title>symfony/http&#45;client&#45;&gt;symfony/service&#45;contracts</title>
<path fill="none" stroke="#1a2833" d="M1224.4,-1217.91C1243.13,-1220.11 1262.44,-1222.08 1280.68,-1223.41 1318.93,-1226.22 1360.48,-1227.7 1398.76,-1228.44"/>
<polygon fill="#1a2833" stroke="#1a2833" points="1398.88,-1231.94 1408.94,-1228.61 1399,-1224.94 1398.88,-1231.94"/>
<text text-anchor="middle" x="1318.68" y="-1229.41" font-family="Times,serif" font-size="10.00" fill="#767676">^2.5|^3</text>
</g>
<!-- symfony/http&#45;client&#45;&gt;symfony/deprecation&#45;contracts -->
<g id="edge52" class="edge">
<title>symfony/http&#45;client&#45;&gt;symfony/deprecation&#45;contracts</title>
<path fill="none" stroke="#1a2833" d="M1224.41,-1196.88C1238.51,-1192.23 1251.8,-1185.37 1262.68,-1175.41 1284.78,-1155.17 1259.41,-1131.54 1280.68,-1110.41 1283.93,-1107.18 1382.61,-1081.16 1456.48,-1062.03"/>
<polygon fill="#1a2833" stroke="#1a2833" points="1457.46,-1065.39 1466.27,-1059.49 1455.71,-1058.61 1457.46,-1065.39"/>
<text text-anchor="middle" x="1318.68" y="-1113.41" font-family="Times,serif" font-size="10.00" fill="#767676">^2.5|^3</text>
</g>
<!-- symfony/http&#45;client&#45;contracts -->
<g id="node37" class="node">
<title>symfony/http&#45;client&#45;contracts</title>
<path fill="#eeeeee" stroke="black" d="M1665.68,-1331.41C1665.68,-1331.41 1409.68,-1331.41 1409.68,-1331.41 1403.68,-1331.41 1397.68,-1325.41 1397.68,-1319.41 1397.68,-1319.41 1397.68,-1307.41 1397.68,-1307.41 1397.68,-1301.41 1403.68,-1295.41 1409.68,-1295.41 1409.68,-1295.41 1665.68,-1295.41 1665.68,-1295.41 1671.68,-1295.41 1677.68,-1301.41 1677.68,-1307.41 1677.68,-1307.41 1677.68,-1319.41 1677.68,-1319.41 1677.68,-1325.41 1671.68,-1331.41 1665.68,-1331.41"/>
<text text-anchor="middle" x="1537.68" y="-1309.71" font-family="Times,serif" font-size="14.00" fill="#314b5f">symfony/http&#45;client&#45;contracts: v3.5.2</text>
</g>
<!-- symfony/http&#45;client&#45;&gt;symfony/http&#45;client&#45;contracts -->
<g id="edge53" class="edge">
<title>symfony/http&#45;client&#45;&gt;symfony/http&#45;client&#45;contracts</title>
<path fill="none" stroke="#1a2833" d="M1224.3,-1208.07C1238.42,-1212.7 1251.74,-1219.53 1262.68,-1229.41 1283.96,-1248.66 1258.49,-1273.22 1280.68,-1291.41 1298.03,-1305.65 1341.29,-1312.09 1387.41,-1314.67"/>
<polygon fill="#1a2833" stroke="#1a2833" points="1387.43,-1318.17 1397.59,-1315.17 1387.78,-1311.18 1387.43,-1318.17"/>
<text text-anchor="middle" x="1318.68" y="-1314.41" font-family="Times,serif" font-size="10.00" fill="#767676">~3.4.4|^3.5.2</text>
</g>
<!-- symfony/messenger&#45;&gt;php -->
<g id="edge56" class="edge">
<title>symfony/messenger&#45;&gt;php</title>
<path fill="none" stroke="#1a2833" d="M1225.98,-1941.36C1240.03,-1936.4 1252.9,-1928.79 1262.68,-1917.41 1304.05,-1869.28 1241.44,-1396.31 1280.68,-1346.41 1302.34,-1318.87 1334.87,-1352.85 1356.68,-1325.41 1386.36,-1288.06 1348.45,-936.27 1374.68,-896.41 1402.91,-853.51 1461.77,-833.54 1500.22,-824.74"/>
<polygon fill="#1a2833" stroke="#1a2833" points="1501.44,-828.06 1510.49,-822.54 1499.98,-821.21 1501.44,-828.06"/>
<text text-anchor="middle" x="1318.68" y="-1349.41" font-family="Times,serif" font-size="10.00" fill="#767676">&gt;=8.1</text>
</g>
<!-- symfony/messenger&#45;&gt;psr/log -->
<g id="edge57" class="edge">
<title>symfony/messenger&#45;&gt;psr/log</title>
<path fill="none" stroke="#1a2833" d="M1225.83,-1939.98C1304.02,-1936.82 1406.49,-1932.68 1471.98,-1930.03"/>
<polygon fill="#1a2833" stroke="#1a2833" points="1472.31,-1933.52 1482.16,-1929.62 1472.03,-1926.52 1472.31,-1933.52"/>
<text text-anchor="middle" x="1318.68" y="-1940.41" font-family="Times,serif" font-size="10.00" fill="#767676">^1|^2|^3</text>
</g>
<!-- symfony/messenger&#45;&gt;symfony/deprecation&#45;contracts -->
<g id="edge59" class="edge">
<title>symfony/messenger&#45;&gt;symfony/deprecation&#45;contracts</title>
<path fill="none" stroke="#1a2833" d="M1225.93,-1941.32C1239.99,-1936.36 1252.87,-1928.77 1262.68,-1917.41 1299.22,-1875.08 1247.08,-1459.12 1280.68,-1414.41 1302.04,-1385.99 1334.48,-1417.19 1356.68,-1389.41 1382.88,-1356.63 1356.67,-1239.32 1374.68,-1201.41 1402.67,-1142.49 1461.89,-1093.05 1500.44,-1065.35"/>
<polygon fill="#1a2833" stroke="#1a2833" points="1502.66,-1068.07 1508.81,-1059.44 1498.63,-1062.35 1502.66,-1068.07"/>
<text text-anchor="middle" x="1318.68" y="-1417.41" font-family="Times,serif" font-size="10.00" fill="#767676">^2.5|^3</text>
</g>
<!-- symfony/clock -->
<g id="node39" class="node">
<title>symfony/clock</title>
<path fill="#eeeeee" stroke="black" d="M1615.18,-2041.41C1615.18,-2041.41 1460.18,-2041.41 1460.18,-2041.41 1454.18,-2041.41 1448.18,-2035.41 1448.18,-2029.41 1448.18,-2029.41 1448.18,-2017.41 1448.18,-2017.41 1448.18,-2011.41 1454.18,-2005.41 1460.18,-2005.41 1460.18,-2005.41 1615.18,-2005.41 1615.18,-2005.41 1621.18,-2005.41 1627.18,-2011.41 1627.18,-2017.41 1627.18,-2017.41 1627.18,-2029.41 1627.18,-2029.41 1627.18,-2035.41 1621.18,-2041.41 1615.18,-2041.41"/>
<text text-anchor="middle" x="1537.68" y="-2019.71" font-family="Times,serif" font-size="14.00" fill="#314b5f">symfony/clock: v6.4.13</text>
</g>
<!-- symfony/messenger&#45;&gt;symfony/clock -->
<g id="edge58" class="edge">
<title>symfony/messenger&#45;&gt;symfony/clock</title>
<path fill="none" stroke="#1a2833" d="M1212.12,-1962.44C1279.7,-1975.13 1369.91,-1992.08 1438.07,-2004.89"/>
<polygon fill="#1a2833" stroke="#1a2833" points="1437.49,-2008.34 1447.96,-2006.75 1438.78,-2001.46 1437.49,-2008.34"/>
<text text-anchor="middle" x="1318.68" y="-1991.41" font-family="Times,serif" font-size="10.00" fill="#767676">^6.3|^7.0</text>
</g>
<!-- symfony/polyfill&#45;php84&#45;&gt;php -->
<g id="edge61" class="edge">
<title>symfony/polyfill&#45;php84&#45;&gt;php</title>
<path fill="none" stroke="#1a2833" d="M924.89,-748.77C1037.16,-742.15 1209.36,-738.24 1356.68,-761.41 1408.18,-769.52 1465.16,-789.55 1500.94,-803.57"/>
<polygon fill="#1a2833" stroke="#1a2833" points="1499.86,-806.9 1510.45,-807.34 1502.44,-800.4 1499.86,-806.9"/>
<text text-anchor="middle" x="1115.18" y="-753.41" font-family="Times,serif" font-size="10.00" fill="#767676">&gt;=7.2</text>
</g>
<!-- symfony/process&#45;&gt;php -->
<g id="edge63" class="edge">
<title>symfony/process&#45;&gt;php</title>
<path fill="none" stroke="#1a2833" d="M903.37,-959.51C1035.7,-948.67 1255.67,-929.91 1262.68,-924.41 1281.91,-909.31 1262.33,-888.59 1280.68,-872.41 1312.96,-843.94 1437.77,-828.03 1500.4,-821.69"/>
<polygon fill="#1a2833" stroke="#1a2833" points="1501,-825.14 1510.61,-820.68 1500.32,-818.18 1501,-825.14"/>
<text text-anchor="middle" x="1115.18" y="-957.41" font-family="Times,serif" font-size="10.00" fill="#767676">&gt;=8.1</text>
</g>
<!-- symfony/requirements&#45;checker&#45;&gt;php -->
<g id="edge65" class="edge">
<title>symfony/requirements&#45;checker&#45;&gt;php</title>
<path fill="none" stroke="#1a2833" d="M949.95,-913.14C1073.55,-900.92 1235.54,-882.47 1262.68,-867.41 1273.72,-861.28 1269.56,-851.42 1280.68,-845.41 1351.13,-807.37 1448.35,-809.35 1500.37,-813.97"/>
<polygon fill="#1a2833" stroke="#1a2833" points="1500.16,-817.47 1510.45,-814.95 1500.84,-810.5 1500.16,-817.47"/>
<text text-anchor="middle" x="1115.18" y="-914.41" font-family="Times,serif" font-size="10.00" fill="#767676">&gt;=5.3.9</text>
</g>
<!-- symfony/stopwatch&#45;&gt;php -->
<g id="edge67" class="edge">
<title>symfony/stopwatch&#45;&gt;php</title>
<path fill="none" stroke="#1a2833" d="M1223.8,-1140.69C1238.42,-1135.42 1252.03,-1127.67 1262.68,-1116.41 1297.32,-1079.78 1252.1,-1045.95 1280.68,-1004.41 1302.8,-972.26 1332.74,-991.24 1356.68,-960.41 1374.79,-937.07 1355.68,-919.05 1374.68,-896.41 1407.32,-857.51 1463.91,-836.55 1500.82,-826.44"/>
<polygon fill="#1a2833" stroke="#1a2833" points="1501.88,-829.78 1510.67,-823.87 1500.11,-823.01 1501.88,-829.78"/>
<text text-anchor="middle" x="1318.68" y="-1007.41" font-family="Times,serif" font-size="10.00" fill="#767676">&gt;=8.1</text>
</g>
<!-- symfony/stopwatch&#45;&gt;symfony/service&#45;contracts -->
<g id="edge68" class="edge">
<title>symfony/stopwatch&#45;&gt;symfony/service&#45;contracts</title>
<path fill="none" stroke="#1a2833" d="M1224.01,-1162.14C1237.33,-1165.61 1250.52,-1169.96 1262.68,-1175.41 1271.92,-1179.56 1271.37,-1185.41 1280.68,-1189.41 1302.65,-1198.86 1350.59,-1207.2 1399.12,-1213.71"/>
<polygon fill="#1a2833" stroke="#1a2833" points="1398.78,-1217.19 1409.15,-1215.03 1399.69,-1210.25 1398.78,-1217.19"/>
<text text-anchor="middle" x="1318.68" y="-1209.41" font-family="Times,serif" font-size="10.00" fill="#767676">^2.5|^3</text>
</g>
<!-- symfony/framework&#45;bundle&#45;&gt;php -->
<g id="edge73" class="edge">
<title>symfony/framework&#45;bundle&#45;&gt;php</title>
<path fill="none" stroke="#1a2833" d="M574.83,-603.42C601,-609.59 631.05,-616.04 658.68,-620.41 924.91,-662.6 998.75,-620.62 1262.68,-675.41 1305.75,-684.35 1316.83,-687.77 1356.68,-706.41 1410.61,-731.65 1468.27,-769.72 1503.4,-794.32"/>
<polygon fill="#1a2833" stroke="#1a2833" points="1501.64,-797.37 1511.83,-800.27 1505.68,-791.65 1501.64,-797.37"/>
<text text-anchor="middle" x="1115.18" y="-678.41" font-family="Times,serif" font-size="10.00" fill="#767676">&gt;=8.1</text>
</g>
<!-- symfony/framework&#45;bundle&#45;&gt;composer&#45;runtime&#45;api -->
<g id="edge71" class="edge">
<title>symfony/framework&#45;bundle&#45;&gt;composer&#45;runtime&#45;api</title>
<path fill="none" stroke="#1a2833" d="M537.03,-603.49C569.28,-623.42 617.28,-658.67 640.68,-703.41 657.97,-736.49 631.82,-844.49 658.68,-870.41 705.32,-915.44 902.33,-847.12 949.68,-891.41 991.95,-930.96 927.64,-978.6 967.68,-1020.41 981.15,-1034.49 999.39,-1042.62 1018.42,-1047.09"/>
<polygon fill="#1a2833" stroke="#1a2833" points="1017.93,-1050.56 1028.42,-1049.1 1019.31,-1043.69 1017.93,-1050.56"/>
<text text-anchor="middle" x="804.18" y="-894.41" font-family="Times,serif" font-size="10.00" fill="#767676">&gt;=2.1</text>
</g>
<!-- symfony/framework&#45;bundle&#45;&gt;symfony/cache -->
<g id="edge74" class="edge">
<title>symfony/framework&#45;bundle&#45;&gt;symfony/cache</title>
<path fill="none" stroke="#1a2833" d="M537.75,-603.46C570.34,-623.25 618.38,-658.29 640.68,-703.41 669.38,-761.5 616.3,-945.4 658.68,-994.41 745.11,-1094.37 861.2,-957.26 949.68,-1055.41 1001.73,-1113.16 914.92,-1172.31 967.68,-1229.41 979.71,-1242.44 995.8,-1250.42 1012.91,-1255.13"/>
<polygon fill="#1a2833" stroke="#1a2833" points="1012.55,-1258.64 1023.08,-1257.54 1014.16,-1251.83 1012.55,-1258.64"/>
<text text-anchor="middle" x="804.18" y="-1058.41" font-family="Times,serif" font-size="10.00" fill="#767676">^5.4|^6.0|^7.0</text>
</g>
<!-- symfony/framework&#45;bundle&#45;&gt;symfony/config -->
<g id="edge75" class="edge">
<title>symfony/framework&#45;bundle&#45;&gt;symfony/config</title>
<path fill="none" stroke="#1a2833" d="M508.8,-567.26C521.49,-515.51 564.94,-366.01 658.68,-288.41 762.66,-202.33 842.45,-283.42 949.68,-201.41 961.73,-192.2 955.29,-181.17 967.68,-172.41 980.88,-163.08 996.3,-156.39 1012.09,-151.62"/>
<polygon fill="#1a2833" stroke="#1a2833" points="1013.24,-154.93 1021.94,-148.88 1011.37,-148.18 1013.24,-154.93"/>
<text text-anchor="middle" x="804.18" y="-291.41" font-family="Times,serif" font-size="10.00" fill="#767676">^6.1|^7.0</text>
</g>
<!-- symfony/framework&#45;bundle&#45;&gt;symfony/deprecation&#45;contracts -->
<g id="edge77" class="edge">
<title>symfony/framework&#45;bundle&#45;&gt;symfony/deprecation&#45;contracts</title>
<path fill="none" stroke="#1a2833" d="M531.28,-603.48C562.1,-625.78 612.27,-666.55 640.68,-713.41 655.99,-738.68 636.01,-758.46 658.68,-777.41 708.52,-819.08 885.2,-797.48 949.68,-805.41 1089.29,-822.6 1164.36,-751.81 1262.68,-852.41 1307.14,-897.91 1236.96,-948.2 1280.68,-994.41 1289.21,-1003.43 1337.61,-1013.37 1390.07,-1021.78"/>
<polygon fill="#1a2833" stroke="#1a2833" points="1389.83,-1025.28 1400.25,-1023.38 1390.92,-1018.37 1389.83,-1025.28"/>
<text text-anchor="middle" x="1115.18" y="-855.41" font-family="Times,serif" font-size="10.00" fill="#767676">^2.5|^3</text>
</g>
<!-- symfony/framework&#45;bundle&#45;&gt;symfony/filesystem -->
<g id="edge80" class="edge">
<title>symfony/framework&#45;bundle&#45;&gt;symfony/filesystem</title>
<path fill="none" stroke="#1a2833" d="M509.32,-567.37C522.85,-518.85 567.22,-385.3 658.68,-327.41 713.57,-292.67 901.51,-343.01 949.68,-299.41 980.24,-271.74 937.36,-236.35 967.68,-208.41 984.1,-193.27 1257.95,-167.35 1419.65,-153.25"/>
<polygon fill="#1a2833" stroke="#1a2833" points="1419.99,-156.73 1429.65,-152.38 1419.39,-149.76 1419.99,-156.73"/>
<text text-anchor="middle" x="1115.18" y="-211.41" font-family="Times,serif" font-size="10.00" fill="#767676">^5.4|^6.0|^7.0</text>
</g>
<!-- symfony/framework&#45;bundle&#45;&gt;symfony/dependency&#45;injection -->
<g id="edge76" class="edge">
<title>symfony/framework&#45;bundle&#45;&gt;symfony/dependency&#45;injection</title>
<path fill="none" stroke="#1a2833" d="M536.48,-603.44C568.54,-623.44 616.61,-658.86 640.68,-703.41 669.03,-755.89 615.34,-795.42 658.68,-836.41 705.8,-880.99 901.66,-815.79 949.68,-859.41 983.75,-890.37 935.79,-928.21 967.68,-961.41 970.54,-964.39 973.6,-967.12 976.84,-969.63"/>
<polygon fill="#1a2833" stroke="#1a2833" points="975,-972.61 985.23,-975.4 978.97,-966.84 975,-972.61"/>
<text text-anchor="middle" x="804.18" y="-862.41" font-family="Times,serif" font-size="10.00" fill="#767676">^6.4.12|^7.0</text>
</g>
<!-- symfony/framework&#45;bundle&#45;&gt;symfony/event&#45;dispatcher -->
<g id="edge79" class="edge">
<title>symfony/framework&#45;bundle&#45;&gt;symfony/event&#45;dispatcher</title>
<path fill="none" stroke="#1a2833" d="M510.08,-567.15C524.94,-520.57 571.22,-397.39 658.68,-345.41 714.41,-312.29 887.15,-341.57 949.68,-324.41 958.3,-322.05 959.19,-318.25 967.68,-315.41 974.59,-313.1 981.76,-310.97 989.04,-309.01"/>
<polygon fill="#1a2833" stroke="#1a2833" points="990.21,-312.32 999.02,-306.44 988.47,-305.54 990.21,-312.32"/>
<text text-anchor="middle" x="804.18" y="-348.41" font-family="Times,serif" font-size="10.00" fill="#767676">^5.4|^6.0|^7.0</text>
</g>
<!-- symfony/framework&#45;bundle&#45;&gt;symfony/finder -->
<g id="edge81" class="edge">
<title>symfony/framework&#45;bundle&#45;&gt;symfony/finder</title>
<path fill="none" stroke="#1a2833" d="M527.3,-603.56C555.97,-625.41 607.79,-661.19 658.68,-677.41 658.68,-677.41 877.96,-694.74 1012.23,-705.36"/>
<polygon fill="#1a2833" stroke="#1a2833" points="1012.3,-708.87 1022.55,-706.17 1012.85,-701.89 1012.3,-708.87"/>
<text text-anchor="middle" x="804.18" y="-703.41" font-family="Times,serif" font-size="10.00" fill="#767676">^5.4|^6.0|^7.0</text>
</g>
<!-- ext&#45;xml -->
<g id="node45" class="node">
<title>ext&#45;xml</title>
<path fill="#eeeeee" stroke="black" d="M1138.18,-360.41C1138.18,-360.41 1092.18,-360.41 1092.18,-360.41 1086.18,-360.41 1080.18,-354.41 1080.18,-348.41 1080.18,-348.41 1080.18,-336.41 1080.18,-336.41 1080.18,-330.41 1086.18,-324.41 1092.18,-324.41 1092.18,-324.41 1138.18,-324.41 1138.18,-324.41 1144.18,-324.41 1150.18,-330.41 1150.18,-336.41 1150.18,-336.41 1150.18,-348.41 1150.18,-348.41 1150.18,-354.41 1144.18,-360.41 1138.18,-360.41"/>
<text text-anchor="middle" x="1115.18" y="-338.71" font-family="Times,serif" font-size="14.00" fill="#314b5f">ext&#45;xml</text>
</g>
<!-- symfony/framework&#45;bundle&#45;&gt;ext&#45;xml -->
<g id="edge72" class="edge">
<title>symfony/framework&#45;bundle&#45;&gt;ext&#45;xml</title>
<path fill="none" stroke="#1a2833" d="M512.44,-567.37C530.96,-526.82 581.98,-428.72 658.68,-386.41 715.56,-355.04 885.01,-364.67 949.68,-358.41 990.39,-354.47 1036.78,-349.96 1069.89,-346.73"/>
<polygon fill="#1a2833" stroke="#1a2833" points="1070.54,-350.19 1080.15,-345.73 1069.86,-343.22 1070.54,-350.19"/>
<text text-anchor="middle" x="804.18" y="-389.41" font-family="Times,serif" font-size="10.00" fill="#767676">*</text>
</g>
<!-- symfony/error&#45;handler -->
<g id="node46" class="node">
<title>symfony/error&#45;handler</title>
<path fill="#eeeeee" stroke="black" d="M1222.68,-630.41C1222.68,-630.41 1007.68,-630.41 1007.68,-630.41 1001.68,-630.41 995.68,-624.41 995.68,-618.41 995.68,-618.41 995.68,-606.41 995.68,-606.41 995.68,-600.41 1001.68,-594.41 1007.68,-594.41 1007.68,-594.41 1222.68,-594.41 1222.68,-594.41 1228.68,-594.41 1234.68,-600.41 1234.68,-606.41 1234.68,-606.41 1234.68,-618.41 1234.68,-618.41 1234.68,-624.41 1228.68,-630.41 1222.68,-630.41"/>
<text text-anchor="middle" x="1115.18" y="-608.71" font-family="Times,serif" font-size="14.00" fill="#314b5f">symfony/error&#45;handler: v6.4.20</text>
</g>
<!-- symfony/framework&#45;bundle&#45;&gt;symfony/error&#45;handler -->
<g id="edge78" class="edge">
<title>symfony/framework&#45;bundle&#45;&gt;symfony/error&#45;handler</title>
<path fill="none" stroke="#1a2833" d="M640.7,-591.44C743.65,-596 884.1,-602.22 985.27,-606.7"/>
<polygon fill="#1a2833" stroke="#1a2833" points="985.4,-610.21 995.55,-607.16 985.71,-603.22 985.4,-610.21"/>
<text text-anchor="middle" x="804.18" y="-608.41" font-family="Times,serif" font-size="10.00" fill="#767676">^6.1|^7.0</text>
</g>
<!-- symfony/http&#45;foundation -->
<g id="node47" class="node">
<title>symfony/http&#45;foundation</title>
<path fill="#eeeeee" stroke="black" d="M1230.18,-576.41C1230.18,-576.41 1000.18,-576.41 1000.18,-576.41 994.18,-576.41 988.18,-570.41 988.18,-564.41 988.18,-564.41 988.18,-552.41 988.18,-552.41 988.18,-546.41 994.18,-540.41 1000.18,-540.41 1000.18,-540.41 1230.18,-540.41 1230.18,-540.41 1236.18,-540.41 1242.18,-546.41 1242.18,-552.41 1242.18,-552.41 1242.18,-564.41 1242.18,-564.41 1242.18,-570.41 1236.18,-576.41 1230.18,-576.41"/>
<text text-anchor="middle" x="1115.18" y="-554.71" font-family="Times,serif" font-size="14.00" fill="#314b5f">symfony/http&#45;foundation: v6.4.18</text>
</g>
<!-- symfony/framework&#45;bundle&#45;&gt;symfony/http&#45;foundation -->
<g id="edge82" class="edge">
<title>symfony/framework&#45;bundle&#45;&gt;symfony/http&#45;foundation</title>
<path fill="none" stroke="#1a2833" d="M640.72,-579.22C646.79,-578.95 652.79,-578.68 658.68,-578.41 765.96,-573.62 887.45,-568.29 977.97,-564.34"/>
<polygon fill="#1a2833" stroke="#1a2833" points="978.18,-567.83 988.02,-563.9 977.87,-560.84 978.18,-567.83"/>
<text text-anchor="middle" x="804.18" y="-581.41" font-family="Times,serif" font-size="10.00" fill="#767676">^6.4|^7.0</text>
</g>
<!-- symfony/http&#45;kernel -->
<g id="node48" class="node">
<title>symfony/http&#45;kernel</title>
<path fill="#eeeeee" stroke="black" d="M1214.68,-522.41C1214.68,-522.41 1015.68,-522.41 1015.68,-522.41 1009.68,-522.41 1003.68,-516.41 1003.68,-510.41 1003.68,-510.41 1003.68,-498.41 1003.68,-498.41 1003.68,-492.41 1009.68,-486.41 1015.68,-486.41 1015.68,-486.41 1214.68,-486.41 1214.68,-486.41 1220.68,-486.41 1226.68,-492.41 1226.68,-498.41 1226.68,-498.41 1226.68,-510.41 1226.68,-510.41 1226.68,-516.41 1220.68,-522.41 1214.68,-522.41"/>
<text text-anchor="middle" x="1115.18" y="-500.71" font-family="Times,serif" font-size="14.00" fill="#314b5f">symfony/http&#45;kernel: v6.4.20</text>
</g>
<!-- symfony/framework&#45;bundle&#45;&gt;symfony/http&#45;kernel -->
<g id="edge83" class="edge">
<title>symfony/framework&#45;bundle&#45;&gt;symfony/http&#45;kernel</title>
<path fill="none" stroke="#1a2833" d="M578.37,-567.34C603.7,-561.61 632.32,-555.67 658.68,-551.41 771.39,-533.22 901,-520.64 993.07,-513.11"/>
<polygon fill="#1a2833" stroke="#1a2833" points="993.57,-516.58 1003.26,-512.29 993.01,-509.61 993.57,-516.58"/>
<text text-anchor="middle" x="804.18" y="-554.41" font-family="Times,serif" font-size="10.00" fill="#767676">^6.4</text>
</g>
<!-- symfony/polyfill&#45;mbstring -->
<g id="node49" class="node">
<title>symfony/polyfill&#45;mbstring</title>
<path fill="#eeeeee" stroke="black" d="M1233.68,-468.41C1233.68,-468.41 996.68,-468.41 996.68,-468.41 990.68,-468.41 984.68,-462.41 984.68,-456.41 984.68,-456.41 984.68,-444.41 984.68,-444.41 984.68,-438.41 990.68,-432.41 996.68,-432.41 996.68,-432.41 1233.68,-432.41 1233.68,-432.41 1239.68,-432.41 1245.68,-438.41 1245.68,-444.41 1245.68,-444.41 1245.68,-456.41 1245.68,-456.41 1245.68,-462.41 1239.68,-468.41 1233.68,-468.41"/>
<text text-anchor="middle" x="1115.18" y="-446.71" font-family="Times,serif" font-size="14.00" fill="#314b5f">symfony/polyfill&#45;mbstring: v1.31.0</text>
</g>
<!-- symfony/framework&#45;bundle&#45;&gt;symfony/polyfill&#45;mbstring -->
<g id="edge84" class="edge">
<title>symfony/framework&#45;bundle&#45;&gt;symfony/polyfill&#45;mbstring</title>
<path fill="none" stroke="#1a2833" d="M531.13,-567.34C560.78,-548.06 610.97,-518.31 658.68,-503.41 761.41,-471.35 882.66,-458.37 974.22,-453.26"/>
<polygon fill="#1a2833" stroke="#1a2833" points="974.59,-456.74 984.39,-452.72 974.22,-449.75 974.59,-456.74"/>
<text text-anchor="middle" x="804.18" y="-506.41" font-family="Times,serif" font-size="10.00" fill="#767676">~1.0</text>
</g>
<!-- symfony/routing -->
<g id="node50" class="node">
<title>symfony/routing</title>
<path fill="#eeeeee" stroke="black" d="M1201.18,-414.41C1201.18,-414.41 1029.18,-414.41 1029.18,-414.41 1023.18,-414.41 1017.18,-408.41 1017.18,-402.41 1017.18,-402.41 1017.18,-390.41 1017.18,-390.41 1017.18,-384.41 1023.18,-378.41 1029.18,-378.41 1029.18,-378.41 1201.18,-378.41 1201.18,-378.41 1207.18,-378.41 1213.18,-384.41 1213.18,-390.41 1213.18,-390.41 1213.18,-402.41 1213.18,-402.41 1213.18,-408.41 1207.18,-414.41 1201.18,-414.41"/>
<text text-anchor="middle" x="1115.18" y="-392.71" font-family="Times,serif" font-size="14.00" fill="#314b5f">symfony/routing: v6.4.18</text>
</g>
<!-- symfony/framework&#45;bundle&#45;&gt;symfony/routing -->
<g id="edge85" class="edge">
<title>symfony/framework&#45;bundle&#45;&gt;symfony/routing</title>
<path fill="none" stroke="#1a2833" d="M517.44,-567.22C541.08,-535.15 595.13,-469.23 658.68,-440.41 718.68,-413.2 892.15,-402.78 1006.86,-398.81"/>
<polygon fill="#1a2833" stroke="#1a2833" points="1007.21,-402.3 1017.08,-398.47 1006.97,-395.31 1007.21,-402.3"/>
<text text-anchor="middle" x="804.18" y="-443.41" font-family="Times,serif" font-size="10.00" fill="#767676">^6.4|^7.0</text>
</g>
<!-- bamarni/composer&#45;bin&#45;plugin&#45;&gt;php -->
<g id="edge88" class="edge">
<title>bamarni/composer&#45;bin&#45;plugin&#45;&gt;php</title>
<path fill="none" stroke="#1a2833" d="M639.28,-228C824.26,-226.95 1147.24,-228.53 1262.68,-250.41 1306.32,-258.69 1325.61,-252.66 1356.68,-284.41 1375.46,-303.62 1494.56,-683.1 1527.97,-790.38"/>
<polygon fill="#1a2833" stroke="#1a2833" points="1524.7,-791.66 1531.02,-800.17 1531.39,-789.58 1524.7,-791.66"/>
<text text-anchor="middle" x="1115.18" y="-253.41" font-family="Times,serif" font-size="10.00" fill="#767676">^7.2.5 || ^8.0</text>
</g>
<!-- composer&#45;plugin&#45;api -->
<g id="node52" class="node">
<title>composer&#45;plugin&#45;api</title>
<path fill="#eeeeee" stroke="black" d="M1183.68,-104.41C1183.68,-104.41 1046.68,-104.41 1046.68,-104.41 1040.68,-104.41 1034.68,-98.41 1034.68,-92.41 1034.68,-92.41 1034.68,-80.41 1034.68,-80.41 1034.68,-74.41 1040.68,-68.41 1046.68,-68.41 1046.68,-68.41 1183.68,-68.41 1183.68,-68.41 1189.68,-68.41 1195.68,-74.41 1195.68,-80.41 1195.68,-80.41 1195.68,-92.41 1195.68,-92.41 1195.68,-98.41 1189.68,-104.41 1183.68,-104.41"/>
<text text-anchor="middle" x="1115.18" y="-82.71" font-family="Times,serif" font-size="14.00" fill="#314b5f">composer&#45;plugin&#45;api</text>
</g>
<!-- bamarni/composer&#45;bin&#45;plugin&#45;&gt;composer&#45;plugin&#45;api -->
<g id="edge87" class="edge">
<title>bamarni/composer&#45;bin&#45;plugin&#45;&gt;composer&#45;plugin&#45;api</title>
<path fill="none" stroke="#1a2833" d="M571.07,-211.37C660.7,-187.34 825.56,-144.28 967.68,-113.41 985.99,-109.44 1005.68,-105.55 1024.49,-102.01"/>
<polygon fill="#1a2833" stroke="#1a2833" points="1025.35,-105.41 1034.54,-100.14 1024.07,-98.53 1025.35,-105.41"/>
<text text-anchor="middle" x="804.18" y="-189.41" font-family="Times,serif" font-size="10.00" fill="#767676">^2.0</text>
</g>
</g>
</svg>
