<?xml version="1.0" encoding="UTF-8" standalone="no"?>
<!DOCTYPE svg PUBLIC "-//W3C//DTD SVG 1.1//EN"
 "http://www.w3.org/Graphics/SVG/1.1/DTD/svg11.dtd">
<!-- Generated by graphviz version 2.43.0 (0)
 -->
<!-- Title: %3 Pages: 1 -->
<svg width="2221pt" height="1558pt"
 viewBox="0.00 0.00 2221.00 1558.00" xmlns="http://www.w3.org/2000/svg" xmlns:xlink="http://www.w3.org/1999/xlink">
<g id="graph0" class="graph" transform="scale(1 1) rotate(0) translate(4 1554)">
<title>%3</title>
<g id="clust1" class="cluster">
<title>cluster_0</title>
<polygon fill="#ffd39b" stroke="black" points="177,-1319 177,-1542 1296,-1542 1296,-1319 177,-1319"/>
<text text-anchor="middle" x="736.5" y="-1526.8" font-family="Times,serif" font-size="14.00">Bartlett\CompatInfoDb\Application\Query\Diagnose</text>
</g>
<g id="clust2" class="cluster">
<title>cluster_1</title>
<polygon fill="#cdaa7d" stroke="black" points="1485,-773 1485,-1030 2205,-1030 2205,-773 1485,-773"/>
<text text-anchor="middle" x="1845" y="-1014.8" font-family="Times,serif" font-size="14.00">Bartlett\CompatInfoDb\Application\Query</text>
</g>
<g id="clust3" class="cluster">
<title>cluster_2</title>
<polygon fill="#ffd39b" stroke="black" points="314,-988 314,-1311 1159,-1311 1159,-988 314,-988"/>
<text text-anchor="middle" x="736.5" y="-1295.8" font-family="Times,serif" font-size="14.00">Bartlett\CompatInfoDb\Application\Query\Doctor</text>
</g>
<g id="clust4" class="cluster">
<title>cluster_3</title>
<polygon fill="#ffd39b" stroke="black" points="233.5,-8 233.5,-541 1239.5,-541 1239.5,-8 233.5,-8"/>
<text text-anchor="middle" x="736.5" y="-525.8" font-family="Times,serif" font-size="14.00">Bartlett\CompatInfoDb\Application\Query\ListRef</text>
</g>
<g id="clust5" class="cluster">
<title>cluster_4</title>
<polygon fill="#ffd39b" stroke="black" points="1606,-27 1606,-392 2084,-392 2084,-27 1606,-27"/>
<text text-anchor="middle" x="1845" y="-376.8" font-family="Times,serif" font-size="14.00">Bartlett\CompatInfoDb\Domain\Factory</text>
</g>
<g id="clust6" class="cluster">
<title>cluster_5</title>
<polygon fill="#ffd39b" stroke="black" points="8,-549 8,-980 1465,-980 1465,-549 8,-549"/>
<text text-anchor="middle" x="736.5" y="-964.8" font-family="Times,serif" font-size="14.00">Bartlett\CompatInfoDb\Application\Query\Show</text>
</g>
<!-- Bartlett\\CompatInfoDb\\Application\\Query\\Diagnose\\DiagnoseQuery -->
<g id="node1" class="node">
<title>Bartlett\\CompatInfoDb\\Application\\Query\\Diagnose\\DiagnoseQuery</title>
<polygon fill="#fefece" stroke="transparent" points="951,-1511 522,-1511 522,-1419 951,-1419 951,-1511"/>
<polygon fill="#eeeeee" stroke="transparent" points="530.5,-1473 530.5,-1507 943.5,-1507 943.5,-1473 530.5,-1473"/>
<polygon fill="none" stroke="black" points="530.5,-1473 530.5,-1507 943.5,-1507 943.5,-1473 530.5,-1473"/>
<text text-anchor="start" x="676.5" y="-1479.8" font-family="Times,serif" font-weight="bold" font-size="14.00">DiagnoseQuery</text>
<polygon fill="none" stroke="black" points="530.5,-1467 530.5,-1473 943.5,-1473 943.5,-1467 530.5,-1467"/>
<polygon fill="none" stroke="black" points="530.5,-1423 530.5,-1467 943.5,-1467 943.5,-1423 530.5,-1423"/>
<text text-anchor="start" x="535.5" y="-1450.8" font-family="Times,serif" font-size="14.00">+ __construct(connection : Doctrine\DBAL\Connection)</text>
<text text-anchor="start" x="535.5" y="-1431.8" font-family="Times,serif" font-size="14.00">+ getDatabaseConnection() : Doctrine\DBAL\Connection</text>
</g>
<!-- Bartlett\\CompatInfoDb\\Application\\Query\\QueryInterface -->
<g id="node3" class="node">
<title>Bartlett\\CompatInfoDb\\Application\\Query\\QueryInterface</title>
<polygon fill="#fefece" stroke="transparent" points="1916.5,-999 1773.5,-999 1773.5,-945 1916.5,-945 1916.5,-999"/>
<polygon fill="#eeeeee" stroke="transparent" points="1782,-961 1782,-995 1909,-995 1909,-961 1782,-961"/>
<polygon fill="none" stroke="black" points="1782,-961 1782,-995 1909,-995 1909,-961 1782,-961"/>
<text text-anchor="start" x="1800.5" y="-981.8" font-family="Times,serif" font-weight="bold" font-size="14.00">«interface»</text>
<text text-anchor="start" x="1785" y="-967.8" font-family="Times,serif" font-weight="bold" font-size="14.00">QueryInterface</text>
<polygon fill="none" stroke="black" points="1782,-955 1782,-961 1909,-961 1909,-955 1782,-955"/>
<polygon fill="none" stroke="black" points="1782,-949 1782,-955 1909,-955 1909,-949 1782,-949"/>
</g>
<!-- Bartlett\\CompatInfoDb\\Application\\Query\\Diagnose\\DiagnoseQuery&#45;&gt;Bartlett\\CompatInfoDb\\Application\\Query\\QueryInterface -->
<g id="edge1" class="edge">
<title>Bartlett\\CompatInfoDb\\Application\\Query\\Diagnose\\DiagnoseQuery&#45;&gt;Bartlett\\CompatInfoDb\\Application\\Query\\QueryInterface</title>
<path fill="none" stroke="black" stroke-dasharray="5,2" d="M951.07,-1490.39C1102.44,-1498.79 1306.05,-1490.04 1465,-1410 1647.63,-1318.04 1779.25,-1095.83 1825.67,-1008.3"/>
<polygon fill="none" stroke="black" points="1828.86,-1009.76 1830.4,-999.28 1822.66,-1006.51 1828.86,-1009.76"/>
</g>
<!-- Bartlett\\CompatInfoDb\\Application\\Query\\Diagnose\\DiagnoseHandler -->
<g id="node2" class="node">
<title>Bartlett\\CompatInfoDb\\Application\\Query\\Diagnose\\DiagnoseHandler</title>
<polygon fill="#fefece" stroke="transparent" points="1288,-1400.5 185,-1400.5 185,-1327.5 1288,-1327.5 1288,-1400.5"/>
<polygon fill="#eeeeee" stroke="transparent" points="193.5,-1362 193.5,-1396 1280.5,-1396 1280.5,-1362 193.5,-1362"/>
<polygon fill="none" stroke="black" points="193.5,-1362 193.5,-1396 1280.5,-1396 1280.5,-1362 193.5,-1362"/>
<text text-anchor="start" x="668" y="-1368.8" font-family="Times,serif" font-weight="bold" font-size="14.00">DiagnoseHandler</text>
<polygon fill="none" stroke="black" points="193.5,-1356 193.5,-1362 1280.5,-1362 1280.5,-1356 193.5,-1356"/>
<polygon fill="none" stroke="black" points="193.5,-1331 193.5,-1356 1280.5,-1356 1280.5,-1331 193.5,-1331"/>
<text text-anchor="start" x="198.5" y="-1339.8" font-family="Times,serif" font-size="14.00">+ __invoke(query : Bartlett\CompatInfoDb\Application\Query\Diagnose\DiagnoseQuery) : Bartlett\CompatInfoDb\Infrastructure\RequirementsInterface</text>
</g>
<!-- Bartlett\\CompatInfoDb\\Application\\Query\\QueryHandlerInterface -->
<g id="node4" class="node">
<title>Bartlett\\CompatInfoDb\\Application\\Query\\QueryHandlerInterface</title>
<polygon fill="#fefece" stroke="transparent" points="1948.5,-927 1741.5,-927 1741.5,-873 1948.5,-873 1948.5,-927"/>
<polygon fill="#eeeeee" stroke="transparent" points="1750,-889 1750,-923 1941,-923 1941,-889 1750,-889"/>
<polygon fill="none" stroke="black" points="1750,-889 1750,-923 1941,-923 1941,-889 1750,-889"/>
<text text-anchor="start" x="1800.5" y="-909.8" font-family="Times,serif" font-weight="bold" font-size="14.00">«interface»</text>
<text text-anchor="start" x="1753" y="-895.8" font-family="Times,serif" font-weight="bold" font-size="14.00">QueryHandlerInterface</text>
<polygon fill="none" stroke="black" points="1750,-883 1750,-889 1941,-889 1941,-883 1750,-883"/>
<polygon fill="none" stroke="black" points="1750,-877 1750,-883 1941,-883 1941,-877 1750,-877"/>
</g>
<!-- Bartlett\\CompatInfoDb\\Application\\Query\\Diagnose\\DiagnoseHandler&#45;&gt;Bartlett\\CompatInfoDb\\Application\\Query\\QueryHandlerInterface -->
<g id="edge2" class="edge">
<title>Bartlett\\CompatInfoDb\\Application\\Query\\Diagnose\\DiagnoseHandler&#45;&gt;Bartlett\\CompatInfoDb\\Application\\Query\\QueryHandlerInterface</title>
<path fill="none" stroke="black" stroke-dasharray="5,2" d="M1288.08,-1373.29C1368.57,-1363.68 1434.62,-1345.82 1465,-1315 1524.2,-1254.93 1426.79,-997.03 1485,-936 1546.57,-871.45 1650.73,-867.58 1731.05,-876.85"/>
<polygon fill="none" stroke="black" points="1730.86,-880.35 1741.22,-878.11 1731.72,-873.4 1730.86,-880.35"/>
</g>
<!-- Bartlett\\CompatInfoDb\\Application\\Query\\QueryBusInterface -->
<g id="node5" class="node">
<title>Bartlett\\CompatInfoDb\\Application\\Query\\QueryBusInterface</title>
<polygon fill="#fefece" stroke="transparent" points="2197,-854.5 1493,-854.5 1493,-781.5 2197,-781.5 2197,-854.5"/>
<polygon fill="#eeeeee" stroke="transparent" points="1501,-816 1501,-850 2189,-850 2189,-816 1501,-816"/>
<polygon fill="none" stroke="black" points="1501,-816 1501,-850 2189,-850 2189,-816 1501,-816"/>
<text text-anchor="start" x="1800" y="-836.8" font-family="Times,serif" font-weight="bold" font-size="14.00">«interface»</text>
<text text-anchor="start" x="1769.5" y="-822.8" font-family="Times,serif" font-weight="bold" font-size="14.00">QueryBusInterface</text>
<polygon fill="none" stroke="black" points="1501,-810 1501,-816 2189,-816 2189,-810 1501,-810"/>
<polygon fill="none" stroke="black" points="1501,-785 1501,-810 2189,-810 2189,-785 1501,-785"/>
<text text-anchor="start" x="1506" y="-793.8" font-family="Times,serif" font-size="14.00">+ «abstract» query(query : Bartlett\CompatInfoDb\Application\Query\QueryInterface) : ?mixed</text>
</g>
<!-- Bartlett\\CompatInfoDb\\Application\\Query\\Doctor\\DoctorQuery -->
<g id="node6" class="node">
<title>Bartlett\\CompatInfoDb\\Application\\Query\\Doctor\\DoctorQuery</title>
<polygon fill="#fefece" stroke="transparent" points="1151,-1280 322,-1280 322,-1150 1151,-1150 1151,-1280"/>
<polygon fill="#eeeeee" stroke="transparent" points="330.5,-1242 330.5,-1276 1143.5,-1276 1143.5,-1242 330.5,-1242"/>
<polygon fill="none" stroke="black" points="330.5,-1242 330.5,-1276 1143.5,-1276 1143.5,-1242 330.5,-1242"/>
<text text-anchor="start" x="687" y="-1248.8" font-family="Times,serif" font-weight="bold" font-size="14.00">DoctorQuery</text>
<polygon fill="none" stroke="black" points="330.5,-1236 330.5,-1242 1143.5,-1242 1143.5,-1236 330.5,-1236"/>
<polygon fill="none" stroke="black" points="330.5,-1154 330.5,-1236 1143.5,-1236 1143.5,-1154 330.5,-1154"/>
<text text-anchor="start" x="335.5" y="-1219.8" font-family="Times,serif" font-size="14.00">+ __construct(platform : Bartlett\CompatInfoDb\Domain\ValueObject\Platform, withTests : bool, version : string)</text>
<text text-anchor="start" x="335.5" y="-1200.8" font-family="Times,serif" font-size="14.00">+ getExtensions() : array</text>
<text text-anchor="start" x="335.5" y="-1181.8" font-family="Times,serif" font-size="14.00">+ withTests() : bool</text>
<text text-anchor="start" x="335.5" y="-1162.8" font-family="Times,serif" font-size="14.00">+ getVersion() : string</text>
</g>
<!-- Bartlett\\CompatInfoDb\\Application\\Query\\Doctor\\DoctorQuery&#45;&gt;Bartlett\\CompatInfoDb\\Application\\Query\\QueryInterface -->
<g id="edge3" class="edge">
<title>Bartlett\\CompatInfoDb\\Application\\Query\\Doctor\\DoctorQuery&#45;&gt;Bartlett\\CompatInfoDb\\Application\\Query\\QueryInterface</title>
<path fill="none" stroke="black" stroke-dasharray="5,2" d="M1151.38,-1195.86C1254.97,-1184.82 1365.02,-1167.64 1465,-1141 1585.17,-1108.98 1715.6,-1043.3 1787.81,-1003.92"/>
<polygon fill="none" stroke="black" points="1789.67,-1006.89 1796.76,-999.01 1786.3,-1000.75 1789.67,-1006.89"/>
</g>
<!-- Bartlett\\CompatInfoDb\\Application\\Query\\Doctor\\DoctorHandler -->
<g id="node7" class="node">
<title>Bartlett\\CompatInfoDb\\Application\\Query\\Doctor\\DoctorHandler</title>
<polygon fill="#fefece" stroke="transparent" points="1110,-1132 363,-1132 363,-996 1110,-996 1110,-1132"/>
<polygon fill="#eeeeee" stroke="transparent" points="371.5,-1094 371.5,-1128 1102.5,-1128 1102.5,-1094 371.5,-1094"/>
<polygon fill="none" stroke="black" points="371.5,-1094 371.5,-1128 1102.5,-1128 1102.5,-1094 371.5,-1094"/>
<text text-anchor="start" x="678" y="-1100.8" font-family="Times,serif" font-weight="bold" font-size="14.00">DoctorHandler</text>
<polygon fill="none" stroke="black" points="371.5,-1050 371.5,-1094 1102.5,-1094 1102.5,-1050 371.5,-1050"/>
<text text-anchor="start" x="376.5" y="-1077.8" font-family="Times,serif" font-size="14.00">+ «static» CONSTRAINT_SKIPPED : string = &quot;skipped&quot; {readOnly}</text>
<text text-anchor="start" x="376.5" y="-1058.8" font-family="Times,serif" font-size="14.00">+ «static» CONSTRAINT_PASSED : string = &quot;passed&quot; {readOnly}</text>
<polygon fill="none" stroke="black" points="371.5,-1044 371.5,-1050 1102.5,-1050 1102.5,-1044 371.5,-1044"/>
<polygon fill="none" stroke="black" points="371.5,-1000 371.5,-1044 1102.5,-1044 1102.5,-1000 371.5,-1000"/>
<text text-anchor="start" x="376.5" y="-1027.8" font-family="Times,serif" font-size="14.00">+ __construct(extensionFactory : Bartlett\CompatInfoDb\Domain\Factory\ExtensionFactoryInterface)</text>
<text text-anchor="start" x="376.5" y="-1008.8" font-family="Times,serif" font-size="14.00">+ __invoke(query : Bartlett\CompatInfoDb\Application\Query\Doctor\DoctorQuery) : array</text>
</g>
<!-- Bartlett\\CompatInfoDb\\Application\\Query\\Doctor\\DoctorHandler&#45;&gt;Bartlett\\CompatInfoDb\\Application\\Query\\QueryHandlerInterface -->
<g id="edge4" class="edge">
<title>Bartlett\\CompatInfoDb\\Application\\Query\\Doctor\\DoctorHandler&#45;&gt;Bartlett\\CompatInfoDb\\Application\\Query\\QueryHandlerInterface</title>
<path fill="none" stroke="black" stroke-dasharray="5,2" d="M1110.08,-1095.66C1233.36,-1088.3 1364.56,-1059.21 1465,-984 1483.5,-970.15 1466.43,-949.76 1485,-936 1554.83,-884.23 1654.44,-878.01 1731.03,-883.17"/>
<polygon fill="none" stroke="black" points="1730.97,-886.67 1741.2,-883.93 1731.49,-879.69 1730.97,-886.67"/>
</g>
<!-- Bartlett\\CompatInfoDb\\Application\\Query\\ListRef\\ListQuery -->
<g id="node8" class="node">
<title>Bartlett\\CompatInfoDb\\Application\\Query\\ListRef\\ListQuery</title>
<polygon fill="#fefece" stroke="transparent" points="939,-509.5 534,-509.5 534,-398.5 939,-398.5 939,-509.5"/>
<polygon fill="#eeeeee" stroke="transparent" points="542.5,-471 542.5,-505 931.5,-505 931.5,-471 542.5,-471"/>
<polygon fill="none" stroke="black" points="542.5,-471 542.5,-505 931.5,-505 931.5,-471 542.5,-471"/>
<text text-anchor="start" x="698" y="-477.8" font-family="Times,serif" font-weight="bold" font-size="14.00">ListQuery</text>
<polygon fill="none" stroke="black" points="542.5,-465 542.5,-471 931.5,-471 931.5,-465 542.5,-465"/>
<polygon fill="none" stroke="black" points="542.5,-402 542.5,-465 931.5,-465 931.5,-402 542.5,-402"/>
<text text-anchor="start" x="547.5" y="-448.8" font-family="Times,serif" font-size="14.00">+ __construct(appVersion : string, filters : array = [])</text>
<text text-anchor="start" x="547.5" y="-429.8" font-family="Times,serif" font-size="14.00">+ getAppVersion() : string</text>
<text text-anchor="start" x="547.5" y="-410.8" font-family="Times,serif" font-size="14.00">+ getFilters() : array</text>
</g>
<!-- Bartlett\\CompatInfoDb\\Application\\Query\\ListRef\\ListQuery&#45;&gt;Bartlett\\CompatInfoDb\\Application\\Query\\QueryInterface -->
<g id="edge5" class="edge">
<title>Bartlett\\CompatInfoDb\\Application\\Query\\ListRef\\ListQuery&#45;&gt;Bartlett\\CompatInfoDb\\Application\\Query\\QueryInterface</title>
<path fill="none" stroke="black" stroke-dasharray="5,2" d="M939.06,-416.22C1105.33,-397.86 1334.38,-404.43 1465,-545 1494.61,-576.87 1455,-904.5 1485,-936 1555.18,-1009.7 1680.89,-1004.35 1763.37,-990.61"/>
<polygon fill="none" stroke="black" points="1764.2,-994.01 1773.45,-988.85 1763,-987.12 1764.2,-994.01"/>
</g>
<!-- Bartlett\\CompatInfoDb\\Application\\Query\\ListRef\\ListHandler -->
<g id="node9" class="node">
<title>Bartlett\\CompatInfoDb\\Application\\Query\\ListRef\\ListHandler</title>
<polygon fill="#fefece" stroke="transparent" points="1231.5,-380 241.5,-380 241.5,-16 1231.5,-16 1231.5,-380"/>
<polygon fill="#eeeeee" stroke="transparent" points="249.5,-342 249.5,-376 1223.5,-376 1223.5,-342 249.5,-342"/>
<polygon fill="none" stroke="black" points="249.5,-342 249.5,-376 1223.5,-376 1223.5,-342 249.5,-342"/>
<text text-anchor="start" x="689" y="-348.8" font-family="Times,serif" font-weight="bold" font-size="14.00">ListHandler</text>
<polygon fill="none" stroke="black" points="249.5,-70 249.5,-342 1223.5,-342 1223.5,-70 249.5,-70"/>
<text text-anchor="start" x="254.5" y="-325.8" font-family="Times,serif" font-size="14.00">+ «static» LATEST_PHP_5_2 : string = &quot;5\.2\.17&quot; {readOnly}</text>
<text text-anchor="start" x="254.5" y="-306.8" font-family="Times,serif" font-size="14.00">+ «static» LATEST_PHP_5_3 : string = &quot;5\.3\.29&quot; {readOnly}</text>
<text text-anchor="start" x="254.5" y="-287.8" font-family="Times,serif" font-size="14.00">+ «static» LATEST_PHP_5_4 : string = &quot;5\.4\.45&quot; {readOnly}</text>
<text text-anchor="start" x="254.5" y="-268.8" font-family="Times,serif" font-size="14.00">+ «static» LATEST_PHP_5_5 : string = &quot;5\.5\.38&quot; {readOnly}</text>
<text text-anchor="start" x="254.5" y="-249.8" font-family="Times,serif" font-size="14.00">+ «static» LATEST_PHP_5_6 : string = &quot;5\.6\.40&quot; {readOnly}</text>
<text text-anchor="start" x="254.5" y="-230.8" font-family="Times,serif" font-size="14.00">+ «static» LATEST_PHP_7_0 : string = &quot;7\.0\.33&quot; {readOnly}</text>
<text text-anchor="start" x="254.5" y="-211.8" font-family="Times,serif" font-size="14.00">+ «static» LATEST_PHP_7_1 : string = &quot;7\.1\.33&quot; {readOnly}</text>
<text text-anchor="start" x="254.5" y="-192.8" font-family="Times,serif" font-size="14.00">+ «static» LATEST_PHP_7_2 : string = &quot;7\.2\.34&quot; {readOnly}</text>
<text text-anchor="start" x="254.5" y="-173.8" font-family="Times,serif" font-size="14.00">+ «static» LATEST_PHP_7_3 : string = &quot;7\.3\.33&quot; {readOnly}</text>
<text text-anchor="start" x="254.5" y="-154.8" font-family="Times,serif" font-size="14.00">+ «static» LATEST_PHP_7_4 : string = &quot;7\.4\.33&quot; {readOnly}</text>
<text text-anchor="start" x="254.5" y="-135.8" font-family="Times,serif" font-size="14.00">+ «static» LATEST_PHP_8_0 : string = &quot;8\.0\.30&quot; {readOnly}</text>
<text text-anchor="start" x="254.5" y="-116.8" font-family="Times,serif" font-size="14.00">+ «static» LATEST_PHP_8_1 : string = &quot;8\.1\.26&quot; {readOnly}</text>
<text text-anchor="start" x="254.5" y="-97.8" font-family="Times,serif" font-size="14.00">+ «static» LATEST_PHP_8_2 : string = &quot;8\.2\.13&quot; {readOnly}</text>
<text text-anchor="start" x="254.5" y="-78.8" font-family="Times,serif" font-size="14.00">+ «static» LATEST_PHP_8_3 : string = &quot;8\.3\.0&quot; {readOnly}</text>
<polygon fill="none" stroke="black" points="249.5,-64 249.5,-70 1223.5,-70 1223.5,-64 249.5,-64"/>
<polygon fill="none" stroke="black" points="249.5,-20 249.5,-64 1223.5,-64 1223.5,-20 249.5,-20"/>
<text text-anchor="start" x="254.5" y="-47.8" font-family="Times,serif" font-size="14.00">+ __construct(distributionRepository : Bartlett\CompatInfoDb\Domain\Repository\DistributionRepository)</text>
<text text-anchor="start" x="254.5" y="-28.8" font-family="Times,serif" font-size="14.00">+ __invoke(query : Bartlett\CompatInfoDb\Application\Query\ListRef\ListQuery) : Bartlett\CompatInfoDb\Domain\ValueObject\Platform</text>
</g>
<!-- Bartlett\\CompatInfoDb\\Application\\Query\\ListRef\\ListHandler&#45;&gt;Bartlett\\CompatInfoDb\\Application\\Query\\QueryHandlerInterface -->
<g id="edge6" class="edge">
<title>Bartlett\\CompatInfoDb\\Application\\Query\\ListRef\\ListHandler&#45;&gt;Bartlett\\CompatInfoDb\\Application\\Query\\QueryHandlerInterface</title>
<path fill="none" stroke="black" stroke-dasharray="5,2" d="M1231.93,-238.23C1321.81,-268.15 1405.72,-315.4 1465,-389 1498.14,-430.14 1448.74,-825.58 1485,-864 1546.33,-928.98 1650.78,-932.72 1731.25,-923.3"/>
<polygon fill="none" stroke="black" points="1731.95,-926.74 1741.44,-922.02 1731.08,-919.79 1731.95,-926.74"/>
</g>
<!-- Bartlett\\CompatInfoDb\\Domain\\Factory\\ExtensionVersionProviderInterface -->
<g id="node10" class="node">
<title>Bartlett\\CompatInfoDb\\Domain\\Factory\\ExtensionVersionProviderInterface</title>
<polygon fill="#fefece" stroke="transparent" points="2076,-361 1614,-361 1614,-35 2076,-35 2076,-361"/>
<polygon fill="#eeeeee" stroke="transparent" points="1622,-323 1622,-357 2068,-357 2068,-323 1622,-323"/>
<polygon fill="none" stroke="black" points="1622,-323 1622,-357 2068,-357 2068,-323 1622,-323"/>
<text text-anchor="start" x="1800" y="-343.8" font-family="Times,serif" font-weight="bold" font-size="14.00">«interface»</text>
<text text-anchor="start" x="1706.5" y="-329.8" font-family="Times,serif" font-weight="bold" font-size="14.00">ExtensionVersionProviderInterface</text>
<polygon fill="none" stroke="black" points="1622,-51 1622,-323 2068,-323 2068,-51 1622,-51"/>
<text text-anchor="start" x="1627" y="-306.8" font-family="Times,serif" font-size="14.00">+ «static» LATEST_PHP_5_2 : string = &quot;5\.2\.17&quot; {readOnly}</text>
<text text-anchor="start" x="1627" y="-287.8" font-family="Times,serif" font-size="14.00">+ «static» LATEST_PHP_5_3 : string = &quot;5\.3\.29&quot; {readOnly}</text>
<text text-anchor="start" x="1627" y="-268.8" font-family="Times,serif" font-size="14.00">+ «static» LATEST_PHP_5_4 : string = &quot;5\.4\.45&quot; {readOnly}</text>
<text text-anchor="start" x="1627" y="-249.8" font-family="Times,serif" font-size="14.00">+ «static» LATEST_PHP_5_5 : string = &quot;5\.5\.38&quot; {readOnly}</text>
<text text-anchor="start" x="1627" y="-230.8" font-family="Times,serif" font-size="14.00">+ «static» LATEST_PHP_5_6 : string = &quot;5\.6\.40&quot; {readOnly}</text>
<text text-anchor="start" x="1627" y="-211.8" font-family="Times,serif" font-size="14.00">+ «static» LATEST_PHP_7_0 : string = &quot;7\.0\.33&quot; {readOnly}</text>
<text text-anchor="start" x="1627" y="-192.8" font-family="Times,serif" font-size="14.00">+ «static» LATEST_PHP_7_1 : string = &quot;7\.1\.33&quot; {readOnly}</text>
<text text-anchor="start" x="1627" y="-173.8" font-family="Times,serif" font-size="14.00">+ «static» LATEST_PHP_7_2 : string = &quot;7\.2\.34&quot; {readOnly}</text>
<text text-anchor="start" x="1627" y="-154.8" font-family="Times,serif" font-size="14.00">+ «static» LATEST_PHP_7_3 : string = &quot;7\.3\.33&quot; {readOnly}</text>
<text text-anchor="start" x="1627" y="-135.8" font-family="Times,serif" font-size="14.00">+ «static» LATEST_PHP_7_4 : string = &quot;7\.4\.33&quot; {readOnly}</text>
<text text-anchor="start" x="1627" y="-116.8" font-family="Times,serif" font-size="14.00">+ «static» LATEST_PHP_8_0 : string = &quot;8\.0\.30&quot; {readOnly}</text>
<text text-anchor="start" x="1627" y="-97.8" font-family="Times,serif" font-size="14.00">+ «static» LATEST_PHP_8_1 : string = &quot;8\.1\.26&quot; {readOnly}</text>
<text text-anchor="start" x="1627" y="-78.8" font-family="Times,serif" font-size="14.00">+ «static» LATEST_PHP_8_2 : string = &quot;8\.2\.13&quot; {readOnly}</text>
<text text-anchor="start" x="1627" y="-59.8" font-family="Times,serif" font-size="14.00">+ «static» LATEST_PHP_8_3 : string = &quot;8\.3\.0&quot; {readOnly}</text>
<polygon fill="none" stroke="black" points="1622,-45 1622,-51 2068,-51 2068,-45 1622,-45"/>
<polygon fill="none" stroke="black" points="1622,-39 1622,-45 2068,-45 2068,-39 1622,-39"/>
</g>
<!-- Bartlett\\CompatInfoDb\\Application\\Query\\ListRef\\ListHandler&#45;&gt;Bartlett\\CompatInfoDb\\Domain\\Factory\\ExtensionVersionProviderInterface -->
<g id="edge7" class="edge">
<title>Bartlett\\CompatInfoDb\\Application\\Query\\ListRef\\ListHandler&#45;&gt;Bartlett\\CompatInfoDb\\Domain\\Factory\\ExtensionVersionProviderInterface</title>
<path fill="none" stroke="black" stroke-dasharray="5,2" d="M1231.69,-198C1360.82,-198 1494.3,-198 1603.55,-198"/>
<polygon fill="none" stroke="black" points="1603.71,-201.5 1613.71,-198 1603.71,-194.5 1603.71,-201.5"/>
</g>
<!-- Bartlett\\CompatInfoDb\\Application\\Query\\Show\\ShowQuery -->
<g id="node11" class="node">
<title>Bartlett\\CompatInfoDb\\Application\\Query\\Show\\ShowQuery</title>
<polygon fill="#fefece" stroke="transparent" points="1457,-949 16,-949 16,-667 1457,-667 1457,-949"/>
<polygon fill="#eeeeee" stroke="transparent" points="24.5,-911 24.5,-945 1449.5,-945 1449.5,-911 24.5,-911"/>
<polygon fill="none" stroke="black" points="24.5,-911 24.5,-945 1449.5,-945 1449.5,-911 24.5,-911"/>
<text text-anchor="start" x="692.5" y="-917.8" font-family="Times,serif" font-weight="bold" font-size="14.00">ShowQuery</text>
<polygon fill="none" stroke="black" points="24.5,-905 24.5,-911 1449.5,-911 1449.5,-905 24.5,-905"/>
<polygon fill="none" stroke="black" points="24.5,-671 24.5,-905 1449.5,-905 1449.5,-671 24.5,-671"/>
<text text-anchor="start" x="29.5" y="-888.8" font-family="Times,serif" font-size="14.00">+ __construct(extension : string, releases : bool, ini : bool, constants : bool, functions : bool, interfaces : bool, classes : bool, methods : bool, classConstants : bool, dependencies : bool, polyfills : bool)</text>
<text text-anchor="start" x="29.5" y="-869.8" font-family="Times,serif" font-size="14.00">+ getExtension() : string</text>
<text text-anchor="start" x="29.5" y="-850.8" font-family="Times,serif" font-size="14.00">+ isReleases() : bool</text>
<text text-anchor="start" x="29.5" y="-831.8" font-family="Times,serif" font-size="14.00">+ isIni() : bool</text>
<text text-anchor="start" x="29.5" y="-812.8" font-family="Times,serif" font-size="14.00">+ isConstants() : bool</text>
<text text-anchor="start" x="29.5" y="-793.8" font-family="Times,serif" font-size="14.00">+ isFunctions() : bool</text>
<text text-anchor="start" x="29.5" y="-774.8" font-family="Times,serif" font-size="14.00">+ isInterfaces() : bool</text>
<text text-anchor="start" x="29.5" y="-755.8" font-family="Times,serif" font-size="14.00">+ isClasses() : bool</text>
<text text-anchor="start" x="29.5" y="-736.8" font-family="Times,serif" font-size="14.00">+ isMethods() : bool</text>
<text text-anchor="start" x="29.5" y="-717.8" font-family="Times,serif" font-size="14.00">+ isClassConstants() : bool</text>
<text text-anchor="start" x="29.5" y="-698.8" font-family="Times,serif" font-size="14.00">+ isDependencies() : bool</text>
<text text-anchor="start" x="29.5" y="-679.8" font-family="Times,serif" font-size="14.00">+ isPolyfills() : bool</text>
</g>
<!-- Bartlett\\CompatInfoDb\\Application\\Query\\Show\\ShowQuery&#45;&gt;Bartlett\\CompatInfoDb\\Application\\Query\\QueryInterface -->
<g id="edge8" class="edge">
<title>Bartlett\\CompatInfoDb\\Application\\Query\\Show\\ShowQuery&#45;&gt;Bartlett\\CompatInfoDb\\Application\\Query\\QueryInterface</title>
<path fill="none" stroke="black" stroke-dasharray="5,2" d="M1457.43,-932.2C1466.67,-933.5 1475.87,-934.76 1485,-936 1580.3,-948.92 1690.41,-959.29 1763.29,-965.52"/>
<polygon fill="none" stroke="black" points="1763.07,-969.02 1773.33,-966.38 1763.66,-962.04 1763.07,-969.02"/>
</g>
<!-- Bartlett\\CompatInfoDb\\Application\\Query\\Show\\ShowHandler -->
<g id="node12" class="node">
<title>Bartlett\\CompatInfoDb\\Application\\Query\\Show\\ShowHandler</title>
<polygon fill="#fefece" stroke="transparent" points="1239.5,-649 233.5,-649 233.5,-557 1239.5,-557 1239.5,-649"/>
<polygon fill="#eeeeee" stroke="transparent" points="241.5,-611 241.5,-645 1231.5,-645 1231.5,-611 241.5,-611"/>
<polygon fill="none" stroke="black" points="241.5,-611 241.5,-645 1231.5,-645 1231.5,-611 241.5,-611"/>
<text text-anchor="start" x="683.5" y="-617.8" font-family="Times,serif" font-weight="bold" font-size="14.00">ShowHandler</text>
<polygon fill="none" stroke="black" points="241.5,-605 241.5,-611 1231.5,-611 1231.5,-605 241.5,-605"/>
<polygon fill="none" stroke="black" points="241.5,-561 241.5,-605 1231.5,-605 1231.5,-561 241.5,-561"/>
<text text-anchor="start" x="246.5" y="-588.8" font-family="Times,serif" font-size="14.00">+ __construct(extensionFactory : Bartlett\CompatInfoDb\Domain\Factory\ExtensionFactoryInterface)</text>
<text text-anchor="start" x="246.5" y="-569.8" font-family="Times,serif" font-size="14.00">+ __invoke(query : Bartlett\CompatInfoDb\Application\Query\Show\ShowQuery) : ?Bartlett\CompatInfoDb\Domain\ValueObject\Extension</text>
</g>
<!-- Bartlett\\CompatInfoDb\\Application\\Query\\Show\\ShowHandler&#45;&gt;Bartlett\\CompatInfoDb\\Application\\Query\\QueryHandlerInterface -->
<g id="edge9" class="edge">
<title>Bartlett\\CompatInfoDb\\Application\\Query\\Show\\ShowHandler&#45;&gt;Bartlett\\CompatInfoDb\\Application\\Query\\QueryHandlerInterface</title>
<path fill="none" stroke="black" stroke-dasharray="5,2" d="M1239.8,-594.54C1341.25,-603.26 1428.17,-621.95 1465,-658 1497.87,-690.17 1452.53,-831.43 1485,-864 1547.76,-926.96 1651.28,-931.18 1731.07,-922.43"/>
<polygon fill="none" stroke="black" points="1731.65,-925.89 1741.17,-921.24 1730.83,-918.93 1731.65,-925.89"/>
</g>
</g>
</svg>
