<?xml version="1.0" encoding="UTF-8" standalone="no"?>
<!DOCTYPE svg PUBLIC "-//W3C//DTD SVG 1.1//EN"
 "http://www.w3.org/Graphics/SVG/1.1/DTD/svg11.dtd">
<!-- Generated by graphviz version 2.43.0 (0)
 -->
<!-- Title: %3 Pages: 1 -->
<svg width="1360pt" height="731pt"
 viewBox="0.00 0.00 1360.00 731.00" xmlns="http://www.w3.org/2000/svg" xmlns:xlink="http://www.w3.org/1999/xlink">
<g id="graph0" class="graph" transform="scale(1 1) rotate(0) translate(4 727)">
<title>%3</title>
<g id="clust1" class="cluster">
<title>cluster_0</title>
<polygon fill="#7ac5cd" stroke="black" points="8,-8 8,-715 1344,-715 1344,-8 8,-8"/>
<text text-anchor="middle" x="676" y="-699.8" font-family="Times,serif" font-size="14.00">Bartlett\CompatInfoDb\Domain\Repository</text>
</g>
<!-- Bartlett\\CompatInfoDb\\Domain\\Repository\\ClassRepository -->
<g id="node1" class="node">
<title>Bartlett\\CompatInfoDb\\Domain\\Repository\\ClassRepository</title>
<polygon fill="#fefece" stroke="transparent" points="1000,-684 136,-684 136,-592 1000,-592 1000,-684"/>
<polygon fill="#eeeeee" stroke="transparent" points="144,-646 144,-680 992,-680 992,-646 144,-646"/>
<polygon fill="none" stroke="black" points="144,-646 144,-680 992,-680 992,-646 144,-646"/>
<text text-anchor="start" x="523" y="-666.8" font-family="Times,serif" font-weight="bold" font-size="14.00">«interface»</text>
<text text-anchor="start" x="504.5" y="-652.8" font-family="Times,serif" font-weight="bold" font-size="14.00">ClassRepository</text>
<polygon fill="none" stroke="black" points="144,-640 144,-646 992,-646 992,-640 144,-640"/>
<polygon fill="none" stroke="black" points="144,-596 144,-640 992,-640 992,-596 144,-596"/>
<text text-anchor="start" x="149" y="-623.8" font-family="Times,serif" font-size="14.00">+ «abstract» getAll() : array</text>
<text text-anchor="start" x="149" y="-604.8" font-family="Times,serif" font-size="14.00">+ «abstract» getClassByName(name : string, isInterface : bool) : ?Bartlett\CompatInfoDb\Domain\ValueObject\Class_</text>
</g>
<!-- Bartlett\\CompatInfoDb\\Domain\\Repository\\RepositoryInterface -->
<g id="node2" class="node">
<title>Bartlett\\CompatInfoDb\\Domain\\Repository\\RepositoryInterface</title>
<polygon fill="#fefece" stroke="transparent" points="1336,-423 1156,-423 1156,-369 1336,-369 1336,-423"/>
<polygon fill="#eeeeee" stroke="transparent" points="1164,-385 1164,-419 1328,-419 1328,-385 1164,-385"/>
<polygon fill="none" stroke="black" points="1164,-385 1164,-419 1328,-419 1328,-385 1164,-385"/>
<text text-anchor="start" x="1201" y="-405.8" font-family="Times,serif" font-weight="bold" font-size="14.00">«interface»</text>
<text text-anchor="start" x="1167" y="-391.8" font-family="Times,serif" font-weight="bold" font-size="14.00">RepositoryInterface</text>
<polygon fill="none" stroke="black" points="1164,-379 1164,-385 1328,-385 1328,-379 1164,-379"/>
<polygon fill="none" stroke="black" points="1164,-373 1164,-379 1328,-379 1328,-373 1164,-373"/>
</g>
<!-- Bartlett\\CompatInfoDb\\Domain\\Repository\\ClassRepository&#45;&gt;Bartlett\\CompatInfoDb\\Domain\\Repository\\RepositoryInterface -->
<g id="edge1" class="edge">
<title>Bartlett\\CompatInfoDb\\Domain\\Repository\\ClassRepository&#45;&gt;Bartlett\\CompatInfoDb\\Domain\\Repository\\RepositoryInterface</title>
<path fill="none" stroke="black" stroke-dasharray="5,2" d="M1000.02,-632.68C1042.28,-621.22 1083.11,-605.14 1120,-583 1177.28,-548.63 1213.82,-476.69 1231.77,-432.74"/>
<polygon fill="none" stroke="black" points="1235.09,-433.87 1235.52,-423.28 1228.58,-431.29 1235.09,-433.87"/>
</g>
<!-- Bartlett\\CompatInfoDb\\Domain\\Repository\\ConstantRepository -->
<g id="node3" class="node">
<title>Bartlett\\CompatInfoDb\\Domain\\Repository\\ConstantRepository</title>
<polygon fill="#fefece" stroke="transparent" points="1047,-574 89,-574 89,-482 1047,-482 1047,-574"/>
<polygon fill="#eeeeee" stroke="transparent" points="97,-536 97,-570 1039,-570 1039,-536 97,-536"/>
<polygon fill="none" stroke="black" points="97,-536 97,-570 1039,-570 1039,-536 97,-536"/>
<text text-anchor="start" x="523" y="-556.8" font-family="Times,serif" font-weight="bold" font-size="14.00">«interface»</text>
<text text-anchor="start" x="489.5" y="-542.8" font-family="Times,serif" font-weight="bold" font-size="14.00">ConstantRepository</text>
<polygon fill="none" stroke="black" points="97,-530 97,-536 1039,-536 1039,-530 97,-530"/>
<polygon fill="none" stroke="black" points="97,-486 97,-530 1039,-530 1039,-486 97,-486"/>
<text text-anchor="start" x="102" y="-513.8" font-family="Times,serif" font-size="14.00">+ «abstract» getAll() : array</text>
<text text-anchor="start" x="102" y="-494.8" font-family="Times,serif" font-size="14.00">+ «abstract» getConstantByName(name : string, declaringClass : string) : ?Bartlett\CompatInfoDb\Domain\ValueObject\Constant_</text>
</g>
<!-- Bartlett\\CompatInfoDb\\Domain\\Repository\\ConstantRepository&#45;&gt;Bartlett\\CompatInfoDb\\Domain\\Repository\\RepositoryInterface -->
<g id="edge2" class="edge">
<title>Bartlett\\CompatInfoDb\\Domain\\Repository\\ConstantRepository&#45;&gt;Bartlett\\CompatInfoDb\\Domain\\Repository\\RepositoryInterface</title>
<path fill="none" stroke="black" stroke-dasharray="5,2" d="M1047.12,-493.87C1072,-487.88 1096.43,-480.96 1120,-473 1149.57,-463.01 1179.45,-444.96 1202.59,-428.84"/>
<polygon fill="none" stroke="black" points="1204.67,-431.66 1210.79,-423.01 1200.61,-425.95 1204.67,-431.66"/>
</g>
<!-- Bartlett\\CompatInfoDb\\Domain\\Repository\\DistributionRepository -->
<g id="node4" class="node">
<title>Bartlett\\CompatInfoDb\\Domain\\Repository\\DistributionRepository</title>
<polygon fill="#fefece" stroke="transparent" points="1120,-464 16,-464 16,-328 1120,-328 1120,-464"/>
<polygon fill="#eeeeee" stroke="transparent" points="24,-426 24,-460 1112,-460 1112,-426 24,-426"/>
<polygon fill="none" stroke="black" points="24,-426 24,-460 1112,-460 1112,-426 24,-426"/>
<text text-anchor="start" x="523" y="-446.8" font-family="Times,serif" font-weight="bold" font-size="14.00">«interface»</text>
<text text-anchor="start" x="477" y="-432.8" font-family="Times,serif" font-weight="bold" font-size="14.00">DistributionRepository</text>
<polygon fill="none" stroke="black" points="24,-401 24,-426 1112,-426 1112,-401 24,-401"/>
<text text-anchor="start" x="29" y="-409.8" font-family="Times,serif" font-size="14.00">+ «static» DISTRIBUTION_DESC : string = &quot;CompatInfoDB&quot; {readOnly}</text>
<polygon fill="none" stroke="black" points="24,-395 24,-401 1112,-401 1112,-395 24,-395"/>
<polygon fill="none" stroke="black" points="24,-332 24,-395 1112,-395 1112,-332 24,-332"/>
<text text-anchor="start" x="29" y="-378.8" font-family="Times,serif" font-size="14.00">+ «abstract» getDistributionByVersion(version : string) : ?Bartlett\CompatInfoDb\Domain\ValueObject\Platform</text>
<text text-anchor="start" x="29" y="-359.8" font-family="Times,serif" font-size="14.00">+ «abstract» initialize(collection : Doctrine\Common\Collections\Collection, distVersion : string) : Bartlett\CompatInfoDb\Domain\ValueObject\Platform</text>
<text text-anchor="start" x="29" y="-340.8" font-family="Times,serif" font-size="14.00">+ «abstract» clear() : void</text>
</g>
<!-- Bartlett\\CompatInfoDb\\Domain\\Repository\\DistributionRepository&#45;&gt;Bartlett\\CompatInfoDb\\Domain\\Repository\\RepositoryInterface -->
<g id="edge3" class="edge">
<title>Bartlett\\CompatInfoDb\\Domain\\Repository\\DistributionRepository&#45;&gt;Bartlett\\CompatInfoDb\\Domain\\Repository\\RepositoryInterface</title>
<path fill="none" stroke="black" stroke-dasharray="5,2" d="M1120.22,-396C1129.05,-396 1137.55,-396 1145.67,-396"/>
<polygon fill="none" stroke="black" points="1145.75,-399.5 1155.75,-396 1145.75,-392.5 1145.75,-399.5"/>
</g>
<!-- Bartlett\\CompatInfoDb\\Domain\\Repository\\EntityManagerTrait -->
<g id="node5" class="node">
<title>Bartlett\\CompatInfoDb\\Domain\\Repository\\EntityManagerTrait</title>
<polygon fill="#fefece" stroke="transparent" points="880.5,-309.5 255.5,-309.5 255.5,-236.5 880.5,-236.5 880.5,-309.5"/>
<polygon fill="#eeeeee" stroke="transparent" points="264,-271 264,-305 873,-305 873,-271 264,-271"/>
<polygon fill="none" stroke="black" points="264,-271 264,-305 873,-305 873,-271 264,-271"/>
<text text-anchor="start" x="490" y="-277.8" font-family="Times,serif" font-weight="bold" font-size="14.00">EntityManagerTrait</text>
<polygon fill="none" stroke="black" points="264,-265 264,-271 873,-271 873,-265 264,-265"/>
<polygon fill="none" stroke="black" points="264,-240 264,-265 873,-265 873,-240 264,-240"/>
<text text-anchor="start" x="269" y="-248.8" font-family="Times,serif" font-size="14.00">+ setEntityManager(entityManager : Doctrine\ORM\EntityManagerInterface) : void</text>
</g>
<!-- Bartlett\\CompatInfoDb\\Domain\\Repository\\ExtensionRepository -->
<g id="node6" class="node">
<title>Bartlett\\CompatInfoDb\\Domain\\Repository\\ExtensionRepository</title>
<polygon fill="#fefece" stroke="transparent" points="965.5,-218 170.5,-218 170.5,-126 965.5,-126 965.5,-218"/>
<polygon fill="#eeeeee" stroke="transparent" points="179,-180 179,-214 958,-214 958,-180 179,-180"/>
<polygon fill="none" stroke="black" points="179,-180 179,-214 958,-214 958,-180 179,-180"/>
<text text-anchor="start" x="523.5" y="-200.8" font-family="Times,serif" font-weight="bold" font-size="14.00">«interface»</text>
<text text-anchor="start" x="487" y="-186.8" font-family="Times,serif" font-weight="bold" font-size="14.00">ExtensionRepository</text>
<polygon fill="none" stroke="black" points="179,-174 179,-180 958,-180 958,-174 179,-174"/>
<polygon fill="none" stroke="black" points="179,-130 179,-174 958,-174 958,-130 179,-130"/>
<text text-anchor="start" x="184" y="-157.8" font-family="Times,serif" font-size="14.00">+ «abstract» getAll() : array</text>
<text text-anchor="start" x="184" y="-138.8" font-family="Times,serif" font-size="14.00">+ «abstract» getExtensionByName(name : string) : ?Bartlett\CompatInfoDb\Domain\ValueObject\Extension</text>
</g>
<!-- Bartlett\\CompatInfoDb\\Domain\\Repository\\ExtensionRepository&#45;&gt;Bartlett\\CompatInfoDb\\Domain\\Repository\\RepositoryInterface -->
<g id="edge4" class="edge">
<title>Bartlett\\CompatInfoDb\\Domain\\Repository\\ExtensionRepository&#45;&gt;Bartlett\\CompatInfoDb\\Domain\\Repository\\RepositoryInterface</title>
<path fill="none" stroke="black" stroke-dasharray="5,2" d="M965.61,-172.24C1019.76,-183.56 1072.86,-201.25 1120,-228 1172.69,-257.9 1209.75,-320.06 1229.2,-359.81"/>
<polygon fill="none" stroke="black" points="1226.08,-361.39 1233.54,-368.91 1232.39,-358.38 1226.08,-361.39"/>
</g>
<!-- Bartlett\\CompatInfoDb\\Domain\\Repository\\FunctionRepository -->
<g id="node7" class="node">
<title>Bartlett\\CompatInfoDb\\Domain\\Repository\\FunctionRepository</title>
<polygon fill="#fefece" stroke="transparent" points="1045.5,-108 90.5,-108 90.5,-16 1045.5,-16 1045.5,-108"/>
<polygon fill="#eeeeee" stroke="transparent" points="99,-70 99,-104 1038,-104 1038,-70 99,-70"/>
<polygon fill="none" stroke="black" points="99,-70 99,-104 1038,-104 1038,-70 99,-70"/>
<text text-anchor="start" x="523.5" y="-90.8" font-family="Times,serif" font-weight="bold" font-size="14.00">«interface»</text>
<text text-anchor="start" x="490.5" y="-76.8" font-family="Times,serif" font-weight="bold" font-size="14.00">FunctionRepository</text>
<polygon fill="none" stroke="black" points="99,-64 99,-70 1038,-70 1038,-64 99,-64"/>
<polygon fill="none" stroke="black" points="99,-20 99,-64 1038,-64 1038,-20 99,-20"/>
<text text-anchor="start" x="104" y="-47.8" font-family="Times,serif" font-size="14.00">+ «abstract» getAll() : array</text>
<text text-anchor="start" x="104" y="-28.8" font-family="Times,serif" font-size="14.00">+ «abstract» getFunctionByName(name : string, declaringClass : string) : ?Bartlett\CompatInfoDb\Domain\ValueObject\Function_</text>
</g>
<!-- Bartlett\\CompatInfoDb\\Domain\\Repository\\FunctionRepository&#45;&gt;Bartlett\\CompatInfoDb\\Domain\\Repository\\RepositoryInterface -->
<g id="edge5" class="edge">
<title>Bartlett\\CompatInfoDb\\Domain\\Repository\\FunctionRepository&#45;&gt;Bartlett\\CompatInfoDb\\Domain\\Repository\\RepositoryInterface</title>
<path fill="none" stroke="black" stroke-dasharray="5,2" d="M1045.71,-76.03C1071.97,-86.93 1096.99,-100.42 1120,-117 1200.59,-175.09 1230.16,-297.38 1240.23,-358.94"/>
<polygon fill="none" stroke="black" points="1236.8,-359.64 1241.79,-368.99 1243.71,-358.57 1236.8,-359.64"/>
</g>
</g>
</svg>
