<?xml version="1.0" encoding="UTF-8" standalone="no"?>
<!DOCTYPE svg PUBLIC "-//W3C//DTD SVG 1.1//EN"
 "http://www.w3.org/Graphics/SVG/1.1/DTD/svg11.dtd">
<!-- Generated by graphviz version 2.43.0 (0)
 -->
<!-- Title: %3 Pages: 1 -->
<svg width="1152pt" height="800pt"
 viewBox="0.00 0.00 1152.00 800.00" xmlns="http://www.w3.org/2000/svg" xmlns:xlink="http://www.w3.org/1999/xlink">
<g id="graph0" class="graph" transform="scale(1 1) rotate(0) translate(4 796)">
<title>%3</title>
<g id="clust1" class="cluster">
<title>cluster_0</title>
<polygon fill="BurlyWood" stroke="black" points="8,-659 8,-758 698,-758 698,-659 8,-659"/>
<text text-anchor="middle" x="353" y="-742.8" font-family="Times,serif" font-size="14.00">Bartlett\CompatInfoDb\Application\Event\Dispatcher</text>
</g>
<g id="clust2" class="cluster">
<title>cluster_1</title>
<polygon fill="transparent" stroke="black" points="261,-196 261,-625 903,-625 903,-196 261,-196"/>
<text text-anchor="middle" x="582" y="-609.8" font-family="Times,serif" font-size="14.00">Symfony\Component\EventDispatcher</text>
</g>
<g id="clust3" class="cluster">
<title>cluster_2</title>
<polygon fill="transparent" stroke="black" points="322,-102 322,-188 676,-188 676,-102 322,-102"/>
<text text-anchor="middle" x="499" y="-172.8" font-family="Times,serif" font-size="14.00">Symfony\Contracts\EventDispatcher</text>
</g>
<g id="clust4" class="cluster">
<title>cluster_3</title>
<polygon fill="transparent" stroke="black" points="409,-8 409,-94 589,-94 589,-8 409,-8"/>
<text text-anchor="middle" x="499" y="-78.8" font-family="Times,serif" font-size="14.00">Psr\EventDispatcher</text>
</g>
<g id="clust5" class="cluster">
<title>cluster_4</title>
<polygon fill="BurlyWood" stroke="black" points="706,-633 706,-784 1136,-784 1136,-633 706,-633"/>
<text text-anchor="middle" x="921" y="-768.8" font-family="Times,serif" font-size="14.00">Bartlett\CompatInfoDb\Application\Event\Subscriber</text>
</g>
<!-- Bartlett\\CompatInfoDb\\Application\\Event\\Dispatcher\\EventDispatcher -->
<g id="node1" class="node">
<title>Bartlett\\CompatInfoDb\\Application\\Event\\Dispatcher\\EventDispatcher</title>
<polygon fill="#fefece" stroke="transparent" points="690,-727 16,-727 16,-667 690,-667 690,-727"/>
<polygon fill="#eeeeee" stroke="transparent" points="16,-705 16,-727 690,-727 690,-705 16,-705"/>
<polygon fill="none" stroke="black" points="16,-705 16,-727 690,-727 690,-705 16,-705"/>
<text text-anchor="start" x="315.5" y="-710.6" font-family="Verdana" font-weight="bold" font-size="8.00">EventDispatcher</text>
<polygon fill="none" stroke="black" points="16,-686 16,-705 690,-705 690,-686 16,-686"/>
<text text-anchor="start" x="21" y="-693.6" font-family="Verdana" font-size="8.00">– diagnoseOutput</text>
<polygon fill="none" stroke="black" points="16,-667 16,-686 690,-686 690,-667 16,-667"/>
<text text-anchor="start" x="21" y="-674.6" font-family="Verdana" font-size="8.00">+ __construct(input : Symfony\Component\Console\Input\InputInterface, profileEventSubscriber : Symfony\Component\EventDispatcher\EventSubscriberInterface)</text>
</g>
<!-- Symfony\\Component\\EventDispatcher\\EventDispatcher -->
<g id="node2" class="node">
<title>Symfony\\Component\\EventDispatcher\\EventDispatcher</title>
<polygon fill="#fefece" stroke="transparent" points="682.5,-594 269.5,-594 269.5,-365 682.5,-365 682.5,-594"/>
<polygon fill="#eeeeee" stroke="transparent" points="270,-571.5 270,-593.5 683,-593.5 683,-571.5 270,-571.5"/>
<polygon fill="none" stroke="black" points="270,-571.5 270,-593.5 683,-593.5 683,-571.5 270,-571.5"/>
<text text-anchor="start" x="439" y="-577.1" font-family="Verdana" font-weight="bold" font-size="8.00">EventDispatcher</text>
<polygon fill="none" stroke="black" points="270,-526.5 270,-571.5 683,-571.5 683,-526.5 270,-526.5"/>
<text text-anchor="start" x="275" y="-560.1" font-family="Verdana" font-size="8.00">– listeners = []</text>
<text text-anchor="start" x="275" y="-547.1" font-family="Verdana" font-size="8.00">– sorted = []</text>
<text text-anchor="start" x="275" y="-534.1" font-family="Verdana" font-size="8.00">– optimized</text>
<polygon fill="none" stroke="black" points="270,-364.5 270,-526.5 683,-526.5 683,-364.5 270,-364.5"/>
<text text-anchor="start" x="275" y="-515.1" font-family="Verdana" font-size="8.00">+ __construct()</text>
<text text-anchor="start" x="275" y="-502.1" font-family="Verdana" font-size="8.00">+ dispatch(event : object, eventName : string = «unknown») : object</text>
<text text-anchor="start" x="275" y="-489.1" font-family="Verdana" font-size="8.00">+ getListeners(eventName : string = «unknown») : array</text>
<text text-anchor="start" x="275" y="-476.1" font-family="Verdana" font-size="8.00">+ getListenerPriority(eventName : string, listener) : ?int</text>
<text text-anchor="start" x="275" y="-463.1" font-family="Verdana" font-size="8.00">+ hasListeners(eventName : string = «unknown») : bool</text>
<text text-anchor="start" x="275" y="-450.1" font-family="Verdana" font-size="8.00">+ addListener(eventName : string, listener, priority : int = 0)</text>
<text text-anchor="start" x="275" y="-437.1" font-family="Verdana" font-size="8.00">+ removeListener(eventName : string, listener)</text>
<text text-anchor="start" x="275" y="-424.1" font-family="Verdana" font-size="8.00">+ addSubscriber(subscriber : Symfony\Component\EventDispatcher\EventSubscriberInterface)</text>
<text text-anchor="start" x="275" y="-411.1" font-family="Verdana" font-size="8.00">+ removeSubscriber(subscriber : Symfony\Component\EventDispatcher\EventSubscriberInterface)</text>
<text text-anchor="start" x="275" y="-398.1" font-family="Verdana" font-size="8.00"># callListeners(listeners : iterable, eventName : string, event : object)</text>
<text text-anchor="start" x="275" y="-385.1" font-family="Verdana" font-size="8.00">– sortListeners(eventName : string) : void</text>
<text text-anchor="start" x="275" y="-372.1" font-family="Verdana" font-size="8.00">– optimizeListeners(eventName : string) : array</text>
</g>
<!-- Bartlett\\CompatInfoDb\\Application\\Event\\Dispatcher\\EventDispatcher&#45;&gt;Symfony\\Component\\EventDispatcher\\EventDispatcher -->
<g id="edge4" class="edge">
<title>Bartlett\\CompatInfoDb\\Application\\Event\\Dispatcher\\EventDispatcher&#45;&gt;Symfony\\Component\\EventDispatcher\\EventDispatcher</title>
<path fill="none" stroke="black" d="M369.59,-666.94C379.34,-649.85 392.41,-626.96 406.04,-603.07"/>
<polygon fill="none" stroke="black" points="409.17,-604.66 411.08,-594.24 403.09,-601.19 409.17,-604.66"/>
</g>
<!-- Symfony\\Component\\EventDispatcher\\EventDispatcherInterface -->
<g id="node3" class="node">
<title>Symfony\\Component\\EventDispatcher\\EventDispatcherInterface</title>
<polygon fill="#fefece" stroke="transparent" points="728.5,-329 269.5,-329 269.5,-204 728.5,-204 728.5,-329"/>
<polygon fill="#eeeeee" stroke="transparent" points="270,-306.5 270,-328.5 729,-328.5 729,-306.5 270,-306.5"/>
<polygon fill="none" stroke="black" points="270,-306.5 270,-328.5 729,-328.5 729,-306.5 270,-306.5"/>
<text text-anchor="start" x="473.5" y="-320.1" font-family="Verdana" font-weight="bold" font-size="8.00">«interface»</text>
<text text-anchor="start" x="442" y="-312.1" font-family="Verdana" font-weight="bold" font-size="8.00">EventDispatcherInterface</text>
<polygon fill="none" stroke="black" points="270,-300.5 270,-306.5 729,-306.5 729,-300.5 270,-300.5"/>
<polygon fill="none" stroke="black" points="270,-203.5 270,-300.5 729,-300.5 729,-203.5 270,-203.5"/>
<text text-anchor="start" x="275" y="-289.1" font-family="Verdana" font-size="8.00">+ «abstract» addListener(eventName : string, listener : callable, priority : int = 0)</text>
<text text-anchor="start" x="275" y="-276.1" font-family="Verdana" font-size="8.00">+ «abstract» addSubscriber(subscriber : Symfony\Component\EventDispatcher\EventSubscriberInterface)</text>
<text text-anchor="start" x="275" y="-263.1" font-family="Verdana" font-size="8.00">+ «abstract» removeListener(eventName : string, listener : callable)</text>
<text text-anchor="start" x="275" y="-250.1" font-family="Verdana" font-size="8.00">+ «abstract» removeSubscriber(subscriber : Symfony\Component\EventDispatcher\EventSubscriberInterface)</text>
<text text-anchor="start" x="275" y="-237.1" font-family="Verdana" font-size="8.00">+ «abstract» getListeners(eventName : string = «unknown») : array</text>
<text text-anchor="start" x="275" y="-224.1" font-family="Verdana" font-size="8.00">+ «abstract» getListenerPriority(eventName : string, listener : callable) : ?int</text>
<text text-anchor="start" x="275" y="-211.1" font-family="Verdana" font-size="8.00">+ «abstract» hasListeners(eventName : string = «unknown») : bool</text>
</g>
<!-- Symfony\\Component\\EventDispatcher\\EventDispatcher&#45;&gt;Symfony\\Component\\EventDispatcher\\EventDispatcherInterface -->
<g id="edge3" class="edge">
<title>Symfony\\Component\\EventDispatcher\\EventDispatcher&#45;&gt;Symfony\\Component\\EventDispatcher\\EventDispatcherInterface</title>
<path fill="none" stroke="black" stroke-dasharray="5,2" d="M488.38,-364.97C489.33,-356.23 490.27,-347.57 491.18,-339.22"/>
<polygon fill="none" stroke="black" points="494.67,-339.53 492.27,-329.21 487.71,-338.77 494.67,-339.53"/>
</g>
<!-- Symfony\\Contracts\\EventDispatcher\\EventDispatcherInterface -->
<g id="node5" class="node">
<title>Symfony\\Contracts\\EventDispatcher\\EventDispatcherInterface</title>
<polygon fill="#fefece" stroke="transparent" points="668,-157 330,-157 330,-110 668,-110 668,-157"/>
<polygon fill="#eeeeee" stroke="transparent" points="330,-134.5 330,-156.5 668,-156.5 668,-134.5 330,-134.5"/>
<polygon fill="none" stroke="black" points="330,-134.5 330,-156.5 668,-156.5 668,-134.5 330,-134.5"/>
<text text-anchor="start" x="473" y="-148.1" font-family="Verdana" font-weight="bold" font-size="8.00">«interface»</text>
<text text-anchor="start" x="441.5" y="-140.1" font-family="Verdana" font-weight="bold" font-size="8.00">EventDispatcherInterface</text>
<polygon fill="none" stroke="black" points="330,-128.5 330,-134.5 668,-134.5 668,-128.5 330,-128.5"/>
<polygon fill="none" stroke="black" points="330,-109.5 330,-128.5 668,-128.5 668,-109.5 330,-109.5"/>
<text text-anchor="start" x="335" y="-117.1" font-family="Verdana" font-size="8.00">+ «abstract» dispatch(event : object, eventName : string = «unknown») : object</text>
</g>
<!-- Symfony\\Component\\EventDispatcher\\EventDispatcherInterface&#45;&gt;Symfony\\Contracts\\EventDispatcher\\EventDispatcherInterface -->
<g id="edge2" class="edge">
<title>Symfony\\Component\\EventDispatcher\\EventDispatcherInterface&#45;&gt;Symfony\\Contracts\\EventDispatcher\\EventDispatcherInterface</title>
<path fill="none" stroke="black" stroke-dasharray="5,2" d="M499,-203.84C499,-191.16 499,-178.3 499,-167.15"/>
<polygon fill="none" stroke="black" points="502.5,-167.04 499,-157.04 495.5,-167.04 502.5,-167.04"/>
</g>
<!-- Symfony\\Component\\EventDispatcher\\EventSubscriberInterface -->
<g id="node4" class="node">
<title>Symfony\\Component\\EventDispatcher\\EventSubscriberInterface</title>
<polygon fill="#fefece" stroke="transparent" points="895,-503 701,-503 701,-456 895,-456 895,-503"/>
<polygon fill="#eeeeee" stroke="transparent" points="701,-480.5 701,-502.5 895,-502.5 895,-480.5 701,-480.5"/>
<polygon fill="none" stroke="black" points="701,-480.5 701,-502.5 895,-502.5 895,-480.5 701,-480.5"/>
<text text-anchor="start" x="772" y="-494.1" font-family="Verdana" font-weight="bold" font-size="8.00">«interface»</text>
<text text-anchor="start" x="740.5" y="-486.1" font-family="Verdana" font-weight="bold" font-size="8.00">EventSubscriberInterface</text>
<polygon fill="none" stroke="black" points="701,-474.5 701,-480.5 895,-480.5 895,-474.5 701,-474.5"/>
<polygon fill="none" stroke="black" points="701,-455.5 701,-474.5 895,-474.5 895,-455.5 701,-455.5"/>
<text text-anchor="start" x="706" y="-463.1" font-family="Verdana" font-size="8.00">+ «abstract» «static» getSubscribedEvents()</text>
</g>
<!-- Psr\\EventDispatcher\\EventDispatcherInterface -->
<g id="node6" class="node">
<title>Psr\\EventDispatcher\\EventDispatcherInterface</title>
<polygon fill="#fefece" stroke="transparent" points="581,-63 417,-63 417,-16 581,-16 581,-63"/>
<polygon fill="#eeeeee" stroke="transparent" points="417,-40.5 417,-62.5 581,-62.5 581,-40.5 417,-40.5"/>
<polygon fill="none" stroke="black" points="417,-40.5 417,-62.5 581,-62.5 581,-40.5 417,-40.5"/>
<text text-anchor="start" x="473" y="-54.1" font-family="Verdana" font-weight="bold" font-size="8.00">«interface»</text>
<text text-anchor="start" x="441.5" y="-46.1" font-family="Verdana" font-weight="bold" font-size="8.00">EventDispatcherInterface</text>
<polygon fill="none" stroke="black" points="417,-34.5 417,-40.5 581,-40.5 581,-34.5 417,-34.5"/>
<polygon fill="none" stroke="black" points="417,-15.5 417,-34.5 581,-34.5 581,-15.5 417,-15.5"/>
<text text-anchor="start" x="422" y="-23.1" font-family="Verdana" font-size="8.00">+ «abstract» dispatch(event : object)</text>
</g>
<!-- Symfony\\Contracts\\EventDispatcher\\EventDispatcherInterface&#45;&gt;Psr\\EventDispatcher\\EventDispatcherInterface -->
<g id="edge1" class="edge">
<title>Symfony\\Contracts\\EventDispatcher\\EventDispatcherInterface&#45;&gt;Psr\\EventDispatcher\\EventDispatcherInterface</title>
<path fill="none" stroke="black" stroke-dasharray="5,2" d="M499,-109.76C499,-98.81 499,-85.48 499,-73.45"/>
<polygon fill="none" stroke="black" points="502.5,-73.3 499,-63.3 495.5,-73.3 502.5,-73.3"/>
</g>
<!-- Bartlett\\CompatInfoDb\\Application\\Event\\Subscriber\\ProfileEventSubscriber -->
<g id="node7" class="node">
<title>Bartlett\\CompatInfoDb\\Application\\Event\\Subscriber\\ProfileEventSubscriber</title>
<polygon fill="#fefece" stroke="transparent" points="1128,-753 714,-753 714,-641 1128,-641 1128,-753"/>
<polygon fill="#eeeeee" stroke="transparent" points="714,-731 714,-753 1128,-753 1128,-731 714,-731"/>
<polygon fill="none" stroke="black" points="714,-731 714,-753 1128,-753 1128,-731 714,-731"/>
<text text-anchor="start" x="869" y="-736.6" font-family="Verdana" font-weight="bold" font-size="8.00">ProfileEventSubscriber</text>
<polygon fill="none" stroke="black" points="714,-712 714,-731 1128,-731 1128,-712 714,-712"/>
<text text-anchor="start" x="719" y="-719.6" font-family="Verdana" font-size="8.00">– stopwatch</text>
<polygon fill="none" stroke="black" points="714,-641 714,-712 1128,-712 1128,-641 714,-641"/>
<text text-anchor="start" x="719" y="-700.6" font-family="Verdana" font-size="8.00">+ __construct(stopwatch : Symfony\Component\Stopwatch\Stopwatch)</text>
<text text-anchor="start" x="719" y="-687.6" font-family="Verdana" font-size="8.00">+ «static» getSubscribedEvents()</text>
<text text-anchor="start" x="719" y="-674.6" font-family="Verdana" font-size="8.00">+ onConsoleCommand(event : Symfony\Component\Console\Event\ConsoleCommandEvent) : void</text>
<text text-anchor="start" x="719" y="-661.6" font-family="Verdana" font-size="8.00">+ onConsoleTerminate(event : Symfony\Component\Console\Event\ConsoleTerminateEvent) : void</text>
<text text-anchor="start" x="719" y="-648.6" font-family="Verdana" font-size="8.00">– toTimeString(time : int) : string</text>
</g>
<!-- Bartlett\\CompatInfoDb\\Application\\Event\\Subscriber\\ProfileEventSubscriber&#45;&gt;Symfony\\Component\\EventDispatcher\\EventSubscriberInterface -->
<g id="edge5" class="edge">
<title>Bartlett\\CompatInfoDb\\Application\\Event\\Subscriber\\ProfileEventSubscriber&#45;&gt;Symfony\\Component\\EventDispatcher\\EventSubscriberInterface</title>
<path fill="none" stroke="black" stroke-dasharray="5,2" d="M889.48,-640.78C866.19,-599.98 835.3,-545.86 816.04,-512.11"/>
<polygon fill="none" stroke="black" points="818.93,-510.11 810.93,-503.16 812.85,-513.58 818.93,-510.11"/>
</g>
</g>
</svg>
