<?xml version="1.0" encoding="UTF-8" standalone="no"?>
<!DOCTYPE svg PUBLIC "-//W3C//DTD SVG 1.1//EN"
 "http://www.w3.org/Graphics/SVG/1.1/DTD/svg11.dtd">
<!-- Generated by graphviz version 2.43.0 (0)
 -->
<!-- Title: %3 Pages: 1 -->
<svg width="1699pt" height="702pt"
 viewBox="0.00 0.00 1699.00 702.00" xmlns="http://www.w3.org/2000/svg" xmlns:xlink="http://www.w3.org/1999/xlink">
<g id="graph0" class="graph" transform="scale(1 1) rotate(0) translate(4 698)">
<title>%3</title>
<!-- Bartlett\\CompatInfoDb\\Application\\Kernel\\ConsoleKernel -->
<g id="node1" class="node">
<title>Bartlett\\CompatInfoDb\\Application\\Kernel\\ConsoleKernel</title>
<polygon fill="#fefece" stroke="transparent" points="1289,-694 640,-694 640,-621 1289,-621 1289,-694"/>
<polygon fill="#eeeeee" stroke="transparent" points="640.5,-671.5 640.5,-693.5 1289.5,-693.5 1289.5,-671.5 640.5,-671.5"/>
<polygon fill="none" stroke="black" points="640.5,-671.5 640.5,-693.5 1289.5,-693.5 1289.5,-671.5 640.5,-671.5"/>
<text text-anchor="start" x="932.5" y="-677.1" font-family="Verdana" font-weight="bold" font-size="8.00">ConsoleKernel</text>
<polygon fill="none" stroke="black" points="640.5,-665.5 640.5,-671.5 1289.5,-671.5 1289.5,-665.5 640.5,-665.5"/>
<polygon fill="none" stroke="black" points="640.5,-620.5 640.5,-665.5 1289.5,-665.5 1289.5,-620.5 640.5,-620.5"/>
<text text-anchor="start" x="645.5" y="-654.1" font-family="Verdana" font-size="8.00">+ getCacheDir() : string</text>
<text text-anchor="start" x="645.5" y="-641.1" font-family="Verdana" font-size="8.00">+ handle(input : Symfony\Component\Console\Input\InputInterface = «unknown») : int</text>
<text text-anchor="start" x="645.5" y="-628.1" font-family="Verdana" font-size="8.00">+ createFromInput(input : Symfony\Component\Console\Input\InputInterface = «unknown») : Symfony\Component\DependencyInjection\ContainerInterface</text>
</g>
<!-- Bartlett\\CompatInfoDb\\Application\\Kernel\\AbstractKernel -->
<g id="node2" class="node">
<title>Bartlett\\CompatInfoDb\\Application\\Kernel\\AbstractKernel</title>
<polygon fill="#fefece" stroke="transparent" points="978,-585 195,-585 195,-174 978,-174 978,-585"/>
<polygon fill="#eeeeee" stroke="transparent" points="195.5,-562.5 195.5,-584.5 978.5,-584.5 978.5,-562.5 195.5,-562.5"/>
<polygon fill="none" stroke="black" points="195.5,-562.5 195.5,-584.5 978.5,-584.5 978.5,-562.5 195.5,-562.5"/>
<text text-anchor="start" x="563" y="-576.1" font-family="Verdana" font-weight="bold" font-size="8.00">«abstract»</text>
<text text-anchor="start" x="553.5" y="-568.1" font-family="Verdana" font-weight="bold" font-size="8.00">AbstractKernel</text>
<polygon fill="none" stroke="black" points="195.5,-465.5 195.5,-562.5 978.5,-562.5 978.5,-465.5 195.5,-465.5"/>
<text text-anchor="start" x="200.5" y="-551.1" font-family="Verdana" font-size="8.00"># configFiles : mixed</text>
<text text-anchor="start" x="200.5" y="-538.1" font-family="Verdana" font-size="8.00"># compilerPasses : mixed</text>
<text text-anchor="start" x="200.5" y="-525.1" font-family="Verdana" font-size="8.00"># extensions : mixed</text>
<text text-anchor="start" x="200.5" y="-512.1" font-family="Verdana" font-size="8.00"># environment</text>
<text text-anchor="start" x="200.5" y="-499.1" font-family="Verdana" font-size="8.00"># debug</text>
<text text-anchor="start" x="200.5" y="-486.1" font-family="Verdana" font-size="8.00"># container</text>
<text text-anchor="start" x="200.5" y="-473.1" font-family="Verdana" font-size="8.00"># projectDir</text>
<polygon fill="none" stroke="black" points="195.5,-173.5 195.5,-465.5 978.5,-465.5 978.5,-173.5 195.5,-173.5"/>
<text text-anchor="start" x="200.5" y="-454.1" font-family="Verdana" font-size="8.00">+ __construct(environment : string, debug : bool)</text>
<text text-anchor="start" x="200.5" y="-441.1" font-family="Verdana" font-size="8.00">+ createFromConfigs(configFiles : array) : Symfony\Component\DependencyInjection\ContainerInterface</text>
<text text-anchor="start" x="200.5" y="-428.1" font-family="Verdana" font-size="8.00">+ create(configFiles : array, compilerPasses : array = [], extensions : array = []) : Symfony\Component\DependencyInjection\ContainerInterface</text>
<text text-anchor="start" x="200.5" y="-415.1" font-family="Verdana" font-size="8.00"># getContainerClass() : string</text>
<text text-anchor="start" x="200.5" y="-402.1" font-family="Verdana" font-size="8.00"># initializeContainer() : void</text>
<text text-anchor="start" x="200.5" y="-389.1" font-family="Verdana" font-size="8.00"># buildContainer() : Symfony\Component\DependencyInjection\ContainerBuilder</text>
<text text-anchor="start" x="200.5" y="-376.1" font-family="Verdana" font-size="8.00"># prepareContainer(container : Symfony\Component\DependencyInjection\ContainerBuilder) : void</text>
<text text-anchor="start" x="200.5" y="-363.1" font-family="Verdana" font-size="8.00"># registerContainerConfiguration(loader : Symfony\Component\Config\Loader\LoaderInterface) : void</text>
<text text-anchor="start" x="200.5" y="-350.1" font-family="Verdana" font-size="8.00"># dumpContainer(cache : Symfony\Component\Config\ConfigCacheInterface, container : Symfony\Component\DependencyInjection\ContainerBuilder, class : string, baseClass : string) : void</text>
<text text-anchor="start" x="200.5" y="-337.1" font-family="Verdana" font-size="8.00"># getContainerLoader(container : Symfony\Component\DependencyInjection\ContainerBuilder) : Symfony\Component\Config\Loader\LoaderInterface</text>
<text text-anchor="start" x="200.5" y="-324.1" font-family="Verdana" font-size="8.00"># getContainerBaseClass() : string</text>
<text text-anchor="start" x="200.5" y="-311.1" font-family="Verdana" font-size="8.00">+ getContainerBuilder() : Symfony\Component\DependencyInjection\ContainerBuilder</text>
<text text-anchor="start" x="200.5" y="-298.1" font-family="Verdana" font-size="8.00"># getKernelParameters() : array</text>
<text text-anchor="start" x="200.5" y="-285.1" font-family="Verdana" font-size="8.00">+ getEnvironment() : string</text>
<text text-anchor="start" x="200.5" y="-272.1" font-family="Verdana" font-size="8.00">+ isDebug() : bool</text>
<text text-anchor="start" x="200.5" y="-259.1" font-family="Verdana" font-size="8.00">+ getHomeDir() : string</text>
<text text-anchor="start" x="200.5" y="-246.1" font-family="Verdana" font-size="8.00">+ getProjectDir() : string</text>
<text text-anchor="start" x="200.5" y="-233.1" font-family="Verdana" font-size="8.00">+ getCacheDir() : string</text>
<text text-anchor="start" x="200.5" y="-220.1" font-family="Verdana" font-size="8.00">+ getLogDir() : string</text>
<text text-anchor="start" x="200.5" y="-207.1" font-family="Verdana" font-size="8.00">+ getContainer() : Symfony\Component\DependencyInjection\ContainerInterface</text>
<text text-anchor="start" x="200.5" y="-194.1" font-family="Verdana" font-size="8.00">+ boot() : void</text>
<text text-anchor="start" x="200.5" y="-181.1" font-family="Verdana" font-size="8.00"># getConfigDir() : string</text>
</g>
<!-- Bartlett\\CompatInfoDb\\Application\\Kernel\\ConsoleKernel&#45;&gt;Bartlett\\CompatInfoDb\\Application\\Kernel\\AbstractKernel -->
<g id="edge3" class="edge">
<title>Bartlett\\CompatInfoDb\\Application\\Kernel\\ConsoleKernel&#45;&gt;Bartlett\\CompatInfoDb\\Application\\Kernel\\AbstractKernel</title>
<path fill="none" stroke="black" d="M915.86,-620.98C903.83,-612.2 890.06,-602.15 875.13,-591.25"/>
<polygon fill="none" stroke="black" points="876.86,-588.18 866.72,-585.11 872.73,-593.83 876.86,-588.18"/>
</g>
<!-- Bartlett\\CompatInfoDb\\Application\\Kernel\\ConsoleKernelInterface -->
<g id="node5" class="node">
<title>Bartlett\\CompatInfoDb\\Application\\Kernel\\ConsoleKernelInterface</title>
<polygon fill="#fefece" stroke="transparent" points="1691,-409.5 996,-409.5 996,-349.5 1691,-349.5 1691,-409.5"/>
<polygon fill="#eeeeee" stroke="transparent" points="996.5,-387.5 996.5,-409.5 1691.5,-409.5 1691.5,-387.5 996.5,-387.5"/>
<polygon fill="none" stroke="black" points="996.5,-387.5 996.5,-409.5 1691.5,-409.5 1691.5,-387.5 996.5,-387.5"/>
<text text-anchor="start" x="1318" y="-401.1" font-family="Verdana" font-weight="bold" font-size="8.00">«interface»</text>
<text text-anchor="start" x="1291" y="-393.1" font-family="Verdana" font-weight="bold" font-size="8.00">ConsoleKernelInterface</text>
<polygon fill="none" stroke="black" points="996.5,-381.5 996.5,-387.5 1691.5,-387.5 1691.5,-381.5 996.5,-381.5"/>
<polygon fill="none" stroke="black" points="996.5,-349.5 996.5,-381.5 1691.5,-381.5 1691.5,-349.5 996.5,-349.5"/>
<text text-anchor="start" x="1001.5" y="-370.1" font-family="Verdana" font-size="8.00">+ «abstract» handle(input : Symfony\Component\Console\Input\InputInterface = «unknown») : int</text>
<text text-anchor="start" x="1001.5" y="-357.1" font-family="Verdana" font-size="8.00">+ «abstract» createFromInput(input : Symfony\Component\Console\Input\InputInterface = «unknown») : Symfony\Component\DependencyInjection\ContainerInterface</text>
</g>
<!-- Bartlett\\CompatInfoDb\\Application\\Kernel\\ConsoleKernel&#45;&gt;Bartlett\\CompatInfoDb\\Application\\Kernel\\ConsoleKernelInterface -->
<g id="edge4" class="edge">
<title>Bartlett\\CompatInfoDb\\Application\\Kernel\\ConsoleKernel&#45;&gt;Bartlett\\CompatInfoDb\\Application\\Kernel\\ConsoleKernelInterface</title>
<path fill="none" stroke="black" stroke-dasharray="5,2" d="M1013.27,-620.98C1086.23,-567.85 1222.95,-468.29 1295.47,-415.47"/>
<polygon fill="none" stroke="black" points="1297.54,-418.3 1303.57,-409.58 1293.42,-412.64 1297.54,-418.3"/>
</g>
<!-- Bartlett\\CompatInfoDb\\Application\\Kernel\\KernelInterface -->
<g id="node3" class="node">
<title>Bartlett\\CompatInfoDb\\Application\\Kernel\\KernelInterface</title>
<polygon fill="#fefece" stroke="transparent" points="641,-99 0,-99 0,-39 641,-39 641,-99"/>
<polygon fill="#eeeeee" stroke="transparent" points="0.5,-77 0.5,-99 641.5,-99 641.5,-77 0.5,-77"/>
<polygon fill="none" stroke="black" points="0.5,-77 0.5,-99 641.5,-99 641.5,-77 0.5,-77"/>
<text text-anchor="start" x="295" y="-90.6" font-family="Verdana" font-weight="bold" font-size="8.00">«interface»</text>
<text text-anchor="start" x="286" y="-82.6" font-family="Verdana" font-weight="bold" font-size="8.00">KernelInterface</text>
<polygon fill="none" stroke="black" points="0.5,-71 0.5,-77 641.5,-77 641.5,-71 0.5,-71"/>
<polygon fill="none" stroke="black" points="0.5,-39 0.5,-71 641.5,-71 641.5,-39 0.5,-39"/>
<text text-anchor="start" x="5.5" y="-59.6" font-family="Verdana" font-size="8.00">+ «abstract» createFromConfigs(configFiles : array) : Symfony\Component\DependencyInjection\ContainerInterface</text>
<text text-anchor="start" x="5.5" y="-46.6" font-family="Verdana" font-size="8.00">+ «abstract» create(configFiles : array, compilerPasses : array = [], extensions : array = []) : Symfony\Component\DependencyInjection\ContainerInterface</text>
</g>
<!-- Bartlett\\CompatInfoDb\\Application\\Kernel\\AbstractKernel&#45;&gt;Bartlett\\CompatInfoDb\\Application\\Kernel\\KernelInterface -->
<g id="edge1" class="edge">
<title>Bartlett\\CompatInfoDb\\Application\\Kernel\\AbstractKernel&#45;&gt;Bartlett\\CompatInfoDb\\Application\\Kernel\\KernelInterface</title>
<path fill="none" stroke="black" stroke-dasharray="5,2" d="M409.81,-173.58C388.01,-148.3 367.97,-125.06 352.42,-107.02"/>
<polygon fill="none" stroke="black" points="354.79,-104.4 345.61,-99.12 349.48,-108.98 354.79,-104.4"/>
</g>
<!-- Bartlett\\CompatInfoDb\\Application\\Kernel\\MicroKernelInterface -->
<g id="node4" class="node">
<title>Bartlett\\CompatInfoDb\\Application\\Kernel\\MicroKernelInterface</title>
<polygon fill="#fefece" stroke="transparent" points="1046.5,-138 658.5,-138 658.5,0 1046.5,0 1046.5,-138"/>
<polygon fill="#eeeeee" stroke="transparent" points="658.5,-116 658.5,-138 1046.5,-138 1046.5,-116 658.5,-116"/>
<polygon fill="none" stroke="black" points="658.5,-116 658.5,-138 1046.5,-138 1046.5,-116 658.5,-116"/>
<text text-anchor="start" x="826.5" y="-129.6" font-family="Verdana" font-weight="bold" font-size="8.00">«interface»</text>
<text text-anchor="start" x="805" y="-121.6" font-family="Verdana" font-weight="bold" font-size="8.00">MicroKernelInterface</text>
<polygon fill="none" stroke="black" points="658.5,-110 658.5,-116 1046.5,-116 1046.5,-110 658.5,-110"/>
<polygon fill="none" stroke="black" points="658.5,0 658.5,-110 1046.5,-110 1046.5,0 658.5,0"/>
<text text-anchor="start" x="663.5" y="-98.6" font-family="Verdana" font-size="8.00">+ «abstract» getEnvironment() : string</text>
<text text-anchor="start" x="663.5" y="-85.6" font-family="Verdana" font-size="8.00">+ «abstract» isDebug() : bool</text>
<text text-anchor="start" x="663.5" y="-72.6" font-family="Verdana" font-size="8.00">+ «abstract» getHomeDir() : string</text>
<text text-anchor="start" x="663.5" y="-59.6" font-family="Verdana" font-size="8.00">+ «abstract» getProjectDir() : string</text>
<text text-anchor="start" x="663.5" y="-46.6" font-family="Verdana" font-size="8.00">+ «abstract» getCacheDir() : string</text>
<text text-anchor="start" x="663.5" y="-33.6" font-family="Verdana" font-size="8.00">+ «abstract» getLogDir() : string</text>
<text text-anchor="start" x="663.5" y="-20.6" font-family="Verdana" font-size="8.00">+ «abstract» getContainer() : Symfony\Component\DependencyInjection\ContainerInterface</text>
<text text-anchor="start" x="663.5" y="-7.6" font-family="Verdana" font-size="8.00">+ «abstract» boot() : void</text>
</g>
<!-- Bartlett\\CompatInfoDb\\Application\\Kernel\\AbstractKernel&#45;&gt;Bartlett\\CompatInfoDb\\Application\\Kernel\\MicroKernelInterface -->
<g id="edge2" class="edge">
<title>Bartlett\\CompatInfoDb\\Application\\Kernel\\AbstractKernel&#45;&gt;Bartlett\\CompatInfoDb\\Application\\Kernel\\MicroKernelInterface</title>
<path fill="none" stroke="black" stroke-dasharray="5,2" d="M763.19,-173.58C771.5,-163.94 779.55,-154.6 787.2,-145.73"/>
<polygon fill="none" stroke="black" points="789.94,-147.92 793.82,-138.06 784.64,-143.35 789.94,-147.92"/>
</g>
</g>
</svg>
