<?xml version="1.0" encoding="UTF-8" standalone="no"?>
<!DOCTYPE svg PUBLIC "-//W3C//DTD SVG 1.1//EN"
 "http://www.w3.org/Graphics/SVG/1.1/DTD/svg11.dtd">
<!-- Generated by graphviz version 2.43.0 (0)
 -->
<!-- Title: %3 Pages: 1 -->
<svg width="1123pt" height="1611pt"
 viewBox="0.00 0.00 1122.50 1611.00" xmlns="http://www.w3.org/2000/svg" xmlns:xlink="http://www.w3.org/1999/xlink">
<g id="graph0" class="graph" transform="scale(1 1) rotate(0) translate(4 1607)">
<title>%3</title>
<g id="clust1" class="cluster">
<title>cluster_0</title>
<polygon fill="LightBlue" stroke="black" points="109,-777 109,-968 652,-968 652,-777 109,-777"/>
<text text-anchor="middle" x="380.5" y="-952.8" font-family="Times,serif" font-size="14.00">Bartlett\CompatInfoDb\Application\Command\Build</text>
</g>
<g id="clust2" class="cluster">
<title>cluster_1</title>
<polygon fill="LightSkyBlue" stroke="black" points="772.5,-515 772.5,-590 1114.5,-590 1114.5,-515 772.5,-515"/>
<text text-anchor="middle" x="943.5" y="-574.8" font-family="Times,serif" font-size="14.00">Bartlett\CompatInfoDb\Application\Command</text>
</g>
<g id="clust3" class="cluster">
<title>cluster_2</title>
<polygon fill="LightBlue" stroke="black" points="183.5,-656 183.5,-769 578.5,-769 578.5,-656 183.5,-656"/>
<text text-anchor="middle" x="381" y="-753.8" font-family="Times,serif" font-size="14.00">Bartlett\CompatInfoDb\Application\Command\Create</text>
</g>
<g id="clust4" class="cluster">
<title>cluster_3</title>
<polygon fill="LightBlue" stroke="black" points="117,-457 117,-648 644,-648 644,-457 117,-457"/>
<text text-anchor="middle" x="380.5" y="-632.8" font-family="Times,serif" font-size="14.00">Bartlett\CompatInfoDb\Application\Command\Init</text>
</g>
<g id="clust5" class="cluster">
<title>cluster_4</title>
<polygon fill="LightBlue" stroke="black" points="53.5,-207 53.5,-449 707.5,-449 707.5,-207 53.5,-207"/>
<text text-anchor="middle" x="380.5" y="-433.8" font-family="Times,serif" font-size="14.00">Bartlett\CompatInfoDb\Application\Command\Polyfill</text>
</g>
<g id="clust6" class="cluster">
<title>cluster_5</title>
<polygon fill="LightBlue" stroke="black" points="180,-8 180,-199 582,-199 582,-8 180,-8"/>
<text text-anchor="middle" x="381" y="-183.8" font-family="Times,serif" font-size="14.00">Bartlett\CompatInfoDb\Application\Command\Release</text>
</g>
<g id="clust7" class="cluster">
<title>cluster_6</title>
<polygon fill="Bisque" stroke="black" points="62.5,-1508 62.5,-1595 698.5,-1595 698.5,-1508 62.5,-1508"/>
<text text-anchor="middle" x="380.5" y="-1579.8" font-family="Times,serif" font-size="14.00">Bartlett\CompatInfoDb\Application\Query\Diagnose</text>
</g>
<g id="clust8" class="cluster">
<title>cluster_7</title>
<polygon fill="BurlyWood" stroke="black" points="786.5,-1406 786.5,-1481 1100.5,-1481 1100.5,-1406 786.5,-1406"/>
<text text-anchor="middle" x="943.5" y="-1465.8" font-family="Times,serif" font-size="14.00">Bartlett\CompatInfoDb\Application\Query</text>
</g>
<g id="clust9" class="cluster">
<title>cluster_8</title>
<polygon fill="Bisque" stroke="black" points="8,-976 8,-1379 753,-1379 753,-976 8,-976"/>
<text text-anchor="middle" x="380.5" y="-1363.8" font-family="Times,serif" font-size="14.00">Bartlett\CompatInfoDb\Application\Query\ListRef</text>
</g>
<g id="clust10" class="cluster">
<title>cluster_9</title>
<polygon fill="transparent" stroke="black" points="794,-1040 794,-1315 1093,-1315 1093,-1040 794,-1040"/>
<text text-anchor="middle" x="943.5" y="-1299.8" font-family="Times,serif" font-size="14.00">Bartlett\CompatInfoDb\Domain\Factory</text>
</g>
<g id="clust11" class="cluster">
<title>cluster_10</title>
<polygon fill="Bisque" stroke="black" points="89.5,-1387 89.5,-1500 671.5,-1500 671.5,-1387 89.5,-1387"/>
<text text-anchor="middle" x="380.5" y="-1484.8" font-family="Times,serif" font-size="14.00">Bartlett\CompatInfoDb\Application\Query\Show</text>
</g>
<!-- Bartlett\\CompatInfoDb\\Application\\Command\\Build\\BuildCommand -->
<g id="node1" class="node">
<title>Bartlett\\CompatInfoDb\\Application\\Command\\Build\\BuildCommand</title>
<polygon fill="#fefece" stroke="transparent" points="644,-936.5 117,-936.5 117,-785.5 644,-785.5 644,-936.5"/>
<polygon fill="#eeeeee" stroke="transparent" points="117.5,-914 117.5,-936 644.5,-936 644.5,-914 117.5,-914"/>
<polygon fill="none" stroke="black" points="117.5,-914 117.5,-936 644.5,-936 644.5,-914 117.5,-914"/>
<text text-anchor="start" x="346" y="-919.6" font-family="Verdana" font-weight="bold" font-size="8.00">BuildCommand</text>
<polygon fill="none" stroke="black" points="117.5,-856 117.5,-914 644.5,-914 644.5,-856 117.5,-856"/>
<text text-anchor="start" x="122.5" y="-902.6" font-family="Verdana" font-size="8.00">– extension</text>
<text text-anchor="start" x="122.5" y="-889.6" font-family="Verdana" font-size="8.00">– extMin</text>
<text text-anchor="start" x="122.5" y="-876.6" font-family="Verdana" font-size="8.00">– phpMin</text>
<text text-anchor="start" x="122.5" y="-863.6" font-family="Verdana" font-size="8.00">– output</text>
<polygon fill="none" stroke="black" points="117.5,-785 117.5,-856 644.5,-856 644.5,-785 117.5,-785"/>
<text text-anchor="start" x="122.5" y="-844.6" font-family="Verdana" font-size="8.00">+ __construct(extension : string, extMin : string, phpMin : string, output : Symfony\Component\Console\Output\OutputInterface)</text>
<text text-anchor="start" x="122.5" y="-831.6" font-family="Verdana" font-size="8.00">+ getExtension() : string</text>
<text text-anchor="start" x="122.5" y="-818.6" font-family="Verdana" font-size="8.00">+ getExtMin() : string</text>
<text text-anchor="start" x="122.5" y="-805.6" font-family="Verdana" font-size="8.00">+ getPhpMin() : string</text>
<text text-anchor="start" x="122.5" y="-792.6" font-family="Verdana" font-size="8.00">+ getOutput() : Symfony\Component\Console\Output\OutputInterface</text>
</g>
<!-- Bartlett\\CompatInfoDb\\Application\\Command\\CommandInterface -->
<g id="node2" class="node">
<title>Bartlett\\CompatInfoDb\\Application\\Command\\CommandInterface</title>
<polygon fill="#fefece" stroke="transparent" points="989.5,-559 897.5,-559 897.5,-523 989.5,-523 989.5,-559"/>
<polygon fill="#eeeeee" stroke="transparent" points="897.5,-536 897.5,-558 989.5,-558 989.5,-536 897.5,-536"/>
<polygon fill="none" stroke="black" points="897.5,-536 897.5,-558 989.5,-558 989.5,-536 897.5,-536"/>
<text text-anchor="start" x="917.5" y="-549.6" font-family="Verdana" font-weight="bold" font-size="8.00">«interface»</text>
<text text-anchor="start" x="900.5" y="-541.6" font-family="Verdana" font-weight="bold" font-size="8.00">CommandInterface</text>
<polygon fill="none" stroke="black" points="897.5,-530 897.5,-536 989.5,-536 989.5,-530 897.5,-530"/>
<polygon fill="none" stroke="black" points="897.5,-524 897.5,-530 989.5,-530 989.5,-524 897.5,-524"/>
</g>
<!-- Bartlett\\CompatInfoDb\\Application\\Command\\Build\\BuildCommand&#45;&gt;Bartlett\\CompatInfoDb\\Application\\Command\\CommandInterface -->
<g id="edge1" class="edge">
<title>Bartlett\\CompatInfoDb\\Application\\Command\\Build\\BuildCommand&#45;&gt;Bartlett\\CompatInfoDb\\Application\\Command\\CommandInterface</title>
<path fill="none" stroke="black" stroke-dasharray="5,2" d="M644.01,-821.73C682.25,-809.61 719.85,-793.75 753,-773 837.1,-720.36 901.1,-617.33 928.24,-568.25"/>
<polygon fill="none" stroke="black" points="931.47,-569.64 933.18,-559.19 925.32,-566.3 931.47,-569.64"/>
</g>
<!-- Bartlett\\CompatInfoDb\\Application\\Command\\Create\\CreateCommand -->
<g id="node3" class="node">
<title>Bartlett\\CompatInfoDb\\Application\\Command\\Create\\CreateCommand</title>
<polygon fill="#fefece" stroke="transparent" points="510.5,-737.5 250.5,-737.5 250.5,-664.5 510.5,-664.5 510.5,-737.5"/>
<polygon fill="#eeeeee" stroke="transparent" points="250.5,-715 250.5,-737 510.5,-737 510.5,-715 250.5,-715"/>
<polygon fill="none" stroke="black" points="250.5,-715 250.5,-737 510.5,-737 510.5,-715 250.5,-715"/>
<text text-anchor="start" x="343" y="-720.6" font-family="Verdana" font-weight="bold" font-size="8.00">CreateCommand</text>
<polygon fill="none" stroke="black" points="250.5,-696 250.5,-715 510.5,-715 510.5,-696 250.5,-696"/>
<text text-anchor="start" x="255.5" y="-703.6" font-family="Verdana" font-size="8.00">– entityManager</text>
<polygon fill="none" stroke="black" points="250.5,-664 250.5,-696 510.5,-696 510.5,-664 250.5,-664"/>
<text text-anchor="start" x="255.5" y="-684.6" font-family="Verdana" font-size="8.00">+ __construct(em : Doctrine\ORM\EntityManagerInterface)</text>
<text text-anchor="start" x="255.5" y="-671.6" font-family="Verdana" font-size="8.00">+ getEntityManager() : Doctrine\ORM\EntityManagerInterface</text>
</g>
<!-- Bartlett\\CompatInfoDb\\Application\\Command\\Create\\CreateCommand&#45;&gt;Bartlett\\CompatInfoDb\\Application\\Command\\CommandInterface -->
<g id="edge2" class="edge">
<title>Bartlett\\CompatInfoDb\\Application\\Command\\Create\\CreateCommand&#45;&gt;Bartlett\\CompatInfoDb\\Application\\Command\\CommandInterface</title>
<path fill="none" stroke="black" stroke-dasharray="5,2" d="M510.76,-696.57C583.54,-690.98 675.16,-678.71 753,-652 812.76,-631.5 874.56,-591.02 910.72,-565.03"/>
<polygon fill="none" stroke="black" points="912.87,-567.79 918.9,-559.07 908.76,-562.13 912.87,-567.79"/>
</g>
<!-- Bartlett\\CompatInfoDb\\Application\\Command\\Init\\InitCommand -->
<g id="node4" class="node">
<title>Bartlett\\CompatInfoDb\\Application\\Command\\Init\\InitCommand</title>
<polygon fill="#fefece" stroke="transparent" points="636,-616.5 125,-616.5 125,-465.5 636,-465.5 636,-616.5"/>
<polygon fill="#eeeeee" stroke="transparent" points="125.5,-594 125.5,-616 636.5,-616 636.5,-594 125.5,-594"/>
<polygon fill="none" stroke="black" points="125.5,-594 125.5,-616 636.5,-616 636.5,-594 125.5,-594"/>
<text text-anchor="start" x="350.5" y="-599.6" font-family="Verdana" font-weight="bold" font-size="8.00">InitCommand</text>
<polygon fill="none" stroke="black" points="125.5,-536 125.5,-594 636.5,-594 636.5,-536 125.5,-536"/>
<text text-anchor="start" x="130.5" y="-582.6" font-family="Verdana" font-size="8.00">– appVersion</text>
<text text-anchor="start" x="130.5" y="-569.6" font-family="Verdana" font-size="8.00">– io</text>
<text text-anchor="start" x="130.5" y="-556.6" font-family="Verdana" font-size="8.00">– force</text>
<text text-anchor="start" x="130.5" y="-543.6" font-family="Verdana" font-size="8.00">– progress</text>
<polygon fill="none" stroke="black" points="125.5,-465 125.5,-536 636.5,-536 636.5,-465 125.5,-465"/>
<text text-anchor="start" x="130.5" y="-524.6" font-family="Verdana" font-size="8.00">+ __construct(version : string, io : Bartlett\CompatInfoDb\Presentation\Console\StyleInterface, force : bool, progress : bool)</text>
<text text-anchor="start" x="130.5" y="-511.6" font-family="Verdana" font-size="8.00">+ getAppVersion() : string</text>
<text text-anchor="start" x="130.5" y="-498.6" font-family="Verdana" font-size="8.00">+ getStyle() : Bartlett\CompatInfoDb\Presentation\Console\StyleInterface</text>
<text text-anchor="start" x="130.5" y="-485.6" font-family="Verdana" font-size="8.00">+ isForce() : bool</text>
<text text-anchor="start" x="130.5" y="-472.6" font-family="Verdana" font-size="8.00">+ isProgress() : bool</text>
</g>
<!-- Bartlett\\CompatInfoDb\\Application\\Command\\Init\\InitCommand&#45;&gt;Bartlett\\CompatInfoDb\\Application\\Command\\CommandInterface -->
<g id="edge3" class="edge">
<title>Bartlett\\CompatInfoDb\\Application\\Command\\Init\\InitCommand&#45;&gt;Bartlett\\CompatInfoDb\\Application\\Command\\CommandInterface</title>
<path fill="none" stroke="black" stroke-dasharray="5,2" d="M636.15,-541C730.15,-541 828.06,-541 887.16,-541"/>
<polygon fill="none" stroke="black" points="887.38,-544.5 897.38,-541 887.38,-537.5 887.38,-544.5"/>
</g>
<!-- Bartlett\\CompatInfoDb\\Application\\Command\\Polyfill\\PolyfillCommand -->
<g id="node5" class="node">
<title>Bartlett\\CompatInfoDb\\Application\\Command\\Polyfill\\PolyfillCommand</title>
<polygon fill="#fefece" stroke="transparent" points="699.5,-417.5 61.5,-417.5 61.5,-214.5 699.5,-214.5 699.5,-417.5"/>
<polygon fill="#eeeeee" stroke="transparent" points="61.5,-395 61.5,-417 699.5,-417 699.5,-395 61.5,-395"/>
<polygon fill="none" stroke="black" points="61.5,-395 61.5,-417 699.5,-417 699.5,-395 61.5,-395"/>
<text text-anchor="start" x="342" y="-400.6" font-family="Verdana" font-weight="bold" font-size="8.00">PolyfillCommand</text>
<polygon fill="none" stroke="black" points="61.5,-311 61.5,-395 699.5,-395 699.5,-311 61.5,-311"/>
<text text-anchor="start" x="66.5" y="-383.6" font-family="Verdana" font-size="8.00">– package</text>
<text text-anchor="start" x="66.5" y="-370.6" font-family="Verdana" font-size="8.00">– tag</text>
<text text-anchor="start" x="66.5" y="-357.6" font-family="Verdana" font-size="8.00">– php : mixed</text>
<text text-anchor="start" x="66.5" y="-344.6" font-family="Verdana" font-size="8.00">– io</text>
<text text-anchor="start" x="66.5" y="-331.6" font-family="Verdana" font-size="8.00">– cacheDir</text>
<text text-anchor="start" x="66.5" y="-318.6" font-family="Verdana" font-size="8.00">– whitelist</text>
<polygon fill="none" stroke="black" points="61.5,-214 61.5,-311 699.5,-311 699.5,-214 61.5,-214"/>
<text text-anchor="start" x="66.5" y="-299.6" font-family="Verdana" font-size="8.00">+ __construct(package : string, tag : string, php : array, io : Bartlett\CompatInfoDb\Presentation\Console\StyleInterface, cacheDir : string, whitelist : string)</text>
<text text-anchor="start" x="66.5" y="-286.6" font-family="Verdana" font-size="8.00">+ getPackage() : string</text>
<text text-anchor="start" x="66.5" y="-273.6" font-family="Verdana" font-size="8.00">+ getTag() : string</text>
<text text-anchor="start" x="66.5" y="-260.6" font-family="Verdana" font-size="8.00">+ getPhp() : array</text>
<text text-anchor="start" x="66.5" y="-247.6" font-family="Verdana" font-size="8.00">+ getStyle() : Bartlett\CompatInfoDb\Presentation\Console\StyleInterface</text>
<text text-anchor="start" x="66.5" y="-234.6" font-family="Verdana" font-size="8.00">+ getCacheDir() : string</text>
<text text-anchor="start" x="66.5" y="-221.6" font-family="Verdana" font-size="8.00">+ getWhitelist() : ?string</text>
</g>
<!-- Bartlett\\CompatInfoDb\\Application\\Command\\Polyfill\\PolyfillCommand&#45;&gt;Bartlett\\CompatInfoDb\\Application\\Command\\CommandInterface -->
<g id="edge4" class="edge">
<title>Bartlett\\CompatInfoDb\\Application\\Command\\Polyfill\\PolyfillCommand&#45;&gt;Bartlett\\CompatInfoDb\\Application\\Command\\CommandInterface</title>
<path fill="none" stroke="black" stroke-dasharray="5,2" d="M664.39,-417.59C694.44,-429.19 724.44,-441.12 753,-453 802.71,-473.67 858.48,-499.95 896.57,-518.39"/>
<polygon fill="none" stroke="black" points="895.33,-521.68 905.86,-522.9 898.39,-515.38 895.33,-521.68"/>
</g>
<!-- Bartlett\\CompatInfoDb\\Application\\Command\\Release\\ReleaseCommand -->
<g id="node6" class="node">
<title>Bartlett\\CompatInfoDb\\Application\\Command\\Release\\ReleaseCommand</title>
<polygon fill="#fefece" stroke="transparent" points="539,-167.5 222,-167.5 222,-16.5 539,-16.5 539,-167.5"/>
<polygon fill="#eeeeee" stroke="transparent" points="222.5,-145 222.5,-167 539.5,-167 539.5,-145 222.5,-145"/>
<polygon fill="none" stroke="black" points="222.5,-145 222.5,-167 539.5,-167 539.5,-145 222.5,-145"/>
<text text-anchor="start" x="341" y="-150.6" font-family="Verdana" font-weight="bold" font-size="8.00">ReleaseCommand</text>
<polygon fill="none" stroke="black" points="222.5,-87 222.5,-145 539.5,-145 539.5,-87 222.5,-87"/>
<text text-anchor="start" x="227.5" y="-133.6" font-family="Verdana" font-size="8.00">– version</text>
<text text-anchor="start" x="227.5" y="-120.6" font-family="Verdana" font-size="8.00">– date</text>
<text text-anchor="start" x="227.5" y="-107.6" font-family="Verdana" font-size="8.00">– state</text>
<text text-anchor="start" x="227.5" y="-94.6" font-family="Verdana" font-size="8.00">– extension</text>
<polygon fill="none" stroke="black" points="222.5,-16 222.5,-87 539.5,-87 539.5,-16 222.5,-16"/>
<text text-anchor="start" x="227.5" y="-75.6" font-family="Verdana" font-size="8.00">+ __construct(version : string, date : string, state : string, extension : string)</text>
<text text-anchor="start" x="227.5" y="-62.6" font-family="Verdana" font-size="8.00">+ getVersion() : string</text>
<text text-anchor="start" x="227.5" y="-49.6" font-family="Verdana" font-size="8.00">+ getDate() : string</text>
<text text-anchor="start" x="227.5" y="-36.6" font-family="Verdana" font-size="8.00">+ getState() : string</text>
<text text-anchor="start" x="227.5" y="-23.6" font-family="Verdana" font-size="8.00">+ getExtension() : string</text>
</g>
<!-- Bartlett\\CompatInfoDb\\Application\\Command\\Release\\ReleaseCommand&#45;&gt;Bartlett\\CompatInfoDb\\Application\\Command\\CommandInterface -->
<g id="edge5" class="edge">
<title>Bartlett\\CompatInfoDb\\Application\\Command\\Release\\ReleaseCommand&#45;&gt;Bartlett\\CompatInfoDb\\Application\\Command\\CommandInterface</title>
<path fill="none" stroke="black" stroke-dasharray="5,2" d="M539.07,-111.6C610.4,-126.95 692.17,-154.31 753,-203 858.72,-287.63 915.34,-448.15 934.72,-512.89"/>
<polygon fill="none" stroke="black" points="931.45,-514.16 937.61,-522.78 938.17,-512.2 931.45,-514.16"/>
</g>
<!-- Bartlett\\CompatInfoDb\\Application\\Query\\Diagnose\\DiagnoseHandler -->
<g id="node7" class="node">
<title>Bartlett\\CompatInfoDb\\Application\\Query\\Diagnose\\DiagnoseHandler</title>
<polygon fill="#fefece" stroke="transparent" points="690.5,-1563.5 70.5,-1563.5 70.5,-1516.5 690.5,-1516.5 690.5,-1563.5"/>
<polygon fill="#eeeeee" stroke="transparent" points="70.5,-1541 70.5,-1563 690.5,-1563 690.5,-1541 70.5,-1541"/>
<polygon fill="none" stroke="black" points="70.5,-1541 70.5,-1563 690.5,-1563 690.5,-1541 70.5,-1541"/>
<text text-anchor="start" x="341" y="-1546.6" font-family="Verdana" font-weight="bold" font-size="8.00">DiagnoseHandler</text>
<polygon fill="none" stroke="black" points="70.5,-1535 70.5,-1541 690.5,-1541 690.5,-1535 70.5,-1535"/>
<polygon fill="none" stroke="black" points="70.5,-1516 70.5,-1535 690.5,-1535 690.5,-1516 70.5,-1516"/>
<text text-anchor="start" x="75.5" y="-1523.6" font-family="Verdana" font-size="8.00">+ __invoke(query : Bartlett\CompatInfoDb\Application\Query\Diagnose\DiagnoseQuery) : Bartlett\CompatInfoDb\Infrastructure\RequirementsInterface</text>
</g>
<!-- Bartlett\\CompatInfoDb\\Application\\Query\\QueryHandlerInterface -->
<g id="node8" class="node">
<title>Bartlett\\CompatInfoDb\\Application\\Query\\QueryHandlerInterface</title>
<polygon fill="#fefece" stroke="transparent" points="998.5,-1450 888.5,-1450 888.5,-1414 998.5,-1414 998.5,-1450"/>
<polygon fill="#eeeeee" stroke="transparent" points="888.5,-1427 888.5,-1449 998.5,-1449 998.5,-1427 888.5,-1427"/>
<polygon fill="none" stroke="black" points="888.5,-1427 888.5,-1449 998.5,-1449 998.5,-1427 888.5,-1427"/>
<text text-anchor="start" x="917.5" y="-1440.6" font-family="Verdana" font-weight="bold" font-size="8.00">«interface»</text>
<text text-anchor="start" x="891.5" y="-1432.6" font-family="Verdana" font-weight="bold" font-size="8.00">QueryHandlerInterface</text>
<polygon fill="none" stroke="black" points="888.5,-1421 888.5,-1427 998.5,-1427 998.5,-1421 888.5,-1421"/>
<polygon fill="none" stroke="black" points="888.5,-1415 888.5,-1421 998.5,-1421 998.5,-1415 888.5,-1415"/>
</g>
<!-- Bartlett\\CompatInfoDb\\Application\\Query\\Diagnose\\DiagnoseHandler&#45;&gt;Bartlett\\CompatInfoDb\\Application\\Query\\QueryHandlerInterface -->
<g id="edge6" class="edge">
<title>Bartlett\\CompatInfoDb\\Application\\Query\\Diagnose\\DiagnoseHandler&#45;&gt;Bartlett\\CompatInfoDb\\Application\\Query\\QueryHandlerInterface</title>
<path fill="none" stroke="black" stroke-dasharray="5,2" d="M690.17,-1516.48C711.54,-1512.89 732.65,-1508.76 753,-1504 802.91,-1492.32 857.38,-1470.62 895.05,-1454.09"/>
<polygon fill="none" stroke="black" points="896.53,-1457.26 904.25,-1450.01 893.69,-1450.86 896.53,-1457.26"/>
</g>
<!-- Bartlett\\CompatInfoDb\\Application\\Query\\ListRef\\ListHandler -->
<g id="node9" class="node">
<title>Bartlett\\CompatInfoDb\\Application\\Query\\ListRef\\ListHandler</title>
<polygon fill="#fefece" stroke="transparent" points="745,-1348.5 16,-1348.5 16,-983.5 745,-983.5 745,-1348.5"/>
<polygon fill="#eeeeee" stroke="transparent" points="16.5,-1326 16.5,-1348 745.5,-1348 745.5,-1326 16.5,-1326"/>
<polygon fill="none" stroke="black" points="16.5,-1326 16.5,-1348 745.5,-1348 745.5,-1326 16.5,-1326"/>
<text text-anchor="start" x="354.5" y="-1331.6" font-family="Verdana" font-weight="bold" font-size="8.00">ListHandler</text>
<polygon fill="none" stroke="black" points="16.5,-1125 16.5,-1326 745.5,-1326 745.5,-1125 16.5,-1125"/>
<text text-anchor="start" x="21.5" y="-1314.6" font-family="Verdana" font-size="8.00">+ «static» LATEST_PHP_5_2 : string = &quot;5\.2\.17&quot; {readOnly}</text>
<text text-anchor="start" x="21.5" y="-1301.6" font-family="Verdana" font-size="8.00">+ «static» LATEST_PHP_5_3 : string = &quot;5\.3\.29&quot; {readOnly}</text>
<text text-anchor="start" x="21.5" y="-1288.6" font-family="Verdana" font-size="8.00">+ «static» LATEST_PHP_5_4 : string = &quot;5\.4\.45&quot; {readOnly}</text>
<text text-anchor="start" x="21.5" y="-1275.6" font-family="Verdana" font-size="8.00">+ «static» LATEST_PHP_5_5 : string = &quot;5\.5\.38&quot; {readOnly}</text>
<text text-anchor="start" x="21.5" y="-1262.6" font-family="Verdana" font-size="8.00">+ «static» LATEST_PHP_5_6 : string = &quot;5\.6\.40&quot; {readOnly}</text>
<text text-anchor="start" x="21.5" y="-1249.6" font-family="Verdana" font-size="8.00">+ «static» LATEST_PHP_7_0 : string = &quot;7\.0\.33&quot; {readOnly}</text>
<text text-anchor="start" x="21.5" y="-1236.6" font-family="Verdana" font-size="8.00">+ «static» LATEST_PHP_7_1 : string = &quot;7\.1\.33&quot; {readOnly}</text>
<text text-anchor="start" x="21.5" y="-1223.6" font-family="Verdana" font-size="8.00">+ «static» LATEST_PHP_7_2 : string = &quot;7\.2\.34&quot; {readOnly}</text>
<text text-anchor="start" x="21.5" y="-1210.6" font-family="Verdana" font-size="8.00">+ «static» LATEST_PHP_7_3 : string = &quot;7\.3\.33&quot; {readOnly}</text>
<text text-anchor="start" x="21.5" y="-1197.6" font-family="Verdana" font-size="8.00">+ «static» LATEST_PHP_7_4 : string = &quot;7\.4\.33&quot; {readOnly}</text>
<text text-anchor="start" x="21.5" y="-1184.6" font-family="Verdana" font-size="8.00">+ «static» LATEST_PHP_8_0 : string = &quot;8\.0\.30&quot; {readOnly}</text>
<text text-anchor="start" x="21.5" y="-1171.6" font-family="Verdana" font-size="8.00">+ «static» LATEST_PHP_8_1 : string = &quot;8\.1\.30&quot; {readOnly}</text>
<text text-anchor="start" x="21.5" y="-1158.6" font-family="Verdana" font-size="8.00">+ «static» LATEST_PHP_8_2 : string = &quot;8\.2\.25&quot; {readOnly}</text>
<text text-anchor="start" x="21.5" y="-1145.6" font-family="Verdana" font-size="8.00">+ «static» LATEST_PHP_8_3 : string = &quot;8\.3\.13&quot; {readOnly}</text>
<text text-anchor="start" x="21.5" y="-1132.6" font-family="Verdana" font-size="8.00">+ «static» LATEST_PHP_8_4 : string = &quot;8\.4\.0RC3&quot; {readOnly}</text>
<polygon fill="none" stroke="black" points="16.5,-1106 16.5,-1125 745.5,-1125 745.5,-1106 16.5,-1106"/>
<text text-anchor="start" x="21.5" y="-1113.6" font-family="Verdana" font-size="8.00">– distributionRepository</text>
<polygon fill="none" stroke="black" points="16.5,-983 16.5,-1106 745.5,-1106 745.5,-983 16.5,-983"/>
<text text-anchor="start" x="21.5" y="-1094.6" font-family="Verdana" font-size="8.00">+ __construct(distributionRepository : Bartlett\CompatInfoDb\Domain\Repository\DistributionRepository)</text>
<text text-anchor="start" x="21.5" y="-1081.6" font-family="Verdana" font-size="8.00">+ __invoke(query : Bartlett\CompatInfoDb\Application\Query\ListRef\ListQuery) : Bartlett\CompatInfoDb\Domain\ValueObject\Platform</text>
<text text-anchor="start" x="21.5" y="-1068.6" font-family="Verdana" font-size="8.00">– filterPlatformByExtensionType(platform : Bartlett\CompatInfoDb\Domain\ValueObject\Platform, type : string) : Bartlett\CompatInfoDb\Domain\ValueObject\Platform</text>
<text text-anchor="start" x="21.5" y="-1055.6" font-family="Verdana" font-size="8.00">– filterPlatformByExtensionName(platform : Bartlett\CompatInfoDb\Domain\ValueObject\Platform, name : string) : Bartlett\CompatInfoDb\Domain\ValueObject\Platform</text>
<text text-anchor="start" x="21.5" y="-1042.6" font-family="Verdana" font-size="8.00">– filterPlatformByExtensionInstalled(platform : Bartlett\CompatInfoDb\Domain\ValueObject\Platform) : Bartlett\CompatInfoDb\Domain\ValueObject\Platform</text>
<text text-anchor="start" x="21.5" y="-1029.6" font-family="Verdana" font-size="8.00">– filterPlatformByExtensionOutdated(platform : Bartlett\CompatInfoDb\Domain\ValueObject\Platform) : Bartlett\CompatInfoDb\Domain\ValueObject\Platform</text>
<text text-anchor="start" x="21.5" y="-1016.6" font-family="Verdana" font-size="8.00">– filterPlatformByExtensionDeprecated(platform : Bartlett\CompatInfoDb\Domain\ValueObject\Platform, deprecated : bool) : Bartlett\CompatInfoDb\Domain\ValueObject\Platform</text>
<text text-anchor="start" x="21.5" y="-1003.6" font-family="Verdana" font-size="8.00"># getExtensionVersion(name : string) : string</text>
<text text-anchor="start" x="21.5" y="-990.6" font-family="Verdana" font-size="8.00"># getLatestPhpVersion(phpVersion : string = PHP_VERSION) : string</text>
</g>
<!-- Bartlett\\CompatInfoDb\\Application\\Query\\ListRef\\ListHandler&#45;&gt;Bartlett\\CompatInfoDb\\Application\\Query\\QueryHandlerInterface -->
<g id="edge7" class="edge">
<title>Bartlett\\CompatInfoDb\\Application\\Query\\ListRef\\ListHandler&#45;&gt;Bartlett\\CompatInfoDb\\Application\\Query\\QueryHandlerInterface</title>
<path fill="none" stroke="black" stroke-dasharray="5,2" d="M745.11,-1338.41C804.57,-1366.6 858.55,-1392.2 894.98,-1409.47"/>
<polygon fill="none" stroke="black" points="893.78,-1412.77 904.31,-1413.89 896.77,-1406.45 893.78,-1412.77"/>
</g>
<!-- Bartlett\\CompatInfoDb\\Domain\\Factory\\ExtensionVersionProviderInterface -->
<g id="node10" class="node">
<title>Bartlett\\CompatInfoDb\\Domain\\Factory\\ExtensionVersionProviderInterface</title>
<polygon fill="#fefece" stroke="transparent" points="1075,-1283.5 812,-1283.5 812,-1048.5 1075,-1048.5 1075,-1283.5"/>
<polygon fill="#eeeeee" stroke="transparent" points="812.5,-1261 812.5,-1283 1075.5,-1283 1075.5,-1261 812.5,-1261"/>
<polygon fill="none" stroke="black" points="812.5,-1261 812.5,-1283 1075.5,-1283 1075.5,-1261 812.5,-1261"/>
<text text-anchor="start" x="918" y="-1274.6" font-family="Verdana" font-weight="bold" font-size="8.00">«interface»</text>
<text text-anchor="start" x="865.5" y="-1266.6" font-family="Verdana" font-weight="bold" font-size="8.00">ExtensionVersionProviderInterface</text>
<polygon fill="none" stroke="black" points="812.5,-1060 812.5,-1261 1075.5,-1261 1075.5,-1060 812.5,-1060"/>
<text text-anchor="start" x="817.5" y="-1249.6" font-family="Verdana" font-size="8.00">+ «static» LATEST_PHP_5_2 : string = &quot;5\.2\.17&quot; {readOnly}</text>
<text text-anchor="start" x="817.5" y="-1236.6" font-family="Verdana" font-size="8.00">+ «static» LATEST_PHP_5_3 : string = &quot;5\.3\.29&quot; {readOnly}</text>
<text text-anchor="start" x="817.5" y="-1223.6" font-family="Verdana" font-size="8.00">+ «static» LATEST_PHP_5_4 : string = &quot;5\.4\.45&quot; {readOnly}</text>
<text text-anchor="start" x="817.5" y="-1210.6" font-family="Verdana" font-size="8.00">+ «static» LATEST_PHP_5_5 : string = &quot;5\.5\.38&quot; {readOnly}</text>
<text text-anchor="start" x="817.5" y="-1197.6" font-family="Verdana" font-size="8.00">+ «static» LATEST_PHP_5_6 : string = &quot;5\.6\.40&quot; {readOnly}</text>
<text text-anchor="start" x="817.5" y="-1184.6" font-family="Verdana" font-size="8.00">+ «static» LATEST_PHP_7_0 : string = &quot;7\.0\.33&quot; {readOnly}</text>
<text text-anchor="start" x="817.5" y="-1171.6" font-family="Verdana" font-size="8.00">+ «static» LATEST_PHP_7_1 : string = &quot;7\.1\.33&quot; {readOnly}</text>
<text text-anchor="start" x="817.5" y="-1158.6" font-family="Verdana" font-size="8.00">+ «static» LATEST_PHP_7_2 : string = &quot;7\.2\.34&quot; {readOnly}</text>
<text text-anchor="start" x="817.5" y="-1145.6" font-family="Verdana" font-size="8.00">+ «static» LATEST_PHP_7_3 : string = &quot;7\.3\.33&quot; {readOnly}</text>
<text text-anchor="start" x="817.5" y="-1132.6" font-family="Verdana" font-size="8.00">+ «static» LATEST_PHP_7_4 : string = &quot;7\.4\.33&quot; {readOnly}</text>
<text text-anchor="start" x="817.5" y="-1119.6" font-family="Verdana" font-size="8.00">+ «static» LATEST_PHP_8_0 : string = &quot;8\.0\.30&quot; {readOnly}</text>
<text text-anchor="start" x="817.5" y="-1106.6" font-family="Verdana" font-size="8.00">+ «static» LATEST_PHP_8_1 : string = &quot;8\.1\.30&quot; {readOnly}</text>
<text text-anchor="start" x="817.5" y="-1093.6" font-family="Verdana" font-size="8.00">+ «static» LATEST_PHP_8_2 : string = &quot;8\.2\.25&quot; {readOnly}</text>
<text text-anchor="start" x="817.5" y="-1080.6" font-family="Verdana" font-size="8.00">+ «static» LATEST_PHP_8_3 : string = &quot;8\.3\.13&quot; {readOnly}</text>
<text text-anchor="start" x="817.5" y="-1067.6" font-family="Verdana" font-size="8.00">+ «static» LATEST_PHP_8_4 : string = &quot;8\.4\.0RC3&quot; {readOnly}</text>
<polygon fill="none" stroke="black" points="812.5,-1054 812.5,-1060 1075.5,-1060 1075.5,-1054 812.5,-1054"/>
<polygon fill="none" stroke="black" points="812.5,-1048 812.5,-1054 1075.5,-1054 1075.5,-1048 812.5,-1048"/>
</g>
<!-- Bartlett\\CompatInfoDb\\Application\\Query\\ListRef\\ListHandler&#45;&gt;Bartlett\\CompatInfoDb\\Domain\\Factory\\ExtensionVersionProviderInterface -->
<g id="edge8" class="edge">
<title>Bartlett\\CompatInfoDb\\Application\\Query\\ListRef\\ListHandler&#45;&gt;Bartlett\\CompatInfoDb\\Domain\\Factory\\ExtensionVersionProviderInterface</title>
<path fill="none" stroke="black" stroke-dasharray="5,2" d="M745.11,-1166C764.71,-1166 783.72,-1166 801.7,-1166"/>
<polygon fill="none" stroke="black" points="801.88,-1169.5 811.88,-1166 801.88,-1162.5 801.88,-1169.5"/>
</g>
<!-- Bartlett\\CompatInfoDb\\Application\\Query\\Show\\ShowHandler -->
<g id="node11" class="node">
<title>Bartlett\\CompatInfoDb\\Application\\Query\\Show\\ShowHandler</title>
<polygon fill="#fefece" stroke="transparent" points="663.5,-1468.5 97.5,-1468.5 97.5,-1395.5 663.5,-1395.5 663.5,-1468.5"/>
<polygon fill="#eeeeee" stroke="transparent" points="97.5,-1446 97.5,-1468 663.5,-1468 663.5,-1446 97.5,-1446"/>
<polygon fill="none" stroke="black" points="97.5,-1446 97.5,-1468 663.5,-1468 663.5,-1446 97.5,-1446"/>
<text text-anchor="start" x="350" y="-1451.6" font-family="Verdana" font-weight="bold" font-size="8.00">ShowHandler</text>
<polygon fill="none" stroke="black" points="97.5,-1427 97.5,-1446 663.5,-1446 663.5,-1427 97.5,-1427"/>
<text text-anchor="start" x="102.5" y="-1434.6" font-family="Verdana" font-size="8.00">– factory</text>
<polygon fill="none" stroke="black" points="97.5,-1395 97.5,-1427 663.5,-1427 663.5,-1395 97.5,-1395"/>
<text text-anchor="start" x="102.5" y="-1415.6" font-family="Verdana" font-size="8.00">+ __construct(extensionFactory : Bartlett\CompatInfoDb\Domain\Factory\ExtensionFactoryInterface)</text>
<text text-anchor="start" x="102.5" y="-1402.6" font-family="Verdana" font-size="8.00">+ __invoke(query : Bartlett\CompatInfoDb\Application\Query\Show\ShowQuery) : ?Bartlett\CompatInfoDb\Domain\ValueObject\Extension</text>
</g>
<!-- Bartlett\\CompatInfoDb\\Application\\Query\\Show\\ShowHandler&#45;&gt;Bartlett\\CompatInfoDb\\Application\\Query\\QueryHandlerInterface -->
<g id="edge9" class="edge">
<title>Bartlett\\CompatInfoDb\\Application\\Query\\Show\\ShowHandler&#45;&gt;Bartlett\\CompatInfoDb\\Application\\Query\\QueryHandlerInterface</title>
<path fill="none" stroke="black" stroke-dasharray="5,2" d="M663.64,-1432C744.26,-1432 824.69,-1432 878.31,-1432"/>
<polygon fill="none" stroke="black" points="878.34,-1435.5 888.34,-1432 878.34,-1428.5 878.34,-1435.5"/>
</g>
</g>
</svg>
