<?xml version="1.0" encoding="UTF-8" standalone="no"?>
<!DOCTYPE svg PUBLIC "-//W3C//DTD SVG 1.1//EN"
 "http://www.w3.org/Graphics/SVG/1.1/DTD/svg11.dtd">
<!-- Generated by graphviz version 2.43.0 (0)
 -->
<!-- Title: %3 Pages: 1 -->
<svg width="1709pt" height="2579pt"
 viewBox="0.00 0.00 1708.68 2579.00" xmlns="http://www.w3.org/2000/svg" xmlns:xlink="http://www.w3.org/1999/xlink">
<g id="graph0" class="graph" transform="scale(1 1) rotate(0) translate(4 2575)">
<title>%3</title>
<polygon fill="white" stroke="transparent" points="-4,4 -4,-2575 1704.68,-2575 1704.68,4 -4,4"/>
<!-- bartlett/php&#45;compatinfo&#45;db -->
<g id="node1" class="node">
<title>bartlett/php&#45;compatinfo&#45;db</title>
<ellipse fill="lightgrey" stroke="black" stroke-width="2" cx="135.84" cy="-1628" rx="135.68" ry="18"/>
<text text-anchor="middle" x="135.84" y="-1624.3" font-family="Times,serif" font-size="14.00">bartlett/php&#45;compatinfo&#45;db</text>
</g>
<!-- php -->
<g id="node2" class="node">
<title>php</title>
<path fill="#eeeeee" stroke="black" d="M1552.68,-1821C1552.68,-1821 1522.68,-1821 1522.68,-1821 1516.68,-1821 1510.68,-1815 1510.68,-1809 1510.68,-1809 1510.68,-1797 1510.68,-1797 1510.68,-1791 1516.68,-1785 1522.68,-1785 1522.68,-1785 1552.68,-1785 1552.68,-1785 1558.68,-1785 1564.68,-1791 1564.68,-1797 1564.68,-1797 1564.68,-1809 1564.68,-1809 1564.68,-1815 1558.68,-1821 1552.68,-1821"/>
<text text-anchor="middle" x="1537.68" y="-1799.3" font-family="Times,serif" font-size="14.00" fill="#314b5f">php</text>
</g>
<!-- bartlett/php&#45;compatinfo&#45;db&#45;&gt;php -->
<g id="edge1" class="edge">
<title>bartlett/php&#45;compatinfo&#45;db&#45;&gt;php</title>
<path fill="none" stroke="#1a2833" d="M142.63,-1646.21C158.38,-1692.87 206.51,-1817.67 289.68,-1884 317.81,-1906.44 331.39,-1901.98 366.68,-1909 464.45,-1928.44 1178.96,-2010.13 1262.68,-1956 1279.05,-1945.41 1266.42,-1929.3 1280.68,-1916 1307,-1891.45 1323.48,-1901.92 1356.68,-1888 1407.73,-1866.59 1465.37,-1838.69 1501.36,-1820.81"/>
<polygon fill="#1a2833" stroke="#1a2833" points="1503.08,-1823.86 1510.47,-1816.27 1499.96,-1817.6 1503.08,-1823.86"/>
<text text-anchor="middle" x="804.18" y="-1971" font-family="Times,serif" font-size="10.00" fill="#767676">^8.1</text>
</g>
<!-- ext&#45;json -->
<g id="node3" class="node">
<title>ext&#45;json</title>
<path fill="#eeeeee" stroke="black" d="M528.18,-252C528.18,-252 479.18,-252 479.18,-252 473.18,-252 467.18,-246 467.18,-240 467.18,-240 467.18,-228 467.18,-228 467.18,-222 473.18,-216 479.18,-216 479.18,-216 528.18,-216 528.18,-216 534.18,-216 540.18,-222 540.18,-228 540.18,-228 540.18,-240 540.18,-240 540.18,-246 534.18,-252 528.18,-252"/>
<text text-anchor="middle" x="503.68" y="-230.3" font-family="Times,serif" font-size="14.00" fill="#314b5f">ext&#45;json</text>
</g>
<!-- bartlett/php&#45;compatinfo&#45;db&#45;&gt;ext&#45;json -->
<g id="edge2" class="edge">
<title>bartlett/php&#45;compatinfo&#45;db&#45;&gt;ext&#45;json</title>
<path fill="none" stroke="#1a2833" d="M137.55,-1609.72C143.73,-1454.78 190.65,-364.41 289.68,-263 332.64,-219 408.54,-219.63 457.18,-225.66"/>
<polygon fill="#1a2833" stroke="#1a2833" points="456.74,-229.14 467.12,-227.02 457.69,-222.2 456.74,-229.14"/>
<text text-anchor="middle" x="319.18" y="-266" font-family="Times,serif" font-size="10.00" fill="#767676">*</text>
</g>
<!-- ext&#45;pcre -->
<g id="node4" class="node">
<title>ext&#45;pcre</title>
<path fill="#eeeeee" stroke="black" d="M529.18,-198C529.18,-198 478.18,-198 478.18,-198 472.18,-198 466.18,-192 466.18,-186 466.18,-186 466.18,-174 466.18,-174 466.18,-168 472.18,-162 478.18,-162 478.18,-162 529.18,-162 529.18,-162 535.18,-162 541.18,-168 541.18,-174 541.18,-174 541.18,-186 541.18,-186 541.18,-192 535.18,-198 529.18,-198"/>
<text text-anchor="middle" x="503.68" y="-176.3" font-family="Times,serif" font-size="14.00" fill="#314b5f">ext&#45;pcre</text>
</g>
<!-- bartlett/php&#45;compatinfo&#45;db&#45;&gt;ext&#45;pcre -->
<g id="edge3" class="edge">
<title>bartlett/php&#45;compatinfo&#45;db&#45;&gt;ext&#45;pcre</title>
<path fill="none" stroke="#1a2833" d="M137.5,-1609.61C143.38,-1451.28 188.76,-321.63 289.68,-215 331.88,-170.4 407.31,-168.56 456.15,-173"/>
<polygon fill="#1a2833" stroke="#1a2833" points="455.84,-176.49 466.15,-174.04 456.56,-169.53 455.84,-176.49"/>
<text text-anchor="middle" x="319.18" y="-218" font-family="Times,serif" font-size="10.00" fill="#767676">*</text>
</g>
<!-- ext&#45;pdo -->
<g id="node5" class="node">
<title>ext&#45;pdo</title>
<path fill="#eeeeee" stroke="black" d="M526.68,-144C526.68,-144 480.68,-144 480.68,-144 474.68,-144 468.68,-138 468.68,-132 468.68,-132 468.68,-120 468.68,-120 468.68,-114 474.68,-108 480.68,-108 480.68,-108 526.68,-108 526.68,-108 532.68,-108 538.68,-114 538.68,-120 538.68,-120 538.68,-132 538.68,-132 538.68,-138 532.68,-144 526.68,-144"/>
<text text-anchor="middle" x="503.68" y="-122.3" font-family="Times,serif" font-size="14.00" fill="#314b5f">ext&#45;pdo</text>
</g>
<!-- bartlett/php&#45;compatinfo&#45;db&#45;&gt;ext&#45;pdo -->
<g id="edge4" class="edge">
<title>bartlett/php&#45;compatinfo&#45;db&#45;&gt;ext&#45;pdo</title>
<path fill="none" stroke="#1a2833" d="M137.43,-1609.99C142.88,-1450.09 186.23,-276.73 289.68,-165 332.24,-119.03 409.65,-116.38 458.5,-120.14"/>
<polygon fill="#1a2833" stroke="#1a2833" points="458.2,-123.62 468.47,-121.02 458.82,-116.65 458.2,-123.62"/>
<text text-anchor="middle" x="319.18" y="-168" font-family="Times,serif" font-size="10.00" fill="#767676">*</text>
</g>
<!-- ext&#45;phar -->
<g id="node6" class="node">
<title>ext&#45;phar</title>
<path fill="#eeeeee" stroke="black" d="M530.18,-90C530.18,-90 477.18,-90 477.18,-90 471.18,-90 465.18,-84 465.18,-78 465.18,-78 465.18,-66 465.18,-66 465.18,-60 471.18,-54 477.18,-54 477.18,-54 530.18,-54 530.18,-54 536.18,-54 542.18,-60 542.18,-66 542.18,-66 542.18,-78 542.18,-78 542.18,-84 536.18,-90 530.18,-90"/>
<text text-anchor="middle" x="503.68" y="-68.3" font-family="Times,serif" font-size="14.00" fill="#314b5f">ext&#45;phar</text>
</g>
<!-- bartlett/php&#45;compatinfo&#45;db&#45;&gt;ext&#45;phar -->
<g id="edge5" class="edge">
<title>bartlett/php&#45;compatinfo&#45;db&#45;&gt;ext&#45;phar</title>
<path fill="none" stroke="#1a2833" d="M137.38,-1609.89C142.44,-1446.56 183.54,-230.62 289.68,-114 331.01,-68.59 405.99,-63.96 455.06,-66.61"/>
<polygon fill="#1a2833" stroke="#1a2833" points="454.91,-70.11 465.12,-67.27 455.37,-63.12 454.91,-70.11"/>
<text text-anchor="middle" x="319.18" y="-117" font-family="Times,serif" font-size="10.00" fill="#767676">*</text>
</g>
<!-- ext&#45;spl -->
<g id="node7" class="node">
<title>ext&#45;spl</title>
<path fill="#eeeeee" stroke="black" d="M524.18,-36C524.18,-36 483.18,-36 483.18,-36 477.18,-36 471.18,-30 471.18,-24 471.18,-24 471.18,-12 471.18,-12 471.18,-6 477.18,0 483.18,0 483.18,0 524.18,0 524.18,0 530.18,0 536.18,-6 536.18,-12 536.18,-12 536.18,-24 536.18,-24 536.18,-30 530.18,-36 524.18,-36"/>
<text text-anchor="middle" x="503.68" y="-14.3" font-family="Times,serif" font-size="14.00" fill="#314b5f">ext&#45;spl</text>
</g>
<!-- bartlett/php&#45;compatinfo&#45;db&#45;&gt;ext&#45;spl -->
<g id="edge6" class="edge">
<title>bartlett/php&#45;compatinfo&#45;db&#45;&gt;ext&#45;spl</title>
<path fill="none" stroke="#1a2833" d="M137.35,-1609.84C142.19,-1443.35 182.21,-185.71 289.68,-63 331.9,-14.79 411.63,-10.7 460.66,-13.44"/>
<polygon fill="#1a2833" stroke="#1a2833" points="460.72,-16.95 470.93,-14.13 461.19,-9.96 460.72,-16.95"/>
<text text-anchor="middle" x="319.18" y="-66" font-family="Times,serif" font-size="10.00" fill="#767676">*</text>
</g>
<!-- composer&#45;runtime&#45;api -->
<g id="node8" class="node">
<title>composer&#45;runtime&#45;api</title>
<path fill="#eeeeee" stroke="black" d="M1189.68,-545C1189.68,-545 1040.68,-545 1040.68,-545 1034.68,-545 1028.68,-539 1028.68,-533 1028.68,-533 1028.68,-521 1028.68,-521 1028.68,-515 1034.68,-509 1040.68,-509 1040.68,-509 1189.68,-509 1189.68,-509 1195.68,-509 1201.68,-515 1201.68,-521 1201.68,-521 1201.68,-533 1201.68,-533 1201.68,-539 1195.68,-545 1189.68,-545"/>
<text text-anchor="middle" x="1115.18" y="-523.3" font-family="Times,serif" font-size="14.00" fill="#314b5f">composer&#45;runtime&#45;api</text>
</g>
<!-- bartlett/php&#45;compatinfo&#45;db&#45;&gt;composer&#45;runtime&#45;api -->
<g id="edge7" class="edge">
<title>bartlett/php&#45;compatinfo&#45;db&#45;&gt;composer&#45;runtime&#45;api</title>
<path fill="none" stroke="#1a2833" d="M138.45,-1609.81C149.76,-1485.95 221.14,-766.73 366.68,-614 547.64,-424.09 687.39,-518.01 949.68,-522 971.85,-522.34 995.7,-522.93 1018.17,-523.59"/>
<polygon fill="#1a2833" stroke="#1a2833" points="1018.28,-527.1 1028.38,-523.9 1018.49,-520.1 1018.28,-527.1"/>
<text text-anchor="middle" x="503.68" y="-617" font-family="Times,serif" font-size="10.00" fill="#767676">^2.0</text>
</g>
<!-- composer/semver -->
<g id="node9" class="node">
<title>composer/semver</title>
<path fill="#eeeeee" stroke="black" d="M886.18,-1867C886.18,-1867 722.18,-1867 722.18,-1867 716.18,-1867 710.18,-1861 710.18,-1855 710.18,-1855 710.18,-1843 710.18,-1843 710.18,-1837 716.18,-1831 722.18,-1831 722.18,-1831 886.18,-1831 886.18,-1831 892.18,-1831 898.18,-1837 898.18,-1843 898.18,-1843 898.18,-1855 898.18,-1855 898.18,-1861 892.18,-1867 886.18,-1867"/>
<text text-anchor="middle" x="804.18" y="-1845.3" font-family="Times,serif" font-size="14.00" fill="#314b5f">composer/semver: 3.4.3</text>
</g>
<!-- bartlett/php&#45;compatinfo&#45;db&#45;&gt;composer/semver -->
<g id="edge9" class="edge">
<title>bartlett/php&#45;compatinfo&#45;db&#45;&gt;composer/semver</title>
<path fill="none" stroke="#1a2833" d="M155.11,-1646.05C182.37,-1672.12 236.21,-1720.41 289.68,-1750 418.96,-1821.55 591.4,-1842.14 699.87,-1847.64"/>
<polygon fill="#1a2833" stroke="#1a2833" points="700.01,-1851.15 710.17,-1848.13 700.35,-1844.16 700.01,-1851.15"/>
<text text-anchor="middle" x="319.18" y="-1779" font-family="Times,serif" font-size="10.00" fill="#767676">^3.0</text>
</g>
<!-- doctrine/orm -->
<g id="node10" class="node">
<title>doctrine/orm</title>
<path fill="#eeeeee" stroke="black" d="M573.18,-670C573.18,-670 434.18,-670 434.18,-670 428.18,-670 422.18,-664 422.18,-658 422.18,-658 422.18,-646 422.18,-646 422.18,-640 428.18,-634 434.18,-634 434.18,-634 573.18,-634 573.18,-634 579.18,-634 585.18,-640 585.18,-646 585.18,-646 585.18,-658 585.18,-658 585.18,-664 579.18,-670 573.18,-670"/>
<text text-anchor="middle" x="503.68" y="-648.3" font-family="Times,serif" font-size="14.00" fill="#314b5f">doctrine/orm: 2.20.0</text>
</g>
<!-- bartlett/php&#45;compatinfo&#45;db&#45;&gt;doctrine/orm -->
<g id="edge27" class="edge">
<title>bartlett/php&#45;compatinfo&#45;db&#45;&gt;doctrine/orm</title>
<path fill="none" stroke="#1a2833" d="M139.68,-1609.85C151.65,-1535.76 201.47,-1249.77 289.68,-1030 345.72,-890.37 443.98,-738.51 484.46,-678.51"/>
<polygon fill="#1a2833" stroke="#1a2833" points="487.51,-680.25 490.22,-670.01 481.71,-676.32 487.51,-680.25"/>
<text text-anchor="middle" x="319.18" y="-1033" font-family="Times,serif" font-size="10.00" fill="#767676">^2.12</text>
</g>
<!-- doctrine/dbal -->
<g id="node14" class="node">
<title>doctrine/dbal</title>
<path fill="#eeeeee" stroke="black" d="M1181.18,-221C1181.18,-221 1049.18,-221 1049.18,-221 1043.18,-221 1037.18,-215 1037.18,-209 1037.18,-209 1037.18,-197 1037.18,-197 1037.18,-191 1043.18,-185 1049.18,-185 1049.18,-185 1181.18,-185 1181.18,-185 1187.18,-185 1193.18,-191 1193.18,-197 1193.18,-197 1193.18,-209 1193.18,-209 1193.18,-215 1187.18,-221 1181.18,-221"/>
<text text-anchor="middle" x="1115.18" y="-199.3" font-family="Times,serif" font-size="14.00" fill="#314b5f">doctrine/dbal: 3.9.3</text>
</g>
<!-- bartlett/php&#45;compatinfo&#45;db&#45;&gt;doctrine/dbal -->
<g id="edge28" class="edge">
<title>bartlett/php&#45;compatinfo&#45;db&#45;&gt;doctrine/dbal</title>
<path fill="none" stroke="#1a2833" d="M136.89,-1609.75C137.78,-1463.69 151.71,-486.15 366.68,-317 392.5,-296.68 835.48,-238.37 1027.06,-213.96"/>
<polygon fill="#1a2833" stroke="#1a2833" points="1027.62,-217.42 1037.1,-212.68 1026.73,-210.47 1027.62,-217.42"/>
<text text-anchor="middle" x="503.68" y="-320" font-family="Times,serif" font-size="10.00" fill="#767676">^3.2</text>
</g>
<!-- symfony/console -->
<g id="node23" class="node">
<title>symfony/console</title>
<path fill="#eeeeee" stroke="black" d="M1201.68,-275C1201.68,-275 1028.68,-275 1028.68,-275 1022.68,-275 1016.68,-269 1016.68,-263 1016.68,-263 1016.68,-251 1016.68,-251 1016.68,-245 1022.68,-239 1028.68,-239 1028.68,-239 1201.68,-239 1201.68,-239 1207.68,-239 1213.68,-245 1213.68,-251 1213.68,-251 1213.68,-263 1213.68,-263 1213.68,-269 1207.68,-275 1201.68,-275"/>
<text text-anchor="middle" x="1115.18" y="-253.3" font-family="Times,serif" font-size="14.00" fill="#314b5f">symfony/console: v6.4.13</text>
</g>
<!-- bartlett/php&#45;compatinfo&#45;db&#45;&gt;symfony/console -->
<g id="edge41" class="edge">
<title>bartlett/php&#45;compatinfo&#45;db&#45;&gt;symfony/console</title>
<path fill="none" stroke="#1a2833" d="M137.83,-1609.97C145.51,-1477.18 199.67,-651.09 366.68,-480 469.02,-375.16 518.25,-368.8 658.68,-327 783.21,-289.94 829.77,-349.04 949.68,-299 959.29,-294.99 958.25,-288.42 967.68,-284 979.92,-278.26 993.28,-273.73 1006.79,-270.17"/>
<polygon fill="#1a2833" stroke="#1a2833" points="1007.76,-273.54 1016.63,-267.74 1006.08,-266.74 1007.76,-273.54"/>
<text text-anchor="middle" x="503.68" y="-483" font-family="Times,serif" font-size="10.00" fill="#767676">^6.4 || ^7.0</text>
</g>
<!-- symfony/cache -->
<g id="node26" class="node">
<title>symfony/cache</title>
<path fill="#eeeeee" stroke="black" d="M1195.18,-1179C1195.18,-1179 1035.18,-1179 1035.18,-1179 1029.18,-1179 1023.18,-1173 1023.18,-1167 1023.18,-1167 1023.18,-1155 1023.18,-1155 1023.18,-1149 1029.18,-1143 1035.18,-1143 1035.18,-1143 1195.18,-1143 1195.18,-1143 1201.18,-1143 1207.18,-1149 1207.18,-1155 1207.18,-1155 1207.18,-1167 1207.18,-1167 1207.18,-1173 1201.18,-1179 1195.18,-1179"/>
<text text-anchor="middle" x="1115.18" y="-1157.3" font-family="Times,serif" font-size="14.00" fill="#314b5f">symfony/cache: v6.4.13</text>
</g>
<!-- bartlett/php&#45;compatinfo&#45;db&#45;&gt;symfony/cache -->
<g id="edge35" class="edge">
<title>bartlett/php&#45;compatinfo&#45;db&#45;&gt;symfony/cache</title>
<path fill="none" stroke="#1a2833" d="M150.43,-1609.86C204.74,-1539.11 414.95,-1281.15 658.68,-1190 774.33,-1146.75 917.95,-1145.4 1012.64,-1150.98"/>
<polygon fill="#1a2833" stroke="#1a2833" points="1012.59,-1154.48 1022.79,-1151.61 1013.03,-1147.49 1012.59,-1154.48"/>
<text text-anchor="middle" x="503.68" y="-1379" font-family="Times,serif" font-size="10.00" fill="#767676">^6.4 || ^7.0</text>
</g>
<!-- psr/log -->
<g id="node27" class="node">
<title>psr/log</title>
<path fill="#eeeeee" stroke="black" d="M1581.18,-2486C1581.18,-2486 1494.18,-2486 1494.18,-2486 1488.18,-2486 1482.18,-2480 1482.18,-2474 1482.18,-2474 1482.18,-2462 1482.18,-2462 1482.18,-2456 1488.18,-2450 1494.18,-2450 1494.18,-2450 1581.18,-2450 1581.18,-2450 1587.18,-2450 1593.18,-2456 1593.18,-2462 1593.18,-2462 1593.18,-2474 1593.18,-2474 1593.18,-2480 1587.18,-2486 1581.18,-2486"/>
<text text-anchor="middle" x="1537.68" y="-2464.3" font-family="Times,serif" font-size="14.00" fill="#314b5f">psr/log: 3.0.2</text>
</g>
<!-- bartlett/php&#45;compatinfo&#45;db&#45;&gt;psr/log -->
<g id="edge73" class="edge">
<title>bartlett/php&#45;compatinfo&#45;db&#45;&gt;psr/log</title>
<path fill="none" stroke="#1a2833" stroke-dasharray="5,2" d="M139.05,-1646.32C152.82,-1756.82 230.61,-2333.03 366.68,-2431 698.01,-2669.55 872.91,-2502.53 1280.68,-2523 1314.41,-2524.69 1325.99,-2537.11 1356.68,-2523 1367.84,-2517.86 1364.1,-2508.26 1374.68,-2502 1403.89,-2484.7 1440.65,-2476.13 1471.76,-2471.91"/>
<polygon fill="#1a2833" stroke="#1a2833" points="1472.57,-2475.34 1482.07,-2470.64 1471.72,-2468.39 1472.57,-2475.34"/>
<text text-anchor="middle" x="804.18" y="-2563" font-family="Times,serif" font-size="10.00" fill="#767676">^3.0</text>
</g>
<!-- symfony/config -->
<g id="node31" class="node">
<title>symfony/config</title>
<path fill="#eeeeee" stroke="black" d="M1196.18,-1651C1196.18,-1651 1034.18,-1651 1034.18,-1651 1028.18,-1651 1022.18,-1645 1022.18,-1639 1022.18,-1639 1022.18,-1627 1022.18,-1627 1022.18,-1621 1028.18,-1615 1034.18,-1615 1034.18,-1615 1196.18,-1615 1196.18,-1615 1202.18,-1615 1208.18,-1621 1208.18,-1627 1208.18,-1627 1208.18,-1639 1208.18,-1639 1208.18,-1645 1202.18,-1651 1196.18,-1651"/>
<text text-anchor="middle" x="1115.18" y="-1629.3" font-family="Times,serif" font-size="14.00" fill="#314b5f">symfony/config: v6.4.13</text>
</g>
<!-- bartlett/php&#45;compatinfo&#45;db&#45;&gt;symfony/config -->
<g id="edge40" class="edge">
<title>bartlett/php&#45;compatinfo&#45;db&#45;&gt;symfony/config</title>
<path fill="none" stroke="#1a2833" d="M271.71,-1628.69C469.6,-1629.7 834.34,-1631.57 1011.82,-1632.48"/>
<polygon fill="#1a2833" stroke="#1a2833" points="1011.92,-1635.98 1021.94,-1632.53 1011.95,-1628.98 1011.92,-1635.98"/>
<text text-anchor="middle" x="503.68" y="-1633" font-family="Times,serif" font-size="10.00" fill="#767676">^6.4 || ^7.0</text>
</g>
<!-- symfony/dependency&#45;injection -->
<g id="node35" class="node">
<title>symfony/dependency&#45;injection</title>
<path fill="#eeeeee" stroke="black" d="M1250.68,-2086C1250.68,-2086 979.68,-2086 979.68,-2086 973.68,-2086 967.68,-2080 967.68,-2074 967.68,-2074 967.68,-2062 967.68,-2062 967.68,-2056 973.68,-2050 979.68,-2050 979.68,-2050 1250.68,-2050 1250.68,-2050 1256.68,-2050 1262.68,-2056 1262.68,-2062 1262.68,-2062 1262.68,-2074 1262.68,-2074 1262.68,-2080 1256.68,-2086 1250.68,-2086"/>
<text text-anchor="middle" x="1115.18" y="-2064.3" font-family="Times,serif" font-size="14.00" fill="#314b5f">symfony/dependency&#45;injection: v6.4.13</text>
</g>
<!-- bartlett/php&#45;compatinfo&#45;db&#45;&gt;symfony/dependency&#45;injection -->
<g id="edge47" class="edge">
<title>bartlett/php&#45;compatinfo&#45;db&#45;&gt;symfony/dependency&#45;injection</title>
<path fill="none" stroke="#1a2833" d="M137.64,-1646.42C141.5,-1710.77 163.74,-1926.91 289.68,-2026 340.71,-2066.15 732.63,-2070.5 957.26,-2069.62"/>
<polygon fill="#1a2833" stroke="#1a2833" points="957.52,-2073.12 967.5,-2069.58 957.48,-2066.12 957.52,-2073.12"/>
<text text-anchor="middle" x="503.68" y="-2069" font-family="Times,serif" font-size="10.00" fill="#767676">^6.4 || ^7.0</text>
</g>
<!-- symfony/event&#45;dispatcher -->
<g id="node37" class="node">
<title>symfony/event&#45;dispatcher</title>
<path fill="#eeeeee" stroke="black" d="M1234.68,-1078C1234.68,-1078 995.68,-1078 995.68,-1078 989.68,-1078 983.68,-1072 983.68,-1066 983.68,-1066 983.68,-1054 983.68,-1054 983.68,-1048 989.68,-1042 995.68,-1042 995.68,-1042 1234.68,-1042 1234.68,-1042 1240.68,-1042 1246.68,-1048 1246.68,-1054 1246.68,-1054 1246.68,-1066 1246.68,-1066 1246.68,-1072 1240.68,-1078 1234.68,-1078"/>
<text text-anchor="middle" x="1115.18" y="-1056.3" font-family="Times,serif" font-size="14.00" fill="#314b5f">symfony/event&#45;dispatcher: v6.4.13</text>
</g>
<!-- bartlett/php&#45;compatinfo&#45;db&#45;&gt;symfony/event&#45;dispatcher -->
<g id="edge50" class="edge">
<title>bartlett/php&#45;compatinfo&#45;db&#45;&gt;symfony/event&#45;dispatcher</title>
<path fill="none" stroke="#1a2833" d="M141.19,-1609.83C158.08,-1543.1 225.44,-1308.93 366.68,-1182 532.64,-1032.85 807.03,-1027.83 973.18,-1041.39"/>
<polygon fill="#1a2833" stroke="#1a2833" points="973.21,-1044.91 983.47,-1042.27 973.8,-1037.93 973.21,-1044.91"/>
<text text-anchor="middle" x="503.68" y="-1185" font-family="Times,serif" font-size="10.00" fill="#767676">^6.4 || ^7.0</text>
</g>
<!-- symfony/finder -->
<g id="node39" class="node">
<title>symfony/finder</title>
<path fill="#eeeeee" stroke="black" d="M1195.68,-1705C1195.68,-1705 1034.68,-1705 1034.68,-1705 1028.68,-1705 1022.68,-1699 1022.68,-1693 1022.68,-1693 1022.68,-1681 1022.68,-1681 1022.68,-1675 1028.68,-1669 1034.68,-1669 1034.68,-1669 1195.68,-1669 1195.68,-1669 1201.68,-1669 1207.68,-1675 1207.68,-1681 1207.68,-1681 1207.68,-1693 1207.68,-1693 1207.68,-1699 1201.68,-1705 1195.68,-1705"/>
<text text-anchor="middle" x="1115.18" y="-1683.3" font-family="Times,serif" font-size="14.00" fill="#314b5f">symfony/finder: v6.4.13</text>
</g>
<!-- bartlett/php&#45;compatinfo&#45;db&#45;&gt;symfony/finder -->
<g id="edge52" class="edge">
<title>bartlett/php&#45;compatinfo&#45;db&#45;&gt;symfony/finder</title>
<path fill="none" stroke="#1a2833" d="M246.17,-1638.51C260.79,-1639.77 275.59,-1640.97 289.68,-1642 549.89,-1661.01 856.85,-1675.74 1012.56,-1682.66"/>
<polygon fill="#1a2833" stroke="#1a2833" points="1012.45,-1686.16 1022.6,-1683.1 1012.76,-1679.17 1012.45,-1686.16"/>
<text text-anchor="middle" x="503.68" y="-1666" font-family="Times,serif" font-size="10.00" fill="#767676">^6.4 || ^7.0</text>
</g>
<!-- symfony/http&#45;client -->
<g id="node40" class="node">
<title>symfony/http&#45;client</title>
<path fill="#eeeeee" stroke="black" d="M1212.18,-2316C1212.18,-2316 1018.18,-2316 1018.18,-2316 1012.18,-2316 1006.18,-2310 1006.18,-2304 1006.18,-2304 1006.18,-2292 1006.18,-2292 1006.18,-2286 1012.18,-2280 1018.18,-2280 1018.18,-2280 1212.18,-2280 1212.18,-2280 1218.18,-2280 1224.18,-2286 1224.18,-2292 1224.18,-2292 1224.18,-2304 1224.18,-2304 1224.18,-2310 1218.18,-2316 1212.18,-2316"/>
<text text-anchor="middle" x="1115.18" y="-2294.3" font-family="Times,serif" font-size="14.00" fill="#314b5f">symfony/http&#45;client: v6.4.13</text>
</g>
<!-- bartlett/php&#45;compatinfo&#45;db&#45;&gt;symfony/http&#45;client -->
<g id="edge58" class="edge">
<title>bartlett/php&#45;compatinfo&#45;db&#45;&gt;symfony/http&#45;client</title>
<path fill="none" stroke="#1a2833" d="M137.16,-1646.07C139.72,-1728.8 162.68,-2072.75 366.68,-2199 561.65,-2319.67 839.74,-2321.56 995.95,-2310.72"/>
<polygon fill="#1a2833" stroke="#1a2833" points="996.34,-2314.2 1006.06,-2309.99 995.83,-2307.22 996.34,-2314.2"/>
<text text-anchor="middle" x="503.68" y="-2297" font-family="Times,serif" font-size="10.00" fill="#767676">^6.4 || ^7.0</text>
</g>
<!-- symfony/messenger -->
<g id="node42" class="node">
<title>symfony/messenger</title>
<path fill="#eeeeee" stroke="black" d="M1213.68,-2445C1213.68,-2445 1016.68,-2445 1016.68,-2445 1010.68,-2445 1004.68,-2439 1004.68,-2433 1004.68,-2433 1004.68,-2421 1004.68,-2421 1004.68,-2415 1010.68,-2409 1016.68,-2409 1016.68,-2409 1213.68,-2409 1213.68,-2409 1219.68,-2409 1225.68,-2415 1225.68,-2421 1225.68,-2421 1225.68,-2433 1225.68,-2433 1225.68,-2439 1219.68,-2445 1213.68,-2445"/>
<text text-anchor="middle" x="1115.18" y="-2423.3" font-family="Times,serif" font-size="14.00" fill="#314b5f">symfony/messenger: v6.4.13</text>
</g>
<!-- bartlett/php&#45;compatinfo&#45;db&#45;&gt;symfony/messenger -->
<g id="edge63" class="edge">
<title>bartlett/php&#45;compatinfo&#45;db&#45;&gt;symfony/messenger</title>
<path fill="none" stroke="#1a2833" d="M139.99,-1646.08C157.79,-1745.85 249.12,-2227.52 366.68,-2309 555.81,-2440.09 836.06,-2447.04 994.2,-2438.35"/>
<polygon fill="#1a2833" stroke="#1a2833" points="994.66,-2441.83 1004.44,-2437.76 994.25,-2434.84 994.66,-2441.83"/>
<text text-anchor="middle" x="503.68" y="-2419" font-family="Times,serif" font-size="10.00" fill="#767676">^6.4 || ^7.0</text>
</g>
<!-- symfony/polyfill&#45;php84 -->
<g id="node44" class="node">
<title>symfony/polyfill&#45;php84</title>
<path fill="#eeeeee" stroke="black" d="M912.68,-2037C912.68,-2037 695.68,-2037 695.68,-2037 689.68,-2037 683.68,-2031 683.68,-2025 683.68,-2025 683.68,-2013 683.68,-2013 683.68,-2007 689.68,-2001 695.68,-2001 695.68,-2001 912.68,-2001 912.68,-2001 918.68,-2001 924.68,-2007 924.68,-2013 924.68,-2013 924.68,-2025 924.68,-2025 924.68,-2031 918.68,-2037 912.68,-2037"/>
<text text-anchor="middle" x="804.18" y="-2015.3" font-family="Times,serif" font-size="14.00" fill="#314b5f">symfony/polyfill&#45;php84: v1.31.0</text>
</g>
<!-- bartlett/php&#45;compatinfo&#45;db&#45;&gt;symfony/polyfill&#45;php84 -->
<g id="edge65" class="edge">
<title>bartlett/php&#45;compatinfo&#45;db&#45;&gt;symfony/polyfill&#45;php84</title>
<path fill="none" stroke="#1a2833" d="M138.14,-1646.32C143.57,-1707.36 170.1,-1904.66 289.68,-1989 349.24,-2031.02 541.65,-2031.64 673.25,-2026.59"/>
<polygon fill="#1a2833" stroke="#1a2833" points="673.56,-2030.08 683.41,-2026.18 673.28,-2023.08 673.56,-2030.08"/>
<text text-anchor="middle" x="319.18" y="-2014" font-family="Times,serif" font-size="10.00" fill="#767676">^1.0</text>
</g>
<!-- symfony/process -->
<g id="node45" class="node">
<title>symfony/process</title>
<path fill="#eeeeee" stroke="black" d="M891.18,-1801C891.18,-1801 717.18,-1801 717.18,-1801 711.18,-1801 705.18,-1795 705.18,-1789 705.18,-1789 705.18,-1777 705.18,-1777 705.18,-1771 711.18,-1765 717.18,-1765 717.18,-1765 891.18,-1765 891.18,-1765 897.18,-1765 903.18,-1771 903.18,-1777 903.18,-1777 903.18,-1789 903.18,-1789 903.18,-1795 897.18,-1801 891.18,-1801"/>
<text text-anchor="middle" x="804.18" y="-1779.3" font-family="Times,serif" font-size="14.00" fill="#314b5f">symfony/process: v6.4.13</text>
</g>
<!-- bartlett/php&#45;compatinfo&#45;db&#45;&gt;symfony/process -->
<g id="edge67" class="edge">
<title>bartlett/php&#45;compatinfo&#45;db&#45;&gt;symfony/process</title>
<path fill="none" stroke="#1a2833" d="M162.47,-1645.78C191.95,-1665.48 242.37,-1696.99 289.68,-1716 422.21,-1769.27 588.01,-1782.22 694.75,-1784.39"/>
<polygon fill="#1a2833" stroke="#1a2833" points="694.83,-1787.89 704.89,-1784.56 694.95,-1780.89 694.83,-1787.89"/>
<text text-anchor="middle" x="319.18" y="-1738" font-family="Times,serif" font-size="10.00" fill="#767676">^6.4 || ^7.0</text>
</g>
<!-- symfony/requirements&#45;checker -->
<g id="node46" class="node">
<title>symfony/requirements&#45;checker</title>
<path fill="#eeeeee" stroke="black" d="M937.68,-1760C937.68,-1760 670.68,-1760 670.68,-1760 664.68,-1760 658.68,-1754 658.68,-1748 658.68,-1748 658.68,-1736 658.68,-1736 658.68,-1730 664.68,-1724 670.68,-1724 670.68,-1724 937.68,-1724 937.68,-1724 943.68,-1724 949.68,-1730 949.68,-1736 949.68,-1736 949.68,-1748 949.68,-1748 949.68,-1754 943.68,-1760 937.68,-1760"/>
<text text-anchor="middle" x="804.18" y="-1738.3" font-family="Times,serif" font-size="14.00" fill="#314b5f">symfony/requirements&#45;checker: v2.0.1</text>
</g>
<!-- bartlett/php&#45;compatinfo&#45;db&#45;&gt;symfony/requirements&#45;checker -->
<g id="edge69" class="edge">
<title>bartlett/php&#45;compatinfo&#45;db&#45;&gt;symfony/requirements&#45;checker</title>
<path fill="none" stroke="#1a2833" d="M172.35,-1645.45C202.74,-1659.58 248.06,-1678.76 289.68,-1689 408.01,-1718.12 545.5,-1731.26 648.42,-1737.18"/>
<polygon fill="#1a2833" stroke="#1a2833" points="648.4,-1740.68 658.58,-1737.74 648.79,-1733.69 648.4,-1740.68"/>
<text text-anchor="middle" x="319.18" y="-1704" font-family="Times,serif" font-size="10.00" fill="#767676">^2.0</text>
</g>
<!-- symfony/stopwatch -->
<g id="node47" class="node">
<title>symfony/stopwatch</title>
<path fill="#eeeeee" stroke="black" d="M1211.68,-2140C1211.68,-2140 1018.68,-2140 1018.68,-2140 1012.68,-2140 1006.68,-2134 1006.68,-2128 1006.68,-2128 1006.68,-2116 1006.68,-2116 1006.68,-2110 1012.68,-2104 1018.68,-2104 1018.68,-2104 1211.68,-2104 1211.68,-2104 1217.68,-2104 1223.68,-2110 1223.68,-2116 1223.68,-2116 1223.68,-2128 1223.68,-2128 1223.68,-2134 1217.68,-2140 1211.68,-2140"/>
<text text-anchor="middle" x="1115.18" y="-2118.3" font-family="Times,serif" font-size="14.00" fill="#314b5f">symfony/stopwatch: v6.4.13</text>
</g>
<!-- bartlett/php&#45;compatinfo&#45;db&#45;&gt;symfony/stopwatch -->
<g id="edge72" class="edge">
<title>bartlett/php&#45;compatinfo&#45;db&#45;&gt;symfony/stopwatch</title>
<path fill="none" stroke="#1a2833" d="M138.39,-1646.19C144.75,-1709.94 174.25,-1925.94 289.68,-2048 487.59,-2257.29 880.99,-2184.23 1042.47,-2142.64"/>
<polygon fill="#1a2833" stroke="#1a2833" points="1043.51,-2145.99 1052.3,-2140.07 1041.74,-2139.21 1043.51,-2145.99"/>
<text text-anchor="middle" x="503.68" y="-2190" font-family="Times,serif" font-size="10.00" fill="#767676">^6.4 || ^7.0</text>
</g>
<!-- symfony/framework&#45;bundle -->
<g id="node48" class="node">
<title>symfony/framework&#45;bundle</title>
<path fill="#eeeeee" stroke="black" d="M628.68,-1469C628.68,-1469 378.68,-1469 378.68,-1469 372.68,-1469 366.68,-1463 366.68,-1457 366.68,-1457 366.68,-1445 366.68,-1445 366.68,-1439 372.68,-1433 378.68,-1433 378.68,-1433 628.68,-1433 628.68,-1433 634.68,-1433 640.68,-1439 640.68,-1445 640.68,-1445 640.68,-1457 640.68,-1457 640.68,-1463 634.68,-1469 628.68,-1469"/>
<text text-anchor="middle" x="503.68" y="-1447.3" font-family="Times,serif" font-size="14.00" fill="#314b5f">symfony/framework&#45;bundle: v6.4.13</text>
</g>
<!-- bartlett/php&#45;compatinfo&#45;db&#45;&gt;symfony/framework&#45;bundle -->
<g id="edge89" class="edge">
<title>bartlett/php&#45;compatinfo&#45;db&#45;&gt;symfony/framework&#45;bundle</title>
<path fill="none" stroke="#1a2833" stroke-dasharray="5,2" d="M172.92,-1610.54C239.65,-1578.26 382.25,-1509.26 456.14,-1473.51"/>
<polygon fill="#1a2833" stroke="#1a2833" points="457.76,-1476.62 465.23,-1469.11 454.71,-1470.32 457.76,-1476.62"/>
<text text-anchor="middle" x="319.18" y="-1553" font-family="Times,serif" font-size="10.00" fill="#767676">^6.4 || ^7.0</text>
</g>
<!-- bamarni/composer&#45;bin&#45;plugin -->
<g id="node55" class="node">
<title>bamarni/composer&#45;bin&#45;plugin</title>
<path fill="#eeeeee" stroke="black" d="M627.18,-1900C627.18,-1900 380.18,-1900 380.18,-1900 374.18,-1900 368.18,-1894 368.18,-1888 368.18,-1888 368.18,-1876 368.18,-1876 368.18,-1870 374.18,-1864 380.18,-1864 380.18,-1864 627.18,-1864 627.18,-1864 633.18,-1864 639.18,-1870 639.18,-1876 639.18,-1876 639.18,-1888 639.18,-1888 639.18,-1894 633.18,-1900 627.18,-1900"/>
<text text-anchor="middle" x="503.68" y="-1878.3" font-family="Times,serif" font-size="14.00" fill="#314b5f">bamarni/composer&#45;bin&#45;plugin: 1.8.2</text>
</g>
<!-- bartlett/php&#45;compatinfo&#45;db&#45;&gt;bamarni/composer&#45;bin&#45;plugin -->
<g id="edge92" class="edge">
<title>bartlett/php&#45;compatinfo&#45;db&#45;&gt;bamarni/composer&#45;bin&#45;plugin</title>
<path fill="none" stroke="#1a2833" stroke-dasharray="5,2" d="M143.91,-1646.14C161.47,-1688.53 211.34,-1794.26 289.68,-1844 310.23,-1857.05 334.03,-1865.93 358.12,-1871.91"/>
<polygon fill="#1a2833" stroke="#1a2833" points="357.55,-1875.37 368.08,-1874.22 359.13,-1868.56 357.55,-1875.37"/>
<text text-anchor="middle" x="319.18" y="-1872" font-family="Times,serif" font-size="10.00" fill="#767676">^1.8</text>
</g>
<!-- composer/semver&#45;&gt;php -->
<g id="edge8" class="edge">
<title>composer/semver&#45;&gt;php</title>
<path fill="none" stroke="#1a2833" d="M898.19,-1843.15C1060.93,-1832.92 1390.46,-1812.2 1500.2,-1805.29"/>
<polygon fill="#1a2833" stroke="#1a2833" points="1500.65,-1808.77 1510.41,-1804.65 1500.21,-1801.79 1500.65,-1808.77"/>
<text text-anchor="middle" x="1115.18" y="-1841" font-family="Times,serif" font-size="10.00" fill="#767676">^5.3.2 || ^7.0 || ^8.0</text>
</g>
<!-- doctrine/orm&#45;&gt;php -->
<g id="edge22" class="edge">
<title>doctrine/orm&#45;&gt;php</title>
<path fill="none" stroke="#1a2833" d="M510.88,-670.26C539.59,-754.72 658.14,-1103.5 658.68,-1104 762.43,-1201.42 828.01,-1160.64 967.68,-1188 1032.49,-1200.7 1215.58,-1177.7 1262.68,-1224 1283.32,-1244.29 1271.35,-1325.6 1280.68,-1353 1339.83,-1526.87 1467.64,-1709.86 1516.83,-1776.65"/>
<polygon fill="#1a2833" stroke="#1a2833" points="1514.2,-1778.98 1522.96,-1784.93 1519.82,-1774.81 1514.2,-1778.98"/>
<text text-anchor="middle" x="1115.18" y="-1227" font-family="Times,serif" font-size="10.00" fill="#767676">^7.1 || ^8.0</text>
</g>
<!-- doctrine/orm&#45;&gt;composer&#45;runtime&#45;api -->
<g id="edge10" class="edge">
<title>doctrine/orm&#45;&gt;composer&#45;runtime&#45;api</title>
<path fill="none" stroke="#1a2833" d="M531.97,-633.94C561.74,-615.28 611.46,-587.09 658.68,-574 783.63,-539.36 820.85,-567.8 949.68,-553 972.07,-550.43 996.08,-547.01 1018.65,-543.5"/>
<polygon fill="#1a2833" stroke="#1a2833" points="1019.23,-546.95 1028.56,-541.94 1018.14,-540.04 1019.23,-546.95"/>
<text text-anchor="middle" x="804.18" y="-577" font-family="Times,serif" font-size="10.00" fill="#767676">^2</text>
</g>
<!-- doctrine/cache -->
<g id="node11" class="node">
<title>doctrine/cache</title>
<path fill="#eeeeee" stroke="black" d="M1186.18,-862C1186.18,-862 1044.18,-862 1044.18,-862 1038.18,-862 1032.18,-856 1032.18,-850 1032.18,-850 1032.18,-838 1032.18,-838 1032.18,-832 1038.18,-826 1044.18,-826 1044.18,-826 1186.18,-826 1186.18,-826 1192.18,-826 1198.18,-832 1198.18,-838 1198.18,-838 1198.18,-850 1198.18,-850 1198.18,-856 1192.18,-862 1186.18,-862"/>
<text text-anchor="middle" x="1115.18" y="-840.3" font-family="Times,serif" font-size="14.00" fill="#314b5f">doctrine/cache: 2.2.0</text>
</g>
<!-- doctrine/orm&#45;&gt;doctrine/cache -->
<g id="edge11" class="edge">
<title>doctrine/orm&#45;&gt;doctrine/cache</title>
<path fill="none" stroke="#1a2833" d="M515.48,-670.03C537.42,-704.77 590.92,-780.32 658.68,-812 774.91,-866.34 926.24,-864.76 1021.83,-856.25"/>
<polygon fill="#1a2833" stroke="#1a2833" points="1022.42,-859.71 1032.05,-855.29 1021.77,-852.74 1022.42,-859.71"/>
<text text-anchor="middle" x="804.18" y="-863" font-family="Times,serif" font-size="10.00" fill="#767676">^1.12.1 || ^2.1.1</text>
</g>
<!-- doctrine/collections -->
<g id="node12" class="node">
<title>doctrine/collections</title>
<path fill="#eeeeee" stroke="black" d="M1203.68,-808C1203.68,-808 1026.68,-808 1026.68,-808 1020.68,-808 1014.68,-802 1014.68,-796 1014.68,-796 1014.68,-784 1014.68,-784 1014.68,-778 1020.68,-772 1026.68,-772 1026.68,-772 1203.68,-772 1203.68,-772 1209.68,-772 1215.68,-778 1215.68,-784 1215.68,-784 1215.68,-796 1215.68,-796 1215.68,-802 1209.68,-808 1203.68,-808"/>
<text text-anchor="middle" x="1115.18" y="-786.3" font-family="Times,serif" font-size="14.00" fill="#314b5f">doctrine/collections: 2.2.2</text>
</g>
<!-- doctrine/orm&#45;&gt;doctrine/collections -->
<g id="edge12" class="edge">
<title>doctrine/orm&#45;&gt;doctrine/collections</title>
<path fill="none" stroke="#1a2833" d="M524.21,-670.25C551.76,-694.72 604.73,-737.27 658.68,-756 771.79,-795.28 909.94,-800.05 1004.24,-797.36"/>
<polygon fill="#1a2833" stroke="#1a2833" points="1004.48,-800.85 1014.37,-797.03 1004.26,-793.86 1004.48,-800.85"/>
<text text-anchor="middle" x="804.18" y="-800" font-family="Times,serif" font-size="10.00" fill="#767676">^1.5 || ^2.1</text>
</g>
<!-- doctrine/common -->
<g id="node13" class="node">
<title>doctrine/common</title>
<path fill="#eeeeee" stroke="black" d="M1195.68,-754C1195.68,-754 1034.68,-754 1034.68,-754 1028.68,-754 1022.68,-748 1022.68,-742 1022.68,-742 1022.68,-730 1022.68,-730 1022.68,-724 1028.68,-718 1034.68,-718 1034.68,-718 1195.68,-718 1195.68,-718 1201.68,-718 1207.68,-724 1207.68,-730 1207.68,-730 1207.68,-742 1207.68,-742 1207.68,-748 1201.68,-754 1195.68,-754"/>
<text text-anchor="middle" x="1115.18" y="-732.3" font-family="Times,serif" font-size="14.00" fill="#314b5f">doctrine/common: 3.4.5</text>
</g>
<!-- doctrine/orm&#45;&gt;doctrine/common -->
<g id="edge13" class="edge">
<title>doctrine/orm&#45;&gt;doctrine/common</title>
<path fill="none" stroke="#1a2833" d="M539.69,-670.04C570.22,-684.8 616.16,-704.69 658.68,-714 777.95,-740.11 918.82,-742.75 1011.99,-740.71"/>
<polygon fill="#1a2833" stroke="#1a2833" points="1012.34,-744.21 1022.26,-740.47 1012.18,-737.21 1012.34,-744.21"/>
<text text-anchor="middle" x="804.18" y="-744" font-family="Times,serif" font-size="10.00" fill="#767676">^3.0.3</text>
</g>
<!-- doctrine/orm&#45;&gt;doctrine/dbal -->
<g id="edge14" class="edge">
<title>doctrine/orm&#45;&gt;doctrine/dbal</title>
<path fill="none" stroke="#1a2833" d="M533.59,-633.95C565.85,-612.06 616.66,-571.93 640.68,-523 658.19,-487.31 631.22,-373.75 658.68,-345 748.97,-250.46 852.8,-389.79 949.68,-302 974.12,-279.85 943.63,-252.58 967.68,-230 983.78,-214.88 1005.45,-206.84 1027.17,-202.84"/>
<polygon fill="#1a2833" stroke="#1a2833" points="1027.8,-206.29 1037.14,-201.28 1026.72,-199.37 1027.8,-206.29"/>
<text text-anchor="middle" x="804.18" y="-348" font-family="Times,serif" font-size="10.00" fill="#767676">^2.13.1 || ^3.2</text>
</g>
<!-- doctrine/deprecations -->
<g id="node15" class="node">
<title>doctrine/deprecations</title>
<path fill="#eeeeee" stroke="black" d="M1212.18,-700C1212.18,-700 1018.18,-700 1018.18,-700 1012.18,-700 1006.18,-694 1006.18,-688 1006.18,-688 1006.18,-676 1006.18,-676 1006.18,-670 1012.18,-664 1018.18,-664 1018.18,-664 1212.18,-664 1212.18,-664 1218.18,-664 1224.18,-670 1224.18,-676 1224.18,-676 1224.18,-688 1224.18,-688 1224.18,-694 1218.18,-700 1212.18,-700"/>
<text text-anchor="middle" x="1115.18" y="-678.3" font-family="Times,serif" font-size="14.00" fill="#314b5f">doctrine/deprecations: 1.1.3</text>
</g>
<!-- doctrine/orm&#45;&gt;doctrine/deprecations -->
<g id="edge15" class="edge">
<title>doctrine/orm&#45;&gt;doctrine/deprecations</title>
<path fill="none" stroke="#1a2833" d="M585.52,-654.1C674.73,-656.65 822.52,-661.55 949.68,-669 964.57,-669.87 980.22,-670.93 995.69,-672.06"/>
<polygon fill="#1a2833" stroke="#1a2833" points="995.59,-675.56 1005.82,-672.81 996.11,-668.58 995.59,-675.56"/>
<text text-anchor="middle" x="804.18" y="-672" font-family="Times,serif" font-size="10.00" fill="#767676">^0.5.3 || ^1</text>
</g>
<!-- doctrine/event&#45;manager -->
<g id="node16" class="node">
<title>doctrine/event&#45;manager</title>
<path fill="#eeeeee" stroke="black" d="M1219.68,-599C1219.68,-599 1010.68,-599 1010.68,-599 1004.68,-599 998.68,-593 998.68,-587 998.68,-587 998.68,-575 998.68,-575 998.68,-569 1004.68,-563 1010.68,-563 1010.68,-563 1219.68,-563 1219.68,-563 1225.68,-563 1231.68,-569 1231.68,-575 1231.68,-575 1231.68,-587 1231.68,-587 1231.68,-593 1225.68,-599 1219.68,-599"/>
<text text-anchor="middle" x="1115.18" y="-577.3" font-family="Times,serif" font-size="14.00" fill="#314b5f">doctrine/event&#45;manager: 2.0.1</text>
</g>
<!-- doctrine/orm&#45;&gt;doctrine/event&#45;manager -->
<g id="edge16" class="edge">
<title>doctrine/orm&#45;&gt;doctrine/event&#45;manager</title>
<path fill="none" stroke="#1a2833" d="M560.03,-633.98C589.09,-625.27 625.46,-615.53 658.68,-610 719.76,-599.83 876.02,-591.27 988.49,-586.15"/>
<polygon fill="#1a2833" stroke="#1a2833" points="988.71,-589.64 998.55,-585.69 988.4,-582.65 988.71,-589.64"/>
<text text-anchor="middle" x="804.18" y="-613" font-family="Times,serif" font-size="10.00" fill="#767676">^1.2 || ^2</text>
</g>
<!-- doctrine/inflector -->
<g id="node17" class="node">
<title>doctrine/inflector</title>
<path fill="#eeeeee" stroke="black" d="M1200.18,-491C1200.18,-491 1030.18,-491 1030.18,-491 1024.18,-491 1018.18,-485 1018.18,-479 1018.18,-479 1018.18,-467 1018.18,-467 1018.18,-461 1024.18,-455 1030.18,-455 1030.18,-455 1200.18,-455 1200.18,-455 1206.18,-455 1212.18,-461 1212.18,-467 1212.18,-467 1212.18,-479 1212.18,-479 1212.18,-485 1206.18,-491 1200.18,-491"/>
<text text-anchor="middle" x="1115.18" y="-469.3" font-family="Times,serif" font-size="14.00" fill="#314b5f">doctrine/inflector: 2.0.10</text>
</g>
<!-- doctrine/orm&#45;&gt;doctrine/inflector -->
<g id="edge17" class="edge">
<title>doctrine/orm&#45;&gt;doctrine/inflector</title>
<path fill="none" stroke="#1a2833" d="M523.22,-633.77C550.42,-608.21 603.89,-562.36 658.68,-540 659.69,-539.59 873.94,-508.17 1008.2,-488.51"/>
<polygon fill="#1a2833" stroke="#1a2833" points="1008.74,-491.97 1018.13,-487.06 1007.73,-485.04 1008.74,-491.97"/>
<text text-anchor="middle" x="804.18" y="-543" font-family="Times,serif" font-size="10.00" fill="#767676">^1.4 || ^2.0</text>
</g>
<!-- doctrine/instantiator -->
<g id="node18" class="node">
<title>doctrine/instantiator</title>
<path fill="#eeeeee" stroke="black" d="M1207.68,-437C1207.68,-437 1022.68,-437 1022.68,-437 1016.68,-437 1010.68,-431 1010.68,-425 1010.68,-425 1010.68,-413 1010.68,-413 1010.68,-407 1016.68,-401 1022.68,-401 1022.68,-401 1207.68,-401 1207.68,-401 1213.68,-401 1219.68,-407 1219.68,-413 1219.68,-413 1219.68,-425 1219.68,-425 1219.68,-431 1213.68,-437 1207.68,-437"/>
<text text-anchor="middle" x="1115.18" y="-415.3" font-family="Times,serif" font-size="14.00" fill="#314b5f">doctrine/instantiator: 2.0.0</text>
</g>
<!-- doctrine/orm&#45;&gt;doctrine/instantiator -->
<g id="edge18" class="edge">
<title>doctrine/orm&#45;&gt;doctrine/instantiator</title>
<path fill="none" stroke="#1a2833" d="M528.79,-633.99C558.31,-610.94 608.37,-568.51 640.68,-523 651.96,-507.1 642.74,-494.22 658.68,-483 711.72,-445.66 889.2,-483.45 949.68,-460 959.13,-456.34 958.43,-450.15 967.68,-446 978.08,-441.33 989.24,-437.47 1000.6,-434.28"/>
<polygon fill="#1a2833" stroke="#1a2833" points="1001.83,-437.58 1010.61,-431.64 1000.05,-430.81 1001.83,-437.58"/>
<text text-anchor="middle" x="804.18" y="-486" font-family="Times,serif" font-size="10.00" fill="#767676">^1.3 || ^2</text>
</g>
<!-- doctrine/lexer -->
<g id="node19" class="node">
<title>doctrine/lexer</title>
<path fill="#eeeeee" stroke="black" d="M1183.68,-383C1183.68,-383 1046.68,-383 1046.68,-383 1040.68,-383 1034.68,-377 1034.68,-371 1034.68,-371 1034.68,-359 1034.68,-359 1034.68,-353 1040.68,-347 1046.68,-347 1046.68,-347 1183.68,-347 1183.68,-347 1189.68,-347 1195.68,-353 1195.68,-359 1195.68,-359 1195.68,-371 1195.68,-371 1195.68,-377 1189.68,-383 1183.68,-383"/>
<text text-anchor="middle" x="1115.18" y="-361.3" font-family="Times,serif" font-size="14.00" fill="#314b5f">doctrine/lexer: 3.0.1</text>
</g>
<!-- doctrine/orm&#45;&gt;doctrine/lexer -->
<g id="edge19" class="edge">
<title>doctrine/orm&#45;&gt;doctrine/lexer</title>
<path fill="none" stroke="#1a2833" d="M531.62,-633.95C562.76,-611.62 613.24,-570.67 640.68,-523 657.99,-492.91 632.24,-469.5 658.68,-447 708.05,-404.98 895.37,-461.42 949.68,-426 964,-416.66 953.89,-402.12 967.68,-392 984.16,-379.9 1004.44,-372.7 1024.59,-368.53"/>
<polygon fill="#1a2833" stroke="#1a2833" points="1025.25,-371.96 1034.46,-366.71 1023.99,-365.08 1025.25,-371.96"/>
<text text-anchor="middle" x="804.18" y="-450" font-family="Times,serif" font-size="10.00" fill="#767676">^2 || ^3</text>
</g>
<!-- doctrine/persistence -->
<g id="node20" class="node">
<title>doctrine/persistence</title>
<path fill="#eeeeee" stroke="black" d="M1207.18,-329C1207.18,-329 1023.18,-329 1023.18,-329 1017.18,-329 1011.18,-323 1011.18,-317 1011.18,-317 1011.18,-305 1011.18,-305 1011.18,-299 1017.18,-293 1023.18,-293 1023.18,-293 1207.18,-293 1207.18,-293 1213.18,-293 1219.18,-299 1219.18,-305 1219.18,-305 1219.18,-317 1219.18,-317 1219.18,-323 1213.18,-329 1207.18,-329"/>
<text text-anchor="middle" x="1115.18" y="-307.3" font-family="Times,serif" font-size="14.00" fill="#314b5f">doctrine/persistence: 3.3.3</text>
</g>
<!-- doctrine/orm&#45;&gt;doctrine/persistence -->
<g id="edge20" class="edge">
<title>doctrine/orm&#45;&gt;doctrine/persistence</title>
<path fill="none" stroke="#1a2833" d="M532.77,-633.88C564.52,-611.77 615.09,-571.32 640.68,-523 663.86,-479.22 622.1,-446.42 658.68,-413 706.54,-369.27 898.48,-431.78 949.68,-392 969.65,-376.48 948.58,-354.6 967.68,-338 977.47,-329.48 989.06,-323.27 1001.36,-318.78"/>
<polygon fill="#1a2833" stroke="#1a2833" points="1002.47,-322.1 1010.89,-315.67 1000.3,-315.44 1002.47,-322.1"/>
<text text-anchor="middle" x="804.18" y="-416" font-family="Times,serif" font-size="10.00" fill="#767676">^2.4 || ^3</text>
</g>
<!-- ext&#45;ctype -->
<g id="node21" class="node">
<title>ext&#45;ctype</title>
<path fill="#eeeeee" stroke="black" d="M1144.68,-1024C1144.68,-1024 1085.68,-1024 1085.68,-1024 1079.68,-1024 1073.68,-1018 1073.68,-1012 1073.68,-1012 1073.68,-1000 1073.68,-1000 1073.68,-994 1079.68,-988 1085.68,-988 1085.68,-988 1144.68,-988 1144.68,-988 1150.68,-988 1156.68,-994 1156.68,-1000 1156.68,-1000 1156.68,-1012 1156.68,-1012 1156.68,-1018 1150.68,-1024 1144.68,-1024"/>
<text text-anchor="middle" x="1115.18" y="-1002.3" font-family="Times,serif" font-size="14.00" fill="#314b5f">ext&#45;ctype</text>
</g>
<!-- doctrine/orm&#45;&gt;ext&#45;ctype -->
<g id="edge21" class="edge">
<title>doctrine/orm&#45;&gt;ext&#45;ctype</title>
<path fill="none" stroke="#1a2833" d="M507.15,-670.12C515.88,-726.16 550.73,-897.33 658.68,-971 723.26,-1015.08 958.6,-1012.02 1063.32,-1008.29"/>
<polygon fill="#1a2833" stroke="#1a2833" points="1063.47,-1011.78 1073.34,-1007.91 1063.21,-1004.79 1063.47,-1011.78"/>
<text text-anchor="middle" x="804.18" y="-1013" font-family="Times,serif" font-size="10.00" fill="#767676">*</text>
</g>
<!-- psr/cache -->
<g id="node22" class="node">
<title>psr/cache</title>
<path fill="#eeeeee" stroke="black" d="M1590.68,-819C1590.68,-819 1484.68,-819 1484.68,-819 1478.68,-819 1472.68,-813 1472.68,-807 1472.68,-807 1472.68,-795 1472.68,-795 1472.68,-789 1478.68,-783 1484.68,-783 1484.68,-783 1590.68,-783 1590.68,-783 1596.68,-783 1602.68,-789 1602.68,-795 1602.68,-795 1602.68,-807 1602.68,-807 1602.68,-813 1596.68,-819 1590.68,-819"/>
<text text-anchor="middle" x="1537.68" y="-797.3" font-family="Times,serif" font-size="14.00" fill="#314b5f">psr/cache: 3.0.0</text>
</g>
<!-- doctrine/orm&#45;&gt;psr/cache -->
<g id="edge23" class="edge">
<title>doctrine/orm&#45;&gt;psr/cache</title>
<path fill="none" stroke="#1a2833" d="M585.34,-645.72C753.64,-633.51 1137.01,-610.55 1262.68,-644 1359.89,-669.88 1458.5,-739.31 1506.57,-776.57"/>
<polygon fill="#1a2833" stroke="#1a2833" points="1504.64,-779.51 1514.68,-782.92 1508.96,-774 1504.64,-779.51"/>
<text text-anchor="middle" x="1115.18" y="-647" font-family="Times,serif" font-size="10.00" fill="#767676">^1 || ^2 || ^3</text>
</g>
<!-- doctrine/orm&#45;&gt;symfony/console -->
<g id="edge24" class="edge">
<title>doctrine/orm&#45;&gt;symfony/console</title>
<path fill="none" stroke="#1a2833" d="M533.38,-633.85C565.45,-611.86 616.08,-571.65 640.68,-523 655.23,-494.22 635.28,-401.2 658.68,-379 705.7,-334.37 900.18,-399.87 949.68,-358 975.52,-336.14 943.08,-307.25 967.68,-284 978.7,-273.58 992.36,-266.52 1006.88,-261.82"/>
<polygon fill="#1a2833" stroke="#1a2833" points="1007.86,-265.18 1016.52,-259.07 1005.94,-258.45 1007.86,-265.18"/>
<text text-anchor="middle" x="804.18" y="-382" font-family="Times,serif" font-size="10.00" fill="#767676">^4.2 || ^5.0 || ^6.0 || ^7.0</text>
</g>
<!-- symfony/polyfill&#45;php72 -->
<g id="node24" class="node">
<title>symfony/polyfill&#45;php72</title>
<path fill="#eeeeee" stroke="black" d="M1223.68,-970C1223.68,-970 1006.68,-970 1006.68,-970 1000.68,-970 994.68,-964 994.68,-958 994.68,-958 994.68,-946 994.68,-946 994.68,-940 1000.68,-934 1006.68,-934 1006.68,-934 1223.68,-934 1223.68,-934 1229.68,-934 1235.68,-940 1235.68,-946 1235.68,-946 1235.68,-958 1235.68,-958 1235.68,-964 1229.68,-970 1223.68,-970"/>
<text text-anchor="middle" x="1115.18" y="-948.3" font-family="Times,serif" font-size="14.00" fill="#314b5f">symfony/polyfill&#45;php72: v1.31.0</text>
</g>
<!-- doctrine/orm&#45;&gt;symfony/polyfill&#45;php72 -->
<g id="edge25" class="edge">
<title>doctrine/orm&#45;&gt;symfony/polyfill&#45;php72</title>
<path fill="none" stroke="#1a2833" d="M508.82,-670.12C521.34,-720.18 563.86,-860.6 658.68,-920 711.13,-952.86 869.08,-957.54 984.31,-956.19"/>
<polygon fill="#1a2833" stroke="#1a2833" points="984.67,-959.69 994.62,-956.05 984.58,-952.69 984.67,-959.69"/>
<text text-anchor="middle" x="804.18" y="-959" font-family="Times,serif" font-size="10.00" fill="#767676">^1.23</text>
</g>
<!-- symfony/polyfill&#45;php80 -->
<g id="node25" class="node">
<title>symfony/polyfill&#45;php80</title>
<path fill="#eeeeee" stroke="black" d="M1223.68,-916C1223.68,-916 1006.68,-916 1006.68,-916 1000.68,-916 994.68,-910 994.68,-904 994.68,-904 994.68,-892 994.68,-892 994.68,-886 1000.68,-880 1006.68,-880 1006.68,-880 1223.68,-880 1223.68,-880 1229.68,-880 1235.68,-886 1235.68,-892 1235.68,-892 1235.68,-904 1235.68,-904 1235.68,-910 1229.68,-916 1223.68,-916"/>
<text text-anchor="middle" x="1115.18" y="-894.3" font-family="Times,serif" font-size="14.00" fill="#314b5f">symfony/polyfill&#45;php80: v1.31.0</text>
</g>
<!-- doctrine/orm&#45;&gt;symfony/polyfill&#45;php80 -->
<g id="edge26" class="edge">
<title>doctrine/orm&#45;&gt;symfony/polyfill&#45;php80</title>
<path fill="none" stroke="#1a2833" d="M510.78,-670.08C526.82,-714.41 574.84,-828.28 658.68,-875 712.55,-905.03 869.56,-907.02 984.21,-903.99"/>
<polygon fill="#1a2833" stroke="#1a2833" points="984.58,-907.48 994.48,-903.7 984.38,-900.48 984.58,-907.48"/>
<text text-anchor="middle" x="804.18" y="-908" font-family="Times,serif" font-size="10.00" fill="#767676">^1.16</text>
</g>
<!-- symfony/cache&#45;&gt;php -->
<g id="edge29" class="edge">
<title>symfony/cache&#45;&gt;php</title>
<path fill="none" stroke="#1a2833" d="M1207.31,-1166.77C1227.27,-1171.68 1247.08,-1179.79 1262.68,-1193 1279.11,-1206.92 1266.01,-1222.23 1280.68,-1238 1306.26,-1265.51 1332.34,-1246.38 1356.68,-1275 1374.71,-1296.21 1366.12,-1308.51 1374.68,-1335 1428.94,-1503.06 1500.42,-1702.71 1526.55,-1775.07"/>
<polygon fill="#1a2833" stroke="#1a2833" points="1523.38,-1776.59 1530.07,-1784.81 1529.96,-1774.21 1523.38,-1776.59"/>
<text text-anchor="middle" x="1318.68" y="-1278" font-family="Times,serif" font-size="10.00" fill="#767676">&gt;=8.1</text>
</g>
<!-- symfony/cache&#45;&gt;psr/cache -->
<g id="edge30" class="edge">
<title>symfony/cache&#45;&gt;psr/cache</title>
<path fill="none" stroke="#1a2833" d="M1207.19,-1157.15C1227.63,-1152.24 1247.68,-1143.64 1262.68,-1129 1286.89,-1105.35 1257.41,-1079.59 1280.68,-1055 1304.93,-1029.37 1330.05,-1055.17 1356.68,-1032 1371.08,-1019.47 1364.43,-1009.11 1374.68,-993 1415.92,-928.17 1477.12,-861.64 1511.28,-826.45"/>
<polygon fill="#1a2833" stroke="#1a2833" points="1514.05,-828.62 1518.54,-819.02 1509.05,-823.72 1514.05,-828.62"/>
<text text-anchor="middle" x="1318.68" y="-1058" font-family="Times,serif" font-size="10.00" fill="#767676">^2.0|^3.0</text>
</g>
<!-- symfony/cache&#45;&gt;psr/log -->
<g id="edge31" class="edge">
<title>symfony/cache&#45;&gt;psr/log</title>
<path fill="none" stroke="#1a2833" d="M1207.31,-1162.11C1228.51,-1166.95 1248.89,-1176.19 1262.68,-1193 1297.32,-1235.23 1247.2,-2132.84 1280.68,-2176 1302.15,-2203.69 1334.35,-2169.99 1356.68,-2197 1388.36,-2235.32 1343.35,-2381.39 1374.68,-2420 1397.97,-2448.71 1437.61,-2460.79 1471.84,-2465.65"/>
<polygon fill="#1a2833" stroke="#1a2833" points="1471.44,-2469.13 1481.8,-2466.89 1472.31,-2462.18 1471.44,-2469.13"/>
<text text-anchor="middle" x="1318.68" y="-2200" font-family="Times,serif" font-size="10.00" fill="#767676">^1.1|^2|^3</text>
</g>
<!-- symfony/cache&#45;contracts -->
<g id="node28" class="node">
<title>symfony/cache&#45;contracts</title>
<path fill="#eeeeee" stroke="black" d="M1648.68,-1164C1648.68,-1164 1426.68,-1164 1426.68,-1164 1420.68,-1164 1414.68,-1158 1414.68,-1152 1414.68,-1152 1414.68,-1140 1414.68,-1140 1414.68,-1134 1420.68,-1128 1426.68,-1128 1426.68,-1128 1648.68,-1128 1648.68,-1128 1654.68,-1128 1660.68,-1134 1660.68,-1140 1660.68,-1140 1660.68,-1152 1660.68,-1152 1660.68,-1158 1654.68,-1164 1648.68,-1164"/>
<text text-anchor="middle" x="1537.68" y="-1142.3" font-family="Times,serif" font-size="14.00" fill="#314b5f">symfony/cache&#45;contracts: v3.5.0</text>
</g>
<!-- symfony/cache&#45;&gt;symfony/cache&#45;contracts -->
<g id="edge32" class="edge">
<title>symfony/cache&#45;&gt;symfony/cache&#45;contracts</title>
<path fill="none" stroke="#1a2833" d="M1207.49,-1154.06C1231.3,-1152.48 1256.94,-1150.98 1280.68,-1150 1320.9,-1148.34 1364.71,-1147.36 1404.53,-1146.78"/>
<polygon fill="#1a2833" stroke="#1a2833" points="1404.61,-1150.27 1414.56,-1146.64 1404.51,-1143.28 1404.61,-1150.27"/>
<text text-anchor="middle" x="1318.68" y="-1153" font-family="Times,serif" font-size="10.00" fill="#767676">^2.5|^3</text>
</g>
<!-- symfony/service&#45;contracts -->
<g id="node29" class="node">
<title>symfony/service&#45;contracts</title>
<path fill="#eeeeee" stroke="black" d="M1654.18,-2175C1654.18,-2175 1421.18,-2175 1421.18,-2175 1415.18,-2175 1409.18,-2169 1409.18,-2163 1409.18,-2163 1409.18,-2151 1409.18,-2151 1409.18,-2145 1415.18,-2139 1421.18,-2139 1421.18,-2139 1654.18,-2139 1654.18,-2139 1660.18,-2139 1666.18,-2145 1666.18,-2151 1666.18,-2151 1666.18,-2163 1666.18,-2163 1666.18,-2169 1660.18,-2175 1654.18,-2175"/>
<text text-anchor="middle" x="1537.68" y="-2153.3" font-family="Times,serif" font-size="14.00" fill="#314b5f">symfony/service&#45;contracts: v3.5.0</text>
</g>
<!-- symfony/cache&#45;&gt;symfony/service&#45;contracts -->
<g id="edge33" class="edge">
<title>symfony/cache&#45;&gt;symfony/service&#45;contracts</title>
<path fill="none" stroke="#1a2833" d="M1207.51,-1162.34C1228.58,-1167.2 1248.85,-1176.4 1262.68,-1193 1281.82,-1215.98 1274.58,-1701.72 1280.68,-1731 1299.37,-1820.85 1333.42,-1834.22 1356.68,-1923 1371.68,-1980.28 1342.61,-2005.22 1374.68,-2055 1398.63,-2092.19 1441.47,-2118.28 1477.08,-2134.76"/>
<polygon fill="#1a2833" stroke="#1a2833" points="1475.88,-2138.06 1486.44,-2138.95 1478.74,-2131.67 1475.88,-2138.06"/>
<text text-anchor="middle" x="1318.68" y="-1926" font-family="Times,serif" font-size="10.00" fill="#767676">^2.5|^3</text>
</g>
<!-- symfony/var&#45;exporter -->
<g id="node30" class="node">
<title>symfony/var&#45;exporter</title>
<path fill="#eeeeee" stroke="black" d="M1642.18,-1272C1642.18,-1272 1433.18,-1272 1433.18,-1272 1427.18,-1272 1421.18,-1266 1421.18,-1260 1421.18,-1260 1421.18,-1248 1421.18,-1248 1421.18,-1242 1427.18,-1236 1433.18,-1236 1433.18,-1236 1642.18,-1236 1642.18,-1236 1648.18,-1236 1654.18,-1242 1654.18,-1248 1654.18,-1248 1654.18,-1260 1654.18,-1260 1654.18,-1266 1648.18,-1272 1642.18,-1272"/>
<text text-anchor="middle" x="1537.68" y="-1250.3" font-family="Times,serif" font-size="14.00" fill="#314b5f">symfony/var&#45;exporter: v6.4.13</text>
</g>
<!-- symfony/cache&#45;&gt;symfony/var&#45;exporter -->
<g id="edge34" class="edge">
<title>symfony/cache&#45;&gt;symfony/var&#45;exporter</title>
<path fill="none" stroke="#1a2833" d="M1207.41,-1161.63C1265.17,-1163.75 1333.22,-1169.98 1356.68,-1187 1372.45,-1198.45 1359.23,-1215.1 1374.68,-1227 1385.58,-1235.4 1398.13,-1241.6 1411.33,-1246.12"/>
<polygon fill="#1a2833" stroke="#1a2833" points="1410.44,-1249.51 1421.03,-1249.12 1412.51,-1242.82 1410.44,-1249.51"/>
<text text-anchor="middle" x="1318.68" y="-1190" font-family="Times,serif" font-size="10.00" fill="#767676">^6.3.6|^7.0</text>
</g>
<!-- symfony/config&#45;&gt;php -->
<g id="edge36" class="edge">
<title>symfony/config&#45;&gt;php</title>
<path fill="none" stroke="#1a2833" d="M1208.22,-1648.83C1226.33,-1652.27 1245.14,-1656.06 1262.68,-1660 1304.85,-1669.48 1317.2,-1667.37 1356.68,-1685 1412.97,-1710.15 1471.48,-1751.9 1505.96,-1778.41"/>
<polygon fill="#1a2833" stroke="#1a2833" points="1504.15,-1781.43 1514.19,-1784.8 1508.44,-1775.9 1504.15,-1781.43"/>
<text text-anchor="middle" x="1318.68" y="-1688" font-family="Times,serif" font-size="10.00" fill="#767676">&gt;=8.1</text>
</g>
<!-- symfony/deprecation&#45;contracts -->
<g id="node32" class="node">
<title>symfony/deprecation&#45;contracts</title>
<path fill="#eeeeee" stroke="black" d="M1670.68,-2310C1670.68,-2310 1404.68,-2310 1404.68,-2310 1398.68,-2310 1392.68,-2304 1392.68,-2298 1392.68,-2298 1392.68,-2286 1392.68,-2286 1392.68,-2280 1398.68,-2274 1404.68,-2274 1404.68,-2274 1670.68,-2274 1670.68,-2274 1676.68,-2274 1682.68,-2280 1682.68,-2286 1682.68,-2286 1682.68,-2298 1682.68,-2298 1682.68,-2304 1676.68,-2310 1670.68,-2310"/>
<text text-anchor="middle" x="1537.68" y="-2288.3" font-family="Times,serif" font-size="14.00" fill="#314b5f">symfony/deprecation&#45;contracts: v3.5.0</text>
</g>
<!-- symfony/config&#45;&gt;symfony/deprecation&#45;contracts -->
<g id="edge37" class="edge">
<title>symfony/config&#45;&gt;symfony/deprecation&#45;contracts</title>
<path fill="none" stroke="#1a2833" d="M1208.52,-1631.58C1229.06,-1635.82 1248.81,-1644.29 1262.68,-1660 1308.63,-1712.07 1240.93,-1915.05 1280.68,-1972 1301.75,-2002.2 1334.96,-1975.26 1356.68,-2005 1403.83,-2069.57 1333.46,-2115.48 1374.68,-2184 1398.69,-2223.92 1443.8,-2252.16 1480.33,-2269.73"/>
<polygon fill="#1a2833" stroke="#1a2833" points="1478.87,-2272.91 1489.42,-2273.96 1481.83,-2266.56 1478.87,-2272.91"/>
<text text-anchor="middle" x="1318.68" y="-2008" font-family="Times,serif" font-size="10.00" fill="#767676">^2.5|^3</text>
</g>
<!-- symfony/filesystem -->
<g id="node33" class="node">
<title>symfony/filesystem</title>
<path fill="#eeeeee" stroke="black" d="M1633.68,-1218C1633.68,-1218 1441.68,-1218 1441.68,-1218 1435.68,-1218 1429.68,-1212 1429.68,-1206 1429.68,-1206 1429.68,-1194 1429.68,-1194 1429.68,-1188 1435.68,-1182 1441.68,-1182 1441.68,-1182 1633.68,-1182 1633.68,-1182 1639.68,-1182 1645.68,-1188 1645.68,-1194 1645.68,-1194 1645.68,-1206 1645.68,-1206 1645.68,-1212 1639.68,-1218 1633.68,-1218"/>
<text text-anchor="middle" x="1537.68" y="-1196.3" font-family="Times,serif" font-size="14.00" fill="#314b5f">symfony/filesystem: v6.4.13</text>
</g>
<!-- symfony/config&#45;&gt;symfony/filesystem -->
<g id="edge38" class="edge">
<title>symfony/config&#45;&gt;symfony/filesystem</title>
<path fill="none" stroke="#1a2833" d="M1208.49,-1631.25C1229.15,-1626.33 1248.98,-1617.2 1262.68,-1601 1289.54,-1569.23 1252.11,-1257.24 1280.68,-1227 1299.89,-1206.65 1361.59,-1199.75 1419.6,-1198.01"/>
<polygon fill="#1a2833" stroke="#1a2833" points="1419.71,-1201.51 1429.62,-1197.76 1419.53,-1194.51 1419.71,-1201.51"/>
<text text-anchor="middle" x="1318.68" y="-1230" font-family="Times,serif" font-size="10.00" fill="#767676">^5.4|^6.0|^7.0</text>
</g>
<!-- symfony/polyfill&#45;ctype -->
<g id="node34" class="node">
<title>symfony/polyfill&#45;ctype</title>
<path fill="#eeeeee" stroke="black" d="M1643.18,-1326C1643.18,-1326 1432.18,-1326 1432.18,-1326 1426.18,-1326 1420.18,-1320 1420.18,-1314 1420.18,-1314 1420.18,-1302 1420.18,-1302 1420.18,-1296 1426.18,-1290 1432.18,-1290 1432.18,-1290 1643.18,-1290 1643.18,-1290 1649.18,-1290 1655.18,-1296 1655.18,-1302 1655.18,-1302 1655.18,-1314 1655.18,-1314 1655.18,-1320 1649.18,-1326 1643.18,-1326"/>
<text text-anchor="middle" x="1537.68" y="-1304.3" font-family="Times,serif" font-size="14.00" fill="#314b5f">symfony/polyfill&#45;ctype: v1.31.0</text>
</g>
<!-- symfony/config&#45;&gt;symfony/polyfill&#45;ctype -->
<g id="edge39" class="edge">
<title>symfony/config&#45;&gt;symfony/polyfill&#45;ctype</title>
<path fill="none" stroke="#1a2833" d="M1208.34,-1631.12C1229.01,-1626.21 1248.87,-1617.11 1262.68,-1601 1305.13,-1551.47 1233.16,-1352.69 1280.68,-1308 1299.73,-1290.08 1355.35,-1288.64 1409.91,-1292.31"/>
<polygon fill="#1a2833" stroke="#1a2833" points="1409.84,-1295.81 1420.07,-1293.05 1410.35,-1288.83 1409.84,-1295.81"/>
<text text-anchor="middle" x="1318.68" y="-1311" font-family="Times,serif" font-size="10.00" fill="#767676">~1.8</text>
</g>
<!-- symfony/dependency&#45;injection&#45;&gt;php -->
<g id="edge42" class="edge">
<title>symfony/dependency&#45;injection&#45;&gt;php</title>
<path fill="none" stroke="#1a2833" d="M1244.07,-2049.99C1250.81,-2046.09 1257.1,-2041.47 1262.68,-2036 1287.16,-2012.01 1257.15,-1985.94 1280.68,-1961 1304.89,-1935.33 1325.19,-1953.94 1356.68,-1938 1416.2,-1907.86 1476.43,-1857.84 1509.92,-1827.89"/>
<polygon fill="#1a2833" stroke="#1a2833" points="1512.37,-1830.39 1517.44,-1821.09 1507.68,-1825.2 1512.37,-1830.39"/>
<text text-anchor="middle" x="1318.68" y="-1964" font-family="Times,serif" font-size="10.00" fill="#767676">&gt;=8.1</text>
</g>
<!-- symfony/dependency&#45;injection&#45;&gt;symfony/service&#45;contracts -->
<g id="edge45" class="edge">
<title>symfony/dependency&#45;injection&#45;&gt;symfony/service&#45;contracts</title>
<path fill="none" stroke="#1a2833" d="M1262.82,-2052.85C1294.13,-2052.96 1326.76,-2055.66 1356.68,-2063 1411.75,-2076.52 1468.69,-2110.16 1503.4,-2133.3"/>
<polygon fill="#1a2833" stroke="#1a2833" points="1501.48,-2136.24 1511.73,-2138.94 1505.41,-2130.44 1501.48,-2136.24"/>
<text text-anchor="middle" x="1318.68" y="-2066" font-family="Times,serif" font-size="10.00" fill="#767676">^2.5|^3.0</text>
</g>
<!-- symfony/dependency&#45;injection&#45;&gt;symfony/var&#45;exporter -->
<g id="edge46" class="edge">
<title>symfony/dependency&#45;injection&#45;&gt;symfony/var&#45;exporter</title>
<path fill="none" stroke="#1a2833" d="M1247.25,-2049.89C1252.93,-2045.97 1258.14,-2041.37 1262.68,-2036 1290.51,-2003.02 1274.29,-1690.68 1280.68,-1648 1283.79,-1627.18 1359.17,-1295.23 1374.68,-1281 1385.16,-1271.38 1397.7,-1264.49 1411.12,-1259.62"/>
<polygon fill="#1a2833" stroke="#1a2833" points="1412.58,-1262.82 1421.02,-1256.42 1410.43,-1256.16 1412.58,-1262.82"/>
<text text-anchor="middle" x="1318.68" y="-1651" font-family="Times,serif" font-size="10.00" fill="#767676">^6.2.10|^7.0</text>
</g>
<!-- symfony/dependency&#45;injection&#45;&gt;symfony/deprecation&#45;contracts -->
<g id="edge44" class="edge">
<title>symfony/dependency&#45;injection&#45;&gt;symfony/deprecation&#45;contracts</title>
<path fill="none" stroke="#1a2833" d="M1249.99,-2086.1C1254.45,-2088.74 1258.7,-2091.69 1262.68,-2095 1279.88,-2109.3 1264.3,-2126.76 1280.68,-2142 1306.51,-2166.04 1326.65,-2146.46 1356.68,-2165 1366.57,-2171.11 1365.78,-2176.5 1374.68,-2184 1413.47,-2216.69 1462.46,-2248.17 1496.36,-2268.63"/>
<polygon fill="#1a2833" stroke="#1a2833" points="1494.68,-2271.7 1505.06,-2273.84 1498.28,-2265.7 1494.68,-2271.7"/>
<text text-anchor="middle" x="1318.68" y="-2168" font-family="Times,serif" font-size="10.00" fill="#767676">^2.5|^3</text>
</g>
<!-- psr/container -->
<g id="node36" class="node">
<title>psr/container</title>
<path fill="#eeeeee" stroke="black" d="M1604.18,-2046C1604.18,-2046 1471.18,-2046 1471.18,-2046 1465.18,-2046 1459.18,-2040 1459.18,-2034 1459.18,-2034 1459.18,-2022 1459.18,-2022 1459.18,-2016 1465.18,-2010 1471.18,-2010 1471.18,-2010 1604.18,-2010 1604.18,-2010 1610.18,-2010 1616.18,-2016 1616.18,-2022 1616.18,-2022 1616.18,-2034 1616.18,-2034 1616.18,-2040 1610.18,-2046 1604.18,-2046"/>
<text text-anchor="middle" x="1537.68" y="-2024.3" font-family="Times,serif" font-size="14.00" fill="#314b5f">psr/container: 2.0.2</text>
</g>
<!-- symfony/dependency&#45;injection&#45;&gt;psr/container -->
<g id="edge43" class="edge">
<title>symfony/dependency&#45;injection&#45;&gt;psr/container</title>
<path fill="none" stroke="#1a2833" d="M1209.35,-2049.94C1227.18,-2045.84 1245.6,-2041.15 1262.68,-2036 1270.89,-2033.52 1272.24,-2030.6 1280.68,-2029 1335.93,-2018.52 1399.1,-2018.16 1448.87,-2020.47"/>
<polygon fill="#1a2833" stroke="#1a2833" points="1448.79,-2023.97 1458.96,-2020.98 1449.15,-2016.98 1448.79,-2023.97"/>
<text text-anchor="middle" x="1318.68" y="-2032" font-family="Times,serif" font-size="10.00" fill="#767676">^1.1|^2.0</text>
</g>
<!-- symfony/event&#45;dispatcher&#45;&gt;php -->
<g id="edge48" class="edge">
<title>symfony/event&#45;dispatcher&#45;&gt;php</title>
<path fill="none" stroke="#1a2833" d="M1246.71,-1068.35C1288.75,-1078.04 1331.05,-1096.74 1356.68,-1132 1383.3,-1168.64 1365.2,-1290.71 1374.68,-1335 1411.63,-1507.64 1493.53,-1704.43 1524.5,-1775.56"/>
<polygon fill="#1a2833" stroke="#1a2833" points="1521.3,-1776.99 1528.52,-1784.74 1527.71,-1774.18 1521.3,-1776.99"/>
<text text-anchor="middle" x="1318.68" y="-1135" font-family="Times,serif" font-size="10.00" fill="#767676">&gt;=8.1</text>
</g>
<!-- symfony/event&#45;dispatcher&#45;contracts -->
<g id="node38" class="node">
<title>symfony/event&#45;dispatcher&#45;contracts</title>
<path fill="#eeeeee" stroke="black" d="M1688.68,-1038C1688.68,-1038 1386.68,-1038 1386.68,-1038 1380.68,-1038 1374.68,-1032 1374.68,-1026 1374.68,-1026 1374.68,-1014 1374.68,-1014 1374.68,-1008 1380.68,-1002 1386.68,-1002 1386.68,-1002 1688.68,-1002 1688.68,-1002 1694.68,-1002 1700.68,-1008 1700.68,-1014 1700.68,-1014 1700.68,-1026 1700.68,-1026 1700.68,-1032 1694.68,-1038 1688.68,-1038"/>
<text text-anchor="middle" x="1537.68" y="-1016.3" font-family="Times,serif" font-size="14.00" fill="#314b5f">symfony/event&#45;dispatcher&#45;contracts: v3.5.0</text>
</g>
<!-- symfony/event&#45;dispatcher&#45;&gt;symfony/event&#45;dispatcher&#45;contracts -->
<g id="edge49" class="edge">
<title>symfony/event&#45;dispatcher&#45;&gt;symfony/event&#45;dispatcher&#45;contracts</title>
<path fill="none" stroke="#1a2833" d="M1236.45,-1041.98C1245.45,-1039.38 1254.29,-1036.4 1262.68,-1033 1271.59,-1029.39 1271.48,-1023.8 1280.68,-1021 1307.2,-1012.91 1336,-1008.71 1364.4,-1006.97"/>
<polygon fill="#1a2833" stroke="#1a2833" points="1364.61,-1010.47 1374.42,-1006.46 1364.25,-1003.48 1364.61,-1010.47"/>
<text text-anchor="middle" x="1318.68" y="-1024" font-family="Times,serif" font-size="10.00" fill="#767676">^2.5|^3</text>
</g>
<!-- symfony/finder&#45;&gt;php -->
<g id="edge51" class="edge">
<title>symfony/finder&#45;&gt;php</title>
<path fill="none" stroke="#1a2833" d="M1207.82,-1690.93C1253.31,-1694.67 1308.65,-1701.92 1356.68,-1716 1409.72,-1731.55 1466.44,-1761.42 1501.72,-1781.78"/>
<polygon fill="#1a2833" stroke="#1a2833" points="1500.25,-1784.98 1510.65,-1786.99 1503.78,-1778.93 1500.25,-1784.98"/>
<text text-anchor="middle" x="1318.68" y="-1719" font-family="Times,serif" font-size="10.00" fill="#767676">&gt;=8.1</text>
</g>
<!-- symfony/http&#45;client&#45;&gt;php -->
<g id="edge53" class="edge">
<title>symfony/http&#45;client&#45;&gt;php</title>
<path fill="none" stroke="#1a2833" d="M1174.01,-2279.95C1204.9,-2267.39 1240.92,-2247.51 1262.68,-2218 1286.62,-2185.52 1253.16,-2158.52 1280.68,-2129 1304.57,-2103.37 1333.2,-2134.02 1356.68,-2108 1388.98,-2072.19 1354.74,-2044.91 1374.68,-2001 1406.99,-1929.83 1471.43,-1862.94 1508.56,-1828.08"/>
<polygon fill="#1a2833" stroke="#1a2833" points="1511.09,-1830.5 1516.05,-1821.14 1506.33,-1825.37 1511.09,-1830.5"/>
<text text-anchor="middle" x="1318.68" y="-2132" font-family="Times,serif" font-size="10.00" fill="#767676">&gt;=8.1</text>
</g>
<!-- symfony/http&#45;client&#45;&gt;psr/log -->
<g id="edge54" class="edge">
<title>symfony/http&#45;client&#45;&gt;psr/log</title>
<path fill="none" stroke="#1a2833" d="M1151,-2316.06C1183.06,-2334 1230.4,-2364 1262.68,-2400 1273.83,-2412.44 1266.92,-2423.52 1280.68,-2433 1310.78,-2453.76 1406.36,-2462.27 1471.82,-2465.72"/>
<polygon fill="#1a2833" stroke="#1a2833" points="1471.89,-2469.23 1482.05,-2466.23 1472.24,-2462.23 1471.89,-2469.23"/>
<text text-anchor="middle" x="1318.68" y="-2456" font-family="Times,serif" font-size="10.00" fill="#767676">^1|^2|^3</text>
</g>
<!-- symfony/http&#45;client&#45;&gt;symfony/service&#45;contracts -->
<g id="edge57" class="edge">
<title>symfony/http&#45;client&#45;&gt;symfony/service&#45;contracts</title>
<path fill="none" stroke="#1a2833" d="M1211.97,-2279.99C1256.57,-2270.41 1309.97,-2257.24 1356.68,-2241 1405.26,-2224.1 1458.34,-2198.38 1494.18,-2179.85"/>
<polygon fill="#1a2833" stroke="#1a2833" points="1496.11,-2182.79 1503.36,-2175.06 1492.88,-2176.58 1496.11,-2182.79"/>
<text text-anchor="middle" x="1318.68" y="-2265" font-family="Times,serif" font-size="10.00" fill="#767676">^2.5|^3</text>
</g>
<!-- symfony/http&#45;client&#45;&gt;symfony/deprecation&#45;contracts -->
<g id="edge55" class="edge">
<title>symfony/http&#45;client&#45;&gt;symfony/deprecation&#45;contracts</title>
<path fill="none" stroke="#1a2833" d="M1224.56,-2301.76C1243.27,-2302.28 1262.53,-2302.72 1280.68,-2303 1314.45,-2303.51 1322.91,-2304.03 1356.68,-2303 1365,-2302.75 1373.53,-2302.43 1382.15,-2302.06"/>
<polygon fill="#1a2833" stroke="#1a2833" points="1382.46,-2305.55 1392.29,-2301.6 1382.14,-2298.55 1382.46,-2305.55"/>
<text text-anchor="middle" x="1318.68" y="-2306" font-family="Times,serif" font-size="10.00" fill="#767676">^2.5|^3</text>
</g>
<!-- symfony/http&#45;client&#45;contracts -->
<g id="node41" class="node">
<title>symfony/http&#45;client&#45;contracts</title>
<path fill="#eeeeee" stroke="black" d="M1665.68,-2411C1665.68,-2411 1409.68,-2411 1409.68,-2411 1403.68,-2411 1397.68,-2405 1397.68,-2399 1397.68,-2399 1397.68,-2387 1397.68,-2387 1397.68,-2381 1403.68,-2375 1409.68,-2375 1409.68,-2375 1665.68,-2375 1665.68,-2375 1671.68,-2375 1677.68,-2381 1677.68,-2387 1677.68,-2387 1677.68,-2399 1677.68,-2399 1677.68,-2405 1671.68,-2411 1665.68,-2411"/>
<text text-anchor="middle" x="1537.68" y="-2389.3" font-family="Times,serif" font-size="14.00" fill="#314b5f">symfony/http&#45;client&#45;contracts: v3.5.0</text>
</g>
<!-- symfony/http&#45;client&#45;&gt;symfony/http&#45;client&#45;contracts -->
<g id="edge56" class="edge">
<title>symfony/http&#45;client&#45;&gt;symfony/http&#45;client&#45;contracts</title>
<path fill="none" stroke="#1a2833" d="M1148.1,-2316.01C1180.43,-2333.31 1232.41,-2358.59 1280.68,-2371 1314.59,-2379.72 1351.78,-2385.16 1387.04,-2388.52"/>
<polygon fill="#1a2833" stroke="#1a2833" points="1387.15,-2392.04 1397.42,-2389.45 1387.78,-2385.07 1387.15,-2392.04"/>
<text text-anchor="middle" x="1318.68" y="-2387" font-family="Times,serif" font-size="10.00" fill="#767676">^3.4.1</text>
</g>
<!-- symfony/messenger&#45;&gt;php -->
<g id="edge59" class="edge">
<title>symfony/messenger&#45;&gt;php</title>
<path fill="none" stroke="#1a2833" d="M1158.94,-2408.98C1226.42,-2380.35 1350.65,-2326.79 1356.68,-2318 1396.57,-2259.81 1349.08,-2066.75 1374.68,-2001 1402.95,-1928.36 1468.61,-1862.25 1507.09,-1827.87"/>
<polygon fill="#1a2833" stroke="#1a2833" points="1509.68,-1830.25 1514.87,-1821.02 1505.05,-1825 1509.68,-1830.25"/>
<text text-anchor="middle" x="1318.68" y="-2358" font-family="Times,serif" font-size="10.00" fill="#767676">&gt;=8.1</text>
</g>
<!-- symfony/messenger&#45;&gt;psr/log -->
<g id="edge60" class="edge">
<title>symfony/messenger&#45;&gt;psr/log</title>
<path fill="none" stroke="#1a2833" d="M1166.91,-2445.06C1199.05,-2455.52 1241.75,-2467.66 1280.68,-2473 1345.29,-2481.86 1419.93,-2478.93 1471.88,-2474.8"/>
<polygon fill="#1a2833" stroke="#1a2833" points="1472.28,-2478.28 1481.96,-2473.96 1471.7,-2471.3 1472.28,-2478.28"/>
<text text-anchor="middle" x="1318.68" y="-2481" font-family="Times,serif" font-size="10.00" fill="#767676">^1|^2|^3</text>
</g>
<!-- symfony/messenger&#45;&gt;symfony/deprecation&#45;contracts -->
<g id="edge62" class="edge">
<title>symfony/messenger&#45;&gt;symfony/deprecation&#45;contracts</title>
<path fill="none" stroke="#1a2833" d="M1225.8,-2423.91C1278.66,-2420.52 1335.2,-2413.49 1356.68,-2399 1370.52,-2389.65 1362.45,-2377.39 1374.68,-2366 1399.89,-2342.51 1433.85,-2325.45 1464.16,-2313.67"/>
<polygon fill="#1a2833" stroke="#1a2833" points="1465.73,-2316.82 1473.86,-2310.03 1463.27,-2310.27 1465.73,-2316.82"/>
<text text-anchor="middle" x="1318.68" y="-2421" font-family="Times,serif" font-size="10.00" fill="#767676">^2.5|^3</text>
</g>
<!-- symfony/clock -->
<g id="node43" class="node">
<title>symfony/clock</title>
<path fill="#eeeeee" stroke="black" d="M1615.18,-2547C1615.18,-2547 1460.18,-2547 1460.18,-2547 1454.18,-2547 1448.18,-2541 1448.18,-2535 1448.18,-2535 1448.18,-2523 1448.18,-2523 1448.18,-2517 1454.18,-2511 1460.18,-2511 1460.18,-2511 1615.18,-2511 1615.18,-2511 1621.18,-2511 1627.18,-2517 1627.18,-2523 1627.18,-2523 1627.18,-2535 1627.18,-2535 1627.18,-2541 1621.18,-2547 1615.18,-2547"/>
<text text-anchor="middle" x="1537.68" y="-2525.3" font-family="Times,serif" font-size="14.00" fill="#314b5f">symfony/clock: v6.4.13</text>
</g>
<!-- symfony/messenger&#45;&gt;symfony/clock -->
<g id="edge61" class="edge">
<title>symfony/messenger&#45;&gt;symfony/clock</title>
<path fill="none" stroke="#1a2833" d="M1153.51,-2445.01C1186.29,-2460.08 1235.63,-2480.99 1280.68,-2493 1331.69,-2506.6 1389.87,-2515.31 1437.87,-2520.74"/>
<polygon fill="#1a2833" stroke="#1a2833" points="1437.62,-2524.24 1447.95,-2521.85 1438.39,-2517.28 1437.62,-2524.24"/>
<text text-anchor="middle" x="1318.68" y="-2511" font-family="Times,serif" font-size="10.00" fill="#767676">^6.3|^7.0</text>
</g>
<!-- symfony/polyfill&#45;php84&#45;&gt;php -->
<g id="edge64" class="edge">
<title>symfony/polyfill&#45;php84&#45;&gt;php</title>
<path fill="none" stroke="#1a2833" d="M924.81,-2025.41C1042.24,-2029.23 1211.03,-2027.35 1262.68,-1989 1280.97,-1975.42 1264.52,-1957.06 1280.68,-1941 1306.2,-1915.62 1324.27,-1928.68 1356.68,-1913 1409.55,-1887.41 1466.84,-1850.7 1502.24,-1826.85"/>
<polygon fill="#1a2833" stroke="#1a2833" points="1504.44,-1829.59 1510.76,-1821.08 1500.52,-1823.8 1504.44,-1829.59"/>
<text text-anchor="middle" x="1115.18" y="-2029" font-family="Times,serif" font-size="10.00" fill="#767676">&gt;=7.2</text>
</g>
<!-- symfony/process&#45;&gt;php -->
<g id="edge66" class="edge">
<title>symfony/process&#45;&gt;php</title>
<path fill="none" stroke="#1a2833" d="M903.45,-1785.69C1068.05,-1790.19 1392.1,-1799.05 1500.43,-1802.01"/>
<polygon fill="#1a2833" stroke="#1a2833" points="1500.43,-1805.51 1510.52,-1802.28 1500.62,-1798.51 1500.43,-1805.51"/>
<text text-anchor="middle" x="1115.18" y="-1798" font-family="Times,serif" font-size="10.00" fill="#767676">&gt;=8.1</text>
</g>
<!-- symfony/requirements&#45;checker&#45;&gt;php -->
<g id="edge68" class="edge">
<title>symfony/requirements&#45;checker&#45;&gt;php</title>
<path fill="none" stroke="#1a2833" d="M949.8,-1749.73C1039.88,-1754.98 1158.12,-1762.66 1262.68,-1772 1348.1,-1779.63 1448.16,-1791.76 1500.53,-1798.36"/>
<polygon fill="#1a2833" stroke="#1a2833" points="1500.29,-1801.86 1510.65,-1799.64 1501.17,-1794.91 1500.29,-1801.86"/>
<text text-anchor="middle" x="1115.18" y="-1775" font-family="Times,serif" font-size="10.00" fill="#767676">&gt;=5.3.9</text>
</g>
<!-- symfony/stopwatch&#45;&gt;php -->
<g id="edge70" class="edge">
<title>symfony/stopwatch&#45;&gt;php</title>
<path fill="none" stroke="#1a2833" d="M1223.72,-2106.04C1283,-2096.28 1346.63,-2083.83 1356.68,-2074 1380.56,-2050.63 1359.73,-2030.89 1374.68,-2001 1409.73,-1930.91 1473.42,-1863.37 1509.62,-1828.17"/>
<polygon fill="#1a2833" stroke="#1a2833" points="1512.13,-1830.62 1516.91,-1821.16 1507.28,-1825.57 1512.13,-1830.62"/>
<text text-anchor="middle" x="1318.68" y="-2098" font-family="Times,serif" font-size="10.00" fill="#767676">&gt;=8.1</text>
</g>
<!-- symfony/stopwatch&#45;&gt;symfony/service&#45;contracts -->
<g id="edge71" class="edge">
<title>symfony/stopwatch&#45;&gt;symfony/service&#45;contracts</title>
<path fill="none" stroke="#1a2833" d="M1185.96,-2140.03C1212.03,-2149.22 1240.64,-2162.47 1262.68,-2181 1274.29,-2190.76 1267.42,-2202.63 1280.68,-2210 1351.02,-2249.13 1446.76,-2208.61 1498.95,-2180.01"/>
<polygon fill="#1a2833" stroke="#1a2833" points="1500.86,-2182.96 1507.87,-2175.01 1497.43,-2176.85 1500.86,-2182.96"/>
<text text-anchor="middle" x="1318.68" y="-2229" font-family="Times,serif" font-size="10.00" fill="#767676">^2.5|^3</text>
</g>
<!-- symfony/framework&#45;bundle&#45;&gt;php -->
<g id="edge76" class="edge">
<title>symfony/framework&#45;bundle&#45;&gt;php</title>
<path fill="none" stroke="#1a2833" d="M533.8,-1469.12C563.87,-1486.86 612.73,-1513.06 658.68,-1526 783.74,-1561.23 821.93,-1530.3 949.68,-1554 957.84,-1555.51 959.53,-1557.38 967.68,-1559 1097.23,-1584.75 1139.04,-1548.52 1262.68,-1595 1369.42,-1635.13 1469.37,-1731.12 1513.27,-1777.31"/>
<polygon fill="#1a2833" stroke="#1a2833" points="1510.92,-1779.92 1520.32,-1784.81 1516.02,-1775.12 1510.92,-1779.92"/>
<text text-anchor="middle" x="1115.18" y="-1598" font-family="Times,serif" font-size="10.00" fill="#767676">&gt;=8.1</text>
</g>
<!-- symfony/framework&#45;bundle&#45;&gt;composer&#45;runtime&#45;api -->
<g id="edge74" class="edge">
<title>symfony/framework&#45;bundle&#45;&gt;composer&#45;runtime&#45;api</title>
<path fill="none" stroke="#1a2833" d="M517.82,-1432.95C546.58,-1392.26 614.62,-1289.23 640.68,-1191 647.66,-1164.67 639.76,-720.6 658.68,-701 703.7,-654.35 902.26,-724.22 949.68,-680 991.05,-641.42 928.49,-594.8 967.68,-554 981.18,-539.94 999.43,-531.82 1018.46,-527.36"/>
<polygon fill="#1a2833" stroke="#1a2833" points="1019.34,-530.75 1028.46,-525.35 1017.96,-523.89 1019.34,-530.75"/>
<text text-anchor="middle" x="804.18" y="-704" font-family="Times,serif" font-size="10.00" fill="#767676">&gt;=2.1</text>
</g>
<!-- symfony/framework&#45;bundle&#45;&gt;symfony/cache -->
<g id="edge77" class="edge">
<title>symfony/framework&#45;bundle&#45;&gt;symfony/cache</title>
<path fill="none" stroke="#1a2833" d="M513.01,-1432.8C532.35,-1392.79 584.36,-1297.06 658.68,-1251 673.75,-1241.66 883.48,-1202.6 1013.03,-1179.12"/>
<polygon fill="#1a2833" stroke="#1a2833" points="1013.77,-1182.54 1022.99,-1177.32 1012.53,-1175.66 1013.77,-1182.54"/>
<text text-anchor="middle" x="804.18" y="-1254" font-family="Times,serif" font-size="10.00" fill="#767676">^5.4|^6.0|^7.0</text>
</g>
<!-- symfony/framework&#45;bundle&#45;&gt;symfony/config -->
<g id="edge78" class="edge">
<title>symfony/framework&#45;bundle&#45;&gt;symfony/config</title>
<path fill="none" stroke="#1a2833" d="M525.31,-1469.31C553.28,-1492.92 605.85,-1533.06 658.68,-1551 720.1,-1571.86 893.73,-1541.16 949.68,-1574 962.11,-1581.3 955.76,-1592.87 967.68,-1601 980.94,-1610.05 996.32,-1616.6 1012.03,-1621.33"/>
<polygon fill="#1a2833" stroke="#1a2833" points="1011.26,-1624.75 1021.83,-1624.04 1013.13,-1618 1011.26,-1624.75"/>
<text text-anchor="middle" x="804.18" y="-1577" font-family="Times,serif" font-size="10.00" fill="#767676">^6.1|^7.0</text>
</g>
<!-- symfony/framework&#45;bundle&#45;&gt;symfony/deprecation&#45;contracts -->
<g id="edge80" class="edge">
<title>symfony/framework&#45;bundle&#45;&gt;symfony/deprecation&#45;contracts</title>
<path fill="none" stroke="#1a2833" d="M524.65,-1469.02C555.61,-1498.29 614.35,-1559.55 640.68,-1625 655.43,-1661.68 630.64,-1774.12 658.68,-1802 704.74,-1847.81 904.66,-1783.16 949.68,-1830 998.88,-1881.19 925.64,-2091.78 967.68,-2149 1050.62,-2261.89 1143.87,-2185.78 1262.68,-2260 1272.01,-2265.83 1270.57,-2272.64 1280.68,-2277 1312.11,-2290.58 1347.76,-2297.35 1382.26,-2300.18"/>
<polygon fill="#1a2833" stroke="#1a2833" points="1382.21,-2303.69 1392.44,-2300.91 1382.71,-2296.7 1382.21,-2303.69"/>
<text text-anchor="middle" x="1115.18" y="-2263" font-family="Times,serif" font-size="10.00" fill="#767676">^2.5|^3</text>
</g>
<!-- symfony/framework&#45;bundle&#45;&gt;symfony/filesystem -->
<g id="edge83" class="edge">
<title>symfony/framework&#45;bundle&#45;&gt;symfony/filesystem</title>
<path fill="none" stroke="#1a2833" d="M509.64,-1432.74C523.85,-1384.16 569.5,-1251.13 658.68,-1187 768.25,-1108.19 1128.44,-1108.88 1262.68,-1123 1305.15,-1127.47 1321.91,-1118.18 1356.68,-1143 1369.33,-1152.03 1361.82,-1164.25 1374.68,-1173 1388.14,-1182.17 1403.67,-1188.59 1419.66,-1193.03"/>
<polygon fill="#1a2833" stroke="#1a2833" points="1419.12,-1196.51 1429.67,-1195.55 1420.83,-1189.72 1419.12,-1196.51"/>
<text text-anchor="middle" x="1115.18" y="-1126" font-family="Times,serif" font-size="10.00" fill="#767676">^5.4|^6.0|^7.0</text>
</g>
<!-- symfony/framework&#45;bundle&#45;&gt;symfony/dependency&#45;injection -->
<g id="edge79" class="edge">
<title>symfony/framework&#45;bundle&#45;&gt;symfony/dependency&#45;injection</title>
<path fill="none" stroke="#1a2833" d="M525.48,-1469.21C555.13,-1496.24 609.41,-1549.86 640.68,-1606 654.02,-1629.95 637.87,-1647.15 658.68,-1665 757.86,-1750.08 861.46,-1610.59 949.68,-1707 999.1,-1761.02 920.22,-1980.24 967.68,-2036 969.95,-2038.68 972.4,-2041.16 974.99,-2043.46"/>
<polygon fill="#1a2833" stroke="#1a2833" points="973.12,-2046.45 983.16,-2049.84 977.43,-2040.93 973.12,-2046.45"/>
<text text-anchor="middle" x="804.18" y="-1710" font-family="Times,serif" font-size="10.00" fill="#767676">^6.4.12|^7.0</text>
</g>
<!-- symfony/framework&#45;bundle&#45;&gt;symfony/event&#45;dispatcher -->
<g id="edge82" class="edge">
<title>symfony/framework&#45;bundle&#45;&gt;symfony/event&#45;dispatcher</title>
<path fill="none" stroke="#1a2833" d="M516.64,-1432.96C543.3,-1391.88 607.83,-1287.44 640.68,-1191 655.52,-1147.42 624.37,-1119.69 658.68,-1089 664.59,-1083.71 841.75,-1073.67 973.34,-1066.91"/>
<polygon fill="#1a2833" stroke="#1a2833" points="973.72,-1070.39 983.53,-1066.38 973.36,-1063.4 973.72,-1070.39"/>
<text text-anchor="middle" x="804.18" y="-1092" font-family="Times,serif" font-size="10.00" fill="#767676">^5.4|^6.0|^7.0</text>
</g>
<!-- symfony/framework&#45;bundle&#45;&gt;symfony/finder -->
<g id="edge84" class="edge">
<title>symfony/framework&#45;bundle&#45;&gt;symfony/finder</title>
<path fill="none" stroke="#1a2833" d="M520.14,-1469.38C545.79,-1498.62 600.16,-1555.43 658.68,-1585 776.95,-1644.77 825.81,-1602.89 949.68,-1650 958.23,-1653.25 959.06,-1656.91 967.68,-1660 981.85,-1665.09 997.16,-1669.26 1012.35,-1672.67"/>
<polygon fill="#1a2833" stroke="#1a2833" points="1011.8,-1676.13 1022.31,-1674.8 1013.26,-1669.28 1011.8,-1676.13"/>
<text text-anchor="middle" x="804.18" y="-1653" font-family="Times,serif" font-size="10.00" fill="#767676">^5.4|^6.0|^7.0</text>
</g>
<!-- ext&#45;xml -->
<g id="node49" class="node">
<title>ext&#45;xml</title>
<path fill="#eeeeee" stroke="black" d="M1138.18,-1442C1138.18,-1442 1092.18,-1442 1092.18,-1442 1086.18,-1442 1080.18,-1436 1080.18,-1430 1080.18,-1430 1080.18,-1418 1080.18,-1418 1080.18,-1412 1086.18,-1406 1092.18,-1406 1092.18,-1406 1138.18,-1406 1138.18,-1406 1144.18,-1406 1150.18,-1412 1150.18,-1418 1150.18,-1418 1150.18,-1430 1150.18,-1430 1150.18,-1436 1144.18,-1442 1138.18,-1442"/>
<text text-anchor="middle" x="1115.18" y="-1420.3" font-family="Times,serif" font-size="14.00" fill="#314b5f">ext&#45;xml</text>
</g>
<!-- symfony/framework&#45;bundle&#45;&gt;ext&#45;xml -->
<g id="edge75" class="edge">
<title>symfony/framework&#45;bundle&#45;&gt;ext&#45;xml</title>
<path fill="none" stroke="#1a2833" d="M640.7,-1444.97C777.72,-1438.9 981.19,-1429.89 1070.01,-1425.96"/>
<polygon fill="#1a2833" stroke="#1a2833" points="1070.18,-1429.45 1080.01,-1425.51 1069.87,-1422.46 1070.18,-1429.45"/>
<text text-anchor="middle" x="804.18" y="-1446" font-family="Times,serif" font-size="10.00" fill="#767676">*</text>
</g>
<!-- symfony/error&#45;handler -->
<g id="node50" class="node">
<title>symfony/error&#45;handler</title>
<path fill="#eeeeee" stroke="black" d="M1222.68,-1388C1222.68,-1388 1007.68,-1388 1007.68,-1388 1001.68,-1388 995.68,-1382 995.68,-1376 995.68,-1376 995.68,-1364 995.68,-1364 995.68,-1358 1001.68,-1352 1007.68,-1352 1007.68,-1352 1222.68,-1352 1222.68,-1352 1228.68,-1352 1234.68,-1358 1234.68,-1364 1234.68,-1364 1234.68,-1376 1234.68,-1376 1234.68,-1382 1228.68,-1388 1222.68,-1388"/>
<text text-anchor="middle" x="1115.18" y="-1366.3" font-family="Times,serif" font-size="14.00" fill="#314b5f">symfony/error&#45;handler: v6.4.13</text>
</g>
<!-- symfony/framework&#45;bundle&#45;&gt;symfony/error&#45;handler -->
<g id="edge81" class="edge">
<title>symfony/framework&#45;bundle&#45;&gt;symfony/error&#45;handler</title>
<path fill="none" stroke="#1a2833" d="M575.62,-1432.96C601.61,-1426.86 631.35,-1420.47 658.68,-1416 768.12,-1398.11 893.56,-1386.05 985.06,-1378.79"/>
<polygon fill="#1a2833" stroke="#1a2833" points="985.51,-1382.27 995.2,-1377.99 984.96,-1375.29 985.51,-1382.27"/>
<text text-anchor="middle" x="804.18" y="-1419" font-family="Times,serif" font-size="10.00" fill="#767676">^6.1|^7.0</text>
</g>
<!-- symfony/http&#45;foundation -->
<g id="node51" class="node">
<title>symfony/http&#45;foundation</title>
<path fill="#eeeeee" stroke="black" d="M1230.18,-1334C1230.18,-1334 1000.18,-1334 1000.18,-1334 994.18,-1334 988.18,-1328 988.18,-1322 988.18,-1322 988.18,-1310 988.18,-1310 988.18,-1304 994.18,-1298 1000.18,-1298 1000.18,-1298 1230.18,-1298 1230.18,-1298 1236.18,-1298 1242.18,-1304 1242.18,-1310 1242.18,-1310 1242.18,-1322 1242.18,-1322 1242.18,-1328 1236.18,-1334 1230.18,-1334"/>
<text text-anchor="middle" x="1115.18" y="-1312.3" font-family="Times,serif" font-size="14.00" fill="#314b5f">symfony/http&#45;foundation: v6.4.13</text>
</g>
<!-- symfony/framework&#45;bundle&#45;&gt;symfony/http&#45;foundation -->
<g id="edge85" class="edge">
<title>symfony/framework&#45;bundle&#45;&gt;symfony/http&#45;foundation</title>
<path fill="none" stroke="#1a2833" d="M530.25,-1432.97C559.72,-1413.19 610.32,-1382.25 658.68,-1367 762.55,-1334.25 885.55,-1321.94 977.54,-1317.58"/>
<polygon fill="#1a2833" stroke="#1a2833" points="977.92,-1321.06 987.75,-1317.12 977.61,-1314.07 977.92,-1321.06"/>
<text text-anchor="middle" x="804.18" y="-1370" font-family="Times,serif" font-size="10.00" fill="#767676">^6.4|^7.0</text>
</g>
<!-- symfony/http&#45;kernel -->
<g id="node52" class="node">
<title>symfony/http&#45;kernel</title>
<path fill="#eeeeee" stroke="black" d="M1214.68,-1280C1214.68,-1280 1015.68,-1280 1015.68,-1280 1009.68,-1280 1003.68,-1274 1003.68,-1268 1003.68,-1268 1003.68,-1256 1003.68,-1256 1003.68,-1250 1009.68,-1244 1015.68,-1244 1015.68,-1244 1214.68,-1244 1214.68,-1244 1220.68,-1244 1226.68,-1250 1226.68,-1256 1226.68,-1256 1226.68,-1268 1226.68,-1268 1226.68,-1274 1220.68,-1280 1214.68,-1280"/>
<text text-anchor="middle" x="1115.18" y="-1258.3" font-family="Times,serif" font-size="14.00" fill="#314b5f">symfony/http&#45;kernel: v6.4.13</text>
</g>
<!-- symfony/framework&#45;bundle&#45;&gt;symfony/http&#45;kernel -->
<g id="edge86" class="edge">
<title>symfony/framework&#45;bundle&#45;&gt;symfony/http&#45;kernel</title>
<path fill="none" stroke="#1a2833" d="M517.18,-1432.78C540.6,-1400.32 594.59,-1333.16 658.68,-1304 716.3,-1277.78 878.83,-1267.93 993.24,-1264.23"/>
<polygon fill="#1a2833" stroke="#1a2833" points="993.58,-1267.72 1003.46,-1263.91 993.36,-1260.72 993.58,-1267.72"/>
<text text-anchor="middle" x="804.18" y="-1307" font-family="Times,serif" font-size="10.00" fill="#767676">^6.4</text>
</g>
<!-- symfony/polyfill&#45;mbstring -->
<g id="node53" class="node">
<title>symfony/polyfill&#45;mbstring</title>
<path fill="#eeeeee" stroke="black" d="M1233.68,-1550C1233.68,-1550 996.68,-1550 996.68,-1550 990.68,-1550 984.68,-1544 984.68,-1538 984.68,-1538 984.68,-1526 984.68,-1526 984.68,-1520 990.68,-1514 996.68,-1514 996.68,-1514 1233.68,-1514 1233.68,-1514 1239.68,-1514 1245.68,-1520 1245.68,-1526 1245.68,-1526 1245.68,-1538 1245.68,-1538 1245.68,-1544 1239.68,-1550 1233.68,-1550"/>
<text text-anchor="middle" x="1115.18" y="-1528.3" font-family="Times,serif" font-size="14.00" fill="#314b5f">symfony/polyfill&#45;mbstring: v1.31.0</text>
</g>
<!-- symfony/framework&#45;bundle&#45;&gt;symfony/polyfill&#45;mbstring -->
<g id="edge87" class="edge">
<title>symfony/framework&#45;bundle&#45;&gt;symfony/polyfill&#45;mbstring</title>
<path fill="none" stroke="#1a2833" d="M578.37,-1469.07C603.7,-1474.8 632.32,-1480.75 658.68,-1485 787.03,-1505.72 820.34,-1501.65 949.68,-1515 957.7,-1515.83 965.94,-1516.68 974.25,-1517.54"/>
<polygon fill="#1a2833" stroke="#1a2833" points="974.11,-1521.04 984.42,-1518.59 974.83,-1514.08 974.11,-1521.04"/>
<text text-anchor="middle" x="804.18" y="-1518" font-family="Times,serif" font-size="10.00" fill="#767676">~1.0</text>
</g>
<!-- symfony/routing -->
<g id="node54" class="node">
<title>symfony/routing</title>
<path fill="#eeeeee" stroke="black" d="M1201.18,-1496C1201.18,-1496 1029.18,-1496 1029.18,-1496 1023.18,-1496 1017.18,-1490 1017.18,-1484 1017.18,-1484 1017.18,-1472 1017.18,-1472 1017.18,-1466 1023.18,-1460 1029.18,-1460 1029.18,-1460 1201.18,-1460 1201.18,-1460 1207.18,-1460 1213.18,-1466 1213.18,-1472 1213.18,-1472 1213.18,-1484 1213.18,-1484 1213.18,-1490 1207.18,-1496 1201.18,-1496"/>
<text text-anchor="middle" x="1115.18" y="-1474.3" font-family="Times,serif" font-size="14.00" fill="#314b5f">symfony/routing: v6.4.13</text>
</g>
<!-- symfony/framework&#45;bundle&#45;&gt;symfony/routing -->
<g id="edge88" class="edge">
<title>symfony/framework&#45;bundle&#45;&gt;symfony/routing</title>
<path fill="none" stroke="#1a2833" d="M640.7,-1457.03C751.22,-1461.92 904.97,-1468.73 1006.92,-1473.25"/>
<polygon fill="#1a2833" stroke="#1a2833" points="1006.79,-1476.75 1016.93,-1473.69 1007.1,-1469.75 1006.79,-1476.75"/>
<text text-anchor="middle" x="804.18" y="-1473" font-family="Times,serif" font-size="10.00" fill="#767676">^6.4|^7.0</text>
</g>
<!-- bamarni/composer&#45;bin&#45;plugin&#45;&gt;php -->
<g id="edge91" class="edge">
<title>bamarni/composer&#45;bin&#45;plugin&#45;&gt;php</title>
<path fill="none" stroke="#1a2833" d="M639.33,-1883C791.25,-1882.71 1045.49,-1877.91 1262.68,-1853 1348.7,-1843.13 1448.44,-1822.61 1500.62,-1811.16"/>
<polygon fill="#1a2833" stroke="#1a2833" points="1501.39,-1814.57 1510.4,-1809 1499.88,-1807.74 1501.39,-1814.57"/>
<text text-anchor="middle" x="1115.18" y="-1878" font-family="Times,serif" font-size="10.00" fill="#767676">^7.2.5 || ^8.0</text>
</g>
<!-- composer&#45;plugin&#45;api -->
<g id="node56" class="node">
<title>composer&#45;plugin&#45;api</title>
<path fill="#eeeeee" stroke="black" d="M1183.68,-1947C1183.68,-1947 1046.68,-1947 1046.68,-1947 1040.68,-1947 1034.68,-1941 1034.68,-1935 1034.68,-1935 1034.68,-1923 1034.68,-1923 1034.68,-1917 1040.68,-1911 1046.68,-1911 1046.68,-1911 1183.68,-1911 1183.68,-1911 1189.68,-1911 1195.68,-1917 1195.68,-1923 1195.68,-1923 1195.68,-1935 1195.68,-1935 1195.68,-1941 1189.68,-1947 1183.68,-1947"/>
<text text-anchor="middle" x="1115.18" y="-1925.3" font-family="Times,serif" font-size="14.00" fill="#314b5f">composer&#45;plugin&#45;api</text>
</g>
<!-- bamarni/composer&#45;bin&#45;plugin&#45;&gt;composer&#45;plugin&#45;api -->
<g id="edge90" class="edge">
<title>bamarni/composer&#45;bin&#45;plugin&#45;&gt;composer&#45;plugin&#45;api</title>
<path fill="none" stroke="#1a2833" d="M639.46,-1894.4C645.96,-1894.95 652.39,-1895.49 658.68,-1896 785.5,-1906.36 932.32,-1916.7 1024.23,-1922.97"/>
<polygon fill="#1a2833" stroke="#1a2833" points="1024.11,-1926.47 1034.33,-1923.66 1024.59,-1919.49 1024.11,-1926.47"/>
<text text-anchor="middle" x="804.18" y="-1920" font-family="Times,serif" font-size="10.00" fill="#767676">^2.0</text>
</g>
</g>
</svg>
