<?xml version="1.0" encoding="UTF-8" standalone="no"?>
<!DOCTYPE svg PUBLIC "-//W3C//DTD SVG 1.1//EN"
 "http://www.w3.org/Graphics/SVG/1.1/DTD/svg11.dtd">
<!-- Generated by graphviz version 2.43.0 (0)
 -->
<!-- Title: %3 Pages: 1 -->
<svg width="1480pt" height="2239pt"
 viewBox="0.00 0.00 1479.68 2238.98" xmlns="http://www.w3.org/2000/svg" xmlns:xlink="http://www.w3.org/1999/xlink">
<g id="graph0" class="graph" transform="scale(1 1) rotate(0) translate(4 2234.98)">
<title>%3</title>
<polygon fill="white" stroke="transparent" points="-4,4 -4,-2234.98 1475.68,-2234.98 1475.68,4 -4,4"/>
<!-- bartlett/php&#45;compatinfo&#45;db -->
<g id="node1" class="node">
<title>bartlett/php&#45;compatinfo&#45;db</title>
<ellipse fill="lightgrey" stroke="black" stroke-width="2" cx="135.84" cy="-636.09" rx="135.68" ry="18"/>
<text text-anchor="middle" x="135.84" y="-632.39" font-family="Times,serif" font-size="14.00">bartlett/php&#45;compatinfo&#45;db</text>
</g>
<!-- php -->
<g id="node2" class="node">
<title>php</title>
<path fill="#eeeeee" stroke="black" d="M1459.68,-695.09C1459.68,-695.09 1429.68,-695.09 1429.68,-695.09 1423.68,-695.09 1417.68,-689.09 1417.68,-683.09 1417.68,-683.09 1417.68,-671.09 1417.68,-671.09 1417.68,-665.09 1423.68,-659.09 1429.68,-659.09 1429.68,-659.09 1459.68,-659.09 1459.68,-659.09 1465.68,-659.09 1471.68,-665.09 1471.68,-671.09 1471.68,-671.09 1471.68,-683.09 1471.68,-683.09 1471.68,-689.09 1465.68,-695.09 1459.68,-695.09"/>
<text text-anchor="middle" x="1444.68" y="-673.39" font-family="Times,serif" font-size="14.00" fill="#314b5f">php</text>
</g>
<!-- bartlett/php&#45;compatinfo&#45;db&#45;&gt;php -->
<g id="edge1" class="edge">
<title>bartlett/php&#45;compatinfo&#45;db&#45;&gt;php</title>
<path fill="none" stroke="#1a2833" d="M137.73,-654.12C144.5,-787.03 190.33,-1616.14 289.68,-1844.09 379.83,-2050.93 487.22,-2078.63 705.68,-2135.09 978.95,-2205.71 1108.8,-2305.02 1340.68,-2144.09 1402.26,-2101.35 1385.12,-2059.62 1399.68,-1986.09 1425.31,-1856.64 1440.63,-885.59 1443.27,-705.71"/>
<polygon fill="#1a2833" stroke="#1a2833" points="1446.77,-705.51 1443.42,-695.46 1439.77,-705.41 1446.77,-705.51"/>
<text text-anchor="middle" x="851.18" y="-2221.09" font-family="Times,serif" font-size="10.00" fill="#767676">8.1 &#45; 8.5</text>
</g>
<!-- ext&#45;json -->
<g id="node3" class="node">
<title>ext&#45;json</title>
<path fill="#eeeeee" stroke="black" d="M569.18,-303.09C569.18,-303.09 520.18,-303.09 520.18,-303.09 514.18,-303.09 508.18,-297.09 508.18,-291.09 508.18,-291.09 508.18,-279.09 508.18,-279.09 508.18,-273.09 514.18,-267.09 520.18,-267.09 520.18,-267.09 569.18,-267.09 569.18,-267.09 575.18,-267.09 581.18,-273.09 581.18,-279.09 581.18,-279.09 581.18,-291.09 581.18,-291.09 581.18,-297.09 575.18,-303.09 569.18,-303.09"/>
<text text-anchor="middle" x="544.68" y="-281.39" font-family="Times,serif" font-size="14.00" fill="#314b5f">ext&#45;json</text>
</g>
<!-- bartlett/php&#45;compatinfo&#45;db&#45;&gt;ext&#45;json -->
<g id="edge2" class="edge">
<title>bartlett/php&#45;compatinfo&#45;db&#45;&gt;ext&#45;json</title>
<path fill="none" stroke="#1a2833" d="M139.06,-617.94C147.09,-561 180.19,-385.02 289.68,-308.09 351.28,-264.8 443.11,-268.87 497.83,-276.48"/>
<polygon fill="#1a2833" stroke="#1a2833" points="497.52,-279.98 507.93,-277.99 498.56,-273.05 497.52,-279.98"/>
<text text-anchor="middle" x="336.68" y="-311.09" font-family="Times,serif" font-size="10.00" fill="#767676">*</text>
</g>
<!-- ext&#45;pcre -->
<g id="node4" class="node">
<title>ext&#45;pcre</title>
<path fill="#eeeeee" stroke="black" d="M570.18,-249.09C570.18,-249.09 519.18,-249.09 519.18,-249.09 513.18,-249.09 507.18,-243.09 507.18,-237.09 507.18,-237.09 507.18,-225.09 507.18,-225.09 507.18,-219.09 513.18,-213.09 519.18,-213.09 519.18,-213.09 570.18,-213.09 570.18,-213.09 576.18,-213.09 582.18,-219.09 582.18,-225.09 582.18,-225.09 582.18,-237.09 582.18,-237.09 582.18,-243.09 576.18,-249.09 570.18,-249.09"/>
<text text-anchor="middle" x="544.68" y="-227.39" font-family="Times,serif" font-size="14.00" fill="#314b5f">ext&#45;pcre</text>
</g>
<!-- bartlett/php&#45;compatinfo&#45;db&#45;&gt;ext&#45;pcre -->
<g id="edge3" class="edge">
<title>bartlett/php&#45;compatinfo&#45;db&#45;&gt;ext&#45;pcre</title>
<path fill="none" stroke="#1a2833" d="M138.02,-617.72C143.1,-555.57 168.72,-351.89 289.68,-260.09 349.63,-214.59 441.6,-216.64 496.87,-223.21"/>
<polygon fill="#1a2833" stroke="#1a2833" points="496.72,-226.72 507.08,-224.53 497.61,-219.78 496.72,-226.72"/>
<text text-anchor="middle" x="336.68" y="-263.09" font-family="Times,serif" font-size="10.00" fill="#767676">*</text>
</g>
<!-- ext&#45;pdo -->
<g id="node5" class="node">
<title>ext&#45;pdo</title>
<path fill="#eeeeee" stroke="black" d="M567.68,-195.09C567.68,-195.09 521.68,-195.09 521.68,-195.09 515.68,-195.09 509.68,-189.09 509.68,-183.09 509.68,-183.09 509.68,-171.09 509.68,-171.09 509.68,-165.09 515.68,-159.09 521.68,-159.09 521.68,-159.09 567.68,-159.09 567.68,-159.09 573.68,-159.09 579.68,-165.09 579.68,-171.09 579.68,-171.09 579.68,-183.09 579.68,-183.09 579.68,-189.09 573.68,-195.09 567.68,-195.09"/>
<text text-anchor="middle" x="544.68" y="-173.39" font-family="Times,serif" font-size="14.00" fill="#314b5f">ext&#45;pdo</text>
</g>
<!-- bartlett/php&#45;compatinfo&#45;db&#45;&gt;ext&#45;pdo -->
<g id="edge4" class="edge">
<title>bartlett/php&#45;compatinfo&#45;db&#45;&gt;ext&#45;pdo</title>
<path fill="none" stroke="#1a2833" d="M137.09,-617.75C139.1,-550.62 155.8,-316.51 289.68,-209.09 349.44,-161.13 443.89,-163.25 499.22,-169.75"/>
<polygon fill="#1a2833" stroke="#1a2833" points="499.04,-173.26 509.4,-171.05 499.93,-166.31 499.04,-173.26"/>
<text text-anchor="middle" x="336.68" y="-212.09" font-family="Times,serif" font-size="10.00" fill="#767676">*</text>
</g>
<!-- ext&#45;phar -->
<g id="node6" class="node">
<title>ext&#45;phar</title>
<path fill="#eeeeee" stroke="black" d="M571.18,-141.09C571.18,-141.09 518.18,-141.09 518.18,-141.09 512.18,-141.09 506.18,-135.09 506.18,-129.09 506.18,-129.09 506.18,-117.09 506.18,-117.09 506.18,-111.09 512.18,-105.09 518.18,-105.09 518.18,-105.09 571.18,-105.09 571.18,-105.09 577.18,-105.09 583.18,-111.09 583.18,-117.09 583.18,-117.09 583.18,-129.09 583.18,-129.09 583.18,-135.09 577.18,-141.09 571.18,-141.09"/>
<text text-anchor="middle" x="544.68" y="-119.39" font-family="Times,serif" font-size="14.00" fill="#314b5f">ext&#45;phar</text>
</g>
<!-- bartlett/php&#45;compatinfo&#45;db&#45;&gt;ext&#45;phar -->
<g id="edge5" class="edge">
<title>bartlett/php&#45;compatinfo&#45;db&#45;&gt;ext&#45;phar</title>
<path fill="none" stroke="#1a2833" d="M136.29,-617.6C135.27,-545.27 142.01,-279.43 289.68,-156.09 347.51,-107.78 440.07,-108.97 496.04,-115.29"/>
<polygon fill="#1a2833" stroke="#1a2833" points="495.7,-118.77 506.05,-116.52 496.55,-111.82 495.7,-118.77"/>
<text text-anchor="middle" x="336.68" y="-159.09" font-family="Times,serif" font-size="10.00" fill="#767676">*</text>
</g>
<!-- ext&#45;spl -->
<g id="node7" class="node">
<title>ext&#45;spl</title>
<path fill="#eeeeee" stroke="black" d="M565.18,-87.09C565.18,-87.09 524.18,-87.09 524.18,-87.09 518.18,-87.09 512.18,-81.09 512.18,-75.09 512.18,-75.09 512.18,-63.09 512.18,-63.09 512.18,-57.09 518.18,-51.09 524.18,-51.09 524.18,-51.09 565.18,-51.09 565.18,-51.09 571.18,-51.09 577.18,-57.09 577.18,-63.09 577.18,-63.09 577.18,-75.09 577.18,-75.09 577.18,-81.09 571.18,-87.09 565.18,-87.09"/>
<text text-anchor="middle" x="544.68" y="-65.39" font-family="Times,serif" font-size="14.00" fill="#314b5f">ext&#45;spl</text>
</g>
<!-- bartlett/php&#45;compatinfo&#45;db&#45;&gt;ext&#45;spl -->
<g id="edge6" class="edge">
<title>bartlett/php&#45;compatinfo&#45;db&#45;&gt;ext&#45;spl</title>
<path fill="none" stroke="#1a2833" d="M139.35,-617.85C151.51,-532.29 207.1,-171.91 289.68,-101.09 348.94,-50.25 446.48,-54.12 501.86,-61.55"/>
<polygon fill="#1a2833" stroke="#1a2833" points="501.62,-65.05 512.02,-63.01 502.62,-58.12 501.62,-65.05"/>
<text text-anchor="middle" x="336.68" y="-104.09" font-family="Times,serif" font-size="10.00" fill="#767676">*</text>
</g>
<!-- composer&#45;runtime&#45;api -->
<g id="node8" class="node">
<title>composer&#45;runtime&#45;api</title>
<path fill="#eeeeee" stroke="black" d="M1252.18,-1604.09C1252.18,-1604.09 1103.18,-1604.09 1103.18,-1604.09 1097.18,-1604.09 1091.18,-1598.09 1091.18,-1592.09 1091.18,-1592.09 1091.18,-1580.09 1091.18,-1580.09 1091.18,-1574.09 1097.18,-1568.09 1103.18,-1568.09 1103.18,-1568.09 1252.18,-1568.09 1252.18,-1568.09 1258.18,-1568.09 1264.18,-1574.09 1264.18,-1580.09 1264.18,-1580.09 1264.18,-1592.09 1264.18,-1592.09 1264.18,-1598.09 1258.18,-1604.09 1252.18,-1604.09"/>
<text text-anchor="middle" x="1177.68" y="-1582.39" font-family="Times,serif" font-size="14.00" fill="#314b5f">composer&#45;runtime&#45;api</text>
</g>
<!-- bartlett/php&#45;compatinfo&#45;db&#45;&gt;composer&#45;runtime&#45;api -->
<g id="edge7" class="edge">
<title>bartlett/php&#45;compatinfo&#45;db&#45;&gt;composer&#45;runtime&#45;api</title>
<path fill="none" stroke="#1a2833" d="M138.61,-654.19C149.23,-759.87 206.66,-1297.39 289.68,-1438.09 322.56,-1493.81 342.26,-1505.47 401.68,-1531.09 521.21,-1582.62 901.01,-1587.71 1080.7,-1587.1"/>
<polygon fill="#1a2833" stroke="#1a2833" points="1080.95,-1590.59 1090.93,-1587.05 1080.92,-1583.59 1080.95,-1590.59"/>
<text text-anchor="middle" x="544.68" y="-1579.09" font-family="Times,serif" font-size="10.00" fill="#767676">^2.0</text>
</g>
<!-- composer/semver -->
<g id="node9" class="node">
<title>composer/semver</title>
<path fill="#eeeeee" stroke="black" d="M933.18,-2126.09C933.18,-2126.09 769.18,-2126.09 769.18,-2126.09 763.18,-2126.09 757.18,-2120.09 757.18,-2114.09 757.18,-2114.09 757.18,-2102.09 757.18,-2102.09 757.18,-2096.09 763.18,-2090.09 769.18,-2090.09 769.18,-2090.09 933.18,-2090.09 933.18,-2090.09 939.18,-2090.09 945.18,-2096.09 945.18,-2102.09 945.18,-2102.09 945.18,-2114.09 945.18,-2114.09 945.18,-2120.09 939.18,-2126.09 933.18,-2126.09"/>
<text text-anchor="middle" x="851.18" y="-2104.39" font-family="Times,serif" font-size="14.00" fill="#314b5f">composer/semver: 3.4.4</text>
</g>
<!-- bartlett/php&#45;compatinfo&#45;db&#45;&gt;composer/semver -->
<g id="edge9" class="edge">
<title>bartlett/php&#45;compatinfo&#45;db&#45;&gt;composer/semver</title>
<path fill="none" stroke="#1a2833" d="M137.91,-654.42C145.35,-777.84 191.99,-1488.29 289.68,-1678.09 407.05,-1906.15 478.79,-1958.45 705.68,-2078.09 718.47,-2084.83 732.66,-2090.07 746.99,-2094.12"/>
<polygon fill="#1a2833" stroke="#1a2833" points="746.36,-2097.57 756.92,-2096.74 748.15,-2090.81 746.36,-2097.57"/>
<text text-anchor="middle" x="336.68" y="-1832.09" font-family="Times,serif" font-size="10.00" fill="#767676">^3.0</text>
</g>
<!-- doctrine/orm -->
<g id="node10" class="node">
<title>doctrine/orm</title>
<path fill="#eeeeee" stroke="black" d="M609.68,-1726.09C609.68,-1726.09 479.68,-1726.09 479.68,-1726.09 473.68,-1726.09 467.68,-1720.09 467.68,-1714.09 467.68,-1714.09 467.68,-1702.09 467.68,-1702.09 467.68,-1696.09 473.68,-1690.09 479.68,-1690.09 479.68,-1690.09 609.68,-1690.09 609.68,-1690.09 615.68,-1690.09 621.68,-1696.09 621.68,-1702.09 621.68,-1702.09 621.68,-1714.09 621.68,-1714.09 621.68,-1720.09 615.68,-1726.09 609.68,-1726.09"/>
<text text-anchor="middle" x="544.68" y="-1704.39" font-family="Times,serif" font-size="14.00" fill="#314b5f">doctrine/orm: 3.6.1</text>
</g>
<!-- bartlett/php&#45;compatinfo&#45;db&#45;&gt;doctrine/orm -->
<g id="edge24" class="edge">
<title>bartlett/php&#45;compatinfo&#45;db&#45;&gt;doctrine/orm</title>
<path fill="none" stroke="#1a2833" d="M137.41,-654.17C141.5,-772.86 169.64,-1440.37 289.68,-1596.09 330.34,-1648.84 401.12,-1677.28 457.66,-1692.28"/>
<polygon fill="#1a2833" stroke="#1a2833" points="457.12,-1695.75 467.68,-1694.83 458.85,-1688.97 457.12,-1695.75"/>
<text text-anchor="middle" x="336.68" y="-1666.09" font-family="Times,serif" font-size="10.00" fill="#767676">^3.5</text>
</g>
<!-- doctrine/dbal -->
<g id="node12" class="node">
<title>doctrine/dbal</title>
<path fill="#eeeeee" stroke="black" d="M1243.68,-1496.09C1243.68,-1496.09 1111.68,-1496.09 1111.68,-1496.09 1105.68,-1496.09 1099.68,-1490.09 1099.68,-1484.09 1099.68,-1484.09 1099.68,-1472.09 1099.68,-1472.09 1099.68,-1466.09 1105.68,-1460.09 1111.68,-1460.09 1111.68,-1460.09 1243.68,-1460.09 1243.68,-1460.09 1249.68,-1460.09 1255.68,-1466.09 1255.68,-1472.09 1255.68,-1472.09 1255.68,-1484.09 1255.68,-1484.09 1255.68,-1490.09 1249.68,-1496.09 1243.68,-1496.09"/>
<text text-anchor="middle" x="1177.68" y="-1474.39" font-family="Times,serif" font-size="14.00" fill="#314b5f">doctrine/dbal: 4.4.1</text>
</g>
<!-- bartlett/php&#45;compatinfo&#45;db&#45;&gt;doctrine/dbal -->
<g id="edge25" class="edge">
<title>bartlett/php&#45;compatinfo&#45;db&#45;&gt;doctrine/dbal</title>
<path fill="none" stroke="#1a2833" d="M138.2,-654.35C146.06,-755.2 188.94,-1243.18 289.68,-1347.09 399.04,-1459.89 887.46,-1476.25 1089.13,-1478.12"/>
<polygon fill="#1a2833" stroke="#1a2833" points="1089.36,-1481.62 1099.39,-1478.21 1089.42,-1474.62 1089.36,-1481.62"/>
<text text-anchor="middle" x="544.68" y="-1459.09" font-family="Times,serif" font-size="10.00" fill="#767676">^4.0</text>
</g>
<!-- symfony/console -->
<g id="node21" class="node">
<title>symfony/console</title>
<path fill="#eeeeee" stroke="black" d="M1259.68,-1550.09C1259.68,-1550.09 1095.68,-1550.09 1095.68,-1550.09 1089.68,-1550.09 1083.68,-1544.09 1083.68,-1538.09 1083.68,-1538.09 1083.68,-1526.09 1083.68,-1526.09 1083.68,-1520.09 1089.68,-1514.09 1095.68,-1514.09 1095.68,-1514.09 1259.68,-1514.09 1259.68,-1514.09 1265.68,-1514.09 1271.68,-1520.09 1271.68,-1526.09 1271.68,-1526.09 1271.68,-1538.09 1271.68,-1538.09 1271.68,-1544.09 1265.68,-1550.09 1259.68,-1550.09"/>
<text text-anchor="middle" x="1177.68" y="-1528.39" font-family="Times,serif" font-size="14.00" fill="#314b5f">symfony/console: v7.4.3</text>
</g>
<!-- bartlett/php&#45;compatinfo&#45;db&#45;&gt;symfony/console -->
<g id="edge41" class="edge">
<title>bartlett/php&#45;compatinfo&#45;db&#45;&gt;symfony/console</title>
<path fill="none" stroke="#1a2833" d="M138.82,-654.35C150.13,-756.39 208.96,-1255.95 289.68,-1385.09 322.94,-1438.31 343.62,-1447.25 401.68,-1471.09 520.53,-1519.89 891.29,-1529.84 1073.5,-1531.74"/>
<polygon fill="#1a2833" stroke="#1a2833" points="1073.6,-1535.24 1083.63,-1531.83 1073.67,-1528.24 1073.6,-1535.24"/>
<text text-anchor="middle" x="544.68" y="-1519.09" font-family="Times,serif" font-size="10.00" fill="#767676">^6.4 || ^7.4 || ^8.0</text>
</g>
<!-- psr/log -->
<g id="node23" class="node">
<title>psr/log</title>
<path fill="#eeeeee" stroke="black" d="M1221.18,-1270.09C1221.18,-1270.09 1134.18,-1270.09 1134.18,-1270.09 1128.18,-1270.09 1122.18,-1264.09 1122.18,-1258.09 1122.18,-1258.09 1122.18,-1246.09 1122.18,-1246.09 1122.18,-1240.09 1128.18,-1234.09 1134.18,-1234.09 1134.18,-1234.09 1221.18,-1234.09 1221.18,-1234.09 1227.18,-1234.09 1233.18,-1240.09 1233.18,-1246.09 1233.18,-1246.09 1233.18,-1258.09 1233.18,-1258.09 1233.18,-1264.09 1227.18,-1270.09 1221.18,-1270.09"/>
<text text-anchor="middle" x="1177.68" y="-1248.39" font-family="Times,serif" font-size="14.00" fill="#314b5f">psr/log: 3.0.2</text>
</g>
<!-- bartlett/php&#45;compatinfo&#45;db&#45;&gt;psr/log -->
<g id="edge27" class="edge">
<title>bartlett/php&#45;compatinfo&#45;db&#45;&gt;psr/log</title>
<path fill="none" stroke="#1a2833" d="M142.64,-654.43C165.14,-722.94 252.85,-967.18 401.68,-1109.09 599.45,-1297.66 723.56,-1273.18 996.68,-1264.09 1034.83,-1262.82 1077.46,-1260.03 1111.65,-1257.47"/>
<polygon fill="#1a2833" stroke="#1a2833" points="1112.27,-1260.93 1121.98,-1256.68 1111.74,-1253.95 1112.27,-1260.93"/>
<text text-anchor="middle" x="544.68" y="-1265.09" font-family="Times,serif" font-size="10.00" fill="#767676">^3.0</text>
</g>
<!-- symfony/cache -->
<g id="node24" class="node">
<title>symfony/cache</title>
<path fill="#eeeeee" stroke="black" d="M620.18,-1100.09C620.18,-1100.09 469.18,-1100.09 469.18,-1100.09 463.18,-1100.09 457.18,-1094.09 457.18,-1088.09 457.18,-1088.09 457.18,-1076.09 457.18,-1076.09 457.18,-1070.09 463.18,-1064.09 469.18,-1064.09 469.18,-1064.09 620.18,-1064.09 620.18,-1064.09 626.18,-1064.09 632.18,-1070.09 632.18,-1076.09 632.18,-1076.09 632.18,-1088.09 632.18,-1088.09 632.18,-1094.09 626.18,-1100.09 620.18,-1100.09"/>
<text text-anchor="middle" x="544.68" y="-1078.39" font-family="Times,serif" font-size="14.00" fill="#314b5f">symfony/cache: v7.4.3</text>
</g>
<!-- bartlett/php&#45;compatinfo&#45;db&#45;&gt;symfony/cache -->
<g id="edge35" class="edge">
<title>bartlett/php&#45;compatinfo&#45;db&#45;&gt;symfony/cache</title>
<path fill="none" stroke="#1a2833" d="M153.29,-654.12C216.67,-723.6 445.2,-974.13 519.88,-1056"/>
<polygon fill="#1a2833" stroke="#1a2833" points="517.69,-1058.8 527.02,-1063.83 522.87,-1054.08 517.69,-1058.8"/>
<text text-anchor="middle" x="336.68" y="-901.09" font-family="Times,serif" font-size="10.00" fill="#767676">^6.4 || ^7.4 || ^8.0</text>
</g>
<!-- symfony/config -->
<g id="node28" class="node">
<title>symfony/config</title>
<path fill="#eeeeee" stroke="black" d="M621.18,-837.09C621.18,-837.09 468.18,-837.09 468.18,-837.09 462.18,-837.09 456.18,-831.09 456.18,-825.09 456.18,-825.09 456.18,-813.09 456.18,-813.09 456.18,-807.09 462.18,-801.09 468.18,-801.09 468.18,-801.09 621.18,-801.09 621.18,-801.09 627.18,-801.09 633.18,-807.09 633.18,-813.09 633.18,-813.09 633.18,-825.09 633.18,-825.09 633.18,-831.09 627.18,-837.09 621.18,-837.09"/>
<text text-anchor="middle" x="544.68" y="-815.39" font-family="Times,serif" font-size="14.00" fill="#314b5f">symfony/config: v7.4.3</text>
</g>
<!-- bartlett/php&#45;compatinfo&#45;db&#45;&gt;symfony/config -->
<g id="edge40" class="edge">
<title>bartlett/php&#45;compatinfo&#45;db&#45;&gt;symfony/config</title>
<path fill="none" stroke="#1a2833" d="M175.48,-653.47C249.62,-686.82 411.76,-759.75 493.89,-796.69"/>
<polygon fill="#1a2833" stroke="#1a2833" points="492.94,-800.1 503.5,-801.01 495.81,-793.72 492.94,-800.1"/>
<text text-anchor="middle" x="336.68" y="-746.09" font-family="Times,serif" font-size="10.00" fill="#767676">^6.4 || ^7.4 || ^8.0</text>
</g>
<!-- symfony/dependency&#45;injection -->
<g id="node31" class="node">
<title>symfony/dependency&#45;injection</title>
<path fill="#eeeeee" stroke="black" d="M675.68,-671.09C675.68,-671.09 413.68,-671.09 413.68,-671.09 407.68,-671.09 401.68,-665.09 401.68,-659.09 401.68,-659.09 401.68,-647.09 401.68,-647.09 401.68,-641.09 407.68,-635.09 413.68,-635.09 413.68,-635.09 675.68,-635.09 675.68,-635.09 681.68,-635.09 687.68,-641.09 687.68,-647.09 687.68,-647.09 687.68,-659.09 687.68,-659.09 687.68,-665.09 681.68,-671.09 675.68,-671.09"/>
<text text-anchor="middle" x="544.68" y="-649.39" font-family="Times,serif" font-size="14.00" fill="#314b5f">symfony/dependency&#45;injection: v7.4.3</text>
</g>
<!-- bartlett/php&#45;compatinfo&#45;db&#45;&gt;symfony/dependency&#45;injection -->
<g id="edge47" class="edge">
<title>bartlett/php&#45;compatinfo&#45;db&#45;&gt;symfony/dependency&#45;injection</title>
<path fill="none" stroke="#1a2833" d="M265.56,-641.46C305.57,-643.14 350.04,-644.99 391.48,-646.73"/>
<polygon fill="#1a2833" stroke="#1a2833" points="391.53,-650.23 401.67,-647.15 391.82,-643.24 391.53,-650.23"/>
<text text-anchor="middle" x="336.68" y="-649.09" font-family="Times,serif" font-size="10.00" fill="#767676">^6.4 || ^7.4 || ^8.0</text>
</g>
<!-- symfony/event&#45;dispatcher -->
<g id="node33" class="node">
<title>symfony/event&#45;dispatcher</title>
<path fill="#eeeeee" stroke="black" d="M659.68,-563.09C659.68,-563.09 429.68,-563.09 429.68,-563.09 423.68,-563.09 417.68,-557.09 417.68,-551.09 417.68,-551.09 417.68,-539.09 417.68,-539.09 417.68,-533.09 423.68,-527.09 429.68,-527.09 429.68,-527.09 659.68,-527.09 659.68,-527.09 665.68,-527.09 671.68,-533.09 671.68,-539.09 671.68,-539.09 671.68,-551.09 671.68,-551.09 671.68,-557.09 665.68,-563.09 659.68,-563.09"/>
<text text-anchor="middle" x="544.68" y="-541.39" font-family="Times,serif" font-size="14.00" fill="#314b5f">symfony/event&#45;dispatcher: v7.4.0</text>
</g>
<!-- bartlett/php&#45;compatinfo&#45;db&#45;&gt;symfony/event&#45;dispatcher -->
<g id="edge50" class="edge">
<title>bartlett/php&#45;compatinfo&#45;db&#45;&gt;symfony/event&#45;dispatcher</title>
<path fill="none" stroke="#1a2833" d="M198.98,-620.14C252.52,-606.63 331.97,-587.11 401.68,-572.09 412.59,-569.74 423.99,-567.39 435.39,-565.11"/>
<polygon fill="#1a2833" stroke="#1a2833" points="436.26,-568.5 445.39,-563.13 434.9,-561.64 436.26,-568.5"/>
<text text-anchor="middle" x="336.68" y="-600.09" font-family="Times,serif" font-size="10.00" fill="#767676">^6.4 || ^7.4 || ^8.0</text>
</g>
<!-- symfony/finder -->
<g id="node35" class="node">
<title>symfony/finder</title>
<path fill="#eeeeee" stroke="black" d="M927.18,-381.09C927.18,-381.09 775.18,-381.09 775.18,-381.09 769.18,-381.09 763.18,-375.09 763.18,-369.09 763.18,-369.09 763.18,-357.09 763.18,-357.09 763.18,-351.09 769.18,-345.09 775.18,-345.09 775.18,-345.09 927.18,-345.09 927.18,-345.09 933.18,-345.09 939.18,-351.09 939.18,-357.09 939.18,-357.09 939.18,-369.09 939.18,-369.09 939.18,-375.09 933.18,-381.09 927.18,-381.09"/>
<text text-anchor="middle" x="851.18" y="-359.39" font-family="Times,serif" font-size="14.00" fill="#314b5f">symfony/finder: v7.4.3</text>
</g>
<!-- bartlett/php&#45;compatinfo&#45;db&#45;&gt;symfony/finder -->
<g id="edge52" class="edge">
<title>bartlett/php&#45;compatinfo&#45;db&#45;&gt;symfony/finder</title>
<path fill="none" stroke="#1a2833" d="M170.42,-618.52C201.12,-602.73 247.96,-579.29 289.68,-561.09 338.55,-539.76 350.12,-531.69 401.68,-518.09 463.82,-501.69 641.15,-519.42 687.68,-475.09 717.21,-446.94 676.17,-413.25 705.68,-385.09 718.68,-372.67 735.57,-365.44 753.18,-361.48"/>
<polygon fill="#1a2833" stroke="#1a2833" points="753.85,-364.91 763.02,-359.6 752.54,-358.04 753.85,-364.91"/>
<text text-anchor="middle" x="336.68" y="-564.09" font-family="Times,serif" font-size="10.00" fill="#767676">^6.4 || ^7.4 || ^8.0</text>
</g>
<!-- symfony/http&#45;client -->
<g id="node36" class="node">
<title>symfony/http&#45;client</title>
<path fill="#eeeeee" stroke="black" d="M637.18,-745.09C637.18,-745.09 452.18,-745.09 452.18,-745.09 446.18,-745.09 440.18,-739.09 440.18,-733.09 440.18,-733.09 440.18,-721.09 440.18,-721.09 440.18,-715.09 446.18,-709.09 452.18,-709.09 452.18,-709.09 637.18,-709.09 637.18,-709.09 643.18,-709.09 649.18,-715.09 649.18,-721.09 649.18,-721.09 649.18,-733.09 649.18,-733.09 649.18,-739.09 643.18,-745.09 637.18,-745.09"/>
<text text-anchor="middle" x="544.68" y="-723.39" font-family="Times,serif" font-size="14.00" fill="#314b5f">symfony/http&#45;client: v7.4.3</text>
</g>
<!-- bartlett/php&#45;compatinfo&#45;db&#45;&gt;symfony/http&#45;client -->
<g id="edge59" class="edge">
<title>bartlett/php&#45;compatinfo&#45;db&#45;&gt;symfony/http&#45;client</title>
<path fill="none" stroke="#1a2833" d="M205.85,-651.52C273.98,-666.76 378.51,-690.14 453.24,-706.86"/>
<polygon fill="#1a2833" stroke="#1a2833" points="452.6,-710.3 463.12,-709.07 454.13,-703.47 452.6,-710.3"/>
<text text-anchor="middle" x="336.68" y="-692.09" font-family="Times,serif" font-size="10.00" fill="#767676">^6.4 || ^7.4 || ^8.0</text>
</g>
<!-- symfony/messenger -->
<g id="node39" class="node">
<title>symfony/messenger</title>
<path fill="#eeeeee" stroke="black" d="M638.68,-1343.09C638.68,-1343.09 450.68,-1343.09 450.68,-1343.09 444.68,-1343.09 438.68,-1337.09 438.68,-1331.09 438.68,-1331.09 438.68,-1319.09 438.68,-1319.09 438.68,-1313.09 444.68,-1307.09 450.68,-1307.09 450.68,-1307.09 638.68,-1307.09 638.68,-1307.09 644.68,-1307.09 650.68,-1313.09 650.68,-1319.09 650.68,-1319.09 650.68,-1331.09 650.68,-1331.09 650.68,-1337.09 644.68,-1343.09 638.68,-1343.09"/>
<text text-anchor="middle" x="544.68" y="-1321.39" font-family="Times,serif" font-size="14.00" fill="#314b5f">symfony/messenger: v7.4.3</text>
</g>
<!-- bartlett/php&#45;compatinfo&#45;db&#45;&gt;symfony/messenger -->
<g id="edge64" class="edge">
<title>bartlett/php&#45;compatinfo&#45;db&#45;&gt;symfony/messenger</title>
<path fill="none" stroke="#1a2833" d="M138.35,-654.38C146.72,-751.18 190.72,-1202.54 289.68,-1292.09 326.69,-1325.58 380.09,-1336.05 428.38,-1337.24"/>
<polygon fill="#1a2833" stroke="#1a2833" points="428.56,-1340.74 438.6,-1337.36 428.64,-1333.74 428.56,-1340.74"/>
<text text-anchor="middle" x="336.68" y="-1335.09" font-family="Times,serif" font-size="10.00" fill="#767676">^6.4 || ^7.4 || ^8.0</text>
</g>
<!-- symfony/polyfill&#45;php84 -->
<g id="node41" class="node">
<title>symfony/polyfill&#45;php84</title>
<path fill="#eeeeee" stroke="black" d="M959.68,-336.09C959.68,-336.09 742.68,-336.09 742.68,-336.09 736.68,-336.09 730.68,-330.09 730.68,-324.09 730.68,-324.09 730.68,-312.09 730.68,-312.09 730.68,-306.09 736.68,-300.09 742.68,-300.09 742.68,-300.09 959.68,-300.09 959.68,-300.09 965.68,-300.09 971.68,-306.09 971.68,-312.09 971.68,-312.09 971.68,-324.09 971.68,-324.09 971.68,-330.09 965.68,-336.09 959.68,-336.09"/>
<text text-anchor="middle" x="851.18" y="-314.39" font-family="Times,serif" font-size="14.00" fill="#314b5f">symfony/polyfill&#45;php84: v1.33.0</text>
</g>
<!-- bartlett/php&#45;compatinfo&#45;db&#45;&gt;symfony/polyfill&#45;php84 -->
<g id="edge66" class="edge">
<title>bartlett/php&#45;compatinfo&#45;db&#45;&gt;symfony/polyfill&#45;php84</title>
<path fill="none" stroke="#1a2833" d="M153.41,-618.09C179.74,-590.55 233.85,-538 289.68,-508.09 335.42,-483.58 350.92,-485.87 401.68,-475.09 464.39,-461.76 641.19,-481.24 687.68,-437.09 719.47,-406.89 674.17,-370.58 705.68,-340.09 710.4,-335.51 715.65,-331.64 721.27,-328.37"/>
<polygon fill="#1a2833" stroke="#1a2833" points="723.07,-331.38 730.39,-323.72 719.89,-325.14 723.07,-331.38"/>
<text text-anchor="middle" x="336.68" y="-511.09" font-family="Times,serif" font-size="10.00" fill="#767676">^1.0</text>
</g>
<!-- symfony/process -->
<g id="node42" class="node">
<title>symfony/process</title>
<path fill="#eeeeee" stroke="black" d="M933.68,-287.09C933.68,-287.09 768.68,-287.09 768.68,-287.09 762.68,-287.09 756.68,-281.09 756.68,-275.09 756.68,-275.09 756.68,-263.09 756.68,-263.09 756.68,-257.09 762.68,-251.09 768.68,-251.09 768.68,-251.09 933.68,-251.09 933.68,-251.09 939.68,-251.09 945.68,-257.09 945.68,-263.09 945.68,-263.09 945.68,-275.09 945.68,-275.09 945.68,-281.09 939.68,-287.09 933.68,-287.09"/>
<text text-anchor="middle" x="851.18" y="-265.39" font-family="Times,serif" font-size="14.00" fill="#314b5f">symfony/process: v7.4.3</text>
</g>
<!-- bartlett/php&#45;compatinfo&#45;db&#45;&gt;symfony/process -->
<g id="edge68" class="edge">
<title>bartlett/php&#45;compatinfo&#45;db&#45;&gt;symfony/process</title>
<path fill="none" stroke="#1a2833" d="M147.3,-618.12C169.01,-582.54 222.55,-503.11 289.68,-463.09 333.57,-436.92 351.4,-446.24 401.68,-437.09 464.75,-425.6 641.6,-443.67 687.68,-399.09 722.65,-365.25 671.03,-325.25 705.68,-291.09 716.87,-280.05 731.1,-273.07 746.25,-268.82"/>
<polygon fill="#1a2833" stroke="#1a2833" points="747.4,-272.14 756.31,-266.41 745.77,-265.34 747.4,-272.14"/>
<text text-anchor="middle" x="336.68" y="-466.09" font-family="Times,serif" font-size="10.00" fill="#767676">^6.4 || ^7.4 || ^8.0</text>
</g>
<!-- symfony/requirements&#45;checker -->
<g id="node43" class="node">
<title>symfony/requirements&#45;checker</title>
<path fill="#eeeeee" stroke="black" d="M984.68,-244.09C984.68,-244.09 717.68,-244.09 717.68,-244.09 711.68,-244.09 705.68,-238.09 705.68,-232.09 705.68,-232.09 705.68,-220.09 705.68,-220.09 705.68,-214.09 711.68,-208.09 717.68,-208.09 717.68,-208.09 984.68,-208.09 984.68,-208.09 990.68,-208.09 996.68,-214.09 996.68,-220.09 996.68,-220.09 996.68,-232.09 996.68,-232.09 996.68,-238.09 990.68,-244.09 984.68,-244.09"/>
<text text-anchor="middle" x="851.18" y="-222.39" font-family="Times,serif" font-size="14.00" fill="#314b5f">symfony/requirements&#45;checker: v2.0.3</text>
</g>
<!-- bartlett/php&#45;compatinfo&#45;db&#45;&gt;symfony/requirements&#45;checker -->
<g id="edge70" class="edge">
<title>bartlett/php&#45;compatinfo&#45;db&#45;&gt;symfony/requirements&#45;checker</title>
<path fill="none" stroke="#1a2833" d="M144.43,-617.89C162.74,-576.35 213.54,-474.29 289.68,-424.09 332.26,-396.01 351.38,-407.58 401.68,-399.09 464.76,-388.44 641.62,-410.49 687.68,-366.09 723.48,-331.57 675,-291.03 703.15,-252.01"/>
<polygon fill="#1a2833" stroke="#1a2833" points="705.97,-254.09 709.85,-244.23 700.67,-249.52 705.97,-254.09"/>
<text text-anchor="middle" x="336.68" y="-427.09" font-family="Times,serif" font-size="10.00" fill="#767676">^2.0</text>
</g>
<!-- symfony/stopwatch -->
<g id="node44" class="node">
<title>symfony/stopwatch</title>
<path fill="#eeeeee" stroke="black" d="M636.68,-617.09C636.68,-617.09 452.68,-617.09 452.68,-617.09 446.68,-617.09 440.68,-611.09 440.68,-605.09 440.68,-605.09 440.68,-593.09 440.68,-593.09 440.68,-587.09 446.68,-581.09 452.68,-581.09 452.68,-581.09 636.68,-581.09 636.68,-581.09 642.68,-581.09 648.68,-587.09 648.68,-593.09 648.68,-593.09 648.68,-605.09 648.68,-605.09 648.68,-611.09 642.68,-617.09 636.68,-617.09"/>
<text text-anchor="middle" x="544.68" y="-595.39" font-family="Times,serif" font-size="14.00" fill="#314b5f">symfony/stopwatch: v7.4.0</text>
</g>
<!-- bartlett/php&#45;compatinfo&#45;db&#45;&gt;symfony/stopwatch -->
<g id="edge73" class="edge">
<title>bartlett/php&#45;compatinfo&#45;db&#45;&gt;symfony/stopwatch</title>
<path fill="none" stroke="#1a2833" d="M248.28,-625.95C304.87,-620.8 373.49,-614.56 430.35,-609.39"/>
<polygon fill="#1a2833" stroke="#1a2833" points="430.81,-612.86 440.46,-608.47 430.18,-605.89 430.81,-612.86"/>
<text text-anchor="middle" x="336.68" y="-624.09" font-family="Times,serif" font-size="10.00" fill="#767676">^6.4 || ^7.4 || ^8.0</text>
</g>
<!-- bamarni/composer&#45;bin&#45;plugin -->
<g id="node45" class="node">
<title>bamarni/composer&#45;bin&#45;plugin</title>
<path fill="#eeeeee" stroke="black" d="M668.18,-357.09C668.18,-357.09 421.18,-357.09 421.18,-357.09 415.18,-357.09 409.18,-351.09 409.18,-345.09 409.18,-345.09 409.18,-333.09 409.18,-333.09 409.18,-327.09 415.18,-321.09 421.18,-321.09 421.18,-321.09 668.18,-321.09 668.18,-321.09 674.18,-321.09 680.18,-327.09 680.18,-333.09 680.18,-333.09 680.18,-345.09 680.18,-345.09 680.18,-351.09 674.18,-357.09 668.18,-357.09"/>
<text text-anchor="middle" x="544.68" y="-335.39" font-family="Times,serif" font-size="14.00" fill="#314b5f">bamarni/composer&#45;bin&#45;plugin: 1.8.3</text>
</g>
<!-- bartlett/php&#45;compatinfo&#45;db&#45;&gt;bamarni/composer&#45;bin&#45;plugin -->
<g id="edge76" class="edge">
<title>bartlett/php&#45;compatinfo&#45;db&#45;&gt;bamarni/composer&#45;bin&#45;plugin</title>
<path fill="none" stroke="#1a2833" stroke-dasharray="5,2" d="M140.24,-617.96C151.12,-565.79 190.31,-414.95 289.68,-352.09 321.79,-331.77 361.01,-323.64 398.94,-321.81"/>
<polygon fill="#1a2833" stroke="#1a2833" points="399.2,-325.3 409.07,-321.46 398.96,-318.3 399.2,-325.3"/>
<text text-anchor="middle" x="336.68" y="-355.09" font-family="Times,serif" font-size="10.00" fill="#767676">^1.8</text>
</g>
<!-- composer/semver&#45;&gt;php -->
<g id="edge8" class="edge">
<title>composer/semver&#45;&gt;php</title>
<path fill="none" stroke="#1a2833" d="M945.25,-2118.66C1070.66,-2130.69 1284.68,-2142.68 1340.68,-2092.09 1447.45,-1995.6 1445.11,-895.94 1443.9,-705.2"/>
<polygon fill="#1a2833" stroke="#1a2833" points="1447.4,-705.11 1443.83,-695.13 1440.4,-705.16 1447.4,-705.11"/>
<text text-anchor="middle" x="1177.68" y="-2132.09" font-family="Times,serif" font-size="10.00" fill="#767676">^5.3.2 || ^7.0 || ^8.0</text>
</g>
<!-- doctrine/orm&#45;&gt;php -->
<g id="edge20" class="edge">
<title>doctrine/orm&#45;&gt;php</title>
<path fill="none" stroke="#1a2833" d="M621.73,-1698.7C648.28,-1695.52 678.28,-1692.03 705.68,-1689.09 834.86,-1675.2 874.27,-1704.66 996.68,-1661.09 1005.73,-1657.86 1005.64,-1652.37 1014.68,-1649.09 1083.17,-1624.16 1287.87,-1663.32 1340.68,-1613.09 1408.27,-1548.78 1437.22,-854.84 1442.69,-705.36"/>
<polygon fill="#1a2833" stroke="#1a2833" points="1446.2,-705.29 1443.06,-695.18 1439.2,-705.04 1446.2,-705.29"/>
<text text-anchor="middle" x="1177.68" y="-1652.09" font-family="Times,serif" font-size="10.00" fill="#767676">^8.1</text>
</g>
<!-- doctrine/orm&#45;&gt;composer&#45;runtime&#45;api -->
<g id="edge10" class="edge">
<title>doctrine/orm&#45;&gt;composer&#45;runtime&#45;api</title>
<path fill="none" stroke="#1a2833" d="M585.89,-1690.08C617.72,-1676.68 663.66,-1659.19 705.68,-1650.09 832.47,-1622.62 871.68,-1661.85 996.68,-1627.09 1005.29,-1624.69 1006.21,-1620.98 1014.68,-1618.09 1035.73,-1610.89 1058.91,-1605.12 1080.99,-1600.56"/>
<polygon fill="#1a2833" stroke="#1a2833" points="1081.92,-1603.95 1091.04,-1598.56 1080.55,-1597.08 1081.92,-1603.95"/>
<text text-anchor="middle" x="851.18" y="-1653.09" font-family="Times,serif" font-size="10.00" fill="#767676">^2</text>
</g>
<!-- doctrine/collections -->
<g id="node11" class="node">
<title>doctrine/collections</title>
<path fill="#eeeeee" stroke="black" d="M1266.18,-2083.09C1266.18,-2083.09 1089.18,-2083.09 1089.18,-2083.09 1083.18,-2083.09 1077.18,-2077.09 1077.18,-2071.09 1077.18,-2071.09 1077.18,-2059.09 1077.18,-2059.09 1077.18,-2053.09 1083.18,-2047.09 1089.18,-2047.09 1089.18,-2047.09 1266.18,-2047.09 1266.18,-2047.09 1272.18,-2047.09 1278.18,-2053.09 1278.18,-2059.09 1278.18,-2059.09 1278.18,-2071.09 1278.18,-2071.09 1278.18,-2077.09 1272.18,-2083.09 1266.18,-2083.09"/>
<text text-anchor="middle" x="1177.68" y="-2061.39" font-family="Times,serif" font-size="14.00" fill="#314b5f">doctrine/collections: 2.6.0</text>
</g>
<!-- doctrine/orm&#45;&gt;doctrine/collections -->
<g id="edge11" class="edge">
<title>doctrine/orm&#45;&gt;doctrine/collections</title>
<path fill="none" stroke="#1a2833" d="M562.6,-1726.15C593.16,-1759.93 657.21,-1836.21 687.68,-1913.09 707.55,-1963.22 666.03,-1996.53 705.68,-2033.09 731.64,-2057.03 936.21,-2063.24 1067.07,-2064.74"/>
<polygon fill="#1a2833" stroke="#1a2833" points="1067.1,-2068.24 1077.14,-2064.85 1067.18,-2061.24 1067.1,-2068.24"/>
<text text-anchor="middle" x="851.18" y="-2066.09" font-family="Times,serif" font-size="10.00" fill="#767676">^2.2</text>
</g>
<!-- doctrine/orm&#45;&gt;doctrine/dbal -->
<g id="edge12" class="edge">
<title>doctrine/orm&#45;&gt;doctrine/dbal</title>
<path fill="none" stroke="#1a2833" d="M577.06,-1690.01C608.57,-1670.52 656.77,-1636.87 687.68,-1597.09 699.89,-1581.37 689.88,-1568.19 705.68,-1556.09 809.52,-1476.55 870.28,-1545.77 996.68,-1512.09 1004.97,-1509.88 1006.4,-1507.36 1014.68,-1505.09 1038.6,-1498.52 1064.98,-1493.29 1089.37,-1489.26"/>
<polygon fill="#1a2833" stroke="#1a2833" points="1090.01,-1492.7 1099.33,-1487.66 1088.9,-1485.79 1090.01,-1492.7"/>
<text text-anchor="middle" x="851.18" y="-1559.09" font-family="Times,serif" font-size="10.00" fill="#767676">^3.8.2 || ^4</text>
</g>
<!-- doctrine/deprecations -->
<g id="node13" class="node">
<title>doctrine/deprecations</title>
<path fill="#eeeeee" stroke="black" d="M1274.68,-2029.09C1274.68,-2029.09 1080.68,-2029.09 1080.68,-2029.09 1074.68,-2029.09 1068.68,-2023.09 1068.68,-2017.09 1068.68,-2017.09 1068.68,-2005.09 1068.68,-2005.09 1068.68,-1999.09 1074.68,-1993.09 1080.68,-1993.09 1080.68,-1993.09 1274.68,-1993.09 1274.68,-1993.09 1280.68,-1993.09 1286.68,-1999.09 1286.68,-2005.09 1286.68,-2005.09 1286.68,-2017.09 1286.68,-2017.09 1286.68,-2023.09 1280.68,-2029.09 1274.68,-2029.09"/>
<text text-anchor="middle" x="1177.68" y="-2007.39" font-family="Times,serif" font-size="14.00" fill="#314b5f">doctrine/deprecations: 1.1.5</text>
</g>
<!-- doctrine/orm&#45;&gt;doctrine/deprecations -->
<g id="edge13" class="edge">
<title>doctrine/orm&#45;&gt;doctrine/deprecations</title>
<path fill="none" stroke="#1a2833" d="M561.42,-1726.3C590.34,-1760.61 652.21,-1838.15 687.68,-1913.09 700.13,-1939.41 683.09,-1957.7 705.68,-1976.09 757.86,-2018.57 936.75,-2020.97 1058.41,-2017.21"/>
<polygon fill="#1a2833" stroke="#1a2833" points="1058.65,-2020.71 1068.53,-2016.88 1058.42,-2013.71 1058.65,-2020.71"/>
<text text-anchor="middle" x="851.18" y="-2021.09" font-family="Times,serif" font-size="10.00" fill="#767676">^0.5.3 || ^1</text>
</g>
<!-- doctrine/event&#45;manager -->
<g id="node14" class="node">
<title>doctrine/event&#45;manager</title>
<path fill="#eeeeee" stroke="black" d="M1282.18,-1975.09C1282.18,-1975.09 1073.18,-1975.09 1073.18,-1975.09 1067.18,-1975.09 1061.18,-1969.09 1061.18,-1963.09 1061.18,-1963.09 1061.18,-1951.09 1061.18,-1951.09 1061.18,-1945.09 1067.18,-1939.09 1073.18,-1939.09 1073.18,-1939.09 1282.18,-1939.09 1282.18,-1939.09 1288.18,-1939.09 1294.18,-1945.09 1294.18,-1951.09 1294.18,-1951.09 1294.18,-1963.09 1294.18,-1963.09 1294.18,-1969.09 1288.18,-1975.09 1282.18,-1975.09"/>
<text text-anchor="middle" x="1177.68" y="-1953.39" font-family="Times,serif" font-size="14.00" fill="#314b5f">doctrine/event&#45;manager: 2.1.0</text>
</g>
<!-- doctrine/orm&#45;&gt;doctrine/event&#45;manager -->
<g id="edge14" class="edge">
<title>doctrine/orm&#45;&gt;doctrine/event&#45;manager</title>
<path fill="none" stroke="#1a2833" d="M557.69,-1726.41C591.09,-1777.09 684.04,-1916.22 705.68,-1928.09 762.95,-1959.51 931.65,-1963.03 1050.72,-1961.23"/>
<polygon fill="#1a2833" stroke="#1a2833" points="1051.06,-1964.72 1061,-1961.06 1050.94,-1957.72 1051.06,-1964.72"/>
<text text-anchor="middle" x="851.18" y="-1964.09" font-family="Times,serif" font-size="10.00" fill="#767676">^1.2 || ^2</text>
</g>
<!-- doctrine/inflector -->
<g id="node15" class="node">
<title>doctrine/inflector</title>
<path fill="#eeeeee" stroke="black" d="M1258.18,-1921.09C1258.18,-1921.09 1097.18,-1921.09 1097.18,-1921.09 1091.18,-1921.09 1085.18,-1915.09 1085.18,-1909.09 1085.18,-1909.09 1085.18,-1897.09 1085.18,-1897.09 1085.18,-1891.09 1091.18,-1885.09 1097.18,-1885.09 1097.18,-1885.09 1258.18,-1885.09 1258.18,-1885.09 1264.18,-1885.09 1270.18,-1891.09 1270.18,-1897.09 1270.18,-1897.09 1270.18,-1909.09 1270.18,-1909.09 1270.18,-1915.09 1264.18,-1921.09 1258.18,-1921.09"/>
<text text-anchor="middle" x="1177.68" y="-1899.39" font-family="Times,serif" font-size="14.00" fill="#314b5f">doctrine/inflector: 2.1.0</text>
</g>
<!-- doctrine/orm&#45;&gt;doctrine/inflector -->
<g id="edge15" class="edge">
<title>doctrine/orm&#45;&gt;doctrine/inflector</title>
<path fill="none" stroke="#1a2833" d="M558.34,-1726.27C582.56,-1759.4 639.03,-1828.94 705.68,-1859.09 824.14,-1912.67 976.21,-1916.81 1075.02,-1912.16"/>
<polygon fill="#1a2833" stroke="#1a2833" points="1075.2,-1915.66 1085,-1911.66 1074.84,-1908.67 1075.2,-1915.66"/>
<text text-anchor="middle" x="851.18" y="-1916.09" font-family="Times,serif" font-size="10.00" fill="#767676">^1.4 || ^2.0</text>
</g>
<!-- doctrine/instantiator -->
<g id="node16" class="node">
<title>doctrine/instantiator</title>
<path fill="#eeeeee" stroke="black" d="M1270.18,-1867.09C1270.18,-1867.09 1085.18,-1867.09 1085.18,-1867.09 1079.18,-1867.09 1073.18,-1861.09 1073.18,-1855.09 1073.18,-1855.09 1073.18,-1843.09 1073.18,-1843.09 1073.18,-1837.09 1079.18,-1831.09 1085.18,-1831.09 1085.18,-1831.09 1270.18,-1831.09 1270.18,-1831.09 1276.18,-1831.09 1282.18,-1837.09 1282.18,-1843.09 1282.18,-1843.09 1282.18,-1855.09 1282.18,-1855.09 1282.18,-1861.09 1276.18,-1867.09 1270.18,-1867.09"/>
<text text-anchor="middle" x="1177.68" y="-1845.39" font-family="Times,serif" font-size="14.00" fill="#314b5f">doctrine/instantiator: 2.0.0</text>
</g>
<!-- doctrine/orm&#45;&gt;doctrine/instantiator -->
<g id="edge16" class="edge">
<title>doctrine/orm&#45;&gt;doctrine/instantiator</title>
<path fill="none" stroke="#1a2833" d="M571.13,-1726.23C601.56,-1746.91 654.76,-1779.92 705.68,-1796.09 823.65,-1833.55 965.61,-1845.28 1062.63,-1848.59"/>
<polygon fill="#1a2833" stroke="#1a2833" points="1062.65,-1852.09 1072.76,-1848.91 1062.87,-1845.1 1062.65,-1852.09"/>
<text text-anchor="middle" x="851.18" y="-1847.09" font-family="Times,serif" font-size="10.00" fill="#767676">^1.3 || ^2</text>
</g>
<!-- doctrine/lexer -->
<g id="node17" class="node">
<title>doctrine/lexer</title>
<path fill="#eeeeee" stroke="black" d="M1246.18,-1813.09C1246.18,-1813.09 1109.18,-1813.09 1109.18,-1813.09 1103.18,-1813.09 1097.18,-1807.09 1097.18,-1801.09 1097.18,-1801.09 1097.18,-1789.09 1097.18,-1789.09 1097.18,-1783.09 1103.18,-1777.09 1109.18,-1777.09 1109.18,-1777.09 1246.18,-1777.09 1246.18,-1777.09 1252.18,-1777.09 1258.18,-1783.09 1258.18,-1789.09 1258.18,-1789.09 1258.18,-1801.09 1258.18,-1801.09 1258.18,-1807.09 1252.18,-1813.09 1246.18,-1813.09"/>
<text text-anchor="middle" x="1177.68" y="-1791.39" font-family="Times,serif" font-size="14.00" fill="#314b5f">doctrine/lexer: 3.0.1</text>
</g>
<!-- doctrine/orm&#45;&gt;doctrine/lexer -->
<g id="edge17" class="edge">
<title>doctrine/orm&#45;&gt;doctrine/lexer</title>
<path fill="none" stroke="#1a2833" d="M613.01,-1726.13C641.44,-1733.21 675,-1740.87 705.68,-1746.09 837.44,-1768.49 991.81,-1782.2 1086.92,-1789.22"/>
<polygon fill="#1a2833" stroke="#1a2833" points="1086.85,-1792.73 1097.08,-1789.96 1087.36,-1785.75 1086.85,-1792.73"/>
<text text-anchor="middle" x="851.18" y="-1784.09" font-family="Times,serif" font-size="10.00" fill="#767676">^3</text>
</g>
<!-- doctrine/persistence -->
<g id="node18" class="node">
<title>doctrine/persistence</title>
<path fill="#eeeeee" stroke="black" d="M1269.68,-1759.09C1269.68,-1759.09 1085.68,-1759.09 1085.68,-1759.09 1079.68,-1759.09 1073.68,-1753.09 1073.68,-1747.09 1073.68,-1747.09 1073.68,-1735.09 1073.68,-1735.09 1073.68,-1729.09 1079.68,-1723.09 1085.68,-1723.09 1085.68,-1723.09 1269.68,-1723.09 1269.68,-1723.09 1275.68,-1723.09 1281.68,-1729.09 1281.68,-1735.09 1281.68,-1735.09 1281.68,-1747.09 1281.68,-1747.09 1281.68,-1753.09 1275.68,-1759.09 1269.68,-1759.09"/>
<text text-anchor="middle" x="1177.68" y="-1737.39" font-family="Times,serif" font-size="14.00" fill="#314b5f">doctrine/persistence: 4.1.1</text>
</g>
<!-- doctrine/orm&#45;&gt;doctrine/persistence -->
<g id="edge18" class="edge">
<title>doctrine/orm&#45;&gt;doctrine/persistence</title>
<path fill="none" stroke="#1a2833" d="M621.77,-1712.45C648.32,-1713.95 678.31,-1715.62 705.68,-1717.09 827.75,-1723.63 967.65,-1730.7 1063.05,-1735.46"/>
<polygon fill="#1a2833" stroke="#1a2833" points="1063.14,-1738.97 1073.3,-1735.98 1063.49,-1731.98 1063.14,-1738.97"/>
<text text-anchor="middle" x="851.18" y="-1734.09" font-family="Times,serif" font-size="10.00" fill="#767676">^3.3.1 || ^4</text>
</g>
<!-- ext&#45;ctype -->
<g id="node19" class="node">
<title>ext&#45;ctype</title>
<path fill="#eeeeee" stroke="black" d="M1207.18,-1705.09C1207.18,-1705.09 1148.18,-1705.09 1148.18,-1705.09 1142.18,-1705.09 1136.18,-1699.09 1136.18,-1693.09 1136.18,-1693.09 1136.18,-1681.09 1136.18,-1681.09 1136.18,-1675.09 1142.18,-1669.09 1148.18,-1669.09 1148.18,-1669.09 1207.18,-1669.09 1207.18,-1669.09 1213.18,-1669.09 1219.18,-1675.09 1219.18,-1681.09 1219.18,-1681.09 1219.18,-1693.09 1219.18,-1693.09 1219.18,-1699.09 1213.18,-1705.09 1207.18,-1705.09"/>
<text text-anchor="middle" x="1177.68" y="-1683.39" font-family="Times,serif" font-size="14.00" fill="#314b5f">ext&#45;ctype</text>
</g>
<!-- doctrine/orm&#45;&gt;ext&#45;ctype -->
<g id="edge19" class="edge">
<title>doctrine/orm&#45;&gt;ext&#45;ctype</title>
<path fill="none" stroke="#1a2833" d="M621.79,-1705.55C752.3,-1701.21 1015.39,-1692.45 1125.93,-1688.77"/>
<polygon fill="#1a2833" stroke="#1a2833" points="1126.27,-1692.27 1136.14,-1688.43 1126.03,-1685.27 1126.27,-1692.27"/>
<text text-anchor="middle" x="851.18" y="-1705.09" font-family="Times,serif" font-size="10.00" fill="#767676">*</text>
</g>
<!-- psr/cache -->
<g id="node20" class="node">
<title>psr/cache</title>
<path fill="#eeeeee" stroke="black" d="M1230.68,-1442.09C1230.68,-1442.09 1124.68,-1442.09 1124.68,-1442.09 1118.68,-1442.09 1112.68,-1436.09 1112.68,-1430.09 1112.68,-1430.09 1112.68,-1418.09 1112.68,-1418.09 1112.68,-1412.09 1118.68,-1406.09 1124.68,-1406.09 1124.68,-1406.09 1230.68,-1406.09 1230.68,-1406.09 1236.68,-1406.09 1242.68,-1412.09 1242.68,-1418.09 1242.68,-1418.09 1242.68,-1430.09 1242.68,-1430.09 1242.68,-1436.09 1236.68,-1442.09 1230.68,-1442.09"/>
<text text-anchor="middle" x="1177.68" y="-1420.39" font-family="Times,serif" font-size="14.00" fill="#314b5f">psr/cache: 3.0.0</text>
</g>
<!-- doctrine/orm&#45;&gt;psr/cache -->
<g id="edge21" class="edge">
<title>doctrine/orm&#45;&gt;psr/cache</title>
<path fill="none" stroke="#1a2833" d="M581.58,-1690C614.64,-1671.37 662.3,-1639.15 687.68,-1597.09 711,-1558.42 673.3,-1528.57 705.68,-1497.09 752.57,-1451.49 932.06,-1463.18 996.68,-1453.09 1031.54,-1447.64 1070.17,-1441.44 1102.67,-1436.17"/>
<polygon fill="#1a2833" stroke="#1a2833" points="1103.24,-1439.63 1112.55,-1434.57 1102.12,-1432.72 1103.24,-1439.63"/>
<text text-anchor="middle" x="851.18" y="-1500.09" font-family="Times,serif" font-size="10.00" fill="#767676">^1 || ^2 || ^3</text>
</g>
<!-- doctrine/orm&#45;&gt;symfony/console -->
<g id="edge22" class="edge">
<title>doctrine/orm&#45;&gt;symfony/console</title>
<path fill="none" stroke="#1a2833" d="M569.7,-1689.94C599.78,-1668.19 653.72,-1632.4 705.68,-1614.09 828.98,-1570.62 874.66,-1618.04 996.68,-1571.09 1005.65,-1567.63 1005.73,-1562.62 1014.68,-1559.09 1033.16,-1551.78 1053.6,-1546.44 1073.54,-1542.56"/>
<polygon fill="#1a2833" stroke="#1a2833" points="1074.4,-1545.96 1083.6,-1540.71 1073.13,-1539.07 1074.4,-1545.96"/>
<text text-anchor="middle" x="851.18" y="-1617.09" font-family="Times,serif" font-size="10.00" fill="#767676">^5.4 || ^6.0 || ^7.0 || ^8.0</text>
</g>
<!-- symfony/var&#45;exporter -->
<g id="node22" class="node">
<title>symfony/var&#45;exporter</title>
<path fill="#eeeeee" stroke="black" d="M1277.68,-1134.09C1277.68,-1134.09 1077.68,-1134.09 1077.68,-1134.09 1071.68,-1134.09 1065.68,-1128.09 1065.68,-1122.09 1065.68,-1122.09 1065.68,-1110.09 1065.68,-1110.09 1065.68,-1104.09 1071.68,-1098.09 1077.68,-1098.09 1077.68,-1098.09 1277.68,-1098.09 1277.68,-1098.09 1283.68,-1098.09 1289.68,-1104.09 1289.68,-1110.09 1289.68,-1110.09 1289.68,-1122.09 1289.68,-1122.09 1289.68,-1128.09 1283.68,-1134.09 1277.68,-1134.09"/>
<text text-anchor="middle" x="1177.68" y="-1112.39" font-family="Times,serif" font-size="14.00" fill="#314b5f">symfony/var&#45;exporter: v7.4.0</text>
</g>
<!-- doctrine/orm&#45;&gt;symfony/var&#45;exporter -->
<g id="edge23" class="edge">
<title>doctrine/orm&#45;&gt;symfony/var&#45;exporter</title>
<path fill="none" stroke="#1a2833" d="M582.84,-1690.01C616.33,-1671.59 663.85,-1639.69 687.68,-1597.09 705.04,-1566.05 680.07,-1462.76 705.68,-1438.09 752.38,-1393.09 950.96,-1462.08 996.68,-1416.09 1037.35,-1375.17 977.68,-1201.36 1014.68,-1157.09 1025.64,-1143.97 1040.14,-1134.71 1055.97,-1128.25"/>
<polygon fill="#1a2833" stroke="#1a2833" points="1057.26,-1131.5 1065.43,-1124.75 1054.83,-1124.93 1057.26,-1131.5"/>
<text text-anchor="middle" x="851.18" y="-1441.09" font-family="Times,serif" font-size="10.00" fill="#767676">^6.3.9 || ^7.0 || ^8.0</text>
</g>
<!-- psr/log&#45;&gt;php -->
<g id="edge26" class="edge">
<title>psr/log&#45;&gt;php</title>
<path fill="none" stroke="#1a2833" d="M1233.33,-1250.12C1267.61,-1246.24 1310.81,-1236.2 1340.68,-1211.09 1419.29,-1144.98 1438.68,-805.52 1442.72,-705.1"/>
<polygon fill="#1a2833" stroke="#1a2833" points="1446.22,-705.23 1443.11,-695.1 1439.23,-704.96 1446.22,-705.23"/>
<text text-anchor="middle" x="1379.18" y="-1188.09" font-family="Times,serif" font-size="10.00" fill="#767676">&gt;=8.0.0</text>
</g>
<!-- symfony/cache&#45;&gt;php -->
<g id="edge28" class="edge">
<title>symfony/cache&#45;&gt;php</title>
<path fill="none" stroke="#1a2833" d="M632.33,-1070.53C656.07,-1067.71 681.83,-1064.97 705.68,-1063.09 740.87,-1060.31 1312.92,-1059.9 1340.68,-1038.09 1394.14,-996.06 1428.88,-782.66 1439.9,-705.22"/>
<polygon fill="#1a2833" stroke="#1a2833" points="1443.38,-705.61 1441.3,-695.22 1436.45,-704.64 1443.38,-705.61"/>
<text text-anchor="middle" x="1177.68" y="-1060.09" font-family="Times,serif" font-size="10.00" fill="#767676">&gt;=8.2</text>
</g>
<!-- symfony/cache&#45;&gt;psr/cache -->
<g id="edge29" class="edge">
<title>symfony/cache&#45;&gt;psr/cache</title>
<path fill="none" stroke="#1a2833" d="M566.46,-1100.29C598.4,-1129.59 658.87,-1190.59 687.68,-1256.09 710.09,-1307.06 665.16,-1341.88 705.68,-1380.09 729.28,-1402.35 964.37,-1401.99 996.68,-1405.09 1031.39,-1408.41 1069.84,-1412.42 1102.26,-1415.9"/>
<polygon fill="#1a2833" stroke="#1a2833" points="1102.24,-1419.42 1112.56,-1417.01 1102.99,-1412.46 1102.24,-1419.42"/>
<text text-anchor="middle" x="851.18" y="-1408.09" font-family="Times,serif" font-size="10.00" fill="#767676">^2.0|^3.0</text>
</g>
<!-- symfony/cache&#45;&gt;symfony/var&#45;exporter -->
<g id="edge34" class="edge">
<title>symfony/cache&#45;&gt;symfony/var&#45;exporter</title>
<path fill="none" stroke="#1a2833" d="M632.42,-1089.04C656.16,-1090.82 681.9,-1092.64 705.68,-1094.09 824.32,-1101.3 959.91,-1107.41 1055.05,-1111.35"/>
<polygon fill="#1a2833" stroke="#1a2833" points="1055.15,-1114.85 1065.29,-1111.77 1055.44,-1107.86 1055.15,-1114.85"/>
<text text-anchor="middle" x="851.18" y="-1111.09" font-family="Times,serif" font-size="10.00" fill="#767676">^6.4|^7.0|^8.0</text>
</g>
<!-- symfony/cache&#45;&gt;psr/log -->
<g id="edge30" class="edge">
<title>symfony/cache&#45;&gt;psr/log</title>
<path fill="none" stroke="#1a2833" d="M558.3,-1100.21C582.46,-1133.17 638.84,-1202.1 705.68,-1230.09 742.13,-1245.35 991.63,-1250.11 1111.99,-1251.52"/>
<polygon fill="#1a2833" stroke="#1a2833" points="1112.13,-1255.02 1122.17,-1251.63 1112.21,-1248.02 1112.13,-1255.02"/>
<text text-anchor="middle" x="851.18" y="-1252.09" font-family="Times,serif" font-size="10.00" fill="#767676">^1.1|^2|^3</text>
</g>
<!-- symfony/cache&#45;contracts -->
<g id="node25" class="node">
<title>symfony/cache&#45;contracts</title>
<path fill="#eeeeee" stroke="black" d="M1288.68,-1202.09C1288.68,-1202.09 1066.68,-1202.09 1066.68,-1202.09 1060.68,-1202.09 1054.68,-1196.09 1054.68,-1190.09 1054.68,-1190.09 1054.68,-1178.09 1054.68,-1178.09 1054.68,-1172.09 1060.68,-1166.09 1066.68,-1166.09 1066.68,-1166.09 1288.68,-1166.09 1288.68,-1166.09 1294.68,-1166.09 1300.68,-1172.09 1300.68,-1178.09 1300.68,-1178.09 1300.68,-1190.09 1300.68,-1190.09 1300.68,-1196.09 1294.68,-1202.09 1288.68,-1202.09"/>
<text text-anchor="middle" x="1177.68" y="-1180.39" font-family="Times,serif" font-size="14.00" fill="#314b5f">symfony/cache&#45;contracts: v3.6.0</text>
</g>
<!-- symfony/cache&#45;&gt;symfony/cache&#45;contracts -->
<g id="edge31" class="edge">
<title>symfony/cache&#45;&gt;symfony/cache&#45;contracts</title>
<path fill="none" stroke="#1a2833" d="M572.88,-1100.15C603.64,-1119.48 655.94,-1149.11 705.68,-1162.09 767.3,-1178.16 928,-1182.82 1044.58,-1184.01"/>
<polygon fill="#1a2833" stroke="#1a2833" points="1044.62,-1187.51 1054.66,-1184.1 1044.69,-1180.51 1044.62,-1187.51"/>
<text text-anchor="middle" x="851.18" y="-1186.09" font-family="Times,serif" font-size="10.00" fill="#767676">^3.6</text>
</g>
<!-- symfony/deprecation&#45;contracts -->
<g id="node26" class="node">
<title>symfony/deprecation&#45;contracts</title>
<path fill="#eeeeee" stroke="black" d="M1310.68,-975.09C1310.68,-975.09 1044.68,-975.09 1044.68,-975.09 1038.68,-975.09 1032.68,-969.09 1032.68,-963.09 1032.68,-963.09 1032.68,-951.09 1032.68,-951.09 1032.68,-945.09 1038.68,-939.09 1044.68,-939.09 1044.68,-939.09 1310.68,-939.09 1310.68,-939.09 1316.68,-939.09 1322.68,-945.09 1322.68,-951.09 1322.68,-951.09 1322.68,-963.09 1322.68,-963.09 1322.68,-969.09 1316.68,-975.09 1310.68,-975.09"/>
<text text-anchor="middle" x="1177.68" y="-953.39" font-family="Times,serif" font-size="14.00" fill="#314b5f">symfony/deprecation&#45;contracts: v3.6.0</text>
</g>
<!-- symfony/cache&#45;&gt;symfony/deprecation&#45;contracts -->
<g id="edge32" class="edge">
<title>symfony/cache&#45;&gt;symfony/deprecation&#45;contracts</title>
<path fill="none" stroke="#1a2833" d="M569.02,-1064.06C598.85,-1042.16 652.96,-1006.16 705.68,-990.09 720.89,-985.45 890.78,-974.3 1022.2,-966.25"/>
<polygon fill="#1a2833" stroke="#1a2833" points="1022.63,-969.73 1032.39,-965.62 1022.2,-962.74 1022.63,-969.73"/>
<text text-anchor="middle" x="851.18" y="-993.09" font-family="Times,serif" font-size="10.00" fill="#767676">^2.5|^3</text>
</g>
<!-- symfony/service&#45;contracts -->
<g id="node27" class="node">
<title>symfony/service&#45;contracts</title>
<path fill="#eeeeee" stroke="black" d="M1294.18,-665.09C1294.18,-665.09 1061.18,-665.09 1061.18,-665.09 1055.18,-665.09 1049.18,-659.09 1049.18,-653.09 1049.18,-653.09 1049.18,-641.09 1049.18,-641.09 1049.18,-635.09 1055.18,-629.09 1061.18,-629.09 1061.18,-629.09 1294.18,-629.09 1294.18,-629.09 1300.18,-629.09 1306.18,-635.09 1306.18,-641.09 1306.18,-641.09 1306.18,-653.09 1306.18,-653.09 1306.18,-659.09 1300.18,-665.09 1294.18,-665.09"/>
<text text-anchor="middle" x="1177.68" y="-643.39" font-family="Times,serif" font-size="14.00" fill="#314b5f">symfony/service&#45;contracts: v3.6.1</text>
</g>
<!-- symfony/cache&#45;&gt;symfony/service&#45;contracts -->
<g id="edge33" class="edge">
<title>symfony/cache&#45;&gt;symfony/service&#45;contracts</title>
<path fill="none" stroke="#1a2833" d="M561.2,-1064.02C587.52,-1034.86 644.07,-978.22 705.68,-954.09 766.04,-930.44 950.89,-978.99 996.68,-933.09 1037.42,-892.24 975.88,-716.79 1014.68,-674.09 1021.87,-666.17 1030.43,-659.99 1039.81,-655.22"/>
<polygon fill="#1a2833" stroke="#1a2833" points="1041.35,-658.36 1049.03,-651.06 1038.48,-651.98 1041.35,-658.36"/>
<text text-anchor="middle" x="851.18" y="-957.09" font-family="Times,serif" font-size="10.00" fill="#767676">^2.5|^3</text>
</g>
<!-- symfony/config&#45;&gt;php -->
<g id="edge36" class="edge">
<title>symfony/config&#45;&gt;php</title>
<path fill="none" stroke="#1a2833" d="M633.57,-808.06C656.96,-805.58 682.24,-803.33 705.68,-802.09 834.83,-795.24 882.65,-741.06 996.68,-802.09 1009.39,-808.89 1001.96,-822.28 1014.68,-829.09 1078.55,-863.27 1276.67,-863.03 1340.68,-829.09 1390.23,-802.81 1420.32,-740.84 1434.3,-704.67"/>
<polygon fill="#1a2833" stroke="#1a2833" points="1437.61,-705.79 1437.81,-695.2 1431.05,-703.35 1437.61,-705.79"/>
<text text-anchor="middle" x="1177.68" y="-857.09" font-family="Times,serif" font-size="10.00" fill="#767676">&gt;=8.2</text>
</g>
<!-- symfony/config&#45;&gt;symfony/deprecation&#45;contracts -->
<g id="edge37" class="edge">
<title>symfony/config&#45;&gt;symfony/deprecation&#45;contracts</title>
<path fill="none" stroke="#1a2833" d="M573.52,-837.19C604.43,-856.27 656.46,-885.4 705.68,-899.09 830.67,-933.85 870.93,-890.17 996.68,-922.09 1005.16,-924.24 1006.29,-927.57 1014.68,-930.09 1022.72,-932.5 1031.06,-934.72 1039.53,-936.75"/>
<polygon fill="#1a2833" stroke="#1a2833" points="1038.97,-940.22 1049.5,-939.06 1040.55,-933.4 1038.97,-940.22"/>
<text text-anchor="middle" x="851.18" y="-925.09" font-family="Times,serif" font-size="10.00" fill="#767676">^2.5|^3</text>
</g>
<!-- symfony/filesystem -->
<g id="node29" class="node">
<title>symfony/filesystem</title>
<path fill="#eeeeee" stroke="black" d="M1269.18,-1029.09C1269.18,-1029.09 1086.18,-1029.09 1086.18,-1029.09 1080.18,-1029.09 1074.18,-1023.09 1074.18,-1017.09 1074.18,-1017.09 1074.18,-1005.09 1074.18,-1005.09 1074.18,-999.09 1080.18,-993.09 1086.18,-993.09 1086.18,-993.09 1269.18,-993.09 1269.18,-993.09 1275.18,-993.09 1281.18,-999.09 1281.18,-1005.09 1281.18,-1005.09 1281.18,-1017.09 1281.18,-1017.09 1281.18,-1023.09 1275.18,-1029.09 1269.18,-1029.09"/>
<text text-anchor="middle" x="1177.68" y="-1007.39" font-family="Times,serif" font-size="14.00" fill="#314b5f">symfony/filesystem: v7.4.0</text>
</g>
<!-- symfony/config&#45;&gt;symfony/filesystem -->
<g id="edge38" class="edge">
<title>symfony/config&#45;&gt;symfony/filesystem</title>
<path fill="none" stroke="#1a2833" d="M554.81,-837.18C575.46,-875.84 629.96,-965.86 705.68,-1001.09 766.88,-1029.56 944.97,-1025.47 1063.77,-1018.98"/>
<polygon fill="#1a2833" stroke="#1a2833" points="1064.22,-1022.46 1074.01,-1018.4 1063.83,-1015.47 1064.22,-1022.46"/>
<text text-anchor="middle" x="851.18" y="-1026.09" font-family="Times,serif" font-size="10.00" fill="#767676">^7.1|^8.0</text>
</g>
<!-- symfony/polyfill&#45;ctype -->
<g id="node30" class="node">
<title>symfony/polyfill&#45;ctype</title>
<path fill="#eeeeee" stroke="black" d="M1283.18,-921.09C1283.18,-921.09 1072.18,-921.09 1072.18,-921.09 1066.18,-921.09 1060.18,-915.09 1060.18,-909.09 1060.18,-909.09 1060.18,-897.09 1060.18,-897.09 1060.18,-891.09 1066.18,-885.09 1072.18,-885.09 1072.18,-885.09 1283.18,-885.09 1283.18,-885.09 1289.18,-885.09 1295.18,-891.09 1295.18,-897.09 1295.18,-897.09 1295.18,-909.09 1295.18,-909.09 1295.18,-915.09 1289.18,-921.09 1283.18,-921.09"/>
<text text-anchor="middle" x="1177.68" y="-899.39" font-family="Times,serif" font-size="14.00" fill="#314b5f">symfony/polyfill&#45;ctype: v1.33.0</text>
</g>
<!-- symfony/config&#45;&gt;symfony/polyfill&#45;ctype -->
<g id="edge39" class="edge">
<title>symfony/config&#45;&gt;symfony/polyfill&#45;ctype</title>
<path fill="none" stroke="#1a2833" d="M633.21,-813.94C756.06,-807.51 967.9,-799.68 996.68,-820.09 1016.28,-833.99 996.5,-855.36 1014.68,-871.09 1025.14,-880.14 1037.42,-886.92 1050.46,-891.96"/>
<polygon fill="#1a2833" stroke="#1a2833" points="1049.48,-895.32 1060.08,-895.33 1051.8,-888.72 1049.48,-895.32"/>
<text text-anchor="middle" x="851.18" y="-823.09" font-family="Times,serif" font-size="10.00" fill="#767676">~1.8</text>
</g>
<!-- symfony/dependency&#45;injection&#45;&gt;php -->
<g id="edge42" class="edge">
<title>symfony/dependency&#45;injection&#45;&gt;php</title>
<path fill="none" stroke="#1a2833" d="M637.62,-635.03C659.83,-631.21 683.54,-627.59 705.68,-625.09 845.94,-609.24 1205.49,-568.48 1340.68,-609.09 1368.87,-617.55 1396.46,-636.51 1415.98,-652.27"/>
<polygon fill="#1a2833" stroke="#1a2833" points="1413.9,-655.09 1423.83,-658.78 1418.37,-649.7 1413.9,-655.09"/>
<text text-anchor="middle" x="1177.68" y="-612.09" font-family="Times,serif" font-size="10.00" fill="#767676">&gt;=8.2</text>
</g>
<!-- symfony/dependency&#45;injection&#45;&gt;symfony/var&#45;exporter -->
<g id="edge46" class="edge">
<title>symfony/dependency&#45;injection&#45;&gt;symfony/var&#45;exporter</title>
<path fill="none" stroke="#1a2833" d="M649.89,-671.11C664.54,-677.94 677.9,-687.29 687.68,-700.09 733.33,-759.87 655.03,-982.47 705.68,-1038.09 749.69,-1086.42 932.24,-1070.07 996.68,-1081.09 1023.11,-1085.61 1051.64,-1090.94 1078.02,-1096.07"/>
<polygon fill="#1a2833" stroke="#1a2833" points="1077.53,-1099.54 1088.01,-1098.02 1078.87,-1092.67 1077.53,-1099.54"/>
<text text-anchor="middle" x="851.18" y="-1084.09" font-family="Times,serif" font-size="10.00" fill="#767676">^6.4.20|^7.2.5|^8.0</text>
</g>
<!-- symfony/dependency&#45;injection&#45;&gt;symfony/deprecation&#45;contracts -->
<g id="edge44" class="edge">
<title>symfony/dependency&#45;injection&#45;&gt;symfony/deprecation&#45;contracts</title>
<path fill="none" stroke="#1a2833" d="M647.55,-671.18C662.86,-677.98 677.05,-687.31 687.68,-700.09 725.26,-745.27 662.8,-790.89 705.68,-831.09 752.98,-875.43 947.42,-809.92 996.68,-852.09 1023.7,-875.22 988.76,-905.72 1014.68,-930.09 1017.55,-932.78 1020.58,-935.27 1023.74,-937.56"/>
<polygon fill="#1a2833" stroke="#1a2833" points="1022.13,-940.68 1032.43,-943.16 1025.92,-934.8 1022.13,-940.68"/>
<text text-anchor="middle" x="851.18" y="-855.09" font-family="Times,serif" font-size="10.00" fill="#767676">^2.5|^3</text>
</g>
<!-- symfony/dependency&#45;injection&#45;&gt;symfony/service&#45;contracts -->
<g id="edge45" class="edge">
<title>symfony/dependency&#45;injection&#45;&gt;symfony/service&#45;contracts</title>
<path fill="none" stroke="#1a2833" d="M687.8,-635.33C693.83,-634.85 699.81,-634.43 705.68,-634.09 834.78,-626.45 867.43,-629.42 996.68,-634.09 1010.28,-634.58 1024.45,-635.28 1038.61,-636.1"/>
<polygon fill="#1a2833" stroke="#1a2833" points="1038.71,-639.61 1048.91,-636.72 1039.13,-632.62 1038.71,-639.61"/>
<text text-anchor="middle" x="851.18" y="-637.09" font-family="Times,serif" font-size="10.00" fill="#767676">^3.6</text>
</g>
<!-- psr/container -->
<g id="node32" class="node">
<title>psr/container</title>
<path fill="#eeeeee" stroke="black" d="M1244.18,-564.09C1244.18,-564.09 1111.18,-564.09 1111.18,-564.09 1105.18,-564.09 1099.18,-558.09 1099.18,-552.09 1099.18,-552.09 1099.18,-540.09 1099.18,-540.09 1099.18,-534.09 1105.18,-528.09 1111.18,-528.09 1111.18,-528.09 1244.18,-528.09 1244.18,-528.09 1250.18,-528.09 1256.18,-534.09 1256.18,-540.09 1256.18,-540.09 1256.18,-552.09 1256.18,-552.09 1256.18,-558.09 1250.18,-564.09 1244.18,-564.09"/>
<text text-anchor="middle" x="1177.68" y="-542.39" font-family="Times,serif" font-size="14.00" fill="#314b5f">psr/container: 2.0.2</text>
</g>
<!-- symfony/dependency&#45;injection&#45;&gt;psr/container -->
<g id="edge43" class="edge">
<title>symfony/dependency&#45;injection&#45;&gt;psr/container</title>
<path fill="none" stroke="#1a2833" d="M674.62,-634.99C679.2,-632.36 683.58,-629.4 687.68,-626.09 703.77,-613.04 688.89,-595.23 705.68,-583.09 817.9,-501.89 987.02,-511.72 1089.14,-527.81"/>
<polygon fill="#1a2833" stroke="#1a2833" points="1088.68,-531.28 1099.12,-529.44 1089.81,-524.37 1088.68,-531.28"/>
<text text-anchor="middle" x="851.18" y="-586.09" font-family="Times,serif" font-size="10.00" fill="#767676">^1.1|^2.0</text>
</g>
<!-- symfony/event&#45;dispatcher&#45;&gt;php -->
<g id="edge48" class="edge">
<title>symfony/event&#45;dispatcher&#45;&gt;php</title>
<path fill="none" stroke="#1a2833" d="M665.49,-527.08C673.69,-522.52 681.24,-516.93 687.68,-510.09 718.04,-477.85 671.88,-440.7 705.68,-412.09 717.96,-401.68 1338.22,-405.62 1340.68,-407.09 1425.41,-457.79 1440.73,-590.12 1443.29,-648.6"/>
<polygon fill="#1a2833" stroke="#1a2833" points="1439.81,-649.06 1443.64,-658.94 1446.8,-648.83 1439.81,-649.06"/>
<text text-anchor="middle" x="1177.68" y="-410.09" font-family="Times,serif" font-size="10.00" fill="#767676">&gt;=8.2</text>
</g>
<!-- symfony/event&#45;dispatcher&#45;contracts -->
<g id="node34" class="node">
<title>symfony/event&#45;dispatcher&#45;contracts</title>
<path fill="#eeeeee" stroke="black" d="M1328.68,-463.09C1328.68,-463.09 1026.68,-463.09 1026.68,-463.09 1020.68,-463.09 1014.68,-457.09 1014.68,-451.09 1014.68,-451.09 1014.68,-439.09 1014.68,-439.09 1014.68,-433.09 1020.68,-427.09 1026.68,-427.09 1026.68,-427.09 1328.68,-427.09 1328.68,-427.09 1334.68,-427.09 1340.68,-433.09 1340.68,-439.09 1340.68,-439.09 1340.68,-451.09 1340.68,-451.09 1340.68,-457.09 1334.68,-463.09 1328.68,-463.09"/>
<text text-anchor="middle" x="1177.68" y="-441.39" font-family="Times,serif" font-size="14.00" fill="#314b5f">symfony/event&#45;dispatcher&#45;contracts: v3.6.0</text>
</g>
<!-- symfony/event&#45;dispatcher&#45;&gt;symfony/event&#45;dispatcher&#45;contracts -->
<g id="edge49" class="edge">
<title>symfony/event&#45;dispatcher&#45;&gt;symfony/event&#45;dispatcher&#45;contracts</title>
<path fill="none" stroke="#1a2833" d="M665.41,-526.99C673.37,-523.15 680.9,-518.57 687.68,-513.09 702.52,-501.08 689.92,-484.86 705.68,-474.09 818.89,-396.64 985.47,-408.09 1087.2,-425.29"/>
<polygon fill="#1a2833" stroke="#1a2833" points="1086.69,-428.75 1097.14,-427.02 1087.89,-421.85 1086.69,-428.75"/>
<text text-anchor="middle" x="851.18" y="-477.09" font-family="Times,serif" font-size="10.00" fill="#767676">^2.5|^3</text>
</g>
<!-- symfony/finder&#45;&gt;php -->
<g id="edge51" class="edge">
<title>symfony/finder&#45;&gt;php</title>
<path fill="none" stroke="#1a2833" d="M939.19,-351.88C1078.63,-336.18 1342.33,-316.57 1399.68,-384.09 1433.35,-423.73 1441.28,-583.6 1443.12,-649"/>
<polygon fill="#1a2833" stroke="#1a2833" points="1439.63,-649.09 1443.38,-659 1446.62,-648.92 1439.63,-649.09"/>
<text text-anchor="middle" x="1177.68" y="-354.09" font-family="Times,serif" font-size="10.00" fill="#767676">&gt;=8.2</text>
</g>
<!-- symfony/http&#45;client&#45;&gt;php -->
<g id="edge53" class="edge">
<title>symfony/http&#45;client&#45;&gt;php</title>
<path fill="none" stroke="#1a2833" d="M649.19,-729.86C849.28,-734.83 1275.24,-743.4 1340.68,-728.09 1364.66,-722.47 1389.47,-710.41 1408.72,-699.43"/>
<polygon fill="#1a2833" stroke="#1a2833" points="1410.57,-702.4 1417.43,-694.32 1407.03,-696.36 1410.57,-702.4"/>
<text text-anchor="middle" x="1177.68" y="-739.09" font-family="Times,serif" font-size="10.00" fill="#767676">&gt;=8.2</text>
</g>
<!-- symfony/http&#45;client&#45;&gt;psr/log -->
<g id="edge54" class="edge">
<title>symfony/http&#45;client&#45;&gt;psr/log</title>
<path fill="none" stroke="#1a2833" d="M623.09,-745.18C647.79,-754.91 672.6,-769.71 687.68,-792.09 712.79,-829.35 674.34,-1163.88 705.68,-1196.09 728.28,-1219.32 964.54,-1212.82 996.68,-1217.09 1035.16,-1222.2 1077.83,-1230.38 1111.97,-1237.55"/>
<polygon fill="#1a2833" stroke="#1a2833" points="1111.3,-1240.99 1121.81,-1239.64 1112.76,-1234.14 1111.3,-1240.99"/>
<text text-anchor="middle" x="851.18" y="-1220.09" font-family="Times,serif" font-size="10.00" fill="#767676">^1|^2|^3</text>
</g>
<!-- symfony/http&#45;client&#45;&gt;symfony/deprecation&#45;contracts -->
<g id="edge55" class="edge">
<title>symfony/http&#45;client&#45;&gt;symfony/deprecation&#45;contracts</title>
<path fill="none" stroke="#1a2833" d="M616.29,-745.22C642.11,-755.14 669.43,-770.06 687.68,-792.09 708.99,-817.82 680.13,-843.54 705.68,-865.09 755.24,-906.88 944.18,-848.03 996.68,-886.09 1013.78,-898.49 998.16,-916.9 1014.68,-930.09 1017.64,-932.45 1020.72,-934.64 1023.92,-936.67"/>
<polygon fill="#1a2833" stroke="#1a2833" points="1022.2,-939.72 1032.62,-941.67 1025.69,-933.65 1022.2,-939.72"/>
<text text-anchor="middle" x="851.18" y="-889.09" font-family="Times,serif" font-size="10.00" fill="#767676">^2.5|^3</text>
</g>
<!-- symfony/http&#45;client&#45;&gt;symfony/service&#45;contracts -->
<g id="edge58" class="edge">
<title>symfony/http&#45;client&#45;&gt;symfony/service&#45;contracts</title>
<path fill="none" stroke="#1a2833" d="M595.42,-709.03C626.65,-698.47 668.01,-685.93 705.68,-679.09 816.65,-658.93 944.41,-651.2 1038.85,-648.36"/>
<polygon fill="#1a2833" stroke="#1a2833" points="1039.14,-651.85 1049.04,-648.07 1038.94,-644.85 1039.14,-651.85"/>
<text text-anchor="middle" x="851.18" y="-682.09" font-family="Times,serif" font-size="10.00" fill="#767676">^2.5|^3</text>
</g>
<!-- symfony/http&#45;client&#45;contracts -->
<g id="node37" class="node">
<title>symfony/http&#45;client&#45;contracts</title>
<path fill="#eeeeee" stroke="black" d="M1305.68,-719.09C1305.68,-719.09 1049.68,-719.09 1049.68,-719.09 1043.68,-719.09 1037.68,-713.09 1037.68,-707.09 1037.68,-707.09 1037.68,-695.09 1037.68,-695.09 1037.68,-689.09 1043.68,-683.09 1049.68,-683.09 1049.68,-683.09 1305.68,-683.09 1305.68,-683.09 1311.68,-683.09 1317.68,-689.09 1317.68,-695.09 1317.68,-695.09 1317.68,-707.09 1317.68,-707.09 1317.68,-713.09 1311.68,-719.09 1305.68,-719.09"/>
<text text-anchor="middle" x="1177.68" y="-697.39" font-family="Times,serif" font-size="14.00" fill="#314b5f">symfony/http&#45;client&#45;contracts: v3.6.0</text>
</g>
<!-- symfony/http&#45;client&#45;&gt;symfony/http&#45;client&#45;contracts -->
<g id="edge56" class="edge">
<title>symfony/http&#45;client&#45;&gt;symfony/http&#45;client&#45;contracts</title>
<path fill="none" stroke="#1a2833" d="M645.69,-709.05C665.5,-706.16 686.2,-703.62 705.68,-702.09 813.14,-693.63 934.81,-693.61 1027.57,-695.59"/>
<polygon fill="#1a2833" stroke="#1a2833" points="1027.52,-699.09 1037.6,-695.82 1027.68,-692.09 1027.52,-699.09"/>
<text text-anchor="middle" x="851.18" y="-705.09" font-family="Times,serif" font-size="10.00" fill="#767676">~3.4.4|^3.5.2</text>
</g>
<!-- symfony/polyfill&#45;php83 -->
<g id="node38" class="node">
<title>symfony/polyfill&#45;php83</title>
<path fill="#eeeeee" stroke="black" d="M1286.18,-820.09C1286.18,-820.09 1069.18,-820.09 1069.18,-820.09 1063.18,-820.09 1057.18,-814.09 1057.18,-808.09 1057.18,-808.09 1057.18,-796.09 1057.18,-796.09 1057.18,-790.09 1063.18,-784.09 1069.18,-784.09 1069.18,-784.09 1286.18,-784.09 1286.18,-784.09 1292.18,-784.09 1298.18,-790.09 1298.18,-796.09 1298.18,-796.09 1298.18,-808.09 1298.18,-808.09 1298.18,-814.09 1292.18,-820.09 1286.18,-820.09"/>
<text text-anchor="middle" x="1177.68" y="-798.39" font-family="Times,serif" font-size="14.00" fill="#314b5f">symfony/polyfill&#45;php83: v1.33.0</text>
</g>
<!-- symfony/http&#45;client&#45;&gt;symfony/polyfill&#45;php83 -->
<g id="edge57" class="edge">
<title>symfony/http&#45;client&#45;&gt;symfony/polyfill&#45;php83</title>
<path fill="none" stroke="#1a2833" d="M649.23,-734.4C779.79,-743.69 988.38,-758.79 996.68,-761.09 1005.3,-763.47 1006.21,-767.19 1014.68,-770.09 1027.45,-774.45 1041,-778.29 1054.61,-781.66"/>
<polygon fill="#1a2833" stroke="#1a2833" points="1053.99,-785.1 1064.52,-784.02 1055.61,-778.3 1053.99,-785.1"/>
<text text-anchor="middle" x="851.18" y="-764.09" font-family="Times,serif" font-size="10.00" fill="#767676">^1.29</text>
</g>
<!-- symfony/messenger&#45;&gt;php -->
<g id="edge60" class="edge">
<title>symfony/messenger&#45;&gt;php</title>
<path fill="none" stroke="#1a2833" d="M651.06,-1328.27C742.54,-1330.16 878.5,-1330.88 996.68,-1323.09 1150.48,-1312.95 1207.55,-1356.78 1340.68,-1279.09 1378.52,-1257 1384.13,-1241.06 1399.68,-1200.09 1434.51,-1108.31 1441.88,-800.52 1443.34,-705.36"/>
<polygon fill="#1a2833" stroke="#1a2833" points="1446.84,-705.14 1443.48,-695.09 1439.84,-705.03 1446.84,-705.14"/>
<text text-anchor="middle" x="1177.68" y="-1329.09" font-family="Times,serif" font-size="10.00" fill="#767676">&gt;=8.2</text>
</g>
<!-- symfony/messenger&#45;&gt;psr/log -->
<g id="edge61" class="edge">
<title>symfony/messenger&#45;&gt;psr/log</title>
<path fill="none" stroke="#1a2833" d="M651.1,-1316.49C669.3,-1315.01 688.04,-1313.5 705.68,-1312.09 835,-1301.72 868.22,-1307.29 996.68,-1289.09 1035.2,-1283.63 1077.87,-1274.97 1112,-1267.4"/>
<polygon fill="#1a2833" stroke="#1a2833" points="1112.85,-1270.8 1121.84,-1265.2 1111.32,-1263.97 1112.85,-1270.8"/>
<text text-anchor="middle" x="851.18" y="-1315.09" font-family="Times,serif" font-size="10.00" fill="#767676">^1|^2|^3</text>
</g>
<!-- symfony/messenger&#45;&gt;symfony/deprecation&#45;contracts -->
<g id="edge63" class="edge">
<title>symfony/messenger&#45;&gt;symfony/deprecation&#45;contracts</title>
<path fill="none" stroke="#1a2833" d="M650.73,-1317.02C664.72,-1311.78 677.66,-1304.13 687.68,-1293.09 731.01,-1245.32 659.27,-1193.88 705.68,-1149.09 752.39,-1103.99 949.87,-1168.07 996.68,-1123.09 1041.59,-1079.92 971.44,-1028.93 1014.68,-984.09 1017.6,-981.06 1020.72,-978.28 1024.02,-975.75"/>
<polygon fill="#1a2833" stroke="#1a2833" points="1026.24,-978.47 1032.53,-969.95 1022.3,-972.69 1026.24,-978.47"/>
<text text-anchor="middle" x="851.18" y="-1152.09" font-family="Times,serif" font-size="10.00" fill="#767676">^2.5|^3</text>
</g>
<!-- symfony/clock -->
<g id="node40" class="node">
<title>symfony/clock</title>
<path fill="#eeeeee" stroke="black" d="M1250.68,-1388.09C1250.68,-1388.09 1104.68,-1388.09 1104.68,-1388.09 1098.68,-1388.09 1092.68,-1382.09 1092.68,-1376.09 1092.68,-1376.09 1092.68,-1364.09 1092.68,-1364.09 1092.68,-1358.09 1098.68,-1352.09 1104.68,-1352.09 1104.68,-1352.09 1250.68,-1352.09 1250.68,-1352.09 1256.68,-1352.09 1262.68,-1358.09 1262.68,-1364.09 1262.68,-1364.09 1262.68,-1376.09 1262.68,-1376.09 1262.68,-1382.09 1256.68,-1388.09 1250.68,-1388.09"/>
<text text-anchor="middle" x="1177.68" y="-1366.39" font-family="Times,serif" font-size="14.00" fill="#314b5f">symfony/clock: v7.4.0</text>
</g>
<!-- symfony/messenger&#45;&gt;symfony/clock -->
<g id="edge62" class="edge">
<title>symfony/messenger&#45;&gt;symfony/clock</title>
<path fill="none" stroke="#1a2833" d="M650.93,-1341.68C669.15,-1344.14 687.94,-1346.4 705.68,-1348.09 835.81,-1360.45 986.85,-1365.95 1082.09,-1368.34"/>
<polygon fill="#1a2833" stroke="#1a2833" points="1082.19,-1371.84 1092.27,-1368.59 1082.36,-1364.84 1082.19,-1371.84"/>
<text text-anchor="middle" x="851.18" y="-1368.09" font-family="Times,serif" font-size="10.00" fill="#767676">^6.4|^7.0|^8.0</text>
</g>
<!-- symfony/polyfill&#45;php84&#45;&gt;php -->
<g id="edge65" class="edge">
<title>symfony/polyfill&#45;php84&#45;&gt;php</title>
<path fill="none" stroke="#1a2833" d="M971.87,-305.92C1118.74,-294.24 1353.98,-287.21 1399.68,-356.09 1431.41,-403.91 1440.51,-579.49 1442.9,-648.73"/>
<polygon fill="#1a2833" stroke="#1a2833" points="1439.4,-649.02 1443.22,-658.9 1446.4,-648.79 1439.4,-649.02"/>
<text text-anchor="middle" x="1177.68" y="-320.09" font-family="Times,serif" font-size="10.00" fill="#767676">&gt;=7.2</text>
</g>
<!-- symfony/process&#45;&gt;php -->
<g id="edge67" class="edge">
<title>symfony/process&#45;&gt;php</title>
<path fill="none" stroke="#1a2833" d="M945.71,-256.56C1046.02,-246.58 1208.66,-240.48 1340.68,-283.09 1370.82,-292.82 1383.13,-296.07 1399.68,-323.09 1433.05,-377.6 1441.21,-574.33 1443.12,-648.51"/>
<polygon fill="#1a2833" stroke="#1a2833" points="1439.63,-649.02 1443.37,-658.93 1446.63,-648.85 1439.63,-649.02"/>
<text text-anchor="middle" x="1177.68" y="-286.09" font-family="Times,serif" font-size="10.00" fill="#767676">&gt;=8.2</text>
</g>
<!-- symfony/requirements&#45;checker&#45;&gt;php -->
<g id="edge69" class="edge">
<title>symfony/requirements&#45;checker&#45;&gt;php</title>
<path fill="none" stroke="#1a2833" d="M954.2,-208.08C1055.76,-194.61 1214.28,-185.85 1340.68,-234.09 1373.06,-246.44 1383.52,-254.42 1399.68,-285.09 1433.06,-348.45 1441.26,-569.95 1443.15,-648.88"/>
<polygon fill="#1a2833" stroke="#1a2833" points="1439.65,-649.13 1443.37,-659.04 1446.65,-648.97 1439.65,-649.13"/>
<text text-anchor="middle" x="1177.68" y="-237.09" font-family="Times,serif" font-size="10.00" fill="#767676">&gt;=5.3.9</text>
</g>
<!-- symfony/stopwatch&#45;&gt;php -->
<g id="edge71" class="edge">
<title>symfony/stopwatch&#45;&gt;php</title>
<path fill="none" stroke="#1a2833" d="M648.95,-593.29C663.17,-588.74 676.66,-581.97 687.68,-572.09 708.08,-553.78 683.78,-529.58 705.68,-513.09 718.77,-503.22 1339.08,-507.19 1340.68,-508.09 1394.58,-538.36 1423.59,-609.56 1436.07,-649.2"/>
<polygon fill="#1a2833" stroke="#1a2833" points="1432.8,-650.46 1439.03,-659.02 1439.5,-648.44 1432.8,-650.46"/>
<text text-anchor="middle" x="1177.68" y="-511.09" font-family="Times,serif" font-size="10.00" fill="#767676">&gt;=8.2</text>
</g>
<!-- symfony/stopwatch&#45;&gt;symfony/service&#45;contracts -->
<g id="edge72" class="edge">
<title>symfony/stopwatch&#45;&gt;symfony/service&#45;contracts</title>
<path fill="none" stroke="#1a2833" d="M648.98,-598.19C740.58,-598.42 877.89,-601.29 996.68,-614.09 1024.81,-617.12 1055.15,-622.03 1082.77,-627.15"/>
<polygon fill="#1a2833" stroke="#1a2833" points="1082.33,-630.63 1092.81,-629.05 1083.63,-623.76 1082.33,-630.63"/>
<text text-anchor="middle" x="851.18" y="-617.09" font-family="Times,serif" font-size="10.00" fill="#767676">^2.5|^3</text>
</g>
<!-- bamarni/composer&#45;bin&#45;plugin&#45;&gt;php -->
<g id="edge75" class="edge">
<title>bamarni/composer&#45;bin&#45;plugin&#45;&gt;php</title>
<path fill="none" stroke="#1a2833" d="M678.03,-320.86C681.47,-318.23 684.7,-315.32 687.68,-312.09 713.55,-283.97 678.25,-167.69 705.68,-141.09 908.4,55.53 1100.7,30.79 1340.68,-118.09 1432.4,-174.99 1442.57,-542.83 1443.59,-648.65"/>
<polygon fill="#1a2833" stroke="#1a2833" points="1440.1,-648.9 1443.67,-658.87 1447.1,-648.85 1440.1,-648.9"/>
<text text-anchor="middle" x="1177.68" y="-121.09" font-family="Times,serif" font-size="10.00" fill="#767676">^7.2.5 || ^8.0</text>
</g>
<!-- composer&#45;plugin&#45;api -->
<g id="node46" class="node">
<title>composer&#45;plugin&#45;api</title>
<path fill="#eeeeee" stroke="black" d="M1246.18,-174.09C1246.18,-174.09 1109.18,-174.09 1109.18,-174.09 1103.18,-174.09 1097.18,-168.09 1097.18,-162.09 1097.18,-162.09 1097.18,-150.09 1097.18,-150.09 1097.18,-144.09 1103.18,-138.09 1109.18,-138.09 1109.18,-138.09 1246.18,-138.09 1246.18,-138.09 1252.18,-138.09 1258.18,-144.09 1258.18,-150.09 1258.18,-150.09 1258.18,-162.09 1258.18,-162.09 1258.18,-168.09 1252.18,-174.09 1246.18,-174.09"/>
<text text-anchor="middle" x="1177.68" y="-152.39" font-family="Times,serif" font-size="14.00" fill="#314b5f">composer&#45;plugin&#45;api</text>
</g>
<!-- bamarni/composer&#45;bin&#45;plugin&#45;&gt;composer&#45;plugin&#45;api -->
<g id="edge74" class="edge">
<title>bamarni/composer&#45;bin&#45;plugin&#45;&gt;composer&#45;plugin&#45;api</title>
<path fill="none" stroke="#1a2833" d="M677.57,-320.93C681.17,-318.29 684.55,-315.35 687.68,-312.09 726.18,-271.86 664.82,-225.93 705.68,-188.09 759.18,-138.51 965.98,-142.41 1087.04,-149.38"/>
<polygon fill="#1a2833" stroke="#1a2833" points="1086.85,-152.88 1097.04,-149.98 1087.27,-145.89 1086.85,-152.88"/>
<text text-anchor="middle" x="851.18" y="-191.09" font-family="Times,serif" font-size="10.00" fill="#767676">^2.0</text>
</g>
</g>
</svg>
