<?xml version="1.0" encoding="UTF-8" standalone="no"?>
<!DOCTYPE svg PUBLIC "-//W3C//DTD SVG 1.1//EN"
 "http://www.w3.org/Graphics/SVG/1.1/DTD/svg11.dtd">
<!-- Generated by graphviz version 2.43.0 (0)
 -->
<!-- Title: %3 Pages: 1 -->
<svg width="3612pt" height="455pt"
 viewBox="0.00 0.00 3612.00 455.00" xmlns="http://www.w3.org/2000/svg" xmlns:xlink="http://www.w3.org/1999/xlink">
<g id="graph0" class="graph" transform="scale(1 1) rotate(0) translate(4 451)">
<title>%3</title>
<g id="clust1" class="cluster">
<title>cluster_0</title>
<polygon fill="#ffd39b" stroke="black" points="8,-8 8,-439 3596,-439 3596,-8 8,-8"/>
<text text-anchor="middle" x="1802" y="-423.8" font-family="Times,serif" font-size="14.00">Bartlett\CompatInfoDb\Application\Kernel</text>
</g>
<!-- Bartlett\\CompatInfoDb\\Application\\Kernel\\ConsoleKernel -->
<g id="node1" class="node">
<title>Bartlett\\CompatInfoDb\\Application\\Kernel\\ConsoleKernel</title>
<polygon fill="#fefece" stroke="transparent" points="1159,-393.5 16,-393.5 16,-282.5 1159,-282.5 1159,-393.5"/>
<polygon fill="#eeeeee" stroke="transparent" points="24.5,-355 24.5,-389 1151.5,-389 1151.5,-355 24.5,-355"/>
<polygon fill="none" stroke="black" points="24.5,-355 24.5,-389 1151.5,-389 1151.5,-355 24.5,-355"/>
<text text-anchor="start" x="530" y="-361.8" font-family="Times,serif" font-weight="bold" font-size="14.00">ConsoleKernel</text>
<polygon fill="none" stroke="black" points="24.5,-349 24.5,-355 1151.5,-355 1151.5,-349 24.5,-349"/>
<polygon fill="none" stroke="black" points="24.5,-286 24.5,-349 1151.5,-349 1151.5,-286 24.5,-286"/>
<text text-anchor="start" x="29.5" y="-332.8" font-family="Times,serif" font-size="14.00">+ getCacheDir() : string</text>
<text text-anchor="start" x="29.5" y="-313.8" font-family="Times,serif" font-size="14.00">+ handle(input : Symfony\Component\Console\Input\InputInterface = «unknown») : int</text>
<text text-anchor="start" x="29.5" y="-294.8" font-family="Times,serif" font-size="14.00">+ createFromInput(input : Symfony\Component\Console\Input\InputInterface = «unknown») : Symfony\Component\DependencyInjection\ContainerInterface</text>
</g>
<!-- Bartlett\\CompatInfoDb\\Application\\Kernel\\AbstractKernel -->
<g id="node2" class="node">
<title>Bartlett\\CompatInfoDb\\Application\\Kernel\\AbstractKernel</title>
<polygon fill="#fefece" stroke="transparent" points="2333.5,-298 1280.5,-298 1280.5,-16 2333.5,-16 2333.5,-298"/>
<polygon fill="#eeeeee" stroke="transparent" points="1289,-260 1289,-294 2326,-294 2326,-260 1289,-260"/>
<polygon fill="none" stroke="black" points="1289,-260 1289,-294 2326,-294 2326,-260 1289,-260"/>
<text text-anchor="start" x="1765.5" y="-280.8" font-family="Times,serif" font-weight="bold" font-size="14.00">«abstract»</text>
<text text-anchor="start" x="1747" y="-266.8" font-family="Times,serif" font-weight="bold" font-size="14.00">AbstractKernel</text>
<polygon fill="none" stroke="black" points="1289,-254 1289,-260 2326,-260 2326,-254 1289,-254"/>
<polygon fill="none" stroke="black" points="1289,-20 1289,-254 2326,-254 2326,-20 1289,-20"/>
<text text-anchor="start" x="1294" y="-237.8" font-family="Times,serif" font-size="14.00">+ __construct(environment : string, debug : bool)</text>
<text text-anchor="start" x="1294" y="-218.8" font-family="Times,serif" font-size="14.00">+ createFromConfigs(configFiles : array) : Symfony\Component\DependencyInjection\ContainerInterface</text>
<text text-anchor="start" x="1294" y="-199.8" font-family="Times,serif" font-size="14.00">+ create(configFiles : array, compilerPasses : array = [], extensions : array = []) : Symfony\Component\DependencyInjection\ContainerInterface</text>
<text text-anchor="start" x="1294" y="-180.8" font-family="Times,serif" font-size="14.00">+ getContainerBuilder() : Symfony\Component\DependencyInjection\ContainerBuilder</text>
<text text-anchor="start" x="1294" y="-161.8" font-family="Times,serif" font-size="14.00">+ getEnvironment() : string</text>
<text text-anchor="start" x="1294" y="-142.8" font-family="Times,serif" font-size="14.00">+ isDebug() : bool</text>
<text text-anchor="start" x="1294" y="-123.8" font-family="Times,serif" font-size="14.00">+ getHomeDir() : string</text>
<text text-anchor="start" x="1294" y="-104.8" font-family="Times,serif" font-size="14.00">+ getProjectDir() : string</text>
<text text-anchor="start" x="1294" y="-85.8" font-family="Times,serif" font-size="14.00">+ getCacheDir() : string</text>
<text text-anchor="start" x="1294" y="-66.8" font-family="Times,serif" font-size="14.00">+ getLogDir() : string</text>
<text text-anchor="start" x="1294" y="-47.8" font-family="Times,serif" font-size="14.00">+ getContainer() : Symfony\Component\DependencyInjection\ContainerInterface</text>
<text text-anchor="start" x="1294" y="-28.8" font-family="Times,serif" font-size="14.00">+ boot() : void</text>
</g>
<!-- Bartlett\\CompatInfoDb\\Application\\Kernel\\ConsoleKernel&#45;&gt;Bartlett\\CompatInfoDb\\Application\\Kernel\\AbstractKernel -->
<g id="edge3" class="edge">
<title>Bartlett\\CompatInfoDb\\Application\\Kernel\\ConsoleKernel&#45;&gt;Bartlett\\CompatInfoDb\\Application\\Kernel\\AbstractKernel</title>
<path fill="none" stroke="black" d="M996.49,-282.45C1051.15,-274.73 1106.45,-266.78 1159,-259 1195.27,-253.63 1232.67,-248 1270.33,-242.25"/>
<polygon fill="none" stroke="black" points="1271.08,-245.67 1280.44,-240.7 1270.02,-238.75 1271.08,-245.67"/>
</g>
<!-- Bartlett\\CompatInfoDb\\Application\\Kernel\\ConsoleKernelInterface -->
<g id="node5" class="node">
<title>Bartlett\\CompatInfoDb\\Application\\Kernel\\ConsoleKernelInterface</title>
<polygon fill="#fefece" stroke="transparent" points="2419,-408 1195,-408 1195,-316 2419,-316 2419,-408"/>
<polygon fill="#eeeeee" stroke="transparent" points="1203,-370 1203,-404 2411,-404 2411,-370 1203,-370"/>
<polygon fill="none" stroke="black" points="1203,-370 1203,-404 2411,-404 2411,-370 1203,-370"/>
<text text-anchor="start" x="1762" y="-390.8" font-family="Times,serif" font-weight="bold" font-size="14.00">«interface»</text>
<text text-anchor="start" x="1712.5" y="-376.8" font-family="Times,serif" font-weight="bold" font-size="14.00">ConsoleKernelInterface</text>
<polygon fill="none" stroke="black" points="1203,-364 1203,-370 2411,-370 2411,-364 1203,-364"/>
<polygon fill="none" stroke="black" points="1203,-320 1203,-364 2411,-364 2411,-320 1203,-320"/>
<text text-anchor="start" x="1208" y="-347.8" font-family="Times,serif" font-size="14.00">+ «abstract» handle(input : Symfony\Component\Console\Input\InputInterface = «unknown») : int</text>
<text text-anchor="start" x="1208" y="-328.8" font-family="Times,serif" font-size="14.00">+ «abstract» createFromInput(input : Symfony\Component\Console\Input\InputInterface = «unknown») : Symfony\Component\DependencyInjection\ContainerInterface</text>
</g>
<!-- Bartlett\\CompatInfoDb\\Application\\Kernel\\ConsoleKernel&#45;&gt;Bartlett\\CompatInfoDb\\Application\\Kernel\\ConsoleKernelInterface -->
<g id="edge4" class="edge">
<title>Bartlett\\CompatInfoDb\\Application\\Kernel\\ConsoleKernel&#45;&gt;Bartlett\\CompatInfoDb\\Application\\Kernel\\ConsoleKernelInterface</title>
<path fill="none" stroke="black" stroke-dasharray="5,2" d="M1159.37,-349.25C1167.72,-349.42 1176.08,-349.58 1184.44,-349.75"/>
<polygon fill="none" stroke="black" points="1184.58,-353.25 1194.64,-349.95 1184.71,-346.25 1184.58,-353.25"/>
</g>
<!-- Bartlett\\CompatInfoDb\\Application\\Kernel\\KernelInterface -->
<g id="node3" class="node">
<title>Bartlett\\CompatInfoDb\\Application\\Kernel\\KernelInterface</title>
<polygon fill="#fefece" stroke="transparent" points="3588,-146 2455,-146 2455,-54 3588,-54 3588,-146"/>
<polygon fill="#eeeeee" stroke="transparent" points="2463.5,-108 2463.5,-142 3580.5,-142 3580.5,-108 2463.5,-108"/>
<polygon fill="none" stroke="black" points="2463.5,-108 2463.5,-142 3580.5,-142 3580.5,-108 2463.5,-108"/>
<text text-anchor="start" x="2977" y="-128.8" font-family="Times,serif" font-weight="bold" font-size="14.00">«interface»</text>
<text text-anchor="start" x="2958.5" y="-114.8" font-family="Times,serif" font-weight="bold" font-size="14.00">KernelInterface</text>
<polygon fill="none" stroke="black" points="2463.5,-102 2463.5,-108 3580.5,-108 3580.5,-102 2463.5,-102"/>
<polygon fill="none" stroke="black" points="2463.5,-58 2463.5,-102 3580.5,-102 3580.5,-58 2463.5,-58"/>
<text text-anchor="start" x="2468.5" y="-85.8" font-family="Times,serif" font-size="14.00">+ «abstract» createFromConfigs(configFiles : array) : Symfony\Component\DependencyInjection\ContainerInterface</text>
<text text-anchor="start" x="2468.5" y="-66.8" font-family="Times,serif" font-size="14.00">+ «abstract» create(configFiles : array, compilerPasses : array = [], extensions : array = []) : Symfony\Component\DependencyInjection\ContainerInterface</text>
</g>
<!-- Bartlett\\CompatInfoDb\\Application\\Kernel\\AbstractKernel&#45;&gt;Bartlett\\CompatInfoDb\\Application\\Kernel\\KernelInterface -->
<g id="edge1" class="edge">
<title>Bartlett\\CompatInfoDb\\Application\\Kernel\\AbstractKernel&#45;&gt;Bartlett\\CompatInfoDb\\Application\\Kernel\\KernelInterface</title>
<path fill="none" stroke="black" stroke-dasharray="5,2" d="M2333.65,-132.29C2370.33,-130.56 2407.42,-128.82 2444.35,-127.08"/>
<polygon fill="none" stroke="black" points="2444.94,-130.56 2454.77,-126.6 2444.61,-123.57 2444.94,-130.56"/>
</g>
<!-- Bartlett\\CompatInfoDb\\Application\\Kernel\\MicroKernelInterface -->
<g id="node4" class="node">
<title>Bartlett\\CompatInfoDb\\Application\\Kernel\\MicroKernelInterface</title>
<polygon fill="#fefece" stroke="transparent" points="3363.5,-370 2679.5,-370 2679.5,-164 3363.5,-164 3363.5,-370"/>
<polygon fill="#eeeeee" stroke="transparent" points="2687.5,-332 2687.5,-366 3355.5,-366 3355.5,-332 2687.5,-332"/>
<polygon fill="none" stroke="black" points="2687.5,-332 2687.5,-366 3355.5,-366 3355.5,-332 2687.5,-332"/>
<text text-anchor="start" x="2976.5" y="-352.8" font-family="Times,serif" font-weight="bold" font-size="14.00">«interface»</text>
<text text-anchor="start" x="2935.5" y="-338.8" font-family="Times,serif" font-weight="bold" font-size="14.00">MicroKernelInterface</text>
<polygon fill="none" stroke="black" points="2687.5,-326 2687.5,-332 3355.5,-332 3355.5,-326 2687.5,-326"/>
<polygon fill="none" stroke="black" points="2687.5,-168 2687.5,-326 3355.5,-326 3355.5,-168 2687.5,-168"/>
<text text-anchor="start" x="2692.5" y="-309.8" font-family="Times,serif" font-size="14.00">+ «abstract» getEnvironment() : string</text>
<text text-anchor="start" x="2692.5" y="-290.8" font-family="Times,serif" font-size="14.00">+ «abstract» isDebug() : bool</text>
<text text-anchor="start" x="2692.5" y="-271.8" font-family="Times,serif" font-size="14.00">+ «abstract» getHomeDir() : string</text>
<text text-anchor="start" x="2692.5" y="-252.8" font-family="Times,serif" font-size="14.00">+ «abstract» getProjectDir() : string</text>
<text text-anchor="start" x="2692.5" y="-233.8" font-family="Times,serif" font-size="14.00">+ «abstract» getCacheDir() : string</text>
<text text-anchor="start" x="2692.5" y="-214.8" font-family="Times,serif" font-size="14.00">+ «abstract» getLogDir() : string</text>
<text text-anchor="start" x="2692.5" y="-195.8" font-family="Times,serif" font-size="14.00">+ «abstract» getContainer() : Symfony\Component\DependencyInjection\ContainerInterface</text>
<text text-anchor="start" x="2692.5" y="-176.8" font-family="Times,serif" font-size="14.00">+ «abstract» boot() : void</text>
</g>
<!-- Bartlett\\CompatInfoDb\\Application\\Kernel\\AbstractKernel&#45;&gt;Bartlett\\CompatInfoDb\\Application\\Kernel\\MicroKernelInterface -->
<g id="edge2" class="edge">
<title>Bartlett\\CompatInfoDb\\Application\\Kernel\\AbstractKernel&#45;&gt;Bartlett\\CompatInfoDb\\Application\\Kernel\\MicroKernelInterface</title>
<path fill="none" stroke="black" stroke-dasharray="5,2" d="M2333.65,-204.69C2447.03,-214.97 2564.24,-225.61 2669.04,-235.11"/>
<polygon fill="none" stroke="black" points="2668.87,-238.61 2679.14,-236.03 2669.5,-231.64 2668.87,-238.61"/>
</g>
<!-- Bartlett\\CompatInfoDb\\Application\\Kernel\\MicroKernelTrait -->
<g id="node6" class="node">
<title>Bartlett\\CompatInfoDb\\Application\\Kernel\\MicroKernelTrait</title>
<polygon fill="#fefece" stroke="transparent" points="889,-250 286,-250 286,-44 889,-44 889,-250"/>
<polygon fill="#eeeeee" stroke="transparent" points="294.5,-212 294.5,-246 881.5,-246 881.5,-212 294.5,-212"/>
<polygon fill="none" stroke="black" points="294.5,-212 294.5,-246 881.5,-246 881.5,-212 294.5,-212"/>
<text text-anchor="start" x="546" y="-232.8" font-family="Times,serif" font-weight="bold" font-size="14.00">«abstract»</text>
<text text-anchor="start" x="519" y="-218.8" font-family="Times,serif" font-weight="bold" font-size="14.00">MicroKernelTrait</text>
<polygon fill="none" stroke="black" points="294.5,-206 294.5,-212 881.5,-212 881.5,-206 294.5,-206"/>
<polygon fill="none" stroke="black" points="294.5,-48 294.5,-206 881.5,-206 881.5,-48 294.5,-48"/>
<text text-anchor="start" x="299.5" y="-189.8" font-family="Times,serif" font-size="14.00">+ getEnvironment() : string</text>
<text text-anchor="start" x="299.5" y="-170.8" font-family="Times,serif" font-size="14.00">+ isDebug() : bool</text>
<text text-anchor="start" x="299.5" y="-151.8" font-family="Times,serif" font-size="14.00">+ getHomeDir() : string</text>
<text text-anchor="start" x="299.5" y="-132.8" font-family="Times,serif" font-size="14.00">+ getProjectDir() : string</text>
<text text-anchor="start" x="299.5" y="-113.8" font-family="Times,serif" font-size="14.00">+ getCacheDir() : string</text>
<text text-anchor="start" x="299.5" y="-94.8" font-family="Times,serif" font-size="14.00">+ getLogDir() : string</text>
<text text-anchor="start" x="299.5" y="-75.8" font-family="Times,serif" font-size="14.00">+ getContainer() : Symfony\Component\DependencyInjection\ContainerInterface</text>
<text text-anchor="start" x="299.5" y="-56.8" font-family="Times,serif" font-size="14.00">+ boot() : void</text>
</g>
</g>
</svg>
