<?xml version="1.0" encoding="UTF-8" standalone="no"?>
<!DOCTYPE svg PUBLIC "-//W3C//DTD SVG 1.1//EN"
 "http://www.w3.org/Graphics/SVG/1.1/DTD/svg11.dtd">
<!-- Generated by graphviz version 2.43.0 (0)
 -->
<!-- Title: %3 Pages: 1 -->
<svg width="2599pt" height="1616pt"
 viewBox="0.00 0.00 2599.00 1616.00" xmlns="http://www.w3.org/2000/svg" xmlns:xlink="http://www.w3.org/1999/xlink">
<g id="graph0" class="graph" transform="scale(1 1) rotate(0) translate(4 1612)">
<title>%3</title>
<g id="clust1" class="cluster">
<title>cluster_0</title>
<polygon fill="#ffd39b" stroke="black" points="408.5,-1321 408.5,-1600 1372.5,-1600 1372.5,-1321 408.5,-1321"/>
<text text-anchor="middle" x="890.5" y="-1584.8" font-family="Times,serif" font-size="14.00">Bartlett\CompatInfoDb\Application\Command\Build</text>
</g>
<g id="clust2" class="cluster">
<title>cluster_1</title>
<polygon fill="#cdaa7d" stroke="black" points="1793,-680 1793,-937 2583,-937 2583,-680 1793,-680"/>
<text text-anchor="middle" x="2188" y="-921.8" font-family="Times,serif" font-size="14.00">Bartlett\CompatInfoDb\Application\Command</text>
</g>
<g id="clust3" class="cluster">
<title>cluster_2</title>
<polygon fill="#ffd39b" stroke="black" points="511.5,-1046 511.5,-1313 1269.5,-1313 1269.5,-1046 511.5,-1046"/>
<text text-anchor="middle" x="890.5" y="-1297.8" font-family="Times,serif" font-size="14.00">Bartlett\CompatInfoDb\Application\Command\Create</text>
</g>
<g id="clust4" class="cluster">
<title>cluster_3</title>
<polygon fill="#ffd39b" stroke="black" points="8,-658 8,-1038 1773,-1038 1773,-658 8,-658"/>
<text text-anchor="middle" x="890.5" y="-1022.8" font-family="Times,serif" font-size="14.00">Bartlett\CompatInfoDb\Application\Command\Init</text>
</g>
<g id="clust5" class="cluster">
<title>cluster_4</title>
<polygon fill="#ffd39b" stroke="black" points="312,-314 312,-650 1469,-650 1469,-314 312,-314"/>
<text text-anchor="middle" x="890.5" y="-634.8" font-family="Times,serif" font-size="14.00">Bartlett\CompatInfoDb\Application\Command\Polyfill</text>
</g>
<g id="clust6" class="cluster">
<title>cluster_5</title>
<polygon fill="#ffd39b" stroke="black" points="504,-8 504,-306 1277,-306 1277,-8 504,-8"/>
<text text-anchor="middle" x="890.5" y="-290.8" font-family="Times,serif" font-size="14.00">Bartlett\CompatInfoDb\Application\Command\Release</text>
</g>
<!-- Bartlett\\CompatInfoDb\\Application\\Command\\Build\\BuildCommand -->
<g id="node1" class="node">
<title>Bartlett\\CompatInfoDb\\Application\\Command\\Build\\BuildCommand</title>
<polygon fill="#fefece" stroke="transparent" points="1364.5,-1569.5 416.5,-1569.5 416.5,-1420.5 1364.5,-1420.5 1364.5,-1569.5"/>
<polygon fill="#eeeeee" stroke="transparent" points="424.5,-1531 424.5,-1565 1356.5,-1565 1356.5,-1531 424.5,-1531"/>
<polygon fill="none" stroke="black" points="424.5,-1531 424.5,-1565 1356.5,-1565 1356.5,-1531 424.5,-1531"/>
<text text-anchor="start" x="829" y="-1537.8" font-family="Times,serif" font-weight="bold" font-size="14.00">BuildCommand</text>
<polygon fill="none" stroke="black" points="424.5,-1525 424.5,-1531 1356.5,-1531 1356.5,-1525 424.5,-1525"/>
<polygon fill="none" stroke="black" points="424.5,-1424 424.5,-1525 1356.5,-1525 1356.5,-1424 424.5,-1424"/>
<text text-anchor="start" x="429.5" y="-1508.8" font-family="Times,serif" font-size="14.00">+ __construct(extension : string, extMin : string, phpMin : string, output : Symfony\Component\Console\Output\OutputInterface)</text>
<text text-anchor="start" x="429.5" y="-1489.8" font-family="Times,serif" font-size="14.00">+ getExtension() : string</text>
<text text-anchor="start" x="429.5" y="-1470.8" font-family="Times,serif" font-size="14.00">+ getExtMin() : string</text>
<text text-anchor="start" x="429.5" y="-1451.8" font-family="Times,serif" font-size="14.00">+ getPhpMin() : string</text>
<text text-anchor="start" x="429.5" y="-1432.8" font-family="Times,serif" font-size="14.00">+ getOutput() : Symfony\Component\Console\Output\OutputInterface</text>
</g>
<!-- Bartlett\\CompatInfoDb\\Application\\Command\\CommandInterface -->
<g id="node3" class="node">
<title>Bartlett\\CompatInfoDb\\Application\\Command\\CommandInterface</title>
<polygon fill="#fefece" stroke="transparent" points="2275.5,-906 2100.5,-906 2100.5,-852 2275.5,-852 2275.5,-906"/>
<polygon fill="#eeeeee" stroke="transparent" points="2109,-868 2109,-902 2268,-902 2268,-868 2109,-868"/>
<polygon fill="none" stroke="black" points="2109,-868 2109,-902 2268,-902 2268,-868 2109,-868"/>
<text text-anchor="start" x="2143.5" y="-888.8" font-family="Times,serif" font-weight="bold" font-size="14.00">«interface»</text>
<text text-anchor="start" x="2112" y="-874.8" font-family="Times,serif" font-weight="bold" font-size="14.00">CommandInterface</text>
<polygon fill="none" stroke="black" points="2109,-862 2109,-868 2268,-868 2268,-862 2109,-862"/>
<polygon fill="none" stroke="black" points="2109,-856 2109,-862 2268,-862 2268,-856 2109,-856"/>
</g>
<!-- Bartlett\\CompatInfoDb\\Application\\Command\\Build\\BuildCommand&#45;&gt;Bartlett\\CompatInfoDb\\Application\\Command\\CommandInterface -->
<g id="edge1" class="edge">
<title>Bartlett\\CompatInfoDb\\Application\\Command\\Build\\BuildCommand&#45;&gt;Bartlett\\CompatInfoDb\\Application\\Command\\CommandInterface</title>
<path fill="none" stroke="black" stroke-dasharray="5,2" d="M1364.66,-1519.96C1503.16,-1509.36 1650.22,-1479.42 1773,-1412 1986.7,-1294.66 2126.51,-1015.96 2171.37,-915.71"/>
<polygon fill="none" stroke="black" points="2174.69,-916.87 2175.54,-906.31 2168.29,-914.03 2174.69,-916.87"/>
</g>
<!-- Bartlett\\CompatInfoDb\\Application\\Command\\Build\\BuildHandler -->
<g id="node2" class="node">
<title>Bartlett\\CompatInfoDb\\Application\\Command\\Build\\BuildHandler</title>
<polygon fill="#fefece" stroke="transparent" points="1251,-1402.5 530,-1402.5 530,-1329.5 1251,-1329.5 1251,-1402.5"/>
<polygon fill="#eeeeee" stroke="transparent" points="538.5,-1364 538.5,-1398 1243.5,-1398 1243.5,-1364 538.5,-1364"/>
<polygon fill="none" stroke="black" points="538.5,-1364 538.5,-1398 1243.5,-1398 1243.5,-1364 538.5,-1364"/>
<text text-anchor="start" x="837" y="-1370.8" font-family="Times,serif" font-weight="bold" font-size="14.00">BuildHandler</text>
<polygon fill="none" stroke="black" points="538.5,-1358 538.5,-1364 1243.5,-1364 1243.5,-1358 538.5,-1358"/>
<polygon fill="none" stroke="black" points="538.5,-1333 538.5,-1358 1243.5,-1358 1243.5,-1333 538.5,-1333"/>
<text text-anchor="start" x="543.5" y="-1341.8" font-family="Times,serif" font-size="14.00">+ __invoke(command : Bartlett\CompatInfoDb\Application\Command\Build\BuildCommand) : void</text>
</g>
<!-- Bartlett\\CompatInfoDb\\Application\\Command\\CommandHandlerInterface -->
<g id="node4" class="node">
<title>Bartlett\\CompatInfoDb\\Application\\Command\\CommandHandlerInterface</title>
<polygon fill="#fefece" stroke="transparent" points="2307.5,-834 2068.5,-834 2068.5,-780 2307.5,-780 2307.5,-834"/>
<polygon fill="#eeeeee" stroke="transparent" points="2077,-796 2077,-830 2300,-830 2300,-796 2077,-796"/>
<polygon fill="none" stroke="black" points="2077,-796 2077,-830 2300,-830 2300,-796 2077,-796"/>
<text text-anchor="start" x="2143.5" y="-816.8" font-family="Times,serif" font-weight="bold" font-size="14.00">«interface»</text>
<text text-anchor="start" x="2080" y="-802.8" font-family="Times,serif" font-weight="bold" font-size="14.00">CommandHandlerInterface</text>
<polygon fill="none" stroke="black" points="2077,-790 2077,-796 2300,-796 2300,-790 2077,-790"/>
<polygon fill="none" stroke="black" points="2077,-784 2077,-790 2300,-790 2300,-784 2077,-784"/>
</g>
<!-- Bartlett\\CompatInfoDb\\Application\\Command\\Build\\BuildHandler&#45;&gt;Bartlett\\CompatInfoDb\\Application\\Command\\CommandHandlerInterface -->
<g id="edge2" class="edge">
<title>Bartlett\\CompatInfoDb\\Application\\Command\\Build\\BuildHandler&#45;&gt;Bartlett\\CompatInfoDb\\Application\\Command\\CommandHandlerInterface</title>
<path fill="none" stroke="black" stroke-dasharray="5,2" d="M1251.25,-1393C1462.07,-1400.13 1700.77,-1390.2 1773,-1317 1810.02,-1279.48 1756.65,-881.18 1793,-843 1859.25,-773.43 1970.71,-769.13 2058.21,-779.55"/>
<polygon fill="none" stroke="black" points="2057.85,-783.03 2068.21,-780.82 2058.73,-776.09 2057.85,-783.03"/>
</g>
<!-- Bartlett\\CompatInfoDb\\Application\\Command\\CommandBusInterface -->
<g id="node5" class="node">
<title>Bartlett\\CompatInfoDb\\Application\\Command\\CommandBusInterface</title>
<polygon fill="#fefece" stroke="transparent" points="2575,-761.5 1801,-761.5 1801,-688.5 2575,-688.5 2575,-761.5"/>
<polygon fill="#eeeeee" stroke="transparent" points="1809,-723 1809,-757 2567,-757 2567,-723 1809,-723"/>
<polygon fill="none" stroke="black" points="1809,-723 1809,-757 2567,-757 2567,-723 1809,-723"/>
<text text-anchor="start" x="2143" y="-743.8" font-family="Times,serif" font-weight="bold" font-size="14.00">«interface»</text>
<text text-anchor="start" x="2096" y="-729.8" font-family="Times,serif" font-weight="bold" font-size="14.00">CommandBusInterface</text>
<polygon fill="none" stroke="black" points="1809,-717 1809,-723 2567,-723 2567,-717 1809,-717"/>
<polygon fill="none" stroke="black" points="1809,-692 1809,-717 2567,-717 2567,-692 1809,-692"/>
<text text-anchor="start" x="1814" y="-700.8" font-family="Times,serif" font-size="14.00">+ «abstract» handle(command : Bartlett\CompatInfoDb\Application\Command\CommandInterface) : void</text>
</g>
<!-- Bartlett\\CompatInfoDb\\Application\\Command\\Create\\CreateCommand -->
<g id="node6" class="node">
<title>Bartlett\\CompatInfoDb\\Application\\Command\\Create\\CreateCommand</title>
<polygon fill="#fefece" stroke="transparent" points="1129,-1282 652,-1282 652,-1190 1129,-1190 1129,-1282"/>
<polygon fill="#eeeeee" stroke="transparent" points="660.5,-1244 660.5,-1278 1121.5,-1278 1121.5,-1244 660.5,-1244"/>
<polygon fill="none" stroke="black" points="660.5,-1244 660.5,-1278 1121.5,-1278 1121.5,-1244 660.5,-1244"/>
<text text-anchor="start" x="824.5" y="-1250.8" font-family="Times,serif" font-weight="bold" font-size="14.00">CreateCommand</text>
<polygon fill="none" stroke="black" points="660.5,-1238 660.5,-1244 1121.5,-1244 1121.5,-1238 660.5,-1238"/>
<polygon fill="none" stroke="black" points="660.5,-1194 660.5,-1238 1121.5,-1238 1121.5,-1194 660.5,-1194"/>
<text text-anchor="start" x="665.5" y="-1221.8" font-family="Times,serif" font-size="14.00">+ __construct(em : Doctrine\ORM\EntityManagerInterface)</text>
<text text-anchor="start" x="665.5" y="-1202.8" font-family="Times,serif" font-size="14.00">+ getEntityManager() : Doctrine\ORM\EntityManagerInterface</text>
</g>
<!-- Bartlett\\CompatInfoDb\\Application\\Command\\Create\\CreateCommand&#45;&gt;Bartlett\\CompatInfoDb\\Application\\Command\\CommandInterface -->
<g id="edge3" class="edge">
<title>Bartlett\\CompatInfoDb\\Application\\Command\\Create\\CreateCommand&#45;&gt;Bartlett\\CompatInfoDb\\Application\\Command\\CommandInterface</title>
<path fill="none" stroke="black" stroke-dasharray="5,2" d="M1129.36,-1256.6C1311.03,-1264.02 1564.76,-1256.13 1773,-1181 1934.97,-1122.56 2088.66,-979.87 2154.02,-913.72"/>
<polygon fill="none" stroke="black" points="2156.67,-916.02 2161.18,-906.43 2151.67,-911.11 2156.67,-916.02"/>
</g>
<!-- Bartlett\\CompatInfoDb\\Application\\Command\\Create\\CreateHandler -->
<g id="node7" class="node">
<title>Bartlett\\CompatInfoDb\\Application\\Command\\Create\\CreateHandler</title>
<polygon fill="#fefece" stroke="transparent" points="1261.5,-1171.5 519.5,-1171.5 519.5,-1054.5 1261.5,-1054.5 1261.5,-1171.5"/>
<polygon fill="#eeeeee" stroke="transparent" points="527.5,-1133 527.5,-1167 1253.5,-1167 1253.5,-1133 527.5,-1133"/>
<polygon fill="none" stroke="black" points="527.5,-1133 527.5,-1167 1253.5,-1167 1253.5,-1133 527.5,-1133"/>
<text text-anchor="start" x="831.5" y="-1139.8" font-family="Times,serif" font-weight="bold" font-size="14.00">CreateHandler</text>
<polygon fill="none" stroke="black" points="527.5,-1089 527.5,-1133 1253.5,-1133 1253.5,-1089 527.5,-1089"/>
<text text-anchor="start" x="532.5" y="-1116.8" font-family="Times,serif" font-size="14.00">+ «static» RETURN_CODE_DATABASE_ALREADY_EXISTS : int = 110 {readOnly}</text>
<text text-anchor="start" x="532.5" y="-1097.8" font-family="Times,serif" font-size="14.00">+ «static» RETURN_CODE_SCHEMA_TOOL_FAILURE : int = 500 {readOnly}</text>
<polygon fill="none" stroke="black" points="527.5,-1083 527.5,-1089 1253.5,-1089 1253.5,-1083 527.5,-1083"/>
<polygon fill="none" stroke="black" points="527.5,-1058 527.5,-1083 1253.5,-1083 1253.5,-1058 527.5,-1058"/>
<text text-anchor="start" x="532.5" y="-1066.8" font-family="Times,serif" font-size="14.00">+ __invoke(command : Bartlett\CompatInfoDb\Application\Command\Create\CreateCommand) : void</text>
</g>
<!-- Bartlett\\CompatInfoDb\\Application\\Command\\Create\\CreateHandler&#45;&gt;Bartlett\\CompatInfoDb\\Application\\Command\\CommandHandlerInterface -->
<g id="edge4" class="edge">
<title>Bartlett\\CompatInfoDb\\Application\\Command\\Create\\CreateHandler&#45;&gt;Bartlett\\CompatInfoDb\\Application\\Command\\CommandHandlerInterface</title>
<path fill="none" stroke="black" stroke-dasharray="5,2" d="M1261.55,-1129.1C1469.2,-1129.55 1700.74,-1112.84 1773,-1042 1804.74,-1010.89 1761.43,-874.28 1793,-843 1860.93,-775.68 1971.52,-770.94 2058.27,-780.62"/>
<polygon fill="none" stroke="black" points="2058.12,-784.13 2068.46,-781.84 2058.94,-777.18 2058.12,-784.13"/>
</g>
<!-- Bartlett\\CompatInfoDb\\Application\\Command\\Init\\InitCommand -->
<g id="node8" class="node">
<title>Bartlett\\CompatInfoDb\\Application\\Command\\Init\\InitCommand</title>
<polygon fill="#fefece" stroke="transparent" points="1345,-1007.5 436,-1007.5 436,-858.5 1345,-858.5 1345,-1007.5"/>
<polygon fill="#eeeeee" stroke="transparent" points="444.5,-969 444.5,-1003 1337.5,-1003 1337.5,-969 444.5,-969"/>
<polygon fill="none" stroke="black" points="444.5,-969 444.5,-1003 1337.5,-1003 1337.5,-969 444.5,-969"/>
<text text-anchor="start" x="836.5" y="-975.8" font-family="Times,serif" font-weight="bold" font-size="14.00">InitCommand</text>
<polygon fill="none" stroke="black" points="444.5,-963 444.5,-969 1337.5,-969 1337.5,-963 444.5,-963"/>
<polygon fill="none" stroke="black" points="444.5,-862 444.5,-963 1337.5,-963 1337.5,-862 444.5,-862"/>
<text text-anchor="start" x="449.5" y="-946.8" font-family="Times,serif" font-size="14.00">+ __construct(version : string, io : Bartlett\CompatInfoDb\Presentation\Console\StyleInterface, force : bool, progress : bool)</text>
<text text-anchor="start" x="449.5" y="-927.8" font-family="Times,serif" font-size="14.00">+ getAppVersion() : string</text>
<text text-anchor="start" x="449.5" y="-908.8" font-family="Times,serif" font-size="14.00">+ getStyle() : Bartlett\CompatInfoDb\Presentation\Console\StyleInterface</text>
<text text-anchor="start" x="449.5" y="-889.8" font-family="Times,serif" font-size="14.00">+ isForce() : bool</text>
<text text-anchor="start" x="449.5" y="-870.8" font-family="Times,serif" font-size="14.00">+ isProgress() : bool</text>
</g>
<!-- Bartlett\\CompatInfoDb\\Application\\Command\\Init\\InitCommand&#45;&gt;Bartlett\\CompatInfoDb\\Application\\Command\\CommandInterface -->
<g id="edge5" class="edge">
<title>Bartlett\\CompatInfoDb\\Application\\Command\\Init\\InitCommand&#45;&gt;Bartlett\\CompatInfoDb\\Application\\Command\\CommandInterface</title>
<path fill="none" stroke="black" stroke-dasharray="5,2" d="M1345.06,-914.09C1614.53,-902.86 1933.41,-889.57 2090.15,-883.04"/>
<polygon fill="none" stroke="black" points="2090.39,-886.53 2100.23,-882.62 2090.1,-879.54 2090.39,-886.53"/>
</g>
<!-- Bartlett\\CompatInfoDb\\Application\\Command\\Init\\InitHandler -->
<g id="node9" class="node">
<title>Bartlett\\CompatInfoDb\\Application\\Command\\Init\\InitHandler</title>
<polygon fill="#fefece" stroke="transparent" points="1765,-840 16,-840 16,-666 1765,-666 1765,-840"/>
<polygon fill="#eeeeee" stroke="transparent" points="24.5,-802 24.5,-836 1757.5,-836 1757.5,-802 24.5,-802"/>
<polygon fill="none" stroke="black" points="24.5,-802 24.5,-836 1757.5,-836 1757.5,-802 24.5,-802"/>
<text text-anchor="start" x="844" y="-808.8" font-family="Times,serif" font-weight="bold" font-size="14.00">InitHandler</text>
<polygon fill="none" stroke="black" points="24.5,-720 24.5,-802 1757.5,-802 1757.5,-720 24.5,-720"/>
<text text-anchor="start" x="29.5" y="-785.8" font-family="Times,serif" font-size="14.00">+ «static» RETURN_CODE_DISTRIBUTION_PLATFORM_EXISTS : int = 110 {readOnly}</text>
<text text-anchor="start" x="29.5" y="-766.8" font-family="Times,serif" font-size="14.00">+ «static» RETURN_CODE_DATABASE_READONLY : int = 120 {readOnly}</text>
<text text-anchor="start" x="29.5" y="-747.8" font-family="Times,serif" font-size="14.00">+ «static» PHP_RELEASES_7 : array = […] {readOnly}</text>
<text text-anchor="start" x="29.5" y="-728.8" font-family="Times,serif" font-size="14.00">+ «static» PHP_RELEASES_8 : array = […] {readOnly}</text>
<polygon fill="none" stroke="black" points="24.5,-714 24.5,-720 1757.5,-720 1757.5,-714 24.5,-714"/>
<polygon fill="none" stroke="black" points="24.5,-670 24.5,-714 1757.5,-714 1757.5,-670 24.5,-670"/>
<text text-anchor="start" x="29.5" y="-697.8" font-family="Times,serif" font-size="14.00">+ __construct(jsonFileHandler : Bartlett\CompatInfoDb\Application\Service\JsonFileHandler, distributionRepository : Bartlett\CompatInfoDb\Domain\Repository\DistributionRepository, entityManager : Doctrine\ORM\EntityManagerInterface)</text>
<text text-anchor="start" x="29.5" y="-678.8" font-family="Times,serif" font-size="14.00">+ __invoke(query : Bartlett\CompatInfoDb\Application\Command\Init\InitCommand) : void</text>
</g>
<!-- Bartlett\\CompatInfoDb\\Application\\Command\\Init\\InitHandler&#45;&gt;Bartlett\\CompatInfoDb\\Application\\Command\\CommandHandlerInterface -->
<g id="edge6" class="edge">
<title>Bartlett\\CompatInfoDb\\Application\\Command\\Init\\InitHandler&#45;&gt;Bartlett\\CompatInfoDb\\Application\\Command\\CommandHandlerInterface</title>
<path fill="none" stroke="black" stroke-dasharray="5,2" d="M1765.05,-789.41C1879.09,-794.17 1982.46,-798.47 2058.34,-801.64"/>
<polygon fill="none" stroke="black" points="2058.26,-805.14 2068.39,-802.06 2058.55,-798.14 2058.26,-805.14"/>
</g>
<!-- Bartlett\\CompatInfoDb\\Application\\Command\\Polyfill\\PolyfillCommand -->
<g id="node10" class="node">
<title>Bartlett\\CompatInfoDb\\Application\\Command\\Polyfill\\PolyfillCommand</title>
<polygon fill="#fefece" stroke="transparent" points="1461,-619.5 320,-619.5 320,-432.5 1461,-432.5 1461,-619.5"/>
<polygon fill="#eeeeee" stroke="transparent" points="328.5,-581 328.5,-615 1453.5,-615 1453.5,-581 328.5,-581"/>
<polygon fill="none" stroke="black" points="328.5,-581 328.5,-615 1453.5,-615 1453.5,-581 328.5,-581"/>
<text text-anchor="start" x="824" y="-587.8" font-family="Times,serif" font-weight="bold" font-size="14.00">PolyfillCommand</text>
<polygon fill="none" stroke="black" points="328.5,-575 328.5,-581 1453.5,-581 1453.5,-575 328.5,-575"/>
<polygon fill="none" stroke="black" points="328.5,-436 328.5,-575 1453.5,-575 1453.5,-436 328.5,-436"/>
<text text-anchor="start" x="333.5" y="-558.8" font-family="Times,serif" font-size="14.00">+ __construct(package : string, tag : string, php : array, io : Bartlett\CompatInfoDb\Presentation\Console\StyleInterface, cacheDir : string, whitelist : string)</text>
<text text-anchor="start" x="333.5" y="-539.8" font-family="Times,serif" font-size="14.00">+ getPackage() : string</text>
<text text-anchor="start" x="333.5" y="-520.8" font-family="Times,serif" font-size="14.00">+ getTag() : string</text>
<text text-anchor="start" x="333.5" y="-501.8" font-family="Times,serif" font-size="14.00">+ getPhp() : array</text>
<text text-anchor="start" x="333.5" y="-482.8" font-family="Times,serif" font-size="14.00">+ getStyle() : Bartlett\CompatInfoDb\Presentation\Console\StyleInterface</text>
<text text-anchor="start" x="333.5" y="-463.8" font-family="Times,serif" font-size="14.00">+ getCacheDir() : string</text>
<text text-anchor="start" x="333.5" y="-444.8" font-family="Times,serif" font-size="14.00">+ getWhitelist() : ?string</text>
</g>
<!-- Bartlett\\CompatInfoDb\\Application\\Command\\Polyfill\\PolyfillCommand&#45;&gt;Bartlett\\CompatInfoDb\\Application\\Command\\CommandInterface -->
<g id="edge7" class="edge">
<title>Bartlett\\CompatInfoDb\\Application\\Command\\Polyfill\\PolyfillCommand&#45;&gt;Bartlett\\CompatInfoDb\\Application\\Command\\CommandInterface</title>
<path fill="none" stroke="black" stroke-dasharray="5,2" d="M1461.22,-500.47C1578.17,-522.56 1690.58,-568.32 1773,-654 1802.28,-684.44 1762.92,-813.35 1793,-843 1869.85,-918.76 2000.77,-915.09 2090.45,-900.95"/>
<polygon fill="none" stroke="black" points="2091.06,-904.4 2100.35,-899.32 2089.92,-897.49 2091.06,-904.4"/>
</g>
<!-- Bartlett\\CompatInfoDb\\Application\\Command\\Polyfill\\PolyfillHandler -->
<g id="node11" class="node">
<title>Bartlett\\CompatInfoDb\\Application\\Command\\Polyfill\\PolyfillHandler</title>
<polygon fill="#fefece" stroke="transparent" points="1261.5,-414 519.5,-414 519.5,-322 1261.5,-322 1261.5,-414"/>
<polygon fill="#eeeeee" stroke="transparent" points="527.5,-376 527.5,-410 1253.5,-410 1253.5,-376 527.5,-376"/>
<polygon fill="none" stroke="black" points="527.5,-376 527.5,-410 1253.5,-410 1253.5,-376 527.5,-376"/>
<text text-anchor="start" x="831" y="-382.8" font-family="Times,serif" font-weight="bold" font-size="14.00">PolyfillHandler</text>
<polygon fill="none" stroke="black" points="527.5,-370 527.5,-376 1253.5,-376 1253.5,-370 527.5,-370"/>
<polygon fill="none" stroke="black" points="527.5,-326 527.5,-370 1253.5,-370 1253.5,-326 527.5,-326"/>
<text text-anchor="start" x="532.5" y="-353.8" font-family="Times,serif" font-size="14.00">+ __construct(jsonFileHandler : Bartlett\CompatInfoDb\Application\Service\JsonFileHandler)</text>
<text text-anchor="start" x="532.5" y="-334.8" font-family="Times,serif" font-size="14.00">+ __invoke(command : Bartlett\CompatInfoDb\Application\Command\Polyfill\PolyfillCommand) : void</text>
</g>
<!-- Bartlett\\CompatInfoDb\\Application\\Command\\Polyfill\\PolyfillHandler&#45;&gt;Bartlett\\CompatInfoDb\\Application\\Command\\CommandHandlerInterface -->
<g id="edge8" class="edge">
<title>Bartlett\\CompatInfoDb\\Application\\Command\\Polyfill\\PolyfillHandler&#45;&gt;Bartlett\\CompatInfoDb\\Application\\Command\\CommandHandlerInterface</title>
<path fill="none" stroke="black" stroke-dasharray="5,2" d="M1261.67,-344.16C1469.73,-339.59 1701.68,-352.26 1773,-424 1827.46,-478.78 1739.31,-715.48 1793,-771 1859.67,-839.94 1970.81,-844.39 2058.08,-834.19"/>
<polygon fill="none" stroke="black" points="2058.57,-837.65 2068.06,-832.95 2057.71,-830.71 2058.57,-837.65"/>
</g>
<!-- Bartlett\\CompatInfoDb\\Application\\Command\\Release\\ReleaseCommand -->
<g id="node12" class="node">
<title>Bartlett\\CompatInfoDb\\Application\\Command\\Release\\ReleaseCommand</title>
<polygon fill="#fefece" stroke="transparent" points="1178.5,-275.5 602.5,-275.5 602.5,-126.5 1178.5,-126.5 1178.5,-275.5"/>
<polygon fill="#eeeeee" stroke="transparent" points="610.5,-237 610.5,-271 1170.5,-271 1170.5,-237 610.5,-237"/>
<polygon fill="none" stroke="black" points="610.5,-237 610.5,-271 1170.5,-271 1170.5,-237 610.5,-237"/>
<text text-anchor="start" x="819.5" y="-243.8" font-family="Times,serif" font-weight="bold" font-size="14.00">ReleaseCommand</text>
<polygon fill="none" stroke="black" points="610.5,-231 610.5,-237 1170.5,-237 1170.5,-231 610.5,-231"/>
<polygon fill="none" stroke="black" points="610.5,-130 610.5,-231 1170.5,-231 1170.5,-130 610.5,-130"/>
<text text-anchor="start" x="615.5" y="-214.8" font-family="Times,serif" font-size="14.00">+ __construct(version : string, date : string, state : string, extension : string)</text>
<text text-anchor="start" x="615.5" y="-195.8" font-family="Times,serif" font-size="14.00">+ getVersion() : string</text>
<text text-anchor="start" x="615.5" y="-176.8" font-family="Times,serif" font-size="14.00">+ getDate() : string</text>
<text text-anchor="start" x="615.5" y="-157.8" font-family="Times,serif" font-size="14.00">+ getState() : string</text>
<text text-anchor="start" x="615.5" y="-138.8" font-family="Times,serif" font-size="14.00">+ getExtension() : string</text>
</g>
<!-- Bartlett\\CompatInfoDb\\Application\\Command\\Release\\ReleaseCommand&#45;&gt;Bartlett\\CompatInfoDb\\Application\\Command\\CommandInterface -->
<g id="edge9" class="edge">
<title>Bartlett\\CompatInfoDb\\Application\\Command\\Release\\ReleaseCommand&#45;&gt;Bartlett\\CompatInfoDb\\Application\\Command\\CommandInterface</title>
<path fill="none" stroke="black" stroke-dasharray="5,2" d="M1178.69,-150.05C1375.5,-133.16 1626.56,-150.46 1773,-310 1813.08,-353.66 1752.23,-799.99 1793,-843 1867.46,-921.57 1999.56,-917.04 2090.11,-901.96"/>
<polygon fill="none" stroke="black" points="2090.86,-905.38 2100.11,-900.22 2089.66,-898.48 2090.86,-905.38"/>
</g>
<!-- Bartlett\\CompatInfoDb\\Application\\Command\\Release\\ReleaseHandler -->
<g id="node13" class="node">
<title>Bartlett\\CompatInfoDb\\Application\\Command\\Release\\ReleaseHandler</title>
<polygon fill="#fefece" stroke="transparent" points="1269,-108 512,-108 512,-16 1269,-16 1269,-108"/>
<polygon fill="#eeeeee" stroke="transparent" points="520.5,-70 520.5,-104 1261.5,-104 1261.5,-70 520.5,-70"/>
<polygon fill="none" stroke="black" points="520.5,-70 520.5,-104 1261.5,-104 1261.5,-70 520.5,-70"/>
<text text-anchor="start" x="827.5" y="-76.8" font-family="Times,serif" font-weight="bold" font-size="14.00">ReleaseHandler</text>
<polygon fill="none" stroke="black" points="520.5,-64 520.5,-70 1261.5,-70 1261.5,-64 520.5,-64"/>
<polygon fill="none" stroke="black" points="520.5,-20 520.5,-64 1261.5,-64 1261.5,-20 520.5,-20"/>
<text text-anchor="start" x="525.5" y="-47.8" font-family="Times,serif" font-size="14.00">+ __construct(jsonFileHandler : Bartlett\CompatInfoDb\Application\Service\JsonFileHandler)</text>
<text text-anchor="start" x="525.5" y="-28.8" font-family="Times,serif" font-size="14.00">+ __invoke(command : Bartlett\CompatInfoDb\Application\Command\Release\ReleaseCommand) : void</text>
</g>
<!-- Bartlett\\CompatInfoDb\\Application\\Command\\Release\\ReleaseHandler&#45;&gt;Bartlett\\CompatInfoDb\\Application\\Command\\CommandHandlerInterface -->
<g id="edge10" class="edge">
<title>Bartlett\\CompatInfoDb\\Application\\Command\\Release\\ReleaseHandler&#45;&gt;Bartlett\\CompatInfoDb\\Application\\Command\\CommandHandlerInterface</title>
<path fill="none" stroke="black" stroke-dasharray="5,2" d="M1269.17,-37.34C1475.71,-32.95 1703.42,-46.1 1773,-118 1823.48,-170.16 1743.25,-718.14 1793,-771 1858.96,-841.07 1970.73,-845.23 2058.41,-834.63"/>
<polygon fill="none" stroke="black" points="2058.96,-838.09 2068.44,-833.34 2058.07,-831.15 2058.96,-838.09"/>
</g>
</g>
</svg>
