<?xml version="1.0" encoding="UTF-8" standalone="no"?>
<!DOCTYPE svg PUBLIC "-//W3C//DTD SVG 1.1//EN"
 "http://www.w3.org/Graphics/SVG/1.1/DTD/svg11.dtd">
<!-- Generated by graphviz version 2.43.0 (0)
 -->
<!-- Title: %3 Pages: 1 -->
<svg width="2011pt" height="571pt"
 viewBox="0.00 0.00 2011.00 571.00" xmlns="http://www.w3.org/2000/svg" xmlns:xlink="http://www.w3.org/1999/xlink">
<g id="graph0" class="graph" transform="scale(1 1) rotate(0) translate(4 567)">
<title>%3</title>
<g id="clust1" class="cluster">
<title>cluster_0</title>
<polygon fill="#7ac5cd" stroke="black" points="8,-8 8,-555 1995,-555 1995,-8 8,-8"/>
<text text-anchor="middle" x="1001.5" y="-539.8" font-family="Times,serif" font-size="14.00">Bartlett\CompatInfoDb\Domain\Factory</text>
</g>
<!-- Bartlett\\CompatInfoDb\\Domain\\Factory\\ExtensionFactory -->
<g id="node1" class="node">
<title>Bartlett\\CompatInfoDb\\Domain\\Factory\\ExtensionFactory</title>
<polygon fill="#fefece" stroke="transparent" points="769,-524 16,-524 16,-160 769,-160 769,-524"/>
<polygon fill="#eeeeee" stroke="transparent" points="24.5,-486 24.5,-520 761.5,-520 761.5,-486 24.5,-486"/>
<polygon fill="none" stroke="black" points="24.5,-486 24.5,-520 761.5,-520 761.5,-486 24.5,-486"/>
<text text-anchor="start" x="325" y="-492.8" font-family="Times,serif" font-weight="bold" font-size="14.00">ExtensionFactory</text>
<polygon fill="none" stroke="black" points="24.5,-214 24.5,-486 761.5,-486 761.5,-214 24.5,-214"/>
<text text-anchor="start" x="29.5" y="-469.8" font-family="Times,serif" font-size="14.00">+ «static» LATEST_PHP_5_2 : string = &quot;5\.2\.17&quot; {readOnly}</text>
<text text-anchor="start" x="29.5" y="-450.8" font-family="Times,serif" font-size="14.00">+ «static» LATEST_PHP_5_3 : string = &quot;5\.3\.29&quot; {readOnly}</text>
<text text-anchor="start" x="29.5" y="-431.8" font-family="Times,serif" font-size="14.00">+ «static» LATEST_PHP_5_4 : string = &quot;5\.4\.45&quot; {readOnly}</text>
<text text-anchor="start" x="29.5" y="-412.8" font-family="Times,serif" font-size="14.00">+ «static» LATEST_PHP_5_5 : string = &quot;5\.5\.38&quot; {readOnly}</text>
<text text-anchor="start" x="29.5" y="-393.8" font-family="Times,serif" font-size="14.00">+ «static» LATEST_PHP_5_6 : string = &quot;5\.6\.40&quot; {readOnly}</text>
<text text-anchor="start" x="29.5" y="-374.8" font-family="Times,serif" font-size="14.00">+ «static» LATEST_PHP_7_0 : string = &quot;7\.0\.33&quot; {readOnly}</text>
<text text-anchor="start" x="29.5" y="-355.8" font-family="Times,serif" font-size="14.00">+ «static» LATEST_PHP_7_1 : string = &quot;7\.1\.33&quot; {readOnly}</text>
<text text-anchor="start" x="29.5" y="-336.8" font-family="Times,serif" font-size="14.00">+ «static» LATEST_PHP_7_2 : string = &quot;7\.2\.34&quot; {readOnly}</text>
<text text-anchor="start" x="29.5" y="-317.8" font-family="Times,serif" font-size="14.00">+ «static» LATEST_PHP_7_3 : string = &quot;7\.3\.33&quot; {readOnly}</text>
<text text-anchor="start" x="29.5" y="-298.8" font-family="Times,serif" font-size="14.00">+ «static» LATEST_PHP_7_4 : string = &quot;7\.4\.33&quot; {readOnly}</text>
<text text-anchor="start" x="29.5" y="-279.8" font-family="Times,serif" font-size="14.00">+ «static» LATEST_PHP_8_0 : string = &quot;8\.0\.30&quot; {readOnly}</text>
<text text-anchor="start" x="29.5" y="-260.8" font-family="Times,serif" font-size="14.00">+ «static» LATEST_PHP_8_1 : string = &quot;8\.1\.26&quot; {readOnly}</text>
<text text-anchor="start" x="29.5" y="-241.8" font-family="Times,serif" font-size="14.00">+ «static» LATEST_PHP_8_2 : string = &quot;8\.2\.13&quot; {readOnly}</text>
<text text-anchor="start" x="29.5" y="-222.8" font-family="Times,serif" font-size="14.00">+ «static» LATEST_PHP_8_3 : string = &quot;8\.3\.0&quot; {readOnly}</text>
<polygon fill="none" stroke="black" points="24.5,-208 24.5,-214 761.5,-214 761.5,-208 24.5,-208"/>
<polygon fill="none" stroke="black" points="24.5,-164 24.5,-208 761.5,-208 761.5,-164 24.5,-164"/>
<text text-anchor="start" x="29.5" y="-191.8" font-family="Times,serif" font-size="14.00">+ __construct(extensionRepository : Bartlett\CompatInfoDb\Domain\Repository\ExtensionRepository)</text>
<text text-anchor="start" x="29.5" y="-172.8" font-family="Times,serif" font-size="14.00">+ create(name : string) : ?Bartlett\CompatInfoDb\Domain\ValueObject\Extension</text>
</g>
<!-- Bartlett\\CompatInfoDb\\Domain\\Factory\\ExtensionFactoryInterface -->
<g id="node2" class="node">
<title>Bartlett\\CompatInfoDb\\Domain\\Factory\\ExtensionFactoryInterface</title>
<polygon fill="#fefece" stroke="transparent" points="1489,-514.5 805,-514.5 805,-169.5 1489,-169.5 1489,-514.5"/>
<polygon fill="#eeeeee" stroke="transparent" points="813,-476 813,-510 1481,-510 1481,-476 813,-476"/>
<polygon fill="none" stroke="black" points="813,-476 813,-510 1481,-510 1481,-476 813,-476"/>
<text text-anchor="start" x="1102" y="-496.8" font-family="Times,serif" font-weight="bold" font-size="14.00">«interface»</text>
<text text-anchor="start" x="1042.5" y="-482.8" font-family="Times,serif" font-weight="bold" font-size="14.00">ExtensionFactoryInterface</text>
<polygon fill="none" stroke="black" points="813,-204 813,-476 1481,-476 1481,-204 813,-204"/>
<text text-anchor="start" x="818" y="-459.8" font-family="Times,serif" font-size="14.00">+ «static» LATEST_PHP_5_2 : string = &quot;5\.2\.17&quot; {readOnly}</text>
<text text-anchor="start" x="818" y="-440.8" font-family="Times,serif" font-size="14.00">+ «static» LATEST_PHP_5_3 : string = &quot;5\.3\.29&quot; {readOnly}</text>
<text text-anchor="start" x="818" y="-421.8" font-family="Times,serif" font-size="14.00">+ «static» LATEST_PHP_5_4 : string = &quot;5\.4\.45&quot; {readOnly}</text>
<text text-anchor="start" x="818" y="-402.8" font-family="Times,serif" font-size="14.00">+ «static» LATEST_PHP_5_5 : string = &quot;5\.5\.38&quot; {readOnly}</text>
<text text-anchor="start" x="818" y="-383.8" font-family="Times,serif" font-size="14.00">+ «static» LATEST_PHP_5_6 : string = &quot;5\.6\.40&quot; {readOnly}</text>
<text text-anchor="start" x="818" y="-364.8" font-family="Times,serif" font-size="14.00">+ «static» LATEST_PHP_7_0 : string = &quot;7\.0\.33&quot; {readOnly}</text>
<text text-anchor="start" x="818" y="-345.8" font-family="Times,serif" font-size="14.00">+ «static» LATEST_PHP_7_1 : string = &quot;7\.1\.33&quot; {readOnly}</text>
<text text-anchor="start" x="818" y="-326.8" font-family="Times,serif" font-size="14.00">+ «static» LATEST_PHP_7_2 : string = &quot;7\.2\.34&quot; {readOnly}</text>
<text text-anchor="start" x="818" y="-307.8" font-family="Times,serif" font-size="14.00">+ «static» LATEST_PHP_7_3 : string = &quot;7\.3\.33&quot; {readOnly}</text>
<text text-anchor="start" x="818" y="-288.8" font-family="Times,serif" font-size="14.00">+ «static» LATEST_PHP_7_4 : string = &quot;7\.4\.33&quot; {readOnly}</text>
<text text-anchor="start" x="818" y="-269.8" font-family="Times,serif" font-size="14.00">+ «static» LATEST_PHP_8_0 : string = &quot;8\.0\.30&quot; {readOnly}</text>
<text text-anchor="start" x="818" y="-250.8" font-family="Times,serif" font-size="14.00">+ «static» LATEST_PHP_8_1 : string = &quot;8\.1\.26&quot; {readOnly}</text>
<text text-anchor="start" x="818" y="-231.8" font-family="Times,serif" font-size="14.00">+ «static» LATEST_PHP_8_2 : string = &quot;8\.2\.13&quot; {readOnly}</text>
<text text-anchor="start" x="818" y="-212.8" font-family="Times,serif" font-size="14.00">+ «static» LATEST_PHP_8_3 : string = &quot;8\.3\.0&quot; {readOnly}</text>
<polygon fill="none" stroke="black" points="813,-198 813,-204 1481,-204 1481,-198 813,-198"/>
<polygon fill="none" stroke="black" points="813,-173 813,-198 1481,-198 1481,-173 813,-173"/>
<text text-anchor="start" x="818" y="-181.8" font-family="Times,serif" font-size="14.00">+ «abstract» create(name : string) : ?Bartlett\CompatInfoDb\Domain\ValueObject\Extension</text>
</g>
<!-- Bartlett\\CompatInfoDb\\Domain\\Factory\\ExtensionFactory&#45;&gt;Bartlett\\CompatInfoDb\\Domain\\Factory\\ExtensionFactoryInterface -->
<g id="edge2" class="edge">
<title>Bartlett\\CompatInfoDb\\Domain\\Factory\\ExtensionFactory&#45;&gt;Bartlett\\CompatInfoDb\\Domain\\Factory\\ExtensionFactoryInterface</title>
<path fill="none" stroke="black" stroke-dasharray="5,2" d="M769.2,-342C777.63,-342 786.06,-342 794.48,-342"/>
<polygon fill="none" stroke="black" points="794.74,-345.5 804.74,-342 794.74,-338.5 794.74,-345.5"/>
</g>
<!-- Bartlett\\CompatInfoDb\\Domain\\Factory\\ExtensionVersionProviderInterface -->
<g id="node3" class="node">
<title>Bartlett\\CompatInfoDb\\Domain\\Factory\\ExtensionVersionProviderInterface</title>
<polygon fill="#fefece" stroke="transparent" points="1987,-505 1525,-505 1525,-179 1987,-179 1987,-505"/>
<polygon fill="#eeeeee" stroke="transparent" points="1533,-467 1533,-501 1979,-501 1979,-467 1533,-467"/>
<polygon fill="none" stroke="black" points="1533,-467 1533,-501 1979,-501 1979,-467 1533,-467"/>
<text text-anchor="start" x="1711" y="-487.8" font-family="Times,serif" font-weight="bold" font-size="14.00">«interface»</text>
<text text-anchor="start" x="1617.5" y="-473.8" font-family="Times,serif" font-weight="bold" font-size="14.00">ExtensionVersionProviderInterface</text>
<polygon fill="none" stroke="black" points="1533,-195 1533,-467 1979,-467 1979,-195 1533,-195"/>
<text text-anchor="start" x="1538" y="-450.8" font-family="Times,serif" font-size="14.00">+ «static» LATEST_PHP_5_2 : string = &quot;5\.2\.17&quot; {readOnly}</text>
<text text-anchor="start" x="1538" y="-431.8" font-family="Times,serif" font-size="14.00">+ «static» LATEST_PHP_5_3 : string = &quot;5\.3\.29&quot; {readOnly}</text>
<text text-anchor="start" x="1538" y="-412.8" font-family="Times,serif" font-size="14.00">+ «static» LATEST_PHP_5_4 : string = &quot;5\.4\.45&quot; {readOnly}</text>
<text text-anchor="start" x="1538" y="-393.8" font-family="Times,serif" font-size="14.00">+ «static» LATEST_PHP_5_5 : string = &quot;5\.5\.38&quot; {readOnly}</text>
<text text-anchor="start" x="1538" y="-374.8" font-family="Times,serif" font-size="14.00">+ «static» LATEST_PHP_5_6 : string = &quot;5\.6\.40&quot; {readOnly}</text>
<text text-anchor="start" x="1538" y="-355.8" font-family="Times,serif" font-size="14.00">+ «static» LATEST_PHP_7_0 : string = &quot;7\.0\.33&quot; {readOnly}</text>
<text text-anchor="start" x="1538" y="-336.8" font-family="Times,serif" font-size="14.00">+ «static» LATEST_PHP_7_1 : string = &quot;7\.1\.33&quot; {readOnly}</text>
<text text-anchor="start" x="1538" y="-317.8" font-family="Times,serif" font-size="14.00">+ «static» LATEST_PHP_7_2 : string = &quot;7\.2\.34&quot; {readOnly}</text>
<text text-anchor="start" x="1538" y="-298.8" font-family="Times,serif" font-size="14.00">+ «static» LATEST_PHP_7_3 : string = &quot;7\.3\.33&quot; {readOnly}</text>
<text text-anchor="start" x="1538" y="-279.8" font-family="Times,serif" font-size="14.00">+ «static» LATEST_PHP_7_4 : string = &quot;7\.4\.33&quot; {readOnly}</text>
<text text-anchor="start" x="1538" y="-260.8" font-family="Times,serif" font-size="14.00">+ «static» LATEST_PHP_8_0 : string = &quot;8\.0\.30&quot; {readOnly}</text>
<text text-anchor="start" x="1538" y="-241.8" font-family="Times,serif" font-size="14.00">+ «static» LATEST_PHP_8_1 : string = &quot;8\.1\.26&quot; {readOnly}</text>
<text text-anchor="start" x="1538" y="-222.8" font-family="Times,serif" font-size="14.00">+ «static» LATEST_PHP_8_2 : string = &quot;8\.2\.13&quot; {readOnly}</text>
<text text-anchor="start" x="1538" y="-203.8" font-family="Times,serif" font-size="14.00">+ «static» LATEST_PHP_8_3 : string = &quot;8\.3\.0&quot; {readOnly}</text>
<polygon fill="none" stroke="black" points="1533,-189 1533,-195 1979,-195 1979,-189 1533,-189"/>
<polygon fill="none" stroke="black" points="1533,-183 1533,-189 1979,-189 1979,-183 1533,-183"/>
</g>
<!-- Bartlett\\CompatInfoDb\\Domain\\Factory\\ExtensionFactoryInterface&#45;&gt;Bartlett\\CompatInfoDb\\Domain\\Factory\\ExtensionVersionProviderInterface -->
<g id="edge1" class="edge">
<title>Bartlett\\CompatInfoDb\\Domain\\Factory\\ExtensionFactoryInterface&#45;&gt;Bartlett\\CompatInfoDb\\Domain\\Factory\\ExtensionVersionProviderInterface</title>
<path fill="none" stroke="black" stroke-dasharray="5,2" d="M1489.2,-342C1497.74,-342 1506.24,-342 1514.67,-342"/>
<polygon fill="none" stroke="black" points="1514.92,-345.5 1524.92,-342 1514.92,-338.5 1514.92,-345.5"/>
</g>
<!-- Bartlett\\CompatInfoDb\\Domain\\Factory\\ExtensionVersionProviderTrait -->
<g id="node4" class="node">
<title>Bartlett\\CompatInfoDb\\Domain\\Factory\\ExtensionVersionProviderTrait</title>
<polygon fill="#fefece" stroke="transparent" points="525,-142 260,-142 260,-88 525,-88 525,-142"/>
<polygon fill="#eeeeee" stroke="transparent" points="268.5,-104 268.5,-138 517.5,-138 517.5,-104 268.5,-104"/>
<polygon fill="none" stroke="black" points="268.5,-104 268.5,-138 517.5,-138 517.5,-104 268.5,-104"/>
<text text-anchor="start" x="271.5" y="-110.8" font-family="Times,serif" font-weight="bold" font-size="14.00">ExtensionVersionProviderTrait</text>
<polygon fill="none" stroke="black" points="268.5,-98 268.5,-104 517.5,-104 517.5,-98 268.5,-98"/>
<polygon fill="none" stroke="black" points="268.5,-92 268.5,-98 517.5,-98 517.5,-92 268.5,-92"/>
</g>
<!-- Bartlett\\CompatInfoDb\\Domain\\Factory\\LibraryVersionProviderTrait -->
<g id="node5" class="node">
<title>Bartlett\\CompatInfoDb\\Domain\\Factory\\LibraryVersionProviderTrait</title>
<polygon fill="#fefece" stroke="transparent" points="514.5,-70 270.5,-70 270.5,-16 514.5,-16 514.5,-70"/>
<polygon fill="#eeeeee" stroke="transparent" points="278.5,-32 278.5,-66 506.5,-66 506.5,-32 278.5,-32"/>
<polygon fill="none" stroke="black" points="278.5,-32 278.5,-66 506.5,-66 506.5,-32 278.5,-32"/>
<text text-anchor="start" x="281.5" y="-38.8" font-family="Times,serif" font-weight="bold" font-size="14.00">LibraryVersionProviderTrait</text>
<polygon fill="none" stroke="black" points="278.5,-26 278.5,-32 506.5,-32 506.5,-26 278.5,-26"/>
<polygon fill="none" stroke="black" points="278.5,-20 278.5,-26 506.5,-26 506.5,-20 278.5,-20"/>
</g>
</g>
</svg>
