<?xml version="1.0" encoding="UTF-8" standalone="no"?>
<!DOCTYPE svg PUBLIC "-//W3C//DTD SVG 1.1//EN"
 "http://www.w3.org/Graphics/SVG/1.1/DTD/svg11.dtd">
<!-- Generated by graphviz version 2.43.0 (0)
 -->
<!-- Title: %3 Pages: 1 -->
<svg width="1544pt" height="294pt"
 viewBox="0.00 0.00 1544.00 294.00" xmlns="http://www.w3.org/2000/svg" xmlns:xlink="http://www.w3.org/1999/xlink">
<g id="graph0" class="graph" transform="scale(1 1) rotate(0) translate(4 290)">
<title>%3</title>
<g id="clust1" class="cluster">
<title>cluster_0</title>
<polygon fill="#66cd00" stroke="black" points="8,-8 8,-139 718,-139 718,-8 8,-8"/>
<text text-anchor="middle" x="363" y="-123.8" font-family="Times,serif" font-size="14.00">Bartlett\CompatInfoDb\Infrastructure\Bus\Command</text>
</g>
<g id="clust2" class="cluster">
<title>cluster_1</title>
<polygon fill="transparent" stroke="black" points="738,-17 738,-130 1528,-130 1528,-17 738,-17"/>
<text text-anchor="middle" x="1133" y="-114.8" font-family="Times,serif" font-size="14.00">Bartlett\CompatInfoDb\Application\Command</text>
</g>
<g id="clust3" class="cluster">
<title>cluster_2</title>
<polygon fill="#66cd00" stroke="black" points="43,-147 43,-278 683,-278 683,-147 43,-147"/>
<text text-anchor="middle" x="363" y="-262.8" font-family="Times,serif" font-size="14.00">Bartlett\CompatInfoDb\Infrastructure\Bus\Query</text>
</g>
<g id="clust4" class="cluster">
<title>cluster_3</title>
<polygon fill="transparent" stroke="black" points="773,-156 773,-269 1493,-269 1493,-156 773,-156"/>
<text text-anchor="middle" x="1133" y="-253.8" font-family="Times,serif" font-size="14.00">Bartlett\CompatInfoDb\Application\Query</text>
</g>
<!-- Bartlett\\CompatInfoDb\\Infrastructure\\Bus\\Command\\MessengerCommandBus -->
<g id="node1" class="node">
<title>Bartlett\\CompatInfoDb\\Infrastructure\\Bus\\Command\\MessengerCommandBus</title>
<polygon fill="#fefece" stroke="transparent" points="710,-108 16,-108 16,-16 710,-16 710,-108"/>
<polygon fill="#eeeeee" stroke="transparent" points="24,-70 24,-104 702,-104 702,-70 24,-70"/>
<polygon fill="none" stroke="black" points="24,-70 24,-104 702,-104 702,-70 24,-70"/>
<text text-anchor="start" x="264" y="-76.8" font-family="Times,serif" font-weight="bold" font-size="14.00">MessengerCommandBus</text>
<polygon fill="none" stroke="black" points="24,-64 24,-70 702,-70 702,-64 24,-64"/>
<polygon fill="none" stroke="black" points="24,-20 24,-64 702,-64 702,-20 24,-20"/>
<text text-anchor="start" x="29" y="-47.8" font-family="Times,serif" font-size="14.00">+ __construct(commandBus : Symfony\Component\Messenger\MessageBusInterface)</text>
<text text-anchor="start" x="29" y="-28.8" font-family="Times,serif" font-size="14.00">+ handle(command : Bartlett\CompatInfoDb\Application\Command\CommandInterface) : void</text>
</g>
<!-- Bartlett\\CompatInfoDb\\Application\\Command\\CommandBusInterface -->
<g id="node2" class="node">
<title>Bartlett\\CompatInfoDb\\Application\\Command\\CommandBusInterface</title>
<polygon fill="#fefece" stroke="transparent" points="1520,-98.5 746,-98.5 746,-25.5 1520,-25.5 1520,-98.5"/>
<polygon fill="#eeeeee" stroke="transparent" points="754,-60 754,-94 1512,-94 1512,-60 754,-60"/>
<polygon fill="none" stroke="black" points="754,-60 754,-94 1512,-94 1512,-60 754,-60"/>
<text text-anchor="start" x="1088" y="-80.8" font-family="Times,serif" font-weight="bold" font-size="14.00">«interface»</text>
<text text-anchor="start" x="1041" y="-66.8" font-family="Times,serif" font-weight="bold" font-size="14.00">CommandBusInterface</text>
<polygon fill="none" stroke="black" points="754,-54 754,-60 1512,-60 1512,-54 754,-54"/>
<polygon fill="none" stroke="black" points="754,-29 754,-54 1512,-54 1512,-29 754,-29"/>
<text text-anchor="start" x="759" y="-37.8" font-family="Times,serif" font-size="14.00">+ «abstract» handle(command : Bartlett\CompatInfoDb\Application\Command\CommandInterface) : void</text>
</g>
<!-- Bartlett\\CompatInfoDb\\Infrastructure\\Bus\\Command\\MessengerCommandBus&#45;&gt;Bartlett\\CompatInfoDb\\Application\\Command\\CommandBusInterface -->
<g id="edge1" class="edge">
<title>Bartlett\\CompatInfoDb\\Infrastructure\\Bus\\Command\\MessengerCommandBus&#45;&gt;Bartlett\\CompatInfoDb\\Application\\Command\\CommandBusInterface</title>
<path fill="none" stroke="black" stroke-dasharray="5,2" d="M710.09,-62C718.6,-62 727.13,-62 735.67,-62"/>
<polygon fill="none" stroke="black" points="735.71,-65.5 745.71,-62 735.71,-58.5 735.71,-65.5"/>
</g>
<!-- Bartlett\\CompatInfoDb\\Infrastructure\\Bus\\Query\\MessengerQueryBus -->
<g id="node3" class="node">
<title>Bartlett\\CompatInfoDb\\Infrastructure\\Bus\\Query\\MessengerQueryBus</title>
<polygon fill="#fefece" stroke="transparent" points="675,-247 51,-247 51,-155 675,-155 675,-247"/>
<polygon fill="#eeeeee" stroke="transparent" points="59,-209 59,-243 667,-243 667,-209 59,-209"/>
<polygon fill="none" stroke="black" points="59,-209 59,-243 667,-243 667,-209 59,-209"/>
<text text-anchor="start" x="280" y="-215.8" font-family="Times,serif" font-weight="bold" font-size="14.00">MessengerQueryBus</text>
<polygon fill="none" stroke="black" points="59,-203 59,-209 667,-209 667,-203 59,-203"/>
<polygon fill="none" stroke="black" points="59,-159 59,-203 667,-203 667,-159 59,-159"/>
<text text-anchor="start" x="64" y="-186.8" font-family="Times,serif" font-size="14.00">+ __construct(queryBus : Symfony\Component\Messenger\MessageBusInterface)</text>
<text text-anchor="start" x="64" y="-167.8" font-family="Times,serif" font-size="14.00">+ query(query : Bartlett\CompatInfoDb\Application\Query\QueryInterface) : ?mixed</text>
</g>
<!-- Bartlett\\CompatInfoDb\\Application\\Query\\QueryBusInterface -->
<g id="node4" class="node">
<title>Bartlett\\CompatInfoDb\\Application\\Query\\QueryBusInterface</title>
<polygon fill="#fefece" stroke="transparent" points="1485,-237.5 781,-237.5 781,-164.5 1485,-164.5 1485,-237.5"/>
<polygon fill="#eeeeee" stroke="transparent" points="789,-199 789,-233 1477,-233 1477,-199 789,-199"/>
<polygon fill="none" stroke="black" points="789,-199 789,-233 1477,-233 1477,-199 789,-199"/>
<text text-anchor="start" x="1088" y="-219.8" font-family="Times,serif" font-weight="bold" font-size="14.00">«interface»</text>
<text text-anchor="start" x="1057.5" y="-205.8" font-family="Times,serif" font-weight="bold" font-size="14.00">QueryBusInterface</text>
<polygon fill="none" stroke="black" points="789,-193 789,-199 1477,-199 1477,-193 789,-193"/>
<polygon fill="none" stroke="black" points="789,-168 789,-193 1477,-193 1477,-168 789,-168"/>
<text text-anchor="start" x="794" y="-176.8" font-family="Times,serif" font-size="14.00">+ «abstract» query(query : Bartlett\CompatInfoDb\Application\Query\QueryInterface) : ?mixed</text>
</g>
<!-- Bartlett\\CompatInfoDb\\Infrastructure\\Bus\\Query\\MessengerQueryBus&#45;&gt;Bartlett\\CompatInfoDb\\Application\\Query\\QueryBusInterface -->
<g id="edge2" class="edge">
<title>Bartlett\\CompatInfoDb\\Infrastructure\\Bus\\Query\\MessengerQueryBus&#45;&gt;Bartlett\\CompatInfoDb\\Application\\Query\\QueryBusInterface</title>
<path fill="none" stroke="black" stroke-dasharray="5,2" d="M675.27,-201C706.6,-201 738.6,-201 770.39,-201"/>
<polygon fill="none" stroke="black" points="770.7,-204.5 780.7,-201 770.7,-197.5 770.7,-204.5"/>
</g>
</g>
</svg>
