<?xml version="1.0" encoding="UTF-8" standalone="no"?>
<!DOCTYPE svg PUBLIC "-//W3C//DTD SVG 1.1//EN"
 "http://www.w3.org/Graphics/SVG/1.1/DTD/svg11.dtd">
<!-- Generated by graphviz version 2.43.0 (0)
 -->
<!-- Title: %3 Pages: 1 -->
<svg width="585pt" height="155pt"
 viewBox="0.00 0.00 585.00 155.00" xmlns="http://www.w3.org/2000/svg" xmlns:xlink="http://www.w3.org/1999/xlink">
<g id="graph0" class="graph" transform="scale(1 1) rotate(0) translate(4 151)">
<title>%3</title>
<g id="clust1" class="cluster">
<title>cluster_0</title>
<polygon fill="#ffd39b" stroke="black" points="8,-8 8,-139 569,-139 569,-8 8,-8"/>
<text text-anchor="middle" x="288.5" y="-123.8" font-family="Times,serif" font-size="14.00">Bartlett\CompatInfoDb\Application\Configuration</text>
</g>
<!-- Bartlett\\CompatInfoDb\\Application\\Configuration\\ConfigResolver -->
<g id="node1" class="node">
<title>Bartlett\\CompatInfoDb\\Application\\Configuration\\ConfigResolver</title>
<polygon fill="#fefece" stroke="transparent" points="561,-108 16,-108 16,-16 561,-16 561,-108"/>
<polygon fill="#eeeeee" stroke="transparent" points="24.5,-70 24.5,-104 553.5,-104 553.5,-70 24.5,-70"/>
<polygon fill="none" stroke="black" points="24.5,-70 24.5,-104 553.5,-104 553.5,-70 24.5,-70"/>
<text text-anchor="start" x="229" y="-76.8" font-family="Times,serif" font-weight="bold" font-size="14.00">ConfigResolver</text>
<polygon fill="none" stroke="black" points="24.5,-64 24.5,-70 553.5,-70 553.5,-64 24.5,-64"/>
<polygon fill="none" stroke="black" points="24.5,-20 24.5,-64 553.5,-64 553.5,-20 24.5,-20"/>
<text text-anchor="start" x="29.5" y="-47.8" font-family="Times,serif" font-size="14.00">+ __construct(input : Symfony\Component\Console\Input\InputInterface)</text>
<text text-anchor="start" x="29.5" y="-28.8" font-family="Times,serif" font-size="14.00">+ provide() : array</text>
</g>
</g>
</svg>
