<?xml version="1.0" encoding="UTF-8" standalone="no"?>
<!DOCTYPE svg PUBLIC "-//W3C//DTD SVG 1.1//EN"
 "http://www.w3.org/Graphics/SVG/1.1/DTD/svg11.dtd">
<!-- Generated by graphviz version 2.43.0 (0)
 -->
<!-- Title: %3 Pages: 1 -->
<svg width="2156pt" height="1538pt"
 viewBox="0.00 0.00 2156.00 1538.00" xmlns="http://www.w3.org/2000/svg" xmlns:xlink="http://www.w3.org/1999/xlink">
<g id="graph0" class="graph" transform="scale(1 1) rotate(0) translate(4 1534)">
<title>%3</title>
<g id="clust1" class="cluster">
<title>cluster_0</title>
<polygon fill="#ffd39b" stroke="black" points="177,-1299 177,-1522 1296,-1522 1296,-1299 177,-1299"/>
<text text-anchor="middle" x="736.5" y="-1506.8" font-family="Times,serif" font-size="14.00">Bartlett\CompatInfoDb\Application\Query\Diagnose</text>
</g>
<g id="clust2" class="cluster">
<title>cluster_1</title>
<polygon fill="#cdaa7d" stroke="black" points="1485,-753 1485,-1010 2140,-1010 2140,-753 1485,-753"/>
<text text-anchor="middle" x="1812.5" y="-994.8" font-family="Times,serif" font-size="14.00">Bartlett\CompatInfoDb\Application\Query</text>
</g>
<g id="clust3" class="cluster">
<title>cluster_2</title>
<polygon fill="#ffd39b" stroke="black" points="314,-968 314,-1291 1159,-1291 1159,-968 314,-968"/>
<text text-anchor="middle" x="736.5" y="-1275.8" font-family="Times,serif" font-size="14.00">Bartlett\CompatInfoDb\Application\Query\Doctor</text>
</g>
<g id="clust4" class="cluster">
<title>cluster_3</title>
<polygon fill="#ffd39b" stroke="black" points="233.5,-8 233.5,-521 1239.5,-521 1239.5,-8 233.5,-8"/>
<text text-anchor="middle" x="736.5" y="-505.8" font-family="Times,serif" font-size="14.00">Bartlett\CompatInfoDb\Application\Query\ListRef</text>
</g>
<g id="clust5" class="cluster">
<title>cluster_4</title>
<polygon fill="#ffd39b" stroke="black" points="1573.5,-27 1573.5,-372 2051.5,-372 2051.5,-27 1573.5,-27"/>
<text text-anchor="middle" x="1812.5" y="-356.8" font-family="Times,serif" font-size="14.00">Bartlett\CompatInfoDb\Domain\Factory</text>
</g>
<g id="clust6" class="cluster">
<title>cluster_5</title>
<polygon fill="#ffd39b" stroke="black" points="8,-529 8,-960 1465,-960 1465,-529 8,-529"/>
<text text-anchor="middle" x="736.5" y="-944.8" font-family="Times,serif" font-size="14.00">Bartlett\CompatInfoDb\Application\Query\Show</text>
</g>
<!-- Bartlett\\CompatInfoDb\\Application\\Query\\Diagnose\\DiagnoseQuery -->
<g id="node1" class="node">
<title>Bartlett\\CompatInfoDb\\Application\\Query\\Diagnose\\DiagnoseQuery</title>
<polygon fill="#fefece" stroke="transparent" points="951,-1491 522,-1491 522,-1399 951,-1399 951,-1491"/>
<polygon fill="#eeeeee" stroke="transparent" points="530.5,-1453 530.5,-1487 943.5,-1487 943.5,-1453 530.5,-1453"/>
<polygon fill="none" stroke="black" points="530.5,-1453 530.5,-1487 943.5,-1487 943.5,-1453 530.5,-1453"/>
<text text-anchor="start" x="676.5" y="-1459.8" font-family="Times,serif" font-weight="bold" font-size="14.00">DiagnoseQuery</text>
<polygon fill="none" stroke="black" points="530.5,-1447 530.5,-1453 943.5,-1453 943.5,-1447 530.5,-1447"/>
<polygon fill="none" stroke="black" points="530.5,-1403 530.5,-1447 943.5,-1447 943.5,-1403 530.5,-1403"/>
<text text-anchor="start" x="535.5" y="-1430.8" font-family="Times,serif" font-size="14.00">+ __construct(connection : Doctrine\DBAL\Connection)</text>
<text text-anchor="start" x="535.5" y="-1411.8" font-family="Times,serif" font-size="14.00">+ getDatabaseConnection() : Doctrine\DBAL\Connection</text>
</g>
<!-- Bartlett\\CompatInfoDb\\Application\\Query\\QueryInterface -->
<g id="node3" class="node">
<title>Bartlett\\CompatInfoDb\\Application\\Query\\QueryInterface</title>
<polygon fill="#fefece" stroke="transparent" points="1884,-979 1741,-979 1741,-925 1884,-925 1884,-979"/>
<polygon fill="#eeeeee" stroke="transparent" points="1749.5,-941 1749.5,-975 1876.5,-975 1876.5,-941 1749.5,-941"/>
<polygon fill="none" stroke="black" points="1749.5,-941 1749.5,-975 1876.5,-975 1876.5,-941 1749.5,-941"/>
<text text-anchor="start" x="1768" y="-961.8" font-family="Times,serif" font-weight="bold" font-size="14.00">«interface»</text>
<text text-anchor="start" x="1752.5" y="-947.8" font-family="Times,serif" font-weight="bold" font-size="14.00">QueryInterface</text>
<polygon fill="none" stroke="black" points="1749.5,-935 1749.5,-941 1876.5,-941 1876.5,-935 1749.5,-935"/>
<polygon fill="none" stroke="black" points="1749.5,-929 1749.5,-935 1876.5,-935 1876.5,-929 1749.5,-929"/>
</g>
<!-- Bartlett\\CompatInfoDb\\Application\\Query\\Diagnose\\DiagnoseQuery&#45;&gt;Bartlett\\CompatInfoDb\\Application\\Query\\QueryInterface -->
<g id="edge1" class="edge">
<title>Bartlett\\CompatInfoDb\\Application\\Query\\Diagnose\\DiagnoseQuery&#45;&gt;Bartlett\\CompatInfoDb\\Application\\Query\\QueryInterface</title>
<path fill="none" stroke="black" stroke-dasharray="5,2" d="M951.36,-1472.46C1103.34,-1481.96 1307.57,-1473.66 1465,-1390 1638.92,-1297.57 1755,-1076.05 1795.52,-988.5"/>
<polygon fill="none" stroke="black" points="1798.79,-989.78 1799.76,-979.23 1792.42,-986.87 1798.79,-989.78"/>
</g>
<!-- Bartlett\\CompatInfoDb\\Application\\Query\\Diagnose\\DiagnoseHandler -->
<g id="node2" class="node">
<title>Bartlett\\CompatInfoDb\\Application\\Query\\Diagnose\\DiagnoseHandler</title>
<polygon fill="#fefece" stroke="transparent" points="1288,-1380.5 185,-1380.5 185,-1307.5 1288,-1307.5 1288,-1380.5"/>
<polygon fill="#eeeeee" stroke="transparent" points="193.5,-1342 193.5,-1376 1280.5,-1376 1280.5,-1342 193.5,-1342"/>
<polygon fill="none" stroke="black" points="193.5,-1342 193.5,-1376 1280.5,-1376 1280.5,-1342 193.5,-1342"/>
<text text-anchor="start" x="668" y="-1348.8" font-family="Times,serif" font-weight="bold" font-size="14.00">DiagnoseHandler</text>
<polygon fill="none" stroke="black" points="193.5,-1336 193.5,-1342 1280.5,-1342 1280.5,-1336 193.5,-1336"/>
<polygon fill="none" stroke="black" points="193.5,-1311 193.5,-1336 1280.5,-1336 1280.5,-1311 193.5,-1311"/>
<text text-anchor="start" x="198.5" y="-1319.8" font-family="Times,serif" font-size="14.00">+ __invoke(query : Bartlett\CompatInfoDb\Application\Query\Diagnose\DiagnoseQuery) : Bartlett\CompatInfoDb\Infrastructure\RequirementsInterface</text>
</g>
<!-- Bartlett\\CompatInfoDb\\Application\\Query\\QueryHandlerInterface -->
<g id="node4" class="node">
<title>Bartlett\\CompatInfoDb\\Application\\Query\\QueryHandlerInterface</title>
<polygon fill="#fefece" stroke="transparent" points="1916,-907 1709,-907 1709,-853 1916,-853 1916,-907"/>
<polygon fill="#eeeeee" stroke="transparent" points="1717.5,-869 1717.5,-903 1908.5,-903 1908.5,-869 1717.5,-869"/>
<polygon fill="none" stroke="black" points="1717.5,-869 1717.5,-903 1908.5,-903 1908.5,-869 1717.5,-869"/>
<text text-anchor="start" x="1768" y="-889.8" font-family="Times,serif" font-weight="bold" font-size="14.00">«interface»</text>
<text text-anchor="start" x="1720.5" y="-875.8" font-family="Times,serif" font-weight="bold" font-size="14.00">QueryHandlerInterface</text>
<polygon fill="none" stroke="black" points="1717.5,-863 1717.5,-869 1908.5,-869 1908.5,-863 1717.5,-863"/>
<polygon fill="none" stroke="black" points="1717.5,-857 1717.5,-863 1908.5,-863 1908.5,-857 1717.5,-857"/>
</g>
<!-- Bartlett\\CompatInfoDb\\Application\\Query\\Diagnose\\DiagnoseHandler&#45;&gt;Bartlett\\CompatInfoDb\\Application\\Query\\QueryHandlerInterface -->
<g id="edge2" class="edge">
<title>Bartlett\\CompatInfoDb\\Application\\Query\\Diagnose\\DiagnoseHandler&#45;&gt;Bartlett\\CompatInfoDb\\Application\\Query\\QueryHandlerInterface</title>
<path fill="none" stroke="black" stroke-dasharray="5,2" d="M1288.08,-1353.29C1368.57,-1343.68 1434.62,-1325.82 1465,-1295 1524.2,-1234.93 1427.09,-977.31 1485,-916 1538.29,-859.57 1627.2,-852.97 1698.79,-859.16"/>
<polygon fill="none" stroke="black" points="1698.49,-862.65 1708.78,-860.12 1699.15,-855.68 1698.49,-862.65"/>
</g>
<!-- Bartlett\\CompatInfoDb\\Application\\Query\\QueryBusInterface -->
<g id="node5" class="node">
<title>Bartlett\\CompatInfoDb\\Application\\Query\\QueryBusInterface</title>
<polygon fill="#fefece" stroke="transparent" points="2132,-834.5 1493,-834.5 1493,-761.5 2132,-761.5 2132,-834.5"/>
<polygon fill="#eeeeee" stroke="transparent" points="1501.5,-796 1501.5,-830 2124.5,-830 2124.5,-796 1501.5,-796"/>
<polygon fill="none" stroke="black" points="1501.5,-796 1501.5,-830 2124.5,-830 2124.5,-796 1501.5,-796"/>
<text text-anchor="start" x="1768" y="-816.8" font-family="Times,serif" font-weight="bold" font-size="14.00">«interface»</text>
<text text-anchor="start" x="1737.5" y="-802.8" font-family="Times,serif" font-weight="bold" font-size="14.00">QueryBusInterface</text>
<polygon fill="none" stroke="black" points="1501.5,-790 1501.5,-796 2124.5,-796 2124.5,-790 1501.5,-790"/>
<polygon fill="none" stroke="black" points="1501.5,-765 1501.5,-790 2124.5,-790 2124.5,-765 1501.5,-765"/>
<text text-anchor="start" x="1506.5" y="-773.8" font-family="Times,serif" font-size="14.00">+ «abstract» query(query : Bartlett\CompatInfoDb\Application\Query\QueryInterface)</text>
</g>
<!-- Bartlett\\CompatInfoDb\\Application\\Query\\Doctor\\DoctorQuery -->
<g id="node6" class="node">
<title>Bartlett\\CompatInfoDb\\Application\\Query\\Doctor\\DoctorQuery</title>
<polygon fill="#fefece" stroke="transparent" points="1151,-1260 322,-1260 322,-1130 1151,-1130 1151,-1260"/>
<polygon fill="#eeeeee" stroke="transparent" points="330.5,-1222 330.5,-1256 1143.5,-1256 1143.5,-1222 330.5,-1222"/>
<polygon fill="none" stroke="black" points="330.5,-1222 330.5,-1256 1143.5,-1256 1143.5,-1222 330.5,-1222"/>
<text text-anchor="start" x="687" y="-1228.8" font-family="Times,serif" font-weight="bold" font-size="14.00">DoctorQuery</text>
<polygon fill="none" stroke="black" points="330.5,-1216 330.5,-1222 1143.5,-1222 1143.5,-1216 330.5,-1216"/>
<polygon fill="none" stroke="black" points="330.5,-1134 330.5,-1216 1143.5,-1216 1143.5,-1134 330.5,-1134"/>
<text text-anchor="start" x="335.5" y="-1199.8" font-family="Times,serif" font-size="14.00">+ __construct(platform : Bartlett\CompatInfoDb\Domain\ValueObject\Platform, withTests : bool, version : string)</text>
<text text-anchor="start" x="335.5" y="-1180.8" font-family="Times,serif" font-size="14.00">+ getExtensions() : array</text>
<text text-anchor="start" x="335.5" y="-1161.8" font-family="Times,serif" font-size="14.00">+ withTests() : bool</text>
<text text-anchor="start" x="335.5" y="-1142.8" font-family="Times,serif" font-size="14.00">+ getVersion() : string</text>
</g>
<!-- Bartlett\\CompatInfoDb\\Application\\Query\\Doctor\\DoctorQuery&#45;&gt;Bartlett\\CompatInfoDb\\Application\\Query\\QueryInterface -->
<g id="edge3" class="edge">
<title>Bartlett\\CompatInfoDb\\Application\\Query\\Doctor\\DoctorQuery&#45;&gt;Bartlett\\CompatInfoDb\\Application\\Query\\QueryInterface</title>
<path fill="none" stroke="black" stroke-dasharray="5,2" d="M1151.09,-1178.35C1254.94,-1167.26 1365.19,-1149.44 1465,-1121 1575.66,-1089.47 1693.95,-1024.07 1759.72,-984.52"/>
<polygon fill="none" stroke="black" points="1761.91,-987.28 1768.65,-979.11 1758.28,-981.3 1761.91,-987.28"/>
</g>
<!-- Bartlett\\CompatInfoDb\\Application\\Query\\Doctor\\DoctorHandler -->
<g id="node7" class="node">
<title>Bartlett\\CompatInfoDb\\Application\\Query\\Doctor\\DoctorHandler</title>
<polygon fill="#fefece" stroke="transparent" points="1110,-1112 363,-1112 363,-976 1110,-976 1110,-1112"/>
<polygon fill="#eeeeee" stroke="transparent" points="371.5,-1074 371.5,-1108 1102.5,-1108 1102.5,-1074 371.5,-1074"/>
<polygon fill="none" stroke="black" points="371.5,-1074 371.5,-1108 1102.5,-1108 1102.5,-1074 371.5,-1074"/>
<text text-anchor="start" x="678" y="-1080.8" font-family="Times,serif" font-weight="bold" font-size="14.00">DoctorHandler</text>
<polygon fill="none" stroke="black" points="371.5,-1030 371.5,-1074 1102.5,-1074 1102.5,-1030 371.5,-1030"/>
<text text-anchor="start" x="376.5" y="-1057.8" font-family="Times,serif" font-size="14.00">+ «static» CONSTRAINT_SKIPPED : string = &quot;skipped&quot; {readOnly}</text>
<text text-anchor="start" x="376.5" y="-1038.8" font-family="Times,serif" font-size="14.00">+ «static» CONSTRAINT_PASSED : string = &quot;passed&quot; {readOnly}</text>
<polygon fill="none" stroke="black" points="371.5,-1024 371.5,-1030 1102.5,-1030 1102.5,-1024 371.5,-1024"/>
<polygon fill="none" stroke="black" points="371.5,-980 371.5,-1024 1102.5,-1024 1102.5,-980 371.5,-980"/>
<text text-anchor="start" x="376.5" y="-1007.8" font-family="Times,serif" font-size="14.00">+ __construct(extensionFactory : Bartlett\CompatInfoDb\Domain\Factory\ExtensionFactoryInterface)</text>
<text text-anchor="start" x="376.5" y="-988.8" font-family="Times,serif" font-size="14.00">+ __invoke(query : Bartlett\CompatInfoDb\Application\Query\Doctor\DoctorQuery) : array</text>
</g>
<!-- Bartlett\\CompatInfoDb\\Application\\Query\\Doctor\\DoctorHandler&#45;&gt;Bartlett\\CompatInfoDb\\Application\\Query\\QueryHandlerInterface -->
<g id="edge4" class="edge">
<title>Bartlett\\CompatInfoDb\\Application\\Query\\Doctor\\DoctorHandler&#45;&gt;Bartlett\\CompatInfoDb\\Application\\Query\\QueryHandlerInterface</title>
<path fill="none" stroke="black" stroke-dasharray="5,2" d="M1110.08,-1075.66C1233.36,-1068.3 1364.56,-1039.21 1465,-964 1483.5,-950.15 1466.5,-929.86 1485,-916 1545.34,-870.8 1630.45,-862.68 1698.64,-865.4"/>
<polygon fill="none" stroke="black" points="1698.84,-868.92 1709,-865.91 1699.18,-861.93 1698.84,-868.92"/>
</g>
<!-- Bartlett\\CompatInfoDb\\Application\\Query\\ListRef\\ListQuery -->
<g id="node8" class="node">
<title>Bartlett\\CompatInfoDb\\Application\\Query\\ListRef\\ListQuery</title>
<polygon fill="#fefece" stroke="transparent" points="939,-489.5 534,-489.5 534,-378.5 939,-378.5 939,-489.5"/>
<polygon fill="#eeeeee" stroke="transparent" points="542.5,-451 542.5,-485 931.5,-485 931.5,-451 542.5,-451"/>
<polygon fill="none" stroke="black" points="542.5,-451 542.5,-485 931.5,-485 931.5,-451 542.5,-451"/>
<text text-anchor="start" x="698" y="-457.8" font-family="Times,serif" font-weight="bold" font-size="14.00">ListQuery</text>
<polygon fill="none" stroke="black" points="542.5,-445 542.5,-451 931.5,-451 931.5,-445 542.5,-445"/>
<polygon fill="none" stroke="black" points="542.5,-382 542.5,-445 931.5,-445 931.5,-382 542.5,-382"/>
<text text-anchor="start" x="547.5" y="-428.8" font-family="Times,serif" font-size="14.00">+ __construct(appVersion : string, filters : array = [])</text>
<text text-anchor="start" x="547.5" y="-409.8" font-family="Times,serif" font-size="14.00">+ getAppVersion() : string</text>
<text text-anchor="start" x="547.5" y="-390.8" font-family="Times,serif" font-size="14.00">+ getFilters() : array</text>
</g>
<!-- Bartlett\\CompatInfoDb\\Application\\Query\\ListRef\\ListQuery&#45;&gt;Bartlett\\CompatInfoDb\\Application\\Query\\QueryInterface -->
<g id="edge5" class="edge">
<title>Bartlett\\CompatInfoDb\\Application\\Query\\ListRef\\ListQuery&#45;&gt;Bartlett\\CompatInfoDb\\Application\\Query\\QueryInterface</title>
<path fill="none" stroke="black" stroke-dasharray="5,2" d="M939.06,-396.22C1105.33,-377.86 1334.38,-384.43 1465,-525 1524.22,-588.73 1425.31,-852.7 1485,-916 1546.59,-981.32 1655.91,-979.91 1730.96,-969.15"/>
<polygon fill="none" stroke="black" points="1731.49,-972.61 1740.85,-967.65 1730.44,-965.69 1731.49,-972.61"/>
</g>
<!-- Bartlett\\CompatInfoDb\\Application\\Query\\ListRef\\ListHandler -->
<g id="node9" class="node">
<title>Bartlett\\CompatInfoDb\\Application\\Query\\ListRef\\ListHandler</title>
<polygon fill="#fefece" stroke="transparent" points="1231.5,-360.5 241.5,-360.5 241.5,-15.5 1231.5,-15.5 1231.5,-360.5"/>
<polygon fill="#eeeeee" stroke="transparent" points="249.5,-322 249.5,-356 1223.5,-356 1223.5,-322 249.5,-322"/>
<polygon fill="none" stroke="black" points="249.5,-322 249.5,-356 1223.5,-356 1223.5,-322 249.5,-322"/>
<text text-anchor="start" x="689" y="-328.8" font-family="Times,serif" font-weight="bold" font-size="14.00">ListHandler</text>
<polygon fill="none" stroke="black" points="249.5,-69 249.5,-322 1223.5,-322 1223.5,-69 249.5,-69"/>
<text text-anchor="start" x="254.5" y="-305.8" font-family="Times,serif" font-size="14.00">+ «static» LATEST_PHP_5_2 : string = &quot;5\.2\.17&quot; {readOnly}</text>
<text text-anchor="start" x="254.5" y="-286.8" font-family="Times,serif" font-size="14.00">+ «static» LATEST_PHP_5_3 : string = &quot;5\.3\.29&quot; {readOnly}</text>
<text text-anchor="start" x="254.5" y="-267.8" font-family="Times,serif" font-size="14.00">+ «static» LATEST_PHP_5_4 : string = &quot;5\.4\.45&quot; {readOnly}</text>
<text text-anchor="start" x="254.5" y="-248.8" font-family="Times,serif" font-size="14.00">+ «static» LATEST_PHP_5_5 : string = &quot;5\.5\.38&quot; {readOnly}</text>
<text text-anchor="start" x="254.5" y="-229.8" font-family="Times,serif" font-size="14.00">+ «static» LATEST_PHP_5_6 : string = &quot;5\.6\.40&quot; {readOnly}</text>
<text text-anchor="start" x="254.5" y="-210.8" font-family="Times,serif" font-size="14.00">+ «static» LATEST_PHP_7_0 : string = &quot;7\.0\.33&quot; {readOnly}</text>
<text text-anchor="start" x="254.5" y="-191.8" font-family="Times,serif" font-size="14.00">+ «static» LATEST_PHP_7_1 : string = &quot;7\.1\.33&quot; {readOnly}</text>
<text text-anchor="start" x="254.5" y="-172.8" font-family="Times,serif" font-size="14.00">+ «static» LATEST_PHP_7_2 : string = &quot;7\.2\.34&quot; {readOnly}</text>
<text text-anchor="start" x="254.5" y="-153.8" font-family="Times,serif" font-size="14.00">+ «static» LATEST_PHP_7_3 : string = &quot;7\.3\.33&quot; {readOnly}</text>
<text text-anchor="start" x="254.5" y="-134.8" font-family="Times,serif" font-size="14.00">+ «static» LATEST_PHP_7_4 : string = &quot;7\.4\.33&quot; {readOnly}</text>
<text text-anchor="start" x="254.5" y="-115.8" font-family="Times,serif" font-size="14.00">+ «static» LATEST_PHP_8_0 : string = &quot;8\.0\.28&quot; {readOnly}</text>
<text text-anchor="start" x="254.5" y="-96.8" font-family="Times,serif" font-size="14.00">+ «static» LATEST_PHP_8_1 : string = &quot;8\.1\.18&quot; {readOnly}</text>
<text text-anchor="start" x="254.5" y="-77.8" font-family="Times,serif" font-size="14.00">+ «static» LATEST_PHP_8_2 : string = &quot;8\.2\.5&quot; {readOnly}</text>
<polygon fill="none" stroke="black" points="249.5,-63 249.5,-69 1223.5,-69 1223.5,-63 249.5,-63"/>
<polygon fill="none" stroke="black" points="249.5,-19 249.5,-63 1223.5,-63 1223.5,-19 249.5,-19"/>
<text text-anchor="start" x="254.5" y="-46.8" font-family="Times,serif" font-size="14.00">+ __construct(distributionRepository : Bartlett\CompatInfoDb\Domain\Repository\DistributionRepository)</text>
<text text-anchor="start" x="254.5" y="-27.8" font-family="Times,serif" font-size="14.00">+ __invoke(query : Bartlett\CompatInfoDb\Application\Query\ListRef\ListQuery) : Bartlett\CompatInfoDb\Domain\ValueObject\Platform</text>
</g>
<!-- Bartlett\\CompatInfoDb\\Application\\Query\\ListRef\\ListHandler&#45;&gt;Bartlett\\CompatInfoDb\\Application\\Query\\QueryHandlerInterface -->
<g id="edge6" class="edge">
<title>Bartlett\\CompatInfoDb\\Application\\Query\\ListRef\\ListHandler&#45;&gt;Bartlett\\CompatInfoDb\\Application\\Query\\QueryHandlerInterface</title>
<path fill="none" stroke="black" stroke-dasharray="5,2" d="M1231.5,-221.14C1321.41,-249.84 1405.44,-296.02 1465,-369 1498.4,-409.92 1448.93,-805.4 1485,-844 1538.08,-900.81 1627.23,-907.32 1698.97,-900.99"/>
<polygon fill="none" stroke="black" points="1699.36,-904.47 1708.98,-900.02 1698.68,-897.5 1699.36,-904.47"/>
</g>
<!-- Bartlett\\CompatInfoDb\\Domain\\Factory\\ExtensionVersionProviderInterface -->
<g id="node10" class="node">
<title>Bartlett\\CompatInfoDb\\Domain\\Factory\\ExtensionVersionProviderInterface</title>
<polygon fill="#fefece" stroke="transparent" points="2043.5,-341.5 1581.5,-341.5 1581.5,-34.5 2043.5,-34.5 2043.5,-341.5"/>
<polygon fill="#eeeeee" stroke="transparent" points="1589.5,-303 1589.5,-337 2035.5,-337 2035.5,-303 1589.5,-303"/>
<polygon fill="none" stroke="black" points="1589.5,-303 1589.5,-337 2035.5,-337 2035.5,-303 1589.5,-303"/>
<text text-anchor="start" x="1767.5" y="-323.8" font-family="Times,serif" font-weight="bold" font-size="14.00">«interface»</text>
<text text-anchor="start" x="1674" y="-309.8" font-family="Times,serif" font-weight="bold" font-size="14.00">ExtensionVersionProviderInterface</text>
<polygon fill="none" stroke="black" points="1589.5,-50 1589.5,-303 2035.5,-303 2035.5,-50 1589.5,-50"/>
<text text-anchor="start" x="1594.5" y="-286.8" font-family="Times,serif" font-size="14.00">+ «static» LATEST_PHP_5_2 : string = &quot;5\.2\.17&quot; {readOnly}</text>
<text text-anchor="start" x="1594.5" y="-267.8" font-family="Times,serif" font-size="14.00">+ «static» LATEST_PHP_5_3 : string = &quot;5\.3\.29&quot; {readOnly}</text>
<text text-anchor="start" x="1594.5" y="-248.8" font-family="Times,serif" font-size="14.00">+ «static» LATEST_PHP_5_4 : string = &quot;5\.4\.45&quot; {readOnly}</text>
<text text-anchor="start" x="1594.5" y="-229.8" font-family="Times,serif" font-size="14.00">+ «static» LATEST_PHP_5_5 : string = &quot;5\.5\.38&quot; {readOnly}</text>
<text text-anchor="start" x="1594.5" y="-210.8" font-family="Times,serif" font-size="14.00">+ «static» LATEST_PHP_5_6 : string = &quot;5\.6\.40&quot; {readOnly}</text>
<text text-anchor="start" x="1594.5" y="-191.8" font-family="Times,serif" font-size="14.00">+ «static» LATEST_PHP_7_0 : string = &quot;7\.0\.33&quot; {readOnly}</text>
<text text-anchor="start" x="1594.5" y="-172.8" font-family="Times,serif" font-size="14.00">+ «static» LATEST_PHP_7_1 : string = &quot;7\.1\.33&quot; {readOnly}</text>
<text text-anchor="start" x="1594.5" y="-153.8" font-family="Times,serif" font-size="14.00">+ «static» LATEST_PHP_7_2 : string = &quot;7\.2\.34&quot; {readOnly}</text>
<text text-anchor="start" x="1594.5" y="-134.8" font-family="Times,serif" font-size="14.00">+ «static» LATEST_PHP_7_3 : string = &quot;7\.3\.33&quot; {readOnly}</text>
<text text-anchor="start" x="1594.5" y="-115.8" font-family="Times,serif" font-size="14.00">+ «static» LATEST_PHP_7_4 : string = &quot;7\.4\.33&quot; {readOnly}</text>
<text text-anchor="start" x="1594.5" y="-96.8" font-family="Times,serif" font-size="14.00">+ «static» LATEST_PHP_8_0 : string = &quot;8\.0\.28&quot; {readOnly}</text>
<text text-anchor="start" x="1594.5" y="-77.8" font-family="Times,serif" font-size="14.00">+ «static» LATEST_PHP_8_1 : string = &quot;8\.1\.18&quot; {readOnly}</text>
<text text-anchor="start" x="1594.5" y="-58.8" font-family="Times,serif" font-size="14.00">+ «static» LATEST_PHP_8_2 : string = &quot;8\.2\.5&quot; {readOnly}</text>
<polygon fill="none" stroke="black" points="1589.5,-44 1589.5,-50 2035.5,-50 2035.5,-44 1589.5,-44"/>
<polygon fill="none" stroke="black" points="1589.5,-38 1589.5,-44 2035.5,-44 2035.5,-38 1589.5,-38"/>
</g>
<!-- Bartlett\\CompatInfoDb\\Application\\Query\\ListRef\\ListHandler&#45;&gt;Bartlett\\CompatInfoDb\\Domain\\Factory\\ExtensionVersionProviderInterface -->
<g id="edge7" class="edge">
<title>Bartlett\\CompatInfoDb\\Application\\Query\\ListRef\\ListHandler&#45;&gt;Bartlett\\CompatInfoDb\\Domain\\Factory\\ExtensionVersionProviderInterface</title>
<path fill="none" stroke="black" stroke-dasharray="5,2" d="M1231.67,-188C1349.75,-188 1470.6,-188 1571.21,-188"/>
<polygon fill="none" stroke="black" points="1571.5,-191.5 1581.5,-188 1571.5,-184.5 1571.5,-191.5"/>
</g>
<!-- Bartlett\\CompatInfoDb\\Application\\Query\\Show\\ShowQuery -->
<g id="node11" class="node">
<title>Bartlett\\CompatInfoDb\\Application\\Query\\Show\\ShowQuery</title>
<polygon fill="#fefece" stroke="transparent" points="1457,-929 16,-929 16,-647 1457,-647 1457,-929"/>
<polygon fill="#eeeeee" stroke="transparent" points="24.5,-891 24.5,-925 1449.5,-925 1449.5,-891 24.5,-891"/>
<polygon fill="none" stroke="black" points="24.5,-891 24.5,-925 1449.5,-925 1449.5,-891 24.5,-891"/>
<text text-anchor="start" x="692.5" y="-897.8" font-family="Times,serif" font-weight="bold" font-size="14.00">ShowQuery</text>
<polygon fill="none" stroke="black" points="24.5,-885 24.5,-891 1449.5,-891 1449.5,-885 24.5,-885"/>
<polygon fill="none" stroke="black" points="24.5,-651 24.5,-885 1449.5,-885 1449.5,-651 24.5,-651"/>
<text text-anchor="start" x="29.5" y="-868.8" font-family="Times,serif" font-size="14.00">+ __construct(extension : string, releases : bool, ini : bool, constants : bool, functions : bool, interfaces : bool, classes : bool, methods : bool, classConstants : bool, dependencies : bool, polyfills : bool)</text>
<text text-anchor="start" x="29.5" y="-849.8" font-family="Times,serif" font-size="14.00">+ getExtension() : string</text>
<text text-anchor="start" x="29.5" y="-830.8" font-family="Times,serif" font-size="14.00">+ isReleases() : bool</text>
<text text-anchor="start" x="29.5" y="-811.8" font-family="Times,serif" font-size="14.00">+ isIni() : bool</text>
<text text-anchor="start" x="29.5" y="-792.8" font-family="Times,serif" font-size="14.00">+ isConstants() : bool</text>
<text text-anchor="start" x="29.5" y="-773.8" font-family="Times,serif" font-size="14.00">+ isFunctions() : bool</text>
<text text-anchor="start" x="29.5" y="-754.8" font-family="Times,serif" font-size="14.00">+ isInterfaces() : bool</text>
<text text-anchor="start" x="29.5" y="-735.8" font-family="Times,serif" font-size="14.00">+ isClasses() : bool</text>
<text text-anchor="start" x="29.5" y="-716.8" font-family="Times,serif" font-size="14.00">+ isMethods() : bool</text>
<text text-anchor="start" x="29.5" y="-697.8" font-family="Times,serif" font-size="14.00">+ isClassConstants() : bool</text>
<text text-anchor="start" x="29.5" y="-678.8" font-family="Times,serif" font-size="14.00">+ isDependencies() : bool</text>
<text text-anchor="start" x="29.5" y="-659.8" font-family="Times,serif" font-size="14.00">+ isPolyfills() : bool</text>
</g>
<!-- Bartlett\\CompatInfoDb\\Application\\Query\\Show\\ShowQuery&#45;&gt;Bartlett\\CompatInfoDb\\Application\\Query\\QueryInterface -->
<g id="edge8" class="edge">
<title>Bartlett\\CompatInfoDb\\Application\\Query\\Show\\ShowQuery&#45;&gt;Bartlett\\CompatInfoDb\\Application\\Query\\QueryInterface</title>
<path fill="none" stroke="black" stroke-dasharray="5,2" d="M1457.45,-912.08C1466.69,-913.41 1475.87,-914.72 1485,-916 1568.49,-927.74 1664.44,-937.93 1730.61,-944.44"/>
<polygon fill="none" stroke="black" points="1730.68,-947.96 1740.97,-945.45 1731.36,-940.99 1730.68,-947.96"/>
</g>
<!-- Bartlett\\CompatInfoDb\\Application\\Query\\Show\\ShowHandler -->
<g id="node12" class="node">
<title>Bartlett\\CompatInfoDb\\Application\\Query\\Show\\ShowHandler</title>
<polygon fill="#fefece" stroke="transparent" points="1239.5,-629 233.5,-629 233.5,-537 1239.5,-537 1239.5,-629"/>
<polygon fill="#eeeeee" stroke="transparent" points="241.5,-591 241.5,-625 1231.5,-625 1231.5,-591 241.5,-591"/>
<polygon fill="none" stroke="black" points="241.5,-591 241.5,-625 1231.5,-625 1231.5,-591 241.5,-591"/>
<text text-anchor="start" x="683.5" y="-597.8" font-family="Times,serif" font-weight="bold" font-size="14.00">ShowHandler</text>
<polygon fill="none" stroke="black" points="241.5,-585 241.5,-591 1231.5,-591 1231.5,-585 241.5,-585"/>
<polygon fill="none" stroke="black" points="241.5,-541 241.5,-585 1231.5,-585 1231.5,-541 241.5,-541"/>
<text text-anchor="start" x="246.5" y="-568.8" font-family="Times,serif" font-size="14.00">+ __construct(extensionFactory : Bartlett\CompatInfoDb\Domain\Factory\ExtensionFactoryInterface)</text>
<text text-anchor="start" x="246.5" y="-549.8" font-family="Times,serif" font-size="14.00">+ __invoke(query : Bartlett\CompatInfoDb\Application\Query\Show\ShowQuery) : ?Bartlett\CompatInfoDb\Domain\ValueObject\Extension</text>
</g>
<!-- Bartlett\\CompatInfoDb\\Application\\Query\\Show\\ShowHandler&#45;&gt;Bartlett\\CompatInfoDb\\Application\\Query\\QueryHandlerInterface -->
<g id="edge9" class="edge">
<title>Bartlett\\CompatInfoDb\\Application\\Query\\Show\\ShowHandler&#45;&gt;Bartlett\\CompatInfoDb\\Application\\Query\\QueryHandlerInterface</title>
<path fill="none" stroke="black" stroke-dasharray="5,2" d="M1239.8,-574.54C1341.25,-583.26 1428.17,-601.95 1465,-638 1497.87,-670.17 1452.69,-811.27 1485,-844 1539.22,-898.93 1627.37,-905.84 1698.42,-900.15"/>
<polygon fill="none" stroke="black" points="1699.12,-903.61 1708.77,-899.23 1698.5,-896.63 1699.12,-903.61"/>
</g>
</g>
</svg>
