<?xml version="1.0" encoding="UTF-8" standalone="no"?>
<!DOCTYPE svg PUBLIC "-//W3C//DTD SVG 1.1//EN"
 "http://www.w3.org/Graphics/SVG/1.1/DTD/svg11.dtd">
<!-- Generated by graphviz version 2.43.0 (0)
 -->
<!-- Title: %3 Pages: 1 -->
<svg width="2011pt" height="551pt"
 viewBox="0.00 0.00 2011.00 551.00" xmlns="http://www.w3.org/2000/svg" xmlns:xlink="http://www.w3.org/1999/xlink">
<g id="graph0" class="graph" transform="scale(1 1) rotate(0) translate(4 547)">
<title>%3</title>
<g id="clust1" class="cluster">
<title>cluster_0</title>
<polygon fill="#7ac5cd" stroke="black" points="8,-8 8,-535 1995,-535 1995,-8 8,-8"/>
<text text-anchor="middle" x="1001.5" y="-519.8" font-family="Times,serif" font-size="14.00">Bartlett\CompatInfoDb\Domain\Factory</text>
</g>
<!-- Bartlett\\CompatInfoDb\\Domain\\Factory\\ExtensionFactory -->
<g id="node1" class="node">
<title>Bartlett\\CompatInfoDb\\Domain\\Factory\\ExtensionFactory</title>
<polygon fill="#fefece" stroke="transparent" points="769,-504.5 16,-504.5 16,-159.5 769,-159.5 769,-504.5"/>
<polygon fill="#eeeeee" stroke="transparent" points="24.5,-466 24.5,-500 761.5,-500 761.5,-466 24.5,-466"/>
<polygon fill="none" stroke="black" points="24.5,-466 24.5,-500 761.5,-500 761.5,-466 24.5,-466"/>
<text text-anchor="start" x="325" y="-472.8" font-family="Times,serif" font-weight="bold" font-size="14.00">ExtensionFactory</text>
<polygon fill="none" stroke="black" points="24.5,-213 24.5,-466 761.5,-466 761.5,-213 24.5,-213"/>
<text text-anchor="start" x="29.5" y="-449.8" font-family="Times,serif" font-size="14.00">+ «static» LATEST_PHP_5_2 : string = &quot;5\.2\.17&quot; {readOnly}</text>
<text text-anchor="start" x="29.5" y="-430.8" font-family="Times,serif" font-size="14.00">+ «static» LATEST_PHP_5_3 : string = &quot;5\.3\.29&quot; {readOnly}</text>
<text text-anchor="start" x="29.5" y="-411.8" font-family="Times,serif" font-size="14.00">+ «static» LATEST_PHP_5_4 : string = &quot;5\.4\.45&quot; {readOnly}</text>
<text text-anchor="start" x="29.5" y="-392.8" font-family="Times,serif" font-size="14.00">+ «static» LATEST_PHP_5_5 : string = &quot;5\.5\.38&quot; {readOnly}</text>
<text text-anchor="start" x="29.5" y="-373.8" font-family="Times,serif" font-size="14.00">+ «static» LATEST_PHP_5_6 : string = &quot;5\.6\.40&quot; {readOnly}</text>
<text text-anchor="start" x="29.5" y="-354.8" font-family="Times,serif" font-size="14.00">+ «static» LATEST_PHP_7_0 : string = &quot;7\.0\.33&quot; {readOnly}</text>
<text text-anchor="start" x="29.5" y="-335.8" font-family="Times,serif" font-size="14.00">+ «static» LATEST_PHP_7_1 : string = &quot;7\.1\.33&quot; {readOnly}</text>
<text text-anchor="start" x="29.5" y="-316.8" font-family="Times,serif" font-size="14.00">+ «static» LATEST_PHP_7_2 : string = &quot;7\.2\.34&quot; {readOnly}</text>
<text text-anchor="start" x="29.5" y="-297.8" font-family="Times,serif" font-size="14.00">+ «static» LATEST_PHP_7_3 : string = &quot;7\.3\.33&quot; {readOnly}</text>
<text text-anchor="start" x="29.5" y="-278.8" font-family="Times,serif" font-size="14.00">+ «static» LATEST_PHP_7_4 : string = &quot;7\.4\.33&quot; {readOnly}</text>
<text text-anchor="start" x="29.5" y="-259.8" font-family="Times,serif" font-size="14.00">+ «static» LATEST_PHP_8_0 : string = &quot;8\.0\.30&quot; {readOnly}</text>
<text text-anchor="start" x="29.5" y="-240.8" font-family="Times,serif" font-size="14.00">+ «static» LATEST_PHP_8_1 : string = &quot;8\.1\.22&quot; {readOnly}</text>
<text text-anchor="start" x="29.5" y="-221.8" font-family="Times,serif" font-size="14.00">+ «static» LATEST_PHP_8_2 : string = &quot;8\.2\.9&quot; {readOnly}</text>
<polygon fill="none" stroke="black" points="24.5,-207 24.5,-213 761.5,-213 761.5,-207 24.5,-207"/>
<polygon fill="none" stroke="black" points="24.5,-163 24.5,-207 761.5,-207 761.5,-163 24.5,-163"/>
<text text-anchor="start" x="29.5" y="-190.8" font-family="Times,serif" font-size="14.00">+ __construct(extensionRepository : Bartlett\CompatInfoDb\Domain\Repository\ExtensionRepository)</text>
<text text-anchor="start" x="29.5" y="-171.8" font-family="Times,serif" font-size="14.00">+ create(name : string) : ?Bartlett\CompatInfoDb\Domain\ValueObject\Extension</text>
</g>
<!-- Bartlett\\CompatInfoDb\\Domain\\Factory\\ExtensionFactoryInterface -->
<g id="node2" class="node">
<title>Bartlett\\CompatInfoDb\\Domain\\Factory\\ExtensionFactoryInterface</title>
<polygon fill="#fefece" stroke="transparent" points="1489,-495 805,-495 805,-169 1489,-169 1489,-495"/>
<polygon fill="#eeeeee" stroke="transparent" points="813,-457 813,-491 1481,-491 1481,-457 813,-457"/>
<polygon fill="none" stroke="black" points="813,-457 813,-491 1481,-491 1481,-457 813,-457"/>
<text text-anchor="start" x="1102" y="-477.8" font-family="Times,serif" font-weight="bold" font-size="14.00">«interface»</text>
<text text-anchor="start" x="1042.5" y="-463.8" font-family="Times,serif" font-weight="bold" font-size="14.00">ExtensionFactoryInterface</text>
<polygon fill="none" stroke="black" points="813,-204 813,-457 1481,-457 1481,-204 813,-204"/>
<text text-anchor="start" x="818" y="-440.8" font-family="Times,serif" font-size="14.00">+ «static» LATEST_PHP_5_2 : string = &quot;5\.2\.17&quot; {readOnly}</text>
<text text-anchor="start" x="818" y="-421.8" font-family="Times,serif" font-size="14.00">+ «static» LATEST_PHP_5_3 : string = &quot;5\.3\.29&quot; {readOnly}</text>
<text text-anchor="start" x="818" y="-402.8" font-family="Times,serif" font-size="14.00">+ «static» LATEST_PHP_5_4 : string = &quot;5\.4\.45&quot; {readOnly}</text>
<text text-anchor="start" x="818" y="-383.8" font-family="Times,serif" font-size="14.00">+ «static» LATEST_PHP_5_5 : string = &quot;5\.5\.38&quot; {readOnly}</text>
<text text-anchor="start" x="818" y="-364.8" font-family="Times,serif" font-size="14.00">+ «static» LATEST_PHP_5_6 : string = &quot;5\.6\.40&quot; {readOnly}</text>
<text text-anchor="start" x="818" y="-345.8" font-family="Times,serif" font-size="14.00">+ «static» LATEST_PHP_7_0 : string = &quot;7\.0\.33&quot; {readOnly}</text>
<text text-anchor="start" x="818" y="-326.8" font-family="Times,serif" font-size="14.00">+ «static» LATEST_PHP_7_1 : string = &quot;7\.1\.33&quot; {readOnly}</text>
<text text-anchor="start" x="818" y="-307.8" font-family="Times,serif" font-size="14.00">+ «static» LATEST_PHP_7_2 : string = &quot;7\.2\.34&quot; {readOnly}</text>
<text text-anchor="start" x="818" y="-288.8" font-family="Times,serif" font-size="14.00">+ «static» LATEST_PHP_7_3 : string = &quot;7\.3\.33&quot; {readOnly}</text>
<text text-anchor="start" x="818" y="-269.8" font-family="Times,serif" font-size="14.00">+ «static» LATEST_PHP_7_4 : string = &quot;7\.4\.33&quot; {readOnly}</text>
<text text-anchor="start" x="818" y="-250.8" font-family="Times,serif" font-size="14.00">+ «static» LATEST_PHP_8_0 : string = &quot;8\.0\.30&quot; {readOnly}</text>
<text text-anchor="start" x="818" y="-231.8" font-family="Times,serif" font-size="14.00">+ «static» LATEST_PHP_8_1 : string = &quot;8\.1\.22&quot; {readOnly}</text>
<text text-anchor="start" x="818" y="-212.8" font-family="Times,serif" font-size="14.00">+ «static» LATEST_PHP_8_2 : string = &quot;8\.2\.9&quot; {readOnly}</text>
<polygon fill="none" stroke="black" points="813,-198 813,-204 1481,-204 1481,-198 813,-198"/>
<polygon fill="none" stroke="black" points="813,-173 813,-198 1481,-198 1481,-173 813,-173"/>
<text text-anchor="start" x="818" y="-181.8" font-family="Times,serif" font-size="14.00">+ «abstract» create(name : string) : ?Bartlett\CompatInfoDb\Domain\ValueObject\Extension</text>
</g>
<!-- Bartlett\\CompatInfoDb\\Domain\\Factory\\ExtensionFactory&#45;&gt;Bartlett\\CompatInfoDb\\Domain\\Factory\\ExtensionFactoryInterface -->
<g id="edge2" class="edge">
<title>Bartlett\\CompatInfoDb\\Domain\\Factory\\ExtensionFactory&#45;&gt;Bartlett\\CompatInfoDb\\Domain\\Factory\\ExtensionFactoryInterface</title>
<path fill="none" stroke="black" stroke-dasharray="5,2" d="M769.2,-332C777.63,-332 786.06,-332 794.48,-332"/>
<polygon fill="none" stroke="black" points="794.74,-335.5 804.74,-332 794.74,-328.5 794.74,-335.5"/>
</g>
<!-- Bartlett\\CompatInfoDb\\Domain\\Factory\\ExtensionVersionProviderInterface -->
<g id="node3" class="node">
<title>Bartlett\\CompatInfoDb\\Domain\\Factory\\ExtensionVersionProviderInterface</title>
<polygon fill="#fefece" stroke="transparent" points="1987,-485.5 1525,-485.5 1525,-178.5 1987,-178.5 1987,-485.5"/>
<polygon fill="#eeeeee" stroke="transparent" points="1533,-447 1533,-481 1979,-481 1979,-447 1533,-447"/>
<polygon fill="none" stroke="black" points="1533,-447 1533,-481 1979,-481 1979,-447 1533,-447"/>
<text text-anchor="start" x="1711" y="-467.8" font-family="Times,serif" font-weight="bold" font-size="14.00">«interface»</text>
<text text-anchor="start" x="1617.5" y="-453.8" font-family="Times,serif" font-weight="bold" font-size="14.00">ExtensionVersionProviderInterface</text>
<polygon fill="none" stroke="black" points="1533,-194 1533,-447 1979,-447 1979,-194 1533,-194"/>
<text text-anchor="start" x="1538" y="-430.8" font-family="Times,serif" font-size="14.00">+ «static» LATEST_PHP_5_2 : string = &quot;5\.2\.17&quot; {readOnly}</text>
<text text-anchor="start" x="1538" y="-411.8" font-family="Times,serif" font-size="14.00">+ «static» LATEST_PHP_5_3 : string = &quot;5\.3\.29&quot; {readOnly}</text>
<text text-anchor="start" x="1538" y="-392.8" font-family="Times,serif" font-size="14.00">+ «static» LATEST_PHP_5_4 : string = &quot;5\.4\.45&quot; {readOnly}</text>
<text text-anchor="start" x="1538" y="-373.8" font-family="Times,serif" font-size="14.00">+ «static» LATEST_PHP_5_5 : string = &quot;5\.5\.38&quot; {readOnly}</text>
<text text-anchor="start" x="1538" y="-354.8" font-family="Times,serif" font-size="14.00">+ «static» LATEST_PHP_5_6 : string = &quot;5\.6\.40&quot; {readOnly}</text>
<text text-anchor="start" x="1538" y="-335.8" font-family="Times,serif" font-size="14.00">+ «static» LATEST_PHP_7_0 : string = &quot;7\.0\.33&quot; {readOnly}</text>
<text text-anchor="start" x="1538" y="-316.8" font-family="Times,serif" font-size="14.00">+ «static» LATEST_PHP_7_1 : string = &quot;7\.1\.33&quot; {readOnly}</text>
<text text-anchor="start" x="1538" y="-297.8" font-family="Times,serif" font-size="14.00">+ «static» LATEST_PHP_7_2 : string = &quot;7\.2\.34&quot; {readOnly}</text>
<text text-anchor="start" x="1538" y="-278.8" font-family="Times,serif" font-size="14.00">+ «static» LATEST_PHP_7_3 : string = &quot;7\.3\.33&quot; {readOnly}</text>
<text text-anchor="start" x="1538" y="-259.8" font-family="Times,serif" font-size="14.00">+ «static» LATEST_PHP_7_4 : string = &quot;7\.4\.33&quot; {readOnly}</text>
<text text-anchor="start" x="1538" y="-240.8" font-family="Times,serif" font-size="14.00">+ «static» LATEST_PHP_8_0 : string = &quot;8\.0\.30&quot; {readOnly}</text>
<text text-anchor="start" x="1538" y="-221.8" font-family="Times,serif" font-size="14.00">+ «static» LATEST_PHP_8_1 : string = &quot;8\.1\.22&quot; {readOnly}</text>
<text text-anchor="start" x="1538" y="-202.8" font-family="Times,serif" font-size="14.00">+ «static» LATEST_PHP_8_2 : string = &quot;8\.2\.9&quot; {readOnly}</text>
<polygon fill="none" stroke="black" points="1533,-188 1533,-194 1979,-194 1979,-188 1533,-188"/>
<polygon fill="none" stroke="black" points="1533,-182 1533,-188 1979,-188 1979,-182 1533,-182"/>
</g>
<!-- Bartlett\\CompatInfoDb\\Domain\\Factory\\ExtensionFactoryInterface&#45;&gt;Bartlett\\CompatInfoDb\\Domain\\Factory\\ExtensionVersionProviderInterface -->
<g id="edge1" class="edge">
<title>Bartlett\\CompatInfoDb\\Domain\\Factory\\ExtensionFactoryInterface&#45;&gt;Bartlett\\CompatInfoDb\\Domain\\Factory\\ExtensionVersionProviderInterface</title>
<path fill="none" stroke="black" stroke-dasharray="5,2" d="M1489.2,-332C1497.74,-332 1506.24,-332 1514.67,-332"/>
<polygon fill="none" stroke="black" points="1514.92,-335.5 1524.92,-332 1514.92,-328.5 1514.92,-335.5"/>
</g>
<!-- Bartlett\\CompatInfoDb\\Domain\\Factory\\ExtensionVersionProviderTrait -->
<g id="node4" class="node">
<title>Bartlett\\CompatInfoDb\\Domain\\Factory\\ExtensionVersionProviderTrait</title>
<polygon fill="#fefece" stroke="transparent" points="525,-142 260,-142 260,-88 525,-88 525,-142"/>
<polygon fill="#eeeeee" stroke="transparent" points="268.5,-104 268.5,-138 517.5,-138 517.5,-104 268.5,-104"/>
<polygon fill="none" stroke="black" points="268.5,-104 268.5,-138 517.5,-138 517.5,-104 268.5,-104"/>
<text text-anchor="start" x="271.5" y="-110.8" font-family="Times,serif" font-weight="bold" font-size="14.00">ExtensionVersionProviderTrait</text>
<polygon fill="none" stroke="black" points="268.5,-98 268.5,-104 517.5,-104 517.5,-98 268.5,-98"/>
<polygon fill="none" stroke="black" points="268.5,-92 268.5,-98 517.5,-98 517.5,-92 268.5,-92"/>
</g>
<!-- Bartlett\\CompatInfoDb\\Domain\\Factory\\LibraryVersionProviderTrait -->
<g id="node5" class="node">
<title>Bartlett\\CompatInfoDb\\Domain\\Factory\\LibraryVersionProviderTrait</title>
<polygon fill="#fefece" stroke="transparent" points="514.5,-70 270.5,-70 270.5,-16 514.5,-16 514.5,-70"/>
<polygon fill="#eeeeee" stroke="transparent" points="278.5,-32 278.5,-66 506.5,-66 506.5,-32 278.5,-32"/>
<polygon fill="none" stroke="black" points="278.5,-32 278.5,-66 506.5,-66 506.5,-32 278.5,-32"/>
<text text-anchor="start" x="281.5" y="-38.8" font-family="Times,serif" font-weight="bold" font-size="14.00">LibraryVersionProviderTrait</text>
<polygon fill="none" stroke="black" points="278.5,-26 278.5,-32 506.5,-32 506.5,-26 278.5,-26"/>
<polygon fill="none" stroke="black" points="278.5,-20 278.5,-26 506.5,-26 506.5,-20 278.5,-20"/>
</g>
</g>
</svg>
