<?xml version="1.0" encoding="UTF-8" standalone="no"?>
<!DOCTYPE svg PUBLIC "-//W3C//DTD SVG 1.1//EN"
 "http://www.w3.org/Graphics/SVG/1.1/DTD/svg11.dtd">
<!-- Generated by graphviz version 2.43.0 (0)
 -->
<!-- Title: %3 Pages: 1 -->
<svg width="2341pt" height="2793pt"
 viewBox="0.00 0.00 2341.00 2793.00" xmlns="http://www.w3.org/2000/svg" xmlns:xlink="http://www.w3.org/1999/xlink">
<g id="graph0" class="graph" transform="scale(1 1) rotate(0) translate(4 2789)">
<title>%3</title>
<g id="clust1" class="cluster">
<title>cluster_0</title>
<polygon fill="#7ac5cd" stroke="black" points="8,-8 8,-2777 1827,-2777 1827,-8 8,-8"/>
<text text-anchor="middle" x="917.5" y="-2761.8" font-family="Times,serif" font-size="14.00">Bartlett\CompatInfoDb\Domain\ValueObject</text>
</g>
<g id="clust2" class="cluster">
<title>cluster_1</title>
<polygon fill="transparent" stroke="black" points="1847,-1449 1847,-1794 2325,-1794 2325,-1449 1847,-1449"/>
<text text-anchor="middle" x="2086" y="-1778.8" font-family="Times,serif" font-size="14.00">Bartlett\CompatInfoDb\Domain\Factory</text>
</g>
<g id="clust3" class="cluster">
<title>cluster_2</title>
<polygon fill="transparent" stroke="black" points="1946.5,-813 1946.5,-926 2225.5,-926 2225.5,-813 1946.5,-813"/>
<text text-anchor="middle" x="2086" y="-910.8" font-family="Times,serif" font-size="14.00">0</text>
</g>
<!-- Bartlett\\CompatInfoDb\\Domain\\ValueObject\\Class_ -->
<g id="node1" class="node">
<title>Bartlett\\CompatInfoDb\\Domain\\ValueObject\\Class_</title>
<polygon fill="#fefece" stroke="transparent" points="1724,-2746 111,-2746 111,-2344 1724,-2344 1724,-2746"/>
<polygon fill="#eeeeee" stroke="transparent" points="119.5,-2708 119.5,-2742 1716.5,-2742 1716.5,-2708 119.5,-2708"/>
<polygon fill="none" stroke="black" points="119.5,-2708 119.5,-2742 1716.5,-2742 1716.5,-2708 119.5,-2708"/>
<text text-anchor="start" x="893.5" y="-2714.8" font-family="Times,serif" font-weight="bold" font-size="14.00">Class_</text>
<polygon fill="none" stroke="black" points="119.5,-2588 119.5,-2708 1716.5,-2708 1716.5,-2588 119.5,-2588"/>
<text text-anchor="start" x="124.5" y="-2691.8" font-family="Times,serif" font-size="14.00">+ «static» MODIFIER_PUBLIC : int = 1 {readOnly}</text>
<text text-anchor="start" x="124.5" y="-2672.8" font-family="Times,serif" font-size="14.00">+ «static» MODIFIER_PROTECTED : int = 2 {readOnly}</text>
<text text-anchor="start" x="124.5" y="-2653.8" font-family="Times,serif" font-size="14.00">+ «static» MODIFIER_PRIVATE : int = 4 {readOnly}</text>
<text text-anchor="start" x="124.5" y="-2634.8" font-family="Times,serif" font-size="14.00">+ «static» MODIFIER_STATIC : int = 8 {readOnly}</text>
<text text-anchor="start" x="124.5" y="-2615.8" font-family="Times,serif" font-size="14.00">+ «static» MODIFIER_ABSTRACT : int = 16 {readOnly}</text>
<text text-anchor="start" x="124.5" y="-2596.8" font-family="Times,serif" font-size="14.00">+ «static» MODIFIER_FINAL : int = 32 {readOnly}</text>
<polygon fill="none" stroke="black" points="119.5,-2582 119.5,-2588 1716.5,-2588 1716.5,-2582 119.5,-2582"/>
<polygon fill="none" stroke="black" points="119.5,-2348 119.5,-2582 1716.5,-2582 1716.5,-2348 119.5,-2348"/>
<text text-anchor="start" x="124.5" y="-2565.8" font-family="Times,serif" font-size="14.00">+ __construct(name : string, isInterface : bool, extension : string, extMin : string, extMax : string, phpMin : string, phpMax : string, dependencies : array = [], flags : int = MODIFIER_PUBLIC, polyfill : string = «unknown»)</text>
<text text-anchor="start" x="124.5" y="-2546.8" font-family="Times,serif" font-size="14.00">+ getName() : string</text>
<text text-anchor="start" x="124.5" y="-2527.8" font-family="Times,serif" font-size="14.00">+ isInterface() : bool</text>
<text text-anchor="start" x="124.5" y="-2508.8" font-family="Times,serif" font-size="14.00">+ getExtensionName() : string</text>
<text text-anchor="start" x="124.5" y="-2489.8" font-family="Times,serif" font-size="14.00">+ getDependencies() : array</text>
<text text-anchor="start" x="124.5" y="-2470.8" font-family="Times,serif" font-size="14.00">+ isAbstract() : bool</text>
<text text-anchor="start" x="124.5" y="-2451.8" font-family="Times,serif" font-size="14.00">+ isFinal() : bool</text>
<text text-anchor="start" x="124.5" y="-2432.8" font-family="Times,serif" font-size="14.00">+ getPolyfill() : ?string</text>
<text text-anchor="start" x="124.5" y="-2413.8" font-family="Times,serif" font-size="14.00">+ getExtMin() : string</text>
<text text-anchor="start" x="124.5" y="-2394.8" font-family="Times,serif" font-size="14.00">+ getExtMax() : ?string</text>
<text text-anchor="start" x="124.5" y="-2375.8" font-family="Times,serif" font-size="14.00">+ getPhpMin() : string</text>
<text text-anchor="start" x="124.5" y="-2356.8" font-family="Times,serif" font-size="14.00">+ getPhpMax() : ?string</text>
</g>
<!-- Bartlett\\CompatInfoDb\\Domain\\ValueObject\\Constant_ -->
<g id="node2" class="node">
<title>Bartlett\\CompatInfoDb\\Domain\\ValueObject\\Constant_</title>
<polygon fill="#fefece" stroke="transparent" points="1625.5,-2326 209.5,-2326 209.5,-2082 1625.5,-2082 1625.5,-2326"/>
<polygon fill="#eeeeee" stroke="transparent" points="217.5,-2288 217.5,-2322 1617.5,-2322 1617.5,-2288 217.5,-2288"/>
<polygon fill="none" stroke="black" points="217.5,-2288 217.5,-2322 1617.5,-2322 1617.5,-2288 217.5,-2288"/>
<text text-anchor="start" x="878" y="-2294.8" font-family="Times,serif" font-weight="bold" font-size="14.00">Constant_</text>
<polygon fill="none" stroke="black" points="217.5,-2282 217.5,-2288 1617.5,-2288 1617.5,-2282 217.5,-2282"/>
<polygon fill="none" stroke="black" points="217.5,-2086 217.5,-2282 1617.5,-2282 1617.5,-2086 217.5,-2086"/>
<text text-anchor="start" x="222.5" y="-2265.8" font-family="Times,serif" font-size="14.00">+ __construct(name : string, declaringClass : string, extension : string, extMin : string, extMax : string, phpMin : string, phpMax : string, dependencies : array = [], polyfill : string = «unknown»)</text>
<text text-anchor="start" x="222.5" y="-2246.8" font-family="Times,serif" font-size="14.00">+ getName() : string</text>
<text text-anchor="start" x="222.5" y="-2227.8" font-family="Times,serif" font-size="14.00">+ getDeclaringClass() : ?string</text>
<text text-anchor="start" x="222.5" y="-2208.8" font-family="Times,serif" font-size="14.00">+ getPolyfill() : ?string</text>
<text text-anchor="start" x="222.5" y="-2189.8" font-family="Times,serif" font-size="14.00">+ getExtensionName() : string</text>
<text text-anchor="start" x="222.5" y="-2170.8" font-family="Times,serif" font-size="14.00">+ getDependencies() : array</text>
<text text-anchor="start" x="222.5" y="-2151.8" font-family="Times,serif" font-size="14.00">+ getExtMin() : string</text>
<text text-anchor="start" x="222.5" y="-2132.8" font-family="Times,serif" font-size="14.00">+ getExtMax() : ?string</text>
<text text-anchor="start" x="222.5" y="-2113.8" font-family="Times,serif" font-size="14.00">+ getPhpMin() : string</text>
<text text-anchor="start" x="222.5" y="-2094.8" font-family="Times,serif" font-size="14.00">+ getPhpMax() : ?string</text>
</g>
<!-- Bartlett\\CompatInfoDb\\Domain\\ValueObject\\Dependency -->
<g id="node3" class="node">
<title>Bartlett\\CompatInfoDb\\Domain\\ValueObject\\Dependency</title>
<polygon fill="#fefece" stroke="transparent" points="1101.5,-2063.5 733.5,-2063.5 733.5,-1952.5 1101.5,-1952.5 1101.5,-2063.5"/>
<polygon fill="#eeeeee" stroke="transparent" points="741.5,-2025 741.5,-2059 1093.5,-2059 1093.5,-2025 741.5,-2025"/>
<polygon fill="none" stroke="black" points="741.5,-2025 741.5,-2059 1093.5,-2059 1093.5,-2025 741.5,-2025"/>
<text text-anchor="start" x="869" y="-2031.8" font-family="Times,serif" font-weight="bold" font-size="14.00">Dependency</text>
<polygon fill="none" stroke="black" points="741.5,-2019 741.5,-2025 1093.5,-2025 1093.5,-2019 741.5,-2019"/>
<polygon fill="none" stroke="black" points="741.5,-1956 741.5,-2019 1093.5,-2019 1093.5,-1956 741.5,-1956"/>
<text text-anchor="start" x="746.5" y="-2002.8" font-family="Times,serif" font-size="14.00">+ __construct(name : string, constraint : string)</text>
<text text-anchor="start" x="746.5" y="-1983.8" font-family="Times,serif" font-size="14.00">+ getName() : string</text>
<text text-anchor="start" x="746.5" y="-1964.8" font-family="Times,serif" font-size="14.00">+ getConstraint() : string</text>
</g>
<!-- Bartlett\\CompatInfoDb\\Domain\\ValueObject\\Extension -->
<g id="node4" class="node">
<title>Bartlett\\CompatInfoDb\\Domain\\ValueObject\\Extension</title>
<polygon fill="#fefece" stroke="transparent" points="1819,-1934.5 16,-1934.5 16,-1285.5 1819,-1285.5 1819,-1934.5"/>
<polygon fill="#eeeeee" stroke="transparent" points="24.5,-1896 24.5,-1930 1811.5,-1930 1811.5,-1896 24.5,-1896"/>
<polygon fill="none" stroke="black" points="24.5,-1896 24.5,-1930 1811.5,-1930 1811.5,-1896 24.5,-1896"/>
<text text-anchor="start" x="878.5" y="-1902.8" font-family="Times,serif" font-weight="bold" font-size="14.00">Extension</text>
<polygon fill="none" stroke="black" points="24.5,-1643 24.5,-1896 1811.5,-1896 1811.5,-1643 24.5,-1643"/>
<text text-anchor="start" x="29.5" y="-1879.8" font-family="Times,serif" font-size="14.00">+ «static» LATEST_PHP_5_2 : string = &quot;5\.2\.17&quot; {readOnly}</text>
<text text-anchor="start" x="29.5" y="-1860.8" font-family="Times,serif" font-size="14.00">+ «static» LATEST_PHP_5_3 : string = &quot;5\.3\.29&quot; {readOnly}</text>
<text text-anchor="start" x="29.5" y="-1841.8" font-family="Times,serif" font-size="14.00">+ «static» LATEST_PHP_5_4 : string = &quot;5\.4\.45&quot; {readOnly}</text>
<text text-anchor="start" x="29.5" y="-1822.8" font-family="Times,serif" font-size="14.00">+ «static» LATEST_PHP_5_5 : string = &quot;5\.5\.38&quot; {readOnly}</text>
<text text-anchor="start" x="29.5" y="-1803.8" font-family="Times,serif" font-size="14.00">+ «static» LATEST_PHP_5_6 : string = &quot;5\.6\.40&quot; {readOnly}</text>
<text text-anchor="start" x="29.5" y="-1784.8" font-family="Times,serif" font-size="14.00">+ «static» LATEST_PHP_7_0 : string = &quot;7\.0\.33&quot; {readOnly}</text>
<text text-anchor="start" x="29.5" y="-1765.8" font-family="Times,serif" font-size="14.00">+ «static» LATEST_PHP_7_1 : string = &quot;7\.1\.33&quot; {readOnly}</text>
<text text-anchor="start" x="29.5" y="-1746.8" font-family="Times,serif" font-size="14.00">+ «static» LATEST_PHP_7_2 : string = &quot;7\.2\.34&quot; {readOnly}</text>
<text text-anchor="start" x="29.5" y="-1727.8" font-family="Times,serif" font-size="14.00">+ «static» LATEST_PHP_7_3 : string = &quot;7\.3\.33&quot; {readOnly}</text>
<text text-anchor="start" x="29.5" y="-1708.8" font-family="Times,serif" font-size="14.00">+ «static» LATEST_PHP_7_4 : string = &quot;7\.4\.33&quot; {readOnly}</text>
<text text-anchor="start" x="29.5" y="-1689.8" font-family="Times,serif" font-size="14.00">+ «static» LATEST_PHP_8_0 : string = &quot;8\.0\.28&quot; {readOnly}</text>
<text text-anchor="start" x="29.5" y="-1670.8" font-family="Times,serif" font-size="14.00">+ «static» LATEST_PHP_8_1 : string = &quot;8\.1\.17&quot; {readOnly}</text>
<text text-anchor="start" x="29.5" y="-1651.8" font-family="Times,serif" font-size="14.00">+ «static» LATEST_PHP_8_2 : string = &quot;8\.2\.4&quot; {readOnly}</text>
<polygon fill="none" stroke="black" points="24.5,-1637 24.5,-1643 1811.5,-1643 1811.5,-1637 24.5,-1637"/>
<polygon fill="none" stroke="black" points="24.5,-1289 24.5,-1637 1811.5,-1637 1811.5,-1289 24.5,-1289"/>
<text text-anchor="start" x="29.5" y="-1620.8" font-family="Times,serif" font-size="14.00">+ __construct(name : string, version : string = PHP_VERSION, type : string = &#39;bundle&#39;, deprecated : bool = false, iniEntries : array = [], constants : array = [], functions : array = [], classes : array = [], dependencies : array = [], releases : array = [])</text>
<text text-anchor="start" x="29.5" y="-1601.8" font-family="Times,serif" font-size="14.00">+ __toString() : string</text>
<text text-anchor="start" x="29.5" y="-1582.8" font-family="Times,serif" font-size="14.00">+ asArray() : array</text>
<text text-anchor="start" x="29.5" y="-1563.8" font-family="Times,serif" font-size="14.00">+ getName() : string</text>
<text text-anchor="start" x="29.5" y="-1544.8" font-family="Times,serif" font-size="14.00">+ getDescription() : string</text>
<text text-anchor="start" x="29.5" y="-1525.8" font-family="Times,serif" font-size="14.00">+ getVersion() : string</text>
<text text-anchor="start" x="29.5" y="-1506.8" font-family="Times,serif" font-size="14.00">+ getType() : string</text>
<text text-anchor="start" x="29.5" y="-1487.8" font-family="Times,serif" font-size="14.00">+ isDeprecated() : bool</text>
<text text-anchor="start" x="29.5" y="-1468.8" font-family="Times,serif" font-size="14.00">+ getDependencies() : array</text>
<text text-anchor="start" x="29.5" y="-1449.8" font-family="Times,serif" font-size="14.00">+ getIniEntries() : array</text>
<text text-anchor="start" x="29.5" y="-1430.8" font-family="Times,serif" font-size="14.00">+ getConstants() : array</text>
<text text-anchor="start" x="29.5" y="-1411.8" font-family="Times,serif" font-size="14.00">+ getFunctions() : array</text>
<text text-anchor="start" x="29.5" y="-1392.8" font-family="Times,serif" font-size="14.00">+ getClasses() : array</text>
<text text-anchor="start" x="29.5" y="-1373.8" font-family="Times,serif" font-size="14.00">+ getReleases() : array</text>
<text text-anchor="start" x="29.5" y="-1354.8" font-family="Times,serif" font-size="14.00">+ getLastRelease() : Bartlett\CompatInfoDb\Domain\ValueObject\Release</text>
<text text-anchor="start" x="29.5" y="-1335.8" font-family="Times,serif" font-size="14.00">+ getInterfaces() : array</text>
<text text-anchor="start" x="29.5" y="-1316.8" font-family="Times,serif" font-size="14.00">+ getMethods() : array</text>
<text text-anchor="start" x="29.5" y="-1297.8" font-family="Times,serif" font-size="14.00">+ getClassConstants() : array</text>
</g>
<!-- Bartlett\\CompatInfoDb\\Domain\\Factory\\ExtensionVersionProviderInterface -->
<g id="node11" class="node">
<title>Bartlett\\CompatInfoDb\\Domain\\Factory\\ExtensionVersionProviderInterface</title>
<polygon fill="#fefece" stroke="transparent" points="2317,-1763.5 1855,-1763.5 1855,-1456.5 2317,-1456.5 2317,-1763.5"/>
<polygon fill="#eeeeee" stroke="transparent" points="1863,-1725 1863,-1759 2309,-1759 2309,-1725 1863,-1725"/>
<polygon fill="none" stroke="black" points="1863,-1725 1863,-1759 2309,-1759 2309,-1725 1863,-1725"/>
<text text-anchor="start" x="2041" y="-1745.8" font-family="Times,serif" font-weight="bold" font-size="14.00">«interface»</text>
<text text-anchor="start" x="1947.5" y="-1731.8" font-family="Times,serif" font-weight="bold" font-size="14.00">ExtensionVersionProviderInterface</text>
<polygon fill="none" stroke="black" points="1863,-1472 1863,-1725 2309,-1725 2309,-1472 1863,-1472"/>
<text text-anchor="start" x="1868" y="-1708.8" font-family="Times,serif" font-size="14.00">+ «static» LATEST_PHP_5_2 : string = &quot;5\.2\.17&quot; {readOnly}</text>
<text text-anchor="start" x="1868" y="-1689.8" font-family="Times,serif" font-size="14.00">+ «static» LATEST_PHP_5_3 : string = &quot;5\.3\.29&quot; {readOnly}</text>
<text text-anchor="start" x="1868" y="-1670.8" font-family="Times,serif" font-size="14.00">+ «static» LATEST_PHP_5_4 : string = &quot;5\.4\.45&quot; {readOnly}</text>
<text text-anchor="start" x="1868" y="-1651.8" font-family="Times,serif" font-size="14.00">+ «static» LATEST_PHP_5_5 : string = &quot;5\.5\.38&quot; {readOnly}</text>
<text text-anchor="start" x="1868" y="-1632.8" font-family="Times,serif" font-size="14.00">+ «static» LATEST_PHP_5_6 : string = &quot;5\.6\.40&quot; {readOnly}</text>
<text text-anchor="start" x="1868" y="-1613.8" font-family="Times,serif" font-size="14.00">+ «static» LATEST_PHP_7_0 : string = &quot;7\.0\.33&quot; {readOnly}</text>
<text text-anchor="start" x="1868" y="-1594.8" font-family="Times,serif" font-size="14.00">+ «static» LATEST_PHP_7_1 : string = &quot;7\.1\.33&quot; {readOnly}</text>
<text text-anchor="start" x="1868" y="-1575.8" font-family="Times,serif" font-size="14.00">+ «static» LATEST_PHP_7_2 : string = &quot;7\.2\.34&quot; {readOnly}</text>
<text text-anchor="start" x="1868" y="-1556.8" font-family="Times,serif" font-size="14.00">+ «static» LATEST_PHP_7_3 : string = &quot;7\.3\.33&quot; {readOnly}</text>
<text text-anchor="start" x="1868" y="-1537.8" font-family="Times,serif" font-size="14.00">+ «static» LATEST_PHP_7_4 : string = &quot;7\.4\.33&quot; {readOnly}</text>
<text text-anchor="start" x="1868" y="-1518.8" font-family="Times,serif" font-size="14.00">+ «static» LATEST_PHP_8_0 : string = &quot;8\.0\.28&quot; {readOnly}</text>
<text text-anchor="start" x="1868" y="-1499.8" font-family="Times,serif" font-size="14.00">+ «static» LATEST_PHP_8_1 : string = &quot;8\.1\.17&quot; {readOnly}</text>
<text text-anchor="start" x="1868" y="-1480.8" font-family="Times,serif" font-size="14.00">+ «static» LATEST_PHP_8_2 : string = &quot;8\.2\.4&quot; {readOnly}</text>
<polygon fill="none" stroke="black" points="1863,-1466 1863,-1472 2309,-1472 2309,-1466 1863,-1466"/>
<polygon fill="none" stroke="black" points="1863,-1460 1863,-1466 2309,-1466 2309,-1460 1863,-1460"/>
</g>
<!-- Bartlett\\CompatInfoDb\\Domain\\ValueObject\\Extension&#45;&gt;Bartlett\\CompatInfoDb\\Domain\\Factory\\ExtensionVersionProviderInterface -->
<g id="edge1" class="edge">
<title>Bartlett\\CompatInfoDb\\Domain\\ValueObject\\Extension&#45;&gt;Bartlett\\CompatInfoDb\\Domain\\Factory\\ExtensionVersionProviderInterface</title>
<path fill="none" stroke="black" stroke-dasharray="5,2" d="M1819.21,-1610C1827.88,-1610 1836.41,-1610 1844.8,-1610"/>
<polygon fill="none" stroke="black" points="1844.96,-1613.5 1854.96,-1610 1844.96,-1606.5 1844.96,-1613.5"/>
</g>
<!-- Stringable -->
<g id="node12" class="node">
<title>Stringable</title>
<polygon fill="#fefece" stroke="transparent" points="2217.5,-894.5 1954.5,-894.5 1954.5,-821.5 2217.5,-821.5 2217.5,-894.5"/>
<polygon fill="#eeeeee" stroke="transparent" points="1963,-856 1963,-890 2210,-890 2210,-856 1963,-856"/>
<polygon fill="none" stroke="black" points="1963,-856 1963,-890 2210,-890 2210,-856 1963,-856"/>
<text text-anchor="start" x="2041.5" y="-876.8" font-family="Times,serif" font-weight="bold" font-size="14.00">«interface»</text>
<text text-anchor="start" x="2045" y="-862.8" font-family="Times,serif" font-weight="bold" font-size="14.00">Stringable</text>
<polygon fill="none" stroke="black" points="1963,-850 1963,-856 2210,-856 2210,-850 1963,-850"/>
<polygon fill="none" stroke="black" points="1963,-825 1963,-850 2210,-850 2210,-825 1963,-825"/>
<text text-anchor="start" x="1968" y="-833.8" font-family="Times,serif" font-size="14.00">+ «abstract» __toString() : string</text>
</g>
<!-- Bartlett\\CompatInfoDb\\Domain\\ValueObject\\Extension&#45;&gt;Stringable -->
<g id="edge2" class="edge">
<title>Bartlett\\CompatInfoDb\\Domain\\ValueObject\\Extension&#45;&gt;Stringable</title>
<path fill="none" stroke="black" stroke-dasharray="5,2" d="M1816.68,-1285.3C1820.15,-1282.56 1823.59,-1279.79 1827,-1277 1953.91,-1173.29 2035.51,-989.7 2068.43,-904.2"/>
<polygon fill="none" stroke="black" points="2071.73,-905.36 2072.02,-894.76 2065.19,-902.87 2071.73,-905.36"/>
</g>
<!-- Bartlett\\CompatInfoDb\\Domain\\ValueObject\\ExtVersionTrait -->
<g id="node5" class="node">
<title>Bartlett\\CompatInfoDb\\Domain\\ValueObject\\ExtVersionTrait</title>
<polygon fill="#fefece" stroke="transparent" points="1015.5,-1268 819.5,-1268 819.5,-1176 1015.5,-1176 1015.5,-1268"/>
<polygon fill="#eeeeee" stroke="transparent" points="827.5,-1230 827.5,-1264 1007.5,-1264 1007.5,-1230 827.5,-1230"/>
<polygon fill="none" stroke="black" points="827.5,-1230 827.5,-1264 1007.5,-1264 1007.5,-1230 827.5,-1230"/>
<text text-anchor="start" x="855.5" y="-1236.8" font-family="Times,serif" font-weight="bold" font-size="14.00">ExtVersionTrait</text>
<polygon fill="none" stroke="black" points="827.5,-1224 827.5,-1230 1007.5,-1230 1007.5,-1224 827.5,-1224"/>
<polygon fill="none" stroke="black" points="827.5,-1180 827.5,-1224 1007.5,-1224 1007.5,-1180 827.5,-1180"/>
<text text-anchor="start" x="832.5" y="-1207.8" font-family="Times,serif" font-size="14.00">+ getExtMin() : string</text>
<text text-anchor="start" x="832.5" y="-1188.8" font-family="Times,serif" font-size="14.00">+ getExtMax() : ?string</text>
</g>
<!-- Bartlett\\CompatInfoDb\\Domain\\ValueObject\\Function_ -->
<g id="node6" class="node">
<title>Bartlett\\CompatInfoDb\\Domain\\ValueObject\\Function_</title>
<polygon fill="#fefece" stroke="transparent" points="1726.5,-1158 108.5,-1158 108.5,-762 1726.5,-762 1726.5,-1158"/>
<polygon fill="#eeeeee" stroke="transparent" points="116.5,-1120 116.5,-1154 1718.5,-1154 1718.5,-1120 116.5,-1120"/>
<polygon fill="none" stroke="black" points="116.5,-1120 116.5,-1154 1718.5,-1154 1718.5,-1120 116.5,-1120"/>
<text text-anchor="start" x="878.5" y="-1126.8" font-family="Times,serif" font-weight="bold" font-size="14.00">Function_</text>
<polygon fill="none" stroke="black" points="116.5,-1114 116.5,-1120 1718.5,-1120 1718.5,-1114 116.5,-1114"/>
<polygon fill="none" stroke="black" points="116.5,-766 116.5,-1114 1718.5,-1114 1718.5,-766 116.5,-766"/>
<text text-anchor="start" x="121.5" y="-1097.8" font-family="Times,serif" font-size="14.00">+ __construct(name : string, declaringClass : string, extension : string, extMin : string, extMax : string, phpMin : string, phpMax : string, parameters : array, excludes : array, dependencies : array, flags : int, polyfill : string)</text>
<text text-anchor="start" x="121.5" y="-1078.8" font-family="Times,serif" font-size="14.00">+ getName() : string</text>
<text text-anchor="start" x="121.5" y="-1059.8" font-family="Times,serif" font-size="14.00">+ getDeclaringClass() : ?string</text>
<text text-anchor="start" x="121.5" y="-1040.8" font-family="Times,serif" font-size="14.00">+ getExtensionName() : string</text>
<text text-anchor="start" x="121.5" y="-1021.8" font-family="Times,serif" font-size="14.00">+ getParameters() : ?array</text>
<text text-anchor="start" x="121.5" y="-1002.8" font-family="Times,serif" font-size="14.00">+ getExcludes() : ?array</text>
<text text-anchor="start" x="121.5" y="-983.8" font-family="Times,serif" font-size="14.00">+ getDependencies() : array</text>
<text text-anchor="start" x="121.5" y="-964.8" font-family="Times,serif" font-size="14.00">+ isAbstract() : bool</text>
<text text-anchor="start" x="121.5" y="-945.8" font-family="Times,serif" font-size="14.00">+ isFinal() : bool</text>
<text text-anchor="start" x="121.5" y="-926.8" font-family="Times,serif" font-size="14.00">+ isStatic() : bool</text>
<text text-anchor="start" x="121.5" y="-907.8" font-family="Times,serif" font-size="14.00">+ isPublic() : bool</text>
<text text-anchor="start" x="121.5" y="-888.8" font-family="Times,serif" font-size="14.00">+ isProtected() : bool</text>
<text text-anchor="start" x="121.5" y="-869.8" font-family="Times,serif" font-size="14.00">+ isPrivate() : bool</text>
<text text-anchor="start" x="121.5" y="-850.8" font-family="Times,serif" font-size="14.00">+ getPolyfill() : ?string</text>
<text text-anchor="start" x="121.5" y="-831.8" font-family="Times,serif" font-size="14.00">+ getExtMin() : string</text>
<text text-anchor="start" x="121.5" y="-812.8" font-family="Times,serif" font-size="14.00">+ getExtMax() : ?string</text>
<text text-anchor="start" x="121.5" y="-793.8" font-family="Times,serif" font-size="14.00">+ getPhpMin() : string</text>
<text text-anchor="start" x="121.5" y="-774.8" font-family="Times,serif" font-size="14.00">+ getPhpMax() : ?string</text>
</g>
<!-- Bartlett\\CompatInfoDb\\Domain\\ValueObject\\IniEntry -->
<g id="node7" class="node">
<title>Bartlett\\CompatInfoDb\\Domain\\ValueObject\\IniEntry</title>
<polygon fill="#fefece" stroke="transparent" points="1350,-743.5 485,-743.5 485,-556.5 1350,-556.5 1350,-743.5"/>
<polygon fill="#eeeeee" stroke="transparent" points="493.5,-705 493.5,-739 1342.5,-739 1342.5,-705 493.5,-705"/>
<polygon fill="none" stroke="black" points="493.5,-705 493.5,-739 1342.5,-739 1342.5,-705 493.5,-705"/>
<text text-anchor="start" x="884.5" y="-711.8" font-family="Times,serif" font-weight="bold" font-size="14.00">IniEntry</text>
<polygon fill="none" stroke="black" points="493.5,-699 493.5,-705 1342.5,-705 1342.5,-699 493.5,-699"/>
<polygon fill="none" stroke="black" points="493.5,-560 493.5,-699 1342.5,-699 1342.5,-560 493.5,-560"/>
<text text-anchor="start" x="498.5" y="-682.8" font-family="Times,serif" font-size="14.00">+ __construct(name : string, extMin : string, extMax : string, phpMin : string, phpMax : string, dependencies : array)</text>
<text text-anchor="start" x="498.5" y="-663.8" font-family="Times,serif" font-size="14.00">+ getName() : string</text>
<text text-anchor="start" x="498.5" y="-644.8" font-family="Times,serif" font-size="14.00">+ getDependencies() : array</text>
<text text-anchor="start" x="498.5" y="-625.8" font-family="Times,serif" font-size="14.00">+ getExtMin() : string</text>
<text text-anchor="start" x="498.5" y="-606.8" font-family="Times,serif" font-size="14.00">+ getExtMax() : ?string</text>
<text text-anchor="start" x="498.5" y="-587.8" font-family="Times,serif" font-size="14.00">+ getPhpMin() : string</text>
<text text-anchor="start" x="498.5" y="-568.8" font-family="Times,serif" font-size="14.00">+ getPhpMax() : ?string</text>
</g>
<!-- Bartlett\\CompatInfoDb\\Domain\\ValueObject\\PhpVersionTrait -->
<g id="node8" class="node">
<title>Bartlett\\CompatInfoDb\\Domain\\ValueObject\\PhpVersionTrait</title>
<polygon fill="#fefece" stroke="transparent" points="1017,-538 818,-538 818,-446 1017,-446 1017,-538"/>
<polygon fill="#eeeeee" stroke="transparent" points="826.5,-500 826.5,-534 1009.5,-534 1009.5,-500 826.5,-500"/>
<polygon fill="none" stroke="black" points="826.5,-500 826.5,-534 1009.5,-534 1009.5,-500 826.5,-500"/>
<text text-anchor="start" x="853.5" y="-506.8" font-family="Times,serif" font-weight="bold" font-size="14.00">PhpVersionTrait</text>
<polygon fill="none" stroke="black" points="826.5,-494 826.5,-500 1009.5,-500 1009.5,-494 826.5,-494"/>
<polygon fill="none" stroke="black" points="826.5,-450 826.5,-494 1009.5,-494 1009.5,-450 826.5,-450"/>
<text text-anchor="start" x="831.5" y="-477.8" font-family="Times,serif" font-size="14.00">+ getPhpMin() : string</text>
<text text-anchor="start" x="831.5" y="-458.8" font-family="Times,serif" font-size="14.00">+ getPhpMax() : ?string</text>
</g>
<!-- Bartlett\\CompatInfoDb\\Domain\\ValueObject\\Platform -->
<g id="node9" class="node">
<title>Bartlett\\CompatInfoDb\\Domain\\ValueObject\\Platform</title>
<polygon fill="#fefece" stroke="transparent" points="1300,-428 535,-428 535,-260 1300,-260 1300,-428"/>
<polygon fill="#eeeeee" stroke="transparent" points="543.5,-390 543.5,-424 1292.5,-424 1292.5,-390 543.5,-390"/>
<polygon fill="none" stroke="black" points="543.5,-390 543.5,-424 1292.5,-424 1292.5,-390 543.5,-390"/>
<text text-anchor="start" x="883" y="-396.8" font-family="Times,serif" font-weight="bold" font-size="14.00">Platform</text>
<polygon fill="none" stroke="black" points="543.5,-384 543.5,-390 1292.5,-390 1292.5,-384 543.5,-384"/>
<polygon fill="none" stroke="black" points="543.5,-264 543.5,-384 1292.5,-384 1292.5,-264 543.5,-264"/>
<text text-anchor="start" x="548.5" y="-367.8" font-family="Times,serif" font-size="14.00">+ __construct(description : string, version : string, createdAt : DateTimeImmutable, extensions : array)</text>
<text text-anchor="start" x="548.5" y="-348.8" font-family="Times,serif" font-size="14.00">+ __toString() : string</text>
<text text-anchor="start" x="548.5" y="-329.8" font-family="Times,serif" font-size="14.00">+ getDescription() : string</text>
<text text-anchor="start" x="548.5" y="-310.8" font-family="Times,serif" font-size="14.00">+ getVersion() : string</text>
<text text-anchor="start" x="548.5" y="-291.8" font-family="Times,serif" font-size="14.00">+ getCreatedAt() : DateTimeImmutable</text>
<text text-anchor="start" x="548.5" y="-272.8" font-family="Times,serif" font-size="14.00">+ getExtensions() : array</text>
</g>
<!-- Bartlett\\CompatInfoDb\\Domain\\ValueObject\\Platform&#45;&gt;Stringable -->
<g id="edge3" class="edge">
<title>Bartlett\\CompatInfoDb\\Domain\\ValueObject\\Platform&#45;&gt;Stringable</title>
<path fill="none" stroke="black" stroke-dasharray="5,2" d="M1300.13,-309.19C1472.79,-311.16 1672.33,-339.7 1827,-437 1967.93,-525.65 2043.52,-722.11 2071.8,-811.77"/>
<polygon fill="none" stroke="black" points="2068.48,-812.87 2074.78,-821.39 2075.16,-810.8 2068.48,-812.87"/>
</g>
<!-- Bartlett\\CompatInfoDb\\Domain\\ValueObject\\Release -->
<g id="node10" class="node">
<title>Bartlett\\CompatInfoDb\\Domain\\ValueObject\\Release</title>
<polygon fill="#fefece" stroke="transparent" points="1428.5,-241.5 406.5,-241.5 406.5,-16.5 1428.5,-16.5 1428.5,-241.5"/>
<polygon fill="#eeeeee" stroke="transparent" points="414.5,-203 414.5,-237 1420.5,-237 1420.5,-203 414.5,-203"/>
<polygon fill="none" stroke="black" points="414.5,-203 414.5,-237 1420.5,-237 1420.5,-203 414.5,-203"/>
<text text-anchor="start" x="886.5" y="-209.8" font-family="Times,serif" font-weight="bold" font-size="14.00">Release</text>
<polygon fill="none" stroke="black" points="414.5,-197 414.5,-203 1420.5,-203 1420.5,-197 414.5,-197"/>
<polygon fill="none" stroke="black" points="414.5,-20 414.5,-197 1420.5,-197 1420.5,-20 414.5,-20"/>
<text text-anchor="start" x="419.5" y="-180.8" font-family="Times,serif" font-size="14.00">+ __construct(version : string, date : DateTimeImmutable, state : string, extMin : string, extMax : string, phpMin : string, phpMax : string)</text>
<text text-anchor="start" x="419.5" y="-161.8" font-family="Times,serif" font-size="14.00">+ getVersion() : string</text>
<text text-anchor="start" x="419.5" y="-142.8" font-family="Times,serif" font-size="14.00">+ getDate() : DateTimeImmutable</text>
<text text-anchor="start" x="419.5" y="-123.8" font-family="Times,serif" font-size="14.00">+ getState() : string</text>
<text text-anchor="start" x="419.5" y="-104.8" font-family="Times,serif" font-size="14.00">+ getDependencies() : array</text>
<text text-anchor="start" x="419.5" y="-85.8" font-family="Times,serif" font-size="14.00">+ getExtMin() : string</text>
<text text-anchor="start" x="419.5" y="-66.8" font-family="Times,serif" font-size="14.00">+ getExtMax() : ?string</text>
<text text-anchor="start" x="419.5" y="-47.8" font-family="Times,serif" font-size="14.00">+ getPhpMin() : string</text>
<text text-anchor="start" x="419.5" y="-28.8" font-family="Times,serif" font-size="14.00">+ getPhpMax() : ?string</text>
</g>
</g>
</svg>
