<?xml version="1.0" encoding="UTF-8" standalone="no"?>
<!DOCTYPE svg PUBLIC "-//W3C//DTD SVG 1.1//EN"
 "http://www.w3.org/Graphics/SVG/1.1/DTD/svg11.dtd">
<!-- Generated by graphviz version 2.43.0 (0)
 -->
<!-- Title: %3 Pages: 1 -->
<svg width="2676pt" height="516pt"
 viewBox="0.00 0.00 2676.00 516.00" xmlns="http://www.w3.org/2000/svg" xmlns:xlink="http://www.w3.org/1999/xlink">
<g id="graph0" class="graph" transform="scale(1 1) rotate(0) translate(4 512)">
<title>%3</title>
<g id="clust1" class="cluster">
<title>cluster_0</title>
<polygon fill="#66cd00" stroke="black" points="235,-8 235,-121 707,-121 707,-8 235,-8"/>
<text text-anchor="middle" x="471" y="-105.8" font-family="Times,serif" font-size="14.00">Bartlett\CompatInfoDb\Infrastructure\Framework\Composer</text>
</g>
<g id="clust2" class="cluster">
<title>cluster_1</title>
<polygon fill="#66cd00" stroke="black" points="8,-129 8,-376 934,-376 934,-129 8,-129"/>
<text text-anchor="middle" x="471" y="-360.8" font-family="Times,serif" font-size="14.00">Bartlett\CompatInfoDb\Infrastructure\Framework\Symfony\DependencyInjection</text>
</g>
<g id="clust3" class="cluster">
<title>cluster_2</title>
<polygon fill="transparent" stroke="black" points="954,-239 954,-500 2660,-500 2660,-239 954,-239"/>
<text text-anchor="middle" x="1807" y="-484.8" font-family="Times,serif" font-size="14.00">Symfony\Component\DependencyInjection\Extension</text>
</g>
<g id="clust4" class="cluster">
<title>cluster_3</title>
<polygon fill="transparent" stroke="black" points="1203.5,-118 1203.5,-231 1507.5,-231 1507.5,-118 1203.5,-118"/>
<text text-anchor="middle" x="1355.5" y="-215.8" font-family="Times,serif" font-size="14.00">Symfony\Component\Config\Definition</text>
</g>
<!-- Bartlett\\CompatInfoDb\\Infrastructure\\Framework\\Composer\\InstalledVersions -->
<g id="node1" class="node">
<title>Bartlett\\CompatInfoDb\\Infrastructure\\Framework\\Composer\\InstalledVersions</title>
<polygon fill="#fefece" stroke="transparent" points="699,-89.5 243,-89.5 243,-16.5 699,-16.5 699,-89.5"/>
<polygon fill="#eeeeee" stroke="transparent" points="251,-51 251,-85 691,-85 691,-51 251,-51"/>
<polygon fill="none" stroke="black" points="251,-51 251,-85 691,-85 691,-51 251,-51"/>
<text text-anchor="start" x="401.5" y="-57.8" font-family="Times,serif" font-weight="bold" font-size="14.00">InstalledVersions</text>
<polygon fill="none" stroke="black" points="251,-45 251,-51 691,-51 691,-45 251,-45"/>
<polygon fill="none" stroke="black" points="251,-20 251,-45 691,-45 691,-20 251,-20"/>
<text text-anchor="start" x="256" y="-28.8" font-family="Times,serif" font-size="14.00">+ «static» getPrettyVersion(packageName : string) : ?string</text>
</g>
<!-- Bartlett\\CompatInfoDb\\Infrastructure\\Framework\\Symfony\\DependencyInjection\\CompatInfoDbExtension -->
<g id="node2" class="node">
<title>Bartlett\\CompatInfoDb\\Infrastructure\\Framework\\Symfony\\DependencyInjection\\CompatInfoDbExtension</title>
<polygon fill="#fefece" stroke="transparent" points="844.5,-345 97.5,-345 97.5,-253 844.5,-253 844.5,-345"/>
<polygon fill="#eeeeee" stroke="transparent" points="106,-307 106,-341 837,-341 837,-307 106,-307"/>
<polygon fill="none" stroke="black" points="106,-307 106,-341 837,-341 837,-307 106,-307"/>
<text text-anchor="start" x="375" y="-313.8" font-family="Times,serif" font-weight="bold" font-size="14.00">CompatInfoDbExtension</text>
<polygon fill="none" stroke="black" points="106,-301 106,-307 837,-307 837,-301 106,-301"/>
<polygon fill="none" stroke="black" points="106,-257 106,-301 837,-301 837,-257 106,-257"/>
<text text-anchor="start" x="111" y="-284.8" font-family="Times,serif" font-size="14.00">+ getNamespace() : string</text>
<text text-anchor="start" x="111" y="-265.8" font-family="Times,serif" font-size="14.00">+ load(configs : array, container : Symfony\Component\DependencyInjection\ContainerBuilder) : void</text>
</g>
<!-- Symfony\\Component\\DependencyInjection\\Extension\\Extension -->
<g id="node4" class="node">
<title>Symfony\\Component\\DependencyInjection\\Extension\\Extension</title>
<polygon fill="#fefece" stroke="transparent" points="1749,-395.5 962,-395.5 962,-246.5 1749,-246.5 1749,-395.5"/>
<polygon fill="#eeeeee" stroke="transparent" points="970.5,-357 970.5,-391 1741.5,-391 1741.5,-357 970.5,-357"/>
<polygon fill="none" stroke="black" points="970.5,-357 970.5,-391 1741.5,-391 1741.5,-357 970.5,-357"/>
<text text-anchor="start" x="1314" y="-377.8" font-family="Times,serif" font-weight="bold" font-size="14.00">«abstract»</text>
<text text-anchor="start" x="1316.5" y="-363.8" font-family="Times,serif" font-weight="bold" font-size="14.00">Extension</text>
<polygon fill="none" stroke="black" points="970.5,-351 970.5,-357 1741.5,-357 1741.5,-351 970.5,-351"/>
<polygon fill="none" stroke="black" points="970.5,-250 970.5,-351 1741.5,-351 1741.5,-250 970.5,-250"/>
<text text-anchor="start" x="975.5" y="-334.8" font-family="Times,serif" font-size="14.00">+ getXsdValidationBasePath()</text>
<text text-anchor="start" x="975.5" y="-315.8" font-family="Times,serif" font-size="14.00">+ getNamespace()</text>
<text text-anchor="start" x="975.5" y="-296.8" font-family="Times,serif" font-size="14.00">+ getAlias() : string</text>
<text text-anchor="start" x="975.5" y="-277.8" font-family="Times,serif" font-size="14.00">+ getConfiguration(config : array, container : Symfony\Component\DependencyInjection\ContainerBuilder)</text>
<text text-anchor="start" x="975.5" y="-258.8" font-family="Times,serif" font-size="14.00">+ getProcessedConfigs() : array</text>
</g>
<!-- Bartlett\\CompatInfoDb\\Infrastructure\\Framework\\Symfony\\DependencyInjection\\CompatInfoDbExtension&#45;&gt;Symfony\\Component\\DependencyInjection\\Extension\\Extension -->
<g id="edge3" class="edge">
<title>Bartlett\\CompatInfoDb\\Infrastructure\\Framework\\Symfony\\DependencyInjection\\CompatInfoDbExtension&#45;&gt;Symfony\\Component\\DependencyInjection\\Extension\\Extension</title>
<path fill="none" stroke="black" d="M844.66,-308.29C880.04,-309.17 916.02,-310.07 951.67,-310.96"/>
<polygon fill="none" stroke="black" points="951.63,-314.46 961.71,-311.21 951.8,-307.46 951.63,-314.46"/>
</g>
<!-- Bartlett\\CompatInfoDb\\Infrastructure\\Framework\\Symfony\\DependencyInjection\\Configuration -->
<g id="node3" class="node">
<title>Bartlett\\CompatInfoDb\\Infrastructure\\Framework\\Symfony\\DependencyInjection\\Configuration</title>
<polygon fill="#fefece" stroke="transparent" points="926,-235 16,-235 16,-137 926,-137 926,-235"/>
<polygon fill="#eeeeee" stroke="transparent" points="24,-197 24,-231 918,-231 918,-197 24,-197"/>
<polygon fill="none" stroke="black" points="24,-197 24,-231 918,-231 918,-197 24,-197"/>
<text text-anchor="start" x="416" y="-203.8" font-family="Times,serif" font-weight="bold" font-size="14.00">Configuration</text>
<polygon fill="none" stroke="black" points="24,-172 24,-197 918,-197 918,-172 24,-172"/>
<text text-anchor="start" x="29" y="-180.8" font-family="Times,serif" font-size="14.00">+ «static» DEFAULT_PROXY_DIR : string = &quot;\%kernel\.cache_dir\%\/php\&#45;compatinfo\&#45;db\/\%version\%\/proxies&quot; {readOnly}</text>
<polygon fill="none" stroke="black" points="24,-166 24,-172 918,-172 918,-166 24,-166"/>
<polygon fill="none" stroke="black" points="24,-141 24,-166 918,-166 918,-141 24,-141"/>
<text text-anchor="start" x="29" y="-149.8" font-family="Times,serif" font-size="14.00">+ getConfigTreeBuilder() : Symfony\Component\Config\Definition\Builder\TreeBuilder</text>
</g>
<!-- Symfony\\Component\\Config\\Definition\\ConfigurationInterface -->
<g id="node7" class="node">
<title>Symfony\\Component\\Config\\Definition\\ConfigurationInterface</title>
<polygon fill="#fefece" stroke="transparent" points="1499.5,-199.5 1211.5,-199.5 1211.5,-126.5 1499.5,-126.5 1499.5,-199.5"/>
<polygon fill="#eeeeee" stroke="transparent" points="1219.5,-161 1219.5,-195 1491.5,-195 1491.5,-161 1219.5,-161"/>
<polygon fill="none" stroke="black" points="1219.5,-161 1219.5,-195 1491.5,-195 1491.5,-161 1219.5,-161"/>
<text text-anchor="start" x="1310.5" y="-181.8" font-family="Times,serif" font-weight="bold" font-size="14.00">«interface»</text>
<text text-anchor="start" x="1264" y="-167.8" font-family="Times,serif" font-weight="bold" font-size="14.00">ConfigurationInterface</text>
<polygon fill="none" stroke="black" points="1219.5,-155 1219.5,-161 1491.5,-161 1491.5,-155 1219.5,-155"/>
<polygon fill="none" stroke="black" points="1219.5,-130 1219.5,-155 1491.5,-155 1491.5,-130 1219.5,-130"/>
<text text-anchor="start" x="1224.5" y="-138.8" font-family="Times,serif" font-size="14.00">+ «abstract» getConfigTreeBuilder()</text>
</g>
<!-- Bartlett\\CompatInfoDb\\Infrastructure\\Framework\\Symfony\\DependencyInjection\\Configuration&#45;&gt;Symfony\\Component\\Config\\Definition\\ConfigurationInterface -->
<g id="edge4" class="edge">
<title>Bartlett\\CompatInfoDb\\Infrastructure\\Framework\\Symfony\\DependencyInjection\\Configuration&#45;&gt;Symfony\\Component\\Config\\Definition\\ConfigurationInterface</title>
<path fill="none" stroke="black" stroke-dasharray="5,2" d="M926.18,-174.16C1025.4,-171.58 1123.76,-169.01 1201.15,-167"/>
<polygon fill="none" stroke="black" points="1201.54,-170.49 1211.44,-166.73 1201.35,-163.49 1201.54,-170.49"/>
</g>
<!-- Symfony\\Component\\DependencyInjection\\Extension\\ExtensionInterface -->
<g id="node5" class="node">
<title>Symfony\\Component\\DependencyInjection\\Extension\\ExtensionInterface</title>
<polygon fill="#fefece" stroke="transparent" points="2610.5,-377 1826.5,-377 1826.5,-247 2610.5,-247 2610.5,-377"/>
<polygon fill="#eeeeee" stroke="transparent" points="1834.5,-339 1834.5,-373 2602.5,-373 2602.5,-339 1834.5,-339"/>
<polygon fill="none" stroke="black" points="1834.5,-339 1834.5,-373 2602.5,-373 2602.5,-339 1834.5,-339"/>
<text text-anchor="start" x="2173.5" y="-359.8" font-family="Times,serif" font-weight="bold" font-size="14.00">«interface»</text>
<text text-anchor="start" x="2143" y="-345.8" font-family="Times,serif" font-weight="bold" font-size="14.00">ExtensionInterface</text>
<polygon fill="none" stroke="black" points="1834.5,-333 1834.5,-339 2602.5,-339 2602.5,-333 1834.5,-333"/>
<polygon fill="none" stroke="black" points="1834.5,-251 1834.5,-333 2602.5,-333 2602.5,-251 1834.5,-251"/>
<text text-anchor="start" x="1839.5" y="-316.8" font-family="Times,serif" font-size="14.00">+ «abstract» load(configs : array, container : Symfony\Component\DependencyInjection\ContainerBuilder)</text>
<text text-anchor="start" x="1839.5" y="-297.8" font-family="Times,serif" font-size="14.00">+ «abstract» getNamespace()</text>
<text text-anchor="start" x="1839.5" y="-278.8" font-family="Times,serif" font-size="14.00">+ «abstract» getXsdValidationBasePath()</text>
<text text-anchor="start" x="1839.5" y="-259.8" font-family="Times,serif" font-size="14.00">+ «abstract» getAlias()</text>
</g>
<!-- Symfony\\Component\\DependencyInjection\\Extension\\Extension&#45;&gt;Symfony\\Component\\DependencyInjection\\Extension\\ExtensionInterface -->
<g id="edge1" class="edge">
<title>Symfony\\Component\\DependencyInjection\\Extension\\Extension&#45;&gt;Symfony\\Component\\DependencyInjection\\Extension\\ExtensionInterface</title>
<path fill="none" stroke="black" stroke-dasharray="5,2" d="M1749.21,-316.9C1771.42,-316.66 1793.76,-316.43 1816.01,-316.2"/>
<polygon fill="none" stroke="black" points="1816.26,-319.69 1826.22,-316.09 1816.18,-312.69 1816.26,-319.69"/>
</g>
<!-- Symfony\\Component\\DependencyInjection\\Extension\\ConfigurationExtensionInterface -->
<g id="node6" class="node">
<title>Symfony\\Component\\DependencyInjection\\Extension\\ConfigurationExtensionInterface</title>
<polygon fill="#fefece" stroke="transparent" points="2652,-468.5 1785,-468.5 1785,-395.5 2652,-395.5 2652,-468.5"/>
<polygon fill="#eeeeee" stroke="transparent" points="1793.5,-430 1793.5,-464 2644.5,-464 2644.5,-430 1793.5,-430"/>
<polygon fill="none" stroke="black" points="1793.5,-430 1793.5,-464 2644.5,-464 2644.5,-430 1793.5,-430"/>
<text text-anchor="start" x="2174" y="-450.8" font-family="Times,serif" font-weight="bold" font-size="14.00">«interface»</text>
<text text-anchor="start" x="2088.5" y="-436.8" font-family="Times,serif" font-weight="bold" font-size="14.00">ConfigurationExtensionInterface</text>
<polygon fill="none" stroke="black" points="1793.5,-424 1793.5,-430 2644.5,-430 2644.5,-424 1793.5,-424"/>
<polygon fill="none" stroke="black" points="1793.5,-399 1793.5,-424 2644.5,-424 2644.5,-399 1793.5,-399"/>
<text text-anchor="start" x="1798.5" y="-407.8" font-family="Times,serif" font-size="14.00">+ «abstract» getConfiguration(config : array, container : Symfony\Component\DependencyInjection\ContainerBuilder)</text>
</g>
<!-- Symfony\\Component\\DependencyInjection\\Extension\\Extension&#45;&gt;Symfony\\Component\\DependencyInjection\\Extension\\ConfigurationExtensionInterface -->
<g id="edge2" class="edge">
<title>Symfony\\Component\\DependencyInjection\\Extension\\Extension&#45;&gt;Symfony\\Component\\DependencyInjection\\Extension\\ConfigurationExtensionInterface</title>
<path fill="none" stroke="black" stroke-dasharray="5,2" d="M1749.28,-381.29C1761.32,-382.91 1773.25,-384.48 1785,-386 1806.85,-388.82 1829.35,-391.59 1852.05,-394.29"/>
<polygon fill="none" stroke="black" points="1851.79,-397.79 1862.14,-395.49 1852.62,-390.84 1851.79,-397.79"/>
</g>
</g>
</svg>
