<?xml version="1.0" encoding="UTF-8" standalone="no"?>
<!DOCTYPE svg PUBLIC "-//W3C//DTD SVG 1.1//EN"
 "http://www.w3.org/Graphics/SVG/1.1/DTD/svg11.dtd">
<!-- Generated by graphviz version 2.43.0 (0)
 -->
<!-- Title: %3 Pages: 1 -->
<svg width="1458pt" height="294pt"
 viewBox="0.00 0.00 1458.00 294.00" xmlns="http://www.w3.org/2000/svg" xmlns:xlink="http://www.w3.org/1999/xlink">
<g id="graph0" class="graph" transform="scale(1 1) rotate(0) translate(4 290)">
<title>%3</title>
<g id="clust1" class="cluster">
<title>cluster_0</title>
<polygon fill="#66cd00" stroke="black" points="8,-8 8,-139 675,-139 675,-8 8,-8"/>
<text text-anchor="middle" x="341.5" y="-123.8" font-family="Times,serif" font-size="14.00">Bartlett\CompatInfoDb\Infrastructure\Bus\Command</text>
</g>
<g id="clust2" class="cluster">
<title>cluster_1</title>
<polygon fill="transparent" stroke="black" points="695,-17 695,-130 1442,-130 1442,-17 695,-17"/>
<text text-anchor="middle" x="1068.5" y="-114.8" font-family="Times,serif" font-size="14.00">Bartlett\CompatInfoDb\Application\Command</text>
</g>
<g id="clust3" class="cluster">
<title>cluster_2</title>
<polygon fill="#66cd00" stroke="black" points="30,-147 30,-278 653,-278 653,-147 30,-147"/>
<text text-anchor="middle" x="341.5" y="-262.8" font-family="Times,serif" font-size="14.00">Bartlett\CompatInfoDb\Infrastructure\Bus\Query</text>
</g>
<g id="clust4" class="cluster">
<title>cluster_3</title>
<polygon fill="transparent" stroke="black" points="741,-156 741,-269 1396,-269 1396,-156 741,-156"/>
<text text-anchor="middle" x="1068.5" y="-253.8" font-family="Times,serif" font-size="14.00">Bartlett\CompatInfoDb\Application\Query</text>
</g>
<!-- Bartlett\\CompatInfoDb\\Infrastructure\\Bus\\Command\\MessengerCommandBus -->
<g id="node1" class="node">
<title>Bartlett\\CompatInfoDb\\Infrastructure\\Bus\\Command\\MessengerCommandBus</title>
<polygon fill="#fefece" stroke="transparent" points="667,-108 16,-108 16,-16 667,-16 667,-108"/>
<polygon fill="#eeeeee" stroke="transparent" points="24.5,-70 24.5,-104 659.5,-104 659.5,-70 24.5,-70"/>
<polygon fill="none" stroke="black" points="24.5,-70 24.5,-104 659.5,-104 659.5,-70 24.5,-70"/>
<text text-anchor="start" x="243" y="-76.8" font-family="Times,serif" font-weight="bold" font-size="14.00">MessengerCommandBus</text>
<polygon fill="none" stroke="black" points="24.5,-64 24.5,-70 659.5,-70 659.5,-64 24.5,-64"/>
<polygon fill="none" stroke="black" points="24.5,-20 24.5,-64 659.5,-64 659.5,-20 24.5,-20"/>
<text text-anchor="start" x="29.5" y="-47.8" font-family="Times,serif" font-size="14.00">+ __construct(commandBus : Symfony\Component\Messenger\MessageBusInterface)</text>
<text text-anchor="start" x="29.5" y="-28.8" font-family="Times,serif" font-size="14.00">+ handle(command : Bartlett\CompatInfoDb\Application\Command\CommandInterface)</text>
</g>
<!-- Bartlett\\CompatInfoDb\\Application\\Command\\CommandBusInterface -->
<g id="node2" class="node">
<title>Bartlett\\CompatInfoDb\\Application\\Command\\CommandBusInterface</title>
<polygon fill="#fefece" stroke="transparent" points="1434,-98.5 703,-98.5 703,-25.5 1434,-25.5 1434,-98.5"/>
<polygon fill="#eeeeee" stroke="transparent" points="711.5,-60 711.5,-94 1426.5,-94 1426.5,-60 711.5,-60"/>
<polygon fill="none" stroke="black" points="711.5,-60 711.5,-94 1426.5,-94 1426.5,-60 711.5,-60"/>
<text text-anchor="start" x="1024" y="-80.8" font-family="Times,serif" font-weight="bold" font-size="14.00">«interface»</text>
<text text-anchor="start" x="977" y="-66.8" font-family="Times,serif" font-weight="bold" font-size="14.00">CommandBusInterface</text>
<polygon fill="none" stroke="black" points="711.5,-54 711.5,-60 1426.5,-60 1426.5,-54 711.5,-54"/>
<polygon fill="none" stroke="black" points="711.5,-29 711.5,-54 1426.5,-54 1426.5,-29 711.5,-29"/>
<text text-anchor="start" x="716.5" y="-37.8" font-family="Times,serif" font-size="14.00">+ «abstract» handle(command : Bartlett\CompatInfoDb\Application\Command\CommandInterface)</text>
</g>
<!-- Bartlett\\CompatInfoDb\\Infrastructure\\Bus\\Command\\MessengerCommandBus&#45;&gt;Bartlett\\CompatInfoDb\\Application\\Command\\CommandBusInterface -->
<g id="edge1" class="edge">
<title>Bartlett\\CompatInfoDb\\Infrastructure\\Bus\\Command\\MessengerCommandBus&#45;&gt;Bartlett\\CompatInfoDb\\Application\\Command\\CommandBusInterface</title>
<path fill="none" stroke="black" stroke-dasharray="5,2" d="M667.09,-62C675.63,-62 684.19,-62 692.76,-62"/>
<polygon fill="none" stroke="black" points="692.82,-65.5 702.82,-62 692.82,-58.5 692.82,-65.5"/>
</g>
<!-- Bartlett\\CompatInfoDb\\Infrastructure\\Bus\\Query\\MessengerQueryBus -->
<g id="node3" class="node">
<title>Bartlett\\CompatInfoDb\\Infrastructure\\Bus\\Query\\MessengerQueryBus</title>
<polygon fill="#fefece" stroke="transparent" points="645,-247 38,-247 38,-155 645,-155 645,-247"/>
<polygon fill="#eeeeee" stroke="transparent" points="46.5,-209 46.5,-243 637.5,-243 637.5,-209 46.5,-209"/>
<polygon fill="none" stroke="black" points="46.5,-209 46.5,-243 637.5,-243 637.5,-209 46.5,-209"/>
<text text-anchor="start" x="259" y="-215.8" font-family="Times,serif" font-weight="bold" font-size="14.00">MessengerQueryBus</text>
<polygon fill="none" stroke="black" points="46.5,-203 46.5,-209 637.5,-209 637.5,-203 46.5,-203"/>
<polygon fill="none" stroke="black" points="46.5,-159 46.5,-203 637.5,-203 637.5,-159 46.5,-159"/>
<text text-anchor="start" x="51.5" y="-186.8" font-family="Times,serif" font-size="14.00">+ __construct(queryBus : Symfony\Component\Messenger\MessageBusInterface)</text>
<text text-anchor="start" x="51.5" y="-167.8" font-family="Times,serif" font-size="14.00">+ query(query : Bartlett\CompatInfoDb\Application\Query\QueryInterface)</text>
</g>
<!-- Bartlett\\CompatInfoDb\\Application\\Query\\QueryBusInterface -->
<g id="node4" class="node">
<title>Bartlett\\CompatInfoDb\\Application\\Query\\QueryBusInterface</title>
<polygon fill="#fefece" stroke="transparent" points="1388,-237.5 749,-237.5 749,-164.5 1388,-164.5 1388,-237.5"/>
<polygon fill="#eeeeee" stroke="transparent" points="757.5,-199 757.5,-233 1380.5,-233 1380.5,-199 757.5,-199"/>
<polygon fill="none" stroke="black" points="757.5,-199 757.5,-233 1380.5,-233 1380.5,-199 757.5,-199"/>
<text text-anchor="start" x="1024" y="-219.8" font-family="Times,serif" font-weight="bold" font-size="14.00">«interface»</text>
<text text-anchor="start" x="993.5" y="-205.8" font-family="Times,serif" font-weight="bold" font-size="14.00">QueryBusInterface</text>
<polygon fill="none" stroke="black" points="757.5,-193 757.5,-199 1380.5,-199 1380.5,-193 757.5,-193"/>
<polygon fill="none" stroke="black" points="757.5,-168 757.5,-193 1380.5,-193 1380.5,-168 757.5,-168"/>
<text text-anchor="start" x="762.5" y="-176.8" font-family="Times,serif" font-size="14.00">+ «abstract» query(query : Bartlett\CompatInfoDb\Application\Query\QueryInterface)</text>
</g>
<!-- Bartlett\\CompatInfoDb\\Infrastructure\\Bus\\Query\\MessengerQueryBus&#45;&gt;Bartlett\\CompatInfoDb\\Application\\Query\\QueryBusInterface -->
<g id="edge2" class="edge">
<title>Bartlett\\CompatInfoDb\\Infrastructure\\Bus\\Query\\MessengerQueryBus&#45;&gt;Bartlett\\CompatInfoDb\\Application\\Query\\QueryBusInterface</title>
<path fill="none" stroke="black" stroke-dasharray="5,2" d="M645.24,-201C676.16,-201 707.68,-201 738.85,-201"/>
<polygon fill="none" stroke="black" points="738.96,-204.5 748.96,-201 738.96,-197.5 738.96,-204.5"/>
</g>
</g>
</svg>
