<?xml version="1.0" encoding="UTF-8" standalone="no"?>
<!DOCTYPE svg PUBLIC "-//W3C//DTD SVG 1.1//EN"
 "http://www.w3.org/Graphics/SVG/1.1/DTD/svg11.dtd">
<!-- Generated by graphviz version 2.43.0 (0)
 -->
<!-- Title: %3 Pages: 1 -->
<svg width="6176pt" height="1080pt"
 viewBox="0.00 0.00 6176.00 1080.00" xmlns="http://www.w3.org/2000/svg" xmlns:xlink="http://www.w3.org/1999/xlink">
<g id="graph0" class="graph" transform="scale(1 1) rotate(0) translate(4 1076)">
<title>%3</title>
<g id="clust1" class="cluster">
<title>cluster_0</title>
<polygon fill="#cd661d" stroke="black" points="8,-818 8,-1064 6160,-1064 6160,-818 8,-818"/>
<text text-anchor="middle" x="3084" y="-1048.8" font-family="Times,serif" font-size="14.00">Bartlett\CompatInfoDb\Presentation\Console\Command</text>
</g>
<g id="clust2" class="cluster">
<title>cluster_1</title>
<polygon fill="transparent" stroke="black" points="886,-8 886,-810 2114,-810 2114,-8 886,-8"/>
<text text-anchor="middle" x="1500" y="-794.8" font-family="Times,serif" font-size="14.00">Symfony\Component\Console\Command</text>
</g>
<!-- Bartlett\\CompatInfoDb\\Presentation\\Console\\Command\\BuildCommand -->
<g id="node1" class="node">
<title>Bartlett\\CompatInfoDb\\Presentation\\Console\\Command\\BuildCommand</title>
<polygon fill="#fefece" stroke="transparent" points="408,-1023.5 16,-1023.5 16,-944.5 408,-944.5 408,-1023.5"/>
<polygon fill="#eeeeee" stroke="transparent" points="24,-985 24,-1019 400,-1019 400,-985 24,-985"/>
<polygon fill="none" stroke="black" points="24,-985 24,-1019 400,-1019 400,-985 24,-985"/>
<text text-anchor="start" x="150.5" y="-991.8" font-family="Times,serif" font-weight="bold" font-size="14.00">BuildCommand</text>
<polygon fill="none" stroke="black" points="24,-960 24,-985 400,-985 400,-960 24,-960"/>
<text text-anchor="start" x="29" y="-968.8" font-family="Times,serif" font-size="14.00">+ «static» NAME : string = &quot;db\:build&quot; {readOnly}</text>
<polygon fill="none" stroke="black" points="24,-954 24,-960 400,-960 400,-954 24,-954"/>
<polygon fill="none" stroke="black" points="24,-948 24,-954 400,-954 400,-948 24,-948"/>
</g>
<!-- Bartlett\\CompatInfoDb\\Presentation\\Console\\Command\\AbstractCommand -->
<g id="node2" class="node">
<title>Bartlett\\CompatInfoDb\\Presentation\\Console\\Command\\AbstractCommand</title>
<polygon fill="#fefece" stroke="transparent" points="2132.5,-899 867.5,-899 867.5,-826 2132.5,-826 2132.5,-899"/>
<polygon fill="#eeeeee" stroke="transparent" points="876,-860.5 876,-894.5 2125,-894.5 2125,-860.5 876,-860.5"/>
<polygon fill="none" stroke="black" points="876,-860.5 876,-894.5 2125,-894.5 2125,-860.5 876,-860.5"/>
<text text-anchor="start" x="1458.5" y="-881.3" font-family="Times,serif" font-weight="bold" font-size="14.00">«abstract»</text>
<text text-anchor="start" x="1427" y="-867.3" font-family="Times,serif" font-weight="bold" font-size="14.00">AbstractCommand</text>
<polygon fill="none" stroke="black" points="876,-854.5 876,-860.5 2125,-860.5 2125,-854.5 876,-854.5"/>
<polygon fill="none" stroke="black" points="876,-829.5 876,-854.5 2125,-854.5 2125,-829.5 876,-829.5"/>
<text text-anchor="start" x="881" y="-838.3" font-family="Times,serif" font-size="14.00">+ __construct(commandBus : Bartlett\CompatInfoDb\Application\Command\CommandBusInterface, queryBus : Bartlett\CompatInfoDb\Application\Query\QueryBusInterface)</text>
</g>
<!-- Bartlett\\CompatInfoDb\\Presentation\\Console\\Command\\BuildCommand&#45;&gt;Bartlett\\CompatInfoDb\\Presentation\\Console\\Command\\AbstractCommand -->
<g id="edge2" class="edge">
<title>Bartlett\\CompatInfoDb\\Presentation\\Console\\Command\\BuildCommand&#45;&gt;Bartlett\\CompatInfoDb\\Presentation\\Console\\Command\\AbstractCommand</title>
<path fill="none" stroke="black" d="M363.99,-944.5C381.78,-940.86 399.74,-937.57 417,-935 558.88,-913.85 712.14,-898.96 857.47,-888.47"/>
<polygon fill="none" stroke="black" points="857.76,-891.96 867.48,-887.76 857.26,-884.98 857.76,-891.96"/>
</g>
<!-- Bartlett\\CompatInfoDb\\Presentation\\Console\\Command\\CommandInterface -->
<g id="node3" class="node">
<title>Bartlett\\CompatInfoDb\\Presentation\\Console\\Command\\CommandInterface</title>
<polygon fill="#fefece" stroke="transparent" points="2325.5,-889.5 2150.5,-889.5 2150.5,-835.5 2325.5,-835.5 2325.5,-889.5"/>
<polygon fill="#eeeeee" stroke="transparent" points="2159,-851.5 2159,-885.5 2318,-885.5 2318,-851.5 2159,-851.5"/>
<polygon fill="none" stroke="black" points="2159,-851.5 2159,-885.5 2318,-885.5 2318,-851.5 2159,-851.5"/>
<text text-anchor="start" x="2193.5" y="-872.3" font-family="Times,serif" font-weight="bold" font-size="14.00">«interface»</text>
<text text-anchor="start" x="2162" y="-858.3" font-family="Times,serif" font-weight="bold" font-size="14.00">CommandInterface</text>
<polygon fill="none" stroke="black" points="2159,-845.5 2159,-851.5 2318,-851.5 2318,-845.5 2159,-845.5"/>
<polygon fill="none" stroke="black" points="2159,-839.5 2159,-845.5 2318,-845.5 2318,-839.5 2159,-839.5"/>
</g>
<!-- Bartlett\\CompatInfoDb\\Presentation\\Console\\Command\\BuildCommand&#45;&gt;Bartlett\\CompatInfoDb\\Presentation\\Console\\Command\\CommandInterface -->
<g id="edge3" class="edge">
<title>Bartlett\\CompatInfoDb\\Presentation\\Console\\Command\\BuildCommand&#45;&gt;Bartlett\\CompatInfoDb\\Presentation\\Console\\Command\\CommandInterface</title>
<path fill="none" stroke="black" stroke-dasharray="5,2" d="M359.97,-944.5C379.05,-940.67 398.41,-937.34 417,-935 797.4,-887.03 1765.31,-970.48 2142,-899 2150.28,-897.43 2158.79,-895.22 2167.16,-892.67"/>
<polygon fill="none" stroke="black" points="2168.45,-895.93 2176.89,-889.52 2166.3,-889.26 2168.45,-895.93"/>
</g>
<!-- Symfony\\Component\\Console\\Command\\Command -->
<g id="node12" class="node">
<title>Symfony\\Component\\Console\\Command\\Command</title>
<polygon fill="#fefece" stroke="transparent" points="2105.5,-779 894.5,-779 894.5,-16 2105.5,-16 2105.5,-779"/>
<polygon fill="#eeeeee" stroke="transparent" points="903,-740.5 903,-774.5 2098,-774.5 2098,-740.5 903,-740.5"/>
<polygon fill="none" stroke="black" points="903,-740.5 903,-774.5 2098,-774.5 2098,-740.5 903,-740.5"/>
<text text-anchor="start" x="1460.5" y="-747.3" font-family="Times,serif" font-weight="bold" font-size="14.00">Command</text>
<polygon fill="none" stroke="black" points="903,-677.5 903,-740.5 2098,-740.5 2098,-677.5 903,-677.5"/>
<text text-anchor="start" x="908" y="-724.3" font-family="Times,serif" font-size="14.00">+ «static» SUCCESS : int = 0 {readOnly}</text>
<text text-anchor="start" x="908" y="-705.3" font-family="Times,serif" font-size="14.00">+ «static» FAILURE : int = 1 {readOnly}</text>
<text text-anchor="start" x="908" y="-686.3" font-family="Times,serif" font-size="14.00">+ «static» INVALID : int = 2 {readOnly}</text>
<polygon fill="none" stroke="black" points="903,-671.5 903,-677.5 2098,-677.5 2098,-671.5 903,-671.5"/>
<polygon fill="none" stroke="black" points="903,-19.5 903,-671.5 2098,-671.5 2098,-19.5 903,-19.5"/>
<text text-anchor="start" x="908" y="-655.3" font-family="Times,serif" font-size="14.00">+ «static» getDefaultName() : ?string</text>
<text text-anchor="start" x="908" y="-636.3" font-family="Times,serif" font-size="14.00">+ «static» getDefaultDescription() : ?string</text>
<text text-anchor="start" x="908" y="-617.3" font-family="Times,serif" font-size="14.00">+ __construct(name : string = «unknown»)</text>
<text text-anchor="start" x="908" y="-598.3" font-family="Times,serif" font-size="14.00">+ ignoreValidationErrors()</text>
<text text-anchor="start" x="908" y="-579.3" font-family="Times,serif" font-size="14.00">+ setApplication(application : Symfony\Component\Console\Application = «unknown»)</text>
<text text-anchor="start" x="908" y="-560.3" font-family="Times,serif" font-size="14.00">+ setHelperSet(helperSet : Symfony\Component\Console\Helper\HelperSet)</text>
<text text-anchor="start" x="908" y="-541.3" font-family="Times,serif" font-size="14.00">+ getHelperSet() : ?Symfony\Component\Console\Helper\HelperSet</text>
<text text-anchor="start" x="908" y="-522.3" font-family="Times,serif" font-size="14.00">+ getApplication() : ?Symfony\Component\Console\Application</text>
<text text-anchor="start" x="908" y="-503.3" font-family="Times,serif" font-size="14.00">+ isEnabled()</text>
<text text-anchor="start" x="908" y="-484.3" font-family="Times,serif" font-size="14.00">+ run(input : Symfony\Component\Console\Input\InputInterface, output : Symfony\Component\Console\Output\OutputInterface) : int</text>
<text text-anchor="start" x="908" y="-465.3" font-family="Times,serif" font-size="14.00">+ complete(input : Symfony\Component\Console\Completion\CompletionInput, suggestions : Symfony\Component\Console\Completion\CompletionSuggestions) : void</text>
<text text-anchor="start" x="908" y="-446.3" font-family="Times,serif" font-size="14.00">+ setCode(code : callable) : static</text>
<text text-anchor="start" x="908" y="-427.3" font-family="Times,serif" font-size="14.00">+ mergeApplicationDefinition(mergeArgs : bool = true)</text>
<text text-anchor="start" x="908" y="-408.3" font-family="Times,serif" font-size="14.00">+ setDefinition(definition) : static</text>
<text text-anchor="start" x="908" y="-389.3" font-family="Times,serif" font-size="14.00">+ getDefinition() : Symfony\Component\Console\Input\InputDefinition</text>
<text text-anchor="start" x="908" y="-370.3" font-family="Times,serif" font-size="14.00">+ getNativeDefinition() : Symfony\Component\Console\Input\InputDefinition</text>
<text text-anchor="start" x="908" y="-351.3" font-family="Times,serif" font-size="14.00">+ addArgument(name : string, mode : int = «unknown», description : string = &#39;&#39;, default : mixed = «unknown») : static</text>
<text text-anchor="start" x="908" y="-332.3" font-family="Times,serif" font-size="14.00">+ addOption(name : string, shortcut = «unknown», mode : int = «unknown», description : string = &#39;&#39;, default : mixed = «unknown») : static</text>
<text text-anchor="start" x="908" y="-313.3" font-family="Times,serif" font-size="14.00">+ setName(name : string) : static</text>
<text text-anchor="start" x="908" y="-294.3" font-family="Times,serif" font-size="14.00">+ setProcessTitle(title : string) : static</text>
<text text-anchor="start" x="908" y="-275.3" font-family="Times,serif" font-size="14.00">+ getName() : ?string</text>
<text text-anchor="start" x="908" y="-256.3" font-family="Times,serif" font-size="14.00">+ setHidden(hidden : bool = true) : static</text>
<text text-anchor="start" x="908" y="-237.3" font-family="Times,serif" font-size="14.00">+ isHidden() : bool</text>
<text text-anchor="start" x="908" y="-218.3" font-family="Times,serif" font-size="14.00">+ setDescription(description : string) : static</text>
<text text-anchor="start" x="908" y="-199.3" font-family="Times,serif" font-size="14.00">+ getDescription() : string</text>
<text text-anchor="start" x="908" y="-180.3" font-family="Times,serif" font-size="14.00">+ setHelp(help : string) : static</text>
<text text-anchor="start" x="908" y="-161.3" font-family="Times,serif" font-size="14.00">+ getHelp() : string</text>
<text text-anchor="start" x="908" y="-142.3" font-family="Times,serif" font-size="14.00">+ getProcessedHelp() : string</text>
<text text-anchor="start" x="908" y="-123.3" font-family="Times,serif" font-size="14.00">+ setAliases(aliases : iterable) : static</text>
<text text-anchor="start" x="908" y="-104.3" font-family="Times,serif" font-size="14.00">+ getAliases() : array</text>
<text text-anchor="start" x="908" y="-85.3" font-family="Times,serif" font-size="14.00">+ getSynopsis(short : bool = false) : string</text>
<text text-anchor="start" x="908" y="-66.3" font-family="Times,serif" font-size="14.00">+ addUsage(usage : string) : static</text>
<text text-anchor="start" x="908" y="-47.3" font-family="Times,serif" font-size="14.00">+ getUsages() : array</text>
<text text-anchor="start" x="908" y="-28.3" font-family="Times,serif" font-size="14.00">+ getHelper(name : string) : ?mixed</text>
</g>
<!-- Bartlett\\CompatInfoDb\\Presentation\\Console\\Command\\AbstractCommand&#45;&gt;Symfony\\Component\\Console\\Command\\Command -->
<g id="edge1" class="edge">
<title>Bartlett\\CompatInfoDb\\Presentation\\Console\\Command\\AbstractCommand&#45;&gt;Symfony\\Component\\Console\\Command\\Command</title>
<path fill="none" stroke="black" d="M1500,-825.94C1500,-815.54 1500,-803.21 1500,-789.42"/>
<polygon fill="none" stroke="black" points="1503.5,-789.11 1500,-779.11 1496.5,-789.11 1503.5,-789.11"/>
</g>
<!-- Bartlett\\CompatInfoDb\\Presentation\\Console\\Command\\CreateCommand -->
<g id="node4" class="node">
<title>Bartlett\\CompatInfoDb\\Presentation\\Console\\Command\\CreateCommand</title>
<polygon fill="#fefece" stroke="transparent" points="6152,-1033 4564,-1033 4564,-935 6152,-935 6152,-1033"/>
<polygon fill="#eeeeee" stroke="transparent" points="4572,-995 4572,-1029 6144,-1029 6144,-995 4572,-995"/>
<polygon fill="none" stroke="black" points="4572,-995 4572,-1029 6144,-1029 6144,-995 4572,-995"/>
<text text-anchor="start" x="5291.5" y="-1001.8" font-family="Times,serif" font-weight="bold" font-size="14.00">CreateCommand</text>
<polygon fill="none" stroke="black" points="4572,-970 4572,-995 6144,-995 6144,-970 4572,-970"/>
<text text-anchor="start" x="4577" y="-978.8" font-family="Times,serif" font-size="14.00">+ «static» NAME : string = &quot;db\:create&quot; {readOnly}</text>
<polygon fill="none" stroke="black" points="4572,-964 4572,-970 6144,-970 6144,-964 4572,-964"/>
<polygon fill="none" stroke="black" points="4572,-939 4572,-964 6144,-964 6144,-939 4572,-939"/>
<text text-anchor="start" x="4577" y="-947.8" font-family="Times,serif" font-size="14.00">+ __construct(commandBus : Bartlett\CompatInfoDb\Application\Command\CommandBusInterface, queryBus : Bartlett\CompatInfoDb\Application\Query\QueryBusInterface, em : Doctrine\ORM\EntityManagerInterface)</text>
</g>
<!-- Bartlett\\CompatInfoDb\\Presentation\\Console\\Command\\CreateCommand&#45;&gt;Bartlett\\CompatInfoDb\\Presentation\\Console\\Command\\AbstractCommand -->
<g id="edge4" class="edge">
<title>Bartlett\\CompatInfoDb\\Presentation\\Console\\Command\\CreateCommand&#45;&gt;Bartlett\\CompatInfoDb\\Presentation\\Console\\Command\\AbstractCommand</title>
<path fill="none" stroke="black" d="M4563.92,-935.34C4560.94,-935.22 4557.97,-935.11 4555,-935 3486.58,-895.12 3215.62,-936.35 2143.04,-899.03"/>
<polygon fill="none" stroke="black" points="2142.89,-895.52 2132.77,-898.67 2142.64,-902.52 2142.89,-895.52"/>
</g>
<!-- Bartlett\\CompatInfoDb\\Presentation\\Console\\Command\\CreateCommand&#45;&gt;Bartlett\\CompatInfoDb\\Presentation\\Console\\Command\\CommandInterface -->
<g id="edge5" class="edge">
<title>Bartlett\\CompatInfoDb\\Presentation\\Console\\Command\\CreateCommand&#45;&gt;Bartlett\\CompatInfoDb\\Presentation\\Console\\Command\\CommandInterface</title>
<path fill="none" stroke="black" stroke-dasharray="5,2" d="M4563.91,-935.41C4560.94,-935.27 4557.96,-935.13 4555,-935 3695.19,-896.04 2654.91,-872.28 2335.76,-865.51"/>
<polygon fill="none" stroke="black" points="2335.69,-862.01 2325.62,-865.29 2335.55,-869 2335.69,-862.01"/>
</g>
<!-- Bartlett\\CompatInfoDb\\Presentation\\Console\\Command\\DiagnoseCommand -->
<g id="node5" class="node">
<title>Bartlett\\CompatInfoDb\\Presentation\\Console\\Command\\DiagnoseCommand</title>
<polygon fill="#fefece" stroke="transparent" points="4546,-1033 2874,-1033 2874,-935 4546,-935 4546,-1033"/>
<polygon fill="#eeeeee" stroke="transparent" points="2882,-995 2882,-1029 4538,-1029 4538,-995 2882,-995"/>
<polygon fill="none" stroke="black" points="2882,-995 2882,-1029 4538,-1029 4538,-995 2882,-995"/>
<text text-anchor="start" x="3633.5" y="-1001.8" font-family="Times,serif" font-weight="bold" font-size="14.00">DiagnoseCommand</text>
<polygon fill="none" stroke="black" points="2882,-970 2882,-995 4538,-995 4538,-970 2882,-970"/>
<text text-anchor="start" x="2887" y="-978.8" font-family="Times,serif" font-size="14.00">+ «static» NAME : string = &quot;diagnose&quot; {readOnly}</text>
<polygon fill="none" stroke="black" points="2882,-964 2882,-970 4538,-970 4538,-964 2882,-964"/>
<polygon fill="none" stroke="black" points="2882,-939 2882,-964 4538,-964 4538,-939 2882,-939"/>
<text text-anchor="start" x="2887" y="-947.8" font-family="Times,serif" font-size="14.00">+ __construct(commandBus : Bartlett\CompatInfoDb\Application\Command\CommandBusInterface, queryBus : Bartlett\CompatInfoDb\Application\Query\QueryBusInterface, entityManager : Doctrine\ORM\EntityManagerInterface)</text>
</g>
<!-- Bartlett\\CompatInfoDb\\Presentation\\Console\\Command\\DiagnoseCommand&#45;&gt;Bartlett\\CompatInfoDb\\Presentation\\Console\\Command\\AbstractCommand -->
<g id="edge6" class="edge">
<title>Bartlett\\CompatInfoDb\\Presentation\\Console\\Command\\DiagnoseCommand&#45;&gt;Bartlett\\CompatInfoDb\\Presentation\\Console\\Command\\AbstractCommand</title>
<path fill="none" stroke="black" d="M2873.82,-935.47C2870.87,-935.31 2867.93,-935.16 2865,-935 2547.02,-918.05 2464.96,-915.92 2142.87,-899.04"/>
<polygon fill="none" stroke="black" points="2142.95,-895.54 2132.78,-898.51 2142.58,-902.53 2142.95,-895.54"/>
</g>
<!-- Bartlett\\CompatInfoDb\\Presentation\\Console\\Command\\DiagnoseCommand&#45;&gt;Bartlett\\CompatInfoDb\\Presentation\\Console\\Command\\CommandInterface -->
<g id="edge7" class="edge">
<title>Bartlett\\CompatInfoDb\\Presentation\\Console\\Command\\DiagnoseCommand&#45;&gt;Bartlett\\CompatInfoDb\\Presentation\\Console\\Command\\CommandInterface</title>
<path fill="none" stroke="black" stroke-dasharray="5,2" d="M3118.7,-935C2823.23,-911.01 2495.36,-884.39 2335.88,-871.45"/>
<polygon fill="none" stroke="black" points="2335.87,-867.93 2325.62,-870.61 2335.3,-874.91 2335.87,-867.93"/>
</g>
<!-- Bartlett\\CompatInfoDb\\Presentation\\Console\\Command\\DoctorCommand -->
<g id="node6" class="node">
<title>Bartlett\\CompatInfoDb\\Presentation\\Console\\Command\\DoctorCommand</title>
<polygon fill="#fefece" stroke="transparent" points="2855.5,-1023.5 2480.5,-1023.5 2480.5,-944.5 2855.5,-944.5 2855.5,-1023.5"/>
<polygon fill="#eeeeee" stroke="transparent" points="2489,-985 2489,-1019 2848,-1019 2848,-985 2489,-985"/>
<polygon fill="none" stroke="black" points="2489,-985 2489,-1019 2848,-1019 2848,-985 2489,-985"/>
<text text-anchor="start" x="2602" y="-991.8" font-family="Times,serif" font-weight="bold" font-size="14.00">DoctorCommand</text>
<polygon fill="none" stroke="black" points="2489,-960 2489,-985 2848,-985 2848,-960 2489,-960"/>
<text text-anchor="start" x="2494" y="-968.8" font-family="Times,serif" font-size="14.00">+ «static» NAME : string = &quot;doctor&quot; {readOnly}</text>
<polygon fill="none" stroke="black" points="2489,-954 2489,-960 2848,-960 2848,-954 2489,-954"/>
<polygon fill="none" stroke="black" points="2489,-948 2489,-954 2848,-954 2848,-948 2489,-948"/>
</g>
<!-- Bartlett\\CompatInfoDb\\Presentation\\Console\\Command\\DoctorCommand&#45;&gt;Bartlett\\CompatInfoDb\\Presentation\\Console\\Command\\AbstractCommand -->
<g id="edge8" class="edge">
<title>Bartlett\\CompatInfoDb\\Presentation\\Console\\Command\\DoctorCommand&#45;&gt;Bartlett\\CompatInfoDb\\Presentation\\Console\\Command\\AbstractCommand</title>
<path fill="none" stroke="black" d="M2521.43,-944.47C2504.51,-940.86 2487.43,-937.59 2471,-935 2395.79,-923.15 2253.28,-910.79 2100.14,-899.74"/>
<polygon fill="none" stroke="black" points="2100.26,-896.24 2090.03,-899.01 2099.76,-903.22 2100.26,-896.24"/>
</g>
<!-- Bartlett\\CompatInfoDb\\Presentation\\Console\\Command\\DoctorCommand&#45;&gt;Bartlett\\CompatInfoDb\\Presentation\\Console\\Command\\CommandInterface -->
<g id="edge9" class="edge">
<title>Bartlett\\CompatInfoDb\\Presentation\\Console\\Command\\DoctorCommand&#45;&gt;Bartlett\\CompatInfoDb\\Presentation\\Console\\Command\\CommandInterface</title>
<path fill="none" stroke="black" stroke-dasharray="5,2" d="M2529.28,-944.45C2466.06,-926.88 2392.72,-906.5 2335.45,-890.58"/>
<polygon fill="none" stroke="black" points="2336.25,-887.17 2325.68,-887.87 2334.37,-893.92 2336.25,-887.17"/>
</g>
<!-- Bartlett\\CompatInfoDb\\Presentation\\Console\\Command\\InitCommand -->
<g id="node7" class="node">
<title>Bartlett\\CompatInfoDb\\Presentation\\Console\\Command\\InitCommand</title>
<polygon fill="#fefece" stroke="transparent" points="2462,-1023.5 2082,-1023.5 2082,-944.5 2462,-944.5 2462,-1023.5"/>
<polygon fill="#eeeeee" stroke="transparent" points="2090,-985 2090,-1019 2454,-1019 2454,-985 2090,-985"/>
<polygon fill="none" stroke="black" points="2090,-985 2090,-1019 2454,-1019 2454,-985 2090,-985"/>
<text text-anchor="start" x="2217.5" y="-991.8" font-family="Times,serif" font-weight="bold" font-size="14.00">InitCommand</text>
<polygon fill="none" stroke="black" points="2090,-960 2090,-985 2454,-985 2454,-960 2090,-960"/>
<text text-anchor="start" x="2095" y="-968.8" font-family="Times,serif" font-size="14.00">+ «static» NAME : string = &quot;db\:init&quot; {readOnly}</text>
<polygon fill="none" stroke="black" points="2090,-954 2090,-960 2454,-960 2454,-954 2090,-954"/>
<polygon fill="none" stroke="black" points="2090,-948 2090,-954 2454,-954 2454,-948 2090,-948"/>
</g>
<!-- Bartlett\\CompatInfoDb\\Presentation\\Console\\Command\\InitCommand&#45;&gt;Bartlett\\CompatInfoDb\\Presentation\\Console\\Command\\AbstractCommand -->
<g id="edge10" class="edge">
<title>Bartlett\\CompatInfoDb\\Presentation\\Console\\Command\\InitCommand&#45;&gt;Bartlett\\CompatInfoDb\\Presentation\\Console\\Command\\AbstractCommand</title>
<path fill="none" stroke="black" d="M2119.99,-944.48C2104.18,-941.03 2088.3,-937.79 2073,-935 1999.97,-921.68 1921.24,-910.08 1846.23,-900.33"/>
<polygon fill="none" stroke="black" points="1846.52,-896.83 1836.15,-899.02 1845.62,-903.78 1846.52,-896.83"/>
</g>
<!-- Bartlett\\CompatInfoDb\\Presentation\\Console\\Command\\InitCommand&#45;&gt;Bartlett\\CompatInfoDb\\Presentation\\Console\\Command\\CommandInterface -->
<g id="edge11" class="edge">
<title>Bartlett\\CompatInfoDb\\Presentation\\Console\\Command\\InitCommand&#45;&gt;Bartlett\\CompatInfoDb\\Presentation\\Console\\Command\\CommandInterface</title>
<path fill="none" stroke="black" stroke-dasharray="5,2" d="M2260.96,-944.2C2256.87,-929.83 2252.26,-913.61 2248.24,-899.51"/>
<polygon fill="none" stroke="black" points="2251.55,-898.32 2245.44,-889.66 2244.81,-900.24 2251.55,-898.32"/>
</g>
<!-- Bartlett\\CompatInfoDb\\Presentation\\Console\\Command\\ListCommand -->
<g id="node8" class="node">
<title>Bartlett\\CompatInfoDb\\Presentation\\Console\\Command\\ListCommand</title>
<polygon fill="#fefece" stroke="transparent" points="2064,-1023.5 1686,-1023.5 1686,-944.5 2064,-944.5 2064,-1023.5"/>
<polygon fill="#eeeeee" stroke="transparent" points="1694,-985 1694,-1019 2056,-1019 2056,-985 1694,-985"/>
<polygon fill="none" stroke="black" points="1694,-985 1694,-1019 2056,-1019 2056,-985 1694,-985"/>
<text text-anchor="start" x="1820" y="-991.8" font-family="Times,serif" font-weight="bold" font-size="14.00">ListCommand</text>
<polygon fill="none" stroke="black" points="1694,-960 1694,-985 2056,-985 2056,-960 1694,-960"/>
<text text-anchor="start" x="1699" y="-968.8" font-family="Times,serif" font-size="14.00">+ «static» NAME : string = &quot;db\:list&quot; {readOnly}</text>
<polygon fill="none" stroke="black" points="1694,-954 1694,-960 2056,-960 2056,-954 1694,-954"/>
<polygon fill="none" stroke="black" points="1694,-948 1694,-954 2056,-954 2056,-948 1694,-948"/>
</g>
<!-- Bartlett\\CompatInfoDb\\Presentation\\Console\\Command\\ListCommand&#45;&gt;Bartlett\\CompatInfoDb\\Presentation\\Console\\Command\\AbstractCommand -->
<g id="edge12" class="edge">
<title>Bartlett\\CompatInfoDb\\Presentation\\Console\\Command\\ListCommand&#45;&gt;Bartlett\\CompatInfoDb\\Presentation\\Console\\Command\\AbstractCommand</title>
<path fill="none" stroke="black" d="M1754.02,-944.45C1711.44,-930.88 1663.59,-915.63 1621,-902.06"/>
<polygon fill="none" stroke="black" points="1622.03,-898.71 1611.44,-899.01 1619.9,-905.38 1622.03,-898.71"/>
</g>
<!-- Bartlett\\CompatInfoDb\\Presentation\\Console\\Command\\ListCommand&#45;&gt;Bartlett\\CompatInfoDb\\Presentation\\Console\\Command\\CommandInterface -->
<g id="edge13" class="edge">
<title>Bartlett\\CompatInfoDb\\Presentation\\Console\\Command\\ListCommand&#45;&gt;Bartlett\\CompatInfoDb\\Presentation\\Console\\Command\\CommandInterface</title>
<path fill="none" stroke="black" stroke-dasharray="5,2" d="M2002.07,-944.43C2046.49,-930.57 2096.59,-914.53 2142,-899 2147.6,-897.08 2153.37,-895.07 2159.17,-893.01"/>
<polygon fill="none" stroke="black" points="2160.7,-896.17 2168.93,-889.51 2158.34,-889.59 2160.7,-896.17"/>
</g>
<!-- Bartlett\\CompatInfoDb\\Presentation\\Console\\Command\\PolyfillCommand -->
<g id="node9" class="node">
<title>Bartlett\\CompatInfoDb\\Presentation\\Console\\Command\\PolyfillCommand</title>
<polygon fill="#fefece" stroke="transparent" points="1668,-1023.5 1264,-1023.5 1264,-944.5 1668,-944.5 1668,-1023.5"/>
<polygon fill="#eeeeee" stroke="transparent" points="1272,-985 1272,-1019 1660,-1019 1660,-985 1272,-985"/>
<polygon fill="none" stroke="black" points="1272,-985 1272,-1019 1660,-1019 1660,-985 1272,-985"/>
<text text-anchor="start" x="1399" y="-991.8" font-family="Times,serif" font-weight="bold" font-size="14.00">PolyfillCommand</text>
<polygon fill="none" stroke="black" points="1272,-960 1272,-985 1660,-985 1660,-960 1272,-960"/>
<text text-anchor="start" x="1277" y="-968.8" font-family="Times,serif" font-size="14.00">+ «static» NAME : string = &quot;db\:polyfill&quot; {readOnly}</text>
<polygon fill="none" stroke="black" points="1272,-954 1272,-960 1660,-960 1660,-954 1272,-954"/>
<polygon fill="none" stroke="black" points="1272,-948 1272,-954 1660,-954 1660,-948 1272,-948"/>
</g>
<!-- Bartlett\\CompatInfoDb\\Presentation\\Console\\Command\\PolyfillCommand&#45;&gt;Bartlett\\CompatInfoDb\\Presentation\\Console\\Command\\AbstractCommand -->
<g id="edge14" class="edge">
<title>Bartlett\\CompatInfoDb\\Presentation\\Console\\Command\\PolyfillCommand&#45;&gt;Bartlett\\CompatInfoDb\\Presentation\\Console\\Command\\AbstractCommand</title>
<path fill="none" stroke="black" d="M1477.04,-944.2C1480.22,-933.03 1483.72,-920.73 1487,-909.18"/>
<polygon fill="none" stroke="black" points="1490.45,-909.85 1489.82,-899.27 1483.72,-907.93 1490.45,-909.85"/>
</g>
<!-- Bartlett\\CompatInfoDb\\Presentation\\Console\\Command\\PolyfillCommand&#45;&gt;Bartlett\\CompatInfoDb\\Presentation\\Console\\Command\\CommandInterface -->
<g id="edge15" class="edge">
<title>Bartlett\\CompatInfoDb\\Presentation\\Console\\Command\\PolyfillCommand&#45;&gt;Bartlett\\CompatInfoDb\\Presentation\\Console\\Command\\CommandInterface</title>
<path fill="none" stroke="black" stroke-dasharray="5,2" d="M1623.66,-944.49C1641.58,-940.9 1659.64,-937.63 1677,-935 1881.94,-903.93 1939.52,-943.37 2142,-899 2149.77,-897.3 2157.77,-895.1 2165.66,-892.64"/>
<polygon fill="none" stroke="black" points="2166.8,-895.95 2175.23,-889.52 2164.63,-889.3 2166.8,-895.95"/>
</g>
<!-- Bartlett\\CompatInfoDb\\Presentation\\Console\\Command\\ReleaseCommand -->
<g id="node10" class="node">
<title>Bartlett\\CompatInfoDb\\Presentation\\Console\\Command\\ReleaseCommand</title>
<polygon fill="#fefece" stroke="transparent" points="1246,-1023.5 838,-1023.5 838,-944.5 1246,-944.5 1246,-1023.5"/>
<polygon fill="#eeeeee" stroke="transparent" points="846,-985 846,-1019 1238,-1019 1238,-985 846,-985"/>
<polygon fill="none" stroke="black" points="846,-985 846,-1019 1238,-1019 1238,-985 846,-985"/>
<text text-anchor="start" x="971" y="-991.8" font-family="Times,serif" font-weight="bold" font-size="14.00">ReleaseCommand</text>
<polygon fill="none" stroke="black" points="846,-960 846,-985 1238,-985 1238,-960 846,-960"/>
<text text-anchor="start" x="851" y="-968.8" font-family="Times,serif" font-size="14.00">+ «static» NAME : string = &quot;db\:release&quot; {readOnly}</text>
<polygon fill="none" stroke="black" points="846,-954 846,-960 1238,-960 1238,-954 846,-954"/>
<polygon fill="none" stroke="black" points="846,-948 846,-954 1238,-954 1238,-948 846,-948"/>
</g>
<!-- Bartlett\\CompatInfoDb\\Presentation\\Console\\Command\\ReleaseCommand&#45;&gt;Bartlett\\CompatInfoDb\\Presentation\\Console\\Command\\AbstractCommand -->
<g id="edge16" class="edge">
<title>Bartlett\\CompatInfoDb\\Presentation\\Console\\Command\\ReleaseCommand&#45;&gt;Bartlett\\CompatInfoDb\\Presentation\\Console\\Command\\AbstractCommand</title>
<path fill="none" stroke="black" d="M1189.75,-944.45C1242.42,-930.71 1301.67,-915.25 1354.18,-901.55"/>
<polygon fill="none" stroke="black" points="1355.11,-904.92 1363.9,-899.01 1353.34,-898.15 1355.11,-904.92"/>
</g>
<!-- Bartlett\\CompatInfoDb\\Presentation\\Console\\Command\\ReleaseCommand&#45;&gt;Bartlett\\CompatInfoDb\\Presentation\\Console\\Command\\CommandInterface -->
<g id="edge17" class="edge">
<title>Bartlett\\CompatInfoDb\\Presentation\\Console\\Command\\ReleaseCommand&#45;&gt;Bartlett\\CompatInfoDb\\Presentation\\Console\\Command\\CommandInterface</title>
<path fill="none" stroke="black" stroke-dasharray="5,2" d="M1197.88,-944.48C1217.03,-940.75 1236.4,-937.45 1255,-935 1646.16,-883.42 1755.11,-976.37 2142,-899 2150.14,-897.37 2158.51,-895.16 2166.75,-892.62"/>
<polygon fill="none" stroke="black" points="2167.9,-895.92 2176.34,-889.51 2165.75,-889.27 2167.9,-895.92"/>
</g>
<!-- Bartlett\\CompatInfoDb\\Presentation\\Console\\Command\\ShowCommand -->
<g id="node11" class="node">
<title>Bartlett\\CompatInfoDb\\Presentation\\Console\\Command\\ShowCommand</title>
<polygon fill="#fefece" stroke="transparent" points="819.5,-1023.5 426.5,-1023.5 426.5,-944.5 819.5,-944.5 819.5,-1023.5"/>
<polygon fill="#eeeeee" stroke="transparent" points="435,-985 435,-1019 812,-1019 812,-985 435,-985"/>
<polygon fill="none" stroke="black" points="435,-985 435,-1019 812,-1019 812,-985 435,-985"/>
<text text-anchor="start" x="563" y="-991.8" font-family="Times,serif" font-weight="bold" font-size="14.00">ShowCommand</text>
<polygon fill="none" stroke="black" points="435,-960 435,-985 812,-985 812,-960 435,-960"/>
<text text-anchor="start" x="440" y="-968.8" font-family="Times,serif" font-size="14.00">+ «static» NAME : string = &quot;db\:show&quot; {readOnly}</text>
<polygon fill="none" stroke="black" points="435,-954 435,-960 812,-960 812,-954 435,-954"/>
<polygon fill="none" stroke="black" points="435,-948 435,-954 812,-954 812,-948 435,-948"/>
</g>
<!-- Bartlett\\CompatInfoDb\\Presentation\\Console\\Command\\ShowCommand&#45;&gt;Bartlett\\CompatInfoDb\\Presentation\\Console\\Command\\AbstractCommand -->
<g id="edge18" class="edge">
<title>Bartlett\\CompatInfoDb\\Presentation\\Console\\Command\\ShowCommand&#45;&gt;Bartlett\\CompatInfoDb\\Presentation\\Console\\Command\\AbstractCommand</title>
<path fill="none" stroke="black" d="M779.22,-944.49C795.96,-940.99 812.8,-937.74 829,-935 910.03,-921.3 997.04,-909.73 1080.66,-900.17"/>
<polygon fill="none" stroke="black" points="1081.3,-903.62 1090.84,-899.01 1080.51,-896.66 1081.3,-903.62"/>
</g>
<!-- Bartlett\\CompatInfoDb\\Presentation\\Console\\Command\\ShowCommand&#45;&gt;Bartlett\\CompatInfoDb\\Presentation\\Console\\Command\\CommandInterface -->
<g id="edge19" class="edge">
<title>Bartlett\\CompatInfoDb\\Presentation\\Console\\Command\\ShowCommand&#45;&gt;Bartlett\\CompatInfoDb\\Presentation\\Console\\Command\\CommandInterface</title>
<path fill="none" stroke="black" stroke-dasharray="5,2" d="M772.56,-944.45C791.46,-940.67 810.61,-937.37 829,-935 1118.49,-897.69 1855.41,-954.36 2142,-899 2150.21,-897.41 2158.65,-895.21 2166.96,-892.67"/>
<polygon fill="none" stroke="black" points="2168.18,-895.95 2176.62,-889.55 2166.03,-889.29 2168.18,-895.95"/>
</g>
</g>
</svg>
