<?xml version="1.0" encoding="UTF-8" standalone="no"?>
<!DOCTYPE svg PUBLIC "-//W3C//DTD SVG 1.1//EN"
 "http://www.w3.org/Graphics/SVG/1.1/DTD/svg11.dtd">
<!-- Generated by graphviz version 2.43.0 (0)
 -->
<!-- Title: %3 Pages: 1 -->
<svg width="1916pt" height="770pt"
 viewBox="0.00 0.00 1916.00 770.00" xmlns="http://www.w3.org/2000/svg" xmlns:xlink="http://www.w3.org/1999/xlink">
<g id="graph0" class="graph" transform="scale(1 1) rotate(0) translate(4 766)">
<title>%3</title>
<g id="clust1" class="cluster">
<title>cluster_0</title>
<polygon fill="BurlyWood" stroke="black" points="8,-629 8,-754 380,-754 380,-629 8,-629"/>
<text text-anchor="middle" x="194" y="-738.8" font-family="Times,serif" font-size="14.00">Bartlett\CompatInfoDb\Application\Configuration</text>
</g>
<g id="clust2" class="cluster">
<title>cluster_1</title>
<polygon fill="transparent" stroke="black" points="388,-8 388,-747.5 1900,-747.5 1900,-8 388,-8"/>
<text text-anchor="middle" x="1144" y="-732.3" font-family="Times,serif" font-size="14.00">Bartlett\CompatInfoDb\Application\Kernel</text>
</g>
<!-- Bartlett\\CompatInfoDb\\Application\\Configuration\\ConfigResolver -->
<g id="node1" class="node">
<title>Bartlett\\CompatInfoDb\\Application\\Configuration\\ConfigResolver</title>
<polygon fill="#fefece" stroke="transparent" points="372,-723 16,-723 16,-637 372,-637 372,-723"/>
<polygon fill="#eeeeee" stroke="transparent" points="16,-701 16,-723 372,-723 372,-701 16,-701"/>
<polygon fill="none" stroke="black" points="16,-701 16,-723 372,-723 372,-701 16,-701"/>
<text text-anchor="start" x="160" y="-706.6" font-family="Verdana" font-weight="bold" font-size="8.00">ConfigResolver</text>
<polygon fill="none" stroke="black" points="16,-682 16,-701 372,-701 372,-682 16,-682"/>
<text text-anchor="start" x="21" y="-689.6" font-family="Verdana" font-size="8.00">– input</text>
<polygon fill="none" stroke="black" points="16,-637 16,-682 372,-682 372,-637 16,-637"/>
<text text-anchor="start" x="21" y="-670.6" font-family="Verdana" font-size="8.00">+ __construct(input : Symfony\Component\Console\Input\InputInterface)</text>
<text text-anchor="start" x="21" y="-657.6" font-family="Verdana" font-size="8.00">+ provide() : array</text>
<text text-anchor="start" x="21" y="-644.6" font-family="Verdana" font-size="8.00">– getOptionValue(input : Symfony\Component\Console\Input\InputInterface) : ?string</text>
</g>
<!-- Bartlett\\CompatInfoDb\\Application\\Kernel\\ConsoleKernel -->
<g id="node2" class="node">
<title>Bartlett\\CompatInfoDb\\Application\\Kernel\\ConsoleKernel</title>
<polygon fill="#fefece" stroke="transparent" points="1490.5,-716.5 841.5,-716.5 841.5,-643.5 1490.5,-643.5 1490.5,-716.5"/>
<polygon fill="#eeeeee" stroke="transparent" points="842,-694 842,-716 1491,-716 1491,-694 842,-694"/>
<polygon fill="none" stroke="black" points="842,-694 842,-716 1491,-716 1491,-694 842,-694"/>
<text text-anchor="start" x="1134" y="-699.6" font-family="Verdana" font-weight="bold" font-size="8.00">ConsoleKernel</text>
<polygon fill="none" stroke="black" points="842,-688 842,-694 1491,-694 1491,-688 842,-688"/>
<polygon fill="none" stroke="black" points="842,-643 842,-688 1491,-688 1491,-643 842,-643"/>
<text text-anchor="start" x="847" y="-676.6" font-family="Verdana" font-size="8.00">+ getCacheDir(default : string = «unknown») : string</text>
<text text-anchor="start" x="847" y="-663.6" font-family="Verdana" font-size="8.00">+ handle(input : Symfony\Component\Console\Input\InputInterface = «unknown») : int</text>
<text text-anchor="start" x="847" y="-650.6" font-family="Verdana" font-size="8.00">+ createFromInput(input : Symfony\Component\Console\Input\InputInterface = «unknown») : Symfony\Component\DependencyInjection\ContainerInterface</text>
</g>
<!-- Bartlett\\CompatInfoDb\\Application\\Kernel\\AbstractKernel -->
<g id="node3" class="node">
<title>Bartlett\\CompatInfoDb\\Application\\Kernel\\AbstractKernel</title>
<polygon fill="#fefece" stroke="transparent" points="1179.5,-601 396.5,-601 396.5,-190 1179.5,-190 1179.5,-601"/>
<polygon fill="#eeeeee" stroke="transparent" points="397,-578.5 397,-600.5 1180,-600.5 1180,-578.5 397,-578.5"/>
<polygon fill="none" stroke="black" points="397,-578.5 397,-600.5 1180,-600.5 1180,-578.5 397,-578.5"/>
<text text-anchor="start" x="764.5" y="-592.1" font-family="Verdana" font-weight="bold" font-size="8.00">«abstract»</text>
<text text-anchor="start" x="755" y="-584.1" font-family="Verdana" font-weight="bold" font-size="8.00">AbstractKernel</text>
<polygon fill="none" stroke="black" points="397,-481.5 397,-578.5 1180,-578.5 1180,-481.5 397,-481.5"/>
<text text-anchor="start" x="402" y="-567.1" font-family="Verdana" font-size="8.00"># configFiles : mixed</text>
<text text-anchor="start" x="402" y="-554.1" font-family="Verdana" font-size="8.00"># compilerPasses : mixed</text>
<text text-anchor="start" x="402" y="-541.1" font-family="Verdana" font-size="8.00"># extensions : mixed</text>
<text text-anchor="start" x="402" y="-528.1" font-family="Verdana" font-size="8.00"># environment</text>
<text text-anchor="start" x="402" y="-515.1" font-family="Verdana" font-size="8.00"># debug</text>
<text text-anchor="start" x="402" y="-502.1" font-family="Verdana" font-size="8.00"># projectDir</text>
<text text-anchor="start" x="402" y="-489.1" font-family="Verdana" font-size="8.00"># container</text>
<polygon fill="none" stroke="black" points="397,-189.5 397,-481.5 1180,-481.5 1180,-189.5 397,-189.5"/>
<text text-anchor="start" x="402" y="-470.1" font-family="Verdana" font-size="8.00">+ __construct(environment : string, debug : bool, projectDir : string = «unknown»)</text>
<text text-anchor="start" x="402" y="-457.1" font-family="Verdana" font-size="8.00">+ createFromConfigs(configFiles : array) : Symfony\Component\DependencyInjection\ContainerInterface</text>
<text text-anchor="start" x="402" y="-444.1" font-family="Verdana" font-size="8.00">+ create(configFiles : array, compilerPasses : array = [], extensions : array = []) : Symfony\Component\DependencyInjection\ContainerInterface</text>
<text text-anchor="start" x="402" y="-431.1" font-family="Verdana" font-size="8.00"># getContainerClass() : string</text>
<text text-anchor="start" x="402" y="-418.1" font-family="Verdana" font-size="8.00"># initializeContainer() : void</text>
<text text-anchor="start" x="402" y="-405.1" font-family="Verdana" font-size="8.00"># buildContainer() : Symfony\Component\DependencyInjection\ContainerBuilder</text>
<text text-anchor="start" x="402" y="-392.1" font-family="Verdana" font-size="8.00"># prepareContainer(container : Symfony\Component\DependencyInjection\ContainerBuilder) : void</text>
<text text-anchor="start" x="402" y="-379.1" font-family="Verdana" font-size="8.00"># registerContainerConfiguration(loader : Symfony\Component\Config\Loader\LoaderInterface) : void</text>
<text text-anchor="start" x="402" y="-366.1" font-family="Verdana" font-size="8.00"># dumpContainer(cache : Symfony\Component\Config\ConfigCacheInterface, container : Symfony\Component\DependencyInjection\ContainerBuilder, class : string, baseClass : string) : void</text>
<text text-anchor="start" x="402" y="-353.1" font-family="Verdana" font-size="8.00"># getContainerLoader(container : Symfony\Component\DependencyInjection\ContainerBuilder) : Symfony\Component\Config\Loader\LoaderInterface</text>
<text text-anchor="start" x="402" y="-340.1" font-family="Verdana" font-size="8.00"># getContainerBaseClass() : string</text>
<text text-anchor="start" x="402" y="-327.1" font-family="Verdana" font-size="8.00">+ getContainerBuilder() : Symfony\Component\DependencyInjection\ContainerBuilder</text>
<text text-anchor="start" x="402" y="-314.1" font-family="Verdana" font-size="8.00"># getKernelParameters() : array</text>
<text text-anchor="start" x="402" y="-301.1" font-family="Verdana" font-size="8.00">+ getEnvironment() : string</text>
<text text-anchor="start" x="402" y="-288.1" font-family="Verdana" font-size="8.00">+ isDebug() : bool</text>
<text text-anchor="start" x="402" y="-275.1" font-family="Verdana" font-size="8.00">+ getHomeDir() : string</text>
<text text-anchor="start" x="402" y="-262.1" font-family="Verdana" font-size="8.00">+ getProjectDir() : string</text>
<text text-anchor="start" x="402" y="-249.1" font-family="Verdana" font-size="8.00">+ getCacheDir(default : string = «unknown») : string</text>
<text text-anchor="start" x="402" y="-236.1" font-family="Verdana" font-size="8.00">+ getLogDir() : string</text>
<text text-anchor="start" x="402" y="-223.1" font-family="Verdana" font-size="8.00">+ getContainer() : Symfony\Component\DependencyInjection\ContainerInterface</text>
<text text-anchor="start" x="402" y="-210.1" font-family="Verdana" font-size="8.00">+ boot() : void</text>
<text text-anchor="start" x="402" y="-197.1" font-family="Verdana" font-size="8.00"># getConfigDir() : string</text>
</g>
<!-- Bartlett\\CompatInfoDb\\Application\\Kernel\\ConsoleKernel&#45;&gt;Bartlett\\CompatInfoDb\\Application\\Kernel\\AbstractKernel -->
<g id="edge3" class="edge">
<title>Bartlett\\CompatInfoDb\\Application\\Kernel\\ConsoleKernel&#45;&gt;Bartlett\\CompatInfoDb\\Application\\Kernel\\AbstractKernel</title>
<path fill="none" stroke="black" d="M1118.13,-643.22C1104.17,-632.79 1087.83,-620.58 1070.03,-607.27"/>
<polygon fill="none" stroke="black" points="1071.85,-604.27 1061.74,-601.08 1067.66,-609.87 1071.85,-604.27"/>
</g>
<!-- Bartlett\\CompatInfoDb\\Application\\Kernel\\ConsoleKernelInterface -->
<g id="node6" class="node">
<title>Bartlett\\CompatInfoDb\\Application\\Kernel\\ConsoleKernelInterface</title>
<polygon fill="#fefece" stroke="transparent" points="1892.5,-425.5 1197.5,-425.5 1197.5,-365.5 1892.5,-365.5 1892.5,-425.5"/>
<polygon fill="#eeeeee" stroke="transparent" points="1198,-403.5 1198,-425.5 1893,-425.5 1893,-403.5 1198,-403.5"/>
<polygon fill="none" stroke="black" points="1198,-403.5 1198,-425.5 1893,-425.5 1893,-403.5 1198,-403.5"/>
<text text-anchor="start" x="1519.5" y="-417.1" font-family="Verdana" font-weight="bold" font-size="8.00">«interface»</text>
<text text-anchor="start" x="1492.5" y="-409.1" font-family="Verdana" font-weight="bold" font-size="8.00">ConsoleKernelInterface</text>
<polygon fill="none" stroke="black" points="1198,-397.5 1198,-403.5 1893,-403.5 1893,-397.5 1198,-397.5"/>
<polygon fill="none" stroke="black" points="1198,-365.5 1198,-397.5 1893,-397.5 1893,-365.5 1198,-365.5"/>
<text text-anchor="start" x="1203" y="-386.1" font-family="Verdana" font-size="8.00">+ «abstract» handle(input : Symfony\Component\Console\Input\InputInterface = «unknown») : int</text>
<text text-anchor="start" x="1203" y="-373.1" font-family="Verdana" font-size="8.00">+ «abstract» createFromInput(input : Symfony\Component\Console\Input\InputInterface = «unknown») : Symfony\Component\DependencyInjection\ContainerInterface</text>
</g>
<!-- Bartlett\\CompatInfoDb\\Application\\Kernel\\ConsoleKernel&#45;&gt;Bartlett\\CompatInfoDb\\Application\\Kernel\\ConsoleKernelInterface -->
<g id="edge4" class="edge">
<title>Bartlett\\CompatInfoDb\\Application\\Kernel\\ConsoleKernel&#45;&gt;Bartlett\\CompatInfoDb\\Application\\Kernel\\ConsoleKernelInterface</title>
<path fill="none" stroke="black" stroke-dasharray="5,2" d="M1214,-643.22C1287.07,-588.75 1425.37,-485.67 1497.9,-431.61"/>
<polygon fill="none" stroke="black" points="1500.06,-434.36 1505.99,-425.58 1495.88,-428.75 1500.06,-434.36"/>
</g>
<!-- Bartlett\\CompatInfoDb\\Application\\Kernel\\KernelInterface -->
<g id="node4" class="node">
<title>Bartlett\\CompatInfoDb\\Application\\Kernel\\KernelInterface</title>
<polygon fill="#fefece" stroke="transparent" points="1072.5,-115 431.5,-115 431.5,-55 1072.5,-55 1072.5,-115"/>
<polygon fill="#eeeeee" stroke="transparent" points="432,-93 432,-115 1073,-115 1073,-93 432,-93"/>
<polygon fill="none" stroke="black" points="432,-93 432,-115 1073,-115 1073,-93 432,-93"/>
<text text-anchor="start" x="726.5" y="-106.6" font-family="Verdana" font-weight="bold" font-size="8.00">«interface»</text>
<text text-anchor="start" x="717.5" y="-98.6" font-family="Verdana" font-weight="bold" font-size="8.00">KernelInterface</text>
<polygon fill="none" stroke="black" points="432,-87 432,-93 1073,-93 1073,-87 432,-87"/>
<polygon fill="none" stroke="black" points="432,-55 432,-87 1073,-87 1073,-55 432,-55"/>
<text text-anchor="start" x="437" y="-75.6" font-family="Verdana" font-size="8.00">+ «abstract» createFromConfigs(configFiles : array) : Symfony\Component\DependencyInjection\ContainerInterface</text>
<text text-anchor="start" x="437" y="-62.6" font-family="Verdana" font-size="8.00">+ «abstract» create(configFiles : array, compilerPasses : array = [], extensions : array = []) : Symfony\Component\DependencyInjection\ContainerInterface</text>
</g>
<!-- Bartlett\\CompatInfoDb\\Application\\Kernel\\AbstractKernel&#45;&gt;Bartlett\\CompatInfoDb\\Application\\Kernel\\KernelInterface -->
<g id="edge1" class="edge">
<title>Bartlett\\CompatInfoDb\\Application\\Kernel\\AbstractKernel&#45;&gt;Bartlett\\CompatInfoDb\\Application\\Kernel\\KernelInterface</title>
<path fill="none" stroke="black" stroke-dasharray="5,2" d="M764.09,-189.58C761.27,-165.44 758.67,-143.15 756.61,-125.49"/>
<polygon fill="none" stroke="black" points="760.03,-124.64 755.4,-115.12 753.08,-125.45 760.03,-124.64"/>
</g>
<!-- Bartlett\\CompatInfoDb\\Application\\Kernel\\MicroKernelInterface -->
<g id="node5" class="node">
<title>Bartlett\\CompatInfoDb\\Application\\Kernel\\MicroKernelInterface</title>
<polygon fill="#fefece" stroke="transparent" points="1478,-154 1090,-154 1090,-16 1478,-16 1478,-154"/>
<polygon fill="#eeeeee" stroke="transparent" points="1090,-132 1090,-154 1478,-154 1478,-132 1090,-132"/>
<polygon fill="none" stroke="black" points="1090,-132 1090,-154 1478,-154 1478,-132 1090,-132"/>
<text text-anchor="start" x="1258" y="-145.6" font-family="Verdana" font-weight="bold" font-size="8.00">«interface»</text>
<text text-anchor="start" x="1236.5" y="-137.6" font-family="Verdana" font-weight="bold" font-size="8.00">MicroKernelInterface</text>
<polygon fill="none" stroke="black" points="1090,-126 1090,-132 1478,-132 1478,-126 1090,-126"/>
<polygon fill="none" stroke="black" points="1090,-16 1090,-126 1478,-126 1478,-16 1090,-16"/>
<text text-anchor="start" x="1095" y="-114.6" font-family="Verdana" font-size="8.00">+ «abstract» getEnvironment() : string</text>
<text text-anchor="start" x="1095" y="-101.6" font-family="Verdana" font-size="8.00">+ «abstract» isDebug() : bool</text>
<text text-anchor="start" x="1095" y="-88.6" font-family="Verdana" font-size="8.00">+ «abstract» getHomeDir() : string</text>
<text text-anchor="start" x="1095" y="-75.6" font-family="Verdana" font-size="8.00">+ «abstract» getProjectDir() : string</text>
<text text-anchor="start" x="1095" y="-62.6" font-family="Verdana" font-size="8.00">+ «abstract» getCacheDir(default : string = «unknown») : string</text>
<text text-anchor="start" x="1095" y="-49.6" font-family="Verdana" font-size="8.00">+ «abstract» getLogDir() : string</text>
<text text-anchor="start" x="1095" y="-36.6" font-family="Verdana" font-size="8.00">+ «abstract» getContainer() : Symfony\Component\DependencyInjection\ContainerInterface</text>
<text text-anchor="start" x="1095" y="-23.6" font-family="Verdana" font-size="8.00">+ «abstract» boot() : void</text>
</g>
<!-- Bartlett\\CompatInfoDb\\Application\\Kernel\\AbstractKernel&#45;&gt;Bartlett\\CompatInfoDb\\Application\\Kernel\\MicroKernelInterface -->
<g id="edge2" class="edge">
<title>Bartlett\\CompatInfoDb\\Application\\Kernel\\AbstractKernel&#45;&gt;Bartlett\\CompatInfoDb\\Application\\Kernel\\MicroKernelInterface</title>
<path fill="none" stroke="black" stroke-dasharray="5,2" d="M1117.11,-189.8C1133.9,-179.36 1150.12,-169.27 1165.43,-159.75"/>
<polygon fill="none" stroke="black" points="1167.69,-162.46 1174.33,-154.21 1163.99,-156.52 1167.69,-162.46"/>
</g>
</g>
</svg>
