<?xml version="1.0" encoding="us-ascii" standalone="no"?><svg xmlns="http://www.w3.org/2000/svg" xmlns:xlink="http://www.w3.org/1999/xlink" contentStyleType="text/css" height="670px" preserveAspectRatio="none" style="width:1599px;height:670px;background:#FFFFFF;" version="1.1" viewBox="0 0 1599 670" width="1599px" zoomAndPan="magnify"><defs/><g><text fill="#000000" font-family="Verdana" font-size="22" font-weight="bold" lengthAdjust="spacing" textLength="62" x="764" y="35.4209">main</text><path d="M13.5,77.6094 L52.5,77.6094 A3.75,3.75 0 0 1 55,80.1094 L62,99.9063 L66.5,99.9063 A2.5,2.5 0 0 1 69,102.4063 L69,127.7031 A2.5,2.5 0 0 1 66.5,130.2031 L13.5,130.2031 A2.5,2.5 0 0 1 11,127.7031 L11,80.1094 A2.5,2.5 0 0 1 13.5,77.6094 " fill="#FFFFFF" style="stroke:#000000;stroke-width:1.0;"/><line style="stroke:#000000;stroke-width:1.0;" x1="11" x2="62" y1="99.9063" y2="99.9063"/><text fill="#000000" font-family="Verdana" font-size="14" lengthAdjust="spacing" textLength="38" x="15" y="92.6045">views</text><!--class class_relationships--><g id="elem_class_relationships"><rect codeLine="16" fill="#FFFFFF" height="91.1875" id="class_relationships" rx="2.5" ry="2.5" style="stroke:#000000;stroke-width:1.0;" width="188" x="436" y="58.6094"/><text fill="#000000" font-family="Verdana" font-size="14" lengthAdjust="spacing" textLength="130" x="465" y="76.6045">class_relationships</text><line style="stroke:#000000;stroke-width:1.0;" x1="437" x2="623" y1="84.9063" y2="84.9063"/><line style="stroke:#000000;stroke-width:1.0;" x1="437" x2="623" y1="92.9063" y2="92.9063"/><ellipse cx="447" cy="106.5547" fill="#FFFFFF" rx="3" ry="3" style="stroke:#000000;stroke-width:1.0;"/><text fill="#000000" font-family="Verdana" font-size="14" lengthAdjust="spacing" textLength="70" x="454" y="109.9014">id: integer</text><text fill="#000000" font-family="Verdana" font-size="14" lengthAdjust="spacing" textLength="112" x="454" y="126.1982">class_id: integer</text><text fill="#000000" font-family="Verdana" font-size="14" lengthAdjust="spacing" textLength="164" x="454" y="142.4951">dependency_id: integer</text></g><!--class classes--><g id="elem_classes"><rect codeLine="22" fill="#FFFFFF" height="205.2656" id="classes" rx="2.5" ry="2.5" style="stroke:#000000;stroke-width:1.0;" width="169" x="267.5" y="234.1094"/><text fill="#000000" font-family="Verdana" font-size="14" lengthAdjust="spacing" textLength="52" x="326" y="252.1045">classes</text><line style="stroke:#000000;stroke-width:1.0;" x1="268.5" x2="435.5" y1="260.4063" y2="260.4063"/><line style="stroke:#000000;stroke-width:1.0;" x1="268.5" x2="435.5" y1="268.4063" y2="268.4063"/><ellipse cx="278.5" cy="282.0547" fill="#FFFFFF" rx="3" ry="3" style="stroke:#000000;stroke-width:1.0;"/><text fill="#000000" font-family="Verdana" font-size="14" lengthAdjust="spacing" textLength="70" x="285.5" y="285.4014">id: integer</text><text fill="#000000" font-family="Verdana" font-size="14" lengthAdjust="spacing" textLength="145" x="285.5" y="301.6982">extension_id: integer</text><ellipse cx="278.5" cy="314.6484" fill="#FFFFFF" rx="3" ry="3" style="stroke:#000000;stroke-width:1.0;"/><text fill="#000000" font-family="Verdana" font-size="14" lengthAdjust="spacing" textLength="87" x="285.5" y="317.9951">name: string</text><ellipse cx="278.5" cy="330.9453" fill="#FFFFFF" rx="3" ry="3" style="stroke:#000000;stroke-width:1.0;"/><text fill="#000000" font-family="Verdana" font-size="14" lengthAdjust="spacing" textLength="125" x="285.5" y="334.292">interface: boolean</text><ellipse cx="278.5" cy="347.2422" fill="#FFFFFF" rx="3" ry="3" style="stroke:#000000;stroke-width:1.0;"/><text fill="#000000" font-family="Verdana" font-size="14" lengthAdjust="spacing" textLength="90" x="285.5" y="350.5889">flags: integer</text><text fill="#000000" font-family="Verdana" font-size="14" lengthAdjust="spacing" textLength="89" x="285.5" y="366.8857">polyfill: string</text><ellipse cx="278.5" cy="379.8359" fill="#FFFFFF" rx="3" ry="3" style="stroke:#000000;stroke-width:1.0;"/><text fill="#000000" font-family="Verdana" font-size="14" lengthAdjust="spacing" textLength="101" x="285.5" y="383.1826">ext_min: string</text><text fill="#000000" font-family="Verdana" font-size="14" lengthAdjust="spacing" textLength="104" x="285.5" y="399.4795">ext_max: string</text><ellipse cx="278.5" cy="412.4297" fill="#FFFFFF" rx="3" ry="3" style="stroke:#000000;stroke-width:1.0;"/><text fill="#000000" font-family="Verdana" font-size="14" lengthAdjust="spacing" textLength="107" x="285.5" y="415.7764">php_min: string</text><text fill="#000000" font-family="Verdana" font-size="14" lengthAdjust="spacing" textLength="110" x="285.5" y="432.0732">php_max: string</text></g><!--class constant_relationships--><g id="elem_constant_relationships"><rect codeLine="35" fill="#FFFFFF" height="91.1875" id="constant_relationships" rx="2.5" ry="2.5" style="stroke:#000000;stroke-width:1.0;" width="188" x="758" y="58.6094"/><text fill="#000000" font-family="Verdana" font-size="14" lengthAdjust="spacing" textLength="156" x="774" y="76.6045">constant_relationships</text><line style="stroke:#000000;stroke-width:1.0;" x1="759" x2="945" y1="84.9063" y2="84.9063"/><line style="stroke:#000000;stroke-width:1.0;" x1="759" x2="945" y1="92.9063" y2="92.9063"/><ellipse cx="769" cy="106.5547" fill="#FFFFFF" rx="3" ry="3" style="stroke:#000000;stroke-width:1.0;"/><text fill="#000000" font-family="Verdana" font-size="14" lengthAdjust="spacing" textLength="70" x="776" y="109.9014">id: integer</text><text fill="#000000" font-family="Verdana" font-size="14" lengthAdjust="spacing" textLength="138" x="776" y="126.1982">constant_id: integer</text><text fill="#000000" font-family="Verdana" font-size="14" lengthAdjust="spacing" textLength="164" x="776" y="142.4951">dependency_id: integer</text></g><!--class constants--><g id="elem_constants"><rect codeLine="41" fill="#FFFFFF" height="205.2656" id="constants" rx="2.5" ry="2.5" style="stroke:#000000;stroke-width:1.0;" width="177" x="940.5" y="234.1094"/><text fill="#000000" font-family="Verdana" font-size="14" lengthAdjust="spacing" textLength="69" x="994.5" y="252.1045">constants</text><line style="stroke:#000000;stroke-width:1.0;" x1="941.5" x2="1116.5" y1="260.4063" y2="260.4063"/><line style="stroke:#000000;stroke-width:1.0;" x1="941.5" x2="1116.5" y1="268.4063" y2="268.4063"/><ellipse cx="951.5" cy="282.0547" fill="#FFFFFF" rx="3" ry="3" style="stroke:#000000;stroke-width:1.0;"/><text fill="#000000" font-family="Verdana" font-size="14" lengthAdjust="spacing" textLength="70" x="958.5" y="285.4014">id: integer</text><text fill="#000000" font-family="Verdana" font-size="14" lengthAdjust="spacing" textLength="145" x="958.5" y="301.6982">extension_id: integer</text><ellipse cx="951.5" cy="314.6484" fill="#FFFFFF" rx="3" ry="3" style="stroke:#000000;stroke-width:1.0;"/><text fill="#000000" font-family="Verdana" font-size="14" lengthAdjust="spacing" textLength="87" x="958.5" y="317.9951">name: string</text><text fill="#000000" font-family="Verdana" font-size="14" lengthAdjust="spacing" textLength="153" x="958.5" y="334.292">declaring_class: string</text><text fill="#000000" font-family="Verdana" font-size="14" lengthAdjust="spacing" textLength="89" x="958.5" y="350.5889">polyfill: string</text><text fill="#000000" font-family="Verdana" font-size="14" lengthAdjust="spacing" textLength="128" x="958.5" y="366.8857">deprecated: string</text><ellipse cx="951.5" cy="379.8359" fill="#FFFFFF" rx="3" ry="3" style="stroke:#000000;stroke-width:1.0;"/><text fill="#000000" font-family="Verdana" font-size="14" lengthAdjust="spacing" textLength="101" x="958.5" y="383.1826">ext_min: string</text><text fill="#000000" font-family="Verdana" font-size="14" lengthAdjust="spacing" textLength="104" x="958.5" y="399.4795">ext_max: string</text><ellipse cx="951.5" cy="412.4297" fill="#FFFFFF" rx="3" ry="3" style="stroke:#000000;stroke-width:1.0;"/><text fill="#000000" font-family="Verdana" font-size="14" lengthAdjust="spacing" textLength="107" x="958.5" y="415.7764">php_min: string</text><text fill="#000000" font-family="Verdana" font-size="14" lengthAdjust="spacing" textLength="110" x="958.5" y="432.0732">php_max: string</text></g><!--class dependencies--><g id="elem_dependencies"><rect codeLine="54" fill="#FFFFFF" height="107.4844" id="dependencies" rx="2.5" ry="2.5" style="stroke:#000000;stroke-width:1.0;" width="224" x="681" y="283.1094"/><text fill="#000000" font-family="Verdana" font-size="14" lengthAdjust="spacing" textLength="100" x="743" y="301.1045">dependencies</text><line style="stroke:#000000;stroke-width:1.0;" x1="682" x2="904" y1="309.4063" y2="309.4063"/><line style="stroke:#000000;stroke-width:1.0;" x1="682" x2="904" y1="317.4063" y2="317.4063"/><ellipse cx="692" cy="331.0547" fill="#FFFFFF" rx="3" ry="3" style="stroke:#000000;stroke-width:1.0;"/><text fill="#000000" font-family="Verdana" font-size="14" lengthAdjust="spacing" textLength="70" x="699" y="334.4014">id: integer</text><text fill="#000000" font-family="Verdana" font-size="14" lengthAdjust="spacing" textLength="145" x="699" y="350.6982">extension_id: integer</text><ellipse cx="692" cy="363.6484" fill="#FFFFFF" rx="3" ry="3" style="stroke:#000000;stroke-width:1.0;"/><text fill="#000000" font-family="Verdana" font-size="14" lengthAdjust="spacing" textLength="87" x="699" y="366.9951">name: string</text><ellipse cx="692" cy="379.9453" fill="#FFFFFF" rx="3" ry="3" style="stroke:#000000;stroke-width:1.0;"/><text fill="#000000" font-family="Verdana" font-size="14" lengthAdjust="spacing" textLength="200" x="699" y="383.292">constraint_expression: string</text></g><!--class extensions--><g id="elem_extensions"><rect codeLine="61" fill="#FFFFFF" height="140.0781" id="extensions" rx="2.5" ry="2.5" style="stroke:#000000;stroke-width:1.0;" width="169" x="708.5" y="523.6094"/><text fill="#000000" font-family="Verdana" font-size="14" lengthAdjust="spacing" textLength="76" x="755" y="541.6045">extensions</text><line style="stroke:#000000;stroke-width:1.0;" x1="709.5" x2="876.5" y1="549.9063" y2="549.9063"/><line style="stroke:#000000;stroke-width:1.0;" x1="709.5" x2="876.5" y1="557.9063" y2="557.9063"/><ellipse cx="719.5" cy="571.5547" fill="#FFFFFF" rx="3" ry="3" style="stroke:#000000;stroke-width:1.0;"/><text fill="#000000" font-family="Verdana" font-size="14" lengthAdjust="spacing" textLength="70" x="726.5" y="574.9014">id: integer</text><ellipse cx="719.5" cy="587.8516" fill="#FFFFFF" rx="3" ry="3" style="stroke:#000000;stroke-width:1.0;"/><text fill="#000000" font-family="Verdana" font-size="14" lengthAdjust="spacing" textLength="125" x="726.5" y="591.1982">description: string</text><ellipse cx="719.5" cy="604.1484" fill="#FFFFFF" rx="3" ry="3" style="stroke:#000000;stroke-width:1.0;"/><text fill="#000000" font-family="Verdana" font-size="14" lengthAdjust="spacing" textLength="87" x="726.5" y="607.4951">name: string</text><ellipse cx="719.5" cy="620.4453" fill="#FFFFFF" rx="3" ry="3" style="stroke:#000000;stroke-width:1.0;"/><text fill="#000000" font-family="Verdana" font-size="14" lengthAdjust="spacing" textLength="98" x="726.5" y="623.792">version: string</text><ellipse cx="719.5" cy="636.7422" fill="#FFFFFF" rx="3" ry="3" style="stroke:#000000;stroke-width:1.0;"/><text fill="#000000" font-family="Verdana" font-size="14" lengthAdjust="spacing" textLength="78" x="726.5" y="640.0889">type: string</text><ellipse cx="719.5" cy="653.0391" fill="#FFFFFF" rx="3" ry="3" style="stroke:#000000;stroke-width:1.0;"/><text fill="#000000" font-family="Verdana" font-size="14" lengthAdjust="spacing" textLength="145" x="726.5" y="656.3857">deprecated: boolean</text></g><!--class function_relationships--><g id="elem_function_relationships"><rect codeLine="70" fill="#FFFFFF" height="91.1875" id="function_relationships" rx="2.5" ry="2.5" style="stroke:#000000;stroke-width:1.0;" width="188" x="1098" y="58.6094"/><text fill="#000000" font-family="Verdana" font-size="14" lengthAdjust="spacing" textLength="151" x="1116.5" y="76.6045">function_relationships</text><line style="stroke:#000000;stroke-width:1.0;" x1="1099" x2="1285" y1="84.9063" y2="84.9063"/><line style="stroke:#000000;stroke-width:1.0;" x1="1099" x2="1285" y1="92.9063" y2="92.9063"/><ellipse cx="1109" cy="106.5547" fill="#FFFFFF" rx="3" ry="3" style="stroke:#000000;stroke-width:1.0;"/><text fill="#000000" font-family="Verdana" font-size="14" lengthAdjust="spacing" textLength="70" x="1116" y="109.9014">id: integer</text><text fill="#000000" font-family="Verdana" font-size="14" lengthAdjust="spacing" textLength="133" x="1116" y="126.1982">function_id: integer</text><text fill="#000000" font-family="Verdana" font-size="14" lengthAdjust="spacing" textLength="164" x="1116" y="142.4951">dependency_id: integer</text></g><!--class functions--><g id="elem_functions"><rect codeLine="76" fill="#FFFFFF" height="254.1563" id="functions" rx="2.5" ry="2.5" style="stroke:#000000;stroke-width:1.0;" width="197" x="1152.5" y="209.6094"/><text fill="#000000" font-family="Verdana" font-size="14" lengthAdjust="spacing" textLength="64" x="1219" y="227.6045">functions</text><line style="stroke:#000000;stroke-width:1.0;" x1="1153.5" x2="1348.5" y1="235.9063" y2="235.9063"/><line style="stroke:#000000;stroke-width:1.0;" x1="1153.5" x2="1348.5" y1="243.9063" y2="243.9063"/><ellipse cx="1163.5" cy="257.5547" fill="#FFFFFF" rx="3" ry="3" style="stroke:#000000;stroke-width:1.0;"/><text fill="#000000" font-family="Verdana" font-size="14" lengthAdjust="spacing" textLength="70" x="1170.5" y="260.9014">id: integer</text><text fill="#000000" font-family="Verdana" font-size="14" lengthAdjust="spacing" textLength="145" x="1170.5" y="277.1982">extension_id: integer</text><ellipse cx="1163.5" cy="290.1484" fill="#FFFFFF" rx="3" ry="3" style="stroke:#000000;stroke-width:1.0;"/><text fill="#000000" font-family="Verdana" font-size="14" lengthAdjust="spacing" textLength="87" x="1170.5" y="293.4951">name: string</text><text fill="#000000" font-family="Verdana" font-size="14" lengthAdjust="spacing" textLength="173" x="1170.5" y="309.792">parameters: simple_array</text><text fill="#000000" font-family="Verdana" font-size="14" lengthAdjust="spacing" textLength="156" x="1170.5" y="326.0889">excludes: simple_array</text><text fill="#000000" font-family="Verdana" font-size="14" lengthAdjust="spacing" textLength="153" x="1170.5" y="342.3857">declaring_class: string</text><text fill="#000000" font-family="Verdana" font-size="14" lengthAdjust="spacing" textLength="115" x="1170.5" y="358.6826">prototype: string</text><ellipse cx="1163.5" cy="371.6328" fill="#FFFFFF" rx="3" ry="3" style="stroke:#000000;stroke-width:1.0;"/><text fill="#000000" font-family="Verdana" font-size="14" lengthAdjust="spacing" textLength="90" x="1170.5" y="374.9795">flags: integer</text><text fill="#000000" font-family="Verdana" font-size="14" lengthAdjust="spacing" textLength="89" x="1170.5" y="391.2764">polyfill: string</text><ellipse cx="1163.5" cy="404.2266" fill="#FFFFFF" rx="3" ry="3" style="stroke:#000000;stroke-width:1.0;"/><text fill="#000000" font-family="Verdana" font-size="14" lengthAdjust="spacing" textLength="101" x="1170.5" y="407.5732">ext_min: string</text><text fill="#000000" font-family="Verdana" font-size="14" lengthAdjust="spacing" textLength="104" x="1170.5" y="423.8701">ext_max: string</text><ellipse cx="1163.5" cy="436.8203" fill="#FFFFFF" rx="3" ry="3" style="stroke:#000000;stroke-width:1.0;"/><text fill="#000000" font-family="Verdana" font-size="14" lengthAdjust="spacing" textLength="107" x="1170.5" y="440.167">php_min: string</text><text fill="#000000" font-family="Verdana" font-size="14" lengthAdjust="spacing" textLength="110" x="1170.5" y="456.4639">php_max: string</text></g><!--class ini_entries--><g id="elem_ini_entries"><rect codeLine="92" fill="#FFFFFF" height="156.375" id="ini_entries" rx="2.5" ry="2.5" style="stroke:#000000;stroke-width:1.0;" width="169" x="63.5" y="258.6094"/><text fill="#000000" font-family="Verdana" font-size="14" lengthAdjust="spacing" textLength="70" x="113" y="276.6045">ini_entries</text><line style="stroke:#000000;stroke-width:1.0;" x1="64.5" x2="231.5" y1="284.9063" y2="284.9063"/><line style="stroke:#000000;stroke-width:1.0;" x1="64.5" x2="231.5" y1="292.9063" y2="292.9063"/><ellipse cx="74.5" cy="306.5547" fill="#FFFFFF" rx="3" ry="3" style="stroke:#000000;stroke-width:1.0;"/><text fill="#000000" font-family="Verdana" font-size="14" lengthAdjust="spacing" textLength="70" x="81.5" y="309.9014">id: integer</text><text fill="#000000" font-family="Verdana" font-size="14" lengthAdjust="spacing" textLength="145" x="81.5" y="326.1982">extension_id: integer</text><ellipse cx="74.5" cy="339.1484" fill="#FFFFFF" rx="3" ry="3" style="stroke:#000000;stroke-width:1.0;"/><text fill="#000000" font-family="Verdana" font-size="14" lengthAdjust="spacing" textLength="87" x="81.5" y="342.4951">name: string</text><ellipse cx="74.5" cy="355.4453" fill="#FFFFFF" rx="3" ry="3" style="stroke:#000000;stroke-width:1.0;"/><text fill="#000000" font-family="Verdana" font-size="14" lengthAdjust="spacing" textLength="101" x="81.5" y="358.792">ext_min: string</text><text fill="#000000" font-family="Verdana" font-size="14" lengthAdjust="spacing" textLength="104" x="81.5" y="375.0889">ext_max: string</text><ellipse cx="74.5" cy="388.0391" fill="#FFFFFF" rx="3" ry="3" style="stroke:#000000;stroke-width:1.0;"/><text fill="#000000" font-family="Verdana" font-size="14" lengthAdjust="spacing" textLength="107" x="81.5" y="391.3857">php_min: string</text><text fill="#000000" font-family="Verdana" font-size="14" lengthAdjust="spacing" textLength="110" x="81.5" y="407.6826">php_max: string</text></g><!--class ini_relationships--><g id="elem_ini_relationships"><rect codeLine="102" fill="#FFFFFF" height="91.1875" id="ini_relationships" rx="2.5" ry="2.5" style="stroke:#000000;stroke-width:1.0;" width="188" x="104" y="58.6094"/><text fill="#000000" font-family="Verdana" font-size="14" lengthAdjust="spacing" textLength="110" x="143" y="76.6045">ini_relationships</text><line style="stroke:#000000;stroke-width:1.0;" x1="105" x2="291" y1="84.9063" y2="84.9063"/><line style="stroke:#000000;stroke-width:1.0;" x1="105" x2="291" y1="92.9063" y2="92.9063"/><ellipse cx="115" cy="106.5547" fill="#FFFFFF" rx="3" ry="3" style="stroke:#000000;stroke-width:1.0;"/><text fill="#000000" font-family="Verdana" font-size="14" lengthAdjust="spacing" textLength="70" x="122" y="109.9014">id: integer</text><text fill="#000000" font-family="Verdana" font-size="14" lengthAdjust="spacing" textLength="92" x="122" y="126.1982">ini_id: integer</text><text fill="#000000" font-family="Verdana" font-size="14" lengthAdjust="spacing" textLength="164" x="122" y="142.4951">dependency_id: integer</text></g><!--class platforms--><g id="elem_platforms"><rect codeLine="108" fill="#FFFFFF" height="107.4844" id="platforms" rx="2.5" ry="2.5" style="stroke:#000000;stroke-width:1.0;" width="246" x="1346" y="540.1094"/><text fill="#000000" font-family="Verdana" font-size="14" lengthAdjust="spacing" textLength="64" x="1437" y="558.1045">platforms</text><line style="stroke:#000000;stroke-width:1.0;" x1="1347" x2="1591" y1="566.4063" y2="566.4063"/><line style="stroke:#000000;stroke-width:1.0;" x1="1347" x2="1591" y1="574.4063" y2="574.4063"/><ellipse cx="1357" cy="588.0547" fill="#FFFFFF" rx="3" ry="3" style="stroke:#000000;stroke-width:1.0;"/><text fill="#000000" font-family="Verdana" font-size="14" lengthAdjust="spacing" textLength="70" x="1364" y="591.4014">id: integer</text><ellipse cx="1357" cy="604.3516" fill="#FFFFFF" rx="3" ry="3" style="stroke:#000000;stroke-width:1.0;"/><text fill="#000000" font-family="Verdana" font-size="14" lengthAdjust="spacing" textLength="125" x="1364" y="607.6982">description: string</text><ellipse cx="1357" cy="620.6484" fill="#FFFFFF" rx="3" ry="3" style="stroke:#000000;stroke-width:1.0;"/><text fill="#000000" font-family="Verdana" font-size="14" lengthAdjust="spacing" textLength="98" x="1364" y="623.9951">version: string</text><ellipse cx="1357" cy="636.9453" fill="#FFFFFF" rx="3" ry="3" style="stroke:#000000;stroke-width:1.0;"/><text fill="#000000" font-family="Verdana" font-size="14" lengthAdjust="spacing" textLength="222" x="1364" y="640.292">created_at: datetime_immutable</text></g><!--class relationships--><g id="elem_relationships"><rect codeLine="115" fill="#FFFFFF" height="91.1875" id="relationships" rx="2.5" ry="2.5" style="stroke:#000000;stroke-width:1.0;" width="169" x="1384.5" y="291.1094"/><text fill="#000000" font-family="Verdana" font-size="14" lengthAdjust="spacing" textLength="88" x="1425" y="309.1045">relationships</text><line style="stroke:#000000;stroke-width:1.0;" x1="1385.5" x2="1552.5" y1="317.4063" y2="317.4063"/><line style="stroke:#000000;stroke-width:1.0;" x1="1385.5" x2="1552.5" y1="325.4063" y2="325.4063"/><ellipse cx="1395.5" cy="339.0547" fill="#FFFFFF" rx="3" ry="3" style="stroke:#000000;stroke-width:1.0;"/><text fill="#000000" font-family="Verdana" font-size="14" lengthAdjust="spacing" textLength="70" x="1402.5" y="342.4014">id: integer</text><text fill="#000000" font-family="Verdana" font-size="14" lengthAdjust="spacing" textLength="133" x="1402.5" y="358.6982">platform_id: integer</text><text fill="#000000" font-family="Verdana" font-size="14" lengthAdjust="spacing" textLength="145" x="1402.5" y="374.9951">extension_id: integer</text></g><!--class releases--><g id="elem_releases"><rect codeLine="121" fill="#FFFFFF" height="188.9688" id="releases" rx="2.5" ry="2.5" style="stroke:#000000;stroke-width:1.0;" width="174" x="472" y="242.1094"/><text fill="#000000" font-family="Verdana" font-size="14" lengthAdjust="spacing" textLength="59" x="529.5" y="260.1045">releases</text><line style="stroke:#000000;stroke-width:1.0;" x1="473" x2="645" y1="268.4063" y2="268.4063"/><line style="stroke:#000000;stroke-width:1.0;" x1="473" x2="645" y1="276.4063" y2="276.4063"/><ellipse cx="483" cy="290.0547" fill="#FFFFFF" rx="3" ry="3" style="stroke:#000000;stroke-width:1.0;"/><text fill="#000000" font-family="Verdana" font-size="14" lengthAdjust="spacing" textLength="70" x="490" y="293.4014">id: integer</text><text fill="#000000" font-family="Verdana" font-size="14" lengthAdjust="spacing" textLength="145" x="490" y="309.6982">extension_id: integer</text><ellipse cx="483" cy="322.6484" fill="#FFFFFF" rx="3" ry="3" style="stroke:#000000;stroke-width:1.0;"/><text fill="#000000" font-family="Verdana" font-size="14" lengthAdjust="spacing" textLength="98" x="490" y="325.9951">version: string</text><ellipse cx="483" cy="338.9453" fill="#FFFFFF" rx="3" ry="3" style="stroke:#000000;stroke-width:1.0;"/><text fill="#000000" font-family="Verdana" font-size="14" lengthAdjust="spacing" textLength="150" x="490" y="342.292">date: date_immutable</text><ellipse cx="483" cy="355.2422" fill="#FFFFFF" rx="3" ry="3" style="stroke:#000000;stroke-width:1.0;"/><text fill="#000000" font-family="Verdana" font-size="14" lengthAdjust="spacing" textLength="83" x="490" y="358.5889">state: string</text><ellipse cx="483" cy="371.5391" fill="#FFFFFF" rx="3" ry="3" style="stroke:#000000;stroke-width:1.0;"/><text fill="#000000" font-family="Verdana" font-size="14" lengthAdjust="spacing" textLength="101" x="490" y="374.8857">ext_min: string</text><text fill="#000000" font-family="Verdana" font-size="14" lengthAdjust="spacing" textLength="104" x="490" y="391.1826">ext_max: string</text><ellipse cx="483" cy="404.1328" fill="#FFFFFF" rx="3" ry="3" style="stroke:#000000;stroke-width:1.0;"/><text fill="#000000" font-family="Verdana" font-size="14" lengthAdjust="spacing" textLength="107" x="490" y="407.4795">php_min: string</text><text fill="#000000" font-family="Verdana" font-size="14" lengthAdjust="spacing" textLength="110" x="490" y="423.7764">php_max: string</text></g><!--link class_relationships to classes--><g id="link_class_relationships_classes"><path codeLine="133" d="M454.25,167.6794 C454.25,206.3494 454.25,237.6094 454.25,237.6094 C454.25,237.6094 462.25,237.6094 451.9,237.6094 " fill="none" id="class_relationships-classes" style="stroke:#000000;stroke-width:1.0;"/><line style="stroke:#000000;stroke-width:1.0;" x1="454.25" x2="448.25" y1="157.6794" y2="149.6794"/><line style="stroke:#000000;stroke-width:1.0;" x1="454.25" x2="460.25" y1="157.6794" y2="149.6794"/><line style="stroke:#000000;stroke-width:1.0;" x1="454.25" x2="454.25" y1="157.6794" y2="149.6794"/><ellipse cx="454.25" cy="163.6794" fill="none" rx="4" ry="4" style="stroke:#000000;stroke-width:1.0;"/><line style="stroke:#000000;stroke-width:1.0;" x1="447.9" x2="436.9" y1="237.6094" y2="237.6094"/><ellipse cx="447.9" cy="237.6094" fill="none" rx="4" ry="4" style="stroke:#000000;stroke-width:1.0;"/><line style="stroke:#000000;stroke-width:1.0;" x1="440.9" x2="440.9" y1="241.6094" y2="233.6094"/></g><!--link class_relationships to dependencies--><g id="link_class_relationships_dependencies"><path codeLine="134" d="M642.06,104.6094 C694.9,104.6094 732.33,104.6094 732.33,104.6094 C732.33,104.6094 732.33,199.5794 732.33,268.0894 " fill="none" id="class_relationships-dependencies" style="stroke:#000000;stroke-width:1.0;"/><line style="stroke:#000000;stroke-width:1.0;" x1="632.06" x2="624.06" y1="104.6094" y2="110.6094"/><line style="stroke:#000000;stroke-width:1.0;" x1="632.06" x2="624.06" y1="104.6094" y2="98.6094"/><line style="stroke:#000000;stroke-width:1.0;" x1="632.06" x2="624.06" y1="104.6094" y2="104.6094"/><ellipse cx="638.06" cy="104.6094" fill="none" rx="4" ry="4" style="stroke:#000000;stroke-width:1.0;"/><line style="stroke:#000000;stroke-width:1.0;" x1="732.33" x2="732.33" y1="272.0894" y2="283.0894"/><ellipse cx="732.33" cy="272.0894" fill="none" rx="4" ry="4" style="stroke:#000000;stroke-width:1.0;"/><line style="stroke:#000000;stroke-width:1.0;" x1="736.33" x2="728.33" y1="279.0894" y2="279.0894"/></g><!--link classes to extensions--><g id="link_classes_extensions"><path codeLine="135" d="M352,457.2494 C352,520.1194 352,570.6094 352,570.6094 C352,570.6094 565.44,570.6094 693.49,570.6094 " fill="none" id="classes-extensions" style="stroke:#000000;stroke-width:1.0;"/><line style="stroke:#000000;stroke-width:1.0;" x1="352" x2="346" y1="447.2494" y2="439.2494"/><line style="stroke:#000000;stroke-width:1.0;" x1="352" x2="358" y1="447.2494" y2="439.2494"/><line style="stroke:#000000;stroke-width:1.0;" x1="352" x2="352" y1="447.2494" y2="439.2494"/><ellipse cx="352" cy="453.2494" fill="none" rx="4" ry="4" style="stroke:#000000;stroke-width:1.0;"/><line style="stroke:#000000;stroke-width:1.0;" x1="697.49" x2="708.49" y1="570.6094" y2="570.6094"/><ellipse cx="697.49" cy="570.6094" fill="none" rx="4" ry="4" style="stroke:#000000;stroke-width:1.0;"/><line style="stroke:#000000;stroke-width:1.0;" x1="704.49" x2="704.49" y1="566.6094" y2="574.6094"/></g><!--link constant_relationships to constants--><g id="link_constant_relationships_constants"><path codeLine="136" d="M922.75,167.9794 C922.75,207.2894 922.75,239.6094 922.75,239.6094 C922.75,239.6094 914.81,239.6094 925.3,239.6094 " fill="none" id="constant_relationships-constants" style="stroke:#000000;stroke-width:1.0;"/><line style="stroke:#000000;stroke-width:1.0;" x1="922.75" x2="916.75" y1="157.9794" y2="149.9794"/><line style="stroke:#000000;stroke-width:1.0;" x1="922.75" x2="928.75" y1="157.9794" y2="149.9794"/><line style="stroke:#000000;stroke-width:1.0;" x1="922.75" x2="922.75" y1="157.9794" y2="149.9794"/><ellipse cx="922.75" cy="163.9794" fill="none" rx="4" ry="4" style="stroke:#000000;stroke-width:1.0;"/><line style="stroke:#000000;stroke-width:1.0;" x1="929.3" x2="940.3" y1="239.6094" y2="239.6094"/><ellipse cx="929.3" cy="239.6094" fill="none" rx="4" ry="4" style="stroke:#000000;stroke-width:1.0;"/><line style="stroke:#000000;stroke-width:1.0;" x1="936.3" x2="936.3" y1="235.6094" y2="243.6094"/></g><!--link constant_relationships to dependencies--><g id="link_constant_relationships_dependencies"><path codeLine="137" d="M807,167.7694 C807,205.9894 807,227.5894 807,267.8994 " fill="none" id="constant_relationships-dependencies" style="stroke:#000000;stroke-width:1.0;"/><line style="stroke:#000000;stroke-width:1.0;" x1="807" x2="801" y1="157.7694" y2="149.7694"/><line style="stroke:#000000;stroke-width:1.0;" x1="807" x2="813" y1="157.7694" y2="149.7694"/><line style="stroke:#000000;stroke-width:1.0;" x1="807" x2="807" y1="157.7694" y2="149.7694"/><ellipse cx="807" cy="163.7694" fill="none" rx="4" ry="4" style="stroke:#000000;stroke-width:1.0;"/><line style="stroke:#000000;stroke-width:1.0;" x1="807" x2="807" y1="271.8994" y2="282.8994"/><ellipse cx="807" cy="271.8994" fill="none" rx="4" ry="4" style="stroke:#000000;stroke-width:1.0;"/><line style="stroke:#000000;stroke-width:1.0;" x1="811" x2="803" y1="278.8994" y2="278.8994"/></g><!--link constants to extensions--><g id="link_constants_extensions"><path codeLine="138" d="M922.2,435.6094 C861.47,435.6094 809.9,435.6094 809.9,435.6094 C809.9,435.6094 809.9,466.1894 809.9,508.3894 " fill="none" id="constants-extensions" style="stroke:#000000;stroke-width:1.0;"/><line style="stroke:#000000;stroke-width:1.0;" x1="932.2" x2="940.2" y1="435.6094" y2="429.6094"/><line style="stroke:#000000;stroke-width:1.0;" x1="932.2" x2="940.2" y1="435.6094" y2="441.6094"/><line style="stroke:#000000;stroke-width:1.0;" x1="932.2" x2="940.2" y1="435.6094" y2="435.6094"/><ellipse cx="926.2" cy="435.6094" fill="none" rx="4" ry="4" style="stroke:#000000;stroke-width:1.0;"/><line style="stroke:#000000;stroke-width:1.0;" x1="809.9" x2="809.9" y1="512.3894" y2="523.3894"/><ellipse cx="809.9" cy="512.3894" fill="none" rx="4" ry="4" style="stroke:#000000;stroke-width:1.0;"/><line style="stroke:#000000;stroke-width:1.0;" x1="813.9" x2="805.9" y1="519.3894" y2="519.3894"/></g><!--link dependencies to extensions--><g id="link_dependencies_extensions"><path codeLine="139" d="M776.1,408.1694 C776.1,446.8594 776.1,466.4794 776.1,508.5094 " fill="none" id="dependencies-extensions" style="stroke:#000000;stroke-width:1.0;"/><line style="stroke:#000000;stroke-width:1.0;" x1="776.1" x2="770.1" y1="398.1694" y2="390.1694"/><line style="stroke:#000000;stroke-width:1.0;" x1="776.1" x2="782.1" y1="398.1694" y2="390.1694"/><line style="stroke:#000000;stroke-width:1.0;" x1="776.1" x2="776.1" y1="398.1694" y2="390.1694"/><ellipse cx="776.1" cy="404.1694" fill="none" rx="4" ry="4" style="stroke:#000000;stroke-width:1.0;"/><line style="stroke:#000000;stroke-width:1.0;" x1="776.1" x2="776.1" y1="512.5094" y2="523.5094"/><ellipse cx="776.1" cy="512.5094" fill="none" rx="4" ry="4" style="stroke:#000000;stroke-width:1.0;"/><line style="stroke:#000000;stroke-width:1.0;" x1="780.1" x2="772.1" y1="519.5094" y2="519.5094"/></g><!--link function_relationships to functions--><g id="link_function_relationships_functions"><path codeLine="140" d="M1219.25,167.7694 C1219.25,185.2194 1219.25,173.0994 1219.25,194.4694 " fill="none" id="function_relationships-functions" style="stroke:#000000;stroke-width:1.0;"/><line style="stroke:#000000;stroke-width:1.0;" x1="1219.25" x2="1213.25" y1="157.7694" y2="149.7694"/><line style="stroke:#000000;stroke-width:1.0;" x1="1219.25" x2="1225.25" y1="157.7694" y2="149.7694"/><line style="stroke:#000000;stroke-width:1.0;" x1="1219.25" x2="1219.25" y1="157.7694" y2="149.7694"/><ellipse cx="1219.25" cy="163.7694" fill="none" rx="4" ry="4" style="stroke:#000000;stroke-width:1.0;"/><line style="stroke:#000000;stroke-width:1.0;" x1="1219.25" x2="1219.25" y1="198.4694" y2="209.4694"/><ellipse cx="1219.25" cy="198.4694" fill="none" rx="4" ry="4" style="stroke:#000000;stroke-width:1.0;"/><line style="stroke:#000000;stroke-width:1.0;" x1="1223.25" x2="1215.25" y1="205.4694" y2="205.4694"/></g><!--link function_relationships to dependencies--><g id="link_function_relationships_dependencies"><path codeLine="141" d="M1107.75,167.6094 C1107.75,188.0294 1107.75,189.6094 1107.75,189.6094 C1107.75,189.6094 856,189.6094 856,189.6094 C856,189.6094 856,225.7494 856,267.7094 " fill="none" id="function_relationships-dependencies" style="stroke:#000000;stroke-width:1.0;"/><line style="stroke:#000000;stroke-width:1.0;" x1="1107.75" x2="1101.75" y1="157.6094" y2="149.6094"/><line style="stroke:#000000;stroke-width:1.0;" x1="1107.75" x2="1113.75" y1="157.6094" y2="149.6094"/><line style="stroke:#000000;stroke-width:1.0;" x1="1107.75" x2="1107.75" y1="157.6094" y2="149.6094"/><ellipse cx="1107.75" cy="163.6094" fill="none" rx="4" ry="4" style="stroke:#000000;stroke-width:1.0;"/><line style="stroke:#000000;stroke-width:1.0;" x1="856" x2="856" y1="271.7094" y2="282.7094"/><ellipse cx="856" cy="271.7094" fill="none" rx="4" ry="4" style="stroke:#000000;stroke-width:1.0;"/><line style="stroke:#000000;stroke-width:1.0;" x1="860" x2="852" y1="278.7094" y2="278.7094"/></g><!--link functions to extensions--><g id="link_functions_extensions"><path codeLine="142" d="M1134.4,451.6094 C1013.86,451.6094 843.7,451.6094 843.7,451.6094 C843.7,451.6094 843.7,472.6694 843.7,508.4394 " fill="none" id="functions-extensions" style="stroke:#000000;stroke-width:1.0;"/><line style="stroke:#000000;stroke-width:1.0;" x1="1144.4" x2="1152.4" y1="451.6094" y2="445.6094"/><line style="stroke:#000000;stroke-width:1.0;" x1="1144.4" x2="1152.4" y1="451.6094" y2="457.6094"/><line style="stroke:#000000;stroke-width:1.0;" x1="1144.4" x2="1152.4" y1="451.6094" y2="451.6094"/><ellipse cx="1138.4" cy="451.6094" fill="none" rx="4" ry="4" style="stroke:#000000;stroke-width:1.0;"/><line style="stroke:#000000;stroke-width:1.0;" x1="843.7" x2="843.7" y1="512.4394" y2="523.4394"/><ellipse cx="843.7" cy="512.4394" fill="none" rx="4" ry="4" style="stroke:#000000;stroke-width:1.0;"/><line style="stroke:#000000;stroke-width:1.0;" x1="847.7" x2="839.7" y1="519.4394" y2="519.4394"/></g><!--link ini_entries to extensions--><g id="link_ini_entries_extensions"><path codeLine="143" d="M148,432.8794 C148,516.0294 148,617.6094 148,617.6094 C148,617.6094 518.36,617.6094 693.35,617.6094 " fill="none" id="ini_entries-extensions" style="stroke:#000000;stroke-width:1.0;"/><line style="stroke:#000000;stroke-width:1.0;" x1="148" x2="142" y1="422.8794" y2="414.8794"/><line style="stroke:#000000;stroke-width:1.0;" x1="148" x2="154" y1="422.8794" y2="414.8794"/><line style="stroke:#000000;stroke-width:1.0;" x1="148" x2="148" y1="422.8794" y2="414.8794"/><ellipse cx="148" cy="428.8794" fill="none" rx="4" ry="4" style="stroke:#000000;stroke-width:1.0;"/><line style="stroke:#000000;stroke-width:1.0;" x1="697.35" x2="708.35" y1="617.6094" y2="617.6094"/><ellipse cx="697.35" cy="617.6094" fill="none" rx="4" ry="4" style="stroke:#000000;stroke-width:1.0;"/><line style="stroke:#000000;stroke-width:1.0;" x1="704.35" x2="704.35" y1="613.6094" y2="621.6094"/></g><!--link ini_relationships to ini_entries--><g id="link_ini_relationships_ini_entries"><path codeLine="144" d="M168.25,167.7694 C168.25,198.7094 168.25,207.3994 168.25,243.5494 " fill="none" id="ini_relationships-ini_entries" style="stroke:#000000;stroke-width:1.0;"/><line style="stroke:#000000;stroke-width:1.0;" x1="168.25" x2="162.25" y1="157.7694" y2="149.7694"/><line style="stroke:#000000;stroke-width:1.0;" x1="168.25" x2="174.25" y1="157.7694" y2="149.7694"/><line style="stroke:#000000;stroke-width:1.0;" x1="168.25" x2="168.25" y1="157.7694" y2="149.7694"/><ellipse cx="168.25" cy="163.7694" fill="none" rx="4" ry="4" style="stroke:#000000;stroke-width:1.0;"/><line style="stroke:#000000;stroke-width:1.0;" x1="168.25" x2="168.25" y1="247.5494" y2="258.5494"/><ellipse cx="168.25" cy="247.5494" fill="none" rx="4" ry="4" style="stroke:#000000;stroke-width:1.0;"/><line style="stroke:#000000;stroke-width:1.0;" x1="172.25" x2="164.25" y1="254.5494" y2="254.5494"/></g><!--link ini_relationships to dependencies--><g id="link_ini_relationships_dependencies"><path codeLine="145" d="M279.75,167.9594 C279.75,178.9694 279.75,169.6094 279.75,169.6094 C279.75,169.6094 706.67,169.6094 706.67,169.6094 C706.67,169.6094 706.67,219.0294 706.67,267.8494 " fill="none" id="ini_relationships-dependencies" style="stroke:#000000;stroke-width:1.0;"/><line style="stroke:#000000;stroke-width:1.0;" x1="279.75" x2="273.75" y1="157.9594" y2="149.9594"/><line style="stroke:#000000;stroke-width:1.0;" x1="279.75" x2="285.75" y1="157.9594" y2="149.9594"/><line style="stroke:#000000;stroke-width:1.0;" x1="279.75" x2="279.75" y1="157.9594" y2="149.9594"/><ellipse cx="279.75" cy="163.9594" fill="none" rx="4" ry="4" style="stroke:#000000;stroke-width:1.0;"/><line style="stroke:#000000;stroke-width:1.0;" x1="706.67" x2="706.67" y1="271.8494" y2="282.8494"/><ellipse cx="706.67" cy="271.8494" fill="none" rx="4" ry="4" style="stroke:#000000;stroke-width:1.0;"/><line style="stroke:#000000;stroke-width:1.0;" x1="710.67" x2="702.67" y1="278.8494" y2="278.8494"/></g><!--link relationships to platforms--><g id="link_relationships_platforms"><path codeLine="146" d="M1497.17,400.2594 C1497.17,444.3994 1497.17,478.2694 1497.17,524.9394 " fill="none" id="relationships-platforms" style="stroke:#000000;stroke-width:1.0;"/><line style="stroke:#000000;stroke-width:1.0;" x1="1497.17" x2="1491.17" y1="390.2594" y2="382.2594"/><line style="stroke:#000000;stroke-width:1.0;" x1="1497.17" x2="1503.17" y1="390.2594" y2="382.2594"/><line style="stroke:#000000;stroke-width:1.0;" x1="1497.17" x2="1497.17" y1="390.2594" y2="382.2594"/><ellipse cx="1497.17" cy="396.2594" fill="none" rx="4" ry="4" style="stroke:#000000;stroke-width:1.0;"/><line style="stroke:#000000;stroke-width:1.0;" x1="1497.17" x2="1497.17" y1="528.9394" y2="539.9394"/><ellipse cx="1497.17" cy="528.9394" fill="none" rx="4" ry="4" style="stroke:#000000;stroke-width:1.0;"/><line style="stroke:#000000;stroke-width:1.0;" x1="1501.17" x2="1493.17" y1="535.9394" y2="535.9394"/></g><!--link relationships to extensions--><g id="link_relationships_extensions"><path codeLine="147" d="M1440.83,400.5594 C1440.83,458.4894 1440.83,532.6094 1440.83,532.6094 C1440.83,532.6094 1068.3,532.6094 892.69,532.6094 " fill="none" id="relationships-extensions" style="stroke:#000000;stroke-width:1.0;"/><line style="stroke:#000000;stroke-width:1.0;" x1="1440.83" x2="1434.83" y1="390.5594" y2="382.5594"/><line style="stroke:#000000;stroke-width:1.0;" x1="1440.83" x2="1446.83" y1="390.5594" y2="382.5594"/><line style="stroke:#000000;stroke-width:1.0;" x1="1440.83" x2="1440.83" y1="390.5594" y2="382.5594"/><ellipse cx="1440.83" cy="396.5594" fill="none" rx="4" ry="4" style="stroke:#000000;stroke-width:1.0;"/><line style="stroke:#000000;stroke-width:1.0;" x1="888.69" x2="877.69" y1="532.6094" y2="532.6094"/><ellipse cx="888.69" cy="532.6094" fill="none" rx="4" ry="4" style="stroke:#000000;stroke-width:1.0;"/><line style="stroke:#000000;stroke-width:1.0;" x1="881.69" x2="881.69" y1="536.6094" y2="528.6094"/></g><!--link releases to extensions--><g id="link_releases_extensions"><path codeLine="148" d="M664.09,410.6094 C711.38,410.6094 742.3,410.6094 742.3,410.6094 C742.3,410.6094 742.3,456.7694 742.3,508.3794 " fill="none" id="releases-extensions" style="stroke:#000000;stroke-width:1.0;"/><line style="stroke:#000000;stroke-width:1.0;" x1="654.09" x2="646.09" y1="410.6094" y2="416.6094"/><line style="stroke:#000000;stroke-width:1.0;" x1="654.09" x2="646.09" y1="410.6094" y2="404.6094"/><line style="stroke:#000000;stroke-width:1.0;" x1="654.09" x2="646.09" y1="410.6094" y2="410.6094"/><ellipse cx="660.09" cy="410.6094" fill="none" rx="4" ry="4" style="stroke:#000000;stroke-width:1.0;"/><line style="stroke:#000000;stroke-width:1.0;" x1="742.3" x2="742.3" y1="512.3794" y2="523.3794"/><ellipse cx="742.3" cy="512.3794" fill="none" rx="4" ry="4" style="stroke:#000000;stroke-width:1.0;"/><line style="stroke:#000000;stroke-width:1.0;" x1="746.3" x2="738.3" y1="519.3794" y2="519.3794"/></g><!--SRC=[lLPDZzem4BtdLxYxDoIghj1Uk56aLYlHBX98UunCCf0H_eXiin2r_FUEWGI7X09Ysrioy-RhvNcS35DW87DNC0bo1iP6cJSbQ181aLsYohdXaWsCqUkX5jgmnrwlT-gPPfWi5LZBdZu_1ywXuDP-vSboOVHAfVi4Rnaww0x6uz7BS31zUVtP2D0c1RC7Zt2HkOdW3huRNhGZW-e1u0Ug7UODKvUnf-SlWM-42gP53kpLk4m7Zad6Kxr6jM1pBcp8m9Ycu0iu7UOHe0qLJD2E-AQLcxX205FQI2uYXuvU94SLVN8PI62vy2-Wo5Emn8yI6o0cK2kROMxPhwZRZJeCqpv3vM019ZhWQgOKSb0fgAIesRUrrD2U3ZOEbAMAjT0EKrn2drbdY2eVGmupvmdPPbeBu8gCSy4NDiYLQr7CKOWWZjB74bLbsHlu9e3aMLw7x0m1v3W7yUAuSjUmL49l8-eGTGTLL8Feze_nZlPWh5DsV3i64b9- -gyOgmR6-px_ZXX3QdKnRAXfwqEQvQfihSKwr8vD3EOk36xKUgSbLGSuEiZ1QqXRASQgXVbA9Jx_5Hgfe3Tff8owHoExHG5qehmyKEO2OcxyzgFuHAo8fbFxULKPxVG9GV_xNAB2c1xDdIBxy9ukIy2ZRlhwjBBTdFRvJG9lAZenuFKRSzTdAJqvb12Zb2l7PtGjL-KkJr0s55_1U9WM-AqtGdCAt_c-_w3t3lbtzW_-hctturPtk_ftUR_z3H8kmgYy3m- -uzQApjmmPPtoUhY0gnUhxfHckTfwRhhFxB83i5f45t2rRexRgrakFCRjtjRyGTXvKAs9LaHrijhTGIULUfkkVF_lnHxU4TRsWVIz_GC0]--></g></svg>