<?xml version="1.0" encoding="UTF-8" standalone="no"?>
<!DOCTYPE svg PUBLIC "-//W3C//DTD SVG 1.1//EN"
 "http://www.w3.org/Graphics/SVG/1.1/DTD/svg11.dtd">
<!-- Generated by graphviz version 2.43.0 (0)
 -->
<!-- Title: %3 Pages: 1 -->
<svg width="1709pt" height="2651pt"
 viewBox="0.00 0.00 1708.68 2651.00" xmlns="http://www.w3.org/2000/svg" xmlns:xlink="http://www.w3.org/1999/xlink">
<g id="graph0" class="graph" transform="scale(1 1) rotate(0) translate(4 2647)">
<title>%3</title>
<polygon fill="white" stroke="transparent" points="-4,4 -4,-2647 1704.68,-2647 1704.68,4 -4,4"/>
<!-- bartlett/php&#45;compatinfo&#45;db -->
<g id="node1" class="node">
<title>bartlett/php&#45;compatinfo&#45;db</title>
<ellipse fill="lightgrey" stroke="black" stroke-width="2" cx="135.84" cy="-1622" rx="135.68" ry="18"/>
<text text-anchor="middle" x="135.84" y="-1618.3" font-family="Times,serif" font-size="14.00">bartlett/php&#45;compatinfo&#45;db</text>
</g>
<!-- php -->
<g id="node2" class="node">
<title>php</title>
<path fill="#eeeeee" stroke="black" d="M1552.68,-1803C1552.68,-1803 1522.68,-1803 1522.68,-1803 1516.68,-1803 1510.68,-1797 1510.68,-1791 1510.68,-1791 1510.68,-1779 1510.68,-1779 1510.68,-1773 1516.68,-1767 1522.68,-1767 1522.68,-1767 1552.68,-1767 1552.68,-1767 1558.68,-1767 1564.68,-1773 1564.68,-1779 1564.68,-1779 1564.68,-1791 1564.68,-1791 1564.68,-1797 1558.68,-1803 1552.68,-1803"/>
<text text-anchor="middle" x="1537.68" y="-1781.3" font-family="Times,serif" font-size="14.00" fill="#314b5f">php</text>
</g>
<!-- bartlett/php&#45;compatinfo&#45;db&#45;&gt;php -->
<g id="edge1" class="edge">
<title>bartlett/php&#45;compatinfo&#45;db&#45;&gt;php</title>
<path fill="none" stroke="#1a2833" d="M145.74,-1640.18C171.45,-1690.15 251.44,-1828.55 366.68,-1869 490.45,-1912.44 527.85,-1902.42 658.68,-1912 792.55,-1921.8 1155.18,-1986.38 1262.68,-1906 1283.95,-1890.09 1261.33,-1867.2 1280.68,-1849 1296.75,-1833.88 1433.66,-1805.26 1500.4,-1792.03"/>
<polygon fill="#1a2833" stroke="#1a2833" points="1501.34,-1795.41 1510.48,-1790.05 1499.99,-1788.55 1501.34,-1795.41"/>
<text text-anchor="middle" x="804.18" y="-1944" font-family="Times,serif" font-size="10.00" fill="#767676">^8.1</text>
</g>
<!-- ext&#45;json -->
<g id="node3" class="node">
<title>ext&#45;json</title>
<path fill="#eeeeee" stroke="black" d="M528.18,-252C528.18,-252 479.18,-252 479.18,-252 473.18,-252 467.18,-246 467.18,-240 467.18,-240 467.18,-228 467.18,-228 467.18,-222 473.18,-216 479.18,-216 479.18,-216 528.18,-216 528.18,-216 534.18,-216 540.18,-222 540.18,-228 540.18,-228 540.18,-240 540.18,-240 540.18,-246 534.18,-252 528.18,-252"/>
<text text-anchor="middle" x="503.68" y="-230.3" font-family="Times,serif" font-size="14.00" fill="#314b5f">ext&#45;json</text>
</g>
<!-- bartlett/php&#45;compatinfo&#45;db&#45;&gt;ext&#45;json -->
<g id="edge2" class="edge">
<title>bartlett/php&#45;compatinfo&#45;db&#45;&gt;ext&#45;json</title>
<path fill="none" stroke="#1a2833" d="M137.55,-1603.8C143.79,-1449.54 191.06,-363.94 289.68,-263 332.65,-219.01 408.55,-219.64 457.18,-225.67"/>
<polygon fill="#1a2833" stroke="#1a2833" points="456.75,-229.14 467.13,-227.02 457.69,-222.2 456.75,-229.14"/>
<text text-anchor="middle" x="319.18" y="-266" font-family="Times,serif" font-size="10.00" fill="#767676">*</text>
</g>
<!-- ext&#45;pcre -->
<g id="node4" class="node">
<title>ext&#45;pcre</title>
<path fill="#eeeeee" stroke="black" d="M529.18,-198C529.18,-198 478.18,-198 478.18,-198 472.18,-198 466.18,-192 466.18,-186 466.18,-186 466.18,-174 466.18,-174 466.18,-168 472.18,-162 478.18,-162 478.18,-162 529.18,-162 529.18,-162 535.18,-162 541.18,-168 541.18,-174 541.18,-174 541.18,-186 541.18,-186 541.18,-192 535.18,-198 529.18,-198"/>
<text text-anchor="middle" x="503.68" y="-176.3" font-family="Times,serif" font-size="14.00" fill="#314b5f">ext&#45;pcre</text>
</g>
<!-- bartlett/php&#45;compatinfo&#45;db&#45;&gt;ext&#45;pcre -->
<g id="edge3" class="edge">
<title>bartlett/php&#45;compatinfo&#45;db&#45;&gt;ext&#45;pcre</title>
<path fill="none" stroke="#1a2833" d="M137.51,-1603.7C143.48,-1446.18 189.47,-322.31 289.68,-216 331.82,-171.28 407.27,-169.06 456.13,-173.25"/>
<polygon fill="#1a2833" stroke="#1a2833" points="455.84,-176.74 466.13,-174.23 456.52,-169.77 455.84,-176.74"/>
<text text-anchor="middle" x="319.18" y="-219" font-family="Times,serif" font-size="10.00" fill="#767676">*</text>
</g>
<!-- ext&#45;pdo -->
<g id="node5" class="node">
<title>ext&#45;pdo</title>
<path fill="#eeeeee" stroke="black" d="M526.68,-144C526.68,-144 480.68,-144 480.68,-144 474.68,-144 468.68,-138 468.68,-132 468.68,-132 468.68,-120 468.68,-120 468.68,-114 474.68,-108 480.68,-108 480.68,-108 526.68,-108 526.68,-108 532.68,-108 538.68,-114 538.68,-120 538.68,-120 538.68,-132 538.68,-132 538.68,-138 532.68,-144 526.68,-144"/>
<text text-anchor="middle" x="503.68" y="-122.3" font-family="Times,serif" font-size="14.00" fill="#314b5f">ext&#45;pdo</text>
</g>
<!-- bartlett/php&#45;compatinfo&#45;db&#45;&gt;ext&#45;pdo -->
<g id="edge4" class="edge">
<title>bartlett/php&#45;compatinfo&#45;db&#45;&gt;ext&#45;pdo</title>
<path fill="none" stroke="#1a2833" d="M137.46,-1603.85C143.06,-1443.9 187.32,-278.51 289.68,-167 332.11,-120.77 409.56,-117.35 458.45,-120.6"/>
<polygon fill="#1a2833" stroke="#1a2833" points="458.19,-124.09 468.43,-121.38 458.73,-117.11 458.19,-124.09"/>
<text text-anchor="middle" x="319.18" y="-170" font-family="Times,serif" font-size="10.00" fill="#767676">*</text>
</g>
<!-- ext&#45;phar -->
<g id="node6" class="node">
<title>ext&#45;phar</title>
<path fill="#eeeeee" stroke="black" d="M530.18,-90C530.18,-90 477.18,-90 477.18,-90 471.18,-90 465.18,-84 465.18,-78 465.18,-78 465.18,-66 465.18,-66 465.18,-60 471.18,-54 477.18,-54 477.18,-54 530.18,-54 530.18,-54 536.18,-54 542.18,-60 542.18,-66 542.18,-66 542.18,-78 542.18,-78 542.18,-84 536.18,-90 530.18,-90"/>
<text text-anchor="middle" x="503.68" y="-68.3" font-family="Times,serif" font-size="14.00" fill="#314b5f">ext&#45;phar</text>
</g>
<!-- bartlett/php&#45;compatinfo&#45;db&#45;&gt;ext&#45;phar -->
<g id="edge5" class="edge">
<title>bartlett/php&#45;compatinfo&#45;db&#45;&gt;ext&#45;phar</title>
<path fill="none" stroke="#1a2833" d="M137.42,-1603.77C142.84,-1440.61 186.23,-234.67 289.68,-117 330.33,-70.76 405.5,-65.15 454.79,-67.18"/>
<polygon fill="#1a2833" stroke="#1a2833" points="454.73,-70.68 464.9,-67.72 455.1,-63.69 454.73,-70.68"/>
<text text-anchor="middle" x="319.18" y="-120" font-family="Times,serif" font-size="10.00" fill="#767676">*</text>
</g>
<!-- ext&#45;spl -->
<g id="node7" class="node">
<title>ext&#45;spl</title>
<path fill="#eeeeee" stroke="black" d="M524.18,-36C524.18,-36 483.18,-36 483.18,-36 477.18,-36 471.18,-30 471.18,-24 471.18,-24 471.18,-12 471.18,-12 471.18,-6 477.18,0 483.18,0 483.18,0 524.18,0 524.18,0 530.18,0 536.18,-6 536.18,-12 536.18,-12 536.18,-24 536.18,-24 536.18,-30 530.18,-36 524.18,-36"/>
<text text-anchor="middle" x="503.68" y="-14.3" font-family="Times,serif" font-size="14.00" fill="#314b5f">ext&#45;spl</text>
</g>
<!-- bartlett/php&#45;compatinfo&#45;db&#45;&gt;ext&#45;spl -->
<g id="edge6" class="edge">
<title>bartlett/php&#45;compatinfo&#45;db&#45;&gt;ext&#45;spl</title>
<path fill="none" stroke="#1a2833" d="M137.39,-1603.97C142.57,-1438.66 185.04,-189.92 289.68,-66 331.34,-16.65 411.9,-11.73 461.12,-13.96"/>
<polygon fill="#1a2833" stroke="#1a2833" points="460.94,-17.45 471.12,-14.53 461.34,-10.46 460.94,-17.45"/>
<text text-anchor="middle" x="319.18" y="-69" font-family="Times,serif" font-size="10.00" fill="#767676">*</text>
</g>
<!-- composer&#45;runtime&#45;api -->
<g id="node8" class="node">
<title>composer&#45;runtime&#45;api</title>
<path fill="#eeeeee" stroke="black" d="M1189.68,-1138C1189.68,-1138 1040.68,-1138 1040.68,-1138 1034.68,-1138 1028.68,-1132 1028.68,-1126 1028.68,-1126 1028.68,-1114 1028.68,-1114 1028.68,-1108 1034.68,-1102 1040.68,-1102 1040.68,-1102 1189.68,-1102 1189.68,-1102 1195.68,-1102 1201.68,-1108 1201.68,-1114 1201.68,-1114 1201.68,-1126 1201.68,-1126 1201.68,-1132 1195.68,-1138 1189.68,-1138"/>
<text text-anchor="middle" x="1115.18" y="-1116.3" font-family="Times,serif" font-size="14.00" fill="#314b5f">composer&#45;runtime&#45;api</text>
</g>
<!-- bartlett/php&#45;compatinfo&#45;db&#45;&gt;composer&#45;runtime&#45;api -->
<g id="edge7" class="edge">
<title>bartlett/php&#45;compatinfo&#45;db&#45;&gt;composer&#45;runtime&#45;api</title>
<path fill="none" stroke="#1a2833" d="M142.47,-1604C162.51,-1542.9 236.15,-1341.4 366.68,-1235 473.11,-1148.23 523.62,-1158.84 658.68,-1134 781.3,-1111.45 925.57,-1111.36 1018.36,-1114.62"/>
<polygon fill="#1a2833" stroke="#1a2833" points="1018.45,-1118.12 1028.57,-1115 1018.71,-1111.13 1018.45,-1118.12"/>
<text text-anchor="middle" x="503.68" y="-1238" font-family="Times,serif" font-size="10.00" fill="#767676">^2.0</text>
</g>
<!-- composer/semver -->
<g id="node9" class="node">
<title>composer/semver</title>
<path fill="#eeeeee" stroke="black" d="M886.18,-1863C886.18,-1863 722.18,-1863 722.18,-1863 716.18,-1863 710.18,-1857 710.18,-1851 710.18,-1851 710.18,-1839 710.18,-1839 710.18,-1833 716.18,-1827 722.18,-1827 722.18,-1827 886.18,-1827 886.18,-1827 892.18,-1827 898.18,-1833 898.18,-1839 898.18,-1839 898.18,-1851 898.18,-1851 898.18,-1857 892.18,-1863 886.18,-1863"/>
<text text-anchor="middle" x="804.18" y="-1841.3" font-family="Times,serif" font-size="14.00" fill="#314b5f">composer/semver: 3.4.3</text>
</g>
<!-- bartlett/php&#45;compatinfo&#45;db&#45;&gt;composer/semver -->
<g id="edge9" class="edge">
<title>bartlett/php&#45;compatinfo&#45;db&#45;&gt;composer/semver</title>
<path fill="none" stroke="#1a2833" d="M158.06,-1640.07C186.65,-1663.84 239.74,-1705.99 289.68,-1735 418.11,-1809.6 591.04,-1833.8 699.81,-1841.54"/>
<polygon fill="#1a2833" stroke="#1a2833" points="699.6,-1845.03 709.81,-1842.21 700.07,-1838.05 699.6,-1845.03"/>
<text text-anchor="middle" x="319.18" y="-1765" font-family="Times,serif" font-size="10.00" fill="#767676">^3.0</text>
</g>
<!-- doctrine/orm -->
<g id="node10" class="node">
<title>doctrine/orm</title>
<path fill="#eeeeee" stroke="black" d="M573.18,-693C573.18,-693 434.18,-693 434.18,-693 428.18,-693 422.18,-687 422.18,-681 422.18,-681 422.18,-669 422.18,-669 422.18,-663 428.18,-657 434.18,-657 434.18,-657 573.18,-657 573.18,-657 579.18,-657 585.18,-663 585.18,-669 585.18,-669 585.18,-681 585.18,-681 585.18,-687 579.18,-693 573.18,-693"/>
<text text-anchor="middle" x="503.68" y="-671.3" font-family="Times,serif" font-size="14.00" fill="#314b5f">doctrine/orm: 2.19.7</text>
</g>
<!-- bartlett/php&#45;compatinfo&#45;db&#45;&gt;doctrine/orm -->
<g id="edge27" class="edge">
<title>bartlett/php&#45;compatinfo&#45;db&#45;&gt;doctrine/orm</title>
<path fill="none" stroke="#1a2833" d="M139.7,-1603.67C151.6,-1530.11 200.66,-1250.06 289.68,-1036 345.09,-902.75 442.48,-759.3 483.55,-701.43"/>
<polygon fill="#1a2833" stroke="#1a2833" points="486.46,-703.38 489.41,-693.2 480.76,-699.31 486.46,-703.38"/>
<text text-anchor="middle" x="319.18" y="-1039" font-family="Times,serif" font-size="10.00" fill="#767676">^2.12</text>
</g>
<!-- doctrine/dbal -->
<g id="node14" class="node">
<title>doctrine/dbal</title>
<path fill="#eeeeee" stroke="black" d="M1181.18,-234C1181.18,-234 1049.18,-234 1049.18,-234 1043.18,-234 1037.18,-228 1037.18,-222 1037.18,-222 1037.18,-210 1037.18,-210 1037.18,-204 1043.18,-198 1049.18,-198 1049.18,-198 1181.18,-198 1181.18,-198 1187.18,-198 1193.18,-204 1193.18,-210 1193.18,-210 1193.18,-222 1193.18,-222 1193.18,-228 1187.18,-234 1181.18,-234"/>
<text text-anchor="middle" x="1115.18" y="-212.3" font-family="Times,serif" font-size="14.00" fill="#314b5f">doctrine/dbal: 3.9.1</text>
</g>
<!-- bartlett/php&#45;compatinfo&#45;db&#45;&gt;doctrine/dbal -->
<g id="edge28" class="edge">
<title>bartlett/php&#45;compatinfo&#45;db&#45;&gt;doctrine/dbal</title>
<path fill="none" stroke="#1a2833" d="M137.18,-1603.74C140.27,-1459.7 168.13,-507.19 366.68,-323 414.51,-278.62 840.03,-238.56 1026.86,-222.93"/>
<polygon fill="#1a2833" stroke="#1a2833" points="1027.25,-226.41 1036.93,-222.1 1026.67,-219.44 1027.25,-226.41"/>
<text text-anchor="middle" x="503.68" y="-326" font-family="Times,serif" font-size="10.00" fill="#767676">^3.2</text>
</g>
<!-- symfony/console -->
<g id="node23" class="node">
<title>symfony/console</title>
<path fill="#eeeeee" stroke="black" d="M1201.68,-288C1201.68,-288 1028.68,-288 1028.68,-288 1022.68,-288 1016.68,-282 1016.68,-276 1016.68,-276 1016.68,-264 1016.68,-264 1016.68,-258 1022.68,-252 1028.68,-252 1028.68,-252 1201.68,-252 1201.68,-252 1207.68,-252 1213.68,-258 1213.68,-264 1213.68,-264 1213.68,-276 1213.68,-276 1213.68,-282 1207.68,-288 1201.68,-288"/>
<text text-anchor="middle" x="1115.18" y="-266.3" font-family="Times,serif" font-size="14.00" fill="#314b5f">symfony/console: v6.4.12</text>
</g>
<!-- bartlett/php&#45;compatinfo&#45;db&#45;&gt;symfony/console -->
<g id="edge41" class="edge">
<title>bartlett/php&#45;compatinfo&#45;db&#45;&gt;symfony/console</title>
<path fill="none" stroke="#1a2833" d="M137.38,-1603.82C141.12,-1501.39 169.42,-988.43 366.68,-637 459.32,-471.95 488.71,-410.28 658.68,-327 717.01,-298.41 885.3,-307.76 949.68,-299 968.97,-296.37 989.46,-293.13 1009.2,-289.77"/>
<polygon fill="#1a2833" stroke="#1a2833" points="1009.86,-293.21 1019.13,-288.07 1008.68,-286.31 1009.86,-293.21"/>
<text text-anchor="middle" x="503.68" y="-640" font-family="Times,serif" font-size="10.00" fill="#767676">^6.4 || ^7.0</text>
</g>
<!-- symfony/cache -->
<g id="node26" class="node">
<title>symfony/cache</title>
<path fill="#eeeeee" stroke="black" d="M1195.18,-1998C1195.18,-1998 1035.18,-1998 1035.18,-1998 1029.18,-1998 1023.18,-1992 1023.18,-1986 1023.18,-1986 1023.18,-1974 1023.18,-1974 1023.18,-1968 1029.18,-1962 1035.18,-1962 1035.18,-1962 1195.18,-1962 1195.18,-1962 1201.18,-1962 1207.18,-1968 1207.18,-1974 1207.18,-1974 1207.18,-1986 1207.18,-1986 1207.18,-1992 1201.18,-1998 1195.18,-1998"/>
<text text-anchor="middle" x="1115.18" y="-1976.3" font-family="Times,serif" font-size="14.00" fill="#314b5f">symfony/cache: v6.4.12</text>
</g>
<!-- bartlett/php&#45;compatinfo&#45;db&#45;&gt;symfony/cache -->
<g id="edge35" class="edge">
<title>bartlett/php&#45;compatinfo&#45;db&#45;&gt;symfony/cache</title>
<path fill="none" stroke="#1a2833" d="M138.93,-1640.27C146.59,-1697.6 178.72,-1874.41 289.68,-1948 405.49,-2024.81 819.38,-2003.57 1012.98,-1988.79"/>
<polygon fill="#1a2833" stroke="#1a2833" points="1013.46,-1992.26 1023.16,-1988 1012.92,-1985.28 1013.46,-1992.26"/>
<text text-anchor="middle" x="503.68" y="-2005" font-family="Times,serif" font-size="10.00" fill="#767676">^6.4 || ^7.0</text>
</g>
<!-- psr/log -->
<g id="node27" class="node">
<title>psr/log</title>
<path fill="#eeeeee" stroke="black" d="M1581.18,-2557C1581.18,-2557 1494.18,-2557 1494.18,-2557 1488.18,-2557 1482.18,-2551 1482.18,-2545 1482.18,-2545 1482.18,-2533 1482.18,-2533 1482.18,-2527 1488.18,-2521 1494.18,-2521 1494.18,-2521 1581.18,-2521 1581.18,-2521 1587.18,-2521 1593.18,-2527 1593.18,-2533 1593.18,-2533 1593.18,-2545 1593.18,-2545 1593.18,-2551 1587.18,-2557 1581.18,-2557"/>
<text text-anchor="middle" x="1537.68" y="-2535.3" font-family="Times,serif" font-size="14.00" fill="#314b5f">psr/log: 3.0.2</text>
</g>
<!-- bartlett/php&#45;compatinfo&#45;db&#45;&gt;psr/log -->
<g id="edge71" class="edge">
<title>bartlett/php&#45;compatinfo&#45;db&#45;&gt;psr/log</title>
<path fill="none" stroke="#1a2833" stroke-dasharray="5,2" d="M138.67,-1640.32C150.63,-1756.14 221.83,-2385.48 366.68,-2496 691.4,-2743.77 872.57,-2575.08 1280.68,-2592 1314.42,-2593.4 1324.35,-2601.79 1356.68,-2592 1365.88,-2589.21 1365.89,-2583.9 1374.68,-2580 1405.41,-2566.35 1441.52,-2556.66 1471.83,-2550.14"/>
<polygon fill="#1a2833" stroke="#1a2833" points="1472.8,-2553.51 1481.88,-2548.04 1471.38,-2546.66 1472.8,-2553.51"/>
<text text-anchor="middle" x="804.18" y="-2635" font-family="Times,serif" font-size="10.00" fill="#767676">^3.0</text>
</g>
<!-- symfony/config -->
<g id="node31" class="node">
<title>symfony/config</title>
<path fill="#eeeeee" stroke="black" d="M1191.68,-1084C1191.68,-1084 1038.68,-1084 1038.68,-1084 1032.68,-1084 1026.68,-1078 1026.68,-1072 1026.68,-1072 1026.68,-1060 1026.68,-1060 1026.68,-1054 1032.68,-1048 1038.68,-1048 1038.68,-1048 1191.68,-1048 1191.68,-1048 1197.68,-1048 1203.68,-1054 1203.68,-1060 1203.68,-1060 1203.68,-1072 1203.68,-1072 1203.68,-1078 1197.68,-1084 1191.68,-1084"/>
<text text-anchor="middle" x="1115.18" y="-1062.3" font-family="Times,serif" font-size="14.00" fill="#314b5f">symfony/config: v6.4.8</text>
</g>
<!-- bartlett/php&#45;compatinfo&#45;db&#45;&gt;symfony/config -->
<g id="edge40" class="edge">
<title>bartlett/php&#45;compatinfo&#45;db&#45;&gt;symfony/config</title>
<path fill="none" stroke="#1a2833" d="M138.63,-1603.88C147.15,-1528.74 190.75,-1240.03 366.68,-1122 470.3,-1052.48 838.16,-1055.69 1016.21,-1061.68"/>
<polygon fill="#1a2833" stroke="#1a2833" points="1016.25,-1065.18 1026.36,-1062.03 1016.49,-1058.19 1016.25,-1065.18"/>
<text text-anchor="middle" x="503.68" y="-1125" font-family="Times,serif" font-size="10.00" fill="#767676">^6.4 || ^7.0</text>
</g>
<!-- symfony/dependency&#45;injection -->
<g id="node35" class="node">
<title>symfony/dependency&#45;injection</title>
<path fill="#eeeeee" stroke="black" d="M1250.68,-2139C1250.68,-2139 979.68,-2139 979.68,-2139 973.68,-2139 967.68,-2133 967.68,-2127 967.68,-2127 967.68,-2115 967.68,-2115 967.68,-2109 973.68,-2103 979.68,-2103 979.68,-2103 1250.68,-2103 1250.68,-2103 1256.68,-2103 1262.68,-2109 1262.68,-2115 1262.68,-2115 1262.68,-2127 1262.68,-2127 1262.68,-2133 1256.68,-2139 1250.68,-2139"/>
<text text-anchor="middle" x="1115.18" y="-2117.3" font-family="Times,serif" font-size="14.00" fill="#314b5f">symfony/dependency&#45;injection: v6.4.12</text>
</g>
<!-- bartlett/php&#45;compatinfo&#45;db&#45;&gt;symfony/dependency&#45;injection -->
<g id="edge47" class="edge">
<title>bartlett/php&#45;compatinfo&#45;db&#45;&gt;symfony/dependency&#45;injection</title>
<path fill="none" stroke="#1a2833" d="M140.49,-1640.25C152.52,-1696.23 195.59,-1868.11 289.68,-1973 316,-2002.34 329.37,-2004.28 366.68,-2017 563.41,-2084.1 803.37,-2107.97 957.43,-2116.43"/>
<polygon fill="#1a2833" stroke="#1a2833" points="957.28,-2119.93 967.45,-2116.96 957.65,-2112.94 957.28,-2119.93"/>
<text text-anchor="middle" x="503.68" y="-2084" font-family="Times,serif" font-size="10.00" fill="#767676">^6.4 || ^7.0</text>
</g>
<!-- symfony/event&#45;dispatcher -->
<g id="node37" class="node">
<title>symfony/event&#45;dispatcher</title>
<path fill="#eeeeee" stroke="black" d="M1230.18,-1239C1230.18,-1239 1000.18,-1239 1000.18,-1239 994.18,-1239 988.18,-1233 988.18,-1227 988.18,-1227 988.18,-1215 988.18,-1215 988.18,-1209 994.18,-1203 1000.18,-1203 1000.18,-1203 1230.18,-1203 1230.18,-1203 1236.18,-1203 1242.18,-1209 1242.18,-1215 1242.18,-1215 1242.18,-1227 1242.18,-1227 1242.18,-1233 1236.18,-1239 1230.18,-1239"/>
<text text-anchor="middle" x="1115.18" y="-1217.3" font-family="Times,serif" font-size="14.00" fill="#314b5f">symfony/event&#45;dispatcher: v6.4.8</text>
</g>
<!-- bartlett/php&#45;compatinfo&#45;db&#45;&gt;symfony/event&#45;dispatcher -->
<g id="edge50" class="edge">
<title>bartlett/php&#45;compatinfo&#45;db&#45;&gt;symfony/event&#45;dispatcher</title>
<path fill="none" stroke="#1a2833" d="M152.95,-1603.9C212.2,-1538.92 426.62,-1317.43 658.68,-1245 762.32,-1212.65 885.61,-1208.07 977.76,-1210.79"/>
<polygon fill="#1a2833" stroke="#1a2833" points="977.88,-1214.3 987.99,-1211.13 978.11,-1207.3 977.88,-1214.3"/>
<text text-anchor="middle" x="503.68" y="-1406" font-family="Times,serif" font-size="10.00" fill="#767676">^6.4 || ^7.0</text>
</g>
<!-- symfony/finder -->
<g id="node39" class="node">
<title>symfony/finder</title>
<path fill="#eeeeee" stroke="black" d="M1195.68,-1664C1195.68,-1664 1034.68,-1664 1034.68,-1664 1028.68,-1664 1022.68,-1658 1022.68,-1652 1022.68,-1652 1022.68,-1640 1022.68,-1640 1022.68,-1634 1028.68,-1628 1034.68,-1628 1034.68,-1628 1195.68,-1628 1195.68,-1628 1201.68,-1628 1207.68,-1634 1207.68,-1640 1207.68,-1640 1207.68,-1652 1207.68,-1652 1207.68,-1658 1201.68,-1664 1195.68,-1664"/>
<text text-anchor="middle" x="1115.18" y="-1642.3" font-family="Times,serif" font-size="14.00" fill="#314b5f">symfony/finder: v6.4.11</text>
</g>
<!-- bartlett/php&#45;compatinfo&#45;db&#45;&gt;symfony/finder -->
<g id="edge52" class="edge">
<title>bartlett/php&#45;compatinfo&#45;db&#45;&gt;symfony/finder</title>
<path fill="none" stroke="#1a2833" d="M269,-1625.72C374.49,-1628.65 526.06,-1632.77 658.68,-1636 780.24,-1638.97 920.07,-1641.98 1012.39,-1643.91"/>
<polygon fill="#1a2833" stroke="#1a2833" points="1012.49,-1647.41 1022.57,-1644.12 1012.64,-1640.41 1012.49,-1647.41"/>
<text text-anchor="middle" x="503.68" y="-1638" font-family="Times,serif" font-size="10.00" fill="#767676">^6.4 || ^7.0</text>
</g>
<!-- symfony/http&#45;client -->
<g id="node40" class="node">
<title>symfony/http&#45;client</title>
<path fill="#eeeeee" stroke="black" d="M1212.18,-2438C1212.18,-2438 1018.18,-2438 1018.18,-2438 1012.18,-2438 1006.18,-2432 1006.18,-2426 1006.18,-2426 1006.18,-2414 1006.18,-2414 1006.18,-2408 1012.18,-2402 1018.18,-2402 1018.18,-2402 1212.18,-2402 1212.18,-2402 1218.18,-2402 1224.18,-2408 1224.18,-2414 1224.18,-2414 1224.18,-2426 1224.18,-2426 1224.18,-2432 1218.18,-2438 1212.18,-2438"/>
<text text-anchor="middle" x="1115.18" y="-2416.3" font-family="Times,serif" font-size="14.00" fill="#314b5f">symfony/http&#45;client: v6.4.12</text>
</g>
<!-- bartlett/php&#45;compatinfo&#45;db&#45;&gt;symfony/http&#45;client -->
<g id="edge58" class="edge">
<title>bartlett/php&#45;compatinfo&#45;db&#45;&gt;symfony/http&#45;client</title>
<path fill="none" stroke="#1a2833" d="M137.74,-1640.09C142.84,-1720.74 175.15,-2049.87 366.68,-2193 557.5,-2335.6 838.35,-2389.38 995.87,-2409.09"/>
<polygon fill="#1a2833" stroke="#1a2833" points="995.71,-2412.6 1006.06,-2410.34 996.56,-2405.65 995.71,-2412.6"/>
<text text-anchor="middle" x="503.68" y="-2332" font-family="Times,serif" font-size="10.00" fill="#767676">^6.4 || ^7.0</text>
</g>
<!-- symfony/messenger -->
<g id="node42" class="node">
<title>symfony/messenger</title>
<path fill="#eeeeee" stroke="black" d="M1213.68,-2557C1213.68,-2557 1016.68,-2557 1016.68,-2557 1010.68,-2557 1004.68,-2551 1004.68,-2545 1004.68,-2545 1004.68,-2533 1004.68,-2533 1004.68,-2527 1010.68,-2521 1016.68,-2521 1016.68,-2521 1213.68,-2521 1213.68,-2521 1219.68,-2521 1225.68,-2527 1225.68,-2533 1225.68,-2533 1225.68,-2545 1225.68,-2545 1225.68,-2551 1219.68,-2557 1213.68,-2557"/>
<text text-anchor="middle" x="1115.18" y="-2535.3" font-family="Times,serif" font-size="14.00" fill="#314b5f">symfony/messenger: v6.4.12</text>
</g>
<!-- bartlett/php&#45;compatinfo&#45;db&#45;&gt;symfony/messenger -->
<g id="edge63" class="edge">
<title>bartlett/php&#45;compatinfo&#45;db&#45;&gt;symfony/messenger</title>
<path fill="none" stroke="#1a2833" d="M136.31,-1640.19C134.74,-1732.12 140.59,-2148.93 366.68,-2344 545.78,-2498.53 832.91,-2532.69 994.2,-2538.99"/>
<polygon fill="#1a2833" stroke="#1a2833" points="994.52,-2542.5 1004.64,-2539.36 994.77,-2535.51 994.52,-2542.5"/>
<text text-anchor="middle" x="503.68" y="-2484" font-family="Times,serif" font-size="10.00" fill="#767676">^6.4 || ^7.0</text>
</g>
<!-- symfony/process -->
<g id="node44" class="node">
<title>symfony/process</title>
<path fill="#eeeeee" stroke="black" d="M891.18,-1908C891.18,-1908 717.18,-1908 717.18,-1908 711.18,-1908 705.18,-1902 705.18,-1896 705.18,-1896 705.18,-1884 705.18,-1884 705.18,-1878 711.18,-1872 717.18,-1872 717.18,-1872 891.18,-1872 891.18,-1872 897.18,-1872 903.18,-1878 903.18,-1884 903.18,-1884 903.18,-1896 903.18,-1896 903.18,-1902 897.18,-1908 891.18,-1908"/>
<text text-anchor="middle" x="804.18" y="-1886.3" font-family="Times,serif" font-size="14.00" fill="#314b5f">symfony/process: v6.4.12</text>
</g>
<!-- bartlett/php&#45;compatinfo&#45;db&#45;&gt;symfony/process -->
<g id="edge65" class="edge">
<title>bartlett/php&#45;compatinfo&#45;db&#45;&gt;symfony/process</title>
<path fill="none" stroke="#1a2833" d="M151.45,-1639.95C177.11,-1670.69 232.94,-1734.24 289.68,-1777 407.9,-1866.11 582.43,-1887.67 694.47,-1891.5"/>
<polygon fill="#1a2833" stroke="#1a2833" points="694.68,-1895.01 704.78,-1891.81 694.89,-1888.01 694.68,-1895.01"/>
<text text-anchor="middle" x="319.18" y="-1812" font-family="Times,serif" font-size="10.00" fill="#767676">^6.4 || ^7.0</text>
</g>
<!-- symfony/requirements&#45;checker -->
<g id="node45" class="node">
<title>symfony/requirements&#45;checker</title>
<path fill="#eeeeee" stroke="black" d="M937.68,-1819C937.68,-1819 670.68,-1819 670.68,-1819 664.68,-1819 658.68,-1813 658.68,-1807 658.68,-1807 658.68,-1795 658.68,-1795 658.68,-1789 664.68,-1783 670.68,-1783 670.68,-1783 937.68,-1783 937.68,-1783 943.68,-1783 949.68,-1789 949.68,-1795 949.68,-1795 949.68,-1807 949.68,-1807 949.68,-1813 943.68,-1819 937.68,-1819"/>
<text text-anchor="middle" x="804.18" y="-1797.3" font-family="Times,serif" font-size="14.00" fill="#314b5f">symfony/requirements&#45;checker: v2.0.1</text>
</g>
<!-- bartlett/php&#45;compatinfo&#45;db&#45;&gt;symfony/requirements&#45;checker -->
<g id="edge67" class="edge">
<title>bartlett/php&#45;compatinfo&#45;db&#45;&gt;symfony/requirements&#45;checker</title>
<path fill="none" stroke="#1a2833" d="M168.15,-1639.51C211.46,-1662.96 292.66,-1704.25 366.68,-1727 458.2,-1755.13 564,-1773.41 648.52,-1784.76"/>
<polygon fill="#1a2833" stroke="#1a2833" points="648.08,-1788.23 658.46,-1786.07 649,-1781.29 648.08,-1788.23"/>
<text text-anchor="middle" x="319.18" y="-1723" font-family="Times,serif" font-size="10.00" fill="#767676">^2.0</text>
</g>
<!-- symfony/stopwatch -->
<g id="node46" class="node">
<title>symfony/stopwatch</title>
<path fill="#eeeeee" stroke="black" d="M1207.18,-2193C1207.18,-2193 1023.18,-2193 1023.18,-2193 1017.18,-2193 1011.18,-2187 1011.18,-2181 1011.18,-2181 1011.18,-2169 1011.18,-2169 1011.18,-2163 1017.18,-2157 1023.18,-2157 1023.18,-2157 1207.18,-2157 1207.18,-2157 1213.18,-2157 1219.18,-2163 1219.18,-2169 1219.18,-2169 1219.18,-2181 1219.18,-2181 1219.18,-2187 1213.18,-2193 1207.18,-2193"/>
<text text-anchor="middle" x="1115.18" y="-2171.3" font-family="Times,serif" font-size="14.00" fill="#314b5f">symfony/stopwatch: v6.4.8</text>
</g>
<!-- bartlett/php&#45;compatinfo&#45;db&#45;&gt;symfony/stopwatch -->
<g id="edge70" class="edge">
<title>bartlett/php&#45;compatinfo&#45;db&#45;&gt;symfony/stopwatch</title>
<path fill="none" stroke="#1a2833" d="M138.45,-1640.09C146.26,-1714.96 187.44,-2001.11 366.68,-2096 569.89,-2203.59 847.48,-2200.5 1000.8,-2188.12"/>
<polygon fill="#1a2833" stroke="#1a2833" points="1001.49,-2191.57 1011.17,-2187.25 1000.91,-2184.6 1001.49,-2191.57"/>
<text text-anchor="middle" x="503.68" y="-2181" font-family="Times,serif" font-size="10.00" fill="#767676">^6.4 || ^7.0</text>
</g>
<!-- symfony/framework&#45;bundle -->
<g id="node47" class="node">
<title>symfony/framework&#45;bundle</title>
<path fill="#eeeeee" stroke="black" d="M628.68,-1481C628.68,-1481 378.68,-1481 378.68,-1481 372.68,-1481 366.68,-1475 366.68,-1469 366.68,-1469 366.68,-1457 366.68,-1457 366.68,-1451 372.68,-1445 378.68,-1445 378.68,-1445 628.68,-1445 628.68,-1445 634.68,-1445 640.68,-1451 640.68,-1457 640.68,-1457 640.68,-1469 640.68,-1469 640.68,-1475 634.68,-1481 628.68,-1481"/>
<text text-anchor="middle" x="503.68" y="-1459.3" font-family="Times,serif" font-size="14.00" fill="#314b5f">symfony/framework&#45;bundle: v6.4.12</text>
</g>
<!-- bartlett/php&#45;compatinfo&#45;db&#45;&gt;symfony/framework&#45;bundle -->
<g id="edge87" class="edge">
<title>bartlett/php&#45;compatinfo&#45;db&#45;&gt;symfony/framework&#45;bundle</title>
<path fill="none" stroke="#1a2833" stroke-dasharray="5,2" d="M176.69,-1604.68C243.5,-1575.64 378.03,-1517.17 451.66,-1485.17"/>
<polygon fill="#1a2833" stroke="#1a2833" points="453.42,-1488.22 461.2,-1481.03 450.63,-1481.8 453.42,-1488.22"/>
<text text-anchor="middle" x="319.18" y="-1555" font-family="Times,serif" font-size="10.00" fill="#767676">^6.4 || ^7.0</text>
</g>
<!-- bamarni/composer&#45;bin&#45;plugin -->
<g id="node54" class="node">
<title>bamarni/composer&#45;bin&#45;plugin</title>
<path fill="#eeeeee" stroke="black" d="M627.18,-1718C627.18,-1718 380.18,-1718 380.18,-1718 374.18,-1718 368.18,-1712 368.18,-1706 368.18,-1706 368.18,-1694 368.18,-1694 368.18,-1688 374.18,-1682 380.18,-1682 380.18,-1682 627.18,-1682 627.18,-1682 633.18,-1682 639.18,-1688 639.18,-1694 639.18,-1694 639.18,-1706 639.18,-1706 639.18,-1712 633.18,-1718 627.18,-1718"/>
<text text-anchor="middle" x="503.68" y="-1696.3" font-family="Times,serif" font-size="14.00" fill="#314b5f">bamarni/composer&#45;bin&#45;plugin: 1.8.2</text>
</g>
<!-- bartlett/php&#45;compatinfo&#45;db&#45;&gt;bamarni/composer&#45;bin&#45;plugin -->
<g id="edge90" class="edge">
<title>bartlett/php&#45;compatinfo&#45;db&#45;&gt;bamarni/composer&#45;bin&#45;plugin</title>
<path fill="none" stroke="#1a2833" stroke-dasharray="5,2" d="M191.68,-1638.51C220.65,-1646.87 256.9,-1656.75 289.68,-1664 316.5,-1669.94 345.41,-1675.42 373.02,-1680.23"/>
<polygon fill="#1a2833" stroke="#1a2833" points="372.68,-1683.72 383.13,-1681.97 373.87,-1676.83 372.68,-1683.72"/>
<text text-anchor="middle" x="319.18" y="-1678" font-family="Times,serif" font-size="10.00" fill="#767676">^1.8</text>
</g>
<!-- composer/semver&#45;&gt;php -->
<g id="edge8" class="edge">
<title>composer/semver&#45;&gt;php</title>
<path fill="none" stroke="#1a2833" d="M898.28,-1841.61C991.2,-1837.07 1137.74,-1826.76 1262.68,-1804 1270.84,-1802.51 1272.48,-1800.35 1280.68,-1799 1358.01,-1786.3 1450.07,-1784.45 1500.02,-1784.53"/>
<polygon fill="#1a2833" stroke="#1a2833" points="1500.29,-1788.03 1510.31,-1784.57 1500.32,-1781.03 1500.29,-1788.03"/>
<text text-anchor="middle" x="1115.18" y="-1840" font-family="Times,serif" font-size="10.00" fill="#767676">^5.3.2 || ^7.0 || ^8.0</text>
</g>
<!-- doctrine/orm&#45;&gt;php -->
<g id="edge22" class="edge">
<title>doctrine/orm&#45;&gt;php</title>
<path fill="none" stroke="#1a2833" d="M507.5,-693.3C517.05,-748.29 553.66,-912.57 658.68,-983 882.24,-1132.94 1006.94,-943.98 1262.68,-1028 1309.54,-1043.4 1331.17,-1044.78 1356.68,-1087 1383.65,-1131.64 1363.99,-1269.95 1374.68,-1321 1410.5,-1492.14 1492.77,-1686.61 1524.18,-1757.39"/>
<polygon fill="#1a2833" stroke="#1a2833" points="1521.16,-1759.22 1528.43,-1766.92 1527.55,-1756.37 1521.16,-1759.22"/>
<text text-anchor="middle" x="1115.18" y="-1031" font-family="Times,serif" font-size="10.00" fill="#767676">^7.1 || ^8.0</text>
</g>
<!-- doctrine/orm&#45;&gt;composer&#45;runtime&#45;api -->
<g id="edge10" class="edge">
<title>doctrine/orm&#45;&gt;composer&#45;runtime&#45;api</title>
<path fill="none" stroke="#1a2833" d="M506.65,-693.41C514.07,-753.03 545.92,-942.16 658.68,-1033 672.68,-1044.28 889.13,-1082.21 1018.54,-1104.09"/>
<polygon fill="#1a2833" stroke="#1a2833" points="1018.03,-1107.55 1028.47,-1105.76 1019.19,-1100.65 1018.03,-1107.55"/>
<text text-anchor="middle" x="804.18" y="-1094" font-family="Times,serif" font-size="10.00" fill="#767676">^2</text>
</g>
<!-- doctrine/cache -->
<g id="node11" class="node">
<title>doctrine/cache</title>
<path fill="#eeeeee" stroke="black" d="M1186.18,-828C1186.18,-828 1044.18,-828 1044.18,-828 1038.18,-828 1032.18,-822 1032.18,-816 1032.18,-816 1032.18,-804 1032.18,-804 1032.18,-798 1038.18,-792 1044.18,-792 1044.18,-792 1186.18,-792 1186.18,-792 1192.18,-792 1198.18,-798 1198.18,-804 1198.18,-804 1198.18,-816 1198.18,-816 1198.18,-822 1192.18,-828 1186.18,-828"/>
<text text-anchor="middle" x="1115.18" y="-806.3" font-family="Times,serif" font-size="14.00" fill="#314b5f">doctrine/cache: 2.2.0</text>
</g>
<!-- doctrine/orm&#45;&gt;doctrine/cache -->
<g id="edge11" class="edge">
<title>doctrine/orm&#45;&gt;doctrine/cache</title>
<path fill="none" stroke="#1a2833" d="M531.13,-693.07C560.78,-712.35 610.97,-742.11 658.68,-757 780.58,-795.05 928.55,-806.23 1022.06,-809.27"/>
<polygon fill="#1a2833" stroke="#1a2833" points="1021.96,-812.76 1032.06,-809.57 1022.17,-805.77 1021.96,-812.76"/>
<text text-anchor="middle" x="804.18" y="-808" font-family="Times,serif" font-size="10.00" fill="#767676">^1.12.1 || ^2.1.1</text>
</g>
<!-- doctrine/collections -->
<g id="node12" class="node">
<title>doctrine/collections</title>
<path fill="#eeeeee" stroke="black" d="M1203.68,-774C1203.68,-774 1026.68,-774 1026.68,-774 1020.68,-774 1014.68,-768 1014.68,-762 1014.68,-762 1014.68,-750 1014.68,-750 1014.68,-744 1020.68,-738 1026.68,-738 1026.68,-738 1203.68,-738 1203.68,-738 1209.68,-738 1215.68,-744 1215.68,-750 1215.68,-750 1215.68,-762 1215.68,-762 1215.68,-768 1209.68,-774 1203.68,-774"/>
<text text-anchor="middle" x="1115.18" y="-752.3" font-family="Times,serif" font-size="14.00" fill="#314b5f">doctrine/collections: 2.2.2</text>
</g>
<!-- doctrine/orm&#45;&gt;doctrine/collections -->
<g id="edge12" class="edge">
<title>doctrine/orm&#45;&gt;doctrine/collections</title>
<path fill="none" stroke="#1a2833" d="M578.37,-693.07C603.7,-698.8 632.32,-704.75 658.68,-709 776.12,-727.96 911.9,-740.81 1004.45,-748.22"/>
<polygon fill="#1a2833" stroke="#1a2833" points="1004.43,-751.73 1014.67,-749.03 1004.98,-744.75 1004.43,-751.73"/>
<text text-anchor="middle" x="804.18" y="-745" font-family="Times,serif" font-size="10.00" fill="#767676">^1.5 || ^2.1</text>
</g>
<!-- doctrine/common -->
<g id="node13" class="node">
<title>doctrine/common</title>
<path fill="#eeeeee" stroke="black" d="M1195.68,-720C1195.68,-720 1034.68,-720 1034.68,-720 1028.68,-720 1022.68,-714 1022.68,-708 1022.68,-708 1022.68,-696 1022.68,-696 1022.68,-690 1028.68,-684 1034.68,-684 1034.68,-684 1195.68,-684 1195.68,-684 1201.68,-684 1207.68,-690 1207.68,-696 1207.68,-696 1207.68,-708 1207.68,-708 1207.68,-714 1201.68,-720 1195.68,-720"/>
<text text-anchor="middle" x="1115.18" y="-698.3" font-family="Times,serif" font-size="14.00" fill="#314b5f">doctrine/common: 3.4.4</text>
</g>
<!-- doctrine/orm&#45;&gt;doctrine/common -->
<g id="edge13" class="edge">
<title>doctrine/orm&#45;&gt;doctrine/common</title>
<path fill="none" stroke="#1a2833" d="M585.3,-678.57C695.25,-683.44 892.25,-692.17 1012.3,-697.49"/>
<polygon fill="#1a2833" stroke="#1a2833" points="1012.45,-701 1022.59,-697.94 1012.76,-694 1012.45,-701"/>
<text text-anchor="middle" x="804.18" y="-697" font-family="Times,serif" font-size="10.00" fill="#767676">^3.0.3</text>
</g>
<!-- doctrine/orm&#45;&gt;doctrine/dbal -->
<g id="edge14" class="edge">
<title>doctrine/orm&#45;&gt;doctrine/dbal</title>
<path fill="none" stroke="#1a2833" d="M507.17,-656.61C515.96,-599.66 550.95,-425.28 658.68,-345 763.51,-266.88 850.59,-387.29 949.68,-302 970.45,-284.12 947.22,-261.25 967.68,-243 983.92,-228.51 1005.32,-220.63 1026.73,-216.58"/>
<polygon fill="#1a2833" stroke="#1a2833" points="1027.57,-219.99 1036.88,-214.93 1026.45,-213.08 1027.57,-219.99"/>
<text text-anchor="middle" x="804.18" y="-348" font-family="Times,serif" font-size="10.00" fill="#767676">^2.13.1 || ^3.2</text>
</g>
<!-- doctrine/deprecations -->
<g id="node15" class="node">
<title>doctrine/deprecations</title>
<path fill="#eeeeee" stroke="black" d="M1212.18,-666C1212.18,-666 1018.18,-666 1018.18,-666 1012.18,-666 1006.18,-660 1006.18,-654 1006.18,-654 1006.18,-642 1006.18,-642 1006.18,-636 1012.18,-630 1018.18,-630 1018.18,-630 1212.18,-630 1212.18,-630 1218.18,-630 1224.18,-636 1224.18,-642 1224.18,-642 1224.18,-654 1224.18,-654 1224.18,-660 1218.18,-666 1212.18,-666"/>
<text text-anchor="middle" x="1115.18" y="-644.3" font-family="Times,serif" font-size="14.00" fill="#314b5f">doctrine/deprecations: 1.1.3</text>
</g>
<!-- doctrine/orm&#45;&gt;doctrine/deprecations -->
<g id="edge15" class="edge">
<title>doctrine/orm&#45;&gt;doctrine/deprecations</title>
<path fill="none" stroke="#1a2833" d="M585.39,-670.65C609.01,-669.42 634.87,-668.11 658.68,-667 773.17,-661.64 903.9,-656.26 995.85,-652.6"/>
<polygon fill="#1a2833" stroke="#1a2833" points="996.17,-656.09 1006.02,-652.2 995.89,-649.1 996.17,-656.09"/>
<text text-anchor="middle" x="804.18" y="-670" font-family="Times,serif" font-size="10.00" fill="#767676">^0.5.3 || ^1</text>
</g>
<!-- doctrine/event&#45;manager -->
<g id="node16" class="node">
<title>doctrine/event&#45;manager</title>
<path fill="#eeeeee" stroke="black" d="M1219.68,-612C1219.68,-612 1010.68,-612 1010.68,-612 1004.68,-612 998.68,-606 998.68,-600 998.68,-600 998.68,-588 998.68,-588 998.68,-582 1004.68,-576 1010.68,-576 1010.68,-576 1219.68,-576 1219.68,-576 1225.68,-576 1231.68,-582 1231.68,-588 1231.68,-588 1231.68,-600 1231.68,-600 1231.68,-606 1225.68,-612 1219.68,-612"/>
<text text-anchor="middle" x="1115.18" y="-590.3" font-family="Times,serif" font-size="14.00" fill="#314b5f">doctrine/event&#45;manager: 2.0.1</text>
</g>
<!-- doctrine/orm&#45;&gt;doctrine/event&#45;manager -->
<g id="edge16" class="edge">
<title>doctrine/orm&#45;&gt;doctrine/event&#45;manager</title>
<path fill="none" stroke="#1a2833" d="M573.28,-656.93C599.81,-650.48 630.5,-643.66 658.68,-639 769.38,-620.67 896.54,-608.87 988.33,-601.98"/>
<polygon fill="#1a2833" stroke="#1a2833" points="988.78,-605.45 998.5,-601.22 988.27,-598.47 988.78,-605.45"/>
<text text-anchor="middle" x="804.18" y="-642" font-family="Times,serif" font-size="10.00" fill="#767676">^1.2 || ^2</text>
</g>
<!-- doctrine/inflector -->
<g id="node17" class="node">
<title>doctrine/inflector</title>
<path fill="#eeeeee" stroke="black" d="M1200.18,-558C1200.18,-558 1030.18,-558 1030.18,-558 1024.18,-558 1018.18,-552 1018.18,-546 1018.18,-546 1018.18,-534 1018.18,-534 1018.18,-528 1024.18,-522 1030.18,-522 1030.18,-522 1200.18,-522 1200.18,-522 1206.18,-522 1212.18,-528 1212.18,-534 1212.18,-534 1212.18,-546 1212.18,-546 1212.18,-552 1206.18,-558 1200.18,-558"/>
<text text-anchor="middle" x="1115.18" y="-536.3" font-family="Times,serif" font-size="14.00" fill="#314b5f">doctrine/inflector: 2.0.10</text>
</g>
<!-- doctrine/orm&#45;&gt;doctrine/inflector -->
<g id="edge17" class="edge">
<title>doctrine/orm&#45;&gt;doctrine/inflector</title>
<path fill="none" stroke="#1a2833" d="M529.95,-656.91C559.34,-636.88 610.06,-605.4 658.68,-590 774.47,-553.31 914.17,-542.6 1008.07,-539.93"/>
<polygon fill="#1a2833" stroke="#1a2833" points="1008.25,-543.43 1018.15,-539.67 1008.07,-536.43 1008.25,-543.43"/>
<text text-anchor="middle" x="804.18" y="-593" font-family="Times,serif" font-size="10.00" fill="#767676">^1.4 || ^2.0</text>
</g>
<!-- doctrine/instantiator -->
<g id="node18" class="node">
<title>doctrine/instantiator</title>
<path fill="#eeeeee" stroke="black" d="M1207.68,-504C1207.68,-504 1022.68,-504 1022.68,-504 1016.68,-504 1010.68,-498 1010.68,-492 1010.68,-492 1010.68,-480 1010.68,-480 1010.68,-474 1016.68,-468 1022.68,-468 1022.68,-468 1207.68,-468 1207.68,-468 1213.68,-468 1219.68,-474 1219.68,-480 1219.68,-480 1219.68,-492 1219.68,-492 1219.68,-498 1213.68,-504 1207.68,-504"/>
<text text-anchor="middle" x="1115.18" y="-482.3" font-family="Times,serif" font-size="14.00" fill="#314b5f">doctrine/instantiator: 2.0.0</text>
</g>
<!-- doctrine/orm&#45;&gt;doctrine/instantiator -->
<g id="edge18" class="edge">
<title>doctrine/orm&#45;&gt;doctrine/instantiator</title>
<path fill="none" stroke="#1a2833" d="M516.95,-656.9C540.22,-624.3 594.23,-556.37 658.68,-527 689.03,-513.16 875.87,-499.82 1000.63,-492.29"/>
<polygon fill="#1a2833" stroke="#1a2833" points="1000.85,-495.78 1010.62,-491.69 1000.43,-488.8 1000.85,-495.78"/>
<text text-anchor="middle" x="804.18" y="-530" font-family="Times,serif" font-size="10.00" fill="#767676">^1.3 || ^2</text>
</g>
<!-- doctrine/lexer -->
<g id="node19" class="node">
<title>doctrine/lexer</title>
<path fill="#eeeeee" stroke="black" d="M1183.68,-450C1183.68,-450 1046.68,-450 1046.68,-450 1040.68,-450 1034.68,-444 1034.68,-438 1034.68,-438 1034.68,-426 1034.68,-426 1034.68,-420 1040.68,-414 1046.68,-414 1046.68,-414 1183.68,-414 1183.68,-414 1189.68,-414 1195.68,-420 1195.68,-426 1195.68,-426 1195.68,-438 1195.68,-438 1195.68,-444 1189.68,-450 1183.68,-450"/>
<text text-anchor="middle" x="1115.18" y="-428.3" font-family="Times,serif" font-size="14.00" fill="#314b5f">doctrine/lexer: 3.0.1</text>
</g>
<!-- doctrine/orm&#45;&gt;doctrine/lexer -->
<g id="edge19" class="edge">
<title>doctrine/orm&#45;&gt;doctrine/lexer</title>
<path fill="none" stroke="#1a2833" d="M512.64,-656.98C531.41,-616.98 582.63,-521.17 658.68,-481 716.01,-450.72 885.31,-467.78 949.68,-460 974.07,-457.05 1000.35,-452.98 1024.6,-448.86"/>
<polygon fill="#1a2833" stroke="#1a2833" points="1025.24,-452.3 1034.5,-447.16 1024.05,-445.4 1025.24,-452.3"/>
<text text-anchor="middle" x="804.18" y="-484" font-family="Times,serif" font-size="10.00" fill="#767676">^2 || ^3</text>
</g>
<!-- doctrine/persistence -->
<g id="node20" class="node">
<title>doctrine/persistence</title>
<path fill="#eeeeee" stroke="black" d="M1207.18,-396C1207.18,-396 1023.18,-396 1023.18,-396 1017.18,-396 1011.18,-390 1011.18,-384 1011.18,-384 1011.18,-372 1011.18,-372 1011.18,-366 1017.18,-360 1023.18,-360 1023.18,-360 1207.18,-360 1207.18,-360 1213.18,-360 1219.18,-366 1219.18,-372 1219.18,-372 1219.18,-384 1219.18,-384 1219.18,-390 1213.18,-396 1207.18,-396"/>
<text text-anchor="middle" x="1115.18" y="-374.3" font-family="Times,serif" font-size="14.00" fill="#314b5f">doctrine/persistence: 3.3.3</text>
</g>
<!-- doctrine/orm&#45;&gt;doctrine/persistence -->
<g id="edge20" class="edge">
<title>doctrine/orm&#45;&gt;doctrine/persistence</title>
<path fill="none" stroke="#1a2833" d="M510.6,-656.97C526.38,-612.17 574.12,-495.91 658.68,-447 714.8,-414.54 891.79,-455.2 949.68,-426 960.65,-420.46 957.02,-411.13 967.68,-405 978.01,-399.05 989.37,-394.37 1001.05,-390.7"/>
<polygon fill="#1a2833" stroke="#1a2833" points="1002.3,-393.98 1010.93,-387.84 1000.35,-387.26 1002.3,-393.98"/>
<text text-anchor="middle" x="804.18" y="-450" font-family="Times,serif" font-size="10.00" fill="#767676">^2.4 || ^3</text>
</g>
<!-- ext&#45;ctype -->
<g id="node21" class="node">
<title>ext&#45;ctype</title>
<path fill="#eeeeee" stroke="black" d="M1144.68,-342C1144.68,-342 1085.68,-342 1085.68,-342 1079.68,-342 1073.68,-336 1073.68,-330 1073.68,-330 1073.68,-318 1073.68,-318 1073.68,-312 1079.68,-306 1085.68,-306 1085.68,-306 1144.68,-306 1144.68,-306 1150.68,-306 1156.68,-312 1156.68,-318 1156.68,-318 1156.68,-330 1156.68,-330 1156.68,-336 1150.68,-342 1144.68,-342"/>
<text text-anchor="middle" x="1115.18" y="-320.3" font-family="Times,serif" font-size="14.00" fill="#314b5f">ext&#45;ctype</text>
</g>
<!-- doctrine/orm&#45;&gt;ext&#45;ctype -->
<g id="edge21" class="edge">
<title>doctrine/orm&#45;&gt;ext&#45;ctype</title>
<path fill="none" stroke="#1a2833" d="M509.05,-656.93C522.05,-607.67 565.45,-470.9 658.68,-413 713.75,-378.8 896.7,-429.38 949.68,-392 965.94,-380.52 952.07,-363.35 967.68,-351 994.55,-329.73 1032.85,-323.24 1063.56,-321.94"/>
<polygon fill="#1a2833" stroke="#1a2833" points="1063.75,-325.43 1073.65,-321.68 1063.57,-318.44 1063.75,-325.43"/>
<text text-anchor="middle" x="804.18" y="-416" font-family="Times,serif" font-size="10.00" fill="#767676">*</text>
</g>
<!-- psr/cache -->
<g id="node22" class="node">
<title>psr/cache</title>
<path fill="#eeeeee" stroke="black" d="M1590.68,-1312C1590.68,-1312 1484.68,-1312 1484.68,-1312 1478.68,-1312 1472.68,-1306 1472.68,-1300 1472.68,-1300 1472.68,-1288 1472.68,-1288 1472.68,-1282 1478.68,-1276 1484.68,-1276 1484.68,-1276 1590.68,-1276 1590.68,-1276 1596.68,-1276 1602.68,-1282 1602.68,-1288 1602.68,-1288 1602.68,-1300 1602.68,-1300 1602.68,-1306 1596.68,-1312 1590.68,-1312"/>
<text text-anchor="middle" x="1537.68" y="-1290.3" font-family="Times,serif" font-size="14.00" fill="#314b5f">psr/cache: 3.0.0</text>
</g>
<!-- doctrine/orm&#45;&gt;psr/cache -->
<g id="edge23" class="edge">
<title>doctrine/orm&#45;&gt;psr/cache</title>
<path fill="none" stroke="#1a2833" d="M508.3,-693.32C519.66,-745.34 559.9,-894.14 658.68,-956 790.46,-1038.54 1253.84,-888.37 1356.68,-1005 1392.49,-1045.61 1340.46,-1206.03 1374.68,-1248 1395.85,-1273.97 1430.53,-1285.9 1462.38,-1291.17"/>
<polygon fill="#1a2833" stroke="#1a2833" points="1462.2,-1294.68 1472.6,-1292.65 1463.21,-1287.75 1462.2,-1294.68"/>
<text text-anchor="middle" x="1115.18" y="-975" font-family="Times,serif" font-size="10.00" fill="#767676">^1 || ^2 || ^3</text>
</g>
<!-- doctrine/orm&#45;&gt;symfony/console -->
<g id="edge24" class="edge">
<title>doctrine/orm&#45;&gt;symfony/console</title>
<path fill="none" stroke="#1a2833" d="M507.88,-656.62C518.33,-602.94 556.78,-445.98 658.68,-379 712.85,-343.38 899.18,-398.66 949.68,-358 971.69,-340.27 946.67,-315.91 967.68,-297 978.76,-287.02 992.29,-280.16 1006.6,-275.53"/>
<polygon fill="#1a2833" stroke="#1a2833" points="1007.96,-278.78 1016.61,-272.67 1006.03,-272.05 1007.96,-278.78"/>
<text text-anchor="middle" x="804.18" y="-382" font-family="Times,serif" font-size="10.00" fill="#767676">^4.2 || ^5.0 || ^6.0 || ^7.0</text>
</g>
<!-- symfony/polyfill&#45;php72 -->
<g id="node24" class="node">
<title>symfony/polyfill&#45;php72</title>
<path fill="#eeeeee" stroke="black" d="M1223.68,-936C1223.68,-936 1006.68,-936 1006.68,-936 1000.68,-936 994.68,-930 994.68,-924 994.68,-924 994.68,-912 994.68,-912 994.68,-906 1000.68,-900 1006.68,-900 1006.68,-900 1223.68,-900 1223.68,-900 1229.68,-900 1235.68,-906 1235.68,-912 1235.68,-912 1235.68,-924 1235.68,-924 1235.68,-930 1229.68,-936 1223.68,-936"/>
<text text-anchor="middle" x="1115.18" y="-914.3" font-family="Times,serif" font-size="14.00" fill="#314b5f">symfony/polyfill&#45;php72: v1.31.0</text>
</g>
<!-- doctrine/orm&#45;&gt;symfony/polyfill&#45;php72 -->
<g id="edge25" class="edge">
<title>doctrine/orm&#45;&gt;symfony/polyfill&#45;php72</title>
<path fill="none" stroke="#1a2833" d="M511.45,-693.16C528.52,-736.03 577.82,-843.27 658.68,-888 760.48,-944.32 895.32,-945.91 991.82,-937.02"/>
<polygon fill="#1a2833" stroke="#1a2833" points="992.3,-940.49 1001.92,-936.04 991.63,-933.52 992.3,-940.49"/>
<text text-anchor="middle" x="804.18" y="-944" font-family="Times,serif" font-size="10.00" fill="#767676">^1.23</text>
</g>
<!-- symfony/polyfill&#45;php80 -->
<g id="node25" class="node">
<title>symfony/polyfill&#45;php80</title>
<path fill="#eeeeee" stroke="black" d="M1223.68,-882C1223.68,-882 1006.68,-882 1006.68,-882 1000.68,-882 994.68,-876 994.68,-870 994.68,-870 994.68,-858 994.68,-858 994.68,-852 1000.68,-846 1006.68,-846 1006.68,-846 1223.68,-846 1223.68,-846 1229.68,-846 1235.68,-852 1235.68,-858 1235.68,-858 1235.68,-870 1235.68,-870 1235.68,-876 1229.68,-882 1223.68,-882"/>
<text text-anchor="middle" x="1115.18" y="-860.3" font-family="Times,serif" font-size="14.00" fill="#314b5f">symfony/polyfill&#45;php80: v1.31.0</text>
</g>
<!-- doctrine/orm&#45;&gt;symfony/polyfill&#45;php80 -->
<g id="edge26" class="edge">
<title>doctrine/orm&#45;&gt;symfony/polyfill&#45;php80</title>
<path fill="none" stroke="#1a2833" d="M517.44,-693.2C541.08,-725.27 595.13,-791.18 658.68,-820 761.3,-866.54 890.02,-875.02 984.43,-873.32"/>
<polygon fill="#1a2833" stroke="#1a2833" points="984.69,-876.82 994.61,-873.1 984.53,-869.82 984.69,-876.82"/>
<text text-anchor="middle" x="804.18" y="-876" font-family="Times,serif" font-size="10.00" fill="#767676">^1.16</text>
</g>
<!-- symfony/cache&#45;&gt;php -->
<g id="edge29" class="edge">
<title>symfony/cache&#45;&gt;php</title>
<path fill="none" stroke="#1a2833" d="M1207.34,-1976.3C1227.78,-1971.39 1247.79,-1962.75 1262.68,-1948 1288.25,-1922.65 1256.12,-1895.34 1280.68,-1869 1304.74,-1843.19 1323.07,-1856.78 1356.68,-1846 1406.94,-1829.88 1464.66,-1810.09 1500.9,-1797.51"/>
<polygon fill="#1a2833" stroke="#1a2833" points="1502.24,-1800.75 1510.53,-1794.16 1499.94,-1794.14 1502.24,-1800.75"/>
<text text-anchor="middle" x="1318.68" y="-1872" font-family="Times,serif" font-size="10.00" fill="#767676">&gt;=8.1</text>
</g>
<!-- symfony/cache&#45;&gt;psr/cache -->
<g id="edge30" class="edge">
<title>symfony/cache&#45;&gt;psr/cache</title>
<path fill="none" stroke="#1a2833" d="M1190.89,-1961.97C1218.13,-1951.46 1246.24,-1935.12 1262.68,-1910 1295.42,-1859.95 1244.28,-1419.46 1280.68,-1372 1322.91,-1316.93 1403,-1299.57 1462.4,-1294.66"/>
<polygon fill="#1a2833" stroke="#1a2833" points="1462.77,-1298.15 1472.49,-1293.93 1462.27,-1291.16 1462.77,-1298.15"/>
<text text-anchor="middle" x="1318.68" y="-1375" font-family="Times,serif" font-size="10.00" fill="#767676">^2.0|^3.0</text>
</g>
<!-- symfony/cache&#45;&gt;psr/log -->
<g id="edge31" class="edge">
<title>symfony/cache&#45;&gt;psr/log</title>
<path fill="none" stroke="#1a2833" d="M1207.34,-1994.71C1228.54,-2002.42 1248.91,-2014.16 1262.68,-2032 1291.69,-2069.61 1250.34,-2208.45 1280.68,-2245 1303.06,-2271.97 1334.39,-2238.96 1356.68,-2266 1389.56,-2305.9 1341.36,-2458.46 1374.68,-2498 1398.14,-2525.85 1437.54,-2536.24 1471.61,-2539.61"/>
<polygon fill="#1a2833" stroke="#1a2833" points="1471.74,-2543.13 1481.98,-2540.44 1472.29,-2536.15 1471.74,-2543.13"/>
<text text-anchor="middle" x="1318.68" y="-2269" font-family="Times,serif" font-size="10.00" fill="#767676">^1.1|^2|^3</text>
</g>
<!-- symfony/cache&#45;contracts -->
<g id="node28" class="node">
<title>symfony/cache&#45;contracts</title>
<path fill="#eeeeee" stroke="black" d="M1648.68,-1954C1648.68,-1954 1426.68,-1954 1426.68,-1954 1420.68,-1954 1414.68,-1948 1414.68,-1942 1414.68,-1942 1414.68,-1930 1414.68,-1930 1414.68,-1924 1420.68,-1918 1426.68,-1918 1426.68,-1918 1648.68,-1918 1648.68,-1918 1654.68,-1918 1660.68,-1924 1660.68,-1930 1660.68,-1930 1660.68,-1942 1660.68,-1942 1660.68,-1948 1654.68,-1954 1648.68,-1954"/>
<text text-anchor="middle" x="1537.68" y="-1932.3" font-family="Times,serif" font-size="14.00" fill="#314b5f">symfony/cache&#45;contracts: v3.5.0</text>
</g>
<!-- symfony/cache&#45;&gt;symfony/cache&#45;contracts -->
<g id="edge32" class="edge">
<title>symfony/cache&#45;&gt;symfony/cache&#45;contracts</title>
<path fill="none" stroke="#1a2833" d="M1207.47,-1964.99C1226.08,-1960.57 1245.28,-1954.98 1262.68,-1948 1271.38,-1944.51 1271.66,-1939.56 1280.68,-1937 1320,-1925.85 1364.1,-1922.59 1404.48,-1922.97"/>
<polygon fill="#1a2833" stroke="#1a2833" points="1404.6,-1926.48 1414.66,-1923.15 1404.72,-1919.48 1404.6,-1926.48"/>
<text text-anchor="middle" x="1318.68" y="-1940" font-family="Times,serif" font-size="10.00" fill="#767676">^2.5|^3</text>
</g>
<!-- symfony/service&#45;contracts -->
<g id="node29" class="node">
<title>symfony/service&#45;contracts</title>
<path fill="#eeeeee" stroke="black" d="M1654.18,-2353C1654.18,-2353 1421.18,-2353 1421.18,-2353 1415.18,-2353 1409.18,-2347 1409.18,-2341 1409.18,-2341 1409.18,-2329 1409.18,-2329 1409.18,-2323 1415.18,-2317 1421.18,-2317 1421.18,-2317 1654.18,-2317 1654.18,-2317 1660.18,-2317 1666.18,-2323 1666.18,-2329 1666.18,-2329 1666.18,-2341 1666.18,-2341 1666.18,-2347 1660.18,-2353 1654.18,-2353"/>
<text text-anchor="middle" x="1537.68" y="-2331.3" font-family="Times,serif" font-size="14.00" fill="#314b5f">symfony/service&#45;contracts: v3.5.0</text>
</g>
<!-- symfony/cache&#45;&gt;symfony/service&#45;contracts -->
<g id="edge33" class="edge">
<title>symfony/cache&#45;&gt;symfony/service&#45;contracts</title>
<path fill="none" stroke="#1a2833" d="M1190.54,-1998.11C1214.83,-2006.13 1241.09,-2017.18 1262.68,-2032 1272.81,-2038.96 1271.18,-2045.19 1280.68,-2053 1310.64,-2077.66 1335.32,-2063.59 1356.68,-2096 1397.02,-2157.23 1331.88,-2200.46 1374.68,-2260 1392.72,-2285.1 1421.29,-2302.02 1449.44,-2313.33"/>
<polygon fill="#1a2833" stroke="#1a2833" points="1448.37,-2316.67 1458.96,-2316.96 1450.86,-2310.13 1448.37,-2316.67"/>
<text text-anchor="middle" x="1318.68" y="-2099" font-family="Times,serif" font-size="10.00" fill="#767676">^2.5|^3</text>
</g>
<!-- symfony/var&#45;exporter -->
<g id="node30" class="node">
<title>symfony/var&#45;exporter</title>
<path fill="#eeeeee" stroke="black" d="M1637.68,-2069C1637.68,-2069 1437.68,-2069 1437.68,-2069 1431.68,-2069 1425.68,-2063 1425.68,-2057 1425.68,-2057 1425.68,-2045 1425.68,-2045 1425.68,-2039 1431.68,-2033 1437.68,-2033 1437.68,-2033 1637.68,-2033 1637.68,-2033 1643.68,-2033 1649.68,-2039 1649.68,-2045 1649.68,-2045 1649.68,-2057 1649.68,-2057 1649.68,-2063 1643.68,-2069 1637.68,-2069"/>
<text text-anchor="middle" x="1537.68" y="-2047.3" font-family="Times,serif" font-size="14.00" fill="#314b5f">symfony/var&#45;exporter: v6.4.9</text>
</g>
<!-- symfony/cache&#45;&gt;symfony/var&#45;exporter -->
<g id="edge34" class="edge">
<title>symfony/cache&#45;&gt;symfony/var&#45;exporter</title>
<path fill="none" stroke="#1a2833" d="M1207.3,-1966.16C1252.65,-1961.9 1308.04,-1960.68 1356.68,-1971 1407.81,-1981.85 1462.04,-2008.26 1497.45,-2027.78"/>
<polygon fill="#1a2833" stroke="#1a2833" points="1496.04,-2031.01 1506.48,-2032.84 1499.46,-2024.9 1496.04,-2031.01"/>
<text text-anchor="middle" x="1318.68" y="-1974" font-family="Times,serif" font-size="10.00" fill="#767676">^6.3.6|^7.0</text>
</g>
<!-- symfony/config&#45;&gt;php -->
<g id="edge36" class="edge">
<title>symfony/config&#45;&gt;php</title>
<path fill="none" stroke="#1a2833" d="M1203.76,-1071.99C1224.08,-1076.07 1244.93,-1082.61 1262.68,-1093 1264.44,-1094.03 1355.83,-1204.14 1356.68,-1206 1377.99,-1253.14 1362.1,-1270.82 1374.68,-1321 1417.19,-1490.6 1495.44,-1685.99 1524.98,-1757.21"/>
<polygon fill="#1a2833" stroke="#1a2833" points="1521.9,-1758.91 1528.97,-1766.8 1528.36,-1756.22 1521.9,-1758.91"/>
<text text-anchor="middle" x="1318.68" y="-1209" font-family="Times,serif" font-size="10.00" fill="#767676">&gt;=8.1</text>
</g>
<!-- symfony/deprecation&#45;contracts -->
<g id="node32" class="node">
<title>symfony/deprecation&#45;contracts</title>
<path fill="#eeeeee" stroke="black" d="M1670.68,-2183C1670.68,-2183 1404.68,-2183 1404.68,-2183 1398.68,-2183 1392.68,-2177 1392.68,-2171 1392.68,-2171 1392.68,-2159 1392.68,-2159 1392.68,-2153 1398.68,-2147 1404.68,-2147 1404.68,-2147 1670.68,-2147 1670.68,-2147 1676.68,-2147 1682.68,-2153 1682.68,-2159 1682.68,-2159 1682.68,-2171 1682.68,-2171 1682.68,-2177 1676.68,-2183 1670.68,-2183"/>
<text text-anchor="middle" x="1537.68" y="-2161.3" font-family="Times,serif" font-size="14.00" fill="#314b5f">symfony/deprecation&#45;contracts: v3.5.0</text>
</g>
<!-- symfony/config&#45;&gt;symfony/deprecation&#45;contracts -->
<g id="edge37" class="edge">
<title>symfony/config&#45;&gt;symfony/deprecation&#45;contracts</title>
<path fill="none" stroke="#1a2833" d="M1203.96,-1063.31C1226.24,-1067.17 1248,-1075.78 1262.68,-1093 1291.04,-1126.29 1255.46,-1844.27 1280.68,-1880 1301.52,-1909.54 1334.62,-1880.35 1356.68,-1909 1402.76,-1968.85 1332.52,-2015.32 1374.68,-2078 1395.43,-2108.86 1430.84,-2129.65 1463.28,-2143.15"/>
<polygon fill="#1a2833" stroke="#1a2833" points="1462.19,-2146.48 1472.78,-2146.93 1464.78,-2139.98 1462.19,-2146.48"/>
<text text-anchor="middle" x="1318.68" y="-1912" font-family="Times,serif" font-size="10.00" fill="#767676">^2.5|^3</text>
</g>
<!-- symfony/filesystem -->
<g id="node33" class="node">
<title>symfony/filesystem</title>
<path fill="#eeeeee" stroke="black" d="M1633.68,-1147C1633.68,-1147 1441.68,-1147 1441.68,-1147 1435.68,-1147 1429.68,-1141 1429.68,-1135 1429.68,-1135 1429.68,-1123 1429.68,-1123 1429.68,-1117 1435.68,-1111 1441.68,-1111 1441.68,-1111 1633.68,-1111 1633.68,-1111 1639.68,-1111 1645.68,-1117 1645.68,-1123 1645.68,-1123 1645.68,-1135 1645.68,-1135 1645.68,-1141 1639.68,-1147 1633.68,-1147"/>
<text text-anchor="middle" x="1537.68" y="-1125.3" font-family="Times,serif" font-size="14.00" fill="#314b5f">symfony/filesystem: v6.4.12</text>
</g>
<!-- symfony/config&#45;&gt;symfony/filesystem -->
<g id="edge38" class="edge">
<title>symfony/config&#45;&gt;symfony/filesystem</title>
<path fill="none" stroke="#1a2833" d="M1203.81,-1079.13C1266.33,-1088.5 1351.08,-1101.19 1419.41,-1111.43"/>
<polygon fill="#1a2833" stroke="#1a2833" points="1418.96,-1114.9 1429.37,-1112.92 1420,-1107.98 1418.96,-1114.9"/>
<text text-anchor="middle" x="1318.68" y="-1104" font-family="Times,serif" font-size="10.00" fill="#767676">^5.4|^6.0|^7.0</text>
</g>
<!-- symfony/polyfill&#45;ctype -->
<g id="node34" class="node">
<title>symfony/polyfill&#45;ctype</title>
<path fill="#eeeeee" stroke="black" d="M1643.18,-964C1643.18,-964 1432.18,-964 1432.18,-964 1426.18,-964 1420.18,-958 1420.18,-952 1420.18,-952 1420.18,-940 1420.18,-940 1420.18,-934 1426.18,-928 1432.18,-928 1432.18,-928 1643.18,-928 1643.18,-928 1649.18,-928 1655.18,-934 1655.18,-940 1655.18,-940 1655.18,-952 1655.18,-952 1655.18,-958 1649.18,-964 1643.18,-964"/>
<text text-anchor="middle" x="1537.68" y="-942.3" font-family="Times,serif" font-size="14.00" fill="#314b5f">symfony/polyfill&#45;ctype: v1.31.0</text>
</g>
<!-- symfony/config&#45;&gt;symfony/polyfill&#45;ctype -->
<g id="edge39" class="edge">
<title>symfony/config&#45;&gt;symfony/polyfill&#45;ctype</title>
<path fill="none" stroke="#1a2833" d="M1204.05,-1048.24C1223.44,-1043.92 1243.82,-1039.07 1262.68,-1034 1336.86,-1014.03 1420.78,-986.3 1475.98,-967.34"/>
<polygon fill="#1a2833" stroke="#1a2833" points="1477.29,-970.59 1485.6,-964.02 1475.01,-963.97 1477.29,-970.59"/>
<text text-anchor="middle" x="1318.68" y="-1030" font-family="Times,serif" font-size="10.00" fill="#767676">~1.8</text>
</g>
<!-- symfony/dependency&#45;injection&#45;&gt;php -->
<g id="edge42" class="edge">
<title>symfony/dependency&#45;injection&#45;&gt;php</title>
<path fill="none" stroke="#1a2833" d="M1208.93,-2102.99C1228.83,-2095.35 1248.2,-2084.47 1262.68,-2069 1282.86,-2047.42 1259.99,-2026.1 1280.68,-2005 1305.38,-1979.8 1332.38,-2007.6 1356.68,-1982 1379.68,-1957.76 1356.37,-1936.96 1374.68,-1909 1406.6,-1860.24 1464.42,-1822.93 1501.65,-1802.5"/>
<polygon fill="#1a2833" stroke="#1a2833" points="1503.49,-1805.48 1510.64,-1797.67 1500.18,-1799.31 1503.49,-1805.48"/>
<text text-anchor="middle" x="1318.68" y="-2008" font-family="Times,serif" font-size="10.00" fill="#767676">&gt;=8.1</text>
</g>
<!-- symfony/dependency&#45;injection&#45;&gt;symfony/service&#45;contracts -->
<g id="edge45" class="edge">
<title>symfony/dependency&#45;injection&#45;&gt;symfony/service&#45;contracts</title>
<path fill="none" stroke="#1a2833" d="M1252.58,-2139.12C1256.17,-2141.78 1259.55,-2144.73 1262.68,-2148 1303.27,-2190.49 1240.79,-2235.84 1280.68,-2279 1286.14,-2284.91 1363.82,-2301.4 1432.19,-2314.97"/>
<polygon fill="#1a2833" stroke="#1a2833" points="1431.71,-2318.44 1442.2,-2316.95 1433.06,-2311.58 1431.71,-2318.44"/>
<text text-anchor="middle" x="1318.68" y="-2301" font-family="Times,serif" font-size="10.00" fill="#767676">^2.5|^3.0</text>
</g>
<!-- symfony/dependency&#45;injection&#45;&gt;symfony/var&#45;exporter -->
<g id="edge46" class="edge">
<title>symfony/dependency&#45;injection&#45;&gt;symfony/var&#45;exporter</title>
<path fill="none" stroke="#1a2833" d="M1262.82,-2119.8C1293.98,-2117.84 1326.55,-2114.51 1356.68,-2109 1399.93,-2101.09 1447.18,-2085.59 1482.42,-2072.6"/>
<polygon fill="#1a2833" stroke="#1a2833" points="1483.88,-2075.79 1492.02,-2069.01 1481.43,-2069.23 1483.88,-2075.79"/>
<text text-anchor="middle" x="1318.68" y="-2121" font-family="Times,serif" font-size="10.00" fill="#767676">^6.2.10|^7.0</text>
</g>
<!-- symfony/dependency&#45;injection&#45;&gt;symfony/deprecation&#45;contracts -->
<g id="edge44" class="edge">
<title>symfony/dependency&#45;injection&#45;&gt;symfony/deprecation&#45;contracts</title>
<path fill="none" stroke="#1a2833" d="M1246.75,-2139.04C1258.22,-2140.45 1269.65,-2141.79 1280.68,-2143 1313.43,-2146.6 1348.59,-2149.95 1382.04,-2152.9"/>
<polygon fill="#1a2833" stroke="#1a2833" points="1382.1,-2156.42 1392.37,-2153.8 1382.71,-2149.44 1382.1,-2156.42"/>
<text text-anchor="middle" x="1318.68" y="-2153" font-family="Times,serif" font-size="10.00" fill="#767676">^2.5|^3</text>
</g>
<!-- psr/container -->
<g id="node36" class="node">
<title>psr/container</title>
<path fill="#eeeeee" stroke="black" d="M1604.18,-2251C1604.18,-2251 1471.18,-2251 1471.18,-2251 1465.18,-2251 1459.18,-2245 1459.18,-2239 1459.18,-2239 1459.18,-2227 1459.18,-2227 1459.18,-2221 1465.18,-2215 1471.18,-2215 1471.18,-2215 1604.18,-2215 1604.18,-2215 1610.18,-2215 1616.18,-2221 1616.18,-2227 1616.18,-2227 1616.18,-2239 1616.18,-2239 1616.18,-2245 1610.18,-2251 1604.18,-2251"/>
<text text-anchor="middle" x="1537.68" y="-2229.3" font-family="Times,serif" font-size="14.00" fill="#314b5f">psr/container: 2.0.2</text>
</g>
<!-- symfony/dependency&#45;injection&#45;&gt;psr/container -->
<g id="edge43" class="edge">
<title>symfony/dependency&#45;injection&#45;&gt;psr/container</title>
<path fill="none" stroke="#1a2833" d="M1251.02,-2139.08C1255.13,-2141.73 1259.04,-2144.7 1262.68,-2148 1284.23,-2167.58 1258.2,-2192.48 1280.68,-2211 1305.76,-2231.66 1385.22,-2235.93 1449.03,-2235.77"/>
<polygon fill="#1a2833" stroke="#1a2833" points="1449.15,-2239.27 1459.13,-2235.71 1449.11,-2232.27 1449.15,-2239.27"/>
<text text-anchor="middle" x="1318.68" y="-2234" font-family="Times,serif" font-size="10.00" fill="#767676">^1.1|^2.0</text>
</g>
<!-- symfony/event&#45;dispatcher&#45;&gt;php -->
<g id="edge48" class="edge">
<title>symfony/event&#45;dispatcher&#45;&gt;php</title>
<path fill="none" stroke="#1a2833" d="M1242.3,-1232.48C1249.81,-1236.61 1256.72,-1241.71 1262.68,-1248 1305.53,-1293.21 1253.73,-1330.84 1280.68,-1387 1301.75,-1430.93 1327.58,-1426.92 1356.68,-1466 1431.33,-1566.3 1497.49,-1700.71 1524.17,-1757.67"/>
<polygon fill="#1a2833" stroke="#1a2833" points="1521,-1759.16 1528.39,-1766.75 1527.35,-1756.21 1521,-1759.16"/>
<text text-anchor="middle" x="1318.68" y="-1469" font-family="Times,serif" font-size="10.00" fill="#767676">&gt;=8.1</text>
</g>
<!-- symfony/event&#45;dispatcher&#45;contracts -->
<g id="node38" class="node">
<title>symfony/event&#45;dispatcher&#45;contracts</title>
<path fill="#eeeeee" stroke="black" d="M1688.68,-1239C1688.68,-1239 1386.68,-1239 1386.68,-1239 1380.68,-1239 1374.68,-1233 1374.68,-1227 1374.68,-1227 1374.68,-1215 1374.68,-1215 1374.68,-1209 1380.68,-1203 1386.68,-1203 1386.68,-1203 1688.68,-1203 1688.68,-1203 1694.68,-1203 1700.68,-1209 1700.68,-1215 1700.68,-1215 1700.68,-1227 1700.68,-1227 1700.68,-1233 1694.68,-1239 1688.68,-1239"/>
<text text-anchor="middle" x="1537.68" y="-1217.3" font-family="Times,serif" font-size="14.00" fill="#314b5f">symfony/event&#45;dispatcher&#45;contracts: v3.5.0</text>
</g>
<!-- symfony/event&#45;dispatcher&#45;&gt;symfony/event&#45;dispatcher&#45;contracts -->
<g id="edge49" class="edge">
<title>symfony/event&#45;dispatcher&#45;&gt;symfony/event&#45;dispatcher&#45;contracts</title>
<path fill="none" stroke="#1a2833" d="M1242.34,-1221C1280.67,-1221 1323.46,-1221 1364.28,-1221"/>
<polygon fill="#1a2833" stroke="#1a2833" points="1364.34,-1224.5 1374.34,-1221 1364.34,-1217.5 1364.34,-1224.5"/>
<text text-anchor="middle" x="1318.68" y="-1224" font-family="Times,serif" font-size="10.00" fill="#767676">^2.5|^3</text>
</g>
<!-- symfony/finder&#45;&gt;php -->
<g id="edge51" class="edge">
<title>symfony/finder&#45;&gt;php</title>
<path fill="none" stroke="#1a2833" d="M1207.89,-1647.88C1253.64,-1651.1 1309.2,-1658.51 1356.68,-1675 1413.76,-1694.83 1472.05,-1734.8 1506.26,-1760.71"/>
<polygon fill="#1a2833" stroke="#1a2833" points="1504.36,-1763.66 1514.43,-1766.97 1508.62,-1758.11 1504.36,-1763.66"/>
<text text-anchor="middle" x="1318.68" y="-1678" font-family="Times,serif" font-size="10.00" fill="#767676">&gt;=8.1</text>
</g>
<!-- symfony/http&#45;client&#45;&gt;php -->
<g id="edge53" class="edge">
<title>symfony/http&#45;client&#45;&gt;php</title>
<path fill="none" stroke="#1a2833" d="M1125.24,-2401.97C1146.83,-2360.63 1205.18,-2257.98 1280.68,-2198 1309.51,-2175.09 1335.41,-2195.06 1356.68,-2165 1389.61,-2118.44 1347.64,-1959.22 1374.68,-1909 1402.61,-1857.11 1462.68,-1820.28 1501.3,-1800.87"/>
<polygon fill="#1a2833" stroke="#1a2833" points="1503.18,-1803.84 1510.62,-1796.31 1500.1,-1797.56 1503.18,-1803.84"/>
<text text-anchor="middle" x="1318.68" y="-2201" font-family="Times,serif" font-size="10.00" fill="#767676">&gt;=8.1</text>
</g>
<!-- symfony/http&#45;client&#45;&gt;psr/log -->
<g id="edge54" class="edge">
<title>symfony/http&#45;client&#45;&gt;psr/log</title>
<path fill="none" stroke="#1a2833" d="M1172.63,-2438.08C1224.82,-2454.54 1304.64,-2479.09 1374.68,-2498 1406.63,-2506.63 1442.29,-2515.71 1471.99,-2523.13"/>
<polygon fill="#1a2833" stroke="#1a2833" points="1471.27,-2526.56 1481.82,-2525.58 1472.96,-2519.77 1471.27,-2526.56"/>
<text text-anchor="middle" x="1318.68" y="-2495" font-family="Times,serif" font-size="10.00" fill="#767676">^1|^2|^3</text>
</g>
<!-- symfony/http&#45;client&#45;&gt;symfony/service&#45;contracts -->
<g id="edge57" class="edge">
<title>symfony/http&#45;client&#45;&gt;symfony/service&#45;contracts</title>
<path fill="none" stroke="#1a2833" d="M1224.42,-2426.8C1266.19,-2427.08 1314.08,-2424.5 1356.68,-2415 1407.54,-2403.65 1461.63,-2377.47 1497.08,-2358.13"/>
<polygon fill="#1a2833" stroke="#1a2833" points="1499.07,-2361.03 1506.12,-2353.13 1495.68,-2354.91 1499.07,-2361.03"/>
<text text-anchor="middle" x="1318.68" y="-2427" font-family="Times,serif" font-size="10.00" fill="#767676">^2.5|^3</text>
</g>
<!-- symfony/http&#45;client&#45;&gt;symfony/deprecation&#45;contracts -->
<g id="edge55" class="edge">
<title>symfony/http&#45;client&#45;&gt;symfony/deprecation&#45;contracts</title>
<path fill="none" stroke="#1a2833" d="M1224.41,-2407.13C1283.73,-2399.03 1347.15,-2388.2 1356.68,-2378 1409.13,-2321.82 1324.37,-2264.11 1374.68,-2206 1380.61,-2199.14 1387.52,-2193.35 1395.06,-2188.46"/>
<polygon fill="#1a2833" stroke="#1a2833" points="1397.32,-2191.19 1404.19,-2183.13 1393.79,-2185.15 1397.32,-2191.19"/>
<text text-anchor="middle" x="1318.68" y="-2401" font-family="Times,serif" font-size="10.00" fill="#767676">^2.5|^3</text>
</g>
<!-- symfony/http&#45;client&#45;contracts -->
<g id="node41" class="node">
<title>symfony/http&#45;client&#45;contracts</title>
<path fill="#eeeeee" stroke="black" d="M1665.68,-2489C1665.68,-2489 1409.68,-2489 1409.68,-2489 1403.68,-2489 1397.68,-2483 1397.68,-2477 1397.68,-2477 1397.68,-2465 1397.68,-2465 1397.68,-2459 1403.68,-2453 1409.68,-2453 1409.68,-2453 1665.68,-2453 1665.68,-2453 1671.68,-2453 1677.68,-2459 1677.68,-2465 1677.68,-2465 1677.68,-2477 1677.68,-2477 1677.68,-2483 1671.68,-2489 1665.68,-2489"/>
<text text-anchor="middle" x="1537.68" y="-2467.3" font-family="Times,serif" font-size="14.00" fill="#314b5f">symfony/http&#45;client&#45;contracts: v3.5.0</text>
</g>
<!-- symfony/http&#45;client&#45;&gt;symfony/http&#45;client&#45;contracts -->
<g id="edge56" class="edge">
<title>symfony/http&#45;client&#45;&gt;symfony/http&#45;client&#45;contracts</title>
<path fill="none" stroke="#1a2833" d="M1209.9,-2438.01C1232.98,-2442.03 1257.67,-2445.99 1280.68,-2449 1315.1,-2453.5 1352.25,-2457.3 1387.28,-2460.41"/>
<polygon fill="#1a2833" stroke="#1a2833" points="1387.33,-2463.93 1397.59,-2461.31 1387.94,-2456.95 1387.33,-2463.93"/>
<text text-anchor="middle" x="1318.68" y="-2459" font-family="Times,serif" font-size="10.00" fill="#767676">^3.4.1</text>
</g>
<!-- symfony/messenger&#45;&gt;php -->
<g id="edge59" class="edge">
<title>symfony/messenger&#45;&gt;php</title>
<path fill="none" stroke="#1a2833" d="M1165.23,-2520.9C1198.15,-2506.13 1239.58,-2481.95 1262.68,-2447 1290.72,-2404.57 1246.78,-2371.91 1280.68,-2334 1304.03,-2307.88 1334.84,-2340.41 1356.68,-2313 1384.68,-2277.86 1353.89,-1948.83 1374.68,-1909 1401.94,-1856.75 1462.21,-1820.04 1501.05,-1800.74"/>
<polygon fill="#1a2833" stroke="#1a2833" points="1502.95,-1803.71 1510.43,-1796.21 1499.91,-1797.4 1502.95,-1803.71"/>
<text text-anchor="middle" x="1318.68" y="-2337" font-family="Times,serif" font-size="10.00" fill="#767676">&gt;=8.1</text>
</g>
<!-- symfony/messenger&#45;&gt;psr/log -->
<g id="edge60" class="edge">
<title>symfony/messenger&#45;&gt;psr/log</title>
<path fill="none" stroke="#1a2833" d="M1225.84,-2548.12C1244.14,-2549.32 1262.93,-2550.35 1280.68,-2551 1345.7,-2553.37 1419.98,-2549.11 1471.72,-2545.03"/>
<polygon fill="#1a2833" stroke="#1a2833" points="1472.07,-2548.51 1481.76,-2544.22 1471.51,-2541.54 1472.07,-2548.51"/>
<text text-anchor="middle" x="1318.68" y="-2554" font-family="Times,serif" font-size="10.00" fill="#767676">^1|^2|^3</text>
</g>
<!-- symfony/messenger&#45;&gt;symfony/deprecation&#45;contracts -->
<g id="edge62" class="edge">
<title>symfony/messenger&#45;&gt;symfony/deprecation&#45;contracts</title>
<path fill="none" stroke="#1a2833" d="M1225.92,-2537.62C1280.53,-2534.42 1338.68,-2526.36 1356.68,-2507 1402.31,-2457.93 1331.95,-2257.62 1374.68,-2206 1380.33,-2199.17 1386.93,-2193.39 1394.19,-2188.5"/>
<polygon fill="#1a2833" stroke="#1a2833" points="1396.26,-2191.34 1402.99,-2183.16 1392.63,-2185.36 1396.26,-2191.34"/>
<text text-anchor="middle" x="1318.68" y="-2535" font-family="Times,serif" font-size="10.00" fill="#767676">^2.5|^3</text>
</g>
<!-- symfony/clock -->
<g id="node43" class="node">
<title>symfony/clock</title>
<path fill="#eeeeee" stroke="black" d="M1610.68,-2625C1610.68,-2625 1464.68,-2625 1464.68,-2625 1458.68,-2625 1452.68,-2619 1452.68,-2613 1452.68,-2613 1452.68,-2601 1452.68,-2601 1452.68,-2595 1458.68,-2589 1464.68,-2589 1464.68,-2589 1610.68,-2589 1610.68,-2589 1616.68,-2589 1622.68,-2595 1622.68,-2601 1622.68,-2601 1622.68,-2613 1622.68,-2613 1622.68,-2619 1616.68,-2625 1610.68,-2625"/>
<text text-anchor="middle" x="1537.68" y="-2603.3" font-family="Times,serif" font-size="14.00" fill="#314b5f">symfony/clock: v6.4.8</text>
</g>
<!-- symfony/messenger&#45;&gt;symfony/clock -->
<g id="edge61" class="edge">
<title>symfony/messenger&#45;&gt;symfony/clock</title>
<path fill="none" stroke="#1a2833" d="M1225.89,-2557.07C1244.18,-2560.06 1262.96,-2563.13 1280.68,-2566 1334.19,-2574.68 1394.01,-2584.26 1442.36,-2591.98"/>
<polygon fill="#1a2833" stroke="#1a2833" points="1442.07,-2595.48 1452.49,-2593.6 1443.17,-2588.57 1442.07,-2595.48"/>
<text text-anchor="middle" x="1318.68" y="-2580" font-family="Times,serif" font-size="10.00" fill="#767676">^6.3|^7.0</text>
</g>
<!-- symfony/process&#45;&gt;php -->
<g id="edge64" class="edge">
<title>symfony/process&#45;&gt;php</title>
<path fill="none" stroke="#1a2833" d="M903.42,-1891.82C1019.49,-1892.27 1204.23,-1887.13 1262.68,-1852 1275.36,-1844.38 1268.26,-1832.05 1280.68,-1824 1316.24,-1800.93 1438.34,-1790.69 1500.17,-1786.89"/>
<polygon fill="#1a2833" stroke="#1a2833" points="1500.49,-1790.38 1510.27,-1786.29 1500.08,-1783.39 1500.49,-1790.38"/>
<text text-anchor="middle" x="1115.18" y="-1894" font-family="Times,serif" font-size="10.00" fill="#767676">&gt;=8.1</text>
</g>
<!-- symfony/requirements&#45;checker&#45;&gt;php -->
<g id="edge66" class="edge">
<title>symfony/requirements&#45;checker&#45;&gt;php</title>
<path fill="none" stroke="#1a2833" d="M949.71,-1790.66C1043.9,-1784.45 1169.51,-1777.15 1280.68,-1774 1314.44,-1773.04 1322.91,-1772.97 1356.68,-1774 1406.52,-1775.52 1464.02,-1779.41 1500.35,-1782.13"/>
<polygon fill="#1a2833" stroke="#1a2833" points="1500.23,-1785.63 1510.47,-1782.9 1500.76,-1778.65 1500.23,-1785.63"/>
<text text-anchor="middle" x="1115.18" y="-1792" font-family="Times,serif" font-size="10.00" fill="#767676">&gt;=5.3.9</text>
</g>
<!-- symfony/stopwatch&#45;&gt;php -->
<g id="edge68" class="edge">
<title>symfony/stopwatch&#45;&gt;php</title>
<path fill="none" stroke="#1a2833" d="M1219.49,-2172.39C1235.67,-2167.66 1250.91,-2160.01 1262.68,-2148 1297.35,-2112.62 1247.8,-2075.06 1280.68,-2038 1304.01,-2011.69 1333.28,-2042.25 1356.68,-2016 1388.76,-1980 1349.8,-1950.31 1374.68,-1909 1404.83,-1858.93 1463.42,-1821.89 1501.26,-1801.88"/>
<polygon fill="#1a2833" stroke="#1a2833" points="1503.12,-1804.86 1510.4,-1797.17 1499.91,-1798.64 1503.12,-1804.86"/>
<text text-anchor="middle" x="1318.68" y="-2041" font-family="Times,serif" font-size="10.00" fill="#767676">&gt;=8.1</text>
</g>
<!-- symfony/stopwatch&#45;&gt;symfony/service&#45;contracts -->
<g id="edge69" class="edge">
<title>symfony/stopwatch&#45;&gt;symfony/service&#45;contracts</title>
<path fill="none" stroke="#1a2833" d="M1126.43,-2193.1C1148.76,-2230.4 1205.82,-2315.01 1280.68,-2347 1338.24,-2371.6 1409.84,-2365.54 1462.68,-2355.08"/>
<polygon fill="#1a2833" stroke="#1a2833" points="1463.57,-2358.47 1472.65,-2353.02 1462.15,-2351.62 1463.57,-2358.47"/>
<text text-anchor="middle" x="1318.68" y="-2366" font-family="Times,serif" font-size="10.00" fill="#767676">^2.5|^3</text>
</g>
<!-- symfony/framework&#45;bundle&#45;&gt;php -->
<g id="edge74" class="edge">
<title>symfony/framework&#45;bundle&#45;&gt;php</title>
<path fill="none" stroke="#1a2833" d="M640.71,-1470.1C646.78,-1470.4 652.79,-1470.71 658.68,-1471 725.78,-1474.35 1201.51,-1472.2 1262.68,-1500 1387.53,-1556.74 1484.41,-1698.53 1520.92,-1758.04"/>
<polygon fill="#1a2833" stroke="#1a2833" points="1518.08,-1760.11 1526.25,-1766.86 1524.07,-1756.49 1518.08,-1760.11"/>
<text text-anchor="middle" x="1115.18" y="-1503" font-family="Times,serif" font-size="10.00" fill="#767676">&gt;=8.1</text>
</g>
<!-- symfony/framework&#45;bundle&#45;&gt;composer&#45;runtime&#45;api -->
<g id="edge72" class="edge">
<title>symfony/framework&#45;bundle&#45;&gt;composer&#45;runtime&#45;api</title>
<path fill="none" stroke="#1a2833" d="M513.32,-1444.95C538.72,-1392.66 614.13,-1242.9 658.68,-1213 767.52,-1139.95 828.66,-1215.38 949.68,-1165 958.79,-1161.21 958.67,-1156.03 967.68,-1152 983.57,-1144.9 1001.16,-1139.32 1018.47,-1134.96"/>
<polygon fill="#1a2833" stroke="#1a2833" points="1019.71,-1138.26 1028.62,-1132.53 1018.08,-1131.45 1019.71,-1138.26"/>
<text text-anchor="middle" x="804.18" y="-1216" font-family="Times,serif" font-size="10.00" fill="#767676">&gt;=2.1</text>
</g>
<!-- symfony/framework&#45;bundle&#45;&gt;symfony/cache -->
<g id="edge75" class="edge">
<title>symfony/framework&#45;bundle&#45;&gt;symfony/cache</title>
<path fill="none" stroke="#1a2833" d="M518.98,-1481.48C543.79,-1512.08 598,-1572.77 658.68,-1602 776.77,-1658.88 861.46,-1553.04 949.68,-1650 988.65,-1692.84 935.11,-1862.1 967.68,-1910 982.78,-1932.22 1006.95,-1947.6 1031.34,-1958.15"/>
<polygon fill="#1a2833" stroke="#1a2833" points="1030.1,-1961.42 1040.68,-1961.96 1032.74,-1954.94 1030.1,-1961.42"/>
<text text-anchor="middle" x="804.18" y="-1653" font-family="Times,serif" font-size="10.00" fill="#767676">^5.4|^6.0|^7.0</text>
</g>
<!-- symfony/framework&#45;bundle&#45;&gt;symfony/config -->
<g id="edge76" class="edge">
<title>symfony/framework&#45;bundle&#45;&gt;symfony/config</title>
<path fill="none" stroke="#1a2833" d="M517.75,-1444.77C544.63,-1406.46 606.44,-1314.07 640.68,-1228 653.51,-1195.75 633.1,-1175.47 658.68,-1152 755,-1063.61 831.21,-1164.29 949.68,-1109 959.38,-1104.47 958.06,-1097.7 967.68,-1093 982.83,-1085.6 999.76,-1080.21 1016.59,-1076.3"/>
<polygon fill="#1a2833" stroke="#1a2833" points="1017.44,-1079.7 1026.48,-1074.16 1015.96,-1072.86 1017.44,-1079.7"/>
<text text-anchor="middle" x="804.18" y="-1155" font-family="Times,serif" font-size="10.00" fill="#767676">^6.1|^7.0</text>
</g>
<!-- symfony/framework&#45;bundle&#45;&gt;symfony/deprecation&#45;contracts -->
<g id="edge78" class="edge">
<title>symfony/framework&#45;bundle&#45;&gt;symfony/deprecation&#45;contracts</title>
<path fill="none" stroke="#1a2833" d="M522.63,-1481.12C550.34,-1509.73 604.14,-1567.89 640.68,-1624 650.65,-1639.33 643.66,-1650.57 658.68,-1661 712.04,-1698.06 904.65,-1642.17 949.68,-1689 998.73,-1740.02 920.82,-1953.95 967.68,-2007 1084.01,-2138.73 1189.6,-2023.49 1356.68,-2078 1406.96,-2094.41 1461.16,-2122.11 1496.79,-2141.84"/>
<polygon fill="#1a2833" stroke="#1a2833" points="1495.45,-2145.1 1505.89,-2146.93 1498.87,-2138.99 1495.45,-2145.1"/>
<text text-anchor="middle" x="1115.18" y="-2076" font-family="Times,serif" font-size="10.00" fill="#767676">^2.5|^3</text>
</g>
<!-- symfony/framework&#45;bundle&#45;&gt;symfony/filesystem -->
<g id="edge81" class="edge">
<title>symfony/framework&#45;bundle&#45;&gt;symfony/filesystem</title>
<path fill="none" stroke="#1a2833" d="M511.72,-1444.85C529.22,-1402.51 579.09,-1297.37 658.68,-1252 771.55,-1187.65 844.42,-1300.18 949.68,-1224 965.8,-1212.33 951.34,-1194.37 967.68,-1183 1038.75,-1133.53 1270.65,-1169.92 1356.68,-1160 1381.7,-1157.11 1408.54,-1153.03 1433.64,-1148.78"/>
<polygon fill="#1a2833" stroke="#1a2833" points="1434.28,-1152.22 1443.54,-1147.08 1433.09,-1145.32 1434.28,-1152.22"/>
<text text-anchor="middle" x="1115.18" y="-1186" font-family="Times,serif" font-size="10.00" fill="#767676">^5.4|^6.0|^7.0</text>
</g>
<!-- symfony/framework&#45;bundle&#45;&gt;symfony/dependency&#45;injection -->
<g id="edge77" class="edge">
<title>symfony/framework&#45;bundle&#45;&gt;symfony/dependency&#45;injection</title>
<path fill="none" stroke="#1a2833" d="M524.25,-1481.43C553.62,-1510.11 608.99,-1568.33 640.68,-1628 653.93,-1652.97 637.34,-1670.46 658.68,-1689 757.37,-1774.74 861.64,-1635.34 949.68,-1732 1000.17,-1787.45 922.8,-2008.92 967.68,-2069 977.15,-2081.68 989.97,-2091.28 1004.11,-2098.55"/>
<polygon fill="#1a2833" stroke="#1a2833" points="1003.03,-2101.91 1013.57,-2102.99 1006.01,-2095.57 1003.03,-2101.91"/>
<text text-anchor="middle" x="804.18" y="-1735" font-family="Times,serif" font-size="10.00" fill="#767676">^6.4.12|^7.0</text>
</g>
<!-- symfony/framework&#45;bundle&#45;&gt;symfony/event&#45;dispatcher -->
<g id="edge80" class="edge">
<title>symfony/framework&#45;bundle&#45;&gt;symfony/event&#45;dispatcher</title>
<path fill="none" stroke="#1a2833" d="M512.81,-1444.77C531.75,-1404.8 583.01,-1309.85 658.68,-1270 716.04,-1239.79 885.31,-1256.78 949.68,-1249 968.41,-1246.73 988.26,-1243.81 1007.45,-1240.71"/>
<polygon fill="#1a2833" stroke="#1a2833" points="1008.12,-1244.14 1017.42,-1239.07 1006.98,-1237.24 1008.12,-1244.14"/>
<text text-anchor="middle" x="804.18" y="-1273" font-family="Times,serif" font-size="10.00" fill="#767676">^5.4|^6.0|^7.0</text>
</g>
<!-- symfony/framework&#45;bundle&#45;&gt;symfony/finder -->
<g id="edge82" class="edge">
<title>symfony/framework&#45;bundle&#45;&gt;symfony/finder</title>
<path fill="none" stroke="#1a2833" d="M524.19,-1481.39C551.72,-1506.06 604.65,-1548.97 658.68,-1568 719.86,-1589.55 894.01,-1557.7 949.68,-1591 962.37,-1598.6 955.39,-1610.76 967.68,-1619 981.1,-1628.01 996.71,-1634.23 1012.63,-1638.48"/>
<polygon fill="#1a2833" stroke="#1a2833" points="1012.03,-1641.93 1022.57,-1640.88 1013.67,-1635.13 1012.03,-1641.93"/>
<text text-anchor="middle" x="804.18" y="-1594" font-family="Times,serif" font-size="10.00" fill="#767676">^5.4|^6.0|^7.0</text>
</g>
<!-- ext&#45;xml -->
<g id="node48" class="node">
<title>ext&#45;xml</title>
<path fill="#eeeeee" stroke="black" d="M1138.18,-1347C1138.18,-1347 1092.18,-1347 1092.18,-1347 1086.18,-1347 1080.18,-1341 1080.18,-1335 1080.18,-1335 1080.18,-1323 1080.18,-1323 1080.18,-1317 1086.18,-1311 1092.18,-1311 1092.18,-1311 1138.18,-1311 1138.18,-1311 1144.18,-1311 1150.18,-1317 1150.18,-1323 1150.18,-1323 1150.18,-1335 1150.18,-1335 1150.18,-1341 1144.18,-1347 1138.18,-1347"/>
<text text-anchor="middle" x="1115.18" y="-1325.3" font-family="Times,serif" font-size="14.00" fill="#314b5f">ext&#45;xml</text>
</g>
<!-- symfony/framework&#45;bundle&#45;&gt;ext&#45;xml -->
<g id="edge73" class="edge">
<title>symfony/framework&#45;bundle&#45;&gt;ext&#45;xml</title>
<path fill="none" stroke="#1a2833" d="M530.82,-1444.84C560.39,-1425.29 610.7,-1394.99 658.68,-1380 804.35,-1334.47 987.42,-1328.54 1070.08,-1328.42"/>
<polygon fill="#1a2833" stroke="#1a2833" points="1070.12,-1331.92 1080.13,-1328.44 1070.13,-1324.92 1070.12,-1331.92"/>
<text text-anchor="middle" x="804.18" y="-1383" font-family="Times,serif" font-size="10.00" fill="#767676">*</text>
</g>
<!-- symfony/error&#45;handler -->
<g id="node49" class="node">
<title>symfony/error&#45;handler</title>
<path fill="#eeeeee" stroke="black" d="M1222.68,-1293C1222.68,-1293 1007.68,-1293 1007.68,-1293 1001.68,-1293 995.68,-1287 995.68,-1281 995.68,-1281 995.68,-1269 995.68,-1269 995.68,-1263 1001.68,-1257 1007.68,-1257 1007.68,-1257 1222.68,-1257 1222.68,-1257 1228.68,-1257 1234.68,-1263 1234.68,-1269 1234.68,-1269 1234.68,-1281 1234.68,-1281 1234.68,-1287 1228.68,-1293 1222.68,-1293"/>
<text text-anchor="middle" x="1115.18" y="-1271.3" font-family="Times,serif" font-size="14.00" fill="#314b5f">symfony/error&#45;handler: v6.4.10</text>
</g>
<!-- symfony/framework&#45;bundle&#45;&gt;symfony/error&#45;handler -->
<g id="edge79" class="edge">
<title>symfony/framework&#45;bundle&#45;&gt;symfony/error&#45;handler</title>
<path fill="none" stroke="#1a2833" d="M517.21,-1444.91C540.69,-1412.67 594.75,-1345.96 658.68,-1317 687.83,-1303.79 860.91,-1290.56 985.08,-1282.58"/>
<polygon fill="#1a2833" stroke="#1a2833" points="985.68,-1286.05 995.43,-1281.92 985.23,-1279.06 985.68,-1286.05"/>
<text text-anchor="middle" x="804.18" y="-1320" font-family="Times,serif" font-size="10.00" fill="#767676">^6.1|^7.0</text>
</g>
<!-- symfony/http&#45;foundation -->
<g id="node50" class="node">
<title>symfony/http&#45;foundation</title>
<path fill="#eeeeee" stroke="black" d="M1230.18,-1610C1230.18,-1610 1000.18,-1610 1000.18,-1610 994.18,-1610 988.18,-1604 988.18,-1598 988.18,-1598 988.18,-1586 988.18,-1586 988.18,-1580 994.18,-1574 1000.18,-1574 1000.18,-1574 1230.18,-1574 1230.18,-1574 1236.18,-1574 1242.18,-1580 1242.18,-1586 1242.18,-1586 1242.18,-1598 1242.18,-1598 1242.18,-1604 1236.18,-1610 1230.18,-1610"/>
<text text-anchor="middle" x="1115.18" y="-1588.3" font-family="Times,serif" font-size="14.00" fill="#314b5f">symfony/http&#45;foundation: v6.4.12</text>
</g>
<!-- symfony/framework&#45;bundle&#45;&gt;symfony/http&#45;foundation -->
<g id="edge83" class="edge">
<title>symfony/framework&#45;bundle&#45;&gt;symfony/http&#45;foundation</title>
<path fill="none" stroke="#1a2833" d="M535.31,-1481.08C565.56,-1497.96 613.67,-1522.25 658.68,-1534 784.2,-1566.78 823.93,-1525.09 949.68,-1557 958.16,-1559.15 959.31,-1562.41 967.68,-1565 975.32,-1567.37 983.25,-1569.55 991.29,-1571.57"/>
<polygon fill="#1a2833" stroke="#1a2833" points="990.6,-1575.01 1001.14,-1573.95 992.24,-1568.2 990.6,-1575.01"/>
<text text-anchor="middle" x="804.18" y="-1560" font-family="Times,serif" font-size="10.00" fill="#767676">^6.4|^7.0</text>
</g>
<!-- symfony/http&#45;kernel -->
<g id="node51" class="node">
<title>symfony/http&#45;kernel</title>
<path fill="#eeeeee" stroke="black" d="M1214.68,-1556C1214.68,-1556 1015.68,-1556 1015.68,-1556 1009.68,-1556 1003.68,-1550 1003.68,-1544 1003.68,-1544 1003.68,-1532 1003.68,-1532 1003.68,-1526 1009.68,-1520 1015.68,-1520 1015.68,-1520 1214.68,-1520 1214.68,-1520 1220.68,-1520 1226.68,-1526 1226.68,-1532 1226.68,-1532 1226.68,-1544 1226.68,-1544 1226.68,-1550 1220.68,-1556 1214.68,-1556"/>
<text text-anchor="middle" x="1115.18" y="-1534.3" font-family="Times,serif" font-size="14.00" fill="#314b5f">symfony/http&#45;kernel: v6.4.12</text>
</g>
<!-- symfony/framework&#45;bundle&#45;&gt;symfony/http&#45;kernel -->
<g id="edge84" class="edge">
<title>symfony/framework&#45;bundle&#45;&gt;symfony/http&#45;kernel</title>
<path fill="none" stroke="#1a2833" d="M569.79,-1481.04C597.06,-1487.97 629.21,-1495.33 658.68,-1500 786.81,-1520.33 820.41,-1512 949.68,-1523 963.84,-1524.21 978.68,-1525.51 993.41,-1526.82"/>
<polygon fill="#1a2833" stroke="#1a2833" points="993.31,-1530.33 1003.58,-1527.73 993.94,-1523.35 993.31,-1530.33"/>
<text text-anchor="middle" x="804.18" y="-1526" font-family="Times,serif" font-size="10.00" fill="#767676">^6.4</text>
</g>
<!-- symfony/polyfill&#45;mbstring -->
<g id="node52" class="node">
<title>symfony/polyfill&#45;mbstring</title>
<path fill="#eeeeee" stroke="black" d="M1233.68,-1455C1233.68,-1455 996.68,-1455 996.68,-1455 990.68,-1455 984.68,-1449 984.68,-1443 984.68,-1443 984.68,-1431 984.68,-1431 984.68,-1425 990.68,-1419 996.68,-1419 996.68,-1419 1233.68,-1419 1233.68,-1419 1239.68,-1419 1245.68,-1425 1245.68,-1431 1245.68,-1431 1245.68,-1443 1245.68,-1443 1245.68,-1449 1239.68,-1455 1233.68,-1455"/>
<text text-anchor="middle" x="1115.18" y="-1433.3" font-family="Times,serif" font-size="14.00" fill="#314b5f">symfony/polyfill&#45;mbstring: v1.31.0</text>
</g>
<!-- symfony/framework&#45;bundle&#45;&gt;symfony/polyfill&#45;mbstring -->
<g id="edge85" class="edge">
<title>symfony/framework&#45;bundle&#45;&gt;symfony/polyfill&#45;mbstring</title>
<path fill="none" stroke="#1a2833" d="M640.7,-1457.2C740,-1452.96 874.2,-1447.24 974.37,-1442.96"/>
<polygon fill="#1a2833" stroke="#1a2833" points="974.73,-1446.45 984.57,-1442.53 974.43,-1439.46 974.73,-1446.45"/>
<text text-anchor="middle" x="804.18" y="-1459" font-family="Times,serif" font-size="10.00" fill="#767676">~1.0</text>
</g>
<!-- symfony/routing -->
<g id="node53" class="node">
<title>symfony/routing</title>
<path fill="#eeeeee" stroke="black" d="M1201.18,-1401C1201.18,-1401 1029.18,-1401 1029.18,-1401 1023.18,-1401 1017.18,-1395 1017.18,-1389 1017.18,-1389 1017.18,-1377 1017.18,-1377 1017.18,-1371 1023.18,-1365 1029.18,-1365 1029.18,-1365 1201.18,-1365 1201.18,-1365 1207.18,-1365 1213.18,-1371 1213.18,-1377 1213.18,-1377 1213.18,-1389 1213.18,-1389 1213.18,-1395 1207.18,-1401 1201.18,-1401"/>
<text text-anchor="middle" x="1115.18" y="-1379.3" font-family="Times,serif" font-size="14.00" fill="#314b5f">symfony/routing: v6.4.12</text>
</g>
<!-- symfony/framework&#45;bundle&#45;&gt;symfony/routing -->
<g id="edge86" class="edge">
<title>symfony/framework&#45;bundle&#45;&gt;symfony/routing</title>
<path fill="none" stroke="#1a2833" d="M577.97,-1444.99C603.4,-1439.23 632.18,-1433.25 658.68,-1429 777.06,-1410.02 914.08,-1397.44 1006.67,-1390.3"/>
<polygon fill="#1a2833" stroke="#1a2833" points="1007.19,-1393.77 1016.9,-1389.52 1006.66,-1386.79 1007.19,-1393.77"/>
<text text-anchor="middle" x="804.18" y="-1432" font-family="Times,serif" font-size="10.00" fill="#767676">^6.4|^7.0</text>
</g>
<!-- bamarni/composer&#45;bin&#45;plugin&#45;&gt;php -->
<g id="edge89" class="edge">
<title>bamarni/composer&#45;bin&#45;plugin&#45;&gt;php</title>
<path fill="none" stroke="#1a2833" d="M639.32,-1691.17C791.5,-1683.6 1046.22,-1678.23 1262.68,-1709 1349.96,-1721.41 1448.81,-1753.49 1500.61,-1771.76"/>
<polygon fill="#1a2833" stroke="#1a2833" points="1499.73,-1775.16 1510.33,-1775.22 1502.08,-1768.57 1499.73,-1775.16"/>
<text text-anchor="middle" x="1115.18" y="-1712" font-family="Times,serif" font-size="10.00" fill="#767676">^7.2.5 || ^8.0</text>
</g>
<!-- composer&#45;plugin&#45;api -->
<g id="node55" class="node">
<title>composer&#45;plugin&#45;api</title>
<path fill="#eeeeee" stroke="black" d="M1183.68,-1765C1183.68,-1765 1046.68,-1765 1046.68,-1765 1040.68,-1765 1034.68,-1759 1034.68,-1753 1034.68,-1753 1034.68,-1741 1034.68,-1741 1034.68,-1735 1040.68,-1729 1046.68,-1729 1046.68,-1729 1183.68,-1729 1183.68,-1729 1189.68,-1729 1195.68,-1735 1195.68,-1741 1195.68,-1741 1195.68,-1753 1195.68,-1753 1195.68,-1759 1189.68,-1765 1183.68,-1765"/>
<text text-anchor="middle" x="1115.18" y="-1743.3" font-family="Times,serif" font-size="14.00" fill="#314b5f">composer&#45;plugin&#45;api</text>
</g>
<!-- bamarni/composer&#45;bin&#45;plugin&#45;&gt;composer&#45;plugin&#45;api -->
<g id="edge88" class="edge">
<title>bamarni/composer&#45;bin&#45;plugin&#45;&gt;composer&#45;plugin&#45;api</title>
<path fill="none" stroke="#1a2833" d="M553.49,-1718.07C583.39,-1728.18 622.7,-1739.77 658.68,-1745 784.46,-1763.28 931.84,-1759.4 1024.13,-1753.97"/>
<polygon fill="#1a2833" stroke="#1a2833" points="1024.5,-1757.46 1034.27,-1753.36 1024.08,-1750.47 1024.5,-1757.46"/>
<text text-anchor="middle" x="804.18" y="-1761" font-family="Times,serif" font-size="10.00" fill="#767676">^2.0</text>
</g>
</g>
</svg>
