<?xml version="1.0" encoding="UTF-8" standalone="no"?>
<!DOCTYPE svg PUBLIC "-//W3C//DTD SVG 1.1//EN"
 "http://www.w3.org/Graphics/SVG/1.1/DTD/svg11.dtd">
<!-- Generated by graphviz version 2.43.0 (0)
 -->
<!-- Title: %3 Pages: 1 -->
<svg width="1152pt" height="800pt"
 viewBox="0.00 0.00 1152.00 800.00" xmlns="http://www.w3.org/2000/svg" xmlns:xlink="http://www.w3.org/1999/xlink">
<g id="graph0" class="graph" transform="scale(1 1) rotate(0) translate(4 796)">
<title>%3</title>
<g id="clust1" class="cluster">
<title>cluster_0</title>
<polygon fill="BurlyWood" stroke="black" points="8,-659 8,-758 698,-758 698,-659 8,-659"/>
<text text-anchor="middle" x="353" y="-742.8" font-family="Times,serif" font-size="14.00">Bartlett\CompatInfoDb\Application\Event\Dispatcher</text>
</g>
<g id="clust2" class="cluster">
<title>cluster_1</title>
<polygon fill="transparent" stroke="black" points="244,-196 244,-625 908,-625 908,-196 244,-196"/>
<text text-anchor="middle" x="576" y="-609.8" font-family="Times,serif" font-size="14.00">Symfony\Component\EventDispatcher</text>
</g>
<g id="clust3" class="cluster">
<title>cluster_2</title>
<polygon fill="transparent" stroke="black" points="317,-102 317,-188 671,-188 671,-102 317,-102"/>
<text text-anchor="middle" x="494" y="-172.8" font-family="Times,serif" font-size="14.00">Symfony\Contracts\EventDispatcher</text>
</g>
<g id="clust4" class="cluster">
<title>cluster_3</title>
<polygon fill="transparent" stroke="black" points="404,-8 404,-94 584,-94 584,-8 404,-8"/>
<text text-anchor="middle" x="494" y="-78.8" font-family="Times,serif" font-size="14.00">Psr\EventDispatcher</text>
</g>
<g id="clust5" class="cluster">
<title>cluster_4</title>
<polygon fill="BurlyWood" stroke="black" points="706,-633 706,-784 1136,-784 1136,-633 706,-633"/>
<text text-anchor="middle" x="921" y="-768.8" font-family="Times,serif" font-size="14.00">Bartlett\CompatInfoDb\Application\Event\Subscriber</text>
</g>
<!-- Bartlett\\CompatInfoDb\\Application\\Event\\Dispatcher\\EventDispatcher -->
<g id="node1" class="node">
<title>Bartlett\\CompatInfoDb\\Application\\Event\\Dispatcher\\EventDispatcher</title>
<polygon fill="#fefece" stroke="transparent" points="690,-727 16,-727 16,-667 690,-667 690,-727"/>
<polygon fill="#eeeeee" stroke="transparent" points="16,-705 16,-727 690,-727 690,-705 16,-705"/>
<polygon fill="none" stroke="black" points="16,-705 16,-727 690,-727 690,-705 16,-705"/>
<text text-anchor="start" x="315.5" y="-710.6" font-family="Verdana" font-weight="bold" font-size="8.00">EventDispatcher</text>
<polygon fill="none" stroke="black" points="16,-686 16,-705 690,-705 690,-686 16,-686"/>
<text text-anchor="start" x="21" y="-693.6" font-family="Verdana" font-size="8.00">– diagnoseOutput</text>
<polygon fill="none" stroke="black" points="16,-667 16,-686 690,-686 690,-667 16,-667"/>
<text text-anchor="start" x="21" y="-674.6" font-family="Verdana" font-size="8.00">+ __construct(input : Symfony\Component\Console\Input\InputInterface, profileEventSubscriber : Symfony\Component\EventDispatcher\EventSubscriberInterface)</text>
</g>
<!-- Symfony\\Component\\EventDispatcher\\EventDispatcher -->
<g id="node2" class="node">
<title>Symfony\\Component\\EventDispatcher\\EventDispatcher</title>
<polygon fill="#fefece" stroke="transparent" points="688.5,-594 251.5,-594 251.5,-365 688.5,-365 688.5,-594"/>
<polygon fill="#eeeeee" stroke="transparent" points="252,-571.5 252,-593.5 689,-593.5 689,-571.5 252,-571.5"/>
<polygon fill="none" stroke="black" points="252,-571.5 252,-593.5 689,-593.5 689,-571.5 252,-571.5"/>
<text text-anchor="start" x="433" y="-577.1" font-family="Verdana" font-weight="bold" font-size="8.00">EventDispatcher</text>
<polygon fill="none" stroke="black" points="252,-526.5 252,-571.5 689,-571.5 689,-526.5 252,-526.5"/>
<text text-anchor="start" x="257" y="-560.1" font-family="Verdana" font-size="8.00">– listeners = []</text>
<text text-anchor="start" x="257" y="-547.1" font-family="Verdana" font-size="8.00">– sorted = []</text>
<text text-anchor="start" x="257" y="-534.1" font-family="Verdana" font-size="8.00">– optimized</text>
<polygon fill="none" stroke="black" points="252,-364.5 252,-526.5 689,-526.5 689,-364.5 252,-364.5"/>
<text text-anchor="start" x="257" y="-515.1" font-family="Verdana" font-size="8.00">+ __construct()</text>
<text text-anchor="start" x="257" y="-502.1" font-family="Verdana" font-size="8.00">+ dispatch(event : object, eventName : string = «unknown») : object</text>
<text text-anchor="start" x="257" y="-489.1" font-family="Verdana" font-size="8.00">+ getListeners(eventName : string = «unknown») : array</text>
<text text-anchor="start" x="257" y="-476.1" font-family="Verdana" font-size="8.00">+ getListenerPriority(eventName : string, listener) : ?int</text>
<text text-anchor="start" x="257" y="-463.1" font-family="Verdana" font-size="8.00">+ hasListeners(eventName : string = «unknown») : bool</text>
<text text-anchor="start" x="257" y="-450.1" font-family="Verdana" font-size="8.00">+ addListener(eventName : string, listener, priority : int = 0) : void</text>
<text text-anchor="start" x="257" y="-437.1" font-family="Verdana" font-size="8.00">+ removeListener(eventName : string, listener) : void</text>
<text text-anchor="start" x="257" y="-424.1" font-family="Verdana" font-size="8.00">+ addSubscriber(subscriber : Symfony\Component\EventDispatcher\EventSubscriberInterface) : void</text>
<text text-anchor="start" x="257" y="-411.1" font-family="Verdana" font-size="8.00">+ removeSubscriber(subscriber : Symfony\Component\EventDispatcher\EventSubscriberInterface) : void</text>
<text text-anchor="start" x="257" y="-398.1" font-family="Verdana" font-size="8.00"># callListeners(listeners : iterable, eventName : string, event : object) : void</text>
<text text-anchor="start" x="257" y="-385.1" font-family="Verdana" font-size="8.00">– sortListeners(eventName : string) : void</text>
<text text-anchor="start" x="257" y="-372.1" font-family="Verdana" font-size="8.00">– optimizeListeners(eventName : string) : array</text>
</g>
<!-- Bartlett\\CompatInfoDb\\Application\\Event\\Dispatcher\\EventDispatcher&#45;&gt;Symfony\\Component\\EventDispatcher\\EventDispatcher -->
<g id="edge4" class="edge">
<title>Bartlett\\CompatInfoDb\\Application\\Event\\Dispatcher\\EventDispatcher&#45;&gt;Symfony\\Component\\EventDispatcher\\EventDispatcher</title>
<path fill="none" stroke="black" d="M368.78,-666.94C378.06,-649.85 390.49,-626.96 403.45,-603.07"/>
<polygon fill="none" stroke="black" points="406.55,-604.7 408.25,-594.24 400.4,-601.36 406.55,-604.7"/>
</g>
<!-- Symfony\\Component\\EventDispatcher\\EventDispatcherInterface -->
<g id="node3" class="node">
<title>Symfony\\Component\\EventDispatcher\\EventDispatcherInterface</title>
<polygon fill="#fefece" stroke="transparent" points="736,-329 252,-329 252,-204 736,-204 736,-329"/>
<polygon fill="#eeeeee" stroke="transparent" points="252,-306.5 252,-328.5 736,-328.5 736,-306.5 252,-306.5"/>
<polygon fill="none" stroke="black" points="252,-306.5 252,-328.5 736,-328.5 736,-306.5 252,-306.5"/>
<text text-anchor="start" x="468" y="-320.1" font-family="Verdana" font-weight="bold" font-size="8.00">«interface»</text>
<text text-anchor="start" x="436.5" y="-312.1" font-family="Verdana" font-weight="bold" font-size="8.00">EventDispatcherInterface</text>
<polygon fill="none" stroke="black" points="252,-300.5 252,-306.5 736,-306.5 736,-300.5 252,-300.5"/>
<polygon fill="none" stroke="black" points="252,-203.5 252,-300.5 736,-300.5 736,-203.5 252,-203.5"/>
<text text-anchor="start" x="257" y="-289.1" font-family="Verdana" font-size="8.00">+ «abstract» addListener(eventName : string, listener : callable, priority : int = 0) : void</text>
<text text-anchor="start" x="257" y="-276.1" font-family="Verdana" font-size="8.00">+ «abstract» addSubscriber(subscriber : Symfony\Component\EventDispatcher\EventSubscriberInterface) : void</text>
<text text-anchor="start" x="257" y="-263.1" font-family="Verdana" font-size="8.00">+ «abstract» removeListener(eventName : string, listener : callable) : void</text>
<text text-anchor="start" x="257" y="-250.1" font-family="Verdana" font-size="8.00">+ «abstract» removeSubscriber(subscriber : Symfony\Component\EventDispatcher\EventSubscriberInterface) : void</text>
<text text-anchor="start" x="257" y="-237.1" font-family="Verdana" font-size="8.00">+ «abstract» getListeners(eventName : string = «unknown») : array</text>
<text text-anchor="start" x="257" y="-224.1" font-family="Verdana" font-size="8.00">+ «abstract» getListenerPriority(eventName : string, listener : callable) : ?int</text>
<text text-anchor="start" x="257" y="-211.1" font-family="Verdana" font-size="8.00">+ «abstract» hasListeners(eventName : string = «unknown») : bool</text>
</g>
<!-- Symfony\\Component\\EventDispatcher\\EventDispatcher&#45;&gt;Symfony\\Component\\EventDispatcher\\EventDispatcherInterface -->
<g id="edge3" class="edge">
<title>Symfony\\Component\\EventDispatcher\\EventDispatcher&#45;&gt;Symfony\\Component\\EventDispatcher\\EventDispatcherInterface</title>
<path fill="none" stroke="black" stroke-dasharray="5,2" d="M482.91,-364.97C483.91,-356.23 484.89,-347.57 485.84,-339.22"/>
<polygon fill="none" stroke="black" points="489.33,-339.54 486.98,-329.21 482.37,-338.75 489.33,-339.54"/>
</g>
<!-- Symfony\\Contracts\\EventDispatcher\\EventDispatcherInterface -->
<g id="node5" class="node">
<title>Symfony\\Contracts\\EventDispatcher\\EventDispatcherInterface</title>
<polygon fill="#fefece" stroke="transparent" points="663,-157 325,-157 325,-110 663,-110 663,-157"/>
<polygon fill="#eeeeee" stroke="transparent" points="325,-134.5 325,-156.5 663,-156.5 663,-134.5 325,-134.5"/>
<polygon fill="none" stroke="black" points="325,-134.5 325,-156.5 663,-156.5 663,-134.5 325,-134.5"/>
<text text-anchor="start" x="468" y="-148.1" font-family="Verdana" font-weight="bold" font-size="8.00">«interface»</text>
<text text-anchor="start" x="436.5" y="-140.1" font-family="Verdana" font-weight="bold" font-size="8.00">EventDispatcherInterface</text>
<polygon fill="none" stroke="black" points="325,-128.5 325,-134.5 663,-134.5 663,-128.5 325,-128.5"/>
<polygon fill="none" stroke="black" points="325,-109.5 325,-128.5 663,-128.5 663,-109.5 325,-109.5"/>
<text text-anchor="start" x="330" y="-117.1" font-family="Verdana" font-size="8.00">+ «abstract» dispatch(event : object, eventName : string = «unknown») : object</text>
</g>
<!-- Symfony\\Component\\EventDispatcher\\EventDispatcherInterface&#45;&gt;Symfony\\Contracts\\EventDispatcher\\EventDispatcherInterface -->
<g id="edge2" class="edge">
<title>Symfony\\Component\\EventDispatcher\\EventDispatcherInterface&#45;&gt;Symfony\\Contracts\\EventDispatcher\\EventDispatcherInterface</title>
<path fill="none" stroke="black" stroke-dasharray="5,2" d="M494,-203.84C494,-191.16 494,-178.3 494,-167.15"/>
<polygon fill="none" stroke="black" points="497.5,-167.04 494,-157.04 490.5,-167.04 497.5,-167.04"/>
</g>
<!-- Symfony\\Component\\EventDispatcher\\EventSubscriberInterface -->
<g id="node4" class="node">
<title>Symfony\\Component\\EventDispatcher\\EventSubscriberInterface</title>
<polygon fill="#fefece" stroke="transparent" points="900,-503 706,-503 706,-456 900,-456 900,-503"/>
<polygon fill="#eeeeee" stroke="transparent" points="706,-480.5 706,-502.5 900,-502.5 900,-480.5 706,-480.5"/>
<polygon fill="none" stroke="black" points="706,-480.5 706,-502.5 900,-502.5 900,-480.5 706,-480.5"/>
<text text-anchor="start" x="777" y="-494.1" font-family="Verdana" font-weight="bold" font-size="8.00">«interface»</text>
<text text-anchor="start" x="745.5" y="-486.1" font-family="Verdana" font-weight="bold" font-size="8.00">EventSubscriberInterface</text>
<polygon fill="none" stroke="black" points="706,-474.5 706,-480.5 900,-480.5 900,-474.5 706,-474.5"/>
<polygon fill="none" stroke="black" points="706,-455.5 706,-474.5 900,-474.5 900,-455.5 706,-455.5"/>
<text text-anchor="start" x="711" y="-463.1" font-family="Verdana" font-size="8.00">+ «abstract» «static» getSubscribedEvents()</text>
</g>
<!-- Psr\\EventDispatcher\\EventDispatcherInterface -->
<g id="node6" class="node">
<title>Psr\\EventDispatcher\\EventDispatcherInterface</title>
<polygon fill="#fefece" stroke="transparent" points="576,-63 412,-63 412,-16 576,-16 576,-63"/>
<polygon fill="#eeeeee" stroke="transparent" points="412,-40.5 412,-62.5 576,-62.5 576,-40.5 412,-40.5"/>
<polygon fill="none" stroke="black" points="412,-40.5 412,-62.5 576,-62.5 576,-40.5 412,-40.5"/>
<text text-anchor="start" x="468" y="-54.1" font-family="Verdana" font-weight="bold" font-size="8.00">«interface»</text>
<text text-anchor="start" x="436.5" y="-46.1" font-family="Verdana" font-weight="bold" font-size="8.00">EventDispatcherInterface</text>
<polygon fill="none" stroke="black" points="412,-34.5 412,-40.5 576,-40.5 576,-34.5 412,-34.5"/>
<polygon fill="none" stroke="black" points="412,-15.5 412,-34.5 576,-34.5 576,-15.5 412,-15.5"/>
<text text-anchor="start" x="417" y="-23.1" font-family="Verdana" font-size="8.00">+ «abstract» dispatch(event : object)</text>
</g>
<!-- Symfony\\Contracts\\EventDispatcher\\EventDispatcherInterface&#45;&gt;Psr\\EventDispatcher\\EventDispatcherInterface -->
<g id="edge1" class="edge">
<title>Symfony\\Contracts\\EventDispatcher\\EventDispatcherInterface&#45;&gt;Psr\\EventDispatcher\\EventDispatcherInterface</title>
<path fill="none" stroke="black" stroke-dasharray="5,2" d="M494,-109.76C494,-98.81 494,-85.48 494,-73.45"/>
<polygon fill="none" stroke="black" points="497.5,-73.3 494,-63.3 490.5,-73.3 497.5,-73.3"/>
</g>
<!-- Bartlett\\CompatInfoDb\\Application\\Event\\Subscriber\\ProfileEventSubscriber -->
<g id="node7" class="node">
<title>Bartlett\\CompatInfoDb\\Application\\Event\\Subscriber\\ProfileEventSubscriber</title>
<polygon fill="#fefece" stroke="transparent" points="1128,-753 714,-753 714,-641 1128,-641 1128,-753"/>
<polygon fill="#eeeeee" stroke="transparent" points="714,-731 714,-753 1128,-753 1128,-731 714,-731"/>
<polygon fill="none" stroke="black" points="714,-731 714,-753 1128,-753 1128,-731 714,-731"/>
<text text-anchor="start" x="869" y="-736.6" font-family="Verdana" font-weight="bold" font-size="8.00">ProfileEventSubscriber</text>
<polygon fill="none" stroke="black" points="714,-712 714,-731 1128,-731 1128,-712 714,-712"/>
<text text-anchor="start" x="719" y="-719.6" font-family="Verdana" font-size="8.00">– stopwatch</text>
<polygon fill="none" stroke="black" points="714,-641 714,-712 1128,-712 1128,-641 714,-641"/>
<text text-anchor="start" x="719" y="-700.6" font-family="Verdana" font-size="8.00">+ __construct(stopwatch : Symfony\Component\Stopwatch\Stopwatch)</text>
<text text-anchor="start" x="719" y="-687.6" font-family="Verdana" font-size="8.00">+ «static» getSubscribedEvents() : array</text>
<text text-anchor="start" x="719" y="-674.6" font-family="Verdana" font-size="8.00">+ onConsoleCommand(event : Symfony\Component\Console\Event\ConsoleCommandEvent) : void</text>
<text text-anchor="start" x="719" y="-661.6" font-family="Verdana" font-size="8.00">+ onConsoleTerminate(event : Symfony\Component\Console\Event\ConsoleTerminateEvent) : void</text>
<text text-anchor="start" x="719" y="-648.6" font-family="Verdana" font-size="8.00">– toTimeString(time : int) : string</text>
</g>
<!-- Bartlett\\CompatInfoDb\\Application\\Event\\Subscriber\\ProfileEventSubscriber&#45;&gt;Symfony\\Component\\EventDispatcher\\EventSubscriberInterface -->
<g id="edge5" class="edge">
<title>Bartlett\\CompatInfoDb\\Application\\Event\\Subscriber\\ProfileEventSubscriber&#45;&gt;Symfony\\Component\\EventDispatcher\\EventSubscriberInterface</title>
<path fill="none" stroke="black" stroke-dasharray="5,2" d="M890.77,-640.78C868.42,-599.98 838.79,-545.86 820.31,-512.11"/>
<polygon fill="none" stroke="black" points="823.28,-510.25 815.41,-503.16 817.14,-513.61 823.28,-510.25"/>
</g>
</g>
</svg>
