<?xml version="1.0" encoding="UTF-8" standalone="no"?>
<!DOCTYPE svg PUBLIC "-//W3C//DTD SVG 1.1//EN"
 "http://www.w3.org/Graphics/SVG/1.1/DTD/svg11.dtd">
<!-- Generated by graphviz version 2.43.0 (0)
 -->
<!-- Title: %3 Pages: 1 -->
<svg width="1536pt" height="757pt"
 viewBox="0.00 0.00 1536.00 757.00" xmlns="http://www.w3.org/2000/svg" xmlns:xlink="http://www.w3.org/1999/xlink">
<g id="graph0" class="graph" transform="scale(1 1) rotate(0) translate(4 753)">
<title>%3</title>
<g id="clust1" class="cluster">
<title>cluster_0</title>
<polygon fill="BurlyWood" stroke="black" points="8,-8 8,-741 1520,-741 1520,-8 8,-8"/>
<text text-anchor="middle" x="764" y="-725.8" font-family="Times,serif" font-size="14.00">Bartlett\CompatInfoDb\Application\Kernel</text>
</g>
<!-- Bartlett\\CompatInfoDb\\Application\\Kernel\\ConsoleKernel -->
<g id="node1" class="node">
<title>Bartlett\\CompatInfoDb\\Application\\Kernel\\ConsoleKernel</title>
<polygon fill="#fefece" stroke="transparent" points="1110.5,-710 461.5,-710 461.5,-637 1110.5,-637 1110.5,-710"/>
<polygon fill="#eeeeee" stroke="transparent" points="462,-687.5 462,-709.5 1111,-709.5 1111,-687.5 462,-687.5"/>
<polygon fill="none" stroke="black" points="462,-687.5 462,-709.5 1111,-709.5 1111,-687.5 462,-687.5"/>
<text text-anchor="start" x="754" y="-693.1" font-family="Verdana" font-weight="bold" font-size="8.00">ConsoleKernel</text>
<polygon fill="none" stroke="black" points="462,-681.5 462,-687.5 1111,-687.5 1111,-681.5 462,-681.5"/>
<polygon fill="none" stroke="black" points="462,-636.5 462,-681.5 1111,-681.5 1111,-636.5 462,-636.5"/>
<text text-anchor="start" x="467" y="-670.1" font-family="Verdana" font-size="8.00">+ getCacheDir(default : string = «unknown») : string</text>
<text text-anchor="start" x="467" y="-657.1" font-family="Verdana" font-size="8.00">+ handle(input : Symfony\Component\Console\Input\InputInterface = «unknown») : int</text>
<text text-anchor="start" x="467" y="-644.1" font-family="Verdana" font-size="8.00">+ createFromInput(input : Symfony\Component\Console\Input\InputInterface = «unknown») : Symfony\Component\DependencyInjection\ContainerInterface</text>
</g>
<!-- Bartlett\\CompatInfoDb\\Application\\Kernel\\AbstractKernel -->
<g id="node2" class="node">
<title>Bartlett\\CompatInfoDb\\Application\\Kernel\\AbstractKernel</title>
<polygon fill="#fefece" stroke="transparent" points="799.5,-601 16.5,-601 16.5,-190 799.5,-190 799.5,-601"/>
<polygon fill="#eeeeee" stroke="transparent" points="17,-578.5 17,-600.5 800,-600.5 800,-578.5 17,-578.5"/>
<polygon fill="none" stroke="black" points="17,-578.5 17,-600.5 800,-600.5 800,-578.5 17,-578.5"/>
<text text-anchor="start" x="384.5" y="-592.1" font-family="Verdana" font-weight="bold" font-size="8.00">«abstract»</text>
<text text-anchor="start" x="375" y="-584.1" font-family="Verdana" font-weight="bold" font-size="8.00">AbstractKernel</text>
<polygon fill="none" stroke="black" points="17,-481.5 17,-578.5 800,-578.5 800,-481.5 17,-481.5"/>
<text text-anchor="start" x="22" y="-567.1" font-family="Verdana" font-size="8.00"># configFiles : mixed</text>
<text text-anchor="start" x="22" y="-554.1" font-family="Verdana" font-size="8.00"># compilerPasses : mixed</text>
<text text-anchor="start" x="22" y="-541.1" font-family="Verdana" font-size="8.00"># extensions : mixed</text>
<text text-anchor="start" x="22" y="-528.1" font-family="Verdana" font-size="8.00"># environment</text>
<text text-anchor="start" x="22" y="-515.1" font-family="Verdana" font-size="8.00"># debug</text>
<text text-anchor="start" x="22" y="-502.1" font-family="Verdana" font-size="8.00"># projectDir</text>
<text text-anchor="start" x="22" y="-489.1" font-family="Verdana" font-size="8.00"># container</text>
<polygon fill="none" stroke="black" points="17,-189.5 17,-481.5 800,-481.5 800,-189.5 17,-189.5"/>
<text text-anchor="start" x="22" y="-470.1" font-family="Verdana" font-size="8.00">+ __construct(environment : string, debug : bool, projectDir : string = «unknown»)</text>
<text text-anchor="start" x="22" y="-457.1" font-family="Verdana" font-size="8.00">+ createFromConfigs(configFiles : array) : Symfony\Component\DependencyInjection\ContainerInterface</text>
<text text-anchor="start" x="22" y="-444.1" font-family="Verdana" font-size="8.00">+ create(configFiles : array, compilerPasses : array = [], extensions : array = []) : Symfony\Component\DependencyInjection\ContainerInterface</text>
<text text-anchor="start" x="22" y="-431.1" font-family="Verdana" font-size="8.00"># getContainerClass() : string</text>
<text text-anchor="start" x="22" y="-418.1" font-family="Verdana" font-size="8.00"># initializeContainer() : void</text>
<text text-anchor="start" x="22" y="-405.1" font-family="Verdana" font-size="8.00"># buildContainer() : Symfony\Component\DependencyInjection\ContainerBuilder</text>
<text text-anchor="start" x="22" y="-392.1" font-family="Verdana" font-size="8.00"># prepareContainer(container : Symfony\Component\DependencyInjection\ContainerBuilder) : void</text>
<text text-anchor="start" x="22" y="-379.1" font-family="Verdana" font-size="8.00"># registerContainerConfiguration(loader : Symfony\Component\Config\Loader\LoaderInterface) : void</text>
<text text-anchor="start" x="22" y="-366.1" font-family="Verdana" font-size="8.00"># dumpContainer(cache : Symfony\Component\Config\ConfigCacheInterface, container : Symfony\Component\DependencyInjection\ContainerBuilder, class : string, baseClass : string) : void</text>
<text text-anchor="start" x="22" y="-353.1" font-family="Verdana" font-size="8.00"># getContainerLoader(container : Symfony\Component\DependencyInjection\ContainerBuilder) : Symfony\Component\Config\Loader\LoaderInterface</text>
<text text-anchor="start" x="22" y="-340.1" font-family="Verdana" font-size="8.00"># getContainerBaseClass() : string</text>
<text text-anchor="start" x="22" y="-327.1" font-family="Verdana" font-size="8.00">+ getContainerBuilder() : Symfony\Component\DependencyInjection\ContainerBuilder</text>
<text text-anchor="start" x="22" y="-314.1" font-family="Verdana" font-size="8.00"># getKernelParameters() : array</text>
<text text-anchor="start" x="22" y="-301.1" font-family="Verdana" font-size="8.00">+ getEnvironment() : string</text>
<text text-anchor="start" x="22" y="-288.1" font-family="Verdana" font-size="8.00">+ isDebug() : bool</text>
<text text-anchor="start" x="22" y="-275.1" font-family="Verdana" font-size="8.00">+ getHomeDir() : string</text>
<text text-anchor="start" x="22" y="-262.1" font-family="Verdana" font-size="8.00">+ getProjectDir() : string</text>
<text text-anchor="start" x="22" y="-249.1" font-family="Verdana" font-size="8.00">+ getCacheDir(default : string = «unknown») : string</text>
<text text-anchor="start" x="22" y="-236.1" font-family="Verdana" font-size="8.00">+ getLogDir() : string</text>
<text text-anchor="start" x="22" y="-223.1" font-family="Verdana" font-size="8.00">+ getContainer() : Symfony\Component\DependencyInjection\ContainerInterface</text>
<text text-anchor="start" x="22" y="-210.1" font-family="Verdana" font-size="8.00">+ boot() : void</text>
<text text-anchor="start" x="22" y="-197.1" font-family="Verdana" font-size="8.00"># getConfigDir() : string</text>
</g>
<!-- Bartlett\\CompatInfoDb\\Application\\Kernel\\ConsoleKernel&#45;&gt;Bartlett\\CompatInfoDb\\Application\\Kernel\\AbstractKernel -->
<g id="edge3" class="edge">
<title>Bartlett\\CompatInfoDb\\Application\\Kernel\\ConsoleKernel&#45;&gt;Bartlett\\CompatInfoDb\\Application\\Kernel\\AbstractKernel</title>
<path fill="none" stroke="black" d="M737.36,-636.98C725.33,-628.2 711.56,-618.15 696.63,-607.25"/>
<polygon fill="none" stroke="black" points="698.36,-604.18 688.22,-601.11 694.23,-609.83 698.36,-604.18"/>
</g>
<!-- Bartlett\\CompatInfoDb\\Application\\Kernel\\ConsoleKernelInterface -->
<g id="node5" class="node">
<title>Bartlett\\CompatInfoDb\\Application\\Kernel\\ConsoleKernelInterface</title>
<polygon fill="#fefece" stroke="transparent" points="1512.5,-425.5 817.5,-425.5 817.5,-365.5 1512.5,-365.5 1512.5,-425.5"/>
<polygon fill="#eeeeee" stroke="transparent" points="818,-403.5 818,-425.5 1513,-425.5 1513,-403.5 818,-403.5"/>
<polygon fill="none" stroke="black" points="818,-403.5 818,-425.5 1513,-425.5 1513,-403.5 818,-403.5"/>
<text text-anchor="start" x="1139.5" y="-417.1" font-family="Verdana" font-weight="bold" font-size="8.00">«interface»</text>
<text text-anchor="start" x="1112.5" y="-409.1" font-family="Verdana" font-weight="bold" font-size="8.00">ConsoleKernelInterface</text>
<polygon fill="none" stroke="black" points="818,-397.5 818,-403.5 1513,-403.5 1513,-397.5 818,-397.5"/>
<polygon fill="none" stroke="black" points="818,-365.5 818,-397.5 1513,-397.5 1513,-365.5 818,-365.5"/>
<text text-anchor="start" x="823" y="-386.1" font-family="Verdana" font-size="8.00">+ «abstract» handle(input : Symfony\Component\Console\Input\InputInterface = «unknown») : int</text>
<text text-anchor="start" x="823" y="-373.1" font-family="Verdana" font-size="8.00">+ «abstract» createFromInput(input : Symfony\Component\Console\Input\InputInterface = «unknown») : Symfony\Component\DependencyInjection\ContainerInterface</text>
</g>
<!-- Bartlett\\CompatInfoDb\\Application\\Kernel\\ConsoleKernel&#45;&gt;Bartlett\\CompatInfoDb\\Application\\Kernel\\ConsoleKernelInterface -->
<g id="edge4" class="edge">
<title>Bartlett\\CompatInfoDb\\Application\\Kernel\\ConsoleKernel&#45;&gt;Bartlett\\CompatInfoDb\\Application\\Kernel\\ConsoleKernelInterface</title>
<path fill="none" stroke="black" stroke-dasharray="5,2" d="M834.77,-636.98C907.73,-583.85 1044.45,-484.29 1116.97,-431.47"/>
<polygon fill="none" stroke="black" points="1119.04,-434.3 1125.07,-425.58 1114.92,-428.64 1119.04,-434.3"/>
</g>
<!-- Bartlett\\CompatInfoDb\\Application\\Kernel\\KernelInterface -->
<g id="node3" class="node">
<title>Bartlett\\CompatInfoDb\\Application\\Kernel\\KernelInterface</title>
<polygon fill="#fefece" stroke="transparent" points="692.5,-115 51.5,-115 51.5,-55 692.5,-55 692.5,-115"/>
<polygon fill="#eeeeee" stroke="transparent" points="52,-93 52,-115 693,-115 693,-93 52,-93"/>
<polygon fill="none" stroke="black" points="52,-93 52,-115 693,-115 693,-93 52,-93"/>
<text text-anchor="start" x="346.5" y="-106.6" font-family="Verdana" font-weight="bold" font-size="8.00">«interface»</text>
<text text-anchor="start" x="337.5" y="-98.6" font-family="Verdana" font-weight="bold" font-size="8.00">KernelInterface</text>
<polygon fill="none" stroke="black" points="52,-87 52,-93 693,-93 693,-87 52,-87"/>
<polygon fill="none" stroke="black" points="52,-55 52,-87 693,-87 693,-55 52,-55"/>
<text text-anchor="start" x="57" y="-75.6" font-family="Verdana" font-size="8.00">+ «abstract» createFromConfigs(configFiles : array) : Symfony\Component\DependencyInjection\ContainerInterface</text>
<text text-anchor="start" x="57" y="-62.6" font-family="Verdana" font-size="8.00">+ «abstract» create(configFiles : array, compilerPasses : array = [], extensions : array = []) : Symfony\Component\DependencyInjection\ContainerInterface</text>
</g>
<!-- Bartlett\\CompatInfoDb\\Application\\Kernel\\AbstractKernel&#45;&gt;Bartlett\\CompatInfoDb\\Application\\Kernel\\KernelInterface -->
<g id="edge1" class="edge">
<title>Bartlett\\CompatInfoDb\\Application\\Kernel\\AbstractKernel&#45;&gt;Bartlett\\CompatInfoDb\\Application\\Kernel\\KernelInterface</title>
<path fill="none" stroke="black" stroke-dasharray="5,2" d="M384.09,-189.58C381.27,-165.44 378.67,-143.15 376.61,-125.49"/>
<polygon fill="none" stroke="black" points="380.03,-124.64 375.4,-115.12 373.08,-125.45 380.03,-124.64"/>
</g>
<!-- Bartlett\\CompatInfoDb\\Application\\Kernel\\MicroKernelInterface -->
<g id="node4" class="node">
<title>Bartlett\\CompatInfoDb\\Application\\Kernel\\MicroKernelInterface</title>
<polygon fill="#fefece" stroke="transparent" points="1098,-154 710,-154 710,-16 1098,-16 1098,-154"/>
<polygon fill="#eeeeee" stroke="transparent" points="710,-132 710,-154 1098,-154 1098,-132 710,-132"/>
<polygon fill="none" stroke="black" points="710,-132 710,-154 1098,-154 1098,-132 710,-132"/>
<text text-anchor="start" x="878" y="-145.6" font-family="Verdana" font-weight="bold" font-size="8.00">«interface»</text>
<text text-anchor="start" x="856.5" y="-137.6" font-family="Verdana" font-weight="bold" font-size="8.00">MicroKernelInterface</text>
<polygon fill="none" stroke="black" points="710,-126 710,-132 1098,-132 1098,-126 710,-126"/>
<polygon fill="none" stroke="black" points="710,-16 710,-126 1098,-126 1098,-16 710,-16"/>
<text text-anchor="start" x="715" y="-114.6" font-family="Verdana" font-size="8.00">+ «abstract» getEnvironment() : string</text>
<text text-anchor="start" x="715" y="-101.6" font-family="Verdana" font-size="8.00">+ «abstract» isDebug() : bool</text>
<text text-anchor="start" x="715" y="-88.6" font-family="Verdana" font-size="8.00">+ «abstract» getHomeDir() : string</text>
<text text-anchor="start" x="715" y="-75.6" font-family="Verdana" font-size="8.00">+ «abstract» getProjectDir() : string</text>
<text text-anchor="start" x="715" y="-62.6" font-family="Verdana" font-size="8.00">+ «abstract» getCacheDir(default : string = «unknown») : string</text>
<text text-anchor="start" x="715" y="-49.6" font-family="Verdana" font-size="8.00">+ «abstract» getLogDir() : string</text>
<text text-anchor="start" x="715" y="-36.6" font-family="Verdana" font-size="8.00">+ «abstract» getContainer() : Symfony\Component\DependencyInjection\ContainerInterface</text>
<text text-anchor="start" x="715" y="-23.6" font-family="Verdana" font-size="8.00">+ «abstract» boot() : void</text>
</g>
<!-- Bartlett\\CompatInfoDb\\Application\\Kernel\\AbstractKernel&#45;&gt;Bartlett\\CompatInfoDb\\Application\\Kernel\\MicroKernelInterface -->
<g id="edge2" class="edge">
<title>Bartlett\\CompatInfoDb\\Application\\Kernel\\AbstractKernel&#45;&gt;Bartlett\\CompatInfoDb\\Application\\Kernel\\MicroKernelInterface</title>
<path fill="none" stroke="black" stroke-dasharray="5,2" d="M737.11,-189.8C753.9,-179.36 770.12,-169.27 785.43,-159.75"/>
<polygon fill="none" stroke="black" points="787.69,-162.46 794.33,-154.21 783.99,-156.52 787.69,-162.46"/>
</g>
</g>
</svg>
