<?xml version="1.0" encoding="UTF-8" standalone="no"?>
<!DOCTYPE svg PUBLIC "-//W3C//DTD SVG 1.1//EN"
 "http://www.w3.org/Graphics/SVG/1.1/DTD/svg11.dtd">
<!-- Generated by graphviz version 2.43.0 (0)
 -->
<!-- Title: %3 Pages: 1 -->
<svg width="1697pt" height="2649pt"
 viewBox="0.00 0.00 1696.68 2649.00" xmlns="http://www.w3.org/2000/svg" xmlns:xlink="http://www.w3.org/1999/xlink">
<g id="graph0" class="graph" transform="scale(1 1) rotate(0) translate(4 2645)">
<title>%3</title>
<polygon fill="white" stroke="transparent" points="-4,4 -4,-2645 1692.68,-2645 1692.68,4 -4,4"/>
<!-- bartlett/php&#45;compatinfo&#45;db -->
<g id="node1" class="node">
<title>bartlett/php&#45;compatinfo&#45;db</title>
<ellipse fill="lightgrey" stroke="black" stroke-width="2" cx="135.84" cy="-1622" rx="135.68" ry="18"/>
<text text-anchor="middle" x="135.84" y="-1618.3" font-family="Times,serif" font-size="14.00">bartlett/php&#45;compatinfo&#45;db</text>
</g>
<!-- php -->
<g id="node2" class="node">
<title>php</title>
<path fill="#eeeeee" stroke="black" d="M1540.68,-1803C1540.68,-1803 1510.68,-1803 1510.68,-1803 1504.68,-1803 1498.68,-1797 1498.68,-1791 1498.68,-1791 1498.68,-1779 1498.68,-1779 1498.68,-1773 1504.68,-1767 1510.68,-1767 1510.68,-1767 1540.68,-1767 1540.68,-1767 1546.68,-1767 1552.68,-1773 1552.68,-1779 1552.68,-1779 1552.68,-1791 1552.68,-1791 1552.68,-1797 1546.68,-1803 1540.68,-1803"/>
<text text-anchor="middle" x="1525.68" y="-1781.3" font-family="Times,serif" font-size="14.00" fill="#314b5f">php</text>
</g>
<!-- bartlett/php&#45;compatinfo&#45;db&#45;&gt;php -->
<g id="edge1" class="edge">
<title>bartlett/php&#45;compatinfo&#45;db&#45;&gt;php</title>
<path fill="none" stroke="#1a2833" d="M145.74,-1640.17C171.46,-1690.12 251.47,-1828.47 366.68,-1869 489.17,-1912.1 526.17,-1902.42 655.68,-1912 787.55,-1921.76 1144.73,-1984.12 1250.68,-1905 1271.62,-1889.36 1249.59,-1866.87 1268.68,-1849 1284.79,-1833.92 1421.68,-1805.28 1488.41,-1792.04"/>
<polygon fill="#1a2833" stroke="#1a2833" points="1489.35,-1795.42 1498.48,-1790.05 1488,-1788.55 1489.35,-1795.42"/>
<text text-anchor="middle" x="801.18" y="-1943" font-family="Times,serif" font-size="10.00" fill="#767676">^8.1</text>
</g>
<!-- ext&#45;json -->
<g id="node3" class="node">
<title>ext&#45;json</title>
<path fill="#eeeeee" stroke="black" d="M526.68,-252C526.68,-252 477.68,-252 477.68,-252 471.68,-252 465.68,-246 465.68,-240 465.68,-240 465.68,-228 465.68,-228 465.68,-222 471.68,-216 477.68,-216 477.68,-216 526.68,-216 526.68,-216 532.68,-216 538.68,-222 538.68,-228 538.68,-228 538.68,-240 538.68,-240 538.68,-246 532.68,-252 526.68,-252"/>
<text text-anchor="middle" x="502.18" y="-230.3" font-family="Times,serif" font-size="14.00" fill="#314b5f">ext&#45;json</text>
</g>
<!-- bartlett/php&#45;compatinfo&#45;db&#45;&gt;ext&#45;json -->
<g id="edge2" class="edge">
<title>bartlett/php&#45;compatinfo&#45;db&#45;&gt;ext&#45;json</title>
<path fill="none" stroke="#1a2833" d="M137.55,-1603.8C143.8,-1449.54 191.11,-363.99 289.68,-263 332.12,-219.51 406.96,-219.83 455.28,-225.69"/>
<polygon fill="#1a2833" stroke="#1a2833" points="455.09,-229.19 465.47,-227.05 456.02,-222.25 455.09,-229.19"/>
<text text-anchor="middle" x="319.18" y="-266" font-family="Times,serif" font-size="10.00" fill="#767676">*</text>
</g>
<!-- ext&#45;pcre -->
<g id="node4" class="node">
<title>ext&#45;pcre</title>
<path fill="#eeeeee" stroke="black" d="M527.68,-198C527.68,-198 476.68,-198 476.68,-198 470.68,-198 464.68,-192 464.68,-186 464.68,-186 464.68,-174 464.68,-174 464.68,-168 470.68,-162 476.68,-162 476.68,-162 527.68,-162 527.68,-162 533.68,-162 539.68,-168 539.68,-174 539.68,-174 539.68,-186 539.68,-186 539.68,-192 533.68,-198 527.68,-198"/>
<text text-anchor="middle" x="502.18" y="-176.3" font-family="Times,serif" font-size="14.00" fill="#314b5f">ext&#45;pcre</text>
</g>
<!-- bartlett/php&#45;compatinfo&#45;db&#45;&gt;ext&#45;pcre -->
<g id="edge3" class="edge">
<title>bartlett/php&#45;compatinfo&#45;db&#45;&gt;ext&#45;pcre</title>
<path fill="none" stroke="#1a2833" d="M137.51,-1603.7C143.49,-1446.19 189.53,-322.37 289.68,-216 331.3,-171.78 405.69,-169.29 454.23,-173.3"/>
<polygon fill="#1a2833" stroke="#1a2833" points="454.19,-176.81 464.47,-174.28 454.85,-169.85 454.19,-176.81"/>
<text text-anchor="middle" x="319.18" y="-219" font-family="Times,serif" font-size="10.00" fill="#767676">*</text>
</g>
<!-- ext&#45;pdo -->
<g id="node5" class="node">
<title>ext&#45;pdo</title>
<path fill="#eeeeee" stroke="black" d="M525.18,-144C525.18,-144 479.18,-144 479.18,-144 473.18,-144 467.18,-138 467.18,-132 467.18,-132 467.18,-120 467.18,-120 467.18,-114 473.18,-108 479.18,-108 479.18,-108 525.18,-108 525.18,-108 531.18,-108 537.18,-114 537.18,-120 537.18,-120 537.18,-132 537.18,-132 537.18,-138 531.18,-144 525.18,-144"/>
<text text-anchor="middle" x="502.18" y="-122.3" font-family="Times,serif" font-size="14.00" fill="#314b5f">ext&#45;pdo</text>
</g>
<!-- bartlett/php&#45;compatinfo&#45;db&#45;&gt;ext&#45;pdo -->
<g id="edge4" class="edge">
<title>bartlett/php&#45;compatinfo&#45;db&#45;&gt;ext&#45;pdo</title>
<path fill="none" stroke="#1a2833" d="M137.46,-1603.85C143.07,-1443.91 187.39,-278.57 289.68,-167 331.71,-121.15 408.38,-117.57 456.95,-120.69"/>
<polygon fill="#1a2833" stroke="#1a2833" points="456.93,-124.19 467.17,-121.47 457.46,-117.21 456.93,-124.19"/>
<text text-anchor="middle" x="319.18" y="-170" font-family="Times,serif" font-size="10.00" fill="#767676">*</text>
</g>
<!-- ext&#45;phar -->
<g id="node6" class="node">
<title>ext&#45;phar</title>
<path fill="#eeeeee" stroke="black" d="M528.68,-90C528.68,-90 475.68,-90 475.68,-90 469.68,-90 463.68,-84 463.68,-78 463.68,-78 463.68,-66 463.68,-66 463.68,-60 469.68,-54 475.68,-54 475.68,-54 528.68,-54 528.68,-54 534.68,-54 540.68,-60 540.68,-66 540.68,-66 540.68,-78 540.68,-78 540.68,-84 534.68,-90 528.68,-90"/>
<text text-anchor="middle" x="502.18" y="-68.3" font-family="Times,serif" font-size="14.00" fill="#314b5f">ext&#45;phar</text>
</g>
<!-- bartlett/php&#45;compatinfo&#45;db&#45;&gt;ext&#45;phar -->
<g id="edge5" class="edge">
<title>bartlett/php&#45;compatinfo&#45;db&#45;&gt;ext&#45;phar</title>
<path fill="none" stroke="#1a2833" d="M137.42,-1603.77C142.84,-1440.61 186.23,-234.67 289.68,-117 330.06,-71.07 404.69,-65.37 453.64,-67.3"/>
<polygon fill="#1a2833" stroke="#1a2833" points="453.5,-70.8 463.67,-67.82 453.86,-63.81 453.5,-70.8"/>
<text text-anchor="middle" x="319.18" y="-120" font-family="Times,serif" font-size="10.00" fill="#767676">*</text>
</g>
<!-- ext&#45;spl -->
<g id="node7" class="node">
<title>ext&#45;spl</title>
<path fill="#eeeeee" stroke="black" d="M522.68,-36C522.68,-36 481.68,-36 481.68,-36 475.68,-36 469.68,-30 469.68,-24 469.68,-24 469.68,-12 469.68,-12 469.68,-6 475.68,0 481.68,0 481.68,0 522.68,0 522.68,0 528.68,0 534.68,-6 534.68,-12 534.68,-12 534.68,-24 534.68,-24 534.68,-30 528.68,-36 522.68,-36"/>
<text text-anchor="middle" x="502.18" y="-14.3" font-family="Times,serif" font-size="14.00" fill="#314b5f">ext&#45;spl</text>
</g>
<!-- bartlett/php&#45;compatinfo&#45;db&#45;&gt;ext&#45;spl -->
<g id="edge6" class="edge">
<title>bartlett/php&#45;compatinfo&#45;db&#45;&gt;ext&#45;spl</title>
<path fill="none" stroke="#1a2833" d="M137.39,-1603.97C142.57,-1438.66 185.04,-189.92 289.68,-66 330.86,-17.22 410.27,-12 459.21,-14.04"/>
<polygon fill="#1a2833" stroke="#1a2833" points="459.28,-17.55 469.46,-14.59 459.66,-10.56 459.28,-17.55"/>
<text text-anchor="middle" x="319.18" y="-69" font-family="Times,serif" font-size="10.00" fill="#767676">*</text>
</g>
<!-- composer&#45;runtime&#45;api -->
<g id="node8" class="node">
<title>composer&#45;runtime&#45;api</title>
<path fill="#eeeeee" stroke="black" d="M1182.18,-1138C1182.18,-1138 1033.18,-1138 1033.18,-1138 1027.18,-1138 1021.18,-1132 1021.18,-1126 1021.18,-1126 1021.18,-1114 1021.18,-1114 1021.18,-1108 1027.18,-1102 1033.18,-1102 1033.18,-1102 1182.18,-1102 1182.18,-1102 1188.18,-1102 1194.18,-1108 1194.18,-1114 1194.18,-1114 1194.18,-1126 1194.18,-1126 1194.18,-1132 1188.18,-1138 1182.18,-1138"/>
<text text-anchor="middle" x="1107.68" y="-1116.3" font-family="Times,serif" font-size="14.00" fill="#314b5f">composer&#45;runtime&#45;api</text>
</g>
<!-- bartlett/php&#45;compatinfo&#45;db&#45;&gt;composer&#45;runtime&#45;api -->
<g id="edge7" class="edge">
<title>bartlett/php&#45;compatinfo&#45;db&#45;&gt;composer&#45;runtime&#45;api</title>
<path fill="none" stroke="#1a2833" d="M142.66,-1603.65C163.02,-1542.31 236.98,-1342.29 366.68,-1236 472.03,-1149.66 521.79,-1159.08 655.68,-1134 776.65,-1111.34 919,-1111.22 1010.93,-1114.51"/>
<polygon fill="#1a2833" stroke="#1a2833" points="1010.93,-1118.01 1021.05,-1114.89 1011.19,-1111.02 1010.93,-1118.01"/>
<text text-anchor="middle" x="502.18" y="-1239" font-family="Times,serif" font-size="10.00" fill="#767676">^2.0</text>
</g>
<!-- composer/semver -->
<g id="node9" class="node">
<title>composer/semver</title>
<path fill="#eeeeee" stroke="black" d="M883.18,-1863C883.18,-1863 719.18,-1863 719.18,-1863 713.18,-1863 707.18,-1857 707.18,-1851 707.18,-1851 707.18,-1839 707.18,-1839 707.18,-1833 713.18,-1827 719.18,-1827 719.18,-1827 883.18,-1827 883.18,-1827 889.18,-1827 895.18,-1833 895.18,-1839 895.18,-1839 895.18,-1851 895.18,-1851 895.18,-1857 889.18,-1863 883.18,-1863"/>
<text text-anchor="middle" x="801.18" y="-1841.3" font-family="Times,serif" font-size="14.00" fill="#314b5f">composer/semver: 3.4.2</text>
</g>
<!-- bartlett/php&#45;compatinfo&#45;db&#45;&gt;composer/semver -->
<g id="edge9" class="edge">
<title>bartlett/php&#45;compatinfo&#45;db&#45;&gt;composer/semver</title>
<path fill="none" stroke="#1a2833" d="M158.01,-1640.15C186.56,-1664.01 239.58,-1706.27 289.68,-1735 417.48,-1808.31 588.74,-1832.87 696.78,-1841.03"/>
<polygon fill="#1a2833" stroke="#1a2833" points="696.81,-1844.54 707.04,-1841.77 697.31,-1837.56 696.81,-1844.54"/>
<text text-anchor="middle" x="319.18" y="-1765" font-family="Times,serif" font-size="10.00" fill="#767676">^3.0</text>
</g>
<!-- doctrine/orm -->
<g id="node10" class="node">
<title>doctrine/orm</title>
<path fill="#eeeeee" stroke="black" d="M571.68,-693C571.68,-693 432.68,-693 432.68,-693 426.68,-693 420.68,-687 420.68,-681 420.68,-681 420.68,-669 420.68,-669 420.68,-663 426.68,-657 432.68,-657 432.68,-657 571.68,-657 571.68,-657 577.68,-657 583.68,-663 583.68,-669 583.68,-669 583.68,-681 583.68,-681 583.68,-687 577.68,-693 571.68,-693"/>
<text text-anchor="middle" x="502.18" y="-671.3" font-family="Times,serif" font-size="14.00" fill="#314b5f">doctrine/orm: 2.19.6</text>
</g>
<!-- bartlett/php&#45;compatinfo&#45;db&#45;&gt;doctrine/orm -->
<g id="edge27" class="edge">
<title>bartlett/php&#45;compatinfo&#45;db&#45;&gt;doctrine/orm</title>
<path fill="none" stroke="#1a2833" d="M139.72,-1603.68C151.69,-1530.15 200.99,-1250.2 289.68,-1036 344.78,-902.9 441.44,-759.37 482.2,-701.45"/>
<polygon fill="#1a2833" stroke="#1a2833" points="485.1,-703.41 488.02,-693.22 479.39,-699.36 485.1,-703.41"/>
<text text-anchor="middle" x="319.18" y="-1039" font-family="Times,serif" font-size="10.00" fill="#767676">^2.12</text>
</g>
<!-- doctrine/dbal -->
<g id="node14" class="node">
<title>doctrine/dbal</title>
<path fill="#eeeeee" stroke="black" d="M1173.68,-234C1173.68,-234 1041.68,-234 1041.68,-234 1035.68,-234 1029.68,-228 1029.68,-222 1029.68,-222 1029.68,-210 1029.68,-210 1029.68,-204 1035.68,-198 1041.68,-198 1041.68,-198 1173.68,-198 1173.68,-198 1179.68,-198 1185.68,-204 1185.68,-210 1185.68,-210 1185.68,-222 1185.68,-222 1185.68,-228 1179.68,-234 1173.68,-234"/>
<text text-anchor="middle" x="1107.68" y="-212.3" font-family="Times,serif" font-size="14.00" fill="#314b5f">doctrine/dbal: 3.8.6</text>
</g>
<!-- bartlett/php&#45;compatinfo&#45;db&#45;&gt;doctrine/dbal -->
<g id="edge28" class="edge">
<title>bartlett/php&#45;compatinfo&#45;db&#45;&gt;doctrine/dbal</title>
<path fill="none" stroke="#1a2833" d="M137.18,-1603.75C140.29,-1459.72 168.27,-507.33 366.68,-323 413.95,-279.08 834.23,-238.83 1019.55,-223.05"/>
<polygon fill="#1a2833" stroke="#1a2833" points="1019.87,-226.54 1029.54,-222.21 1019.28,-219.56 1019.87,-226.54"/>
<text text-anchor="middle" x="502.18" y="-326" font-family="Times,serif" font-size="10.00" fill="#767676">^3.2</text>
</g>
<!-- symfony/console -->
<g id="node23" class="node">
<title>symfony/console</title>
<path fill="#eeeeee" stroke="black" d="M1189.68,-288C1189.68,-288 1025.68,-288 1025.68,-288 1019.68,-288 1013.68,-282 1013.68,-276 1013.68,-276 1013.68,-264 1013.68,-264 1013.68,-258 1019.68,-252 1025.68,-252 1025.68,-252 1189.68,-252 1189.68,-252 1195.68,-252 1201.68,-258 1201.68,-264 1201.68,-264 1201.68,-276 1201.68,-276 1201.68,-282 1195.68,-288 1189.68,-288"/>
<text text-anchor="middle" x="1107.68" y="-266.3" font-family="Times,serif" font-size="14.00" fill="#314b5f">symfony/console: v6.4.9</text>
</g>
<!-- bartlett/php&#45;compatinfo&#45;db&#45;&gt;symfony/console -->
<g id="edge41" class="edge">
<title>bartlett/php&#45;compatinfo&#45;db&#45;&gt;symfony/console</title>
<path fill="none" stroke="#1a2833" d="M137.4,-1603.83C141.31,-1501.49 170.32,-988.93 366.68,-637 458.45,-472.51 486.74,-410.32 655.68,-327 713.94,-298.26 882.32,-307.91 946.68,-299 965.49,-296.39 985.46,-293.16 1004.69,-289.8"/>
<polygon fill="#1a2833" stroke="#1a2833" points="1005.43,-293.22 1014.66,-288.03 1004.21,-286.33 1005.43,-293.22"/>
<text text-anchor="middle" x="502.18" y="-640" font-family="Times,serif" font-size="10.00" fill="#767676">^6.4 || ^7.0</text>
</g>
<!-- symfony/cache -->
<g id="node26" class="node">
<title>symfony/cache</title>
<path fill="#eeeeee" stroke="black" d="M1183.18,-1998C1183.18,-1998 1032.18,-1998 1032.18,-1998 1026.18,-1998 1020.18,-1992 1020.18,-1986 1020.18,-1986 1020.18,-1974 1020.18,-1974 1020.18,-1968 1026.18,-1962 1032.18,-1962 1032.18,-1962 1183.18,-1962 1183.18,-1962 1189.18,-1962 1195.18,-1968 1195.18,-1974 1195.18,-1974 1195.18,-1986 1195.18,-1986 1195.18,-1992 1189.18,-1998 1183.18,-1998"/>
<text text-anchor="middle" x="1107.68" y="-1976.3" font-family="Times,serif" font-size="14.00" fill="#314b5f">symfony/cache: v6.4.8</text>
</g>
<!-- bartlett/php&#45;compatinfo&#45;db&#45;&gt;symfony/cache -->
<g id="edge35" class="edge">
<title>bartlett/php&#45;compatinfo&#45;db&#45;&gt;symfony/cache</title>
<path fill="none" stroke="#1a2833" d="M138.94,-1640.27C146.6,-1697.59 178.73,-1874.39 289.68,-1948 522.32,-2102.35 879.74,-2038.42 1032.88,-2000.5"/>
<polygon fill="#1a2833" stroke="#1a2833" points="1033.82,-2003.88 1042.67,-1998.05 1032.12,-1997.09 1033.82,-2003.88"/>
<text text-anchor="middle" x="502.18" y="-2048" font-family="Times,serif" font-size="10.00" fill="#767676">^6.4 || ^7.0</text>
</g>
<!-- psr/log -->
<g id="node27" class="node">
<title>psr/log</title>
<path fill="#eeeeee" stroke="black" d="M1569.18,-2557C1569.18,-2557 1482.18,-2557 1482.18,-2557 1476.18,-2557 1470.18,-2551 1470.18,-2545 1470.18,-2545 1470.18,-2533 1470.18,-2533 1470.18,-2527 1476.18,-2521 1482.18,-2521 1482.18,-2521 1569.18,-2521 1569.18,-2521 1575.18,-2521 1581.18,-2527 1581.18,-2533 1581.18,-2533 1581.18,-2545 1581.18,-2545 1581.18,-2551 1575.18,-2557 1569.18,-2557"/>
<text text-anchor="middle" x="1525.68" y="-2535.3" font-family="Times,serif" font-size="14.00" fill="#314b5f">psr/log: 3.0.0</text>
</g>
<!-- bartlett/php&#45;compatinfo&#45;db&#45;&gt;psr/log -->
<g id="edge71" class="edge">
<title>bartlett/php&#45;compatinfo&#45;db&#45;&gt;psr/log</title>
<path fill="none" stroke="#1a2833" stroke-dasharray="5,2" d="M138.66,-1640.33C150.58,-1756.21 221.56,-2385.84 366.68,-2496 687.79,-2739.76 865.89,-2574.81 1268.68,-2592 1302.42,-2593.44 1312.35,-2601.79 1344.68,-2592 1353.88,-2589.21 1353.89,-2583.9 1362.68,-2580 1393.41,-2566.35 1429.52,-2556.66 1459.83,-2550.14"/>
<polygon fill="#1a2833" stroke="#1a2833" points="1460.8,-2553.51 1469.88,-2548.04 1459.38,-2546.66 1460.8,-2553.51"/>
<text text-anchor="middle" x="801.18" y="-2633" font-family="Times,serif" font-size="10.00" fill="#767676">^3.0</text>
</g>
<!-- symfony/config -->
<g id="node31" class="node">
<title>symfony/config</title>
<path fill="#eeeeee" stroke="black" d="M1184.18,-1084C1184.18,-1084 1031.18,-1084 1031.18,-1084 1025.18,-1084 1019.18,-1078 1019.18,-1072 1019.18,-1072 1019.18,-1060 1019.18,-1060 1019.18,-1054 1025.18,-1048 1031.18,-1048 1031.18,-1048 1184.18,-1048 1184.18,-1048 1190.18,-1048 1196.18,-1054 1196.18,-1060 1196.18,-1060 1196.18,-1072 1196.18,-1072 1196.18,-1078 1190.18,-1084 1184.18,-1084"/>
<text text-anchor="middle" x="1107.68" y="-1062.3" font-family="Times,serif" font-size="14.00" fill="#314b5f">symfony/config: v6.4.8</text>
</g>
<!-- bartlett/php&#45;compatinfo&#45;db&#45;&gt;symfony/config -->
<g id="edge40" class="edge">
<title>bartlett/php&#45;compatinfo&#45;db&#45;&gt;symfony/config</title>
<path fill="none" stroke="#1a2833" d="M138.65,-1603.91C147.23,-1528.86 191.05,-1240.48 366.68,-1122 468.96,-1053 832.42,-1055.9 1008.98,-1061.74"/>
<polygon fill="#1a2833" stroke="#1a2833" points="1008.94,-1065.24 1019.05,-1062.08 1009.18,-1058.24 1008.94,-1065.24"/>
<text text-anchor="middle" x="502.18" y="-1125" font-family="Times,serif" font-size="10.00" fill="#767676">^6.4 || ^7.0</text>
</g>
<!-- symfony/dependency&#45;injection -->
<g id="node35" class="node">
<title>symfony/dependency&#45;injection</title>
<path fill="#eeeeee" stroke="black" d="M1238.68,-2139C1238.68,-2139 976.68,-2139 976.68,-2139 970.68,-2139 964.68,-2133 964.68,-2127 964.68,-2127 964.68,-2115 964.68,-2115 964.68,-2109 970.68,-2103 976.68,-2103 976.68,-2103 1238.68,-2103 1238.68,-2103 1244.68,-2103 1250.68,-2109 1250.68,-2115 1250.68,-2115 1250.68,-2127 1250.68,-2127 1250.68,-2133 1244.68,-2139 1238.68,-2139"/>
<text text-anchor="middle" x="1107.68" y="-2117.3" font-family="Times,serif" font-size="14.00" fill="#314b5f">symfony/dependency&#45;injection: v6.4.9</text>
</g>
<!-- bartlett/php&#45;compatinfo&#45;db&#45;&gt;symfony/dependency&#45;injection -->
<g id="edge47" class="edge">
<title>bartlett/php&#45;compatinfo&#45;db&#45;&gt;symfony/dependency&#45;injection</title>
<path fill="none" stroke="#1a2833" d="M139.07,-1640.09C149.02,-1711.78 196.71,-1975.86 366.68,-2057 467.16,-2104.97 768.83,-2117.34 954.52,-2120.32"/>
<polygon fill="#1a2833" stroke="#1a2833" points="954.6,-2123.82 964.65,-2120.47 954.71,-2116.82 954.6,-2123.82"/>
<text text-anchor="middle" x="502.18" y="-2109" font-family="Times,serif" font-size="10.00" fill="#767676">^6.4 || ^7.0</text>
</g>
<!-- symfony/event&#45;dispatcher -->
<g id="node37" class="node">
<title>symfony/event&#45;dispatcher</title>
<path fill="#eeeeee" stroke="black" d="M1222.68,-1239C1222.68,-1239 992.68,-1239 992.68,-1239 986.68,-1239 980.68,-1233 980.68,-1227 980.68,-1227 980.68,-1215 980.68,-1215 980.68,-1209 986.68,-1203 992.68,-1203 992.68,-1203 1222.68,-1203 1222.68,-1203 1228.68,-1203 1234.68,-1209 1234.68,-1215 1234.68,-1215 1234.68,-1227 1234.68,-1227 1234.68,-1233 1228.68,-1239 1222.68,-1239"/>
<text text-anchor="middle" x="1107.68" y="-1217.3" font-family="Times,serif" font-size="14.00" fill="#314b5f">symfony/event&#45;dispatcher: v6.4.8</text>
</g>
<!-- bartlett/php&#45;compatinfo&#45;db&#45;&gt;symfony/event&#45;dispatcher -->
<g id="edge50" class="edge">
<title>bartlett/php&#45;compatinfo&#45;db&#45;&gt;symfony/event&#45;dispatcher</title>
<path fill="none" stroke="#1a2833" d="M152.84,-1603.92C211.68,-1539.01 424.69,-1317.75 655.68,-1245 757.68,-1212.88 879,-1208.17 970.11,-1210.78"/>
<polygon fill="#1a2833" stroke="#1a2833" points="970.12,-1214.29 980.23,-1211.11 970.35,-1207.29 970.12,-1214.29"/>
<text text-anchor="middle" x="502.18" y="-1406" font-family="Times,serif" font-size="10.00" fill="#767676">^6.4 || ^7.0</text>
</g>
<!-- symfony/finder -->
<g id="node39" class="node">
<title>symfony/finder</title>
<path fill="#eeeeee" stroke="black" d="M1183.68,-1664C1183.68,-1664 1031.68,-1664 1031.68,-1664 1025.68,-1664 1019.68,-1658 1019.68,-1652 1019.68,-1652 1019.68,-1640 1019.68,-1640 1019.68,-1634 1025.68,-1628 1031.68,-1628 1031.68,-1628 1183.68,-1628 1183.68,-1628 1189.68,-1628 1195.68,-1634 1195.68,-1640 1195.68,-1640 1195.68,-1652 1195.68,-1652 1195.68,-1658 1189.68,-1664 1183.68,-1664"/>
<text text-anchor="middle" x="1107.68" y="-1642.3" font-family="Times,serif" font-size="14.00" fill="#314b5f">symfony/finder: v6.4.8</text>
</g>
<!-- bartlett/php&#45;compatinfo&#45;db&#45;&gt;symfony/finder -->
<g id="edge52" class="edge">
<title>bartlett/php&#45;compatinfo&#45;db&#45;&gt;symfony/finder</title>
<path fill="none" stroke="#1a2833" d="M268.78,-1625.74C373.64,-1628.66 524.04,-1632.76 655.68,-1636 777.55,-1639 917.97,-1642.05 1009.31,-1643.98"/>
<polygon fill="#1a2833" stroke="#1a2833" points="1009.3,-1647.48 1019.37,-1644.19 1009.45,-1640.48 1009.3,-1647.48"/>
<text text-anchor="middle" x="502.18" y="-1638" font-family="Times,serif" font-size="10.00" fill="#767676">^6.4 || ^7.0</text>
</g>
<!-- symfony/http&#45;client -->
<g id="node40" class="node">
<title>symfony/http&#45;client</title>
<path fill="#eeeeee" stroke="black" d="M1200.18,-2438C1200.18,-2438 1015.18,-2438 1015.18,-2438 1009.18,-2438 1003.18,-2432 1003.18,-2426 1003.18,-2426 1003.18,-2414 1003.18,-2414 1003.18,-2408 1009.18,-2402 1015.18,-2402 1015.18,-2402 1200.18,-2402 1200.18,-2402 1206.18,-2402 1212.18,-2408 1212.18,-2414 1212.18,-2414 1212.18,-2426 1212.18,-2426 1212.18,-2432 1206.18,-2438 1200.18,-2438"/>
<text text-anchor="middle" x="1107.68" y="-2416.3" font-family="Times,serif" font-size="14.00" fill="#314b5f">symfony/http&#45;client: v6.4.9</text>
</g>
<!-- bartlett/php&#45;compatinfo&#45;db&#45;&gt;symfony/http&#45;client -->
<g id="edge58" class="edge">
<title>bartlett/php&#45;compatinfo&#45;db&#45;&gt;symfony/http&#45;client</title>
<path fill="none" stroke="#1a2833" d="M137.26,-1640.08C140.3,-1722.94 165.06,-2068.21 366.68,-2208 560.52,-2342.4 838.82,-2392.25 992.99,-2410.25"/>
<polygon fill="#1a2833" stroke="#1a2833" points="992.63,-2413.73 1002.96,-2411.39 993.42,-2406.77 992.63,-2413.73"/>
<text text-anchor="middle" x="502.18" y="-2335" font-family="Times,serif" font-size="10.00" fill="#767676">^6.4 || ^7.0</text>
</g>
<!-- symfony/messenger -->
<g id="node42" class="node">
<title>symfony/messenger</title>
<path fill="#eeeeee" stroke="black" d="M1201.68,-2557C1201.68,-2557 1013.68,-2557 1013.68,-2557 1007.68,-2557 1001.68,-2551 1001.68,-2545 1001.68,-2545 1001.68,-2533 1001.68,-2533 1001.68,-2527 1007.68,-2521 1013.68,-2521 1013.68,-2521 1201.68,-2521 1201.68,-2521 1207.68,-2521 1213.68,-2527 1213.68,-2533 1213.68,-2533 1213.68,-2545 1213.68,-2545 1213.68,-2551 1207.68,-2557 1201.68,-2557"/>
<text text-anchor="middle" x="1107.68" y="-2535.3" font-family="Times,serif" font-size="14.00" fill="#314b5f">symfony/messenger: v6.4.9</text>
</g>
<!-- bartlett/php&#45;compatinfo&#45;db&#45;&gt;symfony/messenger -->
<g id="edge63" class="edge">
<title>bartlett/php&#45;compatinfo&#45;db&#45;&gt;symfony/messenger</title>
<path fill="none" stroke="#1a2833" d="M136.18,-1640.09C133.9,-1732.41 136.68,-2154.28 366.68,-2347 547.1,-2498.19 832.71,-2532.04 991.16,-2538.58"/>
<polygon fill="#1a2833" stroke="#1a2833" points="991.28,-2542.09 1001.41,-2538.97 991.55,-2535.09 991.28,-2542.09"/>
<text text-anchor="middle" x="502.18" y="-2484" font-family="Times,serif" font-size="10.00" fill="#767676">^6.4 || ^7.0</text>
</g>
<!-- symfony/process -->
<g id="node44" class="node">
<title>symfony/process</title>
<path fill="#eeeeee" stroke="black" d="M883.68,-1908C883.68,-1908 718.68,-1908 718.68,-1908 712.68,-1908 706.68,-1902 706.68,-1896 706.68,-1896 706.68,-1884 706.68,-1884 706.68,-1878 712.68,-1872 718.68,-1872 718.68,-1872 883.68,-1872 883.68,-1872 889.68,-1872 895.68,-1878 895.68,-1884 895.68,-1884 895.68,-1896 895.68,-1896 895.68,-1902 889.68,-1908 883.68,-1908"/>
<text text-anchor="middle" x="801.18" y="-1886.3" font-family="Times,serif" font-size="14.00" fill="#314b5f">symfony/process: v6.4.8</text>
</g>
<!-- bartlett/php&#45;compatinfo&#45;db&#45;&gt;symfony/process -->
<g id="edge65" class="edge">
<title>bartlett/php&#45;compatinfo&#45;db&#45;&gt;symfony/process</title>
<path fill="none" stroke="#1a2833" d="M151.41,-1640.01C176.99,-1670.84 232.72,-1734.52 289.68,-1777 409.1,-1866.07 585.23,-1887.38 696.26,-1891.2"/>
<polygon fill="#1a2833" stroke="#1a2833" points="696.37,-1894.71 706.47,-1891.51 696.58,-1887.71 696.37,-1894.71"/>
<text text-anchor="middle" x="319.18" y="-1812" font-family="Times,serif" font-size="10.00" fill="#767676">^6.4 || ^7.0</text>
</g>
<!-- symfony/requirements&#45;checker -->
<g id="node45" class="node">
<title>symfony/requirements&#45;checker</title>
<path fill="#eeeeee" stroke="black" d="M934.68,-1819C934.68,-1819 667.68,-1819 667.68,-1819 661.68,-1819 655.68,-1813 655.68,-1807 655.68,-1807 655.68,-1795 655.68,-1795 655.68,-1789 661.68,-1783 667.68,-1783 667.68,-1783 934.68,-1783 934.68,-1783 940.68,-1783 946.68,-1789 946.68,-1795 946.68,-1795 946.68,-1807 946.68,-1807 946.68,-1813 940.68,-1819 934.68,-1819"/>
<text text-anchor="middle" x="801.18" y="-1797.3" font-family="Times,serif" font-size="14.00" fill="#314b5f">symfony/requirements&#45;checker: v2.0.1</text>
</g>
<!-- bartlett/php&#45;compatinfo&#45;db&#45;&gt;symfony/requirements&#45;checker -->
<g id="edge67" class="edge">
<title>bartlett/php&#45;compatinfo&#45;db&#45;&gt;symfony/requirements&#45;checker</title>
<path fill="none" stroke="#1a2833" d="M168.16,-1639.49C211.46,-1662.93 292.68,-1704.21 366.68,-1727 457.13,-1754.86 561.62,-1773.09 645.36,-1784.48"/>
<polygon fill="#1a2833" stroke="#1a2833" points="645.09,-1787.98 655.46,-1785.84 646.02,-1781.04 645.09,-1787.98"/>
<text text-anchor="middle" x="319.18" y="-1723" font-family="Times,serif" font-size="10.00" fill="#767676">^2.0</text>
</g>
<!-- symfony/stopwatch -->
<g id="node46" class="node">
<title>symfony/stopwatch</title>
<path fill="#eeeeee" stroke="black" d="M1199.68,-2193C1199.68,-2193 1015.68,-2193 1015.68,-2193 1009.68,-2193 1003.68,-2187 1003.68,-2181 1003.68,-2181 1003.68,-2169 1003.68,-2169 1003.68,-2163 1009.68,-2157 1015.68,-2157 1015.68,-2157 1199.68,-2157 1199.68,-2157 1205.68,-2157 1211.68,-2163 1211.68,-2169 1211.68,-2169 1211.68,-2181 1211.68,-2181 1211.68,-2187 1205.68,-2193 1199.68,-2193"/>
<text text-anchor="middle" x="1107.68" y="-2171.3" font-family="Times,serif" font-size="14.00" fill="#314b5f">symfony/stopwatch: v6.4.8</text>
</g>
<!-- bartlett/php&#45;compatinfo&#45;db&#45;&gt;symfony/stopwatch -->
<g id="edge70" class="edge">
<title>bartlett/php&#45;compatinfo&#45;db&#45;&gt;symfony/stopwatch</title>
<path fill="none" stroke="#1a2833" d="M137.75,-1640.15C142.85,-1718.61 174.96,-2028.89 366.68,-2121 570.27,-2218.81 842.13,-2207.97 993.23,-2191.42"/>
<polygon fill="#1a2833" stroke="#1a2833" points="993.9,-2194.87 1003.45,-2190.28 993.12,-2187.91 993.9,-2194.87"/>
<text text-anchor="middle" x="502.18" y="-2196" font-family="Times,serif" font-size="10.00" fill="#767676">^6.4 || ^7.0</text>
</g>
<!-- symfony/framework&#45;bundle -->
<g id="node47" class="node">
<title>symfony/framework&#45;bundle</title>
<path fill="#eeeeee" stroke="black" d="M622.68,-1481C622.68,-1481 381.68,-1481 381.68,-1481 375.68,-1481 369.68,-1475 369.68,-1469 369.68,-1469 369.68,-1457 369.68,-1457 369.68,-1451 375.68,-1445 381.68,-1445 381.68,-1445 622.68,-1445 622.68,-1445 628.68,-1445 634.68,-1451 634.68,-1457 634.68,-1457 634.68,-1469 634.68,-1469 634.68,-1475 628.68,-1481 622.68,-1481"/>
<text text-anchor="middle" x="502.18" y="-1459.3" font-family="Times,serif" font-size="14.00" fill="#314b5f">symfony/framework&#45;bundle: v6.4.9</text>
</g>
<!-- bartlett/php&#45;compatinfo&#45;db&#45;&gt;symfony/framework&#45;bundle -->
<g id="edge87" class="edge">
<title>bartlett/php&#45;compatinfo&#45;db&#45;&gt;symfony/framework&#45;bundle</title>
<path fill="none" stroke="#1a2833" stroke-dasharray="5,2" d="M176.52,-1604.68C243.06,-1575.64 377.04,-1517.17 450.37,-1485.17"/>
<polygon fill="#1a2833" stroke="#1a2833" points="452.1,-1488.23 459.87,-1481.03 449.3,-1481.82 452.1,-1488.23"/>
<text text-anchor="middle" x="319.18" y="-1555" font-family="Times,serif" font-size="10.00" fill="#767676">^6.4 || ^7.0</text>
</g>
<!-- bamarni/composer&#45;bin&#45;plugin -->
<g id="node54" class="node">
<title>bamarni/composer&#45;bin&#45;plugin</title>
<path fill="#eeeeee" stroke="black" d="M625.68,-1718C625.68,-1718 378.68,-1718 378.68,-1718 372.68,-1718 366.68,-1712 366.68,-1706 366.68,-1706 366.68,-1694 366.68,-1694 366.68,-1688 372.68,-1682 378.68,-1682 378.68,-1682 625.68,-1682 625.68,-1682 631.68,-1682 637.68,-1688 637.68,-1694 637.68,-1694 637.68,-1706 637.68,-1706 637.68,-1712 631.68,-1718 625.68,-1718"/>
<text text-anchor="middle" x="502.18" y="-1696.3" font-family="Times,serif" font-size="14.00" fill="#314b5f">bamarni/composer&#45;bin&#45;plugin: 1.8.2</text>
</g>
<!-- bartlett/php&#45;compatinfo&#45;db&#45;&gt;bamarni/composer&#45;bin&#45;plugin -->
<g id="edge90" class="edge">
<title>bartlett/php&#45;compatinfo&#45;db&#45;&gt;bamarni/composer&#45;bin&#45;plugin</title>
<path fill="none" stroke="#1a2833" stroke-dasharray="5,2" d="M191.69,-1638.5C220.65,-1646.85 256.9,-1656.73 289.68,-1664 316.39,-1669.93 345.2,-1675.42 372.69,-1680.24"/>
<polygon fill="#1a2833" stroke="#1a2833" points="372.3,-1683.72 382.75,-1681.98 373.5,-1676.82 372.3,-1683.72"/>
<text text-anchor="middle" x="319.18" y="-1678" font-family="Times,serif" font-size="10.00" fill="#767676">^1.8</text>
</g>
<!-- composer/semver&#45;&gt;php -->
<g id="edge8" class="edge">
<title>composer/semver&#45;&gt;php</title>
<path fill="none" stroke="#1a2833" d="M895.61,-1841.35C986.79,-1836.65 1129.16,-1826.25 1250.68,-1804 1258.84,-1802.5 1260.48,-1800.35 1268.68,-1799 1346.01,-1786.3 1438.07,-1784.45 1488.02,-1784.53"/>
<polygon fill="#1a2833" stroke="#1a2833" points="1488.29,-1788.03 1498.31,-1784.57 1488.32,-1781.03 1488.29,-1788.03"/>
<text text-anchor="middle" x="1107.68" y="-1839" font-family="Times,serif" font-size="10.00" fill="#767676">^5.3.2 || ^7.0 || ^8.0</text>
</g>
<!-- doctrine/orm&#45;&gt;php -->
<g id="edge22" class="edge">
<title>doctrine/orm&#45;&gt;php</title>
<path fill="none" stroke="#1a2833" d="M505.94,-693.22C515.31,-747.98 551.33,-911.61 655.68,-982 875.56,-1130.33 998.81,-944.86 1250.68,-1028 1297.52,-1043.46 1319.17,-1044.78 1344.68,-1087 1371.65,-1131.64 1351.99,-1269.95 1362.68,-1321 1398.5,-1492.14 1480.77,-1686.61 1512.18,-1757.39"/>
<polygon fill="#1a2833" stroke="#1a2833" points="1509.16,-1759.22 1516.43,-1766.92 1515.55,-1756.37 1509.16,-1759.22"/>
<text text-anchor="middle" x="1107.68" y="-1031" font-family="Times,serif" font-size="10.00" fill="#767676">^7.1 || ^8.0</text>
</g>
<!-- doctrine/orm&#45;&gt;composer&#45;runtime&#45;api -->
<g id="edge10" class="edge">
<title>doctrine/orm&#45;&gt;composer&#45;runtime&#45;api</title>
<path fill="none" stroke="#1a2833" d="M505.07,-693.41C512.22,-753.01 543.26,-942.1 655.68,-1033 669.49,-1044.17 882.54,-1081.93 1010.8,-1103.86"/>
<polygon fill="#1a2833" stroke="#1a2833" points="1010.59,-1107.38 1021.03,-1105.61 1011.76,-1100.48 1010.59,-1107.38"/>
<text text-anchor="middle" x="801.18" y="-1094" font-family="Times,serif" font-size="10.00" fill="#767676">^2</text>
</g>
<!-- doctrine/cache -->
<g id="node11" class="node">
<title>doctrine/cache</title>
<path fill="#eeeeee" stroke="black" d="M1178.68,-828C1178.68,-828 1036.68,-828 1036.68,-828 1030.68,-828 1024.68,-822 1024.68,-816 1024.68,-816 1024.68,-804 1024.68,-804 1024.68,-798 1030.68,-792 1036.68,-792 1036.68,-792 1178.68,-792 1178.68,-792 1184.68,-792 1190.68,-798 1190.68,-804 1190.68,-804 1190.68,-816 1190.68,-816 1190.68,-822 1184.68,-828 1178.68,-828"/>
<text text-anchor="middle" x="1107.68" y="-806.3" font-family="Times,serif" font-size="14.00" fill="#314b5f">doctrine/cache: 2.2.0</text>
</g>
<!-- doctrine/orm&#45;&gt;doctrine/cache -->
<g id="edge11" class="edge">
<title>doctrine/orm&#45;&gt;doctrine/cache</title>
<path fill="none" stroke="#1a2833" d="M529.05,-693.14C558.31,-712.66 608.12,-742.94 655.68,-758 775.72,-796.01 921.58,-806.83 1014.28,-809.59"/>
<polygon fill="#1a2833" stroke="#1a2833" points="1014.39,-813.1 1024.48,-809.87 1014.58,-806.1 1014.39,-813.1"/>
<text text-anchor="middle" x="801.18" y="-809" font-family="Times,serif" font-size="10.00" fill="#767676">^1.12.1 || ^2.1.1</text>
</g>
<!-- doctrine/collections -->
<g id="node12" class="node">
<title>doctrine/collections</title>
<path fill="#eeeeee" stroke="black" d="M1196.18,-774C1196.18,-774 1019.18,-774 1019.18,-774 1013.18,-774 1007.18,-768 1007.18,-762 1007.18,-762 1007.18,-750 1007.18,-750 1007.18,-744 1013.18,-738 1019.18,-738 1019.18,-738 1196.18,-738 1196.18,-738 1202.18,-738 1208.18,-744 1208.18,-750 1208.18,-750 1208.18,-762 1208.18,-762 1208.18,-768 1202.18,-774 1196.18,-774"/>
<text text-anchor="middle" x="1107.68" y="-752.3" font-family="Times,serif" font-size="14.00" fill="#314b5f">doctrine/collections: 2.2.2</text>
</g>
<!-- doctrine/orm&#45;&gt;doctrine/collections -->
<g id="edge12" class="edge">
<title>doctrine/orm&#45;&gt;doctrine/collections</title>
<path fill="none" stroke="#1a2833" d="M576.14,-693.07C601.23,-698.8 629.57,-704.74 655.68,-709 771.38,-727.86 905.08,-740.68 996.69,-748.11"/>
<polygon fill="#1a2833" stroke="#1a2833" points="996.57,-751.61 1006.82,-748.92 997.13,-744.63 996.57,-751.61"/>
<text text-anchor="middle" x="801.18" y="-746" font-family="Times,serif" font-size="10.00" fill="#767676">^1.5 || ^2.1</text>
</g>
<!-- doctrine/common -->
<g id="node13" class="node">
<title>doctrine/common</title>
<path fill="#eeeeee" stroke="black" d="M1188.18,-720C1188.18,-720 1027.18,-720 1027.18,-720 1021.18,-720 1015.18,-714 1015.18,-708 1015.18,-708 1015.18,-696 1015.18,-696 1015.18,-690 1021.18,-684 1027.18,-684 1027.18,-684 1188.18,-684 1188.18,-684 1194.18,-684 1200.18,-690 1200.18,-696 1200.18,-696 1200.18,-708 1200.18,-708 1200.18,-714 1194.18,-720 1188.18,-720"/>
<text text-anchor="middle" x="1107.68" y="-698.3" font-family="Times,serif" font-size="14.00" fill="#314b5f">doctrine/common: 3.4.4</text>
</g>
<!-- doctrine/orm&#45;&gt;doctrine/common -->
<g id="edge13" class="edge">
<title>doctrine/orm&#45;&gt;doctrine/common</title>
<path fill="none" stroke="#1a2833" d="M583.94,-678.61C692.7,-683.48 886.26,-692.14 1004.87,-697.45"/>
<polygon fill="#1a2833" stroke="#1a2833" points="1004.9,-700.95 1015.05,-697.9 1005.21,-693.96 1004.9,-700.95"/>
<text text-anchor="middle" x="801.18" y="-697" font-family="Times,serif" font-size="10.00" fill="#767676">^3.0.3</text>
</g>
<!-- doctrine/orm&#45;&gt;doctrine/dbal -->
<g id="edge14" class="edge">
<title>doctrine/orm&#45;&gt;doctrine/dbal</title>
<path fill="none" stroke="#1a2833" d="M505.59,-656.61C514.1,-599.68 548.29,-425.34 655.68,-345 760.36,-266.68 847.59,-387.29 946.68,-302 967.45,-284.12 944.27,-261.31 964.68,-243 979.78,-229.45 999.5,-221.77 1019.42,-217.6"/>
<polygon fill="#1a2833" stroke="#1a2833" points="1020.3,-220.99 1029.51,-215.77 1019.05,-214.11 1020.3,-220.99"/>
<text text-anchor="middle" x="801.18" y="-348" font-family="Times,serif" font-size="10.00" fill="#767676">^2.13.1 || ^3.2</text>
</g>
<!-- doctrine/deprecations -->
<g id="node15" class="node">
<title>doctrine/deprecations</title>
<path fill="#eeeeee" stroke="black" d="M1204.68,-666C1204.68,-666 1010.68,-666 1010.68,-666 1004.68,-666 998.68,-660 998.68,-654 998.68,-654 998.68,-642 998.68,-642 998.68,-636 1004.68,-630 1010.68,-630 1010.68,-630 1204.68,-630 1204.68,-630 1210.68,-630 1216.68,-636 1216.68,-642 1216.68,-642 1216.68,-654 1216.68,-654 1216.68,-660 1210.68,-666 1204.68,-666"/>
<text text-anchor="middle" x="1107.68" y="-644.3" font-family="Times,serif" font-size="14.00" fill="#314b5f">doctrine/deprecations: 1.1.3</text>
</g>
<!-- doctrine/orm&#45;&gt;doctrine/deprecations -->
<g id="edge15" class="edge">
<title>doctrine/orm&#45;&gt;doctrine/deprecations</title>
<path fill="none" stroke="#1a2833" d="M583.9,-670.61C607.07,-669.39 632.37,-668.1 655.68,-667 768.48,-661.67 897.18,-656.32 988.15,-652.66"/>
<polygon fill="#1a2833" stroke="#1a2833" points="988.37,-656.15 998.22,-652.26 988.09,-649.16 988.37,-656.15"/>
<text text-anchor="middle" x="801.18" y="-670" font-family="Times,serif" font-size="10.00" fill="#767676">^0.5.3 || ^1</text>
</g>
<!-- doctrine/event&#45;manager -->
<g id="node16" class="node">
<title>doctrine/event&#45;manager</title>
<path fill="#eeeeee" stroke="black" d="M1212.18,-612C1212.18,-612 1003.18,-612 1003.18,-612 997.18,-612 991.18,-606 991.18,-600 991.18,-600 991.18,-588 991.18,-588 991.18,-582 997.18,-576 1003.18,-576 1003.18,-576 1212.18,-576 1212.18,-576 1218.18,-576 1224.18,-582 1224.18,-588 1224.18,-588 1224.18,-600 1224.18,-600 1224.18,-606 1218.18,-612 1212.18,-612"/>
<text text-anchor="middle" x="1107.68" y="-590.3" font-family="Times,serif" font-size="14.00" fill="#314b5f">doctrine/event&#45;manager: 2.0.1</text>
</g>
<!-- doctrine/orm&#45;&gt;doctrine/event&#45;manager -->
<g id="edge16" class="edge">
<title>doctrine/orm&#45;&gt;doctrine/event&#45;manager</title>
<path fill="none" stroke="#1a2833" d="M571.11,-656.93C597.37,-650.48 627.77,-643.66 655.68,-639 764.71,-620.77 889.89,-609 980.66,-602.09"/>
<polygon fill="#1a2833" stroke="#1a2833" points="981.01,-605.57 990.72,-601.33 980.49,-598.59 981.01,-605.57"/>
<text text-anchor="middle" x="801.18" y="-642" font-family="Times,serif" font-size="10.00" fill="#767676">^1.2 || ^2</text>
</g>
<!-- doctrine/inflector -->
<g id="node17" class="node">
<title>doctrine/inflector</title>
<path fill="#eeeeee" stroke="black" d="M1192.68,-558C1192.68,-558 1022.68,-558 1022.68,-558 1016.68,-558 1010.68,-552 1010.68,-546 1010.68,-546 1010.68,-534 1010.68,-534 1010.68,-528 1016.68,-522 1022.68,-522 1022.68,-522 1192.68,-522 1192.68,-522 1198.68,-522 1204.68,-528 1204.68,-534 1204.68,-534 1204.68,-546 1204.68,-546 1204.68,-552 1198.68,-558 1192.68,-558"/>
<text text-anchor="middle" x="1107.68" y="-536.3" font-family="Times,serif" font-size="14.00" fill="#314b5f">doctrine/inflector: 2.0.10</text>
</g>
<!-- doctrine/orm&#45;&gt;doctrine/inflector -->
<g id="edge17" class="edge">
<title>doctrine/orm&#45;&gt;doctrine/inflector</title>
<path fill="none" stroke="#1a2833" d="M527.87,-656.86C556.88,-636.58 607.2,-604.57 655.68,-589 769.69,-552.37 907.37,-541.97 1000.38,-539.56"/>
<polygon fill="#1a2833" stroke="#1a2833" points="1000.73,-543.05 1010.65,-539.32 1000.57,-536.05 1000.73,-543.05"/>
<text text-anchor="middle" x="801.18" y="-592" font-family="Times,serif" font-size="10.00" fill="#767676">^1.4 || ^2.0</text>
</g>
<!-- doctrine/instantiator -->
<g id="node18" class="node">
<title>doctrine/instantiator</title>
<path fill="#eeeeee" stroke="black" d="M1200.18,-504C1200.18,-504 1015.18,-504 1015.18,-504 1009.18,-504 1003.18,-498 1003.18,-492 1003.18,-492 1003.18,-480 1003.18,-480 1003.18,-474 1009.18,-468 1015.18,-468 1015.18,-468 1200.18,-468 1200.18,-468 1206.18,-468 1212.18,-474 1212.18,-480 1212.18,-480 1212.18,-492 1212.18,-492 1212.18,-498 1206.18,-504 1200.18,-504"/>
<text text-anchor="middle" x="1107.68" y="-482.3" font-family="Times,serif" font-size="14.00" fill="#314b5f">doctrine/instantiator: 2.0.0</text>
</g>
<!-- doctrine/orm&#45;&gt;doctrine/instantiator -->
<g id="edge18" class="edge">
<title>doctrine/orm&#45;&gt;doctrine/instantiator</title>
<path fill="none" stroke="#1a2833" d="M515.26,-656.77C538.17,-623.94 591.45,-555.54 655.68,-526 685.57,-512.25 869.25,-499.38 992.79,-492.11"/>
<polygon fill="#1a2833" stroke="#1a2833" points="993.28,-495.59 1003.06,-491.52 992.87,-488.6 993.28,-495.59"/>
<text text-anchor="middle" x="801.18" y="-529" font-family="Times,serif" font-size="10.00" fill="#767676">^1.3 || ^2</text>
</g>
<!-- doctrine/lexer -->
<g id="node19" class="node">
<title>doctrine/lexer</title>
<path fill="#eeeeee" stroke="black" d="M1176.18,-450C1176.18,-450 1039.18,-450 1039.18,-450 1033.18,-450 1027.18,-444 1027.18,-438 1027.18,-438 1027.18,-426 1027.18,-426 1027.18,-420 1033.18,-414 1039.18,-414 1039.18,-414 1176.18,-414 1176.18,-414 1182.18,-414 1188.18,-420 1188.18,-426 1188.18,-426 1188.18,-438 1188.18,-438 1188.18,-444 1182.18,-450 1176.18,-450"/>
<text text-anchor="middle" x="1107.68" y="-428.3" font-family="Times,serif" font-size="14.00" fill="#314b5f">doctrine/lexer: 3.0.1</text>
</g>
<!-- doctrine/orm&#45;&gt;doctrine/lexer -->
<g id="edge19" class="edge">
<title>doctrine/orm&#45;&gt;doctrine/lexer</title>
<path fill="none" stroke="#1a2833" d="M511.01,-656.98C529.49,-616.99 580.01,-521.2 655.68,-481 712.93,-450.58 882.33,-467.93 946.68,-460 969.59,-457.18 994.22,-453.29 1017.12,-449.32"/>
<polygon fill="#1a2833" stroke="#1a2833" points="1017.91,-452.73 1027.16,-447.55 1016.7,-445.84 1017.91,-452.73"/>
<text text-anchor="middle" x="801.18" y="-484" font-family="Times,serif" font-size="10.00" fill="#767676">^2 || ^3</text>
</g>
<!-- doctrine/persistence -->
<g id="node20" class="node">
<title>doctrine/persistence</title>
<path fill="#eeeeee" stroke="black" d="M1199.68,-396C1199.68,-396 1015.68,-396 1015.68,-396 1009.68,-396 1003.68,-390 1003.68,-384 1003.68,-384 1003.68,-372 1003.68,-372 1003.68,-366 1009.68,-360 1015.68,-360 1015.68,-360 1199.68,-360 1199.68,-360 1205.68,-360 1211.68,-366 1211.68,-372 1211.68,-372 1211.68,-384 1211.68,-384 1211.68,-390 1205.68,-396 1199.68,-396"/>
<text text-anchor="middle" x="1107.68" y="-374.3" font-family="Times,serif" font-size="14.00" fill="#314b5f">doctrine/persistence: 3.3.3</text>
</g>
<!-- doctrine/orm&#45;&gt;doctrine/persistence -->
<g id="edge20" class="edge">
<title>doctrine/orm&#45;&gt;doctrine/persistence</title>
<path fill="none" stroke="#1a2833" d="M508.99,-656.97C524.49,-612.19 571.49,-495.95 655.68,-447 711.73,-414.41 888.79,-455.2 946.68,-426 957.65,-420.46 954.04,-411.16 964.68,-405 973.73,-399.76 983.59,-395.51 993.77,-392.06"/>
<polygon fill="#1a2833" stroke="#1a2833" points="995.1,-395.31 1003.61,-389 993.02,-388.63 995.1,-395.31"/>
<text text-anchor="middle" x="801.18" y="-450" font-family="Times,serif" font-size="10.00" fill="#767676">^2.4 || ^3</text>
</g>
<!-- ext&#45;ctype -->
<g id="node21" class="node">
<title>ext&#45;ctype</title>
<path fill="#eeeeee" stroke="black" d="M1137.18,-342C1137.18,-342 1078.18,-342 1078.18,-342 1072.18,-342 1066.18,-336 1066.18,-330 1066.18,-330 1066.18,-318 1066.18,-318 1066.18,-312 1072.18,-306 1078.18,-306 1078.18,-306 1137.18,-306 1137.18,-306 1143.18,-306 1149.18,-312 1149.18,-318 1149.18,-318 1149.18,-330 1149.18,-330 1149.18,-336 1143.18,-342 1137.18,-342"/>
<text text-anchor="middle" x="1107.68" y="-320.3" font-family="Times,serif" font-size="14.00" fill="#314b5f">ext&#45;ctype</text>
</g>
<!-- doctrine/orm&#45;&gt;ext&#45;ctype -->
<g id="edge21" class="edge">
<title>doctrine/orm&#45;&gt;ext&#45;ctype</title>
<path fill="none" stroke="#1a2833" d="M507.45,-656.93C520.17,-607.69 562.8,-470.95 655.68,-413 710.68,-378.68 893.7,-429.38 946.68,-392 962.94,-380.52 949.11,-363.4 964.68,-351 990.23,-330.65 1026.5,-324.02 1055.99,-322.41"/>
<polygon fill="#1a2833" stroke="#1a2833" points="1056.25,-325.9 1066.11,-322.04 1055.99,-318.91 1056.25,-325.9"/>
<text text-anchor="middle" x="801.18" y="-416" font-family="Times,serif" font-size="10.00" fill="#767676">*</text>
</g>
<!-- psr/cache -->
<g id="node22" class="node">
<title>psr/cache</title>
<path fill="#eeeeee" stroke="black" d="M1578.68,-1312C1578.68,-1312 1472.68,-1312 1472.68,-1312 1466.68,-1312 1460.68,-1306 1460.68,-1300 1460.68,-1300 1460.68,-1288 1460.68,-1288 1460.68,-1282 1466.68,-1276 1472.68,-1276 1472.68,-1276 1578.68,-1276 1578.68,-1276 1584.68,-1276 1590.68,-1282 1590.68,-1288 1590.68,-1288 1590.68,-1300 1590.68,-1300 1590.68,-1306 1584.68,-1312 1578.68,-1312"/>
<text text-anchor="middle" x="1525.68" y="-1290.3" font-family="Times,serif" font-size="14.00" fill="#314b5f">psr/cache: 3.0.0</text>
</g>
<!-- doctrine/orm&#45;&gt;psr/cache -->
<g id="edge23" class="edge">
<title>doctrine/orm&#45;&gt;psr/cache</title>
<path fill="none" stroke="#1a2833" d="M506.73,-693.24C517.9,-745.03 557.55,-893.2 655.68,-955 785.57,-1036.81 1243.15,-889.86 1344.68,-1005 1380.49,-1045.61 1328.46,-1206.03 1362.68,-1248 1383.85,-1273.97 1418.53,-1285.9 1450.38,-1291.17"/>
<polygon fill="#1a2833" stroke="#1a2833" points="1450.2,-1294.68 1460.6,-1292.65 1451.21,-1287.75 1450.2,-1294.68"/>
<text text-anchor="middle" x="1107.68" y="-973" font-family="Times,serif" font-size="10.00" fill="#767676">^1 || ^2 || ^3</text>
</g>
<!-- doctrine/orm&#45;&gt;symfony/console -->
<g id="edge24" class="edge">
<title>doctrine/orm&#45;&gt;symfony/console</title>
<path fill="none" stroke="#1a2833" d="M506.29,-656.63C516.47,-602.97 554.13,-446.05 655.68,-379 709.78,-343.28 896.18,-398.66 946.68,-358 968.69,-340.27 943.72,-315.97 964.68,-297 975.71,-287.01 989.25,-280.2 1003.55,-275.63"/>
<polygon fill="#1a2833" stroke="#1a2833" points="1004.87,-278.9 1013.55,-272.82 1002.97,-272.16 1004.87,-278.9"/>
<text text-anchor="middle" x="801.18" y="-382" font-family="Times,serif" font-size="10.00" fill="#767676">^4.2 || ^5.0 || ^6.0 || ^7.0</text>
</g>
<!-- symfony/polyfill&#45;php72 -->
<g id="node24" class="node">
<title>symfony/polyfill&#45;php72</title>
<path fill="#eeeeee" stroke="black" d="M1216.18,-936C1216.18,-936 999.18,-936 999.18,-936 993.18,-936 987.18,-930 987.18,-924 987.18,-924 987.18,-912 987.18,-912 987.18,-906 993.18,-900 999.18,-900 999.18,-900 1216.18,-900 1216.18,-900 1222.18,-900 1228.18,-906 1228.18,-912 1228.18,-912 1228.18,-924 1228.18,-924 1228.18,-930 1222.18,-936 1216.18,-936"/>
<text text-anchor="middle" x="1107.68" y="-914.3" font-family="Times,serif" font-size="14.00" fill="#314b5f">symfony/polyfill&#45;php72: v1.30.0</text>
</g>
<!-- doctrine/orm&#45;&gt;symfony/polyfill&#45;php72 -->
<g id="edge25" class="edge">
<title>doctrine/orm&#45;&gt;symfony/polyfill&#45;php72</title>
<path fill="none" stroke="#1a2833" d="M509.83,-693.15C526.62,-736 575.21,-843.21 655.68,-888 755.84,-943.75 888.54,-945.65 984.03,-936.99"/>
<polygon fill="#1a2833" stroke="#1a2833" points="984.41,-940.47 994.03,-936.04 983.74,-933.51 984.41,-940.47"/>
<text text-anchor="middle" x="801.18" y="-943" font-family="Times,serif" font-size="10.00" fill="#767676">^1.23</text>
</g>
<!-- symfony/polyfill&#45;php80 -->
<g id="node25" class="node">
<title>symfony/polyfill&#45;php80</title>
<path fill="#eeeeee" stroke="black" d="M1216.18,-882C1216.18,-882 999.18,-882 999.18,-882 993.18,-882 987.18,-876 987.18,-870 987.18,-870 987.18,-858 987.18,-858 987.18,-852 993.18,-846 999.18,-846 999.18,-846 1216.18,-846 1216.18,-846 1222.18,-846 1228.18,-852 1228.18,-858 1228.18,-858 1228.18,-870 1228.18,-870 1228.18,-876 1222.18,-882 1216.18,-882"/>
<text text-anchor="middle" x="1107.68" y="-860.3" font-family="Times,serif" font-size="14.00" fill="#314b5f">symfony/polyfill&#45;php80: v1.30.0</text>
</g>
<!-- doctrine/orm&#45;&gt;symfony/polyfill&#45;php80 -->
<g id="edge26" class="edge">
<title>doctrine/orm&#45;&gt;symfony/polyfill&#45;php80</title>
<path fill="none" stroke="#1a2833" d="M515.55,-693.07C538.74,-725.28 592.19,-791.93 655.68,-821 756.59,-867.2 883.28,-875.53 976.67,-873.71"/>
<polygon fill="#1a2833" stroke="#1a2833" points="976.83,-877.21 986.75,-873.47 976.67,-870.21 976.83,-877.21"/>
<text text-anchor="middle" x="801.18" y="-876" font-family="Times,serif" font-size="10.00" fill="#767676">^1.16</text>
</g>
<!-- symfony/cache&#45;&gt;php -->
<g id="edge29" class="edge">
<title>symfony/cache&#45;&gt;php</title>
<path fill="none" stroke="#1a2833" d="M1195.23,-1976.21C1215.68,-1971.39 1235.83,-1962.81 1250.68,-1948 1276.17,-1922.57 1244.12,-1895.34 1268.68,-1869 1292.74,-1843.19 1311.07,-1856.78 1344.68,-1846 1394.94,-1829.88 1452.66,-1810.09 1488.9,-1797.51"/>
<polygon fill="#1a2833" stroke="#1a2833" points="1490.24,-1800.75 1498.53,-1794.16 1487.94,-1794.14 1490.24,-1800.75"/>
<text text-anchor="middle" x="1306.68" y="-1872" font-family="Times,serif" font-size="10.00" fill="#767676">&gt;=8.1</text>
</g>
<!-- symfony/cache&#45;&gt;psr/cache -->
<g id="edge30" class="edge">
<title>symfony/cache&#45;&gt;psr/cache</title>
<path fill="none" stroke="#1a2833" d="M1180.04,-1961.87C1206.79,-1951.3 1234.58,-1934.94 1250.68,-1910 1283.11,-1859.75 1232.28,-1419.46 1268.68,-1372 1310.91,-1316.93 1391,-1299.57 1450.4,-1294.66"/>
<polygon fill="#1a2833" stroke="#1a2833" points="1450.77,-1298.15 1460.49,-1293.93 1450.27,-1291.16 1450.77,-1298.15"/>
<text text-anchor="middle" x="1306.68" y="-1375" font-family="Times,serif" font-size="10.00" fill="#767676">^2.0|^3.0</text>
</g>
<!-- symfony/cache&#45;&gt;psr/log -->
<g id="edge31" class="edge">
<title>symfony/cache&#45;&gt;psr/log</title>
<path fill="none" stroke="#1a2833" d="M1195.24,-1994.6C1216.45,-2002.3 1236.98,-2014.05 1250.68,-2032 1279.5,-2069.76 1238.34,-2208.45 1268.68,-2245 1291.06,-2271.97 1322.39,-2238.96 1344.68,-2266 1377.56,-2305.9 1329.36,-2458.46 1362.68,-2498 1386.14,-2525.85 1425.54,-2536.24 1459.61,-2539.61"/>
<polygon fill="#1a2833" stroke="#1a2833" points="1459.74,-2543.13 1469.98,-2540.44 1460.29,-2536.15 1459.74,-2543.13"/>
<text text-anchor="middle" x="1306.68" y="-2269" font-family="Times,serif" font-size="10.00" fill="#767676">^1.1|^2|^3</text>
</g>
<!-- symfony/cache&#45;contracts -->
<g id="node28" class="node">
<title>symfony/cache&#45;contracts</title>
<path fill="#eeeeee" stroke="black" d="M1636.68,-1954C1636.68,-1954 1414.68,-1954 1414.68,-1954 1408.68,-1954 1402.68,-1948 1402.68,-1942 1402.68,-1942 1402.68,-1930 1402.68,-1930 1402.68,-1924 1408.68,-1918 1414.68,-1918 1414.68,-1918 1636.68,-1918 1636.68,-1918 1642.68,-1918 1648.68,-1924 1648.68,-1930 1648.68,-1930 1648.68,-1942 1648.68,-1942 1648.68,-1948 1642.68,-1954 1636.68,-1954"/>
<text text-anchor="middle" x="1525.68" y="-1932.3" font-family="Times,serif" font-size="14.00" fill="#314b5f">symfony/cache&#45;contracts: v3.5.0</text>
</g>
<!-- symfony/cache&#45;&gt;symfony/cache&#45;contracts -->
<g id="edge32" class="edge">
<title>symfony/cache&#45;&gt;symfony/cache&#45;contracts</title>
<path fill="none" stroke="#1a2833" d="M1195.29,-1965.22C1213.91,-1960.74 1233.23,-1955.07 1250.68,-1948 1259.36,-1944.48 1259.66,-1939.56 1268.68,-1937 1308,-1925.85 1352.1,-1922.59 1392.48,-1922.97"/>
<polygon fill="#1a2833" stroke="#1a2833" points="1392.6,-1926.48 1402.66,-1923.15 1392.72,-1919.48 1392.6,-1926.48"/>
<text text-anchor="middle" x="1306.68" y="-1940" font-family="Times,serif" font-size="10.00" fill="#767676">^2.5|^3</text>
</g>
<!-- symfony/service&#45;contracts -->
<g id="node29" class="node">
<title>symfony/service&#45;contracts</title>
<path fill="#eeeeee" stroke="black" d="M1642.18,-2353C1642.18,-2353 1409.18,-2353 1409.18,-2353 1403.18,-2353 1397.18,-2347 1397.18,-2341 1397.18,-2341 1397.18,-2329 1397.18,-2329 1397.18,-2323 1403.18,-2317 1409.18,-2317 1409.18,-2317 1642.18,-2317 1642.18,-2317 1648.18,-2317 1654.18,-2323 1654.18,-2329 1654.18,-2329 1654.18,-2341 1654.18,-2341 1654.18,-2347 1648.18,-2353 1642.18,-2353"/>
<text text-anchor="middle" x="1525.68" y="-2331.3" font-family="Times,serif" font-size="14.00" fill="#314b5f">symfony/service&#45;contracts: v3.5.0</text>
</g>
<!-- symfony/cache&#45;&gt;symfony/service&#45;contracts -->
<g id="edge33" class="edge">
<title>symfony/cache&#45;&gt;symfony/service&#45;contracts</title>
<path fill="none" stroke="#1a2833" d="M1179.66,-1998.09C1203.51,-2006.16 1229.43,-2017.26 1250.68,-2032 1260.78,-2039.01 1259.18,-2045.19 1268.68,-2053 1298.64,-2077.66 1323.32,-2063.59 1344.68,-2096 1385.02,-2157.23 1319.88,-2200.46 1362.68,-2260 1380.72,-2285.1 1409.29,-2302.02 1437.44,-2313.33"/>
<polygon fill="#1a2833" stroke="#1a2833" points="1436.37,-2316.67 1446.96,-2316.96 1438.86,-2310.13 1436.37,-2316.67"/>
<text text-anchor="middle" x="1306.68" y="-2099" font-family="Times,serif" font-size="10.00" fill="#767676">^2.5|^3</text>
</g>
<!-- symfony/var&#45;exporter -->
<g id="node30" class="node">
<title>symfony/var&#45;exporter</title>
<path fill="#eeeeee" stroke="black" d="M1625.68,-2069C1625.68,-2069 1425.68,-2069 1425.68,-2069 1419.68,-2069 1413.68,-2063 1413.68,-2057 1413.68,-2057 1413.68,-2045 1413.68,-2045 1413.68,-2039 1419.68,-2033 1425.68,-2033 1425.68,-2033 1625.68,-2033 1625.68,-2033 1631.68,-2033 1637.68,-2039 1637.68,-2045 1637.68,-2045 1637.68,-2057 1637.68,-2057 1637.68,-2063 1631.68,-2069 1625.68,-2069"/>
<text text-anchor="middle" x="1525.68" y="-2047.3" font-family="Times,serif" font-size="14.00" fill="#314b5f">symfony/var&#45;exporter: v6.4.9</text>
</g>
<!-- symfony/cache&#45;&gt;symfony/var&#45;exporter -->
<g id="edge34" class="edge">
<title>symfony/cache&#45;&gt;symfony/var&#45;exporter</title>
<path fill="none" stroke="#1a2833" d="M1195.3,-1966.59C1240.31,-1962.16 1295.94,-1960.66 1344.68,-1971 1395.81,-1981.85 1450.04,-2008.26 1485.45,-2027.78"/>
<polygon fill="#1a2833" stroke="#1a2833" points="1484.04,-2031.01 1494.48,-2032.84 1487.46,-2024.9 1484.04,-2031.01"/>
<text text-anchor="middle" x="1306.68" y="-1974" font-family="Times,serif" font-size="10.00" fill="#767676">^6.3.6|^7.0</text>
</g>
<!-- symfony/config&#45;&gt;php -->
<g id="edge36" class="edge">
<title>symfony/config&#45;&gt;php</title>
<path fill="none" stroke="#1a2833" d="M1196.19,-1072.92C1215.05,-1077.01 1234.24,-1083.32 1250.68,-1093 1252.43,-1094.04 1343.83,-1204.14 1344.68,-1206 1365.99,-1253.14 1350.1,-1270.82 1362.68,-1321 1405.19,-1490.6 1483.44,-1685.99 1512.98,-1757.21"/>
<polygon fill="#1a2833" stroke="#1a2833" points="1509.9,-1758.91 1516.97,-1766.8 1516.36,-1756.22 1509.9,-1758.91"/>
<text text-anchor="middle" x="1306.68" y="-1209" font-family="Times,serif" font-size="10.00" fill="#767676">&gt;=8.1</text>
</g>
<!-- symfony/deprecation&#45;contracts -->
<g id="node32" class="node">
<title>symfony/deprecation&#45;contracts</title>
<path fill="#eeeeee" stroke="black" d="M1658.68,-2183C1658.68,-2183 1392.68,-2183 1392.68,-2183 1386.68,-2183 1380.68,-2177 1380.68,-2171 1380.68,-2171 1380.68,-2159 1380.68,-2159 1380.68,-2153 1386.68,-2147 1392.68,-2147 1392.68,-2147 1658.68,-2147 1658.68,-2147 1664.68,-2147 1670.68,-2153 1670.68,-2159 1670.68,-2159 1670.68,-2171 1670.68,-2171 1670.68,-2177 1664.68,-2183 1658.68,-2183"/>
<text text-anchor="middle" x="1525.68" y="-2161.3" font-family="Times,serif" font-size="14.00" fill="#314b5f">symfony/deprecation&#45;contracts: v3.5.0</text>
</g>
<!-- symfony/config&#45;&gt;symfony/deprecation&#45;contracts -->
<g id="edge37" class="edge">
<title>symfony/config&#45;&gt;symfony/deprecation&#45;contracts</title>
<path fill="none" stroke="#1a2833" d="M1196.39,-1064.41C1217.08,-1068.48 1237.05,-1076.92 1250.68,-1093 1278.95,-1126.37 1243.46,-1844.27 1268.68,-1880 1289.52,-1909.54 1322.62,-1880.35 1344.68,-1909 1390.76,-1968.85 1320.52,-2015.32 1362.68,-2078 1383.43,-2108.86 1418.84,-2129.65 1451.28,-2143.15"/>
<polygon fill="#1a2833" stroke="#1a2833" points="1450.19,-2146.48 1460.78,-2146.93 1452.78,-2139.98 1450.19,-2146.48"/>
<text text-anchor="middle" x="1306.68" y="-1912" font-family="Times,serif" font-size="10.00" fill="#767676">^2.5|^3</text>
</g>
<!-- symfony/filesystem -->
<g id="node33" class="node">
<title>symfony/filesystem</title>
<path fill="#eeeeee" stroke="black" d="M1617.18,-1147C1617.18,-1147 1434.18,-1147 1434.18,-1147 1428.18,-1147 1422.18,-1141 1422.18,-1135 1422.18,-1135 1422.18,-1123 1422.18,-1123 1422.18,-1117 1428.18,-1111 1434.18,-1111 1434.18,-1111 1617.18,-1111 1617.18,-1111 1623.18,-1111 1629.18,-1117 1629.18,-1123 1629.18,-1123 1629.18,-1135 1629.18,-1135 1629.18,-1141 1623.18,-1147 1617.18,-1147"/>
<text text-anchor="middle" x="1525.68" y="-1125.3" font-family="Times,serif" font-size="14.00" fill="#314b5f">symfony/filesystem: v6.4.9</text>
</g>
<!-- symfony/config&#45;&gt;symfony/filesystem -->
<g id="edge38" class="edge">
<title>symfony/config&#45;&gt;symfony/filesystem</title>
<path fill="none" stroke="#1a2833" d="M1196.39,-1079.28C1259.08,-1088.78 1343.99,-1101.64 1411.75,-1111.9"/>
<polygon fill="#1a2833" stroke="#1a2833" points="1411.63,-1115.42 1422.04,-1113.46 1412.68,-1108.5 1411.63,-1115.42"/>
<text text-anchor="middle" x="1306.68" y="-1104" font-family="Times,serif" font-size="10.00" fill="#767676">^5.4|^6.0|^7.0</text>
</g>
<!-- symfony/polyfill&#45;ctype -->
<g id="node34" class="node">
<title>symfony/polyfill&#45;ctype</title>
<path fill="#eeeeee" stroke="black" d="M1631.18,-964C1631.18,-964 1420.18,-964 1420.18,-964 1414.18,-964 1408.18,-958 1408.18,-952 1408.18,-952 1408.18,-940 1408.18,-940 1408.18,-934 1414.18,-928 1420.18,-928 1420.18,-928 1631.18,-928 1631.18,-928 1637.18,-928 1643.18,-934 1643.18,-940 1643.18,-940 1643.18,-952 1643.18,-952 1643.18,-958 1637.18,-964 1631.18,-964"/>
<text text-anchor="middle" x="1525.68" y="-942.3" font-family="Times,serif" font-size="14.00" fill="#314b5f">symfony/polyfill&#45;ctype: v1.30.0</text>
</g>
<!-- symfony/config&#45;&gt;symfony/polyfill&#45;ctype -->
<g id="edge39" class="edge">
<title>symfony/config&#45;&gt;symfony/polyfill&#45;ctype</title>
<path fill="none" stroke="#1a2833" d="M1194.58,-1047.94C1213.16,-1043.67 1232.63,-1038.92 1250.68,-1034 1324.68,-1013.82 1408.47,-986.19 1463.69,-967.31"/>
<polygon fill="#1a2833" stroke="#1a2833" points="1465,-970.56 1473.32,-964.01 1462.73,-963.94 1465,-970.56"/>
<text text-anchor="middle" x="1306.68" y="-1030" font-family="Times,serif" font-size="10.00" fill="#767676">~1.8</text>
</g>
<!-- symfony/dependency&#45;injection&#45;&gt;php -->
<g id="edge42" class="edge">
<title>symfony/dependency&#45;injection&#45;&gt;php</title>
<path fill="none" stroke="#1a2833" d="M1197.51,-2102.91C1217.19,-2095.27 1236.41,-2084.41 1250.68,-2069 1270.75,-2047.32 1247.99,-2026.1 1268.68,-2005 1293.38,-1979.8 1320.38,-2007.6 1344.68,-1982 1367.68,-1957.76 1344.37,-1936.96 1362.68,-1909 1394.6,-1860.24 1452.42,-1822.93 1489.65,-1802.5"/>
<polygon fill="#1a2833" stroke="#1a2833" points="1491.49,-1805.48 1498.64,-1797.67 1488.18,-1799.31 1491.49,-1805.48"/>
<text text-anchor="middle" x="1306.68" y="-2008" font-family="Times,serif" font-size="10.00" fill="#767676">&gt;=8.1</text>
</g>
<!-- symfony/dependency&#45;injection&#45;&gt;symfony/service&#45;contracts -->
<g id="edge45" class="edge">
<title>symfony/dependency&#45;injection&#45;&gt;symfony/service&#45;contracts</title>
<path fill="none" stroke="#1a2833" d="M1240.6,-2139.13C1244.19,-2141.78 1247.56,-2144.73 1250.68,-2148 1291.15,-2190.61 1228.79,-2235.84 1268.68,-2279 1274.14,-2284.91 1351.82,-2301.4 1420.19,-2314.97"/>
<polygon fill="#1a2833" stroke="#1a2833" points="1419.71,-2318.44 1430.2,-2316.95 1421.06,-2311.58 1419.71,-2318.44"/>
<text text-anchor="middle" x="1306.68" y="-2301" font-family="Times,serif" font-size="10.00" fill="#767676">^2.5|^3.0</text>
</g>
<!-- symfony/dependency&#45;injection&#45;&gt;symfony/var&#45;exporter -->
<g id="edge46" class="edge">
<title>symfony/dependency&#45;injection&#45;&gt;symfony/var&#45;exporter</title>
<path fill="none" stroke="#1a2833" d="M1250.7,-2119.79C1281.84,-2117.85 1314.51,-2114.53 1344.68,-2109 1387.77,-2101.1 1434.85,-2085.68 1470.05,-2072.72"/>
<polygon fill="#1a2833" stroke="#1a2833" points="1471.51,-2075.91 1479.65,-2069.14 1469.06,-2069.35 1471.51,-2075.91"/>
<text text-anchor="middle" x="1306.68" y="-2121" font-family="Times,serif" font-size="10.00" fill="#767676">^6.2.10|^7.0</text>
</g>
<!-- symfony/dependency&#45;injection&#45;&gt;symfony/deprecation&#45;contracts -->
<g id="edge44" class="edge">
<title>symfony/dependency&#45;injection&#45;&gt;symfony/deprecation&#45;contracts</title>
<path fill="none" stroke="#1a2833" d="M1235.24,-2139.01C1246.54,-2140.43 1257.81,-2141.79 1268.68,-2143 1301.42,-2146.66 1336.58,-2150.03 1370.03,-2152.99"/>
<polygon fill="#1a2833" stroke="#1a2833" points="1370.09,-2156.51 1380.36,-2153.89 1370.7,-2149.53 1370.09,-2156.51"/>
<text text-anchor="middle" x="1306.68" y="-2153" font-family="Times,serif" font-size="10.00" fill="#767676">^2.5|^3</text>
</g>
<!-- psr/container -->
<g id="node36" class="node">
<title>psr/container</title>
<path fill="#eeeeee" stroke="black" d="M1592.18,-2251C1592.18,-2251 1459.18,-2251 1459.18,-2251 1453.18,-2251 1447.18,-2245 1447.18,-2239 1447.18,-2239 1447.18,-2227 1447.18,-2227 1447.18,-2221 1453.18,-2215 1459.18,-2215 1459.18,-2215 1592.18,-2215 1592.18,-2215 1598.18,-2215 1604.18,-2221 1604.18,-2227 1604.18,-2227 1604.18,-2239 1604.18,-2239 1604.18,-2245 1598.18,-2251 1592.18,-2251"/>
<text text-anchor="middle" x="1525.68" y="-2229.3" font-family="Times,serif" font-size="14.00" fill="#314b5f">psr/container: 2.0.2</text>
</g>
<!-- symfony/dependency&#45;injection&#45;&gt;psr/container -->
<g id="edge43" class="edge">
<title>symfony/dependency&#45;injection&#45;&gt;psr/container</title>
<path fill="none" stroke="#1a2833" d="M1239.08,-2139.1C1243.18,-2141.75 1247.06,-2144.7 1250.68,-2148 1272.18,-2167.64 1246.2,-2192.48 1268.68,-2211 1293.76,-2231.66 1373.22,-2235.93 1437.03,-2235.77"/>
<polygon fill="#1a2833" stroke="#1a2833" points="1437.15,-2239.27 1447.13,-2235.71 1437.11,-2232.27 1437.15,-2239.27"/>
<text text-anchor="middle" x="1306.68" y="-2234" font-family="Times,serif" font-size="10.00" fill="#767676">^1.1|^2.0</text>
</g>
<!-- symfony/event&#45;dispatcher&#45;&gt;php -->
<g id="edge48" class="edge">
<title>symfony/event&#45;dispatcher&#45;&gt;php</title>
<path fill="none" stroke="#1a2833" d="M1234.8,-1235.13C1240.59,-1238.72 1245.94,-1242.98 1250.68,-1248 1293.4,-1293.33 1241.73,-1330.84 1268.68,-1387 1289.75,-1430.93 1315.58,-1426.92 1344.68,-1466 1419.33,-1566.3 1485.49,-1700.71 1512.17,-1757.67"/>
<polygon fill="#1a2833" stroke="#1a2833" points="1509,-1759.16 1516.39,-1766.75 1515.35,-1756.21 1509,-1759.16"/>
<text text-anchor="middle" x="1306.68" y="-1469" font-family="Times,serif" font-size="10.00" fill="#767676">&gt;=8.1</text>
</g>
<!-- symfony/event&#45;dispatcher&#45;contracts -->
<g id="node38" class="node">
<title>symfony/event&#45;dispatcher&#45;contracts</title>
<path fill="#eeeeee" stroke="black" d="M1676.68,-1239C1676.68,-1239 1374.68,-1239 1374.68,-1239 1368.68,-1239 1362.68,-1233 1362.68,-1227 1362.68,-1227 1362.68,-1215 1362.68,-1215 1362.68,-1209 1368.68,-1203 1374.68,-1203 1374.68,-1203 1676.68,-1203 1676.68,-1203 1682.68,-1203 1688.68,-1209 1688.68,-1215 1688.68,-1215 1688.68,-1227 1688.68,-1227 1688.68,-1233 1682.68,-1239 1676.68,-1239"/>
<text text-anchor="middle" x="1525.68" y="-1217.3" font-family="Times,serif" font-size="14.00" fill="#314b5f">symfony/event&#45;dispatcher&#45;contracts: v3.5.0</text>
</g>
<!-- symfony/event&#45;dispatcher&#45;&gt;symfony/event&#45;dispatcher&#45;contracts -->
<g id="edge49" class="edge">
<title>symfony/event&#45;dispatcher&#45;&gt;symfony/event&#45;dispatcher&#45;contracts</title>
<path fill="none" stroke="#1a2833" d="M1234.9,-1221C1271.85,-1221 1312.9,-1221 1352.2,-1221"/>
<polygon fill="#1a2833" stroke="#1a2833" points="1352.42,-1224.5 1362.42,-1221 1352.42,-1217.5 1352.42,-1224.5"/>
<text text-anchor="middle" x="1306.68" y="-1224" font-family="Times,serif" font-size="10.00" fill="#767676">^2.5|^3</text>
</g>
<!-- symfony/finder&#45;&gt;php -->
<g id="edge51" class="edge">
<title>symfony/finder&#45;&gt;php</title>
<path fill="none" stroke="#1a2833" d="M1195.88,-1647.89C1241.29,-1651.06 1297.12,-1658.42 1344.68,-1675 1401.74,-1694.89 1460.03,-1734.84 1494.25,-1760.73"/>
<polygon fill="#1a2833" stroke="#1a2833" points="1492.35,-1763.68 1502.42,-1766.99 1496.61,-1758.13 1492.35,-1763.68"/>
<text text-anchor="middle" x="1306.68" y="-1678" font-family="Times,serif" font-size="10.00" fill="#767676">&gt;=8.1</text>
</g>
<!-- symfony/http&#45;client&#45;&gt;php -->
<g id="edge53" class="edge">
<title>symfony/http&#45;client&#45;&gt;php</title>
<path fill="none" stroke="#1a2833" d="M1117.36,-2401.96C1138.08,-2360.59 1194.3,-2257.89 1268.68,-2198 1297.36,-2174.9 1323.41,-2195.06 1344.68,-2165 1377.61,-2118.44 1335.64,-1959.22 1362.68,-1909 1390.61,-1857.11 1450.68,-1820.28 1489.3,-1800.87"/>
<polygon fill="#1a2833" stroke="#1a2833" points="1491.18,-1803.84 1498.62,-1796.31 1488.1,-1797.56 1491.18,-1803.84"/>
<text text-anchor="middle" x="1306.68" y="-2201" font-family="Times,serif" font-size="10.00" fill="#767676">&gt;=8.1</text>
</g>
<!-- symfony/http&#45;client&#45;&gt;psr/log -->
<g id="edge54" class="edge">
<title>symfony/http&#45;client&#45;&gt;psr/log</title>
<path fill="none" stroke="#1a2833" d="M1162.19,-2438.05C1193.19,-2448.34 1233.01,-2461.28 1268.68,-2472 1310.19,-2484.48 1320.77,-2486.9 1362.68,-2498 1394.68,-2506.47 1430.33,-2515.54 1460.03,-2522.98"/>
<polygon fill="#1a2833" stroke="#1a2833" points="1459.31,-2526.41 1469.86,-2525.44 1461.01,-2519.62 1459.31,-2526.41"/>
<text text-anchor="middle" x="1306.68" y="-2495" font-family="Times,serif" font-size="10.00" fill="#767676">^1|^2|^3</text>
</g>
<!-- symfony/http&#45;client&#45;&gt;symfony/service&#45;contracts -->
<g id="edge57" class="edge">
<title>symfony/http&#45;client&#45;&gt;symfony/service&#45;contracts</title>
<path fill="none" stroke="#1a2833" d="M1212.25,-2426.61C1253.86,-2426.99 1301.98,-2424.53 1344.68,-2415 1395.53,-2403.64 1449.62,-2377.46 1485.08,-2358.13"/>
<polygon fill="#1a2833" stroke="#1a2833" points="1487.06,-2361.03 1494.12,-2353.12 1483.68,-2354.9 1487.06,-2361.03"/>
<text text-anchor="middle" x="1306.68" y="-2427" font-family="Times,serif" font-size="10.00" fill="#767676">^2.5|^3</text>
</g>
<!-- symfony/http&#45;client&#45;&gt;symfony/deprecation&#45;contracts -->
<g id="edge55" class="edge">
<title>symfony/http&#45;client&#45;&gt;symfony/deprecation&#45;contracts</title>
<path fill="none" stroke="#1a2833" d="M1212.24,-2407.38C1271.2,-2399.19 1335.2,-2388.19 1344.68,-2378 1397.04,-2321.73 1312.37,-2264.11 1362.68,-2206 1368.61,-2199.14 1375.52,-2193.35 1383.06,-2188.46"/>
<polygon fill="#1a2833" stroke="#1a2833" points="1385.32,-2191.19 1392.19,-2183.13 1381.79,-2185.15 1385.32,-2191.19"/>
<text text-anchor="middle" x="1306.68" y="-2400" font-family="Times,serif" font-size="10.00" fill="#767676">^2.5|^3</text>
</g>
<!-- symfony/http&#45;client&#45;contracts -->
<g id="node41" class="node">
<title>symfony/http&#45;client&#45;contracts</title>
<path fill="#eeeeee" stroke="black" d="M1653.68,-2489C1653.68,-2489 1397.68,-2489 1397.68,-2489 1391.68,-2489 1385.68,-2483 1385.68,-2477 1385.68,-2477 1385.68,-2465 1385.68,-2465 1385.68,-2459 1391.68,-2453 1397.68,-2453 1397.68,-2453 1653.68,-2453 1653.68,-2453 1659.68,-2453 1665.68,-2459 1665.68,-2465 1665.68,-2465 1665.68,-2477 1665.68,-2477 1665.68,-2483 1659.68,-2489 1653.68,-2489"/>
<text text-anchor="middle" x="1525.68" y="-2467.3" font-family="Times,serif" font-size="14.00" fill="#314b5f">symfony/http&#45;client&#45;contracts: v3.5.0</text>
</g>
<!-- symfony/http&#45;client&#45;&gt;symfony/http&#45;client&#45;contracts -->
<g id="edge56" class="edge">
<title>symfony/http&#45;client&#45;&gt;symfony/http&#45;client&#45;contracts</title>
<path fill="none" stroke="#1a2833" d="M1199.82,-2438.04C1222.27,-2442.06 1246.29,-2446.02 1268.68,-2449 1303.08,-2453.59 1340.23,-2457.42 1375.27,-2460.53"/>
<polygon fill="#1a2833" stroke="#1a2833" points="1375.31,-2464.05 1385.58,-2461.43 1375.92,-2457.07 1375.31,-2464.05"/>
<text text-anchor="middle" x="1306.68" y="-2460" font-family="Times,serif" font-size="10.00" fill="#767676">^3.4.1</text>
</g>
<!-- symfony/messenger&#45;&gt;php -->
<g id="edge59" class="edge">
<title>symfony/messenger&#45;&gt;php</title>
<path fill="none" stroke="#1a2833" d="M1155.22,-2521C1187.3,-2506.1 1228.08,-2481.71 1250.68,-2447 1278.42,-2404.38 1234.78,-2371.91 1268.68,-2334 1292.03,-2307.88 1322.84,-2340.41 1344.68,-2313 1372.68,-2277.86 1341.89,-1948.83 1362.68,-1909 1389.94,-1856.75 1450.21,-1820.04 1489.05,-1800.74"/>
<polygon fill="#1a2833" stroke="#1a2833" points="1490.95,-1803.71 1498.43,-1796.21 1487.91,-1797.4 1490.95,-1803.71"/>
<text text-anchor="middle" x="1306.68" y="-2337" font-family="Times,serif" font-size="10.00" fill="#767676">&gt;=8.1</text>
</g>
<!-- symfony/messenger&#45;&gt;psr/log -->
<g id="edge60" class="edge">
<title>symfony/messenger&#45;&gt;psr/log</title>
<path fill="none" stroke="#1a2833" d="M1214.04,-2548.03C1232.25,-2549.27 1251,-2550.34 1268.68,-2551 1333.7,-2553.44 1407.98,-2549.17 1459.72,-2545.07"/>
<polygon fill="#1a2833" stroke="#1a2833" points="1460.07,-2548.55 1469.76,-2544.25 1459.51,-2541.57 1460.07,-2548.55"/>
<text text-anchor="middle" x="1306.68" y="-2554" font-family="Times,serif" font-size="10.00" fill="#767676">^1|^2|^3</text>
</g>
<!-- symfony/messenger&#45;&gt;symfony/deprecation&#45;contracts -->
<g id="edge62" class="edge">
<title>symfony/messenger&#45;&gt;symfony/deprecation&#45;contracts</title>
<path fill="none" stroke="#1a2833" d="M1213.82,-2537.51C1268.14,-2534.34 1326.75,-2526.32 1344.68,-2507 1390.25,-2457.87 1319.95,-2257.62 1362.68,-2206 1368.33,-2199.17 1374.93,-2193.39 1382.19,-2188.5"/>
<polygon fill="#1a2833" stroke="#1a2833" points="1384.26,-2191.34 1390.99,-2183.16 1380.63,-2185.36 1384.26,-2191.34"/>
<text text-anchor="middle" x="1306.68" y="-2534" font-family="Times,serif" font-size="10.00" fill="#767676">^2.5|^3</text>
</g>
<!-- symfony/clock -->
<g id="node43" class="node">
<title>symfony/clock</title>
<path fill="#eeeeee" stroke="black" d="M1598.68,-2625C1598.68,-2625 1452.68,-2625 1452.68,-2625 1446.68,-2625 1440.68,-2619 1440.68,-2613 1440.68,-2613 1440.68,-2601 1440.68,-2601 1440.68,-2595 1446.68,-2589 1452.68,-2589 1452.68,-2589 1598.68,-2589 1598.68,-2589 1604.68,-2589 1610.68,-2595 1610.68,-2601 1610.68,-2601 1610.68,-2613 1610.68,-2613 1610.68,-2619 1604.68,-2625 1598.68,-2625"/>
<text text-anchor="middle" x="1525.68" y="-2603.3" font-family="Times,serif" font-size="14.00" fill="#314b5f">symfony/clock: v6.4.8</text>
</g>
<!-- symfony/messenger&#45;&gt;symfony/clock -->
<g id="edge61" class="edge">
<title>symfony/messenger&#45;&gt;symfony/clock</title>
<path fill="none" stroke="#1a2833" d="M1214.08,-2556.92C1232.29,-2559.97 1251.02,-2563.1 1268.68,-2566 1322.17,-2574.8 1381.98,-2584.39 1430.34,-2592.08"/>
<polygon fill="#1a2833" stroke="#1a2833" points="1430.05,-2595.58 1440.48,-2593.7 1431.15,-2588.67 1430.05,-2595.58"/>
<text text-anchor="middle" x="1306.68" y="-2580" font-family="Times,serif" font-size="10.00" fill="#767676">^6.3|^7.0</text>
</g>
<!-- symfony/process&#45;&gt;php -->
<g id="edge64" class="edge">
<title>symfony/process&#45;&gt;php</title>
<path fill="none" stroke="#1a2833" d="M895.68,-1891.22C1009.2,-1891.12 1192.68,-1885.36 1250.68,-1851 1263.08,-1843.65 1256.51,-1831.75 1268.68,-1824 1304.43,-1801.23 1426.44,-1790.84 1488.21,-1786.95"/>
<polygon fill="#1a2833" stroke="#1a2833" points="1488.53,-1790.44 1498.3,-1786.34 1488.11,-1783.45 1488.53,-1790.44"/>
<text text-anchor="middle" x="1107.68" y="-1893" font-family="Times,serif" font-size="10.00" fill="#767676">&gt;=8.1</text>
</g>
<!-- symfony/requirements&#45;checker&#45;&gt;php -->
<g id="edge66" class="edge">
<title>symfony/requirements&#45;checker&#45;&gt;php</title>
<path fill="none" stroke="#1a2833" d="M946.81,-1790.47C1038.89,-1784.3 1160.72,-1777.12 1268.68,-1774 1302.44,-1773.02 1310.91,-1772.97 1344.68,-1774 1394.52,-1775.52 1452.02,-1779.41 1488.35,-1782.13"/>
<polygon fill="#1a2833" stroke="#1a2833" points="1488.23,-1785.63 1498.47,-1782.9 1488.76,-1778.65 1488.23,-1785.63"/>
<text text-anchor="middle" x="1107.68" y="-1792" font-family="Times,serif" font-size="10.00" fill="#767676">&gt;=5.3.9</text>
</g>
<!-- symfony/stopwatch&#45;&gt;php -->
<g id="edge68" class="edge">
<title>symfony/stopwatch&#45;&gt;php</title>
<path fill="none" stroke="#1a2833" d="M1211.73,-2170.95C1226.34,-2166.23 1239.99,-2158.96 1250.68,-2148 1285.25,-2112.52 1235.8,-2075.06 1268.68,-2038 1292.01,-2011.69 1321.28,-2042.25 1344.68,-2016 1376.76,-1980 1337.8,-1950.31 1362.68,-1909 1392.83,-1858.93 1451.42,-1821.89 1489.26,-1801.88"/>
<polygon fill="#1a2833" stroke="#1a2833" points="1491.12,-1804.86 1498.4,-1797.17 1487.91,-1798.64 1491.12,-1804.86"/>
<text text-anchor="middle" x="1306.68" y="-2041" font-family="Times,serif" font-size="10.00" fill="#767676">&gt;=8.1</text>
</g>
<!-- symfony/stopwatch&#45;&gt;symfony/service&#45;contracts -->
<g id="edge69" class="edge">
<title>symfony/stopwatch&#45;&gt;symfony/service&#45;contracts</title>
<path fill="none" stroke="#1a2833" d="M1118.52,-2193.08C1139.97,-2230.36 1195.02,-2314.92 1268.68,-2347 1326.35,-2372.12 1398.41,-2365.83 1451.37,-2355.17"/>
<polygon fill="#1a2833" stroke="#1a2833" points="1452.3,-2358.55 1461.36,-2353.06 1450.85,-2351.7 1452.3,-2358.55"/>
<text text-anchor="middle" x="1306.68" y="-2366" font-family="Times,serif" font-size="10.00" fill="#767676">^2.5|^3</text>
</g>
<!-- symfony/framework&#45;bundle&#45;&gt;php -->
<g id="edge74" class="edge">
<title>symfony/framework&#45;bundle&#45;&gt;php</title>
<path fill="none" stroke="#1a2833" d="M635.02,-1469.95C642,-1470.31 648.92,-1470.66 655.68,-1471 721.78,-1474.34 1190.43,-1472.59 1250.68,-1500 1375.51,-1556.78 1472.4,-1698.55 1508.91,-1758.04"/>
<polygon fill="#1a2833" stroke="#1a2833" points="1506.08,-1760.12 1514.25,-1766.86 1512.07,-1756.49 1506.08,-1760.12"/>
<text text-anchor="middle" x="1107.68" y="-1503" font-family="Times,serif" font-size="10.00" fill="#767676">&gt;=8.1</text>
</g>
<!-- symfony/framework&#45;bundle&#45;&gt;composer&#45;runtime&#45;api -->
<g id="edge72" class="edge">
<title>symfony/framework&#45;bundle&#45;&gt;composer&#45;runtime&#45;api</title>
<path fill="none" stroke="#1a2833" d="M511.71,-1444.95C536.8,-1392.66 611.31,-1242.92 655.68,-1213 764.36,-1139.72 825.66,-1215.38 946.68,-1165 955.79,-1161.21 955.68,-1156.06 964.68,-1152 979.27,-1145.42 995.34,-1140.14 1011.26,-1135.91"/>
<polygon fill="#1a2833" stroke="#1a2833" points="1012.29,-1139.26 1021.13,-1133.42 1010.58,-1132.47 1012.29,-1139.26"/>
<text text-anchor="middle" x="801.18" y="-1216" font-family="Times,serif" font-size="10.00" fill="#767676">&gt;=2.1</text>
</g>
<!-- symfony/framework&#45;bundle&#45;&gt;symfony/cache -->
<g id="edge75" class="edge">
<title>symfony/framework&#45;bundle&#45;&gt;symfony/cache</title>
<path fill="none" stroke="#1a2833" d="M517.3,-1481.48C541.81,-1512.08 595.39,-1572.78 655.68,-1602 773.63,-1659.17 858.46,-1553.04 946.68,-1650 985.65,-1692.84 932.41,-1861.91 964.68,-1910 979.41,-1931.96 1003.13,-1947.3 1027,-1957.9"/>
<polygon fill="#1a2833" stroke="#1a2833" points="1025.92,-1961.24 1036.49,-1961.87 1028.62,-1954.78 1025.92,-1961.24"/>
<text text-anchor="middle" x="801.18" y="-1653" font-family="Times,serif" font-size="10.00" fill="#767676">^5.4|^6.0|^7.0</text>
</g>
<!-- symfony/framework&#45;bundle&#45;&gt;symfony/config -->
<g id="edge76" class="edge">
<title>symfony/framework&#45;bundle&#45;&gt;symfony/config</title>
<path fill="none" stroke="#1a2833" d="M516.1,-1444.74C542.66,-1406.39 603.74,-1313.91 637.68,-1228 650.43,-1195.72 630.1,-1175.47 655.68,-1152 752,-1063.61 828.21,-1164.29 946.68,-1109 956.38,-1104.47 955.07,-1097.73 964.68,-1093 978.44,-1086.23 993.72,-1081.15 1009.01,-1077.35"/>
<polygon fill="#1a2833" stroke="#1a2833" points="1010.1,-1080.69 1019.05,-1075.02 1008.52,-1073.87 1010.1,-1080.69"/>
<text text-anchor="middle" x="801.18" y="-1155" font-family="Times,serif" font-size="10.00" fill="#767676">^6.1|^7.0</text>
</g>
<!-- symfony/framework&#45;bundle&#45;&gt;symfony/deprecation&#45;contracts -->
<g id="edge78" class="edge">
<title>symfony/framework&#45;bundle&#45;&gt;symfony/deprecation&#45;contracts</title>
<path fill="none" stroke="#1a2833" d="M520.92,-1481.16C548.29,-1509.82 601.46,-1568.04 637.68,-1624 647.61,-1639.35 640.66,-1650.57 655.68,-1661 709.04,-1698.06 901.65,-1642.17 946.68,-1689 995.73,-1740.02 917.93,-1953.85 964.68,-2007 1078.14,-2136.02 1181.45,-2024.37 1344.68,-2078 1394.92,-2094.51 1449.13,-2122.19 1484.78,-2141.89"/>
<polygon fill="#1a2833" stroke="#1a2833" points="1483.43,-2145.15 1493.87,-2146.97 1486.85,-2139.04 1483.43,-2145.15"/>
<text text-anchor="middle" x="1107.68" y="-2075" font-family="Times,serif" font-size="10.00" fill="#767676">^2.5|^3</text>
</g>
<!-- symfony/framework&#45;bundle&#45;&gt;symfony/filesystem -->
<g id="edge81" class="edge">
<title>symfony/framework&#45;bundle&#45;&gt;symfony/filesystem</title>
<path fill="none" stroke="#1a2833" d="M510.1,-1444.86C527.31,-1402.53 576.46,-1297.4 655.68,-1252 768.4,-1187.39 841.42,-1300.18 946.68,-1224 962.8,-1212.33 948.35,-1194.38 964.68,-1183 1034.08,-1134.62 1260.64,-1169.75 1344.68,-1160 1369.7,-1157.1 1396.53,-1153.01 1421.64,-1148.75"/>
<polygon fill="#1a2833" stroke="#1a2833" points="1422.27,-1152.19 1431.53,-1147.05 1421.09,-1145.3 1422.27,-1152.19"/>
<text text-anchor="middle" x="1107.68" y="-1186" font-family="Times,serif" font-size="10.00" fill="#767676">^5.4|^6.0|^7.0</text>
</g>
<!-- symfony/framework&#45;bundle&#45;&gt;symfony/dependency&#45;injection -->
<g id="edge77" class="edge">
<title>symfony/framework&#45;bundle&#45;&gt;symfony/dependency&#45;injection</title>
<path fill="none" stroke="#1a2833" d="M522.05,-1481.01C550.95,-1509.57 606.12,-1568.18 637.68,-1628 650.86,-1653 634.34,-1670.46 655.68,-1689 754.37,-1774.74 858.64,-1635.34 946.68,-1732 997.17,-1787.45 920.1,-2008.69 964.68,-2069 974.02,-2081.64 986.76,-2091.22 1000.8,-2098.46"/>
<polygon fill="#1a2833" stroke="#1a2833" points="999.66,-2101.79 1010.2,-2102.9 1002.65,-2095.46 999.66,-2101.79"/>
<text text-anchor="middle" x="801.18" y="-1735" font-family="Times,serif" font-size="10.00" fill="#767676">^6.4|^7.0</text>
</g>
<!-- symfony/framework&#45;bundle&#45;&gt;symfony/event&#45;dispatcher -->
<g id="edge80" class="edge">
<title>symfony/framework&#45;bundle&#45;&gt;symfony/event&#45;dispatcher</title>
<path fill="none" stroke="#1a2833" d="M511.18,-1444.77C529.83,-1404.81 580.39,-1309.87 655.68,-1270 712.97,-1239.66 882.33,-1256.93 946.68,-1249 964.94,-1246.75 984.3,-1243.82 1002.99,-1240.72"/>
<polygon fill="#1a2833" stroke="#1a2833" points="1003.72,-1244.14 1013,-1239.03 1002.56,-1237.24 1003.72,-1244.14"/>
<text text-anchor="middle" x="801.18" y="-1273" font-family="Times,serif" font-size="10.00" fill="#767676">^5.4|^6.0|^7.0</text>
</g>
<!-- symfony/framework&#45;bundle&#45;&gt;symfony/finder -->
<g id="edge82" class="edge">
<title>symfony/framework&#45;bundle&#45;&gt;symfony/finder</title>
<path fill="none" stroke="#1a2833" d="M522.46,-1481.39C549.68,-1506.06 602.05,-1548.98 655.68,-1568 716.81,-1589.69 891.01,-1557.7 946.68,-1591 959.37,-1598.6 952.41,-1610.72 964.68,-1619 978.03,-1628.01 993.61,-1634.2 1009.46,-1638.42"/>
<polygon fill="#1a2833" stroke="#1a2833" points="1008.81,-1641.86 1019.35,-1640.79 1010.45,-1635.05 1008.81,-1641.86"/>
<text text-anchor="middle" x="801.18" y="-1594" font-family="Times,serif" font-size="10.00" fill="#767676">^5.4|^6.0|^7.0</text>
</g>
<!-- ext&#45;xml -->
<g id="node48" class="node">
<title>ext&#45;xml</title>
<path fill="#eeeeee" stroke="black" d="M1130.68,-1347C1130.68,-1347 1084.68,-1347 1084.68,-1347 1078.68,-1347 1072.68,-1341 1072.68,-1335 1072.68,-1335 1072.68,-1323 1072.68,-1323 1072.68,-1317 1078.68,-1311 1084.68,-1311 1084.68,-1311 1130.68,-1311 1130.68,-1311 1136.68,-1311 1142.68,-1317 1142.68,-1323 1142.68,-1323 1142.68,-1335 1142.68,-1335 1142.68,-1341 1136.68,-1347 1130.68,-1347"/>
<text text-anchor="middle" x="1107.68" y="-1325.3" font-family="Times,serif" font-size="14.00" fill="#314b5f">ext&#45;xml</text>
</g>
<!-- symfony/framework&#45;bundle&#45;&gt;ext&#45;xml -->
<g id="edge73" class="edge">
<title>symfony/framework&#45;bundle&#45;&gt;ext&#45;xml</title>
<path fill="none" stroke="#1a2833" d="M528.47,-1444.95C557.62,-1425.17 607.7,-1394.21 655.68,-1379 799.38,-1333.45 980.25,-1328.06 1062.42,-1328.24"/>
<polygon fill="#1a2833" stroke="#1a2833" points="1062.63,-1331.74 1072.65,-1328.29 1062.67,-1324.74 1062.63,-1331.74"/>
<text text-anchor="middle" x="801.18" y="-1382" font-family="Times,serif" font-size="10.00" fill="#767676">*</text>
</g>
<!-- symfony/error&#45;handler -->
<g id="node49" class="node">
<title>symfony/error&#45;handler</title>
<path fill="#eeeeee" stroke="black" d="M1210.68,-1293C1210.68,-1293 1004.68,-1293 1004.68,-1293 998.68,-1293 992.68,-1287 992.68,-1281 992.68,-1281 992.68,-1269 992.68,-1269 992.68,-1263 998.68,-1257 1004.68,-1257 1004.68,-1257 1210.68,-1257 1210.68,-1257 1216.68,-1257 1222.68,-1263 1222.68,-1269 1222.68,-1269 1222.68,-1281 1222.68,-1281 1222.68,-1287 1216.68,-1293 1210.68,-1293"/>
<text text-anchor="middle" x="1107.68" y="-1271.3" font-family="Times,serif" font-size="14.00" fill="#314b5f">symfony/error&#45;handler: v6.4.9</text>
</g>
<!-- symfony/framework&#45;bundle&#45;&gt;symfony/error&#45;handler -->
<g id="edge79" class="edge">
<title>symfony/framework&#45;bundle&#45;&gt;symfony/error&#45;handler</title>
<path fill="none" stroke="#1a2833" d="M515.51,-1444.78C538.63,-1412.31 591.97,-1345.13 655.68,-1316 684.76,-1302.7 858.99,-1289.75 982.16,-1282.07"/>
<polygon fill="#1a2833" stroke="#1a2833" points="982.66,-1285.55 992.43,-1281.44 982.23,-1278.56 982.66,-1285.55"/>
<text text-anchor="middle" x="801.18" y="-1319" font-family="Times,serif" font-size="10.00" fill="#767676">^6.1|^7.0</text>
</g>
<!-- symfony/http&#45;foundation -->
<g id="node50" class="node">
<title>symfony/http&#45;foundation</title>
<path fill="#eeeeee" stroke="black" d="M1218.18,-1610C1218.18,-1610 997.18,-1610 997.18,-1610 991.18,-1610 985.18,-1604 985.18,-1598 985.18,-1598 985.18,-1586 985.18,-1586 985.18,-1580 991.18,-1574 997.18,-1574 997.18,-1574 1218.18,-1574 1218.18,-1574 1224.18,-1574 1230.18,-1580 1230.18,-1586 1230.18,-1586 1230.18,-1598 1230.18,-1598 1230.18,-1604 1224.18,-1610 1218.18,-1610"/>
<text text-anchor="middle" x="1107.68" y="-1588.3" font-family="Times,serif" font-size="14.00" fill="#314b5f">symfony/http&#45;foundation: v6.4.8</text>
</g>
<!-- symfony/framework&#45;bundle&#45;&gt;symfony/http&#45;foundation -->
<g id="edge83" class="edge">
<title>symfony/framework&#45;bundle&#45;&gt;symfony/http&#45;foundation</title>
<path fill="none" stroke="#1a2833" d="M533.49,-1481.09C563.42,-1497.96 611.05,-1522.26 655.68,-1534 781.14,-1567.01 820.93,-1525.09 946.68,-1557 955.16,-1559.15 956.32,-1562.39 964.68,-1565 972.25,-1567.37 980.13,-1569.57 988.11,-1571.59"/>
<polygon fill="#1a2833" stroke="#1a2833" points="987.34,-1575.01 997.88,-1573.99 989,-1568.21 987.34,-1575.01"/>
<text text-anchor="middle" x="801.18" y="-1560" font-family="Times,serif" font-size="10.00" fill="#767676">^6.4|^7.0</text>
</g>
<!-- symfony/http&#45;kernel -->
<g id="node51" class="node">
<title>symfony/http&#45;kernel</title>
<path fill="#eeeeee" stroke="black" d="M1202.68,-1556C1202.68,-1556 1012.68,-1556 1012.68,-1556 1006.68,-1556 1000.68,-1550 1000.68,-1544 1000.68,-1544 1000.68,-1532 1000.68,-1532 1000.68,-1526 1006.68,-1520 1012.68,-1520 1012.68,-1520 1202.68,-1520 1202.68,-1520 1208.68,-1520 1214.68,-1526 1214.68,-1532 1214.68,-1532 1214.68,-1544 1214.68,-1544 1214.68,-1550 1208.68,-1556 1202.68,-1556"/>
<text text-anchor="middle" x="1107.68" y="-1534.3" font-family="Times,serif" font-size="14.00" fill="#314b5f">symfony/http&#45;kernel: v6.4.9</text>
</g>
<!-- symfony/framework&#45;bundle&#45;&gt;symfony/http&#45;kernel -->
<g id="edge84" class="edge">
<title>symfony/framework&#45;bundle&#45;&gt;symfony/http&#45;kernel</title>
<path fill="none" stroke="#1a2833" d="M567.65,-1481.05C594.65,-1487.98 626.49,-1495.34 655.68,-1500 783.79,-1520.47 817.42,-1511.83 946.68,-1523 960.79,-1524.22 975.6,-1525.55 990.28,-1526.89"/>
<polygon fill="#1a2833" stroke="#1a2833" points="990.13,-1530.39 1000.41,-1527.82 990.77,-1523.42 990.13,-1530.39"/>
<text text-anchor="middle" x="801.18" y="-1526" font-family="Times,serif" font-size="10.00" fill="#767676">^6.4</text>
</g>
<!-- symfony/polyfill&#45;mbstring -->
<g id="node52" class="node">
<title>symfony/polyfill&#45;mbstring</title>
<path fill="#eeeeee" stroke="black" d="M1226.18,-1455C1226.18,-1455 989.18,-1455 989.18,-1455 983.18,-1455 977.18,-1449 977.18,-1443 977.18,-1443 977.18,-1431 977.18,-1431 977.18,-1425 983.18,-1419 989.18,-1419 989.18,-1419 1226.18,-1419 1226.18,-1419 1232.18,-1419 1238.18,-1425 1238.18,-1431 1238.18,-1431 1238.18,-1443 1238.18,-1443 1238.18,-1449 1232.18,-1455 1226.18,-1455"/>
<text text-anchor="middle" x="1107.68" y="-1433.3" font-family="Times,serif" font-size="14.00" fill="#314b5f">symfony/polyfill&#45;mbstring: v1.30.0</text>
</g>
<!-- symfony/framework&#45;bundle&#45;&gt;symfony/polyfill&#45;mbstring -->
<g id="edge85" class="edge">
<title>symfony/framework&#45;bundle&#45;&gt;symfony/polyfill&#45;mbstring</title>
<path fill="none" stroke="#1a2833" d="M634.87,-1457.33C733.03,-1453.1 866.84,-1447.33 966.89,-1443.02"/>
<polygon fill="#1a2833" stroke="#1a2833" points="967.24,-1446.51 977.08,-1442.58 966.94,-1439.52 967.24,-1446.51"/>
<text text-anchor="middle" x="801.18" y="-1459" font-family="Times,serif" font-size="10.00" fill="#767676">~1.0</text>
</g>
<!-- symfony/routing -->
<g id="node53" class="node">
<title>symfony/routing</title>
<path fill="#eeeeee" stroke="black" d="M1189.18,-1401C1189.18,-1401 1026.18,-1401 1026.18,-1401 1020.18,-1401 1014.18,-1395 1014.18,-1389 1014.18,-1389 1014.18,-1377 1014.18,-1377 1014.18,-1371 1020.18,-1365 1026.18,-1365 1026.18,-1365 1189.18,-1365 1189.18,-1365 1195.18,-1365 1201.18,-1371 1201.18,-1377 1201.18,-1377 1201.18,-1389 1201.18,-1389 1201.18,-1395 1195.18,-1401 1189.18,-1401"/>
<text text-anchor="middle" x="1107.68" y="-1379.3" font-family="Times,serif" font-size="14.00" fill="#314b5f">symfony/routing: v6.4.8</text>
</g>
<!-- symfony/framework&#45;bundle&#45;&gt;symfony/routing -->
<g id="edge86" class="edge">
<title>symfony/framework&#45;bundle&#45;&gt;symfony/routing</title>
<path fill="none" stroke="#1a2833" d="M573.42,-1444.93C599.15,-1438.82 628.6,-1432.44 655.68,-1428 774.3,-1408.55 911.96,-1396.29 1003.69,-1389.56"/>
<polygon fill="#1a2833" stroke="#1a2833" points="1004.09,-1393.04 1013.81,-1388.83 1003.58,-1386.06 1004.09,-1393.04"/>
<text text-anchor="middle" x="801.18" y="-1431" font-family="Times,serif" font-size="10.00" fill="#767676">^6.4|^7.0</text>
</g>
<!-- bamarni/composer&#45;bin&#45;plugin&#45;&gt;php -->
<g id="edge89" class="edge">
<title>bamarni/composer&#45;bin&#45;plugin&#45;&gt;php</title>
<path fill="none" stroke="#1a2833" d="M637.99,-1691.22C788.29,-1683.84 1038.19,-1678.77 1250.68,-1709 1337.96,-1721.42 1436.81,-1753.5 1488.61,-1771.76"/>
<polygon fill="#1a2833" stroke="#1a2833" points="1487.73,-1775.16 1498.33,-1775.22 1490.08,-1768.57 1487.73,-1775.16"/>
<text text-anchor="middle" x="1107.68" y="-1712" font-family="Times,serif" font-size="10.00" fill="#767676">^7.2.5 || ^8.0</text>
</g>
<!-- composer&#45;plugin&#45;api -->
<g id="node55" class="node">
<title>composer&#45;plugin&#45;api</title>
<path fill="#eeeeee" stroke="black" d="M1176.18,-1765C1176.18,-1765 1039.18,-1765 1039.18,-1765 1033.18,-1765 1027.18,-1759 1027.18,-1753 1027.18,-1753 1027.18,-1741 1027.18,-1741 1027.18,-1735 1033.18,-1729 1039.18,-1729 1039.18,-1729 1176.18,-1729 1176.18,-1729 1182.18,-1729 1188.18,-1735 1188.18,-1741 1188.18,-1741 1188.18,-1753 1188.18,-1753 1188.18,-1759 1182.18,-1765 1176.18,-1765"/>
<text text-anchor="middle" x="1107.68" y="-1743.3" font-family="Times,serif" font-size="14.00" fill="#314b5f">composer&#45;plugin&#45;api</text>
</g>
<!-- bamarni/composer&#45;bin&#45;plugin&#45;&gt;composer&#45;plugin&#45;api -->
<g id="edge88" class="edge">
<title>bamarni/composer&#45;bin&#45;plugin&#45;&gt;composer&#45;plugin&#45;api</title>
<path fill="none" stroke="#1a2833" d="M551.49,-1718.07C581.1,-1728.18 620.03,-1739.77 655.68,-1745 780,-1763.24 925.69,-1759.4 1017.1,-1753.99"/>
<polygon fill="#1a2833" stroke="#1a2833" points="1017.38,-1757.48 1027.14,-1753.38 1016.95,-1750.49 1017.38,-1757.48"/>
<text text-anchor="middle" x="801.18" y="-1761" font-family="Times,serif" font-size="10.00" fill="#767676">^2.0</text>
</g>
</g>
</svg>
