<?xml version="1.0" encoding="UTF-8" standalone="no"?>
<!DOCTYPE svg PUBLIC "-//W3C//DTD SVG 1.1//EN"
 "http://www.w3.org/Graphics/SVG/1.1/DTD/svg11.dtd">
<!-- Generated by graphviz version 2.43.0 (0)
 -->
<!-- Title: %3 Pages: 1 -->
<svg width="1123pt" height="1625pt"
 viewBox="0.00 0.00 1123.00 1625.00" xmlns="http://www.w3.org/2000/svg" xmlns:xlink="http://www.w3.org/1999/xlink">
<g id="graph0" class="graph" transform="scale(1 1) rotate(0) translate(4 1621)">
<title>%3</title>
<g id="clust1" class="cluster">
<title>cluster_0</title>
<polygon fill="LightBlue" stroke="black" points="109,-777 109,-968 652,-968 652,-777 109,-777"/>
<text text-anchor="middle" x="380.5" y="-952.8" font-family="Times,serif" font-size="14.00">Bartlett\CompatInfoDb\Application\Command\Build</text>
</g>
<g id="clust2" class="cluster">
<title>cluster_1</title>
<polygon fill="LightSkyBlue" stroke="black" points="773,-515 773,-590 1115,-590 1115,-515 773,-515"/>
<text text-anchor="middle" x="944" y="-574.8" font-family="Times,serif" font-size="14.00">Bartlett\CompatInfoDb\Application\Command</text>
</g>
<g id="clust3" class="cluster">
<title>cluster_2</title>
<polygon fill="LightBlue" stroke="black" points="183,-656 183,-769 578,-769 578,-656 183,-656"/>
<text text-anchor="middle" x="380.5" y="-753.8" font-family="Times,serif" font-size="14.00">Bartlett\CompatInfoDb\Application\Command\Create</text>
</g>
<g id="clust4" class="cluster">
<title>cluster_3</title>
<polygon fill="LightBlue" stroke="black" points="109,-457 109,-648 652,-648 652,-457 109,-457"/>
<text text-anchor="middle" x="380.5" y="-632.8" font-family="Times,serif" font-size="14.00">Bartlett\CompatInfoDb\Application\Command\Init</text>
</g>
<g id="clust5" class="cluster">
<title>cluster_4</title>
<polygon fill="LightBlue" stroke="black" points="53.5,-207 53.5,-449 707.5,-449 707.5,-207 53.5,-207"/>
<text text-anchor="middle" x="380.5" y="-433.8" font-family="Times,serif" font-size="14.00">Bartlett\CompatInfoDb\Application\Command\Polyfill</text>
</g>
<g id="clust6" class="cluster">
<title>cluster_5</title>
<polygon fill="LightBlue" stroke="black" points="180,-8 180,-199 582,-199 582,-8 180,-8"/>
<text text-anchor="middle" x="381" y="-183.8" font-family="Times,serif" font-size="14.00">Bartlett\CompatInfoDb\Application\Command\Release</text>
</g>
<g id="clust7" class="cluster">
<title>cluster_6</title>
<polygon fill="Bisque" stroke="black" points="62.5,-1522 62.5,-1609 698.5,-1609 698.5,-1522 62.5,-1522"/>
<text text-anchor="middle" x="380.5" y="-1593.8" font-family="Times,serif" font-size="14.00">Bartlett\CompatInfoDb\Application\Query\Diagnose</text>
</g>
<g id="clust8" class="cluster">
<title>cluster_7</title>
<polygon fill="BurlyWood" stroke="black" points="787,-1420 787,-1495 1101,-1495 1101,-1420 787,-1420"/>
<text text-anchor="middle" x="944" y="-1479.8" font-family="Times,serif" font-size="14.00">Bartlett\CompatInfoDb\Application\Query</text>
</g>
<g id="clust9" class="cluster">
<title>cluster_8</title>
<polygon fill="Bisque" stroke="black" points="8,-976 8,-1393 753,-1393 753,-976 8,-976"/>
<text text-anchor="middle" x="380.5" y="-1377.8" font-family="Times,serif" font-size="14.00">Bartlett\CompatInfoDb\Application\Query\ListRef</text>
</g>
<g id="clust10" class="cluster">
<title>cluster_9</title>
<polygon fill="transparent" stroke="black" points="795,-1041 795,-1328 1094,-1328 1094,-1041 795,-1041"/>
<text text-anchor="middle" x="944.5" y="-1312.8" font-family="Times,serif" font-size="14.00">Bartlett\CompatInfoDb\Domain\Factory</text>
</g>
<g id="clust11" class="cluster">
<title>cluster_10</title>
<polygon fill="Bisque" stroke="black" points="89.5,-1401 89.5,-1514 671.5,-1514 671.5,-1401 89.5,-1401"/>
<text text-anchor="middle" x="380.5" y="-1498.8" font-family="Times,serif" font-size="14.00">Bartlett\CompatInfoDb\Application\Query\Show</text>
</g>
<!-- Bartlett\\CompatInfoDb\\Application\\Command\\Build\\BuildCommand -->
<g id="node1" class="node">
<title>Bartlett\\CompatInfoDb\\Application\\Command\\Build\\BuildCommand</title>
<polygon fill="#fefece" stroke="transparent" points="644,-936.5 117,-936.5 117,-785.5 644,-785.5 644,-936.5"/>
<polygon fill="#eeeeee" stroke="transparent" points="117.5,-914 117.5,-936 644.5,-936 644.5,-914 117.5,-914"/>
<polygon fill="none" stroke="black" points="117.5,-914 117.5,-936 644.5,-936 644.5,-914 117.5,-914"/>
<text text-anchor="start" x="346" y="-919.6" font-family="Verdana" font-weight="bold" font-size="8.00">BuildCommand</text>
<polygon fill="none" stroke="black" points="117.5,-856 117.5,-914 644.5,-914 644.5,-856 117.5,-856"/>
<text text-anchor="start" x="122.5" y="-902.6" font-family="Verdana" font-size="8.00">– extension</text>
<text text-anchor="start" x="122.5" y="-889.6" font-family="Verdana" font-size="8.00">– extMin</text>
<text text-anchor="start" x="122.5" y="-876.6" font-family="Verdana" font-size="8.00">– phpMin</text>
<text text-anchor="start" x="122.5" y="-863.6" font-family="Verdana" font-size="8.00">– output</text>
<polygon fill="none" stroke="black" points="117.5,-785 117.5,-856 644.5,-856 644.5,-785 117.5,-785"/>
<text text-anchor="start" x="122.5" y="-844.6" font-family="Verdana" font-size="8.00">+ __construct(extension : string, extMin : string, phpMin : string, output : Symfony\Component\Console\Output\OutputInterface)</text>
<text text-anchor="start" x="122.5" y="-831.6" font-family="Verdana" font-size="8.00">+ getExtension() : string</text>
<text text-anchor="start" x="122.5" y="-818.6" font-family="Verdana" font-size="8.00">+ getExtMin() : string</text>
<text text-anchor="start" x="122.5" y="-805.6" font-family="Verdana" font-size="8.00">+ getPhpMin() : string</text>
<text text-anchor="start" x="122.5" y="-792.6" font-family="Verdana" font-size="8.00">+ getOutput() : Symfony\Component\Console\Output\OutputInterface</text>
</g>
<!-- Bartlett\\CompatInfoDb\\Application\\Command\\CommandInterface -->
<g id="node2" class="node">
<title>Bartlett\\CompatInfoDb\\Application\\Command\\CommandInterface</title>
<polygon fill="#fefece" stroke="transparent" points="990,-559 898,-559 898,-523 990,-523 990,-559"/>
<polygon fill="#eeeeee" stroke="transparent" points="898,-536 898,-558 990,-558 990,-536 898,-536"/>
<polygon fill="none" stroke="black" points="898,-536 898,-558 990,-558 990,-536 898,-536"/>
<text text-anchor="start" x="918" y="-549.6" font-family="Verdana" font-weight="bold" font-size="8.00">«interface»</text>
<text text-anchor="start" x="901" y="-541.6" font-family="Verdana" font-weight="bold" font-size="8.00">CommandInterface</text>
<polygon fill="none" stroke="black" points="898,-530 898,-536 990,-536 990,-530 898,-530"/>
<polygon fill="none" stroke="black" points="898,-524 898,-530 990,-530 990,-524 898,-524"/>
</g>
<!-- Bartlett\\CompatInfoDb\\Application\\Command\\Build\\BuildCommand&#45;&gt;Bartlett\\CompatInfoDb\\Application\\Command\\CommandInterface -->
<g id="edge1" class="edge">
<title>Bartlett\\CompatInfoDb\\Application\\Command\\Build\\BuildCommand&#45;&gt;Bartlett\\CompatInfoDb\\Application\\Command\\CommandInterface</title>
<path fill="none" stroke="black" stroke-dasharray="5,2" d="M644.47,-821.53C682.55,-809.44 719.98,-793.64 753,-773 837.23,-720.36 901.44,-617.33 928.69,-568.25"/>
<polygon fill="none" stroke="black" points="931.92,-569.64 933.64,-559.19 925.77,-566.28 931.92,-569.64"/>
</g>
<!-- Bartlett\\CompatInfoDb\\Application\\Command\\Create\\CreateCommand -->
<g id="node3" class="node">
<title>Bartlett\\CompatInfoDb\\Application\\Command\\Create\\CreateCommand</title>
<polygon fill="#fefece" stroke="transparent" points="527,-737.5 234,-737.5 234,-664.5 527,-664.5 527,-737.5"/>
<polygon fill="#eeeeee" stroke="transparent" points="234.5,-715 234.5,-737 527.5,-737 527.5,-715 234.5,-715"/>
<polygon fill="none" stroke="black" points="234.5,-715 234.5,-737 527.5,-737 527.5,-715 234.5,-715"/>
<text text-anchor="start" x="343.5" y="-720.6" font-family="Verdana" font-weight="bold" font-size="8.00">CreateCommand</text>
<polygon fill="none" stroke="black" points="234.5,-696 234.5,-715 527.5,-715 527.5,-696 234.5,-696"/>
<text text-anchor="start" x="239.5" y="-703.6" font-family="Verdana" font-size="8.00">– entityManager</text>
<polygon fill="none" stroke="black" points="234.5,-664 234.5,-696 527.5,-696 527.5,-664 234.5,-664"/>
<text text-anchor="start" x="239.5" y="-684.6" font-family="Verdana" font-size="8.00">+ __construct(entityManager : Doctrine\ORM\EntityManagerInterface)</text>
<text text-anchor="start" x="239.5" y="-671.6" font-family="Verdana" font-size="8.00">+ getEntityManager() : Doctrine\ORM\EntityManagerInterface</text>
</g>
<!-- Bartlett\\CompatInfoDb\\Application\\Command\\Create\\CreateCommand&#45;&gt;Bartlett\\CompatInfoDb\\Application\\Command\\CommandInterface -->
<g id="edge2" class="edge">
<title>Bartlett\\CompatInfoDb\\Application\\Command\\Create\\CreateCommand&#45;&gt;Bartlett\\CompatInfoDb\\Application\\Command\\CommandInterface</title>
<path fill="none" stroke="black" stroke-dasharray="5,2" d="M527,-695.2C596.85,-689.07 680.84,-676.71 753,-652 812.89,-631.49 874.86,-591.02 911.12,-565.03"/>
<polygon fill="none" stroke="black" points="913.29,-567.78 919.33,-559.07 909.18,-562.11 913.29,-567.78"/>
</g>
<!-- Bartlett\\CompatInfoDb\\Application\\Command\\Init\\InitCommand -->
<g id="node4" class="node">
<title>Bartlett\\CompatInfoDb\\Application\\Command\\Init\\InitCommand</title>
<polygon fill="#fefece" stroke="transparent" points="644,-616.5 117,-616.5 117,-465.5 644,-465.5 644,-616.5"/>
<polygon fill="#eeeeee" stroke="transparent" points="117.5,-594 117.5,-616 644.5,-616 644.5,-594 117.5,-594"/>
<polygon fill="none" stroke="black" points="117.5,-594 117.5,-616 644.5,-616 644.5,-594 117.5,-594"/>
<text text-anchor="start" x="350.5" y="-599.6" font-family="Verdana" font-weight="bold" font-size="8.00">InitCommand</text>
<polygon fill="none" stroke="black" points="117.5,-536 117.5,-594 644.5,-594 644.5,-536 117.5,-536"/>
<text text-anchor="start" x="122.5" y="-582.6" font-family="Verdana" font-size="8.00">– appVersion</text>
<text text-anchor="start" x="122.5" y="-569.6" font-family="Verdana" font-size="8.00">– io</text>
<text text-anchor="start" x="122.5" y="-556.6" font-family="Verdana" font-size="8.00">– force</text>
<text text-anchor="start" x="122.5" y="-543.6" font-family="Verdana" font-size="8.00">– progress</text>
<polygon fill="none" stroke="black" points="117.5,-465 117.5,-536 644.5,-536 644.5,-465 117.5,-465"/>
<text text-anchor="start" x="122.5" y="-524.6" font-family="Verdana" font-size="8.00">+ __construct(appVersion : string, io : Bartlett\CompatInfoDb\Presentation\Console\StyleInterface, force : bool, progress : bool)</text>
<text text-anchor="start" x="122.5" y="-511.6" font-family="Verdana" font-size="8.00">+ getAppVersion() : string</text>
<text text-anchor="start" x="122.5" y="-498.6" font-family="Verdana" font-size="8.00">+ getStyle() : Bartlett\CompatInfoDb\Presentation\Console\StyleInterface</text>
<text text-anchor="start" x="122.5" y="-485.6" font-family="Verdana" font-size="8.00">+ isForce() : bool</text>
<text text-anchor="start" x="122.5" y="-472.6" font-family="Verdana" font-size="8.00">+ isProgress() : bool</text>
</g>
<!-- Bartlett\\CompatInfoDb\\Application\\Command\\Init\\InitCommand&#45;&gt;Bartlett\\CompatInfoDb\\Application\\Command\\CommandInterface -->
<g id="edge3" class="edge">
<title>Bartlett\\CompatInfoDb\\Application\\Command\\Init\\InitCommand&#45;&gt;Bartlett\\CompatInfoDb\\Application\\Command\\CommandInterface</title>
<path fill="none" stroke="black" stroke-dasharray="5,2" d="M644.17,-541C735.79,-541 830,-541 887.53,-541"/>
<polygon fill="none" stroke="black" points="887.83,-544.5 897.83,-541 887.83,-537.5 887.83,-544.5"/>
</g>
<!-- Bartlett\\CompatInfoDb\\Application\\Command\\Polyfill\\PolyfillCommand -->
<g id="node5" class="node">
<title>Bartlett\\CompatInfoDb\\Application\\Command\\Polyfill\\PolyfillCommand</title>
<polygon fill="#fefece" stroke="transparent" points="699.5,-417.5 61.5,-417.5 61.5,-214.5 699.5,-214.5 699.5,-417.5"/>
<polygon fill="#eeeeee" stroke="transparent" points="61.5,-395 61.5,-417 699.5,-417 699.5,-395 61.5,-395"/>
<polygon fill="none" stroke="black" points="61.5,-395 61.5,-417 699.5,-417 699.5,-395 61.5,-395"/>
<text text-anchor="start" x="342" y="-400.6" font-family="Verdana" font-weight="bold" font-size="8.00">PolyfillCommand</text>
<polygon fill="none" stroke="black" points="61.5,-311 61.5,-395 699.5,-395 699.5,-311 61.5,-311"/>
<text text-anchor="start" x="66.5" y="-383.6" font-family="Verdana" font-size="8.00">– package</text>
<text text-anchor="start" x="66.5" y="-370.6" font-family="Verdana" font-size="8.00">– tag</text>
<text text-anchor="start" x="66.5" y="-357.6" font-family="Verdana" font-size="8.00">– php</text>
<text text-anchor="start" x="66.5" y="-344.6" font-family="Verdana" font-size="8.00">– io</text>
<text text-anchor="start" x="66.5" y="-331.6" font-family="Verdana" font-size="8.00">– cacheDir</text>
<text text-anchor="start" x="66.5" y="-318.6" font-family="Verdana" font-size="8.00">– whitelist</text>
<polygon fill="none" stroke="black" points="61.5,-214 61.5,-311 699.5,-311 699.5,-214 61.5,-214"/>
<text text-anchor="start" x="66.5" y="-299.6" font-family="Verdana" font-size="8.00">+ __construct(package : string, tag : string, php : array, io : Bartlett\CompatInfoDb\Presentation\Console\StyleInterface, cacheDir : string, whitelist : string)</text>
<text text-anchor="start" x="66.5" y="-286.6" font-family="Verdana" font-size="8.00">+ getPackage() : string</text>
<text text-anchor="start" x="66.5" y="-273.6" font-family="Verdana" font-size="8.00">+ getTag() : string</text>
<text text-anchor="start" x="66.5" y="-260.6" font-family="Verdana" font-size="8.00">+ getPhp() : array</text>
<text text-anchor="start" x="66.5" y="-247.6" font-family="Verdana" font-size="8.00">+ getStyle() : Bartlett\CompatInfoDb\Presentation\Console\StyleInterface</text>
<text text-anchor="start" x="66.5" y="-234.6" font-family="Verdana" font-size="8.00">+ getCacheDir() : string</text>
<text text-anchor="start" x="66.5" y="-221.6" font-family="Verdana" font-size="8.00">+ getWhitelist() : ?string</text>
</g>
<!-- Bartlett\\CompatInfoDb\\Application\\Command\\Polyfill\\PolyfillCommand&#45;&gt;Bartlett\\CompatInfoDb\\Application\\Command\\CommandInterface -->
<g id="edge4" class="edge">
<title>Bartlett\\CompatInfoDb\\Application\\Command\\Polyfill\\PolyfillCommand&#45;&gt;Bartlett\\CompatInfoDb\\Application\\Command\\CommandInterface</title>
<path fill="none" stroke="black" stroke-dasharray="5,2" d="M664.12,-417.52C694.26,-429.15 724.35,-441.11 753,-453 802.83,-473.69 858.75,-499.97 896.94,-518.4"/>
<polygon fill="none" stroke="black" points="895.73,-521.7 906.26,-522.91 898.78,-515.4 895.73,-521.7"/>
</g>
<!-- Bartlett\\CompatInfoDb\\Application\\Command\\Release\\ReleaseCommand -->
<g id="node6" class="node">
<title>Bartlett\\CompatInfoDb\\Application\\Command\\Release\\ReleaseCommand</title>
<polygon fill="#fefece" stroke="transparent" points="539,-167.5 222,-167.5 222,-16.5 539,-16.5 539,-167.5"/>
<polygon fill="#eeeeee" stroke="transparent" points="222.5,-145 222.5,-167 539.5,-167 539.5,-145 222.5,-145"/>
<polygon fill="none" stroke="black" points="222.5,-145 222.5,-167 539.5,-167 539.5,-145 222.5,-145"/>
<text text-anchor="start" x="341" y="-150.6" font-family="Verdana" font-weight="bold" font-size="8.00">ReleaseCommand</text>
<polygon fill="none" stroke="black" points="222.5,-87 222.5,-145 539.5,-145 539.5,-87 222.5,-87"/>
<text text-anchor="start" x="227.5" y="-133.6" font-family="Verdana" font-size="8.00">– version</text>
<text text-anchor="start" x="227.5" y="-120.6" font-family="Verdana" font-size="8.00">– date</text>
<text text-anchor="start" x="227.5" y="-107.6" font-family="Verdana" font-size="8.00">– state</text>
<text text-anchor="start" x="227.5" y="-94.6" font-family="Verdana" font-size="8.00">– extension</text>
<polygon fill="none" stroke="black" points="222.5,-16 222.5,-87 539.5,-87 539.5,-16 222.5,-16"/>
<text text-anchor="start" x="227.5" y="-75.6" font-family="Verdana" font-size="8.00">+ __construct(version : string, date : string, state : string, extension : string)</text>
<text text-anchor="start" x="227.5" y="-62.6" font-family="Verdana" font-size="8.00">+ getVersion() : string</text>
<text text-anchor="start" x="227.5" y="-49.6" font-family="Verdana" font-size="8.00">+ getDate() : string</text>
<text text-anchor="start" x="227.5" y="-36.6" font-family="Verdana" font-size="8.00">+ getState() : string</text>
<text text-anchor="start" x="227.5" y="-23.6" font-family="Verdana" font-size="8.00">+ getExtension() : string</text>
</g>
<!-- Bartlett\\CompatInfoDb\\Application\\Command\\Release\\ReleaseCommand&#45;&gt;Bartlett\\CompatInfoDb\\Application\\Command\\CommandInterface -->
<g id="edge5" class="edge">
<title>Bartlett\\CompatInfoDb\\Application\\Command\\Release\\ReleaseCommand&#45;&gt;Bartlett\\CompatInfoDb\\Application\\Command\\CommandInterface</title>
<path fill="none" stroke="black" stroke-dasharray="5,2" d="M539.04,-111.63C610.37,-126.99 692.15,-154.34 753,-203 858.83,-287.62 915.7,-448.14 935.18,-512.89"/>
<polygon fill="none" stroke="black" points="931.91,-514.17 938.08,-522.78 938.62,-512.2 931.91,-514.17"/>
</g>
<!-- Bartlett\\CompatInfoDb\\Application\\Query\\Diagnose\\DiagnoseHandler -->
<g id="node7" class="node">
<title>Bartlett\\CompatInfoDb\\Application\\Query\\Diagnose\\DiagnoseHandler</title>
<polygon fill="#fefece" stroke="transparent" points="690.5,-1577.5 70.5,-1577.5 70.5,-1530.5 690.5,-1530.5 690.5,-1577.5"/>
<polygon fill="#eeeeee" stroke="transparent" points="70.5,-1555 70.5,-1577 690.5,-1577 690.5,-1555 70.5,-1555"/>
<polygon fill="none" stroke="black" points="70.5,-1555 70.5,-1577 690.5,-1577 690.5,-1555 70.5,-1555"/>
<text text-anchor="start" x="341" y="-1560.6" font-family="Verdana" font-weight="bold" font-size="8.00">DiagnoseHandler</text>
<polygon fill="none" stroke="black" points="70.5,-1549 70.5,-1555 690.5,-1555 690.5,-1549 70.5,-1549"/>
<polygon fill="none" stroke="black" points="70.5,-1530 70.5,-1549 690.5,-1549 690.5,-1530 70.5,-1530"/>
<text text-anchor="start" x="75.5" y="-1537.6" font-family="Verdana" font-size="8.00">+ __invoke(query : Bartlett\CompatInfoDb\Application\Query\Diagnose\DiagnoseQuery) : Bartlett\CompatInfoDb\Infrastructure\RequirementsInterface</text>
</g>
<!-- Bartlett\\CompatInfoDb\\Application\\Query\\QueryHandlerInterface -->
<g id="node8" class="node">
<title>Bartlett\\CompatInfoDb\\Application\\Query\\QueryHandlerInterface</title>
<polygon fill="#fefece" stroke="transparent" points="999,-1464 889,-1464 889,-1428 999,-1428 999,-1464"/>
<polygon fill="#eeeeee" stroke="transparent" points="889,-1441 889,-1463 999,-1463 999,-1441 889,-1441"/>
<polygon fill="none" stroke="black" points="889,-1441 889,-1463 999,-1463 999,-1441 889,-1441"/>
<text text-anchor="start" x="918" y="-1454.6" font-family="Verdana" font-weight="bold" font-size="8.00">«interface»</text>
<text text-anchor="start" x="892" y="-1446.6" font-family="Verdana" font-weight="bold" font-size="8.00">QueryHandlerInterface</text>
<polygon fill="none" stroke="black" points="889,-1435 889,-1441 999,-1441 999,-1435 889,-1435"/>
<polygon fill="none" stroke="black" points="889,-1429 889,-1435 999,-1435 999,-1429 889,-1429"/>
</g>
<!-- Bartlett\\CompatInfoDb\\Application\\Query\\Diagnose\\DiagnoseHandler&#45;&gt;Bartlett\\CompatInfoDb\\Application\\Query\\QueryHandlerInterface -->
<g id="edge6" class="edge">
<title>Bartlett\\CompatInfoDb\\Application\\Query\\Diagnose\\DiagnoseHandler&#45;&gt;Bartlett\\CompatInfoDb\\Application\\Query\\QueryHandlerInterface</title>
<path fill="none" stroke="black" stroke-dasharray="5,2" d="M690.16,-1530.46C711.53,-1526.88 732.65,-1522.75 753,-1518 803.03,-1506.32 857.64,-1484.62 895.42,-1468.09"/>
<polygon fill="none" stroke="black" points="896.92,-1471.25 904.65,-1464 894.09,-1464.85 896.92,-1471.25"/>
</g>
<!-- Bartlett\\CompatInfoDb\\Application\\Query\\ListRef\\ListHandler -->
<g id="node9" class="node">
<title>Bartlett\\CompatInfoDb\\Application\\Query\\ListRef\\ListHandler</title>
<polygon fill="#fefece" stroke="transparent" points="745,-1362 16,-1362 16,-984 745,-984 745,-1362"/>
<polygon fill="#eeeeee" stroke="transparent" points="16.5,-1340 16.5,-1362 745.5,-1362 745.5,-1340 16.5,-1340"/>
<polygon fill="none" stroke="black" points="16.5,-1340 16.5,-1362 745.5,-1362 745.5,-1340 16.5,-1340"/>
<text text-anchor="start" x="354.5" y="-1345.6" font-family="Verdana" font-weight="bold" font-size="8.00">ListHandler</text>
<polygon fill="none" stroke="black" points="16.5,-1126 16.5,-1340 745.5,-1340 745.5,-1126 16.5,-1126"/>
<text text-anchor="start" x="21.5" y="-1328.6" font-family="Verdana" font-size="8.00">+ «static» LATEST_PHP_5_2 : string = &quot;5\.2\.17&quot; {readOnly}</text>
<text text-anchor="start" x="21.5" y="-1315.6" font-family="Verdana" font-size="8.00">+ «static» LATEST_PHP_5_3 : string = &quot;5\.3\.29&quot; {readOnly}</text>
<text text-anchor="start" x="21.5" y="-1302.6" font-family="Verdana" font-size="8.00">+ «static» LATEST_PHP_5_4 : string = &quot;5\.4\.45&quot; {readOnly}</text>
<text text-anchor="start" x="21.5" y="-1289.6" font-family="Verdana" font-size="8.00">+ «static» LATEST_PHP_5_5 : string = &quot;5\.5\.38&quot; {readOnly}</text>
<text text-anchor="start" x="21.5" y="-1276.6" font-family="Verdana" font-size="8.00">+ «static» LATEST_PHP_5_6 : string = &quot;5\.6\.40&quot; {readOnly}</text>
<text text-anchor="start" x="21.5" y="-1263.6" font-family="Verdana" font-size="8.00">+ «static» LATEST_PHP_7_0 : string = &quot;7\.0\.33&quot; {readOnly}</text>
<text text-anchor="start" x="21.5" y="-1250.6" font-family="Verdana" font-size="8.00">+ «static» LATEST_PHP_7_1 : string = &quot;7\.1\.33&quot; {readOnly}</text>
<text text-anchor="start" x="21.5" y="-1237.6" font-family="Verdana" font-size="8.00">+ «static» LATEST_PHP_7_2 : string = &quot;7\.2\.34&quot; {readOnly}</text>
<text text-anchor="start" x="21.5" y="-1224.6" font-family="Verdana" font-size="8.00">+ «static» LATEST_PHP_7_3 : string = &quot;7\.3\.33&quot; {readOnly}</text>
<text text-anchor="start" x="21.5" y="-1211.6" font-family="Verdana" font-size="8.00">+ «static» LATEST_PHP_7_4 : string = &quot;7\.4\.33&quot; {readOnly}</text>
<text text-anchor="start" x="21.5" y="-1198.6" font-family="Verdana" font-size="8.00">+ «static» LATEST_PHP_8_0 : string = &quot;8\.0\.30&quot; {readOnly}</text>
<text text-anchor="start" x="21.5" y="-1185.6" font-family="Verdana" font-size="8.00">+ «static» LATEST_PHP_8_1 : string = &quot;8\.1\.34&quot; {readOnly}</text>
<text text-anchor="start" x="21.5" y="-1172.6" font-family="Verdana" font-size="8.00">+ «static» LATEST_PHP_8_2 : string = &quot;8\.2\.30&quot; {readOnly}</text>
<text text-anchor="start" x="21.5" y="-1159.6" font-family="Verdana" font-size="8.00">+ «static» LATEST_PHP_8_3 : string = &quot;8\.3\.30&quot; {readOnly}</text>
<text text-anchor="start" x="21.5" y="-1146.6" font-family="Verdana" font-size="8.00">+ «static» LATEST_PHP_8_4 : string = &quot;8\.4\.18&quot; {readOnly}</text>
<text text-anchor="start" x="21.5" y="-1133.6" font-family="Verdana" font-size="8.00">+ «static» LATEST_PHP_8_5 : string = &quot;8\.5\.3&quot; {readOnly}</text>
<polygon fill="none" stroke="black" points="16.5,-1107 16.5,-1126 745.5,-1126 745.5,-1107 16.5,-1107"/>
<text text-anchor="start" x="21.5" y="-1114.6" font-family="Verdana" font-size="8.00">– distributionRepository</text>
<polygon fill="none" stroke="black" points="16.5,-984 16.5,-1107 745.5,-1107 745.5,-984 16.5,-984"/>
<text text-anchor="start" x="21.5" y="-1095.6" font-family="Verdana" font-size="8.00">+ __construct(distributionRepository : Bartlett\CompatInfoDb\Domain\Repository\DistributionRepository)</text>
<text text-anchor="start" x="21.5" y="-1082.6" font-family="Verdana" font-size="8.00">+ __invoke(query : Bartlett\CompatInfoDb\Application\Query\ListRef\ListQuery) : Bartlett\CompatInfoDb\Domain\ValueObject\Platform</text>
<text text-anchor="start" x="21.5" y="-1069.6" font-family="Verdana" font-size="8.00">– filterPlatformByExtensionType(platform : Bartlett\CompatInfoDb\Domain\ValueObject\Platform, type : string) : Bartlett\CompatInfoDb\Domain\ValueObject\Platform</text>
<text text-anchor="start" x="21.5" y="-1056.6" font-family="Verdana" font-size="8.00">– filterPlatformByExtensionName(platform : Bartlett\CompatInfoDb\Domain\ValueObject\Platform, name : string) : Bartlett\CompatInfoDb\Domain\ValueObject\Platform</text>
<text text-anchor="start" x="21.5" y="-1043.6" font-family="Verdana" font-size="8.00">– filterPlatformByExtensionInstalled(platform : Bartlett\CompatInfoDb\Domain\ValueObject\Platform) : Bartlett\CompatInfoDb\Domain\ValueObject\Platform</text>
<text text-anchor="start" x="21.5" y="-1030.6" font-family="Verdana" font-size="8.00">– filterPlatformByExtensionOutdated(platform : Bartlett\CompatInfoDb\Domain\ValueObject\Platform) : Bartlett\CompatInfoDb\Domain\ValueObject\Platform</text>
<text text-anchor="start" x="21.5" y="-1017.6" font-family="Verdana" font-size="8.00">– filterPlatformByExtensionDeprecated(platform : Bartlett\CompatInfoDb\Domain\ValueObject\Platform, deprecated : bool) : Bartlett\CompatInfoDb\Domain\ValueObject\Platform</text>
<text text-anchor="start" x="21.5" y="-1004.6" font-family="Verdana" font-size="8.00"># getExtensionVersion(name : string) : string</text>
<text text-anchor="start" x="21.5" y="-991.6" font-family="Verdana" font-size="8.00"># getLatestPhpVersion(phpVersion : string = PHP_VERSION) : string</text>
</g>
<!-- Bartlett\\CompatInfoDb\\Application\\Query\\ListRef\\ListHandler&#45;&gt;Bartlett\\CompatInfoDb\\Application\\Query\\QueryHandlerInterface -->
<g id="edge7" class="edge">
<title>Bartlett\\CompatInfoDb\\Application\\Query\\ListRef\\ListHandler&#45;&gt;Bartlett\\CompatInfoDb\\Application\\Query\\QueryHandlerInterface</title>
<path fill="none" stroke="black" stroke-dasharray="5,2" d="M745.04,-1349.75C805.23,-1379.02 859.84,-1405.57 896.39,-1423.34"/>
<polygon fill="none" stroke="black" points="895.22,-1426.66 905.74,-1427.89 898.28,-1420.37 895.22,-1426.66"/>
</g>
<!-- Bartlett\\CompatInfoDb\\Domain\\Factory\\ExtensionVersionProviderInterface -->
<g id="node10" class="node">
<title>Bartlett\\CompatInfoDb\\Domain\\Factory\\ExtensionVersionProviderInterface</title>
<polygon fill="#fefece" stroke="transparent" points="1070,-1297 818,-1297 818,-1049 1070,-1049 1070,-1297"/>
<polygon fill="#eeeeee" stroke="transparent" points="818,-1275 818,-1297 1070,-1297 1070,-1275 818,-1275"/>
<polygon fill="none" stroke="black" points="818,-1275 818,-1297 1070,-1297 1070,-1275 818,-1275"/>
<text text-anchor="start" x="918" y="-1288.6" font-family="Verdana" font-weight="bold" font-size="8.00">«interface»</text>
<text text-anchor="start" x="865.5" y="-1280.6" font-family="Verdana" font-weight="bold" font-size="8.00">ExtensionVersionProviderInterface</text>
<polygon fill="none" stroke="black" points="818,-1061 818,-1275 1070,-1275 1070,-1061 818,-1061"/>
<text text-anchor="start" x="823" y="-1263.6" font-family="Verdana" font-size="8.00">+ «static» LATEST_PHP_5_2 : string = &quot;5\.2\.17&quot; {readOnly}</text>
<text text-anchor="start" x="823" y="-1250.6" font-family="Verdana" font-size="8.00">+ «static» LATEST_PHP_5_3 : string = &quot;5\.3\.29&quot; {readOnly}</text>
<text text-anchor="start" x="823" y="-1237.6" font-family="Verdana" font-size="8.00">+ «static» LATEST_PHP_5_4 : string = &quot;5\.4\.45&quot; {readOnly}</text>
<text text-anchor="start" x="823" y="-1224.6" font-family="Verdana" font-size="8.00">+ «static» LATEST_PHP_5_5 : string = &quot;5\.5\.38&quot; {readOnly}</text>
<text text-anchor="start" x="823" y="-1211.6" font-family="Verdana" font-size="8.00">+ «static» LATEST_PHP_5_6 : string = &quot;5\.6\.40&quot; {readOnly}</text>
<text text-anchor="start" x="823" y="-1198.6" font-family="Verdana" font-size="8.00">+ «static» LATEST_PHP_7_0 : string = &quot;7\.0\.33&quot; {readOnly}</text>
<text text-anchor="start" x="823" y="-1185.6" font-family="Verdana" font-size="8.00">+ «static» LATEST_PHP_7_1 : string = &quot;7\.1\.33&quot; {readOnly}</text>
<text text-anchor="start" x="823" y="-1172.6" font-family="Verdana" font-size="8.00">+ «static» LATEST_PHP_7_2 : string = &quot;7\.2\.34&quot; {readOnly}</text>
<text text-anchor="start" x="823" y="-1159.6" font-family="Verdana" font-size="8.00">+ «static» LATEST_PHP_7_3 : string = &quot;7\.3\.33&quot; {readOnly}</text>
<text text-anchor="start" x="823" y="-1146.6" font-family="Verdana" font-size="8.00">+ «static» LATEST_PHP_7_4 : string = &quot;7\.4\.33&quot; {readOnly}</text>
<text text-anchor="start" x="823" y="-1133.6" font-family="Verdana" font-size="8.00">+ «static» LATEST_PHP_8_0 : string = &quot;8\.0\.30&quot; {readOnly}</text>
<text text-anchor="start" x="823" y="-1120.6" font-family="Verdana" font-size="8.00">+ «static» LATEST_PHP_8_1 : string = &quot;8\.1\.34&quot; {readOnly}</text>
<text text-anchor="start" x="823" y="-1107.6" font-family="Verdana" font-size="8.00">+ «static» LATEST_PHP_8_2 : string = &quot;8\.2\.30&quot; {readOnly}</text>
<text text-anchor="start" x="823" y="-1094.6" font-family="Verdana" font-size="8.00">+ «static» LATEST_PHP_8_3 : string = &quot;8\.3\.30&quot; {readOnly}</text>
<text text-anchor="start" x="823" y="-1081.6" font-family="Verdana" font-size="8.00">+ «static» LATEST_PHP_8_4 : string = &quot;8\.4\.18&quot; {readOnly}</text>
<text text-anchor="start" x="823" y="-1068.6" font-family="Verdana" font-size="8.00">+ «static» LATEST_PHP_8_5 : string = &quot;8\.5\.3&quot; {readOnly}</text>
<polygon fill="none" stroke="black" points="818,-1055 818,-1061 1070,-1061 1070,-1055 818,-1055"/>
<polygon fill="none" stroke="black" points="818,-1049 818,-1055 1070,-1055 1070,-1049 818,-1049"/>
</g>
<!-- Bartlett\\CompatInfoDb\\Application\\Query\\ListRef\\ListHandler&#45;&gt;Bartlett\\CompatInfoDb\\Domain\\Factory\\ExtensionVersionProviderInterface -->
<g id="edge8" class="edge">
<title>Bartlett\\CompatInfoDb\\Application\\Query\\ListRef\\ListHandler&#45;&gt;Bartlett\\CompatInfoDb\\Domain\\Factory\\ExtensionVersionProviderInterface</title>
<path fill="none" stroke="black" stroke-dasharray="5,2" d="M745.04,-1173C766.85,-1173 787.93,-1173 807.69,-1173"/>
<polygon fill="none" stroke="black" points="807.89,-1176.5 817.89,-1173 807.89,-1169.5 807.89,-1176.5"/>
</g>
<!-- Bartlett\\CompatInfoDb\\Application\\Query\\Show\\ShowHandler -->
<g id="node11" class="node">
<title>Bartlett\\CompatInfoDb\\Application\\Query\\Show\\ShowHandler</title>
<polygon fill="#fefece" stroke="transparent" points="663.5,-1482.5 97.5,-1482.5 97.5,-1409.5 663.5,-1409.5 663.5,-1482.5"/>
<polygon fill="#eeeeee" stroke="transparent" points="97.5,-1460 97.5,-1482 663.5,-1482 663.5,-1460 97.5,-1460"/>
<polygon fill="none" stroke="black" points="97.5,-1460 97.5,-1482 663.5,-1482 663.5,-1460 97.5,-1460"/>
<text text-anchor="start" x="350" y="-1465.6" font-family="Verdana" font-weight="bold" font-size="8.00">ShowHandler</text>
<polygon fill="none" stroke="black" points="97.5,-1441 97.5,-1460 663.5,-1460 663.5,-1441 97.5,-1441"/>
<text text-anchor="start" x="102.5" y="-1448.6" font-family="Verdana" font-size="8.00">– factory</text>
<polygon fill="none" stroke="black" points="97.5,-1409 97.5,-1441 663.5,-1441 663.5,-1409 97.5,-1409"/>
<text text-anchor="start" x="102.5" y="-1429.6" font-family="Verdana" font-size="8.00">+ __construct(factory : Bartlett\CompatInfoDb\Domain\Factory\ExtensionFactoryInterface)</text>
<text text-anchor="start" x="102.5" y="-1416.6" font-family="Verdana" font-size="8.00">+ __invoke(query : Bartlett\CompatInfoDb\Application\Query\Show\ShowQuery) : ?Bartlett\CompatInfoDb\Domain\ValueObject\Extension</text>
</g>
<!-- Bartlett\\CompatInfoDb\\Application\\Query\\Show\\ShowHandler&#45;&gt;Bartlett\\CompatInfoDb\\Application\\Query\\QueryHandlerInterface -->
<g id="edge9" class="edge">
<title>Bartlett\\CompatInfoDb\\Application\\Query\\Show\\ShowHandler&#45;&gt;Bartlett\\CompatInfoDb\\Application\\Query\\QueryHandlerInterface</title>
<path fill="none" stroke="black" stroke-dasharray="5,2" d="M663.9,-1446C744.58,-1446 825.09,-1446 878.76,-1446"/>
<polygon fill="none" stroke="black" points="878.79,-1449.5 888.79,-1446 878.79,-1442.5 878.79,-1449.5"/>
</g>
</g>
</svg>
